G04 #@! TF.FileFunction,Legend,Bot*
%FSLAX46Y46*%
G04 Gerber Fmt 4.6, Leading zero omitted, Abs format (unit mm)*
G04 Created by KiCad (PCBNEW 0.201509221857+6208~30~ubuntu14.04.1-product) date Thu 24 Sep 2015 08:06:42 PM PDT*
%MOMM*%
G01*
G04 APERTURE LIST*
%ADD10C,0.100000*%
%ADD11C,0.002540*%
G04 APERTURE END LIST*
D10*
X37433333Y-1650001D02*
X37400000Y-1583335D01*
X37400000Y-1450001D01*
X37433333Y-1383335D01*
X37500000Y-1316668D01*
X37566667Y-1283335D01*
X37700000Y-1283335D01*
X37766667Y-1316668D01*
X37833333Y-1383335D01*
X37866667Y-1450001D01*
X37866667Y-1583335D01*
X37833333Y-1650001D01*
X37166667Y-1516668D02*
X37200000Y-1350001D01*
X37300000Y-1183335D01*
X37466667Y-1083335D01*
X37633333Y-1050001D01*
X37800000Y-1083335D01*
X37966667Y-1183335D01*
X38066667Y-1350001D01*
X38100000Y-1516668D01*
X38066667Y-1683335D01*
X37966667Y-1850001D01*
X37800000Y-1950001D01*
X37633333Y-1983335D01*
X37466667Y-1950001D01*
X37300000Y-1850001D01*
X37200000Y-1683335D01*
X37166667Y-1516668D01*
X37333333Y-2250001D02*
X37300000Y-2283335D01*
X37266667Y-2350001D01*
X37266667Y-2516668D01*
X37300000Y-2583335D01*
X37333333Y-2616668D01*
X37400000Y-2650001D01*
X37466667Y-2650001D01*
X37566667Y-2616668D01*
X37966667Y-2216668D01*
X37966667Y-2650001D01*
X37266667Y-3083335D02*
X37266667Y-3150002D01*
X37300000Y-3216668D01*
X37333333Y-3250002D01*
X37400000Y-3283335D01*
X37533333Y-3316668D01*
X37700000Y-3316668D01*
X37833333Y-3283335D01*
X37900000Y-3250002D01*
X37933333Y-3216668D01*
X37966667Y-3150002D01*
X37966667Y-3083335D01*
X37933333Y-3016668D01*
X37900000Y-2983335D01*
X37833333Y-2950002D01*
X37700000Y-2916668D01*
X37533333Y-2916668D01*
X37400000Y-2950002D01*
X37333333Y-2983335D01*
X37300000Y-3016668D01*
X37266667Y-3083335D01*
X37966667Y-3983335D02*
X37966667Y-3583335D01*
X37966667Y-3783335D02*
X37266667Y-3783335D01*
X37366667Y-3716669D01*
X37433333Y-3650002D01*
X37466667Y-3583335D01*
X37266667Y-4616669D02*
X37266667Y-4283336D01*
X37600000Y-4250002D01*
X37566667Y-4283336D01*
X37533333Y-4350002D01*
X37533333Y-4516669D01*
X37566667Y-4583336D01*
X37600000Y-4616669D01*
X37666667Y-4650002D01*
X37833333Y-4650002D01*
X37900000Y-4616669D01*
X37933333Y-4583336D01*
X37966667Y-4516669D01*
X37966667Y-4350002D01*
X37933333Y-4283336D01*
X37900000Y-4250002D01*
X37933333Y-5450002D02*
X37966667Y-5550002D01*
X37966667Y-5716669D01*
X37933333Y-5783336D01*
X37900000Y-5816669D01*
X37833333Y-5850002D01*
X37766667Y-5850002D01*
X37700000Y-5816669D01*
X37666667Y-5783336D01*
X37633333Y-5716669D01*
X37600000Y-5583336D01*
X37566667Y-5516669D01*
X37533333Y-5483336D01*
X37466667Y-5450002D01*
X37400000Y-5450002D01*
X37333333Y-5483336D01*
X37300000Y-5516669D01*
X37266667Y-5583336D01*
X37266667Y-5750002D01*
X37300000Y-5850002D01*
X37966667Y-6250003D02*
X37933333Y-6183336D01*
X37900000Y-6150003D01*
X37833333Y-6116669D01*
X37633333Y-6116669D01*
X37566667Y-6150003D01*
X37533333Y-6183336D01*
X37500000Y-6250003D01*
X37500000Y-6350003D01*
X37533333Y-6416669D01*
X37566667Y-6450003D01*
X37633333Y-6483336D01*
X37833333Y-6483336D01*
X37900000Y-6450003D01*
X37933333Y-6416669D01*
X37966667Y-6350003D01*
X37966667Y-6250003D01*
X37500000Y-6683336D02*
X37500000Y-6950002D01*
X37966667Y-6783336D02*
X37366667Y-6783336D01*
X37300000Y-6816669D01*
X37266667Y-6883336D01*
X37266667Y-6950002D01*
X37500000Y-7083336D02*
X37500000Y-7350002D01*
X37266667Y-7183336D02*
X37866667Y-7183336D01*
X37933333Y-7216669D01*
X37966667Y-7283336D01*
X37966667Y-7350002D01*
X37933333Y-7850002D02*
X37966667Y-7783336D01*
X37966667Y-7650002D01*
X37933333Y-7583336D01*
X37866667Y-7550002D01*
X37600000Y-7550002D01*
X37533333Y-7583336D01*
X37500000Y-7650002D01*
X37500000Y-7783336D01*
X37533333Y-7850002D01*
X37600000Y-7883336D01*
X37666667Y-7883336D01*
X37733333Y-7550002D01*
X37966667Y-8183336D02*
X37500000Y-8183336D01*
X37633333Y-8183336D02*
X37566667Y-8216669D01*
X37533333Y-8250002D01*
X37500000Y-8316669D01*
X37500000Y-8383336D01*
X37966667Y-8616669D02*
X37266667Y-8616669D01*
X37600000Y-8616669D02*
X37600000Y-9016669D01*
X37966667Y-9016669D02*
X37266667Y-9016669D01*
X37966667Y-9650002D02*
X37600000Y-9650002D01*
X37533333Y-9616668D01*
X37500000Y-9550002D01*
X37500000Y-9416668D01*
X37533333Y-9350002D01*
X37933333Y-9650002D02*
X37966667Y-9583335D01*
X37966667Y-9416668D01*
X37933333Y-9350002D01*
X37866667Y-9316668D01*
X37800000Y-9316668D01*
X37733333Y-9350002D01*
X37700000Y-9416668D01*
X37700000Y-9583335D01*
X37666667Y-9650002D01*
X37966667Y-9983335D02*
X37500000Y-9983335D01*
X37633333Y-9983335D02*
X37566667Y-10016668D01*
X37533333Y-10050001D01*
X37500000Y-10116668D01*
X37500000Y-10183335D01*
X37966667Y-10716668D02*
X37266667Y-10716668D01*
X37933333Y-10716668D02*
X37966667Y-10650001D01*
X37966667Y-10516668D01*
X37933333Y-10450001D01*
X37900000Y-10416668D01*
X37833333Y-10383334D01*
X37633333Y-10383334D01*
X37566667Y-10416668D01*
X37533333Y-10450001D01*
X37500000Y-10516668D01*
X37500000Y-10650001D01*
X37533333Y-10716668D01*
X37500000Y-10983334D02*
X37966667Y-11116667D01*
X37633333Y-11250001D01*
X37966667Y-11383334D01*
X37500000Y-11516667D01*
X37966667Y-12083334D02*
X37600000Y-12083334D01*
X37533333Y-12050000D01*
X37500000Y-11983334D01*
X37500000Y-11850000D01*
X37533333Y-11783334D01*
X37933333Y-12083334D02*
X37966667Y-12016667D01*
X37966667Y-11850000D01*
X37933333Y-11783334D01*
X37866667Y-11750000D01*
X37800000Y-11750000D01*
X37733333Y-11783334D01*
X37700000Y-11850000D01*
X37700000Y-12016667D01*
X37666667Y-12083334D01*
X37966667Y-12416667D02*
X37500000Y-12416667D01*
X37633333Y-12416667D02*
X37566667Y-12450000D01*
X37533333Y-12483333D01*
X37500000Y-12550000D01*
X37500000Y-12616667D01*
X37933333Y-13116666D02*
X37966667Y-13050000D01*
X37966667Y-12916666D01*
X37933333Y-12850000D01*
X37866667Y-12816666D01*
X37600000Y-12816666D01*
X37533333Y-12850000D01*
X37500000Y-12916666D01*
X37500000Y-13050000D01*
X37533333Y-13116666D01*
X37600000Y-13150000D01*
X37666667Y-13150000D01*
X37733333Y-12816666D01*
X36566667Y-1066667D02*
X35866667Y-1066667D01*
X36200000Y-1066667D02*
X36200000Y-1466667D01*
X36566667Y-1466667D02*
X35866667Y-1466667D01*
X36533333Y-2066666D02*
X36566667Y-2000000D01*
X36566667Y-1866666D01*
X36533333Y-1800000D01*
X36466667Y-1766666D01*
X36200000Y-1766666D01*
X36133333Y-1800000D01*
X36100000Y-1866666D01*
X36100000Y-2000000D01*
X36133333Y-2066666D01*
X36200000Y-2100000D01*
X36266667Y-2100000D01*
X36333333Y-1766666D01*
X36566667Y-2400000D02*
X36100000Y-2400000D01*
X36233333Y-2400000D02*
X36166667Y-2433333D01*
X36133333Y-2466666D01*
X36100000Y-2533333D01*
X36100000Y-2600000D01*
X36566667Y-2833333D02*
X36100000Y-2833333D01*
X36166667Y-2833333D02*
X36133333Y-2866666D01*
X36100000Y-2933333D01*
X36100000Y-3033333D01*
X36133333Y-3099999D01*
X36200000Y-3133333D01*
X36566667Y-3133333D01*
X36200000Y-3133333D02*
X36133333Y-3166666D01*
X36100000Y-3233333D01*
X36100000Y-3333333D01*
X36133333Y-3399999D01*
X36200000Y-3433333D01*
X36566667Y-3433333D01*
X36533333Y-4033332D02*
X36566667Y-3966666D01*
X36566667Y-3833332D01*
X36533333Y-3766666D01*
X36466667Y-3733332D01*
X36200000Y-3733332D01*
X36133333Y-3766666D01*
X36100000Y-3833332D01*
X36100000Y-3966666D01*
X36133333Y-4033332D01*
X36200000Y-4066666D01*
X36266667Y-4066666D01*
X36333333Y-3733332D01*
X36533333Y-4333332D02*
X36566667Y-4399999D01*
X36566667Y-4533332D01*
X36533333Y-4599999D01*
X36466667Y-4633332D01*
X36433333Y-4633332D01*
X36366667Y-4599999D01*
X36333333Y-4533332D01*
X36333333Y-4433332D01*
X36300000Y-4366666D01*
X36233333Y-4333332D01*
X36200000Y-4333332D01*
X36133333Y-4366666D01*
X36100000Y-4433332D01*
X36100000Y-4533332D01*
X36133333Y-4599999D01*
X36300000Y-4933333D02*
X36300000Y-5466666D01*
X36566667Y-6133333D02*
X36566667Y-5800000D01*
X35866667Y-5800000D01*
X36566667Y-6366667D02*
X36100000Y-6366667D01*
X35866667Y-6366667D02*
X35900000Y-6333333D01*
X35933333Y-6366667D01*
X35900000Y-6400000D01*
X35866667Y-6366667D01*
X35933333Y-6366667D01*
X36100000Y-6600000D02*
X36100000Y-6866666D01*
X35866667Y-6700000D02*
X36466667Y-6700000D01*
X36533333Y-6733333D01*
X36566667Y-6800000D01*
X36566667Y-6866666D01*
X36533333Y-7366666D02*
X36566667Y-7300000D01*
X36566667Y-7166666D01*
X36533333Y-7100000D01*
X36466667Y-7066666D01*
X36200000Y-7066666D01*
X36133333Y-7100000D01*
X36100000Y-7166666D01*
X36100000Y-7300000D01*
X36133333Y-7366666D01*
X36200000Y-7400000D01*
X36266667Y-7400000D01*
X36333333Y-7066666D01*
X36200000Y-8466666D02*
X36233333Y-8566666D01*
X36266667Y-8599999D01*
X36333333Y-8633333D01*
X36433333Y-8633333D01*
X36500000Y-8599999D01*
X36533333Y-8566666D01*
X36566667Y-8499999D01*
X36566667Y-8233333D01*
X35866667Y-8233333D01*
X35866667Y-8466666D01*
X35900000Y-8533333D01*
X35933333Y-8566666D01*
X36000000Y-8599999D01*
X36066667Y-8599999D01*
X36133333Y-8566666D01*
X36166667Y-8533333D01*
X36200000Y-8466666D01*
X36200000Y-8233333D01*
X36566667Y-9233333D02*
X36200000Y-9233333D01*
X36133333Y-9199999D01*
X36100000Y-9133333D01*
X36100000Y-8999999D01*
X36133333Y-8933333D01*
X36533333Y-9233333D02*
X36566667Y-9166666D01*
X36566667Y-8999999D01*
X36533333Y-8933333D01*
X36466667Y-8899999D01*
X36400000Y-8899999D01*
X36333333Y-8933333D01*
X36300000Y-8999999D01*
X36300000Y-9166666D01*
X36266667Y-9233333D01*
X36533333Y-9533332D02*
X36566667Y-9599999D01*
X36566667Y-9733332D01*
X36533333Y-9799999D01*
X36466667Y-9833332D01*
X36433333Y-9833332D01*
X36366667Y-9799999D01*
X36333333Y-9733332D01*
X36333333Y-9633332D01*
X36300000Y-9566666D01*
X36233333Y-9533332D01*
X36200000Y-9533332D01*
X36133333Y-9566666D01*
X36100000Y-9633332D01*
X36100000Y-9733332D01*
X36133333Y-9799999D01*
X36566667Y-10133333D02*
X36100000Y-10133333D01*
X35866667Y-10133333D02*
X35900000Y-10099999D01*
X35933333Y-10133333D01*
X35900000Y-10166666D01*
X35866667Y-10133333D01*
X35933333Y-10133333D01*
X36533333Y-10766666D02*
X36566667Y-10699999D01*
X36566667Y-10566666D01*
X36533333Y-10499999D01*
X36500000Y-10466666D01*
X36433333Y-10433332D01*
X36233333Y-10433332D01*
X36166667Y-10466666D01*
X36133333Y-10499999D01*
X36100000Y-10566666D01*
X36100000Y-10699999D01*
X36133333Y-10766666D01*
X36200000Y-11833332D02*
X36200000Y-11599999D01*
X36566667Y-11599999D02*
X35866667Y-11599999D01*
X35866667Y-11933332D01*
X36566667Y-12199999D02*
X36100000Y-12199999D01*
X36233333Y-12199999D02*
X36166667Y-12233332D01*
X36133333Y-12266665D01*
X36100000Y-12333332D01*
X36100000Y-12399999D01*
X36566667Y-12733332D02*
X36533333Y-12666665D01*
X36500000Y-12633332D01*
X36433333Y-12599998D01*
X36233333Y-12599998D01*
X36166667Y-12633332D01*
X36133333Y-12666665D01*
X36100000Y-12733332D01*
X36100000Y-12833332D01*
X36133333Y-12899998D01*
X36166667Y-12933332D01*
X36233333Y-12966665D01*
X36433333Y-12966665D01*
X36500000Y-12933332D01*
X36533333Y-12899998D01*
X36566667Y-12833332D01*
X36566667Y-12733332D01*
X36100000Y-13266665D02*
X36566667Y-13266665D01*
X36166667Y-13266665D02*
X36133333Y-13299998D01*
X36100000Y-13366665D01*
X36100000Y-13466665D01*
X36133333Y-13533331D01*
X36200000Y-13566665D01*
X36566667Y-13566665D01*
X36100000Y-13799998D02*
X36100000Y-14066664D01*
X35866667Y-13899998D02*
X36466667Y-13899998D01*
X36533333Y-13933331D01*
X36566667Y-13999998D01*
X36566667Y-14066664D01*
X36533333Y-14566664D02*
X36566667Y-14499998D01*
X36566667Y-14366664D01*
X36533333Y-14299998D01*
X36466667Y-14266664D01*
X36200000Y-14266664D01*
X36133333Y-14299998D01*
X36100000Y-14366664D01*
X36100000Y-14499998D01*
X36133333Y-14566664D01*
X36200000Y-14599998D01*
X36266667Y-14599998D01*
X36333333Y-14266664D01*
X36100000Y-14899998D02*
X36566667Y-14899998D01*
X36166667Y-14899998D02*
X36133333Y-14933331D01*
X36100000Y-14999998D01*
X36100000Y-15099998D01*
X36133333Y-15166664D01*
X36200000Y-15199998D01*
X36566667Y-15199998D01*
X36566667Y-15833331D02*
X35866667Y-15833331D01*
X36533333Y-15833331D02*
X36566667Y-15766664D01*
X36566667Y-15633331D01*
X36533333Y-15566664D01*
X36500000Y-15533331D01*
X36433333Y-15499997D01*
X36233333Y-15499997D01*
X36166667Y-15533331D01*
X36133333Y-15566664D01*
X36100000Y-15633331D01*
X36100000Y-15766664D01*
X36133333Y-15833331D01*
X36566667Y-17066663D02*
X36566667Y-16666663D01*
X36566667Y-16866663D02*
X35866667Y-16866663D01*
X35966667Y-16799997D01*
X36033333Y-16733330D01*
X36066667Y-16666663D01*
X36500000Y-17366664D02*
X36533333Y-17399997D01*
X36566667Y-17366664D01*
X36533333Y-17333330D01*
X36500000Y-17366664D01*
X36566667Y-17366664D01*
X35933333Y-17666663D02*
X35900000Y-17699997D01*
X35866667Y-17766663D01*
X35866667Y-17933330D01*
X35900000Y-17999997D01*
X35933333Y-18033330D01*
X36000000Y-18066663D01*
X36066667Y-18066663D01*
X36166667Y-18033330D01*
X36566667Y-17633330D01*
X36566667Y-18066663D01*
X28292000Y-24903000D02*
X27292000Y-24903000D01*
X27292000Y-23203000D02*
X28292000Y-23203000D01*
X30192000Y-21803000D02*
X30192000Y-20803000D01*
X31892000Y-20803000D02*
X31892000Y-21803000D01*
X33792000Y-22703000D02*
X34792000Y-22703000D01*
X34792000Y-24403000D02*
X33792000Y-24403000D01*
X39800000Y-16750000D02*
X40800000Y-16750000D01*
X40800000Y-18450000D02*
X39800000Y-18450000D01*
X24450000Y-21350000D02*
X24450000Y-20350000D01*
X26150000Y-20350000D02*
X26150000Y-21350000D01*
X25950000Y-21850000D02*
X25950000Y-20850000D01*
X27650000Y-20850000D02*
X27650000Y-21850000D01*
X17550000Y-27450000D02*
X16550000Y-27450000D01*
X16550000Y-25750000D02*
X17550000Y-25750000D01*
X14950000Y-35550000D02*
X13950000Y-35550000D01*
X13950000Y-33850000D02*
X14950000Y-33850000D01*
X28300000Y-36400000D02*
X28300000Y-35400000D01*
X30000000Y-35400000D02*
X30000000Y-36400000D01*
X31650000Y-36550000D02*
X32650000Y-36550000D01*
X32650000Y-38250000D02*
X31650000Y-38250000D01*
X37000000Y-34650000D02*
X37000000Y-35650000D01*
X35300000Y-35650000D02*
X35300000Y-34650000D01*
X31150000Y-33800000D02*
X32150000Y-33800000D01*
X32150000Y-35500000D02*
X31150000Y-35500000D01*
X39500000Y-35400000D02*
X39500000Y-36400000D01*
X37800000Y-36400000D02*
X37800000Y-35400000D01*
X16900000Y-22850000D02*
X16900000Y-23850000D01*
X15200000Y-23850000D02*
X15200000Y-22850000D01*
X15550000Y-19700000D02*
X14550000Y-19700000D01*
X14550000Y-18000000D02*
X15550000Y-18000000D01*
X15550000Y-21450000D02*
X14550000Y-21450000D01*
X14550000Y-19750000D02*
X15550000Y-19750000D01*
X33800000Y-24500000D02*
X34800000Y-24500000D01*
X34800000Y-26200000D02*
X33800000Y-26200000D01*
X38300000Y-23500000D02*
X39300000Y-23500000D01*
X39300000Y-25200000D02*
X38300000Y-25200000D01*
X42700000Y-25850000D02*
X42700000Y-24850000D01*
X44400000Y-24850000D02*
X44400000Y-25850000D01*
X40700000Y-23850000D02*
X40700000Y-22850000D01*
X42400000Y-22850000D02*
X42400000Y-23850000D01*
X42400000Y-19350000D02*
X42400000Y-20350000D01*
X40700000Y-20350000D02*
X40700000Y-19350000D01*
X44400000Y-20850000D02*
X44400000Y-21850000D01*
X42700000Y-21850000D02*
X42700000Y-20850000D01*
D11*
G36*
X40446620Y-9004520D02*
X40441540Y-8994360D01*
X40426300Y-8971500D01*
X40405980Y-8938480D01*
X40378040Y-8897840D01*
X40352640Y-8859740D01*
X40329780Y-8826720D01*
X40314540Y-8803860D01*
X40309460Y-8793700D01*
X40312000Y-8788620D01*
X40322160Y-8770840D01*
X40334860Y-8742900D01*
X40342480Y-8727660D01*
X40355180Y-8702260D01*
X40357720Y-8689560D01*
X40352640Y-8687020D01*
X40334860Y-8676860D01*
X40301840Y-8664160D01*
X40258660Y-8643840D01*
X40207860Y-8623520D01*
X40151980Y-8600660D01*
X40096100Y-8577800D01*
X40042760Y-8554940D01*
X39994500Y-8534620D01*
X39956400Y-8519380D01*
X39928460Y-8509220D01*
X39918300Y-8504140D01*
X39915760Y-8506680D01*
X39903060Y-8519380D01*
X39887820Y-8539700D01*
X39847180Y-8587960D01*
X39788760Y-8633680D01*
X39722720Y-8664160D01*
X39649060Y-8671780D01*
X39583020Y-8664160D01*
X39519520Y-8638760D01*
X39458560Y-8593040D01*
X39415380Y-8537160D01*
X39387440Y-8471120D01*
X39379820Y-8400000D01*
X39387440Y-8331420D01*
X39412840Y-8265380D01*
X39458560Y-8204420D01*
X39486500Y-8181560D01*
X39547460Y-8146000D01*
X39608420Y-8125680D01*
X39623660Y-8125680D01*
X39694780Y-8128220D01*
X39763360Y-8148540D01*
X39821780Y-8184100D01*
X39872580Y-8237440D01*
X39877660Y-8242520D01*
X39895440Y-8267920D01*
X39905600Y-8283160D01*
X39915760Y-8295860D01*
X40131660Y-8206960D01*
X40167220Y-8191720D01*
X40225640Y-8166320D01*
X40276440Y-8146000D01*
X40317080Y-8128220D01*
X40342480Y-8115520D01*
X40355180Y-8110440D01*
X40355180Y-8110440D01*
X40355180Y-8102820D01*
X40350100Y-8087580D01*
X40334860Y-8057100D01*
X40324700Y-8036780D01*
X40314540Y-8013920D01*
X40309460Y-8003760D01*
X40314540Y-7993600D01*
X40329780Y-7973280D01*
X40350100Y-7940260D01*
X40375500Y-7902160D01*
X40400900Y-7866600D01*
X40423760Y-7831040D01*
X40439000Y-7808180D01*
X40446620Y-7795480D01*
X40446620Y-7792940D01*
X40439000Y-7782780D01*
X40423760Y-7762460D01*
X40395820Y-7734520D01*
X40355180Y-7693880D01*
X40350100Y-7686260D01*
X40314540Y-7653240D01*
X40284060Y-7625300D01*
X40263740Y-7604980D01*
X40256120Y-7599900D01*
X40256120Y-7599900D01*
X40243420Y-7604980D01*
X40218020Y-7620220D01*
X40185000Y-7643080D01*
X40144360Y-7671020D01*
X40040220Y-7742140D01*
X39943700Y-7701500D01*
X39913220Y-7691340D01*
X39877660Y-7676100D01*
X39852260Y-7663400D01*
X39839560Y-7658320D01*
X39837020Y-7648160D01*
X39829400Y-7620220D01*
X39821780Y-7582120D01*
X39814160Y-7536400D01*
X39804000Y-7490680D01*
X39796380Y-7452580D01*
X39791300Y-7422100D01*
X39788760Y-7409400D01*
X39786220Y-7406860D01*
X39781140Y-7404320D01*
X39768440Y-7401780D01*
X39743040Y-7401780D01*
X39704940Y-7401780D01*
X39649060Y-7401780D01*
X39643980Y-7401780D01*
X39590640Y-7401780D01*
X39550000Y-7401780D01*
X39524600Y-7404320D01*
X39514440Y-7406860D01*
X39514440Y-7406860D01*
X39509360Y-7419560D01*
X39504280Y-7447500D01*
X39496660Y-7485600D01*
X39486500Y-7533860D01*
X39486500Y-7536400D01*
X39478880Y-7584660D01*
X39468720Y-7622760D01*
X39463640Y-7650700D01*
X39458560Y-7663400D01*
X39456020Y-7665940D01*
X39438240Y-7676100D01*
X39407760Y-7688800D01*
X39372200Y-7704040D01*
X39336640Y-7719280D01*
X39301080Y-7734520D01*
X39278220Y-7742140D01*
X39265520Y-7744680D01*
X39265520Y-7744680D01*
X39255360Y-7737060D01*
X39229960Y-7721820D01*
X39196940Y-7698960D01*
X39156300Y-7671020D01*
X39151220Y-7668480D01*
X39113120Y-7640540D01*
X39077560Y-7620220D01*
X39054700Y-7604980D01*
X39044540Y-7599900D01*
X39042000Y-7599900D01*
X39031840Y-7607520D01*
X39008980Y-7627840D01*
X38978500Y-7658320D01*
X38942940Y-7693880D01*
X38932780Y-7704040D01*
X38894680Y-7742140D01*
X38869280Y-7770080D01*
X38856580Y-7787860D01*
X38851500Y-7795480D01*
X38854040Y-7795480D01*
X38859120Y-7808180D01*
X38876900Y-7833580D01*
X38899760Y-7866600D01*
X38927700Y-7907240D01*
X38930240Y-7909780D01*
X38955640Y-7950420D01*
X38978500Y-7983440D01*
X38993740Y-8006300D01*
X39001360Y-8016460D01*
X39001360Y-8019000D01*
X38996280Y-8034240D01*
X38986120Y-8064720D01*
X38973420Y-8097740D01*
X38958180Y-8135840D01*
X38942940Y-8168860D01*
X38932780Y-8194260D01*
X38925160Y-8206960D01*
X38925160Y-8206960D01*
X38909920Y-8212040D01*
X38879440Y-8217120D01*
X38838800Y-8227280D01*
X38790540Y-8234900D01*
X38782920Y-8237440D01*
X38734660Y-8245060D01*
X38696560Y-8252680D01*
X38668620Y-8260300D01*
X38655920Y-8262840D01*
X38655920Y-8267920D01*
X38653380Y-8293320D01*
X38653380Y-8328880D01*
X38653380Y-8372060D01*
X38653380Y-8415240D01*
X38653380Y-8458420D01*
X38655920Y-8496520D01*
X38655920Y-8521920D01*
X38658460Y-8534620D01*
X38661000Y-8534620D01*
X38673700Y-8539700D01*
X38704180Y-8544780D01*
X38744820Y-8554940D01*
X38795620Y-8562560D01*
X38803240Y-8565100D01*
X38851500Y-8572720D01*
X38889600Y-8582880D01*
X38917540Y-8587960D01*
X38927700Y-8590500D01*
X38930240Y-8595580D01*
X38937860Y-8613360D01*
X38950560Y-8646380D01*
X38968340Y-8687020D01*
X39003900Y-8778460D01*
X38927700Y-8890220D01*
X38920080Y-8900380D01*
X38892140Y-8941020D01*
X38871820Y-8974040D01*
X38856580Y-8996900D01*
X38851500Y-9007060D01*
X38851500Y-9007060D01*
X38861660Y-9017220D01*
X38881980Y-9040080D01*
X38912460Y-9070560D01*
X38945480Y-9106120D01*
X38973420Y-9131520D01*
X39003900Y-9162000D01*
X39024220Y-9182320D01*
X39039460Y-9192480D01*
X39047080Y-9197560D01*
X39052160Y-9195020D01*
X39064860Y-9189940D01*
X39087720Y-9172160D01*
X39123280Y-9149300D01*
X39161380Y-9121360D01*
X39196940Y-9098500D01*
X39232500Y-9075640D01*
X39260440Y-9060400D01*
X39273140Y-9052780D01*
X39278220Y-9055320D01*
X39301080Y-9062940D01*
X39334100Y-9075640D01*
X39374740Y-9093420D01*
X39463640Y-9131520D01*
X39473800Y-9189940D01*
X39481420Y-9225500D01*
X39489040Y-9276300D01*
X39499200Y-9322020D01*
X39514440Y-9395680D01*
X39781140Y-9398220D01*
X39786220Y-9388060D01*
X39791300Y-9375360D01*
X39796380Y-9349960D01*
X39804000Y-9309320D01*
X39811620Y-9263600D01*
X39819240Y-9225500D01*
X39826860Y-9184860D01*
X39831940Y-9156920D01*
X39834480Y-9144220D01*
X39839560Y-9141680D01*
X39859880Y-9131520D01*
X39890360Y-9116280D01*
X39925920Y-9101040D01*
X39964020Y-9085800D01*
X39999580Y-9073100D01*
X40024980Y-9062940D01*
X40040220Y-9057860D01*
X40050380Y-9062940D01*
X40073240Y-9078180D01*
X40106260Y-9101040D01*
X40144360Y-9126440D01*
X40185000Y-9154380D01*
X40218020Y-9177240D01*
X40243420Y-9192480D01*
X40253580Y-9200100D01*
X40261200Y-9195020D01*
X40278980Y-9179780D01*
X40309460Y-9151840D01*
X40355180Y-9106120D01*
X40360260Y-9098500D01*
X40395820Y-9065480D01*
X40421220Y-9035000D01*
X40441540Y-9014680D01*
X40446620Y-9004520D01*
X40446620Y-9004520D01*
G37*
X40446620Y-9004520D02*
X40441540Y-8994360D01*
X40426300Y-8971500D01*
X40405980Y-8938480D01*
X40378040Y-8897840D01*
X40352640Y-8859740D01*
X40329780Y-8826720D01*
X40314540Y-8803860D01*
X40309460Y-8793700D01*
X40312000Y-8788620D01*
X40322160Y-8770840D01*
X40334860Y-8742900D01*
X40342480Y-8727660D01*
X40355180Y-8702260D01*
X40357720Y-8689560D01*
X40352640Y-8687020D01*
X40334860Y-8676860D01*
X40301840Y-8664160D01*
X40258660Y-8643840D01*
X40207860Y-8623520D01*
X40151980Y-8600660D01*
X40096100Y-8577800D01*
X40042760Y-8554940D01*
X39994500Y-8534620D01*
X39956400Y-8519380D01*
X39928460Y-8509220D01*
X39918300Y-8504140D01*
X39915760Y-8506680D01*
X39903060Y-8519380D01*
X39887820Y-8539700D01*
X39847180Y-8587960D01*
X39788760Y-8633680D01*
X39722720Y-8664160D01*
X39649060Y-8671780D01*
X39583020Y-8664160D01*
X39519520Y-8638760D01*
X39458560Y-8593040D01*
X39415380Y-8537160D01*
X39387440Y-8471120D01*
X39379820Y-8400000D01*
X39387440Y-8331420D01*
X39412840Y-8265380D01*
X39458560Y-8204420D01*
X39486500Y-8181560D01*
X39547460Y-8146000D01*
X39608420Y-8125680D01*
X39623660Y-8125680D01*
X39694780Y-8128220D01*
X39763360Y-8148540D01*
X39821780Y-8184100D01*
X39872580Y-8237440D01*
X39877660Y-8242520D01*
X39895440Y-8267920D01*
X39905600Y-8283160D01*
X39915760Y-8295860D01*
X40131660Y-8206960D01*
X40167220Y-8191720D01*
X40225640Y-8166320D01*
X40276440Y-8146000D01*
X40317080Y-8128220D01*
X40342480Y-8115520D01*
X40355180Y-8110440D01*
X40355180Y-8110440D01*
X40355180Y-8102820D01*
X40350100Y-8087580D01*
X40334860Y-8057100D01*
X40324700Y-8036780D01*
X40314540Y-8013920D01*
X40309460Y-8003760D01*
X40314540Y-7993600D01*
X40329780Y-7973280D01*
X40350100Y-7940260D01*
X40375500Y-7902160D01*
X40400900Y-7866600D01*
X40423760Y-7831040D01*
X40439000Y-7808180D01*
X40446620Y-7795480D01*
X40446620Y-7792940D01*
X40439000Y-7782780D01*
X40423760Y-7762460D01*
X40395820Y-7734520D01*
X40355180Y-7693880D01*
X40350100Y-7686260D01*
X40314540Y-7653240D01*
X40284060Y-7625300D01*
X40263740Y-7604980D01*
X40256120Y-7599900D01*
X40256120Y-7599900D01*
X40243420Y-7604980D01*
X40218020Y-7620220D01*
X40185000Y-7643080D01*
X40144360Y-7671020D01*
X40040220Y-7742140D01*
X39943700Y-7701500D01*
X39913220Y-7691340D01*
X39877660Y-7676100D01*
X39852260Y-7663400D01*
X39839560Y-7658320D01*
X39837020Y-7648160D01*
X39829400Y-7620220D01*
X39821780Y-7582120D01*
X39814160Y-7536400D01*
X39804000Y-7490680D01*
X39796380Y-7452580D01*
X39791300Y-7422100D01*
X39788760Y-7409400D01*
X39786220Y-7406860D01*
X39781140Y-7404320D01*
X39768440Y-7401780D01*
X39743040Y-7401780D01*
X39704940Y-7401780D01*
X39649060Y-7401780D01*
X39643980Y-7401780D01*
X39590640Y-7401780D01*
X39550000Y-7401780D01*
X39524600Y-7404320D01*
X39514440Y-7406860D01*
X39514440Y-7406860D01*
X39509360Y-7419560D01*
X39504280Y-7447500D01*
X39496660Y-7485600D01*
X39486500Y-7533860D01*
X39486500Y-7536400D01*
X39478880Y-7584660D01*
X39468720Y-7622760D01*
X39463640Y-7650700D01*
X39458560Y-7663400D01*
X39456020Y-7665940D01*
X39438240Y-7676100D01*
X39407760Y-7688800D01*
X39372200Y-7704040D01*
X39336640Y-7719280D01*
X39301080Y-7734520D01*
X39278220Y-7742140D01*
X39265520Y-7744680D01*
X39265520Y-7744680D01*
X39255360Y-7737060D01*
X39229960Y-7721820D01*
X39196940Y-7698960D01*
X39156300Y-7671020D01*
X39151220Y-7668480D01*
X39113120Y-7640540D01*
X39077560Y-7620220D01*
X39054700Y-7604980D01*
X39044540Y-7599900D01*
X39042000Y-7599900D01*
X39031840Y-7607520D01*
X39008980Y-7627840D01*
X38978500Y-7658320D01*
X38942940Y-7693880D01*
X38932780Y-7704040D01*
X38894680Y-7742140D01*
X38869280Y-7770080D01*
X38856580Y-7787860D01*
X38851500Y-7795480D01*
X38854040Y-7795480D01*
X38859120Y-7808180D01*
X38876900Y-7833580D01*
X38899760Y-7866600D01*
X38927700Y-7907240D01*
X38930240Y-7909780D01*
X38955640Y-7950420D01*
X38978500Y-7983440D01*
X38993740Y-8006300D01*
X39001360Y-8016460D01*
X39001360Y-8019000D01*
X38996280Y-8034240D01*
X38986120Y-8064720D01*
X38973420Y-8097740D01*
X38958180Y-8135840D01*
X38942940Y-8168860D01*
X38932780Y-8194260D01*
X38925160Y-8206960D01*
X38925160Y-8206960D01*
X38909920Y-8212040D01*
X38879440Y-8217120D01*
X38838800Y-8227280D01*
X38790540Y-8234900D01*
X38782920Y-8237440D01*
X38734660Y-8245060D01*
X38696560Y-8252680D01*
X38668620Y-8260300D01*
X38655920Y-8262840D01*
X38655920Y-8267920D01*
X38653380Y-8293320D01*
X38653380Y-8328880D01*
X38653380Y-8372060D01*
X38653380Y-8415240D01*
X38653380Y-8458420D01*
X38655920Y-8496520D01*
X38655920Y-8521920D01*
X38658460Y-8534620D01*
X38661000Y-8534620D01*
X38673700Y-8539700D01*
X38704180Y-8544780D01*
X38744820Y-8554940D01*
X38795620Y-8562560D01*
X38803240Y-8565100D01*
X38851500Y-8572720D01*
X38889600Y-8582880D01*
X38917540Y-8587960D01*
X38927700Y-8590500D01*
X38930240Y-8595580D01*
X38937860Y-8613360D01*
X38950560Y-8646380D01*
X38968340Y-8687020D01*
X39003900Y-8778460D01*
X38927700Y-8890220D01*
X38920080Y-8900380D01*
X38892140Y-8941020D01*
X38871820Y-8974040D01*
X38856580Y-8996900D01*
X38851500Y-9007060D01*
X38851500Y-9007060D01*
X38861660Y-9017220D01*
X38881980Y-9040080D01*
X38912460Y-9070560D01*
X38945480Y-9106120D01*
X38973420Y-9131520D01*
X39003900Y-9162000D01*
X39024220Y-9182320D01*
X39039460Y-9192480D01*
X39047080Y-9197560D01*
X39052160Y-9195020D01*
X39064860Y-9189940D01*
X39087720Y-9172160D01*
X39123280Y-9149300D01*
X39161380Y-9121360D01*
X39196940Y-9098500D01*
X39232500Y-9075640D01*
X39260440Y-9060400D01*
X39273140Y-9052780D01*
X39278220Y-9055320D01*
X39301080Y-9062940D01*
X39334100Y-9075640D01*
X39374740Y-9093420D01*
X39463640Y-9131520D01*
X39473800Y-9189940D01*
X39481420Y-9225500D01*
X39489040Y-9276300D01*
X39499200Y-9322020D01*
X39514440Y-9395680D01*
X39781140Y-9398220D01*
X39786220Y-9388060D01*
X39791300Y-9375360D01*
X39796380Y-9349960D01*
X39804000Y-9309320D01*
X39811620Y-9263600D01*
X39819240Y-9225500D01*
X39826860Y-9184860D01*
X39831940Y-9156920D01*
X39834480Y-9144220D01*
X39839560Y-9141680D01*
X39859880Y-9131520D01*
X39890360Y-9116280D01*
X39925920Y-9101040D01*
X39964020Y-9085800D01*
X39999580Y-9073100D01*
X40024980Y-9062940D01*
X40040220Y-9057860D01*
X40050380Y-9062940D01*
X40073240Y-9078180D01*
X40106260Y-9101040D01*
X40144360Y-9126440D01*
X40185000Y-9154380D01*
X40218020Y-9177240D01*
X40243420Y-9192480D01*
X40253580Y-9200100D01*
X40261200Y-9195020D01*
X40278980Y-9179780D01*
X40309460Y-9151840D01*
X40355180Y-9106120D01*
X40360260Y-9098500D01*
X40395820Y-9065480D01*
X40421220Y-9035000D01*
X40441540Y-9014680D01*
X40446620Y-9004520D01*
D10*
X7100000Y-29316667D02*
X7133333Y-29283333D01*
X7166667Y-29183333D01*
X7166667Y-29116667D01*
X7133333Y-29016667D01*
X7066667Y-28950000D01*
X7000000Y-28916667D01*
X6866667Y-28883333D01*
X6766667Y-28883333D01*
X6633333Y-28916667D01*
X6566667Y-28950000D01*
X6500000Y-29016667D01*
X6466667Y-29116667D01*
X6466667Y-29183333D01*
X6500000Y-29283333D01*
X6533333Y-29316667D01*
X7166667Y-29616667D02*
X6466667Y-29616667D01*
X7166667Y-30016667D01*
X6466667Y-30016667D01*
X7166667Y-30716666D02*
X7166667Y-30316666D01*
X7166667Y-30516666D02*
X6466667Y-30516666D01*
X6566667Y-30450000D01*
X6633333Y-30383333D01*
X6666667Y-30316666D01*
X27866666Y-25750000D02*
X27900000Y-25783333D01*
X28000000Y-25816667D01*
X28066666Y-25816667D01*
X28166666Y-25783333D01*
X28233333Y-25716667D01*
X28266666Y-25650000D01*
X28300000Y-25516667D01*
X28300000Y-25416667D01*
X28266666Y-25283333D01*
X28233333Y-25216667D01*
X28166666Y-25150000D01*
X28066666Y-25116667D01*
X28000000Y-25116667D01*
X27900000Y-25150000D01*
X27866666Y-25183333D01*
X27200000Y-25816667D02*
X27600000Y-25816667D01*
X27400000Y-25816667D02*
X27400000Y-25116667D01*
X27466666Y-25216667D01*
X27533333Y-25283333D01*
X27600000Y-25316667D01*
X32766666Y-21550000D02*
X32800000Y-21583333D01*
X32900000Y-21616667D01*
X32966666Y-21616667D01*
X33066666Y-21583333D01*
X33133333Y-21516667D01*
X33166666Y-21450000D01*
X33200000Y-21316667D01*
X33200000Y-21216667D01*
X33166666Y-21083333D01*
X33133333Y-21016667D01*
X33066666Y-20950000D01*
X32966666Y-20916667D01*
X32900000Y-20916667D01*
X32800000Y-20950000D01*
X32766666Y-20983333D01*
X32500000Y-20983333D02*
X32466666Y-20950000D01*
X32400000Y-20916667D01*
X32233333Y-20916667D01*
X32166666Y-20950000D01*
X32133333Y-20983333D01*
X32100000Y-21050000D01*
X32100000Y-21116667D01*
X32133333Y-21216667D01*
X32533333Y-21616667D01*
X32100000Y-21616667D01*
X33866666Y-22450000D02*
X33900000Y-22483333D01*
X34000000Y-22516667D01*
X34066666Y-22516667D01*
X34166666Y-22483333D01*
X34233333Y-22416667D01*
X34266666Y-22350000D01*
X34300000Y-22216667D01*
X34300000Y-22116667D01*
X34266666Y-21983333D01*
X34233333Y-21916667D01*
X34166666Y-21850000D01*
X34066666Y-21816667D01*
X34000000Y-21816667D01*
X33900000Y-21850000D01*
X33866666Y-21883333D01*
X33633333Y-21816667D02*
X33200000Y-21816667D01*
X33433333Y-22083333D01*
X33333333Y-22083333D01*
X33266666Y-22116667D01*
X33233333Y-22150000D01*
X33200000Y-22216667D01*
X33200000Y-22383333D01*
X33233333Y-22450000D01*
X33266666Y-22483333D01*
X33333333Y-22516667D01*
X33533333Y-22516667D01*
X33600000Y-22483333D01*
X33633333Y-22450000D01*
X40466666Y-16550000D02*
X40500000Y-16583333D01*
X40600000Y-16616667D01*
X40666666Y-16616667D01*
X40766666Y-16583333D01*
X40833333Y-16516667D01*
X40866666Y-16450000D01*
X40900000Y-16316667D01*
X40900000Y-16216667D01*
X40866666Y-16083333D01*
X40833333Y-16016667D01*
X40766666Y-15950000D01*
X40666666Y-15916667D01*
X40600000Y-15916667D01*
X40500000Y-15950000D01*
X40466666Y-15983333D01*
X39866666Y-16150000D02*
X39866666Y-16616667D01*
X40033333Y-15883333D02*
X40200000Y-16383333D01*
X39766666Y-16383333D01*
X23866666Y-21150000D02*
X23900000Y-21183333D01*
X24000000Y-21216667D01*
X24066666Y-21216667D01*
X24166666Y-21183333D01*
X24233333Y-21116667D01*
X24266666Y-21050000D01*
X24300000Y-20916667D01*
X24300000Y-20816667D01*
X24266666Y-20683333D01*
X24233333Y-20616667D01*
X24166666Y-20550000D01*
X24066666Y-20516667D01*
X24000000Y-20516667D01*
X23900000Y-20550000D01*
X23866666Y-20583333D01*
X23233333Y-20516667D02*
X23566666Y-20516667D01*
X23600000Y-20850000D01*
X23566666Y-20816667D01*
X23500000Y-20783333D01*
X23333333Y-20783333D01*
X23266666Y-20816667D01*
X23233333Y-20850000D01*
X23200000Y-20916667D01*
X23200000Y-21083333D01*
X23233333Y-21150000D01*
X23266666Y-21183333D01*
X23333333Y-21216667D01*
X23500000Y-21216667D01*
X23566666Y-21183333D01*
X23600000Y-21150000D01*
X28466666Y-22250000D02*
X28500000Y-22283333D01*
X28600000Y-22316667D01*
X28666666Y-22316667D01*
X28766666Y-22283333D01*
X28833333Y-22216667D01*
X28866666Y-22150000D01*
X28900000Y-22016667D01*
X28900000Y-21916667D01*
X28866666Y-21783333D01*
X28833333Y-21716667D01*
X28766666Y-21650000D01*
X28666666Y-21616667D01*
X28600000Y-21616667D01*
X28500000Y-21650000D01*
X28466666Y-21683333D01*
X27866666Y-21616667D02*
X28000000Y-21616667D01*
X28066666Y-21650000D01*
X28100000Y-21683333D01*
X28166666Y-21783333D01*
X28200000Y-21916667D01*
X28200000Y-22183333D01*
X28166666Y-22250000D01*
X28133333Y-22283333D01*
X28066666Y-22316667D01*
X27933333Y-22316667D01*
X27866666Y-22283333D01*
X27833333Y-22250000D01*
X27800000Y-22183333D01*
X27800000Y-22016667D01*
X27833333Y-21950000D01*
X27866666Y-21916667D01*
X27933333Y-21883333D01*
X28066666Y-21883333D01*
X28133333Y-21916667D01*
X28166666Y-21950000D01*
X28200000Y-22016667D01*
X17166666Y-28450000D02*
X17200000Y-28483333D01*
X17300000Y-28516667D01*
X17366666Y-28516667D01*
X17466666Y-28483333D01*
X17533333Y-28416667D01*
X17566666Y-28350000D01*
X17600000Y-28216667D01*
X17600000Y-28116667D01*
X17566666Y-27983333D01*
X17533333Y-27916667D01*
X17466666Y-27850000D01*
X17366666Y-27816667D01*
X17300000Y-27816667D01*
X17200000Y-27850000D01*
X17166666Y-27883333D01*
X16933333Y-27816667D02*
X16466666Y-27816667D01*
X16766666Y-28516667D01*
X14566666Y-36450000D02*
X14600000Y-36483333D01*
X14700000Y-36516667D01*
X14766666Y-36516667D01*
X14866666Y-36483333D01*
X14933333Y-36416667D01*
X14966666Y-36350000D01*
X15000000Y-36216667D01*
X15000000Y-36116667D01*
X14966666Y-35983333D01*
X14933333Y-35916667D01*
X14866666Y-35850000D01*
X14766666Y-35816667D01*
X14700000Y-35816667D01*
X14600000Y-35850000D01*
X14566666Y-35883333D01*
X14166666Y-36116667D02*
X14233333Y-36083333D01*
X14266666Y-36050000D01*
X14300000Y-35983333D01*
X14300000Y-35950000D01*
X14266666Y-35883333D01*
X14233333Y-35850000D01*
X14166666Y-35816667D01*
X14033333Y-35816667D01*
X13966666Y-35850000D01*
X13933333Y-35883333D01*
X13900000Y-35950000D01*
X13900000Y-35983333D01*
X13933333Y-36050000D01*
X13966666Y-36083333D01*
X14033333Y-36116667D01*
X14166666Y-36116667D01*
X14233333Y-36150000D01*
X14266666Y-36183333D01*
X14300000Y-36250000D01*
X14300000Y-36383333D01*
X14266666Y-36450000D01*
X14233333Y-36483333D01*
X14166666Y-36516667D01*
X14033333Y-36516667D01*
X13966666Y-36483333D01*
X13933333Y-36450000D01*
X13900000Y-36383333D01*
X13900000Y-36250000D01*
X13933333Y-36183333D01*
X13966666Y-36150000D01*
X14033333Y-36116667D01*
X29300000Y-38350000D02*
X29333334Y-38383333D01*
X29433334Y-38416667D01*
X29500000Y-38416667D01*
X29600000Y-38383333D01*
X29666667Y-38316667D01*
X29700000Y-38250000D01*
X29733334Y-38116667D01*
X29733334Y-38016667D01*
X29700000Y-37883333D01*
X29666667Y-37816667D01*
X29600000Y-37750000D01*
X29500000Y-37716667D01*
X29433334Y-37716667D01*
X29333334Y-37750000D01*
X29300000Y-37783333D01*
X28633334Y-38416667D02*
X29033334Y-38416667D01*
X28833334Y-38416667D02*
X28833334Y-37716667D01*
X28900000Y-37816667D01*
X28966667Y-37883333D01*
X29033334Y-37916667D01*
X27966667Y-38416667D02*
X28366667Y-38416667D01*
X28166667Y-38416667D02*
X28166667Y-37716667D01*
X28233333Y-37816667D01*
X28300000Y-37883333D01*
X28366667Y-37916667D01*
X32600000Y-39150000D02*
X32633334Y-39183333D01*
X32733334Y-39216667D01*
X32800000Y-39216667D01*
X32900000Y-39183333D01*
X32966667Y-39116667D01*
X33000000Y-39050000D01*
X33033334Y-38916667D01*
X33033334Y-38816667D01*
X33000000Y-38683333D01*
X32966667Y-38616667D01*
X32900000Y-38550000D01*
X32800000Y-38516667D01*
X32733334Y-38516667D01*
X32633334Y-38550000D01*
X32600000Y-38583333D01*
X31933334Y-39216667D02*
X32333334Y-39216667D01*
X32133334Y-39216667D02*
X32133334Y-38516667D01*
X32200000Y-38616667D01*
X32266667Y-38683333D01*
X32333334Y-38716667D01*
X31666667Y-38583333D02*
X31633333Y-38550000D01*
X31566667Y-38516667D01*
X31400000Y-38516667D01*
X31333333Y-38550000D01*
X31300000Y-38583333D01*
X31266667Y-38650000D01*
X31266667Y-38716667D01*
X31300000Y-38816667D01*
X31700000Y-39216667D01*
X31266667Y-39216667D01*
X35400000Y-33250000D02*
X35433334Y-33283333D01*
X35533334Y-33316667D01*
X35600000Y-33316667D01*
X35700000Y-33283333D01*
X35766667Y-33216667D01*
X35800000Y-33150000D01*
X35833334Y-33016667D01*
X35833334Y-32916667D01*
X35800000Y-32783333D01*
X35766667Y-32716667D01*
X35700000Y-32650000D01*
X35600000Y-32616667D01*
X35533334Y-32616667D01*
X35433334Y-32650000D01*
X35400000Y-32683333D01*
X34733334Y-33316667D02*
X35133334Y-33316667D01*
X34933334Y-33316667D02*
X34933334Y-32616667D01*
X35000000Y-32716667D01*
X35066667Y-32783333D01*
X35133334Y-32816667D01*
X34500000Y-32616667D02*
X34066667Y-32616667D01*
X34300000Y-32883333D01*
X34200000Y-32883333D01*
X34133333Y-32916667D01*
X34100000Y-32950000D01*
X34066667Y-33016667D01*
X34066667Y-33183333D01*
X34100000Y-33250000D01*
X34133333Y-33283333D01*
X34200000Y-33316667D01*
X34400000Y-33316667D01*
X34466667Y-33283333D01*
X34500000Y-33250000D01*
X32600000Y-33450000D02*
X32633334Y-33483333D01*
X32733334Y-33516667D01*
X32800000Y-33516667D01*
X32900000Y-33483333D01*
X32966667Y-33416667D01*
X33000000Y-33350000D01*
X33033334Y-33216667D01*
X33033334Y-33116667D01*
X33000000Y-32983333D01*
X32966667Y-32916667D01*
X32900000Y-32850000D01*
X32800000Y-32816667D01*
X32733334Y-32816667D01*
X32633334Y-32850000D01*
X32600000Y-32883333D01*
X31933334Y-33516667D02*
X32333334Y-33516667D01*
X32133334Y-33516667D02*
X32133334Y-32816667D01*
X32200000Y-32916667D01*
X32266667Y-32983333D01*
X32333334Y-33016667D01*
X31333333Y-33050000D02*
X31333333Y-33516667D01*
X31500000Y-32783333D02*
X31666667Y-33283333D01*
X31233333Y-33283333D01*
X41100000Y-36250000D02*
X41133334Y-36283333D01*
X41233334Y-36316667D01*
X41300000Y-36316667D01*
X41400000Y-36283333D01*
X41466667Y-36216667D01*
X41500000Y-36150000D01*
X41533334Y-36016667D01*
X41533334Y-35916667D01*
X41500000Y-35783333D01*
X41466667Y-35716667D01*
X41400000Y-35650000D01*
X41300000Y-35616667D01*
X41233334Y-35616667D01*
X41133334Y-35650000D01*
X41100000Y-35683333D01*
X40433334Y-36316667D02*
X40833334Y-36316667D01*
X40633334Y-36316667D02*
X40633334Y-35616667D01*
X40700000Y-35716667D01*
X40766667Y-35783333D01*
X40833334Y-35816667D01*
X39800000Y-35616667D02*
X40133333Y-35616667D01*
X40166667Y-35950000D01*
X40133333Y-35916667D01*
X40066667Y-35883333D01*
X39900000Y-35883333D01*
X39833333Y-35916667D01*
X39800000Y-35950000D01*
X39766667Y-36016667D01*
X39766667Y-36183333D01*
X39800000Y-36250000D01*
X39833333Y-36283333D01*
X39900000Y-36316667D01*
X40066667Y-36316667D01*
X40133333Y-36283333D01*
X40166667Y-36250000D01*
X18333333Y-24650000D02*
X18566666Y-24650000D01*
X18566666Y-25016667D02*
X18566666Y-24316667D01*
X18233333Y-24316667D01*
X17733333Y-24650000D02*
X17633333Y-24683333D01*
X17600000Y-24716667D01*
X17566666Y-24783333D01*
X17566666Y-24883333D01*
X17600000Y-24950000D01*
X17633333Y-24983333D01*
X17700000Y-25016667D01*
X17966666Y-25016667D01*
X17966666Y-24316667D01*
X17733333Y-24316667D01*
X17666666Y-24350000D01*
X17633333Y-24383333D01*
X17600000Y-24450000D01*
X17600000Y-24516667D01*
X17633333Y-24583333D01*
X17666666Y-24616667D01*
X17733333Y-24650000D01*
X17966666Y-24650000D01*
X16900000Y-25016667D02*
X17300000Y-25016667D01*
X17100000Y-25016667D02*
X17100000Y-24316667D01*
X17166666Y-24416667D01*
X17233333Y-24483333D01*
X17300000Y-24516667D01*
X17666666Y-19116667D02*
X17900000Y-18783333D01*
X18066666Y-19116667D02*
X18066666Y-18416667D01*
X17800000Y-18416667D01*
X17733333Y-18450000D01*
X17700000Y-18483333D01*
X17666666Y-18550000D01*
X17666666Y-18650000D01*
X17700000Y-18716667D01*
X17733333Y-18750000D01*
X17800000Y-18783333D01*
X18066666Y-18783333D01*
X17000000Y-19116667D02*
X17400000Y-19116667D01*
X17200000Y-19116667D02*
X17200000Y-18416667D01*
X17266666Y-18516667D01*
X17333333Y-18583333D01*
X17400000Y-18616667D01*
X17666666Y-20816667D02*
X17900000Y-20483333D01*
X18066666Y-20816667D02*
X18066666Y-20116667D01*
X17800000Y-20116667D01*
X17733333Y-20150000D01*
X17700000Y-20183333D01*
X17666666Y-20250000D01*
X17666666Y-20350000D01*
X17700000Y-20416667D01*
X17733333Y-20450000D01*
X17800000Y-20483333D01*
X18066666Y-20483333D01*
X17400000Y-20183333D02*
X17366666Y-20150000D01*
X17300000Y-20116667D01*
X17133333Y-20116667D01*
X17066666Y-20150000D01*
X17033333Y-20183333D01*
X17000000Y-20250000D01*
X17000000Y-20316667D01*
X17033333Y-20416667D01*
X17433333Y-20816667D01*
X17000000Y-20816667D01*
X34466666Y-27116667D02*
X34700000Y-26783333D01*
X34866666Y-27116667D02*
X34866666Y-26416667D01*
X34600000Y-26416667D01*
X34533333Y-26450000D01*
X34500000Y-26483333D01*
X34466666Y-26550000D01*
X34466666Y-26650000D01*
X34500000Y-26716667D01*
X34533333Y-26750000D01*
X34600000Y-26783333D01*
X34866666Y-26783333D01*
X34233333Y-26416667D02*
X33800000Y-26416667D01*
X34033333Y-26683333D01*
X33933333Y-26683333D01*
X33866666Y-26716667D01*
X33833333Y-26750000D01*
X33800000Y-26816667D01*
X33800000Y-26983333D01*
X33833333Y-27050000D01*
X33866666Y-27083333D01*
X33933333Y-27116667D01*
X34133333Y-27116667D01*
X34200000Y-27083333D01*
X34233333Y-27050000D01*
X38866666Y-26116667D02*
X39100000Y-25783333D01*
X39266666Y-26116667D02*
X39266666Y-25416667D01*
X39000000Y-25416667D01*
X38933333Y-25450000D01*
X38900000Y-25483333D01*
X38866666Y-25550000D01*
X38866666Y-25650000D01*
X38900000Y-25716667D01*
X38933333Y-25750000D01*
X39000000Y-25783333D01*
X39266666Y-25783333D01*
X38266666Y-25650000D02*
X38266666Y-26116667D01*
X38433333Y-25383333D02*
X38600000Y-25883333D01*
X38166666Y-25883333D01*
X42066666Y-25716667D02*
X42300000Y-25383333D01*
X42466666Y-25716667D02*
X42466666Y-25016667D01*
X42200000Y-25016667D01*
X42133333Y-25050000D01*
X42100000Y-25083333D01*
X42066666Y-25150000D01*
X42066666Y-25250000D01*
X42100000Y-25316667D01*
X42133333Y-25350000D01*
X42200000Y-25383333D01*
X42466666Y-25383333D01*
X41433333Y-25016667D02*
X41766666Y-25016667D01*
X41800000Y-25350000D01*
X41766666Y-25316667D01*
X41700000Y-25283333D01*
X41533333Y-25283333D01*
X41466666Y-25316667D01*
X41433333Y-25350000D01*
X41400000Y-25416667D01*
X41400000Y-25583333D01*
X41433333Y-25650000D01*
X41466666Y-25683333D01*
X41533333Y-25716667D01*
X41700000Y-25716667D01*
X41766666Y-25683333D01*
X41800000Y-25650000D01*
X40066666Y-23116667D02*
X40300000Y-22783333D01*
X40466666Y-23116667D02*
X40466666Y-22416667D01*
X40200000Y-22416667D01*
X40133333Y-22450000D01*
X40100000Y-22483333D01*
X40066666Y-22550000D01*
X40066666Y-22650000D01*
X40100000Y-22716667D01*
X40133333Y-22750000D01*
X40200000Y-22783333D01*
X40466666Y-22783333D01*
X39466666Y-22416667D02*
X39600000Y-22416667D01*
X39666666Y-22450000D01*
X39700000Y-22483333D01*
X39766666Y-22583333D01*
X39800000Y-22716667D01*
X39800000Y-22983333D01*
X39766666Y-23050000D01*
X39733333Y-23083333D01*
X39666666Y-23116667D01*
X39533333Y-23116667D01*
X39466666Y-23083333D01*
X39433333Y-23050000D01*
X39400000Y-22983333D01*
X39400000Y-22816667D01*
X39433333Y-22750000D01*
X39466666Y-22716667D01*
X39533333Y-22683333D01*
X39666666Y-22683333D01*
X39733333Y-22716667D01*
X39766666Y-22750000D01*
X39800000Y-22816667D01*
X40166666Y-19616667D02*
X40400000Y-19283333D01*
X40566666Y-19616667D02*
X40566666Y-18916667D01*
X40300000Y-18916667D01*
X40233333Y-18950000D01*
X40200000Y-18983333D01*
X40166666Y-19050000D01*
X40166666Y-19150000D01*
X40200000Y-19216667D01*
X40233333Y-19250000D01*
X40300000Y-19283333D01*
X40566666Y-19283333D01*
X39933333Y-18916667D02*
X39466666Y-18916667D01*
X39766666Y-19616667D01*
X43866666Y-19516667D02*
X44100000Y-19183333D01*
X44266666Y-19516667D02*
X44266666Y-18816667D01*
X44000000Y-18816667D01*
X43933333Y-18850000D01*
X43900000Y-18883333D01*
X43866666Y-18950000D01*
X43866666Y-19050000D01*
X43900000Y-19116667D01*
X43933333Y-19150000D01*
X44000000Y-19183333D01*
X44266666Y-19183333D01*
X43466666Y-19116667D02*
X43533333Y-19083333D01*
X43566666Y-19050000D01*
X43600000Y-18983333D01*
X43600000Y-18950000D01*
X43566666Y-18883333D01*
X43533333Y-18850000D01*
X43466666Y-18816667D01*
X43333333Y-18816667D01*
X43266666Y-18850000D01*
X43233333Y-18883333D01*
X43200000Y-18950000D01*
X43200000Y-18983333D01*
X43233333Y-19050000D01*
X43266666Y-19083333D01*
X43333333Y-19116667D01*
X43466666Y-19116667D01*
X43533333Y-19150000D01*
X43566666Y-19183333D01*
X43600000Y-19250000D01*
X43600000Y-19383333D01*
X43566666Y-19450000D01*
X43533333Y-19483333D01*
X43466666Y-19516667D01*
X43333333Y-19516667D01*
X43266666Y-19483333D01*
X43233333Y-19450000D01*
X43200000Y-19383333D01*
X43200000Y-19250000D01*
X43233333Y-19183333D01*
X43266666Y-19150000D01*
X43333333Y-19116667D01*
M02*
