G04 #@! TF.FileFunction,Soldermask,Top*
%FSLAX46Y46*%
G04 Gerber Fmt 4.6, Leading zero omitted, Abs format (unit mm)*
G04 Created by KiCad (PCBNEW 0.201509221857+6208~30~ubuntu14.04.1-product) date Thu 24 Sep 2015 08:06:42 PM PDT*
%MOMM*%
G01*
G04 APERTURE LIST*
%ADD10C,0.100000*%
%ADD11R,2.200000X0.600000*%
%ADD12C,1.800000*%
%ADD13R,5.000000X1.800000*%
%ADD14R,5.000000X3.960000*%
%ADD15R,2.400000X1.800000*%
%ADD16R,1.800000X2.400000*%
%ADD17R,0.599440X1.000760*%
%ADD18C,1.900000*%
%ADD19C,6.350000*%
%ADD20R,4.200000X0.700000*%
%ADD21R,1.000000X1.250000*%
%ADD22R,1.250000X1.000000*%
%ADD23R,1.800000X1.800000*%
%ADD24R,1.000000X0.400000*%
%ADD25R,0.400000X1.000000*%
%ADD26R,2.540000X1.650000*%
%ADD27R,1.650000X1.015000*%
%ADD28R,1.650000X0.760000*%
%ADD29R,2.000000X1.650000*%
%ADD30C,2.100000*%
%ADD31C,0.889000*%
G04 APERTURE END LIST*
D10*
D11*
X14550000Y-4720000D03*
X14550000Y-5990000D03*
X14550000Y-7260000D03*
X14550000Y-8530000D03*
X14550000Y-9800000D03*
X14550000Y-11070000D03*
X14550000Y-12340000D03*
X14550000Y-13610000D03*
X14550000Y-14880000D03*
X23750000Y-4720000D03*
X23750000Y-5990000D03*
X23750000Y-7260000D03*
X23750000Y-8530000D03*
X23750000Y-9800000D03*
X23750000Y-11070000D03*
X23750000Y-12340000D03*
X23750000Y-13610000D03*
X23750000Y-14880000D03*
D12*
X48750000Y-42789000D03*
X48750000Y-32629000D03*
D13*
X47243000Y-37709000D03*
D14*
X47243000Y-34089000D03*
X47243000Y-41329000D03*
D12*
X48750000Y-40249000D03*
X48750000Y-35169000D03*
X48750000Y-37709000D03*
X48750000Y-30089000D03*
X48750000Y-19929000D03*
D13*
X47243000Y-25009000D03*
D14*
X47243000Y-21389000D03*
X47243000Y-28629000D03*
D12*
X48750000Y-27549000D03*
X48750000Y-22469000D03*
X48750000Y-25009000D03*
X48750000Y-17389000D03*
X48750000Y-7229000D03*
D13*
X47243000Y-12309000D03*
D14*
X47243000Y-8689000D03*
X47243000Y-15929000D03*
D12*
X48750000Y-14849000D03*
X48750000Y-9769000D03*
X48750000Y-12309000D03*
D15*
X38650000Y-33900000D03*
X38650000Y-37900000D03*
D12*
X40150000Y-34400000D03*
X37150000Y-37400000D03*
D16*
X29550000Y-34350000D03*
X33550000Y-34350000D03*
D12*
X30050000Y-32850000D03*
X33050000Y-35850000D03*
D15*
X40850000Y-21200000D03*
X40850000Y-17200000D03*
D12*
X39350000Y-20700000D03*
X42350000Y-17700000D03*
D16*
X31792000Y-20803000D03*
X35792000Y-20803000D03*
D12*
X32292000Y-19303000D03*
X35292000Y-22303000D03*
D15*
X26792000Y-24053000D03*
X26792000Y-20053000D03*
D12*
X25292000Y-23553000D03*
X28292000Y-20553000D03*
D17*
X21800000Y-36949820D03*
X21800000Y-34750180D03*
D18*
X21064000Y-43678000D03*
X23604000Y-43678000D03*
X26144000Y-43678000D03*
X28684000Y-43678000D03*
D19*
X44550000Y-46000000D03*
X44550000Y-3900000D03*
D20*
X3550000Y-31200000D03*
X3550000Y-30200000D03*
X3550000Y-29200000D03*
X3550000Y-28200000D03*
X3550000Y-27200000D03*
X3550000Y-26200000D03*
X3550000Y-25200000D03*
X3550000Y-24200000D03*
X3550000Y-23200000D03*
X3550000Y-22200000D03*
X3550000Y-21200000D03*
X3550000Y-18200000D03*
X3550000Y-17200000D03*
X3550000Y-16200000D03*
X3550000Y-15200000D03*
X3550000Y-14200000D03*
X3550000Y-13200000D03*
X3550000Y-12200000D03*
D21*
X21800000Y-33100000D03*
X19800000Y-33100000D03*
X23850000Y-31100000D03*
X21850000Y-31100000D03*
D22*
X9950000Y-21900000D03*
X9950000Y-23900000D03*
D21*
X41654000Y-12436000D03*
X43654000Y-12436000D03*
X41300000Y-25100000D03*
X43300000Y-25100000D03*
X41750000Y-37600000D03*
X43750000Y-37600000D03*
D23*
X29250000Y-2600000D03*
D12*
X29250000Y-5140000D03*
X29250000Y-7680000D03*
X29250000Y-10220000D03*
X29250000Y-12760000D03*
X29250000Y-15300000D03*
X31790000Y-2600000D03*
X31790000Y-5140000D03*
X31790000Y-7680000D03*
X31790000Y-10220000D03*
X31790000Y-12760000D03*
X31790000Y-15300000D03*
X21064000Y-41138000D03*
X23604000Y-41138000D03*
X26144000Y-41138000D03*
X28684000Y-41138000D03*
D18*
X28684000Y-46218000D03*
X26144000Y-46218000D03*
X23604000Y-46218000D03*
X21064000Y-46218000D03*
D24*
X21300000Y-22850000D03*
X21300000Y-23500000D03*
X21300000Y-24150000D03*
X23250000Y-24150000D03*
X23250000Y-23500000D03*
X23250000Y-22850000D03*
D25*
X23850000Y-25800000D03*
X23200000Y-25800000D03*
X22550000Y-25800000D03*
X22550000Y-27750000D03*
X23200000Y-27750000D03*
X23850000Y-27750000D03*
D24*
X27250000Y-29500000D03*
X27250000Y-28850000D03*
X27250000Y-28200000D03*
X25300000Y-28200000D03*
X25300000Y-28850000D03*
X25300000Y-29500000D03*
X27250000Y-32400000D03*
X27250000Y-31750000D03*
X27250000Y-31100000D03*
X25300000Y-31100000D03*
X25300000Y-31750000D03*
X25300000Y-32400000D03*
X27250000Y-35300000D03*
X27250000Y-34650000D03*
X27250000Y-34000000D03*
X25300000Y-34000000D03*
X25300000Y-34650000D03*
X25300000Y-35300000D03*
D26*
X17340000Y-37140000D03*
X17340000Y-32060000D03*
X12260000Y-37140000D03*
D10*
G36*
X13530000Y-34980000D02*
X10990000Y-35430000D01*
X10990000Y-33770000D01*
X13530000Y-34220000D01*
X13530000Y-34980000D01*
X13530000Y-34980000D01*
G37*
D26*
X12260000Y-32060000D03*
D27*
X17530000Y-35997500D03*
X17530000Y-33202500D03*
X14350000Y-35997500D03*
D28*
X14350000Y-34600000D03*
D27*
X14350000Y-33202500D03*
D10*
G36*
X14237107Y-36505000D02*
X13530000Y-37212107D01*
X12822893Y-36505000D01*
X13530000Y-35797893D01*
X14237107Y-36505000D01*
X14237107Y-36505000D01*
G37*
G36*
X14237107Y-32695000D02*
X13530000Y-33402107D01*
X12822893Y-32695000D01*
X13530000Y-31987893D01*
X14237107Y-32695000D01*
X14237107Y-32695000D01*
G37*
D29*
X11990000Y-34600000D03*
D12*
X12006000Y-31806000D03*
D30*
X12006000Y-34600000D03*
D12*
X12006000Y-37394000D03*
X17594000Y-37394000D03*
X17594000Y-31806000D03*
D26*
X18840000Y-28390000D03*
X18840000Y-23310000D03*
X13760000Y-28390000D03*
D10*
G36*
X15030000Y-26230000D02*
X12490000Y-26680000D01*
X12490000Y-25020000D01*
X15030000Y-25470000D01*
X15030000Y-26230000D01*
X15030000Y-26230000D01*
G37*
D26*
X13760000Y-23310000D03*
D27*
X19030000Y-27247500D03*
X19030000Y-24452500D03*
X15850000Y-27247500D03*
D28*
X15850000Y-25850000D03*
D27*
X15850000Y-24452500D03*
D10*
G36*
X15737107Y-27755000D02*
X15030000Y-28462107D01*
X14322893Y-27755000D01*
X15030000Y-27047893D01*
X15737107Y-27755000D01*
X15737107Y-27755000D01*
G37*
G36*
X15737107Y-23945000D02*
X15030000Y-24652107D01*
X14322893Y-23945000D01*
X15030000Y-23237893D01*
X15737107Y-23945000D01*
X15737107Y-23945000D01*
G37*
D29*
X13490000Y-25850000D03*
D12*
X13506000Y-23056000D03*
D30*
X13506000Y-25850000D03*
D12*
X13506000Y-28644000D03*
X19094000Y-28644000D03*
X19094000Y-23056000D03*
D31*
X29850000Y-18900000D03*
X10550000Y-28500000D03*
X6850000Y-22200000D03*
X6850000Y-25200000D03*
X31042000Y-24053000D03*
X21150000Y-21700000D03*
X37150000Y-32100000D03*
X30150000Y-37400000D03*
X25350000Y-38100000D03*
X23050000Y-36400000D03*
X28550000Y-27600000D03*
X28550000Y-30500000D03*
X23550000Y-22300000D03*
X25050000Y-27000000D03*
X25050000Y-35900000D03*
X25050000Y-33000000D03*
X25050000Y-30100000D03*
X10050000Y-2300000D03*
X13450000Y-2300000D03*
X16850000Y-2300000D03*
X16850000Y-14900000D03*
X22650000Y-24600000D03*
X22350000Y-28600000D03*
X26250000Y-27500000D03*
X26250000Y-30400000D03*
X26250000Y-33300000D03*
X36800000Y-25350000D03*
X21750000Y-12300000D03*
M02*
