G04 #@! TF.FileFunction,Legend,Top*
%FSLAX46Y46*%
G04 Gerber Fmt 4.6, Leading zero omitted, Abs format (unit mm)*
G04 Created by KiCad (PCBNEW 4.0.1-stable) date 7/31/2016 1:29:05 PM*
%MOMM*%
G01*
G04 APERTURE LIST*
%ADD10C,0.100000*%
%ADD11C,0.150000*%
%ADD12C,0.099060*%
%ADD13C,0.002540*%
G04 APERTURE END LIST*
D10*
X10538094Y-2902381D02*
X10538094Y-1902381D01*
X10538094Y-2378571D02*
X11109523Y-2378571D01*
X11109523Y-2902381D02*
X11109523Y-1902381D01*
X11966666Y-2854762D02*
X11871428Y-2902381D01*
X11680951Y-2902381D01*
X11585713Y-2854762D01*
X11538094Y-2759524D01*
X11538094Y-2378571D01*
X11585713Y-2283333D01*
X11680951Y-2235714D01*
X11871428Y-2235714D01*
X11966666Y-2283333D01*
X12014285Y-2378571D01*
X12014285Y-2473810D01*
X11538094Y-2569048D01*
X12442856Y-2902381D02*
X12442856Y-2235714D01*
X12442856Y-2426190D02*
X12490475Y-2330952D01*
X12538094Y-2283333D01*
X12633332Y-2235714D01*
X12728571Y-2235714D01*
X13061904Y-2902381D02*
X13061904Y-2235714D01*
X13061904Y-2330952D02*
X13109523Y-2283333D01*
X13204761Y-2235714D01*
X13347619Y-2235714D01*
X13442857Y-2283333D01*
X13490476Y-2378571D01*
X13490476Y-2902381D01*
X13490476Y-2378571D02*
X13538095Y-2283333D01*
X13633333Y-2235714D01*
X13776190Y-2235714D01*
X13871428Y-2283333D01*
X13919047Y-2378571D01*
X13919047Y-2902381D01*
X14776190Y-2854762D02*
X14680952Y-2902381D01*
X14490475Y-2902381D01*
X14395237Y-2854762D01*
X14347618Y-2759524D01*
X14347618Y-2378571D01*
X14395237Y-2283333D01*
X14490475Y-2235714D01*
X14680952Y-2235714D01*
X14776190Y-2283333D01*
X14823809Y-2378571D01*
X14823809Y-2473810D01*
X14347618Y-2569048D01*
X15204761Y-2854762D02*
X15299999Y-2902381D01*
X15490475Y-2902381D01*
X15585714Y-2854762D01*
X15633333Y-2759524D01*
X15633333Y-2711905D01*
X15585714Y-2616667D01*
X15490475Y-2569048D01*
X15347618Y-2569048D01*
X15252380Y-2521429D01*
X15204761Y-2426190D01*
X15204761Y-2378571D01*
X15252380Y-2283333D01*
X15347618Y-2235714D01*
X15490475Y-2235714D01*
X15585714Y-2283333D01*
X16061904Y-2521429D02*
X16823809Y-2521429D01*
X17776190Y-2902381D02*
X17299999Y-2902381D01*
X17299999Y-1902381D01*
X18109523Y-2902381D02*
X18109523Y-2235714D01*
X18109523Y-1902381D02*
X18061904Y-1950000D01*
X18109523Y-1997619D01*
X18157142Y-1950000D01*
X18109523Y-1902381D01*
X18109523Y-1997619D01*
X18442856Y-2235714D02*
X18823808Y-2235714D01*
X18585713Y-1902381D02*
X18585713Y-2759524D01*
X18633332Y-2854762D01*
X18728570Y-2902381D01*
X18823808Y-2902381D01*
X19538095Y-2854762D02*
X19442857Y-2902381D01*
X19252380Y-2902381D01*
X19157142Y-2854762D01*
X19109523Y-2759524D01*
X19109523Y-2378571D01*
X19157142Y-2283333D01*
X19252380Y-2235714D01*
X19442857Y-2235714D01*
X19538095Y-2283333D01*
X19585714Y-2378571D01*
X19585714Y-2473810D01*
X19109523Y-2569048D01*
X20728571Y-1997619D02*
X20776190Y-1950000D01*
X20871428Y-1902381D01*
X21109524Y-1902381D01*
X21204762Y-1950000D01*
X21252381Y-1997619D01*
X21300000Y-2092857D01*
X21300000Y-2188095D01*
X21252381Y-2330952D01*
X20680952Y-2902381D01*
X21300000Y-2902381D01*
X21728571Y-2807143D02*
X21776190Y-2854762D01*
X21728571Y-2902381D01*
X21680952Y-2854762D01*
X21728571Y-2807143D01*
X21728571Y-2902381D01*
X22395237Y-1902381D02*
X22490476Y-1902381D01*
X22585714Y-1950000D01*
X22633333Y-1997619D01*
X22680952Y-2092857D01*
X22728571Y-2283333D01*
X22728571Y-2521429D01*
X22680952Y-2711905D01*
X22633333Y-2807143D01*
X22585714Y-2854762D01*
X22490476Y-2902381D01*
X22395237Y-2902381D01*
X22299999Y-2854762D01*
X22252380Y-2807143D01*
X22204761Y-2711905D01*
X22157142Y-2521429D01*
X22157142Y-2283333D01*
X22204761Y-2092857D01*
X22252380Y-1997619D01*
X22299999Y-1950000D01*
X22395237Y-1902381D01*
X23776190Y-1902381D02*
X24347619Y-1902381D01*
X24061904Y-2902381D02*
X24061904Y-1902381D01*
X25061905Y-2854762D02*
X24966667Y-2902381D01*
X24776190Y-2902381D01*
X24680952Y-2854762D01*
X24633333Y-2759524D01*
X24633333Y-2378571D01*
X24680952Y-2283333D01*
X24776190Y-2235714D01*
X24966667Y-2235714D01*
X25061905Y-2283333D01*
X25109524Y-2378571D01*
X25109524Y-2473810D01*
X24633333Y-2569048D01*
X25490476Y-2854762D02*
X25585714Y-2902381D01*
X25776190Y-2902381D01*
X25871429Y-2854762D01*
X25919048Y-2759524D01*
X25919048Y-2711905D01*
X25871429Y-2616667D01*
X25776190Y-2569048D01*
X25633333Y-2569048D01*
X25538095Y-2521429D01*
X25490476Y-2426190D01*
X25490476Y-2378571D01*
X25538095Y-2283333D01*
X25633333Y-2235714D01*
X25776190Y-2235714D01*
X25871429Y-2283333D01*
X26204762Y-2235714D02*
X26585714Y-2235714D01*
X26347619Y-1902381D02*
X26347619Y-2759524D01*
X26395238Y-2854762D01*
X26490476Y-2902381D01*
X26585714Y-2902381D01*
X27680953Y-2902381D02*
X27680953Y-1902381D01*
X28061906Y-1902381D01*
X28157144Y-1950000D01*
X28204763Y-1997619D01*
X28252382Y-2092857D01*
X28252382Y-2235714D01*
X28204763Y-2330952D01*
X28157144Y-2378571D01*
X28061906Y-2426190D01*
X27680953Y-2426190D01*
X28633334Y-2616667D02*
X29109525Y-2616667D01*
X28538096Y-2902381D02*
X28871429Y-1902381D01*
X29204763Y-2902381D01*
X11633332Y-3640476D02*
X11538094Y-3592857D01*
X11347618Y-3592857D01*
X11252380Y-3640476D01*
X11157142Y-3735714D01*
X11109523Y-3830952D01*
X11109523Y-4021429D01*
X11157142Y-4116667D01*
X11252380Y-4211905D01*
X11347618Y-4259524D01*
X11538094Y-4259524D01*
X11633332Y-4211905D01*
X11442856Y-3259524D02*
X11204761Y-3307143D01*
X10966665Y-3450000D01*
X10823808Y-3688095D01*
X10776189Y-3926190D01*
X10823808Y-4164286D01*
X10966665Y-4402381D01*
X11204761Y-4545238D01*
X11442856Y-4592857D01*
X11680951Y-4545238D01*
X11919046Y-4402381D01*
X12061903Y-4164286D01*
X12109523Y-3926190D01*
X12061903Y-3688095D01*
X11919046Y-3450000D01*
X11680951Y-3307143D01*
X11442856Y-3259524D01*
X13252380Y-3497619D02*
X13299999Y-3450000D01*
X13395237Y-3402381D01*
X13633333Y-3402381D01*
X13728571Y-3450000D01*
X13776190Y-3497619D01*
X13823809Y-3592857D01*
X13823809Y-3688095D01*
X13776190Y-3830952D01*
X13204761Y-4402381D01*
X13823809Y-4402381D01*
X14442856Y-3402381D02*
X14538095Y-3402381D01*
X14633333Y-3450000D01*
X14680952Y-3497619D01*
X14728571Y-3592857D01*
X14776190Y-3783333D01*
X14776190Y-4021429D01*
X14728571Y-4211905D01*
X14680952Y-4307143D01*
X14633333Y-4354762D01*
X14538095Y-4402381D01*
X14442856Y-4402381D01*
X14347618Y-4354762D01*
X14299999Y-4307143D01*
X14252380Y-4211905D01*
X14204761Y-4021429D01*
X14204761Y-3783333D01*
X14252380Y-3592857D01*
X14299999Y-3497619D01*
X14347618Y-3450000D01*
X14442856Y-3402381D01*
X15728571Y-4402381D02*
X15157142Y-4402381D01*
X15442856Y-4402381D02*
X15442856Y-3402381D01*
X15347618Y-3545238D01*
X15252380Y-3640476D01*
X15157142Y-3688095D01*
X16585714Y-3402381D02*
X16395237Y-3402381D01*
X16299999Y-3450000D01*
X16252380Y-3497619D01*
X16157142Y-3640476D01*
X16109523Y-3830952D01*
X16109523Y-4211905D01*
X16157142Y-4307143D01*
X16204761Y-4354762D01*
X16299999Y-4402381D01*
X16490476Y-4402381D01*
X16585714Y-4354762D01*
X16633333Y-4307143D01*
X16680952Y-4211905D01*
X16680952Y-3973810D01*
X16633333Y-3878571D01*
X16585714Y-3830952D01*
X16490476Y-3783333D01*
X16299999Y-3783333D01*
X16204761Y-3830952D01*
X16157142Y-3878571D01*
X16109523Y-3973810D01*
X17823809Y-4354762D02*
X17966666Y-4402381D01*
X18204762Y-4402381D01*
X18300000Y-4354762D01*
X18347619Y-4307143D01*
X18395238Y-4211905D01*
X18395238Y-4116667D01*
X18347619Y-4021429D01*
X18300000Y-3973810D01*
X18204762Y-3926190D01*
X18014285Y-3878571D01*
X17919047Y-3830952D01*
X17871428Y-3783333D01*
X17823809Y-3688095D01*
X17823809Y-3592857D01*
X17871428Y-3497619D01*
X17919047Y-3450000D01*
X18014285Y-3402381D01*
X18252381Y-3402381D01*
X18395238Y-3450000D01*
X18966666Y-4402381D02*
X18871428Y-4354762D01*
X18823809Y-4307143D01*
X18776190Y-4211905D01*
X18776190Y-3926190D01*
X18823809Y-3830952D01*
X18871428Y-3783333D01*
X18966666Y-3735714D01*
X19109524Y-3735714D01*
X19204762Y-3783333D01*
X19252381Y-3830952D01*
X19300000Y-3926190D01*
X19300000Y-4211905D01*
X19252381Y-4307143D01*
X19204762Y-4354762D01*
X19109524Y-4402381D01*
X18966666Y-4402381D01*
X19585714Y-3735714D02*
X19966666Y-3735714D01*
X19728571Y-4402381D02*
X19728571Y-3545238D01*
X19776190Y-3450000D01*
X19871428Y-3402381D01*
X19966666Y-3402381D01*
X20157143Y-3735714D02*
X20538095Y-3735714D01*
X20300000Y-3402381D02*
X20300000Y-4259524D01*
X20347619Y-4354762D01*
X20442857Y-4402381D01*
X20538095Y-4402381D01*
X21252382Y-4354762D02*
X21157144Y-4402381D01*
X20966667Y-4402381D01*
X20871429Y-4354762D01*
X20823810Y-4259524D01*
X20823810Y-3878571D01*
X20871429Y-3783333D01*
X20966667Y-3735714D01*
X21157144Y-3735714D01*
X21252382Y-3783333D01*
X21300001Y-3878571D01*
X21300001Y-3973810D01*
X20823810Y-4069048D01*
X21728572Y-4402381D02*
X21728572Y-3735714D01*
X21728572Y-3926190D02*
X21776191Y-3830952D01*
X21823810Y-3783333D01*
X21919048Y-3735714D01*
X22014287Y-3735714D01*
X22347620Y-4402381D02*
X22347620Y-3402381D01*
X22347620Y-3878571D02*
X22919049Y-3878571D01*
X22919049Y-4402381D02*
X22919049Y-3402381D01*
X23823811Y-4402381D02*
X23823811Y-3878571D01*
X23776192Y-3783333D01*
X23680954Y-3735714D01*
X23490477Y-3735714D01*
X23395239Y-3783333D01*
X23823811Y-4354762D02*
X23728573Y-4402381D01*
X23490477Y-4402381D01*
X23395239Y-4354762D01*
X23347620Y-4259524D01*
X23347620Y-4164286D01*
X23395239Y-4069048D01*
X23490477Y-4021429D01*
X23728573Y-4021429D01*
X23823811Y-3973810D01*
X24300001Y-4402381D02*
X24300001Y-3735714D01*
X24300001Y-3926190D02*
X24347620Y-3830952D01*
X24395239Y-3783333D01*
X24490477Y-3735714D01*
X24585716Y-3735714D01*
X25347621Y-4402381D02*
X25347621Y-3402381D01*
X25347621Y-4354762D02*
X25252383Y-4402381D01*
X25061906Y-4402381D01*
X24966668Y-4354762D01*
X24919049Y-4307143D01*
X24871430Y-4211905D01*
X24871430Y-3926190D01*
X24919049Y-3830952D01*
X24966668Y-3783333D01*
X25061906Y-3735714D01*
X25252383Y-3735714D01*
X25347621Y-3783333D01*
X25728573Y-3735714D02*
X25919049Y-4402381D01*
X26109526Y-3926190D01*
X26300002Y-4402381D01*
X26490478Y-3735714D01*
X27300002Y-4402381D02*
X27300002Y-3878571D01*
X27252383Y-3783333D01*
X27157145Y-3735714D01*
X26966668Y-3735714D01*
X26871430Y-3783333D01*
X27300002Y-4354762D02*
X27204764Y-4402381D01*
X26966668Y-4402381D01*
X26871430Y-4354762D01*
X26823811Y-4259524D01*
X26823811Y-4164286D01*
X26871430Y-4069048D01*
X26966668Y-4021429D01*
X27204764Y-4021429D01*
X27300002Y-3973810D01*
X27776192Y-4402381D02*
X27776192Y-3735714D01*
X27776192Y-3926190D02*
X27823811Y-3830952D01*
X27871430Y-3783333D01*
X27966668Y-3735714D01*
X28061907Y-3735714D01*
X28776193Y-4354762D02*
X28680955Y-4402381D01*
X28490478Y-4402381D01*
X28395240Y-4354762D01*
X28347621Y-4259524D01*
X28347621Y-3878571D01*
X28395240Y-3783333D01*
X28490478Y-3735714D01*
X28680955Y-3735714D01*
X28776193Y-3783333D01*
X28823812Y-3878571D01*
X28823812Y-3973810D01*
X28347621Y-4069048D01*
D11*
X28000000Y-32900000D02*
X26600000Y-32900000D01*
X26600000Y-32900000D02*
X26600000Y-35100000D01*
X34600000Y-35100000D02*
X34600000Y-32900000D01*
X34600000Y-32900000D02*
X33200000Y-32900000D01*
X33200000Y-40900000D02*
X34600000Y-40900000D01*
X34600000Y-40900000D02*
X34600000Y-38700000D01*
X26600000Y-38700000D02*
X26600000Y-40900000D01*
X26600000Y-40900000D02*
X28000000Y-40900000D01*
X6924000Y-35506000D02*
X3876000Y-35506000D01*
X3876000Y-39189000D02*
X3876000Y-41094000D01*
X3876000Y-41094000D02*
X6924000Y-41094000D01*
X6924000Y-41094000D02*
X6924000Y-39189000D01*
X6924000Y-37538000D02*
X6924000Y-35506000D01*
X3876000Y-35506000D02*
X3876000Y-37538000D01*
X2976000Y-33594000D02*
X6024000Y-33594000D01*
X6024000Y-29911000D02*
X6024000Y-28006000D01*
X6024000Y-28006000D02*
X2976000Y-28006000D01*
X2976000Y-28006000D02*
X2976000Y-29911000D01*
X2976000Y-31562000D02*
X2976000Y-33594000D01*
X6024000Y-33594000D02*
X6024000Y-31562000D01*
X6476000Y-33594000D02*
X9524000Y-33594000D01*
X9524000Y-29911000D02*
X9524000Y-28006000D01*
X9524000Y-28006000D02*
X6476000Y-28006000D01*
X6476000Y-28006000D02*
X6476000Y-29911000D01*
X6476000Y-31562000D02*
X6476000Y-33594000D01*
X9524000Y-33594000D02*
X9524000Y-31562000D01*
X9976000Y-33594000D02*
X13024000Y-33594000D01*
X13024000Y-29911000D02*
X13024000Y-28006000D01*
X13024000Y-28006000D02*
X9976000Y-28006000D01*
X9976000Y-28006000D02*
X9976000Y-29911000D01*
X9976000Y-31562000D02*
X9976000Y-33594000D01*
X13024000Y-33594000D02*
X13024000Y-31562000D01*
X13476000Y-33594000D02*
X16524000Y-33594000D01*
X16524000Y-29911000D02*
X16524000Y-28006000D01*
X16524000Y-28006000D02*
X13476000Y-28006000D01*
X13476000Y-28006000D02*
X13476000Y-29911000D01*
X13476000Y-31562000D02*
X13476000Y-33594000D01*
X16524000Y-33594000D02*
X16524000Y-31562000D01*
X16500000Y-42500000D02*
X17600000Y-42500000D01*
X17600000Y-42500000D02*
X17600000Y-49800000D01*
X7500000Y-42500000D02*
X6400000Y-42500000D01*
X6400000Y-42500000D02*
X6400000Y-49800000D01*
X14500000Y-35500000D02*
X16500000Y-35500000D01*
X16500000Y-35500000D02*
X16500000Y-42500000D01*
X7500000Y-42500000D02*
X7500000Y-35500000D01*
X7500000Y-35500000D02*
X9500000Y-35500000D01*
X200000Y-15600000D02*
X5400000Y-15600000D01*
X5400000Y-15600000D02*
X5400000Y-25600000D01*
X5400000Y-25600000D02*
X200000Y-25600000D01*
X22000000Y-37500000D02*
X17900000Y-37500000D01*
X17900000Y-37500000D02*
X17900000Y-40400000D01*
X17900000Y-40400000D02*
X22000000Y-40400000D01*
X22000000Y-40400000D02*
X22000000Y-37500000D01*
X21100000Y-31000000D02*
X18100000Y-31000000D01*
X18100000Y-31000000D02*
X18100000Y-29300000D01*
X18100000Y-29300000D02*
X18100000Y-26800000D01*
X35100000Y-17600000D02*
X35100000Y-15300000D01*
X35100000Y-15300000D02*
X18100000Y-15300000D01*
X18100000Y-15300000D02*
X18100000Y-17800000D01*
X35100000Y-27000000D02*
X35100000Y-31000000D01*
X35100000Y-31000000D02*
X21100000Y-31000000D01*
D12*
X39992000Y-43662000D02*
X38976000Y-43662000D01*
X38976000Y-43662000D02*
X38976000Y-42138000D01*
X38976000Y-42138000D02*
X39992000Y-42138000D01*
X41008000Y-42138000D02*
X42024000Y-42138000D01*
X42024000Y-42138000D02*
X42024000Y-43662000D01*
X42024000Y-43662000D02*
X41008000Y-43662000D01*
X39992000Y-39062000D02*
X38976000Y-39062000D01*
X38976000Y-39062000D02*
X38976000Y-37538000D01*
X38976000Y-37538000D02*
X39992000Y-37538000D01*
X41008000Y-37538000D02*
X42024000Y-37538000D01*
X42024000Y-37538000D02*
X42024000Y-39062000D01*
X42024000Y-39062000D02*
X41008000Y-39062000D01*
X41008000Y-39738000D02*
X42024000Y-39738000D01*
X42024000Y-39738000D02*
X42024000Y-41262000D01*
X42024000Y-41262000D02*
X41008000Y-41262000D01*
X39992000Y-41262000D02*
X38976000Y-41262000D01*
X38976000Y-41262000D02*
X38976000Y-39738000D01*
X38976000Y-39738000D02*
X39992000Y-39738000D01*
X41008000Y-35138000D02*
X42024000Y-35138000D01*
X42024000Y-35138000D02*
X42024000Y-36662000D01*
X42024000Y-36662000D02*
X41008000Y-36662000D01*
X39992000Y-36662000D02*
X38976000Y-36662000D01*
X38976000Y-36662000D02*
X38976000Y-35138000D01*
X38976000Y-35138000D02*
X39992000Y-35138000D01*
X18038000Y-42192000D02*
X18038000Y-41176000D01*
X18038000Y-41176000D02*
X19562000Y-41176000D01*
X19562000Y-41176000D02*
X19562000Y-42192000D01*
X19562000Y-43208000D02*
X19562000Y-44224000D01*
X19562000Y-44224000D02*
X18038000Y-44224000D01*
X18038000Y-44224000D02*
X18038000Y-43208000D01*
X39762000Y-14008000D02*
X39762000Y-15024000D01*
X39762000Y-15024000D02*
X38238000Y-15024000D01*
X38238000Y-15024000D02*
X38238000Y-14008000D01*
X38238000Y-12992000D02*
X38238000Y-11976000D01*
X38238000Y-11976000D02*
X39762000Y-11976000D01*
X39762000Y-11976000D02*
X39762000Y-12992000D01*
X39762000Y-28008000D02*
X39762000Y-29024000D01*
X39762000Y-29024000D02*
X38238000Y-29024000D01*
X38238000Y-29024000D02*
X38238000Y-28008000D01*
X38238000Y-26992000D02*
X38238000Y-25976000D01*
X38238000Y-25976000D02*
X39762000Y-25976000D01*
X39762000Y-25976000D02*
X39762000Y-26992000D01*
X39392000Y-11562000D02*
X38376000Y-11562000D01*
X38376000Y-11562000D02*
X38376000Y-10038000D01*
X38376000Y-10038000D02*
X39392000Y-10038000D01*
X40408000Y-10038000D02*
X41424000Y-10038000D01*
X41424000Y-10038000D02*
X41424000Y-11562000D01*
X41424000Y-11562000D02*
X40408000Y-11562000D01*
X39392000Y-25562000D02*
X38376000Y-25562000D01*
X38376000Y-25562000D02*
X38376000Y-24038000D01*
X38376000Y-24038000D02*
X39392000Y-24038000D01*
X40408000Y-24038000D02*
X41424000Y-24038000D01*
X41424000Y-24038000D02*
X41424000Y-25562000D01*
X41424000Y-25562000D02*
X40408000Y-25562000D01*
X19462000Y-35908000D02*
X19462000Y-36924000D01*
X19462000Y-36924000D02*
X17938000Y-36924000D01*
X17938000Y-36924000D02*
X17938000Y-35908000D01*
X17938000Y-34892000D02*
X17938000Y-33876000D01*
X17938000Y-33876000D02*
X19462000Y-33876000D01*
X19462000Y-33876000D02*
X19462000Y-34892000D01*
X22062000Y-35908000D02*
X22062000Y-36924000D01*
X22062000Y-36924000D02*
X20538000Y-36924000D01*
X20538000Y-36924000D02*
X20538000Y-35908000D01*
X20538000Y-34892000D02*
X20538000Y-33876000D01*
X20538000Y-33876000D02*
X22062000Y-33876000D01*
X22062000Y-33876000D02*
X22062000Y-34892000D01*
X21192000Y-42562000D02*
X20176000Y-42562000D01*
X20176000Y-42562000D02*
X20176000Y-41038000D01*
X20176000Y-41038000D02*
X21192000Y-41038000D01*
X22208000Y-41038000D02*
X23224000Y-41038000D01*
X23224000Y-41038000D02*
X23224000Y-42562000D01*
X23224000Y-42562000D02*
X22208000Y-42562000D01*
X37008000Y-10038000D02*
X38024000Y-10038000D01*
X38024000Y-10038000D02*
X38024000Y-11562000D01*
X38024000Y-11562000D02*
X37008000Y-11562000D01*
X35992000Y-11562000D02*
X34976000Y-11562000D01*
X34976000Y-11562000D02*
X34976000Y-10038000D01*
X34976000Y-10038000D02*
X35992000Y-10038000D01*
X40308000Y-15438000D02*
X41324000Y-15438000D01*
X41324000Y-15438000D02*
X41324000Y-16962000D01*
X41324000Y-16962000D02*
X40308000Y-16962000D01*
X39292000Y-16962000D02*
X38276000Y-16962000D01*
X38276000Y-16962000D02*
X38276000Y-15438000D01*
X38276000Y-15438000D02*
X39292000Y-15438000D01*
X36038000Y-25292000D02*
X36038000Y-24276000D01*
X36038000Y-24276000D02*
X37562000Y-24276000D01*
X37562000Y-24276000D02*
X37562000Y-25292000D01*
X37562000Y-26308000D02*
X37562000Y-27324000D01*
X37562000Y-27324000D02*
X36038000Y-27324000D01*
X36038000Y-27324000D02*
X36038000Y-26308000D01*
X9192000Y-22762000D02*
X8176000Y-22762000D01*
X8176000Y-22762000D02*
X8176000Y-21238000D01*
X8176000Y-21238000D02*
X9192000Y-21238000D01*
X10208000Y-21238000D02*
X11224000Y-21238000D01*
X11224000Y-21238000D02*
X11224000Y-22762000D01*
X11224000Y-22762000D02*
X10208000Y-22762000D01*
X40308000Y-29438000D02*
X41324000Y-29438000D01*
X41324000Y-29438000D02*
X41324000Y-30962000D01*
X41324000Y-30962000D02*
X40308000Y-30962000D01*
X39292000Y-30962000D02*
X38276000Y-30962000D01*
X38276000Y-30962000D02*
X38276000Y-29438000D01*
X38276000Y-29438000D02*
X39292000Y-29438000D01*
D11*
X46900000Y-42700000D02*
X46900000Y-43400000D01*
X46900000Y-43400000D02*
X42800000Y-43400000D01*
X42800000Y-40000000D02*
X46900000Y-40000000D01*
X46900000Y-40000000D02*
X46900000Y-40700000D01*
X46900000Y-38100000D02*
X46900000Y-38800000D01*
X46900000Y-38800000D02*
X42800000Y-38800000D01*
X42800000Y-35400000D02*
X46900000Y-35400000D01*
X46900000Y-35400000D02*
X46900000Y-36100000D01*
X41600000Y-17800000D02*
X41600000Y-18800000D01*
X41600000Y-18800000D02*
X43700000Y-18800000D01*
X41600000Y-8800000D02*
X41600000Y-9800000D01*
X41600000Y-8800000D02*
X43700000Y-8800000D01*
X50000000Y-13400000D02*
X50000000Y-14200000D01*
X41600000Y-31800000D02*
X41600000Y-32800000D01*
X41600000Y-32800000D02*
X43700000Y-32800000D01*
X41600000Y-22800000D02*
X41600000Y-23800000D01*
X41600000Y-22800000D02*
X43700000Y-22800000D01*
X50000000Y-27400000D02*
X50000000Y-28200000D01*
D13*
G36*
X9604520Y-3996620D02*
X9594360Y-3991540D01*
X9571500Y-3976300D01*
X9538480Y-3955980D01*
X9497840Y-3928040D01*
X9459740Y-3902640D01*
X9426720Y-3879780D01*
X9403860Y-3864540D01*
X9393700Y-3859460D01*
X9388620Y-3862000D01*
X9370840Y-3872160D01*
X9342900Y-3884860D01*
X9327660Y-3892480D01*
X9302260Y-3905180D01*
X9289560Y-3907720D01*
X9287020Y-3902640D01*
X9276860Y-3884860D01*
X9264160Y-3851840D01*
X9243840Y-3808660D01*
X9223520Y-3757860D01*
X9200660Y-3701980D01*
X9177800Y-3646100D01*
X9154940Y-3592760D01*
X9134620Y-3544500D01*
X9119380Y-3506400D01*
X9109220Y-3478460D01*
X9104140Y-3468300D01*
X9106680Y-3465760D01*
X9119380Y-3453060D01*
X9139700Y-3437820D01*
X9187960Y-3397180D01*
X9233680Y-3338760D01*
X9264160Y-3272720D01*
X9271780Y-3199060D01*
X9264160Y-3133020D01*
X9238760Y-3069520D01*
X9193040Y-3008560D01*
X9137160Y-2965380D01*
X9071120Y-2937440D01*
X9000000Y-2929820D01*
X8931420Y-2937440D01*
X8865380Y-2962840D01*
X8804420Y-3008560D01*
X8781560Y-3036500D01*
X8746000Y-3097460D01*
X8725680Y-3158420D01*
X8725680Y-3173660D01*
X8728220Y-3244780D01*
X8748540Y-3313360D01*
X8784100Y-3371780D01*
X8837440Y-3422580D01*
X8842520Y-3427660D01*
X8867920Y-3445440D01*
X8883160Y-3455600D01*
X8895860Y-3465760D01*
X8806960Y-3681660D01*
X8791720Y-3717220D01*
X8766320Y-3775640D01*
X8746000Y-3826440D01*
X8728220Y-3867080D01*
X8715520Y-3892480D01*
X8710440Y-3905180D01*
X8710440Y-3905180D01*
X8702820Y-3905180D01*
X8687580Y-3900100D01*
X8657100Y-3884860D01*
X8636780Y-3874700D01*
X8613920Y-3864540D01*
X8603760Y-3859460D01*
X8593600Y-3864540D01*
X8573280Y-3879780D01*
X8540260Y-3900100D01*
X8502160Y-3925500D01*
X8466600Y-3950900D01*
X8431040Y-3973760D01*
X8408180Y-3989000D01*
X8395480Y-3996620D01*
X8392940Y-3996620D01*
X8382780Y-3989000D01*
X8362460Y-3973760D01*
X8334520Y-3945820D01*
X8293880Y-3905180D01*
X8286260Y-3900100D01*
X8253240Y-3864540D01*
X8225300Y-3834060D01*
X8204980Y-3813740D01*
X8199900Y-3806120D01*
X8199900Y-3806120D01*
X8204980Y-3793420D01*
X8220220Y-3768020D01*
X8243080Y-3735000D01*
X8271020Y-3694360D01*
X8342140Y-3590220D01*
X8301500Y-3493700D01*
X8291340Y-3463220D01*
X8276100Y-3427660D01*
X8263400Y-3402260D01*
X8258320Y-3389560D01*
X8248160Y-3387020D01*
X8220220Y-3379400D01*
X8182120Y-3371780D01*
X8136400Y-3364160D01*
X8090680Y-3354000D01*
X8052580Y-3346380D01*
X8022100Y-3341300D01*
X8009400Y-3338760D01*
X8006860Y-3336220D01*
X8004320Y-3331140D01*
X8001780Y-3318440D01*
X8001780Y-3293040D01*
X8001780Y-3254940D01*
X8001780Y-3199060D01*
X8001780Y-3193980D01*
X8001780Y-3140640D01*
X8001780Y-3100000D01*
X8004320Y-3074600D01*
X8006860Y-3064440D01*
X8006860Y-3064440D01*
X8019560Y-3059360D01*
X8047500Y-3054280D01*
X8085600Y-3046660D01*
X8133860Y-3036500D01*
X8136400Y-3036500D01*
X8184660Y-3028880D01*
X8222760Y-3018720D01*
X8250700Y-3013640D01*
X8263400Y-3008560D01*
X8265940Y-3006020D01*
X8276100Y-2988240D01*
X8288800Y-2957760D01*
X8304040Y-2922200D01*
X8319280Y-2886640D01*
X8334520Y-2851080D01*
X8342140Y-2828220D01*
X8344680Y-2815520D01*
X8344680Y-2815520D01*
X8337060Y-2805360D01*
X8321820Y-2779960D01*
X8298960Y-2746940D01*
X8271020Y-2706300D01*
X8268480Y-2701220D01*
X8240540Y-2663120D01*
X8220220Y-2627560D01*
X8204980Y-2604700D01*
X8199900Y-2594540D01*
X8199900Y-2592000D01*
X8207520Y-2581840D01*
X8227840Y-2558980D01*
X8258320Y-2528500D01*
X8293880Y-2492940D01*
X8304040Y-2482780D01*
X8342140Y-2444680D01*
X8370080Y-2419280D01*
X8387860Y-2406580D01*
X8395480Y-2401500D01*
X8395480Y-2404040D01*
X8408180Y-2409120D01*
X8433580Y-2426900D01*
X8466600Y-2449760D01*
X8507240Y-2477700D01*
X8509780Y-2480240D01*
X8550420Y-2505640D01*
X8583440Y-2528500D01*
X8606300Y-2543740D01*
X8616460Y-2551360D01*
X8619000Y-2551360D01*
X8634240Y-2546280D01*
X8664720Y-2536120D01*
X8697740Y-2523420D01*
X8735840Y-2508180D01*
X8768860Y-2492940D01*
X8794260Y-2482780D01*
X8806960Y-2475160D01*
X8806960Y-2475160D01*
X8812040Y-2459920D01*
X8817120Y-2429440D01*
X8827280Y-2388800D01*
X8834900Y-2340540D01*
X8837440Y-2332920D01*
X8845060Y-2284660D01*
X8852680Y-2246560D01*
X8860300Y-2218620D01*
X8862840Y-2205920D01*
X8867920Y-2205920D01*
X8893320Y-2203380D01*
X8928880Y-2203380D01*
X8972060Y-2203380D01*
X9015240Y-2203380D01*
X9058420Y-2203380D01*
X9096520Y-2205920D01*
X9121920Y-2205920D01*
X9134620Y-2208460D01*
X9134620Y-2211000D01*
X9139700Y-2223700D01*
X9144780Y-2254180D01*
X9154940Y-2294820D01*
X9162560Y-2345620D01*
X9165100Y-2353240D01*
X9172720Y-2401500D01*
X9182880Y-2439600D01*
X9187960Y-2467540D01*
X9190500Y-2477700D01*
X9195580Y-2480240D01*
X9213360Y-2487860D01*
X9246380Y-2500560D01*
X9287020Y-2518340D01*
X9378460Y-2553900D01*
X9490220Y-2477700D01*
X9500380Y-2470080D01*
X9541020Y-2442140D01*
X9574040Y-2421820D01*
X9596900Y-2406580D01*
X9607060Y-2401500D01*
X9607060Y-2401500D01*
X9617220Y-2411660D01*
X9640080Y-2431980D01*
X9670560Y-2462460D01*
X9706120Y-2495480D01*
X9731520Y-2523420D01*
X9762000Y-2553900D01*
X9782320Y-2574220D01*
X9792480Y-2589460D01*
X9797560Y-2597080D01*
X9795020Y-2602160D01*
X9789940Y-2614860D01*
X9772160Y-2637720D01*
X9749300Y-2673280D01*
X9721360Y-2711380D01*
X9698500Y-2746940D01*
X9675640Y-2782500D01*
X9660400Y-2810440D01*
X9652780Y-2823140D01*
X9655320Y-2828220D01*
X9662940Y-2851080D01*
X9675640Y-2884100D01*
X9693420Y-2924740D01*
X9731520Y-3013640D01*
X9789940Y-3023800D01*
X9825500Y-3031420D01*
X9876300Y-3039040D01*
X9922020Y-3049200D01*
X9995680Y-3064440D01*
X9998220Y-3331140D01*
X9988060Y-3336220D01*
X9975360Y-3341300D01*
X9949960Y-3346380D01*
X9909320Y-3354000D01*
X9863600Y-3361620D01*
X9825500Y-3369240D01*
X9784860Y-3376860D01*
X9756920Y-3381940D01*
X9744220Y-3384480D01*
X9741680Y-3389560D01*
X9731520Y-3409880D01*
X9716280Y-3440360D01*
X9701040Y-3475920D01*
X9685800Y-3514020D01*
X9673100Y-3549580D01*
X9662940Y-3574980D01*
X9657860Y-3590220D01*
X9662940Y-3600380D01*
X9678180Y-3623240D01*
X9701040Y-3656260D01*
X9726440Y-3694360D01*
X9754380Y-3735000D01*
X9777240Y-3768020D01*
X9792480Y-3793420D01*
X9800100Y-3803580D01*
X9795020Y-3811200D01*
X9779780Y-3828980D01*
X9751840Y-3859460D01*
X9706120Y-3905180D01*
X9698500Y-3910260D01*
X9665480Y-3945820D01*
X9635000Y-3971220D01*
X9614680Y-3991540D01*
X9604520Y-3996620D01*
X9604520Y-3996620D01*
G37*
X9604520Y-3996620D02*
X9594360Y-3991540D01*
X9571500Y-3976300D01*
X9538480Y-3955980D01*
X9497840Y-3928040D01*
X9459740Y-3902640D01*
X9426720Y-3879780D01*
X9403860Y-3864540D01*
X9393700Y-3859460D01*
X9388620Y-3862000D01*
X9370840Y-3872160D01*
X9342900Y-3884860D01*
X9327660Y-3892480D01*
X9302260Y-3905180D01*
X9289560Y-3907720D01*
X9287020Y-3902640D01*
X9276860Y-3884860D01*
X9264160Y-3851840D01*
X9243840Y-3808660D01*
X9223520Y-3757860D01*
X9200660Y-3701980D01*
X9177800Y-3646100D01*
X9154940Y-3592760D01*
X9134620Y-3544500D01*
X9119380Y-3506400D01*
X9109220Y-3478460D01*
X9104140Y-3468300D01*
X9106680Y-3465760D01*
X9119380Y-3453060D01*
X9139700Y-3437820D01*
X9187960Y-3397180D01*
X9233680Y-3338760D01*
X9264160Y-3272720D01*
X9271780Y-3199060D01*
X9264160Y-3133020D01*
X9238760Y-3069520D01*
X9193040Y-3008560D01*
X9137160Y-2965380D01*
X9071120Y-2937440D01*
X9000000Y-2929820D01*
X8931420Y-2937440D01*
X8865380Y-2962840D01*
X8804420Y-3008560D01*
X8781560Y-3036500D01*
X8746000Y-3097460D01*
X8725680Y-3158420D01*
X8725680Y-3173660D01*
X8728220Y-3244780D01*
X8748540Y-3313360D01*
X8784100Y-3371780D01*
X8837440Y-3422580D01*
X8842520Y-3427660D01*
X8867920Y-3445440D01*
X8883160Y-3455600D01*
X8895860Y-3465760D01*
X8806960Y-3681660D01*
X8791720Y-3717220D01*
X8766320Y-3775640D01*
X8746000Y-3826440D01*
X8728220Y-3867080D01*
X8715520Y-3892480D01*
X8710440Y-3905180D01*
X8710440Y-3905180D01*
X8702820Y-3905180D01*
X8687580Y-3900100D01*
X8657100Y-3884860D01*
X8636780Y-3874700D01*
X8613920Y-3864540D01*
X8603760Y-3859460D01*
X8593600Y-3864540D01*
X8573280Y-3879780D01*
X8540260Y-3900100D01*
X8502160Y-3925500D01*
X8466600Y-3950900D01*
X8431040Y-3973760D01*
X8408180Y-3989000D01*
X8395480Y-3996620D01*
X8392940Y-3996620D01*
X8382780Y-3989000D01*
X8362460Y-3973760D01*
X8334520Y-3945820D01*
X8293880Y-3905180D01*
X8286260Y-3900100D01*
X8253240Y-3864540D01*
X8225300Y-3834060D01*
X8204980Y-3813740D01*
X8199900Y-3806120D01*
X8199900Y-3806120D01*
X8204980Y-3793420D01*
X8220220Y-3768020D01*
X8243080Y-3735000D01*
X8271020Y-3694360D01*
X8342140Y-3590220D01*
X8301500Y-3493700D01*
X8291340Y-3463220D01*
X8276100Y-3427660D01*
X8263400Y-3402260D01*
X8258320Y-3389560D01*
X8248160Y-3387020D01*
X8220220Y-3379400D01*
X8182120Y-3371780D01*
X8136400Y-3364160D01*
X8090680Y-3354000D01*
X8052580Y-3346380D01*
X8022100Y-3341300D01*
X8009400Y-3338760D01*
X8006860Y-3336220D01*
X8004320Y-3331140D01*
X8001780Y-3318440D01*
X8001780Y-3293040D01*
X8001780Y-3254940D01*
X8001780Y-3199060D01*
X8001780Y-3193980D01*
X8001780Y-3140640D01*
X8001780Y-3100000D01*
X8004320Y-3074600D01*
X8006860Y-3064440D01*
X8006860Y-3064440D01*
X8019560Y-3059360D01*
X8047500Y-3054280D01*
X8085600Y-3046660D01*
X8133860Y-3036500D01*
X8136400Y-3036500D01*
X8184660Y-3028880D01*
X8222760Y-3018720D01*
X8250700Y-3013640D01*
X8263400Y-3008560D01*
X8265940Y-3006020D01*
X8276100Y-2988240D01*
X8288800Y-2957760D01*
X8304040Y-2922200D01*
X8319280Y-2886640D01*
X8334520Y-2851080D01*
X8342140Y-2828220D01*
X8344680Y-2815520D01*
X8344680Y-2815520D01*
X8337060Y-2805360D01*
X8321820Y-2779960D01*
X8298960Y-2746940D01*
X8271020Y-2706300D01*
X8268480Y-2701220D01*
X8240540Y-2663120D01*
X8220220Y-2627560D01*
X8204980Y-2604700D01*
X8199900Y-2594540D01*
X8199900Y-2592000D01*
X8207520Y-2581840D01*
X8227840Y-2558980D01*
X8258320Y-2528500D01*
X8293880Y-2492940D01*
X8304040Y-2482780D01*
X8342140Y-2444680D01*
X8370080Y-2419280D01*
X8387860Y-2406580D01*
X8395480Y-2401500D01*
X8395480Y-2404040D01*
X8408180Y-2409120D01*
X8433580Y-2426900D01*
X8466600Y-2449760D01*
X8507240Y-2477700D01*
X8509780Y-2480240D01*
X8550420Y-2505640D01*
X8583440Y-2528500D01*
X8606300Y-2543740D01*
X8616460Y-2551360D01*
X8619000Y-2551360D01*
X8634240Y-2546280D01*
X8664720Y-2536120D01*
X8697740Y-2523420D01*
X8735840Y-2508180D01*
X8768860Y-2492940D01*
X8794260Y-2482780D01*
X8806960Y-2475160D01*
X8806960Y-2475160D01*
X8812040Y-2459920D01*
X8817120Y-2429440D01*
X8827280Y-2388800D01*
X8834900Y-2340540D01*
X8837440Y-2332920D01*
X8845060Y-2284660D01*
X8852680Y-2246560D01*
X8860300Y-2218620D01*
X8862840Y-2205920D01*
X8867920Y-2205920D01*
X8893320Y-2203380D01*
X8928880Y-2203380D01*
X8972060Y-2203380D01*
X9015240Y-2203380D01*
X9058420Y-2203380D01*
X9096520Y-2205920D01*
X9121920Y-2205920D01*
X9134620Y-2208460D01*
X9134620Y-2211000D01*
X9139700Y-2223700D01*
X9144780Y-2254180D01*
X9154940Y-2294820D01*
X9162560Y-2345620D01*
X9165100Y-2353240D01*
X9172720Y-2401500D01*
X9182880Y-2439600D01*
X9187960Y-2467540D01*
X9190500Y-2477700D01*
X9195580Y-2480240D01*
X9213360Y-2487860D01*
X9246380Y-2500560D01*
X9287020Y-2518340D01*
X9378460Y-2553900D01*
X9490220Y-2477700D01*
X9500380Y-2470080D01*
X9541020Y-2442140D01*
X9574040Y-2421820D01*
X9596900Y-2406580D01*
X9607060Y-2401500D01*
X9607060Y-2401500D01*
X9617220Y-2411660D01*
X9640080Y-2431980D01*
X9670560Y-2462460D01*
X9706120Y-2495480D01*
X9731520Y-2523420D01*
X9762000Y-2553900D01*
X9782320Y-2574220D01*
X9792480Y-2589460D01*
X9797560Y-2597080D01*
X9795020Y-2602160D01*
X9789940Y-2614860D01*
X9772160Y-2637720D01*
X9749300Y-2673280D01*
X9721360Y-2711380D01*
X9698500Y-2746940D01*
X9675640Y-2782500D01*
X9660400Y-2810440D01*
X9652780Y-2823140D01*
X9655320Y-2828220D01*
X9662940Y-2851080D01*
X9675640Y-2884100D01*
X9693420Y-2924740D01*
X9731520Y-3013640D01*
X9789940Y-3023800D01*
X9825500Y-3031420D01*
X9876300Y-3039040D01*
X9922020Y-3049200D01*
X9995680Y-3064440D01*
X9998220Y-3331140D01*
X9988060Y-3336220D01*
X9975360Y-3341300D01*
X9949960Y-3346380D01*
X9909320Y-3354000D01*
X9863600Y-3361620D01*
X9825500Y-3369240D01*
X9784860Y-3376860D01*
X9756920Y-3381940D01*
X9744220Y-3384480D01*
X9741680Y-3389560D01*
X9731520Y-3409880D01*
X9716280Y-3440360D01*
X9701040Y-3475920D01*
X9685800Y-3514020D01*
X9673100Y-3549580D01*
X9662940Y-3574980D01*
X9657860Y-3590220D01*
X9662940Y-3600380D01*
X9678180Y-3623240D01*
X9701040Y-3656260D01*
X9726440Y-3694360D01*
X9754380Y-3735000D01*
X9777240Y-3768020D01*
X9792480Y-3793420D01*
X9800100Y-3803580D01*
X9795020Y-3811200D01*
X9779780Y-3828980D01*
X9751840Y-3859460D01*
X9706120Y-3905180D01*
X9698500Y-3910260D01*
X9665480Y-3945820D01*
X9635000Y-3971220D01*
X9614680Y-3991540D01*
X9604520Y-3996620D01*
D10*
X35366667Y-33116667D02*
X35766667Y-33116667D01*
X35566667Y-33816667D02*
X35566667Y-33116667D01*
X35966666Y-33183333D02*
X36000000Y-33150000D01*
X36066666Y-33116667D01*
X36233333Y-33116667D01*
X36300000Y-33150000D01*
X36333333Y-33183333D01*
X36366666Y-33250000D01*
X36366666Y-33316667D01*
X36333333Y-33416667D01*
X35933333Y-33816667D01*
X36366666Y-33816667D01*
X4283334Y-42050000D02*
X4250000Y-42083333D01*
X4150000Y-42116667D01*
X4083334Y-42116667D01*
X3983334Y-42083333D01*
X3916667Y-42016667D01*
X3883334Y-41950000D01*
X3850000Y-41816667D01*
X3850000Y-41716667D01*
X3883334Y-41583333D01*
X3916667Y-41516667D01*
X3983334Y-41450000D01*
X4083334Y-41416667D01*
X4150000Y-41416667D01*
X4250000Y-41450000D01*
X4283334Y-41483333D01*
X4950000Y-42116667D02*
X4550000Y-42116667D01*
X4750000Y-42116667D02*
X4750000Y-41416667D01*
X4683334Y-41516667D01*
X4616667Y-41583333D01*
X4550000Y-41616667D01*
X3450000Y-34450000D02*
X3416666Y-34483333D01*
X3316666Y-34516667D01*
X3250000Y-34516667D01*
X3150000Y-34483333D01*
X3083333Y-34416667D01*
X3050000Y-34350000D01*
X3016666Y-34216667D01*
X3016666Y-34116667D01*
X3050000Y-33983333D01*
X3083333Y-33916667D01*
X3150000Y-33850000D01*
X3250000Y-33816667D01*
X3316666Y-33816667D01*
X3416666Y-33850000D01*
X3450000Y-33883333D01*
X4116666Y-34516667D02*
X3716666Y-34516667D01*
X3916666Y-34516667D02*
X3916666Y-33816667D01*
X3850000Y-33916667D01*
X3783333Y-33983333D01*
X3716666Y-34016667D01*
X4550000Y-33816667D02*
X4616667Y-33816667D01*
X4683333Y-33850000D01*
X4716667Y-33883333D01*
X4750000Y-33950000D01*
X4783333Y-34083333D01*
X4783333Y-34250000D01*
X4750000Y-34383333D01*
X4716667Y-34450000D01*
X4683333Y-34483333D01*
X4616667Y-34516667D01*
X4550000Y-34516667D01*
X4483333Y-34483333D01*
X4450000Y-34450000D01*
X4416667Y-34383333D01*
X4383333Y-34250000D01*
X4383333Y-34083333D01*
X4416667Y-33950000D01*
X4450000Y-33883333D01*
X4483333Y-33850000D01*
X4550000Y-33816667D01*
X6050000Y-27650000D02*
X6016666Y-27683333D01*
X5916666Y-27716667D01*
X5850000Y-27716667D01*
X5750000Y-27683333D01*
X5683333Y-27616667D01*
X5650000Y-27550000D01*
X5616666Y-27416667D01*
X5616666Y-27316667D01*
X5650000Y-27183333D01*
X5683333Y-27116667D01*
X5750000Y-27050000D01*
X5850000Y-27016667D01*
X5916666Y-27016667D01*
X6016666Y-27050000D01*
X6050000Y-27083333D01*
X6716666Y-27716667D02*
X6316666Y-27716667D01*
X6516666Y-27716667D02*
X6516666Y-27016667D01*
X6450000Y-27116667D01*
X6383333Y-27183333D01*
X6316666Y-27216667D01*
X7383333Y-27716667D02*
X6983333Y-27716667D01*
X7183333Y-27716667D02*
X7183333Y-27016667D01*
X7116667Y-27116667D01*
X7050000Y-27183333D01*
X6983333Y-27216667D01*
X10850000Y-27650000D02*
X10816666Y-27683333D01*
X10716666Y-27716667D01*
X10650000Y-27716667D01*
X10550000Y-27683333D01*
X10483333Y-27616667D01*
X10450000Y-27550000D01*
X10416666Y-27416667D01*
X10416666Y-27316667D01*
X10450000Y-27183333D01*
X10483333Y-27116667D01*
X10550000Y-27050000D01*
X10650000Y-27016667D01*
X10716666Y-27016667D01*
X10816666Y-27050000D01*
X10850000Y-27083333D01*
X11516666Y-27716667D02*
X11116666Y-27716667D01*
X11316666Y-27716667D02*
X11316666Y-27016667D01*
X11250000Y-27116667D01*
X11183333Y-27183333D01*
X11116666Y-27216667D01*
X11783333Y-27083333D02*
X11816667Y-27050000D01*
X11883333Y-27016667D01*
X12050000Y-27016667D01*
X12116667Y-27050000D01*
X12150000Y-27083333D01*
X12183333Y-27150000D01*
X12183333Y-27216667D01*
X12150000Y-27316667D01*
X11750000Y-27716667D01*
X12183333Y-27716667D01*
X14050000Y-27650000D02*
X14016666Y-27683333D01*
X13916666Y-27716667D01*
X13850000Y-27716667D01*
X13750000Y-27683333D01*
X13683333Y-27616667D01*
X13650000Y-27550000D01*
X13616666Y-27416667D01*
X13616666Y-27316667D01*
X13650000Y-27183333D01*
X13683333Y-27116667D01*
X13750000Y-27050000D01*
X13850000Y-27016667D01*
X13916666Y-27016667D01*
X14016666Y-27050000D01*
X14050000Y-27083333D01*
X14716666Y-27716667D02*
X14316666Y-27716667D01*
X14516666Y-27716667D02*
X14516666Y-27016667D01*
X14450000Y-27116667D01*
X14383333Y-27183333D01*
X14316666Y-27216667D01*
X14950000Y-27016667D02*
X15383333Y-27016667D01*
X15150000Y-27283333D01*
X15250000Y-27283333D01*
X15316667Y-27316667D01*
X15350000Y-27350000D01*
X15383333Y-27416667D01*
X15383333Y-27583333D01*
X15350000Y-27650000D01*
X15316667Y-27683333D01*
X15250000Y-27716667D01*
X15050000Y-27716667D01*
X14983333Y-27683333D01*
X14950000Y-27650000D01*
X7816667Y-35050000D02*
X7783333Y-35083333D01*
X7683333Y-35116667D01*
X7616667Y-35116667D01*
X7516667Y-35083333D01*
X7450000Y-35016667D01*
X7416667Y-34950000D01*
X7383333Y-34816667D01*
X7383333Y-34716667D01*
X7416667Y-34583333D01*
X7450000Y-34516667D01*
X7516667Y-34450000D01*
X7616667Y-34416667D01*
X7683333Y-34416667D01*
X7783333Y-34450000D01*
X7816667Y-34483333D01*
X8116667Y-35116667D02*
X8116667Y-34416667D01*
X8516667Y-35116667D01*
X8516667Y-34416667D01*
X9216666Y-35116667D02*
X8816666Y-35116667D01*
X9016666Y-35116667D02*
X9016666Y-34416667D01*
X8950000Y-34516667D01*
X8883333Y-34583333D01*
X8816666Y-34616667D01*
X4183334Y-15216667D02*
X3950000Y-14883333D01*
X3783334Y-15216667D02*
X3783334Y-14516667D01*
X4050000Y-14516667D01*
X4116667Y-14550000D01*
X4150000Y-14583333D01*
X4183334Y-14650000D01*
X4183334Y-14750000D01*
X4150000Y-14816667D01*
X4116667Y-14850000D01*
X4050000Y-14883333D01*
X3783334Y-14883333D01*
X4716667Y-14850000D02*
X4483334Y-14850000D01*
X4483334Y-15216667D02*
X4483334Y-14516667D01*
X4816667Y-14516667D01*
X5450000Y-15216667D02*
X5050000Y-15216667D01*
X5250000Y-15216667D02*
X5250000Y-14516667D01*
X5183334Y-14616667D01*
X5116667Y-14683333D01*
X5050000Y-14716667D01*
X22566667Y-37816667D02*
X22566667Y-38383333D01*
X22600000Y-38450000D01*
X22633333Y-38483333D01*
X22700000Y-38516667D01*
X22833333Y-38516667D01*
X22900000Y-38483333D01*
X22933333Y-38450000D01*
X22966667Y-38383333D01*
X22966667Y-37816667D01*
X23666666Y-38516667D02*
X23266666Y-38516667D01*
X23466666Y-38516667D02*
X23466666Y-37816667D01*
X23400000Y-37916667D01*
X23333333Y-37983333D01*
X23266666Y-38016667D01*
X34066667Y-14316667D02*
X34466667Y-14316667D01*
X34266667Y-15016667D02*
X34266667Y-14316667D01*
X35066666Y-15016667D02*
X34666666Y-15016667D01*
X34866666Y-15016667D02*
X34866666Y-14316667D01*
X34800000Y-14416667D01*
X34733333Y-14483333D01*
X34666666Y-14516667D01*
X37350000Y-42716667D02*
X37116666Y-42383333D01*
X36950000Y-42716667D02*
X36950000Y-42016667D01*
X37216666Y-42016667D01*
X37283333Y-42050000D01*
X37316666Y-42083333D01*
X37350000Y-42150000D01*
X37350000Y-42250000D01*
X37316666Y-42316667D01*
X37283333Y-42350000D01*
X37216666Y-42383333D01*
X36950000Y-42383333D01*
X38016666Y-42716667D02*
X37616666Y-42716667D01*
X37816666Y-42716667D02*
X37816666Y-42016667D01*
X37750000Y-42116667D01*
X37683333Y-42183333D01*
X37616666Y-42216667D01*
X38650000Y-42016667D02*
X38316667Y-42016667D01*
X38283333Y-42350000D01*
X38316667Y-42316667D01*
X38383333Y-42283333D01*
X38550000Y-42283333D01*
X38616667Y-42316667D01*
X38650000Y-42350000D01*
X38683333Y-42416667D01*
X38683333Y-42583333D01*
X38650000Y-42650000D01*
X38616667Y-42683333D01*
X38550000Y-42716667D01*
X38383333Y-42716667D01*
X38316667Y-42683333D01*
X38283333Y-42650000D01*
X37350000Y-37716667D02*
X37116666Y-37383333D01*
X36950000Y-37716667D02*
X36950000Y-37016667D01*
X37216666Y-37016667D01*
X37283333Y-37050000D01*
X37316666Y-37083333D01*
X37350000Y-37150000D01*
X37350000Y-37250000D01*
X37316666Y-37316667D01*
X37283333Y-37350000D01*
X37216666Y-37383333D01*
X36950000Y-37383333D01*
X38016666Y-37716667D02*
X37616666Y-37716667D01*
X37816666Y-37716667D02*
X37816666Y-37016667D01*
X37750000Y-37116667D01*
X37683333Y-37183333D01*
X37616666Y-37216667D01*
X38616667Y-37250000D02*
X38616667Y-37716667D01*
X38450000Y-36983333D02*
X38283333Y-37483333D01*
X38716667Y-37483333D01*
X37350000Y-40216667D02*
X37116666Y-39883333D01*
X36950000Y-40216667D02*
X36950000Y-39516667D01*
X37216666Y-39516667D01*
X37283333Y-39550000D01*
X37316666Y-39583333D01*
X37350000Y-39650000D01*
X37350000Y-39750000D01*
X37316666Y-39816667D01*
X37283333Y-39850000D01*
X37216666Y-39883333D01*
X36950000Y-39883333D01*
X38016666Y-40216667D02*
X37616666Y-40216667D01*
X37816666Y-40216667D02*
X37816666Y-39516667D01*
X37750000Y-39616667D01*
X37683333Y-39683333D01*
X37616666Y-39716667D01*
X38250000Y-39516667D02*
X38683333Y-39516667D01*
X38450000Y-39783333D01*
X38550000Y-39783333D01*
X38616667Y-39816667D01*
X38650000Y-39850000D01*
X38683333Y-39916667D01*
X38683333Y-40083333D01*
X38650000Y-40150000D01*
X38616667Y-40183333D01*
X38550000Y-40216667D01*
X38350000Y-40216667D01*
X38283333Y-40183333D01*
X38250000Y-40150000D01*
X37350000Y-35516667D02*
X37116666Y-35183333D01*
X36950000Y-35516667D02*
X36950000Y-34816667D01*
X37216666Y-34816667D01*
X37283333Y-34850000D01*
X37316666Y-34883333D01*
X37350000Y-34950000D01*
X37350000Y-35050000D01*
X37316666Y-35116667D01*
X37283333Y-35150000D01*
X37216666Y-35183333D01*
X36950000Y-35183333D01*
X38016666Y-35516667D02*
X37616666Y-35516667D01*
X37816666Y-35516667D02*
X37816666Y-34816667D01*
X37750000Y-34916667D01*
X37683333Y-34983333D01*
X37616666Y-35016667D01*
X38283333Y-34883333D02*
X38316667Y-34850000D01*
X38383333Y-34816667D01*
X38550000Y-34816667D01*
X38616667Y-34850000D01*
X38650000Y-34883333D01*
X38683333Y-34950000D01*
X38683333Y-35016667D01*
X38650000Y-35116667D01*
X38250000Y-35516667D01*
X38683333Y-35516667D01*
X18450000Y-45216667D02*
X18216666Y-44883333D01*
X18050000Y-45216667D02*
X18050000Y-44516667D01*
X18316666Y-44516667D01*
X18383333Y-44550000D01*
X18416666Y-44583333D01*
X18450000Y-44650000D01*
X18450000Y-44750000D01*
X18416666Y-44816667D01*
X18383333Y-44850000D01*
X18316666Y-44883333D01*
X18050000Y-44883333D01*
X19116666Y-45216667D02*
X18716666Y-45216667D01*
X18916666Y-45216667D02*
X18916666Y-44516667D01*
X18850000Y-44616667D01*
X18783333Y-44683333D01*
X18716666Y-44716667D01*
X19783333Y-45216667D02*
X19383333Y-45216667D01*
X19583333Y-45216667D02*
X19583333Y-44516667D01*
X19516667Y-44616667D01*
X19450000Y-44683333D01*
X19383333Y-44716667D01*
X37283334Y-15016667D02*
X37050000Y-14683333D01*
X36883334Y-15016667D02*
X36883334Y-14316667D01*
X37150000Y-14316667D01*
X37216667Y-14350000D01*
X37250000Y-14383333D01*
X37283334Y-14450000D01*
X37283334Y-14550000D01*
X37250000Y-14616667D01*
X37216667Y-14650000D01*
X37150000Y-14683333D01*
X36883334Y-14683333D01*
X37683334Y-14616667D02*
X37616667Y-14583333D01*
X37583334Y-14550000D01*
X37550000Y-14483333D01*
X37550000Y-14450000D01*
X37583334Y-14383333D01*
X37616667Y-14350000D01*
X37683334Y-14316667D01*
X37816667Y-14316667D01*
X37883334Y-14350000D01*
X37916667Y-14383333D01*
X37950000Y-14450000D01*
X37950000Y-14483333D01*
X37916667Y-14550000D01*
X37883334Y-14583333D01*
X37816667Y-14616667D01*
X37683334Y-14616667D01*
X37616667Y-14650000D01*
X37583334Y-14683333D01*
X37550000Y-14750000D01*
X37550000Y-14883333D01*
X37583334Y-14950000D01*
X37616667Y-14983333D01*
X37683334Y-15016667D01*
X37816667Y-15016667D01*
X37883334Y-14983333D01*
X37916667Y-14950000D01*
X37950000Y-14883333D01*
X37950000Y-14750000D01*
X37916667Y-14683333D01*
X37883334Y-14650000D01*
X37816667Y-14616667D01*
X40483334Y-28916667D02*
X40250000Y-28583333D01*
X40083334Y-28916667D02*
X40083334Y-28216667D01*
X40350000Y-28216667D01*
X40416667Y-28250000D01*
X40450000Y-28283333D01*
X40483334Y-28350000D01*
X40483334Y-28450000D01*
X40450000Y-28516667D01*
X40416667Y-28550000D01*
X40350000Y-28583333D01*
X40083334Y-28583333D01*
X41150000Y-28916667D02*
X40750000Y-28916667D01*
X40950000Y-28916667D02*
X40950000Y-28216667D01*
X40883334Y-28316667D01*
X40816667Y-28383333D01*
X40750000Y-28416667D01*
X40783333Y-12616667D02*
X40450000Y-12616667D01*
X40450000Y-11916667D01*
X40983333Y-11983333D02*
X41016667Y-11950000D01*
X41083333Y-11916667D01*
X41250000Y-11916667D01*
X41316667Y-11950000D01*
X41350000Y-11983333D01*
X41383333Y-12050000D01*
X41383333Y-12116667D01*
X41350000Y-12216667D01*
X40950000Y-12616667D01*
X41383333Y-12616667D01*
X40983333Y-26616667D02*
X40650000Y-26616667D01*
X40650000Y-25916667D01*
X41583333Y-26616667D02*
X41183333Y-26616667D01*
X41383333Y-26616667D02*
X41383333Y-25916667D01*
X41316667Y-26016667D01*
X41250000Y-26083333D01*
X41183333Y-26116667D01*
X18383334Y-33350000D02*
X18350000Y-33383333D01*
X18250000Y-33416667D01*
X18183334Y-33416667D01*
X18083334Y-33383333D01*
X18016667Y-33316667D01*
X17983334Y-33250000D01*
X17950000Y-33116667D01*
X17950000Y-33016667D01*
X17983334Y-32883333D01*
X18016667Y-32816667D01*
X18083334Y-32750000D01*
X18183334Y-32716667D01*
X18250000Y-32716667D01*
X18350000Y-32750000D01*
X18383334Y-32783333D01*
X18716667Y-33416667D02*
X18850000Y-33416667D01*
X18916667Y-33383333D01*
X18950000Y-33350000D01*
X19016667Y-33250000D01*
X19050000Y-33116667D01*
X19050000Y-32850000D01*
X19016667Y-32783333D01*
X18983334Y-32750000D01*
X18916667Y-32716667D01*
X18783334Y-32716667D01*
X18716667Y-32750000D01*
X18683334Y-32783333D01*
X18650000Y-32850000D01*
X18650000Y-33016667D01*
X18683334Y-33083333D01*
X18716667Y-33116667D01*
X18783334Y-33150000D01*
X18916667Y-33150000D01*
X18983334Y-33116667D01*
X19016667Y-33083333D01*
X19050000Y-33016667D01*
X20883334Y-33350000D02*
X20850000Y-33383333D01*
X20750000Y-33416667D01*
X20683334Y-33416667D01*
X20583334Y-33383333D01*
X20516667Y-33316667D01*
X20483334Y-33250000D01*
X20450000Y-33116667D01*
X20450000Y-33016667D01*
X20483334Y-32883333D01*
X20516667Y-32816667D01*
X20583334Y-32750000D01*
X20683334Y-32716667D01*
X20750000Y-32716667D01*
X20850000Y-32750000D01*
X20883334Y-32783333D01*
X21283334Y-33016667D02*
X21216667Y-32983333D01*
X21183334Y-32950000D01*
X21150000Y-32883333D01*
X21150000Y-32850000D01*
X21183334Y-32783333D01*
X21216667Y-32750000D01*
X21283334Y-32716667D01*
X21416667Y-32716667D01*
X21483334Y-32750000D01*
X21516667Y-32783333D01*
X21550000Y-32850000D01*
X21550000Y-32883333D01*
X21516667Y-32950000D01*
X21483334Y-32983333D01*
X21416667Y-33016667D01*
X21283334Y-33016667D01*
X21216667Y-33050000D01*
X21183334Y-33083333D01*
X21150000Y-33150000D01*
X21150000Y-33283333D01*
X21183334Y-33350000D01*
X21216667Y-33383333D01*
X21283334Y-33416667D01*
X21416667Y-33416667D01*
X21483334Y-33383333D01*
X21516667Y-33350000D01*
X21550000Y-33283333D01*
X21550000Y-33150000D01*
X21516667Y-33083333D01*
X21483334Y-33050000D01*
X21416667Y-33016667D01*
X21083333Y-43150000D02*
X21183333Y-43183333D01*
X21216666Y-43216667D01*
X21250000Y-43283333D01*
X21250000Y-43383333D01*
X21216666Y-43450000D01*
X21183333Y-43483333D01*
X21116666Y-43516667D01*
X20850000Y-43516667D01*
X20850000Y-42816667D01*
X21083333Y-42816667D01*
X21150000Y-42850000D01*
X21183333Y-42883333D01*
X21216666Y-42950000D01*
X21216666Y-43016667D01*
X21183333Y-43083333D01*
X21150000Y-43116667D01*
X21083333Y-43150000D01*
X20850000Y-43150000D01*
X21916666Y-43516667D02*
X21516666Y-43516667D01*
X21716666Y-43516667D02*
X21716666Y-42816667D01*
X21650000Y-42916667D01*
X21583333Y-42983333D01*
X21516666Y-43016667D01*
X22183333Y-42883333D02*
X22216667Y-42850000D01*
X22283333Y-42816667D01*
X22450000Y-42816667D01*
X22516667Y-42850000D01*
X22550000Y-42883333D01*
X22583333Y-42950000D01*
X22583333Y-43016667D01*
X22550000Y-43116667D01*
X22150000Y-43516667D01*
X22583333Y-43516667D01*
X35183333Y-12250000D02*
X35283333Y-12283333D01*
X35316666Y-12316667D01*
X35350000Y-12383333D01*
X35350000Y-12483333D01*
X35316666Y-12550000D01*
X35283333Y-12583333D01*
X35216666Y-12616667D01*
X34950000Y-12616667D01*
X34950000Y-11916667D01*
X35183333Y-11916667D01*
X35250000Y-11950000D01*
X35283333Y-11983333D01*
X35316666Y-12050000D01*
X35316666Y-12116667D01*
X35283333Y-12183333D01*
X35250000Y-12216667D01*
X35183333Y-12250000D01*
X34950000Y-12250000D01*
X36016666Y-12616667D02*
X35616666Y-12616667D01*
X35816666Y-12616667D02*
X35816666Y-11916667D01*
X35750000Y-12016667D01*
X35683333Y-12083333D01*
X35616666Y-12116667D01*
X36450000Y-11916667D02*
X36516667Y-11916667D01*
X36583333Y-11950000D01*
X36616667Y-11983333D01*
X36650000Y-12050000D01*
X36683333Y-12183333D01*
X36683333Y-12350000D01*
X36650000Y-12483333D01*
X36616667Y-12550000D01*
X36583333Y-12583333D01*
X36516667Y-12616667D01*
X36450000Y-12616667D01*
X36383333Y-12583333D01*
X36350000Y-12550000D01*
X36316667Y-12483333D01*
X36283333Y-12350000D01*
X36283333Y-12183333D01*
X36316667Y-12050000D01*
X36350000Y-11983333D01*
X36383333Y-11950000D01*
X36450000Y-11916667D01*
X38616667Y-17550000D02*
X38716667Y-17583333D01*
X38750000Y-17616667D01*
X38783334Y-17683333D01*
X38783334Y-17783333D01*
X38750000Y-17850000D01*
X38716667Y-17883333D01*
X38650000Y-17916667D01*
X38383334Y-17916667D01*
X38383334Y-17216667D01*
X38616667Y-17216667D01*
X38683334Y-17250000D01*
X38716667Y-17283333D01*
X38750000Y-17350000D01*
X38750000Y-17416667D01*
X38716667Y-17483333D01*
X38683334Y-17516667D01*
X38616667Y-17550000D01*
X38383334Y-17550000D01*
X39116667Y-17916667D02*
X39250000Y-17916667D01*
X39316667Y-17883333D01*
X39350000Y-17850000D01*
X39416667Y-17750000D01*
X39450000Y-17616667D01*
X39450000Y-17350000D01*
X39416667Y-17283333D01*
X39383334Y-17250000D01*
X39316667Y-17216667D01*
X39183334Y-17216667D01*
X39116667Y-17250000D01*
X39083334Y-17283333D01*
X39050000Y-17350000D01*
X39050000Y-17516667D01*
X39083334Y-17583333D01*
X39116667Y-17616667D01*
X39183334Y-17650000D01*
X39316667Y-17650000D01*
X39383334Y-17616667D01*
X39416667Y-17583333D01*
X39450000Y-17516667D01*
X36516667Y-23650000D02*
X36616667Y-23683333D01*
X36650000Y-23716667D01*
X36683334Y-23783333D01*
X36683334Y-23883333D01*
X36650000Y-23950000D01*
X36616667Y-23983333D01*
X36550000Y-24016667D01*
X36283334Y-24016667D01*
X36283334Y-23316667D01*
X36516667Y-23316667D01*
X36583334Y-23350000D01*
X36616667Y-23383333D01*
X36650000Y-23450000D01*
X36650000Y-23516667D01*
X36616667Y-23583333D01*
X36583334Y-23616667D01*
X36516667Y-23650000D01*
X36283334Y-23650000D01*
X36916667Y-23316667D02*
X37350000Y-23316667D01*
X37116667Y-23583333D01*
X37216667Y-23583333D01*
X37283334Y-23616667D01*
X37316667Y-23650000D01*
X37350000Y-23716667D01*
X37350000Y-23883333D01*
X37316667Y-23950000D01*
X37283334Y-23983333D01*
X37216667Y-24016667D01*
X37016667Y-24016667D01*
X36950000Y-23983333D01*
X36916667Y-23950000D01*
X9416667Y-23350000D02*
X9516667Y-23383333D01*
X9550000Y-23416667D01*
X9583334Y-23483333D01*
X9583334Y-23583333D01*
X9550000Y-23650000D01*
X9516667Y-23683333D01*
X9450000Y-23716667D01*
X9183334Y-23716667D01*
X9183334Y-23016667D01*
X9416667Y-23016667D01*
X9483334Y-23050000D01*
X9516667Y-23083333D01*
X9550000Y-23150000D01*
X9550000Y-23216667D01*
X9516667Y-23283333D01*
X9483334Y-23316667D01*
X9416667Y-23350000D01*
X9183334Y-23350000D01*
X9850000Y-23083333D02*
X9883334Y-23050000D01*
X9950000Y-23016667D01*
X10116667Y-23016667D01*
X10183334Y-23050000D01*
X10216667Y-23083333D01*
X10250000Y-23150000D01*
X10250000Y-23216667D01*
X10216667Y-23316667D01*
X9816667Y-23716667D01*
X10250000Y-23716667D01*
X37216667Y-29750000D02*
X37316667Y-29783333D01*
X37350000Y-29816667D01*
X37383334Y-29883333D01*
X37383334Y-29983333D01*
X37350000Y-30050000D01*
X37316667Y-30083333D01*
X37250000Y-30116667D01*
X36983334Y-30116667D01*
X36983334Y-29416667D01*
X37216667Y-29416667D01*
X37283334Y-29450000D01*
X37316667Y-29483333D01*
X37350000Y-29550000D01*
X37350000Y-29616667D01*
X37316667Y-29683333D01*
X37283334Y-29716667D01*
X37216667Y-29750000D01*
X36983334Y-29750000D01*
X38050000Y-30116667D02*
X37650000Y-30116667D01*
X37850000Y-30116667D02*
X37850000Y-29416667D01*
X37783334Y-29516667D01*
X37716667Y-29583333D01*
X37650000Y-29616667D01*
X48616667Y-42316666D02*
X48283333Y-42550000D01*
X48616667Y-42716666D02*
X47916667Y-42716666D01*
X47916667Y-42450000D01*
X47950000Y-42383333D01*
X47983333Y-42350000D01*
X48050000Y-42316666D01*
X48150000Y-42316666D01*
X48216667Y-42350000D01*
X48250000Y-42383333D01*
X48283333Y-42450000D01*
X48283333Y-42716666D01*
X47916667Y-42116666D02*
X48616667Y-41883333D01*
X47916667Y-41650000D01*
X47983333Y-41450000D02*
X47950000Y-41416666D01*
X47916667Y-41350000D01*
X47916667Y-41183333D01*
X47950000Y-41116666D01*
X47983333Y-41083333D01*
X48050000Y-41050000D01*
X48116667Y-41050000D01*
X48216667Y-41083333D01*
X48616667Y-41483333D01*
X48616667Y-41050000D01*
X48616667Y-37516666D02*
X48283333Y-37750000D01*
X48616667Y-37916666D02*
X47916667Y-37916666D01*
X47916667Y-37650000D01*
X47950000Y-37583333D01*
X47983333Y-37550000D01*
X48050000Y-37516666D01*
X48150000Y-37516666D01*
X48216667Y-37550000D01*
X48250000Y-37583333D01*
X48283333Y-37650000D01*
X48283333Y-37916666D01*
X47916667Y-37316666D02*
X48616667Y-37083333D01*
X47916667Y-36850000D01*
X48616667Y-36250000D02*
X48616667Y-36650000D01*
X48616667Y-36450000D02*
X47916667Y-36450000D01*
X48016667Y-36516666D01*
X48083333Y-36583333D01*
X48116667Y-36650000D01*
X41833333Y-8383333D02*
X41766667Y-8350000D01*
X41700000Y-8283333D01*
X41600000Y-8183333D01*
X41533333Y-8150000D01*
X41466667Y-8150000D01*
X41500000Y-8316667D02*
X41433333Y-8283333D01*
X41366667Y-8216667D01*
X41333333Y-8083333D01*
X41333333Y-7850000D01*
X41366667Y-7716667D01*
X41433333Y-7650000D01*
X41500000Y-7616667D01*
X41633333Y-7616667D01*
X41700000Y-7650000D01*
X41766667Y-7716667D01*
X41800000Y-7850000D01*
X41800000Y-8083333D01*
X41766667Y-8216667D01*
X41700000Y-8283333D01*
X41633333Y-8316667D01*
X41500000Y-8316667D01*
X42066666Y-7683333D02*
X42100000Y-7650000D01*
X42166666Y-7616667D01*
X42333333Y-7616667D01*
X42400000Y-7650000D01*
X42433333Y-7683333D01*
X42466666Y-7750000D01*
X42466666Y-7816667D01*
X42433333Y-7916667D01*
X42033333Y-8316667D01*
X42466666Y-8316667D01*
X41933333Y-22383333D02*
X41866667Y-22350000D01*
X41800000Y-22283333D01*
X41700000Y-22183333D01*
X41633333Y-22150000D01*
X41566667Y-22150000D01*
X41600000Y-22316667D02*
X41533333Y-22283333D01*
X41466667Y-22216667D01*
X41433333Y-22083333D01*
X41433333Y-21850000D01*
X41466667Y-21716667D01*
X41533333Y-21650000D01*
X41600000Y-21616667D01*
X41733333Y-21616667D01*
X41800000Y-21650000D01*
X41866667Y-21716667D01*
X41900000Y-21850000D01*
X41900000Y-22083333D01*
X41866667Y-22216667D01*
X41800000Y-22283333D01*
X41733333Y-22316667D01*
X41600000Y-22316667D01*
X42566666Y-22316667D02*
X42166666Y-22316667D01*
X42366666Y-22316667D02*
X42366666Y-21616667D01*
X42300000Y-21716667D01*
X42233333Y-21783333D01*
X42166666Y-21816667D01*
M02*
