G04 #@! TF.FileFunction,Soldermask,Top*
%FSLAX46Y46*%
G04 Gerber Fmt 4.6, Leading zero omitted, Abs format (unit mm)*
G04 Created by KiCad (PCBNEW 4.0.1-stable) date 7/31/2016 1:29:05 PM*
%MOMM*%
G01*
G04 APERTURE LIST*
%ADD10C,0.100000*%
%ADD11C,2.400000*%
%ADD12R,3.900000X1.800000*%
%ADD13R,3.194000X2.178000*%
%ADD14C,4.400000*%
%ADD15C,4.900000*%
%ADD16R,5.400000X2.000000*%
%ADD17R,5.400000X2.100000*%
%ADD18R,2.100000X5.400000*%
%ADD19R,1.450000X1.000000*%
%ADD20R,5.400000X2.550000*%
%ADD21C,3.400000*%
%ADD22R,14.400000X2.550000*%
%ADD23O,5.400000X2.550000*%
%ADD24R,1.289000X1.797000*%
%ADD25R,1.797000X1.289000*%
%ADD26R,1.600000X1.600000*%
%ADD27R,1.900000X2.000000*%
%ADD28C,5.400000*%
%ADD29O,2.600000X2.200000*%
%ADD30R,2.400000X2.400000*%
%ADD31R,3.600000X1.400000*%
%ADD32C,1.200000*%
%ADD33C,1.600000*%
G04 APERTURE END LIST*
D10*
D11*
X32050000Y-41000000D03*
X29150000Y-41000000D03*
X32050000Y-32800000D03*
D12*
X27900000Y-37800000D03*
X27900000Y-36000000D03*
X33300000Y-37800000D03*
X33300000Y-36000000D03*
D11*
X29150000Y-32800000D03*
D13*
X5400000Y-36522000D03*
X5400000Y-40078000D03*
X4500000Y-32578000D03*
X4500000Y-29022000D03*
X8000000Y-32578000D03*
X8000000Y-29022000D03*
X11500000Y-32578000D03*
X11500000Y-29022000D03*
X15000000Y-32578000D03*
X15000000Y-29022000D03*
D14*
X12000000Y-42300000D03*
D15*
X12000000Y-36300000D03*
D11*
X9500000Y-45700000D03*
X14500000Y-45700000D03*
D16*
X2700000Y-20600000D03*
D17*
X2700000Y-18060000D03*
X2700000Y-23140000D03*
D18*
X33160000Y-47200000D03*
X38240000Y-47200000D03*
X22960000Y-47200000D03*
X28040000Y-47200000D03*
D19*
X18600000Y-38000000D03*
X18600000Y-38950000D03*
X18600000Y-39900000D03*
X21300000Y-39900000D03*
X21300000Y-38000000D03*
D20*
X32600000Y-18855000D03*
D21*
X16750000Y-19435000D03*
D20*
X32600000Y-22285000D03*
D22*
X28100000Y-25715000D03*
D20*
X23600000Y-22285000D03*
D21*
X16750000Y-25135000D03*
X33600000Y-26100000D03*
X33600000Y-18400000D03*
D23*
X34100000Y-22300000D03*
D24*
X39547500Y-42900000D03*
X41452500Y-42900000D03*
X39547500Y-38300000D03*
X41452500Y-38300000D03*
X41452500Y-40500000D03*
X39547500Y-40500000D03*
X41452500Y-35900000D03*
X39547500Y-35900000D03*
D25*
X18800000Y-41747500D03*
X18800000Y-43652500D03*
X39000000Y-14452500D03*
X39000000Y-12547500D03*
X39000000Y-28452500D03*
X39000000Y-26547500D03*
D24*
X38947500Y-10800000D03*
X40852500Y-10800000D03*
X38947500Y-24800000D03*
X40852500Y-24800000D03*
D25*
X18700000Y-36352500D03*
X18700000Y-34447500D03*
X21300000Y-36352500D03*
X21300000Y-34447500D03*
D24*
X20747500Y-41800000D03*
X22652500Y-41800000D03*
X37452500Y-10800000D03*
X35547500Y-10800000D03*
X40752500Y-16200000D03*
X38847500Y-16200000D03*
D25*
X36800000Y-24847500D03*
X36800000Y-26752500D03*
D24*
X8747500Y-22000000D03*
X10652500Y-22000000D03*
X40752500Y-30200000D03*
X38847500Y-30200000D03*
D26*
X43200000Y-40700000D03*
X43200000Y-42700000D03*
D27*
X46450000Y-41700000D03*
D26*
X43200000Y-36100000D03*
X43200000Y-38100000D03*
D27*
X46450000Y-37100000D03*
D28*
X46700000Y-3300000D03*
X46700000Y-46700000D03*
X3300000Y-3300000D03*
X3300000Y-46700000D03*
D29*
X43500000Y-16300000D03*
X43500000Y-11300000D03*
X43500000Y-13800000D03*
D30*
X45200000Y-10800000D03*
X45200000Y-13800000D03*
X45200000Y-16800000D03*
D31*
X45500000Y-8300000D03*
X45500000Y-19300000D03*
D29*
X43500000Y-30300000D03*
X43500000Y-25300000D03*
X43500000Y-27800000D03*
D30*
X45200000Y-24800000D03*
X45200000Y-27800000D03*
X45200000Y-30800000D03*
D31*
X45500000Y-22300000D03*
X45500000Y-33300000D03*
D32*
X37800000Y-24000000D03*
X36800000Y-28400000D03*
X17300000Y-38900000D03*
X17300000Y-31900000D03*
X17400000Y-33700000D03*
X25100000Y-38400000D03*
X25100000Y-37100000D03*
X8000000Y-41200000D03*
X9400000Y-41200000D03*
X41800000Y-27100000D03*
X41800000Y-13100000D03*
X2600000Y-29000000D03*
X1350000Y-24750000D03*
X1350000Y-24750000D03*
X2850000Y-24750000D03*
X4350000Y-24750000D03*
X4350000Y-24750000D03*
X2850000Y-24750000D03*
X2900000Y-16500000D03*
X4400000Y-16500000D03*
X1400000Y-16500000D03*
X1400000Y-16500000D03*
X4400000Y-16500000D03*
X2900000Y-16500000D03*
X38500000Y-38300000D03*
X39850000Y-47250000D03*
X39850000Y-48750000D03*
X39850000Y-45750000D03*
X39850000Y-45750000D03*
X39850000Y-48750000D03*
X39850000Y-47250000D03*
X29550000Y-47250000D03*
X29550000Y-48750000D03*
X29550000Y-45750000D03*
X29550000Y-45750000D03*
X29550000Y-48750000D03*
X29550000Y-47250000D03*
X31600000Y-47200000D03*
X31600000Y-45700000D03*
X31600000Y-48700000D03*
X31600000Y-48700000D03*
X31600000Y-45700000D03*
X31600000Y-47200000D03*
X21300000Y-47200000D03*
X21300000Y-45700000D03*
X21300000Y-48700000D03*
X36000000Y-16900000D03*
X43300000Y-19400000D03*
X37500000Y-7000000D03*
X42600000Y-9200000D03*
X43300000Y-8300000D03*
X42800000Y-34600000D03*
X43200000Y-33500000D03*
X42400000Y-23200000D03*
X42300000Y-20000000D03*
X43400000Y-22400000D03*
X20000000Y-34500000D03*
X22700000Y-34400000D03*
X21300000Y-48700000D03*
X21300000Y-45700000D03*
X21300000Y-47200000D03*
X17000000Y-29000000D03*
X8000000Y-27500000D03*
X4500000Y-27500000D03*
D33*
X15800000Y-36300000D03*
X8300000Y-36300000D03*
X13200000Y-14000000D03*
X11400000Y-14000000D03*
X15000000Y-14000000D03*
D32*
X37500000Y-9000000D03*
X34000000Y-10800000D03*
X45400000Y-35500000D03*
X46600000Y-39600000D03*
X25600000Y-35400000D03*
M02*
