G04 #@! TF.FileFunction,Copper,L4,Bot,Signal*
%FSLAX46Y46*%
G04 Gerber Fmt 4.6, Leading zero omitted, Abs format (unit mm)*
G04 Created by KiCad (PCBNEW 4.0.1-stable) date 7/31/2016 1:29:05 PM*
%MOMM*%
G01*
G04 APERTURE LIST*
%ADD10C,0.100000*%
%ADD11C,2.000000*%
%ADD12C,4.000000*%
%ADD13C,4.500000*%
%ADD14R,0.900000X0.800000*%
%ADD15R,5.000000X1.700000*%
%ADD16R,1.600000X5.000000*%
%ADD17R,1.700000X5.000000*%
%ADD18C,3.000000*%
%ADD19O,5.000000X2.150000*%
%ADD20R,0.889000X1.397000*%
%ADD21R,1.397000X0.889000*%
%ADD22C,5.000000*%
%ADD23O,2.200000X1.800000*%
%ADD24C,0.800000*%
%ADD25C,1.200000*%
%ADD26C,0.350000*%
%ADD27C,2.000000*%
%ADD28C,1.000000*%
%ADD29C,1.500000*%
%ADD30C,0.200000*%
G04 APERTURE END LIST*
D10*
D11*
X32050000Y-41000000D03*
X29150000Y-41000000D03*
X32050000Y-32800000D03*
X29150000Y-32800000D03*
D12*
X12000000Y-42300000D03*
D13*
X12000000Y-36300000D03*
D11*
X9500000Y-45700000D03*
X14500000Y-45700000D03*
D14*
X40700000Y-31050000D03*
X38700000Y-32000000D03*
X40700000Y-32950000D03*
X40700000Y-17050000D03*
X38700000Y-18000000D03*
X40700000Y-18950000D03*
D15*
X2700000Y-23140000D03*
X2700000Y-18060000D03*
D16*
X35700000Y-47200000D03*
D17*
X38240000Y-47200000D03*
X33160000Y-47200000D03*
D16*
X25500000Y-47200000D03*
D17*
X28040000Y-47200000D03*
X22960000Y-47200000D03*
D18*
X16750000Y-19435000D03*
X16750000Y-25135000D03*
X33600000Y-26100000D03*
X33600000Y-18400000D03*
D19*
X34100000Y-22300000D03*
D20*
X38947500Y-8900000D03*
X40852500Y-8900000D03*
D21*
X25600000Y-41647500D03*
X25600000Y-43552500D03*
D20*
X29547500Y-38700000D03*
X31452500Y-38700000D03*
X29647500Y-43400000D03*
X31552500Y-43400000D03*
D21*
X30400000Y-16647500D03*
X30400000Y-18552500D03*
D20*
X38947500Y-22900000D03*
X40852500Y-22900000D03*
D21*
X35600000Y-41647500D03*
X35600000Y-43552500D03*
X30400000Y-26047500D03*
X30400000Y-27952500D03*
X26500000Y-32447500D03*
X26500000Y-34352500D03*
X32000000Y-34847500D03*
X32000000Y-36752500D03*
X40400000Y-15452500D03*
X40400000Y-13547500D03*
X40400000Y-29452500D03*
X40400000Y-27547500D03*
X15100000Y-33052500D03*
X15100000Y-31147500D03*
X12900000Y-33052500D03*
X12900000Y-31147500D03*
X10700000Y-33052500D03*
X10700000Y-31147500D03*
X8500000Y-33052500D03*
X8500000Y-31147500D03*
D20*
X38947500Y-7000000D03*
X40852500Y-7000000D03*
X38947500Y-21000000D03*
X40852500Y-21000000D03*
D21*
X36700000Y-18147500D03*
X36700000Y-20052500D03*
D20*
X28647500Y-24300000D03*
X30552500Y-24300000D03*
X28647500Y-22300000D03*
X30552500Y-22300000D03*
X28647500Y-20300000D03*
X30552500Y-20300000D03*
D22*
X46700000Y-3300000D03*
X46700000Y-46700000D03*
X3300000Y-3300000D03*
X3300000Y-46700000D03*
D23*
X43500000Y-16300000D03*
X43500000Y-11300000D03*
X43500000Y-13800000D03*
X43500000Y-30300000D03*
X43500000Y-25300000D03*
X43500000Y-27800000D03*
D24*
X37800000Y-24000000D03*
X36800000Y-28400000D03*
X17300000Y-38900000D03*
X17300000Y-31900000D03*
X17400000Y-33700000D03*
X25100000Y-38400000D03*
X25100000Y-37100000D03*
X8000000Y-41200000D03*
X9400000Y-41200000D03*
X41800000Y-27100000D03*
X41800000Y-13100000D03*
X2600000Y-29000000D03*
X1350000Y-24750000D03*
X1350000Y-24750000D03*
X2850000Y-24750000D03*
X4350000Y-24750000D03*
X4350000Y-24750000D03*
X2850000Y-24750000D03*
X2900000Y-16500000D03*
X4400000Y-16500000D03*
X1400000Y-16500000D03*
X1400000Y-16500000D03*
X4400000Y-16500000D03*
X2900000Y-16500000D03*
X38500000Y-38300000D03*
X39850000Y-47250000D03*
X39850000Y-48750000D03*
X39850000Y-45750000D03*
X39850000Y-45750000D03*
X39850000Y-48750000D03*
X39850000Y-47250000D03*
X29550000Y-47250000D03*
X29550000Y-48750000D03*
X29550000Y-45750000D03*
X29550000Y-45750000D03*
X29550000Y-48750000D03*
X29550000Y-47250000D03*
X31600000Y-47200000D03*
X31600000Y-45700000D03*
X31600000Y-48700000D03*
X31600000Y-48700000D03*
X31600000Y-45700000D03*
X31600000Y-47200000D03*
X21300000Y-47200000D03*
X21300000Y-45700000D03*
X21300000Y-48700000D03*
X36000000Y-16900000D03*
X43300000Y-19400000D03*
X37500000Y-7000000D03*
X42600000Y-9200000D03*
X43300000Y-8300000D03*
X42800000Y-34600000D03*
X43200000Y-33500000D03*
X42400000Y-23200000D03*
X42300000Y-20000000D03*
X43400000Y-22400000D03*
X20000000Y-34500000D03*
X22700000Y-34400000D03*
X21300000Y-48700000D03*
X21300000Y-45700000D03*
X21300000Y-47200000D03*
X17000000Y-29000000D03*
X8000000Y-27500000D03*
X4500000Y-27500000D03*
D25*
X15800000Y-36300000D03*
X8300000Y-36300000D03*
X13200000Y-14000000D03*
X11400000Y-14000000D03*
X15000000Y-14000000D03*
D24*
X37500000Y-9000000D03*
X34000000Y-10800000D03*
X45400000Y-35500000D03*
X46600000Y-39600000D03*
X25600000Y-35400000D03*
D26*
X30400000Y-27952500D02*
X31747500Y-27952500D01*
X31747500Y-27952500D02*
X33600000Y-26100000D01*
X43500000Y-30300000D02*
X41247500Y-30300000D01*
X41247500Y-30300000D02*
X40400000Y-29452500D01*
X40700000Y-31050000D02*
X40700000Y-29752500D01*
X40700000Y-29752500D02*
X40400000Y-29452500D01*
X37800000Y-24000000D02*
X38900000Y-22900000D01*
X38900000Y-22900000D02*
X38947500Y-22900000D01*
X38700000Y-22900000D02*
X38947500Y-22900000D01*
X32000000Y-34847500D02*
X32000000Y-32850000D01*
X32000000Y-32850000D02*
X36450000Y-28400000D01*
X36450000Y-28400000D02*
X36800000Y-28400000D01*
X15100000Y-31147500D02*
X16547500Y-31147500D01*
X16547500Y-31147500D02*
X17300000Y-31900000D01*
D27*
X12000000Y-42300000D02*
X9300000Y-42300000D01*
X9300000Y-42300000D02*
X8200000Y-41200000D01*
D28*
X8200000Y-41200000D02*
X8000000Y-41200000D01*
X9400000Y-41200000D02*
X8200000Y-41200000D01*
D27*
X9500000Y-45700000D02*
X9500000Y-44800000D01*
X9500000Y-44800000D02*
X12000000Y-42300000D01*
D26*
X41800000Y-27100000D02*
X40847500Y-27100000D01*
X40847500Y-27100000D02*
X40400000Y-27547500D01*
D28*
X42500000Y-27800000D02*
X41800000Y-27100000D01*
D26*
X40400000Y-13547500D02*
X41352500Y-13547500D01*
X41352500Y-13547500D02*
X41800000Y-13100000D01*
D28*
X42500000Y-13800000D02*
X41800000Y-13100000D01*
D26*
X2210000Y-23090000D02*
X2850000Y-23090000D01*
X1350000Y-23950000D02*
X2210000Y-23090000D01*
X1350000Y-24750000D02*
X1350000Y-23950000D01*
X2850000Y-24750000D02*
X2850000Y-23090000D01*
X3490000Y-23090000D02*
X2850000Y-23090000D01*
X4350000Y-23950000D02*
X3490000Y-23090000D01*
X4350000Y-24750000D02*
X4350000Y-23950000D01*
X4350000Y-24750000D02*
X4350000Y-23950000D01*
X4350000Y-23950000D02*
X3490000Y-23090000D01*
X3490000Y-23090000D02*
X2850000Y-23090000D01*
X2850000Y-24750000D02*
X2850000Y-23090000D01*
X1350000Y-24750000D02*
X1350000Y-23950000D01*
X1350000Y-23950000D02*
X2210000Y-23090000D01*
X2210000Y-23090000D02*
X2850000Y-23090000D01*
X3540000Y-18160000D02*
X2900000Y-18160000D01*
X4400000Y-17300000D02*
X3540000Y-18160000D01*
X4400000Y-16500000D02*
X4400000Y-17300000D01*
X2900000Y-16500000D02*
X2900000Y-18160000D01*
X2260000Y-18160000D02*
X2900000Y-18160000D01*
X1400000Y-17300000D02*
X2260000Y-18160000D01*
X1400000Y-16500000D02*
X1400000Y-17300000D01*
X1400000Y-16500000D02*
X1400000Y-17300000D01*
X1400000Y-17300000D02*
X2260000Y-18160000D01*
X2260000Y-18160000D02*
X2900000Y-18160000D01*
X2900000Y-16500000D02*
X2900000Y-18160000D01*
X4400000Y-16500000D02*
X4400000Y-17300000D01*
X4400000Y-17300000D02*
X3540000Y-18160000D01*
X3540000Y-18160000D02*
X2900000Y-18160000D01*
X38190000Y-47890000D02*
X38190000Y-47250000D01*
X39050000Y-48750000D02*
X38190000Y-47890000D01*
X39850000Y-48750000D02*
X39050000Y-48750000D01*
X39850000Y-47250000D02*
X38190000Y-47250000D01*
X38190000Y-46610000D02*
X38190000Y-47250000D01*
X39050000Y-45750000D02*
X38190000Y-46610000D01*
X39850000Y-45750000D02*
X39050000Y-45750000D01*
X39850000Y-45750000D02*
X39050000Y-45750000D01*
X39050000Y-45750000D02*
X38190000Y-46610000D01*
X38190000Y-46610000D02*
X38190000Y-47250000D01*
X39850000Y-47250000D02*
X38190000Y-47250000D01*
X39850000Y-48750000D02*
X39050000Y-48750000D01*
X39050000Y-48750000D02*
X38190000Y-47890000D01*
X38190000Y-47890000D02*
X38190000Y-47250000D01*
X27890000Y-47890000D02*
X27890000Y-47250000D01*
X28750000Y-48750000D02*
X27890000Y-47890000D01*
X29550000Y-48750000D02*
X28750000Y-48750000D01*
X29550000Y-47250000D02*
X27890000Y-47250000D01*
X27890000Y-46610000D02*
X27890000Y-47250000D01*
X28750000Y-45750000D02*
X27890000Y-46610000D01*
X29550000Y-45750000D02*
X28750000Y-45750000D01*
X29550000Y-45750000D02*
X28750000Y-45750000D01*
X28750000Y-45750000D02*
X27890000Y-46610000D01*
X27890000Y-46610000D02*
X27890000Y-47250000D01*
X29550000Y-47250000D02*
X27890000Y-47250000D01*
X29550000Y-48750000D02*
X28750000Y-48750000D01*
X28750000Y-48750000D02*
X27890000Y-47890000D01*
X27890000Y-47890000D02*
X27890000Y-47250000D01*
X33260000Y-46560000D02*
X33260000Y-47200000D01*
X32400000Y-45700000D02*
X33260000Y-46560000D01*
X31600000Y-45700000D02*
X32400000Y-45700000D01*
X31600000Y-47200000D02*
X33260000Y-47200000D01*
X33260000Y-47840000D02*
X33260000Y-47200000D01*
X32400000Y-48700000D02*
X33260000Y-47840000D01*
X31600000Y-48700000D02*
X32400000Y-48700000D01*
X31600000Y-48700000D02*
X32400000Y-48700000D01*
X32400000Y-48700000D02*
X33260000Y-47840000D01*
X33260000Y-47840000D02*
X33260000Y-47200000D01*
X31600000Y-47200000D02*
X33260000Y-47200000D01*
X31600000Y-45700000D02*
X32400000Y-45700000D01*
X32400000Y-45700000D02*
X33260000Y-46560000D01*
X33260000Y-46560000D02*
X33260000Y-47200000D01*
X22960000Y-46560000D02*
X22960000Y-47200000D01*
X22100000Y-45700000D02*
X22960000Y-46560000D01*
X21300000Y-45700000D02*
X22100000Y-45700000D01*
X21300000Y-47200000D02*
X22960000Y-47200000D01*
X22960000Y-47840000D02*
X22960000Y-47200000D01*
X22100000Y-48700000D02*
X22960000Y-47840000D01*
X21300000Y-48700000D02*
X22100000Y-48700000D01*
X28647500Y-20300000D02*
X28647500Y-22300000D01*
X28647500Y-22300000D02*
X28647500Y-24300000D01*
X36700000Y-18147500D02*
X36700000Y-17600000D01*
X36700000Y-17600000D02*
X36000000Y-16900000D01*
X42300000Y-20000000D02*
X42300000Y-19600000D01*
X42300000Y-19600000D02*
X41650000Y-18950000D01*
X40700000Y-18950000D02*
X40050000Y-18950000D01*
X40050000Y-18950000D02*
X38947500Y-20052500D01*
X38947500Y-20052500D02*
X38947500Y-21000000D01*
X40700000Y-18950000D02*
X41650000Y-18950000D01*
X41650000Y-18950000D02*
X42850000Y-18950000D01*
X42850000Y-18950000D02*
X43300000Y-19400000D01*
X38947500Y-7000000D02*
X37500000Y-7000000D01*
X21300000Y-48700000D02*
X22100000Y-48700000D01*
X22100000Y-48700000D02*
X22960000Y-47840000D01*
X22960000Y-47840000D02*
X22960000Y-47200000D01*
X21300000Y-47200000D02*
X22960000Y-47200000D01*
X21300000Y-45700000D02*
X22100000Y-45700000D01*
X22100000Y-45700000D02*
X22960000Y-46560000D01*
X22960000Y-46560000D02*
X22960000Y-47200000D01*
X15100000Y-31147500D02*
X15100000Y-30900000D01*
X15100000Y-30900000D02*
X17000000Y-29000000D01*
X8500000Y-31147500D02*
X8500000Y-28000000D01*
X8500000Y-28000000D02*
X8000000Y-27500000D01*
X8500000Y-31147500D02*
X10700000Y-31147500D01*
X10700000Y-31147500D02*
X12900000Y-31147500D01*
X12900000Y-31147500D02*
X15100000Y-31147500D01*
X40652500Y-13800000D02*
X40400000Y-13547500D01*
X43200000Y-33500000D02*
X41250000Y-33500000D01*
X41250000Y-33500000D02*
X40700000Y-32950000D01*
X40652500Y-27800000D02*
X40400000Y-27547500D01*
D29*
X15800000Y-36300000D02*
X15800000Y-37600000D01*
X15800000Y-37600000D02*
X15600000Y-37800000D01*
X15600000Y-37800000D02*
X15600000Y-44600000D01*
X15600000Y-44600000D02*
X14500000Y-45700000D01*
D27*
X12000000Y-36300000D02*
X8300000Y-36300000D01*
X12000000Y-36300000D02*
X15800000Y-36300000D01*
D26*
X12000000Y-36300000D02*
X12000000Y-33952500D01*
X12000000Y-33952500D02*
X12900000Y-33052500D01*
X15800000Y-36300000D02*
X15800000Y-33752500D01*
X15800000Y-33752500D02*
X15100000Y-33052500D01*
X8300000Y-36300000D02*
X8300000Y-33252500D01*
X8300000Y-33252500D02*
X8500000Y-33052500D01*
X12000000Y-36300000D02*
X12000000Y-34352500D01*
X12000000Y-34352500D02*
X10700000Y-33052500D01*
X8500000Y-33052500D02*
X10700000Y-33052500D01*
X10700000Y-33052500D02*
X12900000Y-33052500D01*
X12900000Y-33052500D02*
X15100000Y-33052500D01*
X34100000Y-22300000D02*
X34452500Y-22300000D01*
X34452500Y-22300000D02*
X36700000Y-20052500D01*
X34100000Y-22300000D02*
X30552500Y-22300000D01*
X30552500Y-20300000D02*
X30552500Y-18705000D01*
X30552500Y-18705000D02*
X30400000Y-18552500D01*
X30552500Y-22300000D02*
X30552500Y-20300000D01*
X30552500Y-24300000D02*
X30552500Y-22300000D01*
X30400000Y-26047500D02*
X30400000Y-24452500D01*
X30400000Y-24452500D02*
X30552500Y-24300000D01*
X30400000Y-16647500D02*
X31847500Y-16647500D01*
X31847500Y-16647500D02*
X33600000Y-18400000D01*
X43500000Y-16300000D02*
X41247500Y-16300000D01*
X41247500Y-16300000D02*
X40400000Y-15452500D01*
X40700000Y-17050000D02*
X40700000Y-15752500D01*
X40700000Y-15752500D02*
X40400000Y-15452500D01*
X37600000Y-8900000D02*
X38947500Y-8900000D01*
X37500000Y-9000000D02*
X37600000Y-8900000D01*
X26500000Y-32447500D02*
X26500000Y-17000000D01*
X32700000Y-10800000D02*
X34000000Y-10800000D01*
X26500000Y-17000000D02*
X32700000Y-10800000D01*
X31552500Y-43400000D02*
X35447500Y-43400000D01*
X35447500Y-43400000D02*
X35600000Y-43552500D01*
X35700000Y-47200000D02*
X35700000Y-43652500D01*
X35700000Y-43652500D02*
X35600000Y-43552500D01*
X25600000Y-43552500D02*
X29495000Y-43552500D01*
X29495000Y-43552500D02*
X29647500Y-43400000D01*
X25500000Y-47200000D02*
X25500000Y-43652500D01*
X25500000Y-43652500D02*
X25600000Y-43552500D01*
X40852500Y-21000000D02*
X45400000Y-21000000D01*
X45900000Y-35000000D02*
X45400000Y-35500000D01*
X45900000Y-21500000D02*
X45900000Y-35000000D01*
X45400000Y-21000000D02*
X45900000Y-21500000D01*
X40852500Y-22900000D02*
X40852500Y-21000000D01*
X40852500Y-7000000D02*
X46100000Y-7000000D01*
X46600000Y-7500000D02*
X46600000Y-39600000D01*
X46100000Y-7000000D02*
X46600000Y-7500000D01*
X40852500Y-8900000D02*
X40852500Y-7000000D01*
X31452500Y-38700000D02*
X31452500Y-37300000D01*
X31452500Y-37300000D02*
X32000000Y-36752500D01*
X31452500Y-38700000D02*
X31452500Y-40402500D01*
X31452500Y-40402500D02*
X32050000Y-41000000D01*
X32050000Y-41000000D02*
X34952500Y-41000000D01*
X34952500Y-41000000D02*
X35600000Y-41647500D01*
X25600000Y-35400000D02*
X26500000Y-34500000D01*
X26500000Y-34500000D02*
X26500000Y-34352500D01*
X26500000Y-34352500D02*
X26952500Y-34352500D01*
X26952500Y-34352500D02*
X27800000Y-35200000D01*
X29547500Y-38700000D02*
X29547500Y-36947500D01*
X29547500Y-36947500D02*
X27800000Y-35200000D01*
X29547500Y-38700000D02*
X29547500Y-40602500D01*
X29547500Y-40602500D02*
X29150000Y-41000000D01*
X29150000Y-41000000D02*
X26247500Y-41000000D01*
X26247500Y-41000000D02*
X25600000Y-41647500D01*
D30*
G36*
X34331583Y-44219346D02*
X34414351Y-44347972D01*
X34394350Y-44377244D01*
X34293227Y-44276120D01*
X34109456Y-44200000D01*
X33585000Y-44200000D01*
X33460000Y-44325000D01*
X33460000Y-46900000D01*
X33480000Y-46900000D01*
X33480000Y-47500000D01*
X33460000Y-47500000D01*
X33460000Y-47520000D01*
X32860000Y-47520000D01*
X32860000Y-47500000D01*
X31935000Y-47500000D01*
X31810000Y-47625000D01*
X31810000Y-49325000D01*
X29390000Y-49325000D01*
X29390000Y-47625000D01*
X29265000Y-47500000D01*
X28340000Y-47500000D01*
X28340000Y-47520000D01*
X27740000Y-47520000D01*
X27740000Y-47500000D01*
X27720000Y-47500000D01*
X27720000Y-46900000D01*
X27740000Y-46900000D01*
X27740000Y-46880000D01*
X28340000Y-46880000D01*
X28340000Y-46900000D01*
X29265000Y-46900000D01*
X29390000Y-46775000D01*
X29390000Y-44710254D01*
X30092000Y-44710254D01*
X30314346Y-44668417D01*
X30518558Y-44537010D01*
X30600248Y-44417453D01*
X30669490Y-44525058D01*
X30869993Y-44662056D01*
X31108000Y-44710254D01*
X31810000Y-44710254D01*
X31810000Y-46775000D01*
X31935000Y-46900000D01*
X32860000Y-46900000D01*
X32860000Y-44325000D01*
X32735000Y-44200000D01*
X32588200Y-44200000D01*
X32593262Y-44175000D01*
X34323239Y-44175000D01*
X34331583Y-44219346D01*
X34331583Y-44219346D01*
G37*
X34331583Y-44219346D02*
X34414351Y-44347972D01*
X34394350Y-44377244D01*
X34293227Y-44276120D01*
X34109456Y-44200000D01*
X33585000Y-44200000D01*
X33460000Y-44325000D01*
X33460000Y-46900000D01*
X33480000Y-46900000D01*
X33480000Y-47500000D01*
X33460000Y-47500000D01*
X33460000Y-47520000D01*
X32860000Y-47520000D01*
X32860000Y-47500000D01*
X31935000Y-47500000D01*
X31810000Y-47625000D01*
X31810000Y-49325000D01*
X29390000Y-49325000D01*
X29390000Y-47625000D01*
X29265000Y-47500000D01*
X28340000Y-47500000D01*
X28340000Y-47520000D01*
X27740000Y-47520000D01*
X27740000Y-47500000D01*
X27720000Y-47500000D01*
X27720000Y-46900000D01*
X27740000Y-46900000D01*
X27740000Y-46880000D01*
X28340000Y-46880000D01*
X28340000Y-46900000D01*
X29265000Y-46900000D01*
X29390000Y-46775000D01*
X29390000Y-44710254D01*
X30092000Y-44710254D01*
X30314346Y-44668417D01*
X30518558Y-44537010D01*
X30600248Y-44417453D01*
X30669490Y-44525058D01*
X30869993Y-44662056D01*
X31108000Y-44710254D01*
X31810000Y-44710254D01*
X31810000Y-46775000D01*
X31935000Y-46900000D01*
X32860000Y-46900000D01*
X32860000Y-44325000D01*
X32735000Y-44200000D01*
X32588200Y-44200000D01*
X32593262Y-44175000D01*
X34323239Y-44175000D01*
X34331583Y-44219346D01*
G36*
X44073480Y-1541698D02*
X43600539Y-2680667D01*
X43599463Y-3913923D01*
X44070415Y-5053715D01*
X44941698Y-5926520D01*
X45660518Y-6225000D01*
X41894360Y-6225000D01*
X41866917Y-6079154D01*
X41735510Y-5874942D01*
X41535007Y-5737944D01*
X41297000Y-5689746D01*
X40408000Y-5689746D01*
X40185654Y-5731583D01*
X39981442Y-5862990D01*
X39844444Y-6063493D01*
X39841215Y-6079439D01*
X39815879Y-6018273D01*
X39675227Y-5877620D01*
X39491456Y-5801500D01*
X39294750Y-5801500D01*
X39169750Y-5926500D01*
X39169750Y-6700000D01*
X39267500Y-6700000D01*
X39267500Y-7300000D01*
X39169750Y-7300000D01*
X39169750Y-7320000D01*
X38725250Y-7320000D01*
X38725250Y-7300000D01*
X38128000Y-7300000D01*
X38003000Y-7425000D01*
X38003000Y-7797956D01*
X38021702Y-7843105D01*
X37939444Y-7963493D01*
X37914003Y-8089125D01*
X37699785Y-8000174D01*
X37301960Y-7999827D01*
X36934286Y-8151747D01*
X36652736Y-8432806D01*
X36500174Y-8800215D01*
X36499827Y-9198040D01*
X36651747Y-9565714D01*
X36932806Y-9847264D01*
X37300215Y-9999826D01*
X37698040Y-10000173D01*
X37974872Y-9885788D01*
X38064490Y-10025058D01*
X38264993Y-10162056D01*
X38503000Y-10210254D01*
X39392000Y-10210254D01*
X39614346Y-10168417D01*
X39818558Y-10037010D01*
X39900248Y-9917453D01*
X39969490Y-10025058D01*
X40169993Y-10162056D01*
X40408000Y-10210254D01*
X41297000Y-10210254D01*
X41519346Y-10168417D01*
X41723558Y-10037010D01*
X41860556Y-9836507D01*
X41908754Y-9598500D01*
X41908754Y-8201500D01*
X41866917Y-7979154D01*
X41849699Y-7952397D01*
X41860556Y-7936507D01*
X41893262Y-7775000D01*
X45778984Y-7775000D01*
X45825000Y-7821016D01*
X45825000Y-20369801D01*
X45696580Y-20283993D01*
X45400000Y-20225000D01*
X41894360Y-20225000D01*
X41866917Y-20079154D01*
X41735510Y-19874942D01*
X41535007Y-19737944D01*
X41480251Y-19726856D01*
X41573880Y-19633227D01*
X41650000Y-19449456D01*
X41650000Y-19275000D01*
X41525000Y-19150000D01*
X40925000Y-19150000D01*
X40925000Y-19270000D01*
X40475000Y-19270000D01*
X40475000Y-19150000D01*
X39875000Y-19150000D01*
X39750000Y-19275000D01*
X39750000Y-19449456D01*
X39826120Y-19633227D01*
X39966773Y-19773879D01*
X40059947Y-19812473D01*
X39981442Y-19862990D01*
X39844444Y-20063493D01*
X39841215Y-20079439D01*
X39815879Y-20018273D01*
X39675227Y-19877620D01*
X39491456Y-19801500D01*
X39294750Y-19801500D01*
X39169750Y-19926500D01*
X39169750Y-20700000D01*
X39267500Y-20700000D01*
X39267500Y-21300000D01*
X39169750Y-21300000D01*
X39169750Y-21320000D01*
X38725250Y-21320000D01*
X38725250Y-21300000D01*
X38128000Y-21300000D01*
X38003000Y-21425000D01*
X38003000Y-21797956D01*
X38021702Y-21843105D01*
X37939444Y-21963493D01*
X37891246Y-22201500D01*
X37891246Y-22812738D01*
X37704068Y-22999916D01*
X37601960Y-22999827D01*
X37234286Y-23151747D01*
X36952736Y-23432806D01*
X36800174Y-23800215D01*
X36799827Y-24198040D01*
X36951747Y-24565714D01*
X37232806Y-24847264D01*
X37600215Y-24999826D01*
X37998040Y-25000173D01*
X38365714Y-24848253D01*
X38647264Y-24567194D01*
X38795479Y-24210254D01*
X39392000Y-24210254D01*
X39614346Y-24168417D01*
X39818558Y-24037010D01*
X39900248Y-23917453D01*
X39969490Y-24025058D01*
X40169993Y-24162056D01*
X40408000Y-24210254D01*
X41297000Y-24210254D01*
X41519346Y-24168417D01*
X41723558Y-24037010D01*
X41860556Y-23836507D01*
X41908754Y-23598500D01*
X41908754Y-22201500D01*
X41866917Y-21979154D01*
X41849699Y-21952397D01*
X41860556Y-21936507D01*
X41893262Y-21775000D01*
X45078984Y-21775000D01*
X45125000Y-21821016D01*
X45125000Y-24755516D01*
X45119124Y-24725975D01*
X44793965Y-24239340D01*
X44307330Y-23914181D01*
X43733305Y-23800000D01*
X43266695Y-23800000D01*
X42692670Y-23914181D01*
X42206035Y-24239340D01*
X41880876Y-24725975D01*
X41766695Y-25300000D01*
X41880876Y-25874025D01*
X42206035Y-26360660D01*
X42594181Y-26620011D01*
X42488853Y-26667717D01*
X42117292Y-27064319D01*
X41996287Y-27289773D01*
X42060797Y-27500000D01*
X43200000Y-27500000D01*
X43200000Y-27480000D01*
X43800000Y-27480000D01*
X43800000Y-27500000D01*
X44939203Y-27500000D01*
X45003713Y-27289773D01*
X44882708Y-27064319D01*
X44511147Y-26667717D01*
X44405819Y-26620011D01*
X44793965Y-26360660D01*
X45119124Y-25874025D01*
X45125000Y-25844484D01*
X45125000Y-29755516D01*
X45119124Y-29725975D01*
X44793965Y-29239340D01*
X44405819Y-28979989D01*
X44511147Y-28932283D01*
X44882708Y-28535681D01*
X45003713Y-28310227D01*
X44939203Y-28100000D01*
X43800000Y-28100000D01*
X43800000Y-28120000D01*
X43200000Y-28120000D01*
X43200000Y-28100000D01*
X42060797Y-28100000D01*
X41996287Y-28310227D01*
X42117292Y-28535681D01*
X42488853Y-28932283D01*
X42594181Y-28979989D01*
X42206035Y-29239340D01*
X42015163Y-29525000D01*
X41710254Y-29525000D01*
X41710254Y-29008000D01*
X41668417Y-28785654D01*
X41537010Y-28581442D01*
X41336507Y-28444444D01*
X41320561Y-28441215D01*
X41381727Y-28415879D01*
X41522380Y-28275227D01*
X41598500Y-28091456D01*
X41598500Y-27894750D01*
X41473500Y-27769750D01*
X40700000Y-27769750D01*
X40700000Y-27867500D01*
X40100000Y-27867500D01*
X40100000Y-27769750D01*
X39326500Y-27769750D01*
X39201500Y-27894750D01*
X39201500Y-28091456D01*
X39277620Y-28275227D01*
X39418273Y-28415879D01*
X39476304Y-28439917D01*
X39274942Y-28569490D01*
X39137944Y-28769993D01*
X39089746Y-29008000D01*
X39089746Y-29897000D01*
X39131583Y-30119346D01*
X39262990Y-30323558D01*
X39463493Y-30460556D01*
X39668214Y-30502013D01*
X39638246Y-30650000D01*
X39638246Y-31250734D01*
X39588510Y-31173442D01*
X39388007Y-31036444D01*
X39150000Y-30988246D01*
X38250000Y-30988246D01*
X38027654Y-31030083D01*
X37823442Y-31161490D01*
X37686444Y-31361993D01*
X37638246Y-31600000D01*
X37638246Y-32400000D01*
X37680083Y-32622346D01*
X37811490Y-32826558D01*
X38011993Y-32963556D01*
X38250000Y-33011754D01*
X39150000Y-33011754D01*
X39372346Y-32969917D01*
X39576558Y-32838510D01*
X39713556Y-32638007D01*
X39750000Y-32458043D01*
X39750000Y-32625000D01*
X39875000Y-32750000D01*
X40475000Y-32750000D01*
X40475000Y-32630000D01*
X40925000Y-32630000D01*
X40925000Y-32750000D01*
X41525000Y-32750000D01*
X41650000Y-32625000D01*
X41650000Y-32450544D01*
X41573880Y-32266773D01*
X41433227Y-32126121D01*
X41249456Y-32050000D01*
X41212468Y-32050000D01*
X41372346Y-32019917D01*
X41576558Y-31888510D01*
X41713556Y-31688007D01*
X41761754Y-31450000D01*
X41761754Y-31075000D01*
X42015163Y-31075000D01*
X42206035Y-31360660D01*
X42692670Y-31685819D01*
X43266695Y-31800000D01*
X43733305Y-31800000D01*
X44307330Y-31685819D01*
X44793965Y-31360660D01*
X45119124Y-30874025D01*
X45125000Y-30844484D01*
X45125000Y-34531626D01*
X44834286Y-34651747D01*
X44552736Y-34932806D01*
X44400174Y-35300215D01*
X44399827Y-35698040D01*
X44551747Y-36065714D01*
X44832806Y-36347264D01*
X45200215Y-36499826D01*
X45598040Y-36500173D01*
X45825000Y-36406395D01*
X45825000Y-38960668D01*
X45752736Y-39032806D01*
X45600174Y-39400215D01*
X45599827Y-39798040D01*
X45751747Y-40165714D01*
X46032806Y-40447264D01*
X46400215Y-40599826D01*
X46798040Y-40600173D01*
X47165714Y-40448253D01*
X47447264Y-40167194D01*
X47599826Y-39799785D01*
X47600173Y-39401960D01*
X47448253Y-39034286D01*
X47375000Y-38960905D01*
X47375000Y-7500005D01*
X47375001Y-7500000D01*
X47316007Y-7203420D01*
X47148008Y-6951992D01*
X46648008Y-6451992D01*
X46570029Y-6399888D01*
X47313923Y-6400537D01*
X48453715Y-5929585D01*
X49325000Y-5059819D01*
X49325000Y-44941692D01*
X48458302Y-44073480D01*
X47319333Y-43600539D01*
X46086077Y-43599463D01*
X44946285Y-44070415D01*
X44073480Y-44941698D01*
X43600539Y-46080667D01*
X43599463Y-47313923D01*
X44070415Y-48453715D01*
X44940181Y-49325000D01*
X39590000Y-49325000D01*
X39590000Y-47625000D01*
X39465000Y-47500000D01*
X38540000Y-47500000D01*
X38540000Y-47520000D01*
X37940000Y-47520000D01*
X37940000Y-47500000D01*
X37920000Y-47500000D01*
X37920000Y-46900000D01*
X37940000Y-46900000D01*
X37940000Y-44325000D01*
X38540000Y-44325000D01*
X38540000Y-46900000D01*
X39465000Y-46900000D01*
X39590000Y-46775000D01*
X39590000Y-44600544D01*
X39513879Y-44416773D01*
X39373227Y-44276120D01*
X39189456Y-44200000D01*
X38665000Y-44200000D01*
X38540000Y-44325000D01*
X37940000Y-44325000D01*
X37815000Y-44200000D01*
X37290544Y-44200000D01*
X37106773Y-44276120D01*
X37005440Y-44377454D01*
X36938510Y-44273442D01*
X36864512Y-44222881D01*
X36910254Y-43997000D01*
X36910254Y-43108000D01*
X36868417Y-42885654D01*
X36737010Y-42681442D01*
X36617453Y-42599752D01*
X36725058Y-42530510D01*
X36862056Y-42330007D01*
X36910254Y-42092000D01*
X36910254Y-41203000D01*
X36868417Y-40980654D01*
X36737010Y-40776442D01*
X36536507Y-40639444D01*
X36298500Y-40591246D01*
X35639762Y-40591246D01*
X35500508Y-40451992D01*
X35249080Y-40283993D01*
X34952500Y-40225000D01*
X33460979Y-40225000D01*
X33407205Y-40094857D01*
X32957511Y-39644377D01*
X32497633Y-39453419D01*
X32508754Y-39398500D01*
X32508754Y-38001500D01*
X32472487Y-37808754D01*
X32698500Y-37808754D01*
X32920846Y-37766917D01*
X33125058Y-37635510D01*
X33262056Y-37435007D01*
X33310254Y-37197000D01*
X33310254Y-36308000D01*
X33268417Y-36085654D01*
X33137010Y-35881442D01*
X33017453Y-35799752D01*
X33125058Y-35730510D01*
X33262056Y-35530007D01*
X33310254Y-35292000D01*
X33310254Y-34403000D01*
X33268417Y-34180654D01*
X33137010Y-33976442D01*
X33136542Y-33976122D01*
X33405623Y-33707511D01*
X33585217Y-33275000D01*
X39750000Y-33275000D01*
X39750000Y-33449456D01*
X39826120Y-33633227D01*
X39966773Y-33773879D01*
X40150544Y-33850000D01*
X40350000Y-33850000D01*
X40475000Y-33725000D01*
X40475000Y-33150000D01*
X40925000Y-33150000D01*
X40925000Y-33725000D01*
X41050000Y-33850000D01*
X41249456Y-33850000D01*
X41433227Y-33773879D01*
X41573880Y-33633227D01*
X41650000Y-33449456D01*
X41650000Y-33275000D01*
X41525000Y-33150000D01*
X40925000Y-33150000D01*
X40475000Y-33150000D01*
X39875000Y-33150000D01*
X39750000Y-33275000D01*
X33585217Y-33275000D01*
X33649722Y-33119656D01*
X33650277Y-32483137D01*
X33595485Y-32350531D01*
X36562041Y-29383975D01*
X36600215Y-29399826D01*
X36998040Y-29400173D01*
X37365714Y-29248253D01*
X37647264Y-28967194D01*
X37799826Y-28599785D01*
X37800173Y-28201960D01*
X37648253Y-27834286D01*
X37367194Y-27552736D01*
X36999785Y-27400174D01*
X36601960Y-27399827D01*
X36234286Y-27551747D01*
X35997332Y-27788288D01*
X35901992Y-27851992D01*
X32499705Y-31254279D01*
X32369656Y-31200278D01*
X31733137Y-31199723D01*
X31144857Y-31442795D01*
X30694377Y-31892489D01*
X30561168Y-32213292D01*
X30539598Y-32161218D01*
X30332261Y-32042003D01*
X29574264Y-32800000D01*
X30332261Y-33557997D01*
X30539598Y-33438782D01*
X30555404Y-33372630D01*
X30692795Y-33705143D01*
X30921672Y-33934420D01*
X30874942Y-33964490D01*
X30737944Y-34164993D01*
X30689746Y-34403000D01*
X30689746Y-35292000D01*
X30731583Y-35514346D01*
X30862990Y-35718558D01*
X30982547Y-35800248D01*
X30874942Y-35869490D01*
X30737944Y-36069993D01*
X30689746Y-36308000D01*
X30689746Y-37197000D01*
X30693752Y-37218293D01*
X30677500Y-37300000D01*
X30677500Y-37501178D01*
X30581442Y-37562990D01*
X30499752Y-37682547D01*
X30430510Y-37574942D01*
X30322500Y-37501142D01*
X30322500Y-36947500D01*
X30263507Y-36650920D01*
X30095508Y-36399492D01*
X27810254Y-34114238D01*
X27810254Y-33982261D01*
X28392003Y-33982261D01*
X28511218Y-34189598D01*
X29091618Y-34328273D01*
X29680907Y-34234281D01*
X29788782Y-34189598D01*
X29907997Y-33982261D01*
X29150000Y-33224264D01*
X28392003Y-33982261D01*
X27810254Y-33982261D01*
X27810254Y-33908000D01*
X27768417Y-33685654D01*
X27637010Y-33481442D01*
X27517453Y-33399752D01*
X27625058Y-33330510D01*
X27698509Y-33223010D01*
X27715719Y-33330907D01*
X27760402Y-33438782D01*
X27967739Y-33557997D01*
X28725736Y-32800000D01*
X27967739Y-32042003D01*
X27810254Y-32132554D01*
X27810254Y-32003000D01*
X27768417Y-31780654D01*
X27663584Y-31617739D01*
X28392003Y-31617739D01*
X29150000Y-32375736D01*
X29907997Y-31617739D01*
X29788782Y-31410402D01*
X29208382Y-31271727D01*
X28619093Y-31365719D01*
X28511218Y-31410402D01*
X28392003Y-31617739D01*
X27663584Y-31617739D01*
X27637010Y-31576442D01*
X27436507Y-31439444D01*
X27275000Y-31406738D01*
X27275000Y-24725000D01*
X27703000Y-24725000D01*
X27703000Y-25097956D01*
X27779121Y-25281727D01*
X27919773Y-25422380D01*
X28103544Y-25498500D01*
X28300250Y-25498500D01*
X28425250Y-25373500D01*
X28425250Y-24600000D01*
X27828000Y-24600000D01*
X27703000Y-24725000D01*
X27275000Y-24725000D01*
X27275000Y-22725000D01*
X27703000Y-22725000D01*
X27703000Y-23097956D01*
X27779121Y-23281727D01*
X27797394Y-23300000D01*
X27779121Y-23318273D01*
X27703000Y-23502044D01*
X27703000Y-23875000D01*
X27828000Y-24000000D01*
X28425250Y-24000000D01*
X28425250Y-22600000D01*
X27828000Y-22600000D01*
X27703000Y-22725000D01*
X27275000Y-22725000D01*
X27275000Y-20725000D01*
X27703000Y-20725000D01*
X27703000Y-21097956D01*
X27779121Y-21281727D01*
X27797394Y-21300000D01*
X27779121Y-21318273D01*
X27703000Y-21502044D01*
X27703000Y-21875000D01*
X27828000Y-22000000D01*
X28425250Y-22000000D01*
X28425250Y-20600000D01*
X27828000Y-20600000D01*
X27703000Y-20725000D01*
X27275000Y-20725000D01*
X27275000Y-19502044D01*
X27703000Y-19502044D01*
X27703000Y-19875000D01*
X27828000Y-20000000D01*
X28425250Y-20000000D01*
X28425250Y-19226500D01*
X28869750Y-19226500D01*
X28869750Y-20000000D01*
X28967500Y-20000000D01*
X28967500Y-20600000D01*
X28869750Y-20600000D01*
X28869750Y-22000000D01*
X28967500Y-22000000D01*
X28967500Y-22600000D01*
X28869750Y-22600000D01*
X28869750Y-24000000D01*
X28967500Y-24000000D01*
X28967500Y-24600000D01*
X28869750Y-24600000D01*
X28869750Y-25373500D01*
X28994750Y-25498500D01*
X29110908Y-25498500D01*
X29089746Y-25603000D01*
X29089746Y-26492000D01*
X29131583Y-26714346D01*
X29262990Y-26918558D01*
X29382547Y-27000248D01*
X29274942Y-27069490D01*
X29137944Y-27269993D01*
X29089746Y-27508000D01*
X29089746Y-28397000D01*
X29131583Y-28619346D01*
X29262990Y-28823558D01*
X29463493Y-28960556D01*
X29701500Y-29008754D01*
X31098500Y-29008754D01*
X31320846Y-28966917D01*
X31525058Y-28835510D01*
X31598858Y-28727500D01*
X31747500Y-28727500D01*
X32044080Y-28668507D01*
X32295508Y-28500508D01*
X32767750Y-28028265D01*
X33180452Y-28199634D01*
X34015883Y-28200363D01*
X34788000Y-27881331D01*
X35379255Y-27291107D01*
X35498661Y-27003544D01*
X39201500Y-27003544D01*
X39201500Y-27200250D01*
X39326500Y-27325250D01*
X40100000Y-27325250D01*
X40100000Y-26728000D01*
X40700000Y-26728000D01*
X40700000Y-27325250D01*
X41473500Y-27325250D01*
X41598500Y-27200250D01*
X41598500Y-27003544D01*
X41522380Y-26819773D01*
X41381727Y-26679121D01*
X41197956Y-26603000D01*
X40825000Y-26603000D01*
X40700000Y-26728000D01*
X40100000Y-26728000D01*
X39975000Y-26603000D01*
X39602044Y-26603000D01*
X39418273Y-26679121D01*
X39277620Y-26819773D01*
X39201500Y-27003544D01*
X35498661Y-27003544D01*
X35699634Y-26519548D01*
X35700363Y-25684117D01*
X35381331Y-24912000D01*
X34791107Y-24320745D01*
X34019548Y-24000366D01*
X33184117Y-23999637D01*
X32412000Y-24318669D01*
X31820745Y-24908893D01*
X31641939Y-25339506D01*
X31564172Y-25218652D01*
X31608754Y-24998500D01*
X31608754Y-23603935D01*
X31973272Y-23847498D01*
X32614267Y-23975000D01*
X35585733Y-23975000D01*
X36226728Y-23847498D01*
X36770137Y-23484404D01*
X37133231Y-22940995D01*
X37260733Y-22300000D01*
X37133231Y-21659005D01*
X36770137Y-21115596D01*
X36759897Y-21108754D01*
X37398500Y-21108754D01*
X37620846Y-21066917D01*
X37825058Y-20935510D01*
X37962056Y-20735007D01*
X38003000Y-20532821D01*
X38003000Y-20575000D01*
X38128000Y-20700000D01*
X38725250Y-20700000D01*
X38725250Y-19926500D01*
X38600250Y-19801500D01*
X38403544Y-19801500D01*
X38219773Y-19877620D01*
X38079121Y-20018273D01*
X38010254Y-20184531D01*
X38010254Y-19608000D01*
X37968417Y-19385654D01*
X37837010Y-19181442D01*
X37636507Y-19044444D01*
X37620561Y-19041215D01*
X37681727Y-19015879D01*
X37822380Y-18875227D01*
X37835690Y-18843093D01*
X38011993Y-18963556D01*
X38250000Y-19011754D01*
X39150000Y-19011754D01*
X39372346Y-18969917D01*
X39576558Y-18838510D01*
X39713556Y-18638007D01*
X39750000Y-18458043D01*
X39750000Y-18625000D01*
X39875000Y-18750000D01*
X40475000Y-18750000D01*
X40475000Y-18630000D01*
X40925000Y-18630000D01*
X40925000Y-18750000D01*
X41525000Y-18750000D01*
X41650000Y-18625000D01*
X41650000Y-18450544D01*
X41573880Y-18266773D01*
X41433227Y-18126121D01*
X41249456Y-18050000D01*
X41212468Y-18050000D01*
X41372346Y-18019917D01*
X41576558Y-17888510D01*
X41713556Y-17688007D01*
X41761754Y-17450000D01*
X41761754Y-17075000D01*
X42015163Y-17075000D01*
X42206035Y-17360660D01*
X42692670Y-17685819D01*
X43266695Y-17800000D01*
X43733305Y-17800000D01*
X44307330Y-17685819D01*
X44793965Y-17360660D01*
X45119124Y-16874025D01*
X45233305Y-16300000D01*
X45119124Y-15725975D01*
X44793965Y-15239340D01*
X44405819Y-14979989D01*
X44511147Y-14932283D01*
X44882708Y-14535681D01*
X45003713Y-14310227D01*
X44939203Y-14100000D01*
X43800000Y-14100000D01*
X43800000Y-14120000D01*
X43200000Y-14120000D01*
X43200000Y-14100000D01*
X42060797Y-14100000D01*
X41996287Y-14310227D01*
X42117292Y-14535681D01*
X42488853Y-14932283D01*
X42594181Y-14979989D01*
X42206035Y-15239340D01*
X42015163Y-15525000D01*
X41710254Y-15525000D01*
X41710254Y-15008000D01*
X41668417Y-14785654D01*
X41537010Y-14581442D01*
X41336507Y-14444444D01*
X41320561Y-14441215D01*
X41381727Y-14415879D01*
X41522380Y-14275227D01*
X41598500Y-14091456D01*
X41598500Y-13894750D01*
X41473500Y-13769750D01*
X40700000Y-13769750D01*
X40700000Y-13867500D01*
X40100000Y-13867500D01*
X40100000Y-13769750D01*
X39326500Y-13769750D01*
X39201500Y-13894750D01*
X39201500Y-14091456D01*
X39277620Y-14275227D01*
X39418273Y-14415879D01*
X39476304Y-14439917D01*
X39274942Y-14569490D01*
X39137944Y-14769993D01*
X39089746Y-15008000D01*
X39089746Y-15897000D01*
X39131583Y-16119346D01*
X39262990Y-16323558D01*
X39463493Y-16460556D01*
X39668214Y-16502013D01*
X39638246Y-16650000D01*
X39638246Y-17250734D01*
X39588510Y-17173442D01*
X39388007Y-17036444D01*
X39150000Y-16988246D01*
X38250000Y-16988246D01*
X38027654Y-17030083D01*
X37823442Y-17161490D01*
X37718169Y-17315562D01*
X37681727Y-17279121D01*
X37497956Y-17203000D01*
X37125000Y-17203000D01*
X37000000Y-17328000D01*
X37000000Y-17925250D01*
X37020000Y-17925250D01*
X37020000Y-18369750D01*
X37000000Y-18369750D01*
X37000000Y-18467500D01*
X36400000Y-18467500D01*
X36400000Y-18369750D01*
X36380000Y-18369750D01*
X36380000Y-17925250D01*
X36400000Y-17925250D01*
X36400000Y-17328000D01*
X36275000Y-17203000D01*
X35902044Y-17203000D01*
X35718273Y-17279121D01*
X35577620Y-17419773D01*
X35522332Y-17553250D01*
X35381331Y-17212000D01*
X34791107Y-16620745D01*
X34019548Y-16300366D01*
X33184117Y-16299637D01*
X32767709Y-16471693D01*
X32395508Y-16099492D01*
X32144080Y-15931493D01*
X31847500Y-15872500D01*
X31598822Y-15872500D01*
X31537010Y-15776442D01*
X31336507Y-15639444D01*
X31098500Y-15591246D01*
X29701500Y-15591246D01*
X29479154Y-15633083D01*
X29274942Y-15764490D01*
X29137944Y-15964993D01*
X29089746Y-16203000D01*
X29089746Y-17092000D01*
X29131583Y-17314346D01*
X29262990Y-17518558D01*
X29382547Y-17600248D01*
X29274942Y-17669490D01*
X29137944Y-17869993D01*
X29089746Y-18108000D01*
X29089746Y-18997000D01*
X29109409Y-19101500D01*
X28994750Y-19101500D01*
X28869750Y-19226500D01*
X28425250Y-19226500D01*
X28300250Y-19101500D01*
X28103544Y-19101500D01*
X27919773Y-19177620D01*
X27779121Y-19318273D01*
X27703000Y-19502044D01*
X27275000Y-19502044D01*
X27275000Y-17321016D01*
X31592472Y-13003544D01*
X39201500Y-13003544D01*
X39201500Y-13200250D01*
X39326500Y-13325250D01*
X40100000Y-13325250D01*
X40100000Y-12728000D01*
X40700000Y-12728000D01*
X40700000Y-13325250D01*
X41473500Y-13325250D01*
X41598500Y-13200250D01*
X41598500Y-13003544D01*
X41522380Y-12819773D01*
X41381727Y-12679121D01*
X41197956Y-12603000D01*
X40825000Y-12603000D01*
X40700000Y-12728000D01*
X40100000Y-12728000D01*
X39975000Y-12603000D01*
X39602044Y-12603000D01*
X39418273Y-12679121D01*
X39277620Y-12819773D01*
X39201500Y-13003544D01*
X31592472Y-13003544D01*
X33021016Y-11575000D01*
X33360668Y-11575000D01*
X33432806Y-11647264D01*
X33800215Y-11799826D01*
X34198040Y-11800173D01*
X34565714Y-11648253D01*
X34847264Y-11367194D01*
X34875165Y-11300000D01*
X41766695Y-11300000D01*
X41880876Y-11874025D01*
X42206035Y-12360660D01*
X42594181Y-12620011D01*
X42488853Y-12667717D01*
X42117292Y-13064319D01*
X41996287Y-13289773D01*
X42060797Y-13500000D01*
X43200000Y-13500000D01*
X43200000Y-13480000D01*
X43800000Y-13480000D01*
X43800000Y-13500000D01*
X44939203Y-13500000D01*
X45003713Y-13289773D01*
X44882708Y-13064319D01*
X44511147Y-12667717D01*
X44405819Y-12620011D01*
X44793965Y-12360660D01*
X45119124Y-11874025D01*
X45233305Y-11300000D01*
X45119124Y-10725975D01*
X44793965Y-10239340D01*
X44307330Y-9914181D01*
X43733305Y-9800000D01*
X43266695Y-9800000D01*
X42692670Y-9914181D01*
X42206035Y-10239340D01*
X41880876Y-10725975D01*
X41766695Y-11300000D01*
X34875165Y-11300000D01*
X34999826Y-10999785D01*
X35000173Y-10601960D01*
X34848253Y-10234286D01*
X34567194Y-9952736D01*
X34199785Y-9800174D01*
X33801960Y-9799827D01*
X33434286Y-9951747D01*
X33360905Y-10025000D01*
X32700000Y-10025000D01*
X32403420Y-10083993D01*
X32151992Y-10251992D01*
X25951992Y-16451992D01*
X25783993Y-16703420D01*
X25725000Y-17000000D01*
X25725000Y-31405640D01*
X25579154Y-31433083D01*
X25374942Y-31564490D01*
X25237944Y-31764993D01*
X25189746Y-32003000D01*
X25189746Y-32892000D01*
X25231583Y-33114346D01*
X25362990Y-33318558D01*
X25482547Y-33400248D01*
X25374942Y-33469490D01*
X25237944Y-33669993D01*
X25189746Y-33908000D01*
X25189746Y-34487512D01*
X25034286Y-34551747D01*
X24752736Y-34832806D01*
X24600174Y-35200215D01*
X24599827Y-35598040D01*
X24751747Y-35965714D01*
X25032806Y-36247264D01*
X25400215Y-36399826D01*
X25798040Y-36400173D01*
X26165714Y-36248253D01*
X26447264Y-35967194D01*
X26599826Y-35599785D01*
X26599916Y-35496100D01*
X26687262Y-35408754D01*
X26912738Y-35408754D01*
X28772500Y-37268516D01*
X28772500Y-37501178D01*
X28676442Y-37562990D01*
X28539444Y-37763493D01*
X28491246Y-38001500D01*
X28491246Y-39398500D01*
X28516123Y-39530710D01*
X28244857Y-39642795D01*
X27794377Y-40092489D01*
X27739354Y-40225000D01*
X26247500Y-40225000D01*
X25950920Y-40283993D01*
X25699492Y-40451992D01*
X25560238Y-40591246D01*
X24901500Y-40591246D01*
X24679154Y-40633083D01*
X24474942Y-40764490D01*
X24337944Y-40964993D01*
X24289746Y-41203000D01*
X24289746Y-42092000D01*
X24331583Y-42314346D01*
X24462990Y-42518558D01*
X24582547Y-42600248D01*
X24474942Y-42669490D01*
X24337944Y-42869993D01*
X24289746Y-43108000D01*
X24289746Y-43997000D01*
X24331583Y-44219346D01*
X24333736Y-44222692D01*
X24273442Y-44261490D01*
X24194350Y-44377244D01*
X24093227Y-44276120D01*
X23909456Y-44200000D01*
X23385000Y-44200000D01*
X23260000Y-44325000D01*
X23260000Y-46900000D01*
X23280000Y-46900000D01*
X23280000Y-47500000D01*
X23260000Y-47500000D01*
X23260000Y-47520000D01*
X22660000Y-47520000D01*
X22660000Y-47500000D01*
X21735000Y-47500000D01*
X21610000Y-47625000D01*
X21610000Y-49325000D01*
X5058308Y-49325000D01*
X5926520Y-48458302D01*
X6399461Y-47319333D01*
X6399842Y-46882261D01*
X8742003Y-46882261D01*
X8861218Y-47089598D01*
X9441618Y-47228273D01*
X10030907Y-47134281D01*
X10138782Y-47089598D01*
X10257997Y-46882261D01*
X9500000Y-46124264D01*
X8742003Y-46882261D01*
X6399842Y-46882261D01*
X6400537Y-46086077D01*
X6216891Y-45641618D01*
X7971727Y-45641618D01*
X8065719Y-46230907D01*
X8110402Y-46338782D01*
X8317739Y-46457997D01*
X9075736Y-45700000D01*
X9924264Y-45700000D01*
X10682261Y-46457997D01*
X10889598Y-46338782D01*
X11028273Y-45758382D01*
X10934281Y-45169093D01*
X10889598Y-45061218D01*
X10682261Y-44942003D01*
X9924264Y-45700000D01*
X9075736Y-45700000D01*
X8317739Y-44942003D01*
X8110402Y-45061218D01*
X7971727Y-45641618D01*
X6216891Y-45641618D01*
X5929585Y-44946285D01*
X5501787Y-44517739D01*
X8742003Y-44517739D01*
X9500000Y-45275736D01*
X10257997Y-44517739D01*
X10138782Y-44310402D01*
X9730981Y-44212966D01*
X10511298Y-44212966D01*
X10754866Y-44524170D01*
X11700800Y-44831357D01*
X12692284Y-44753168D01*
X13245134Y-44524170D01*
X13488702Y-44212966D01*
X12000000Y-42724264D01*
X10511298Y-44212966D01*
X9730981Y-44212966D01*
X9558382Y-44171727D01*
X8969093Y-44265719D01*
X8861218Y-44310402D01*
X8742003Y-44517739D01*
X5501787Y-44517739D01*
X5058302Y-44073480D01*
X3919333Y-43600539D01*
X2686077Y-43599463D01*
X1546285Y-44070415D01*
X675000Y-44940181D01*
X675000Y-42000800D01*
X9468643Y-42000800D01*
X9546832Y-42992284D01*
X9775830Y-43545134D01*
X10087034Y-43788702D01*
X11575736Y-42300000D01*
X10087034Y-40811298D01*
X9775830Y-41054866D01*
X9468643Y-42000800D01*
X675000Y-42000800D01*
X675000Y-40387034D01*
X10511298Y-40387034D01*
X12000000Y-41875736D01*
X13488702Y-40387034D01*
X13245134Y-40075830D01*
X12299200Y-39768643D01*
X11307716Y-39846832D01*
X10754866Y-40075830D01*
X10511298Y-40387034D01*
X675000Y-40387034D01*
X675000Y-36300000D01*
X6700000Y-36300000D01*
X6821793Y-36912293D01*
X7168629Y-37431371D01*
X7687707Y-37778207D01*
X8300000Y-37900000D01*
X9577403Y-37900000D01*
X9582479Y-37912286D01*
X10383497Y-38714704D01*
X11430613Y-39149504D01*
X12564413Y-39150494D01*
X13612286Y-38717521D01*
X14250000Y-38080920D01*
X14250000Y-41117225D01*
X14224170Y-41054866D01*
X13912966Y-40811298D01*
X12424264Y-42300000D01*
X13912966Y-43788702D01*
X14224170Y-43545134D01*
X14250000Y-43465595D01*
X14250000Y-44040812D01*
X14191082Y-44099730D01*
X14183137Y-44099723D01*
X13594857Y-44342795D01*
X13144377Y-44792489D01*
X12900278Y-45380344D01*
X12899723Y-46016863D01*
X13142795Y-46605143D01*
X13592489Y-47055623D01*
X14180344Y-47299722D01*
X14816863Y-47300277D01*
X15405143Y-47057205D01*
X15855623Y-46607511D01*
X16099722Y-46019656D01*
X16099731Y-46009457D01*
X16554594Y-45554594D01*
X16740921Y-45275736D01*
X16847237Y-45116623D01*
X16949891Y-44600544D01*
X21610000Y-44600544D01*
X21610000Y-46775000D01*
X21735000Y-46900000D01*
X22660000Y-46900000D01*
X22660000Y-44325000D01*
X22535000Y-44200000D01*
X22010544Y-44200000D01*
X21826773Y-44276120D01*
X21686121Y-44416773D01*
X21610000Y-44600544D01*
X16949891Y-44600544D01*
X16950000Y-44600000D01*
X16950000Y-38262149D01*
X17047238Y-38116622D01*
X17150000Y-37600000D01*
X17150000Y-37104169D01*
X17278207Y-36912293D01*
X17400000Y-36300000D01*
X17278207Y-35687707D01*
X16931371Y-35168629D01*
X16575000Y-34930510D01*
X16575000Y-33752500D01*
X16516007Y-33455920D01*
X16410254Y-33297650D01*
X16410254Y-32608000D01*
X16368417Y-32385654D01*
X16237010Y-32181442D01*
X16036507Y-32044444D01*
X16020561Y-32041215D01*
X16081727Y-32015879D01*
X16222380Y-31875227D01*
X16298500Y-31691456D01*
X16298500Y-31494750D01*
X16173500Y-31369750D01*
X15400000Y-31369750D01*
X15400000Y-31467500D01*
X14800000Y-31467500D01*
X14800000Y-31369750D01*
X14026500Y-31369750D01*
X14000000Y-31396250D01*
X13973500Y-31369750D01*
X13200000Y-31369750D01*
X13200000Y-31467500D01*
X12600000Y-31467500D01*
X12600000Y-31369750D01*
X11826500Y-31369750D01*
X11800000Y-31396250D01*
X11773500Y-31369750D01*
X11000000Y-31369750D01*
X11000000Y-31467500D01*
X10400000Y-31467500D01*
X10400000Y-31369750D01*
X9626500Y-31369750D01*
X9600000Y-31396250D01*
X9573500Y-31369750D01*
X8800000Y-31369750D01*
X8800000Y-31467500D01*
X8200000Y-31467500D01*
X8200000Y-31369750D01*
X7426500Y-31369750D01*
X7301500Y-31494750D01*
X7301500Y-31691456D01*
X7377620Y-31875227D01*
X7518273Y-32015879D01*
X7576304Y-32039917D01*
X7374942Y-32169490D01*
X7237944Y-32369993D01*
X7189746Y-32608000D01*
X7189746Y-33497000D01*
X7231583Y-33719346D01*
X7362990Y-33923558D01*
X7525000Y-34034255D01*
X7525000Y-34930510D01*
X7168629Y-35168629D01*
X6821793Y-35687707D01*
X6700000Y-36300000D01*
X675000Y-36300000D01*
X675000Y-30603544D01*
X7301500Y-30603544D01*
X7301500Y-30800250D01*
X7426500Y-30925250D01*
X8200000Y-30925250D01*
X8200000Y-30328000D01*
X8800000Y-30328000D01*
X8800000Y-30925250D01*
X9573500Y-30925250D01*
X9600000Y-30898750D01*
X9626500Y-30925250D01*
X10400000Y-30925250D01*
X10400000Y-30328000D01*
X11000000Y-30328000D01*
X11000000Y-30925250D01*
X11773500Y-30925250D01*
X11800000Y-30898750D01*
X11826500Y-30925250D01*
X12600000Y-30925250D01*
X12600000Y-30328000D01*
X13200000Y-30328000D01*
X13200000Y-30925250D01*
X13973500Y-30925250D01*
X14000000Y-30898750D01*
X14026500Y-30925250D01*
X14800000Y-30925250D01*
X14800000Y-30328000D01*
X15400000Y-30328000D01*
X15400000Y-30925250D01*
X16173500Y-30925250D01*
X16298500Y-30800250D01*
X16298500Y-30603544D01*
X16222380Y-30419773D01*
X16081727Y-30279121D01*
X15897956Y-30203000D01*
X15525000Y-30203000D01*
X15400000Y-30328000D01*
X14800000Y-30328000D01*
X14675000Y-30203000D01*
X14302044Y-30203000D01*
X14118273Y-30279121D01*
X14000000Y-30397393D01*
X13881727Y-30279121D01*
X13697956Y-30203000D01*
X13325000Y-30203000D01*
X13200000Y-30328000D01*
X12600000Y-30328000D01*
X12475000Y-30203000D01*
X12102044Y-30203000D01*
X11918273Y-30279121D01*
X11800000Y-30397393D01*
X11681727Y-30279121D01*
X11497956Y-30203000D01*
X11125000Y-30203000D01*
X11000000Y-30328000D01*
X10400000Y-30328000D01*
X10275000Y-30203000D01*
X9902044Y-30203000D01*
X9718273Y-30279121D01*
X9600000Y-30397393D01*
X9481727Y-30279121D01*
X9297956Y-30203000D01*
X8925000Y-30203000D01*
X8800000Y-30328000D01*
X8200000Y-30328000D01*
X8075000Y-30203000D01*
X7702044Y-30203000D01*
X7518273Y-30279121D01*
X7377620Y-30419773D01*
X7301500Y-30603544D01*
X675000Y-30603544D01*
X675000Y-25550883D01*
X14649637Y-25550883D01*
X14968669Y-26323000D01*
X15558893Y-26914255D01*
X16330452Y-27234634D01*
X17165883Y-27235363D01*
X17938000Y-26916331D01*
X18529255Y-26326107D01*
X18849634Y-25554548D01*
X18850363Y-24719117D01*
X18531331Y-23947000D01*
X17941107Y-23355745D01*
X17169548Y-23035366D01*
X16334117Y-23034637D01*
X15562000Y-23353669D01*
X14970745Y-23943893D01*
X14650366Y-24715452D01*
X14649637Y-25550883D01*
X675000Y-25550883D01*
X675000Y-24490000D01*
X2275000Y-24490000D01*
X2400000Y-24365000D01*
X2400000Y-23440000D01*
X3000000Y-23440000D01*
X3000000Y-24365000D01*
X3125000Y-24490000D01*
X5299456Y-24490000D01*
X5483227Y-24413879D01*
X5623880Y-24273227D01*
X5700000Y-24089456D01*
X5700000Y-23565000D01*
X5575000Y-23440000D01*
X3000000Y-23440000D01*
X2400000Y-23440000D01*
X2380000Y-23440000D01*
X2380000Y-22840000D01*
X2400000Y-22840000D01*
X2400000Y-21915000D01*
X3000000Y-21915000D01*
X3000000Y-22840000D01*
X5575000Y-22840000D01*
X5700000Y-22715000D01*
X5700000Y-22190544D01*
X5623880Y-22006773D01*
X5483227Y-21866121D01*
X5299456Y-21790000D01*
X3125000Y-21790000D01*
X3000000Y-21915000D01*
X2400000Y-21915000D01*
X2275000Y-21790000D01*
X675000Y-21790000D01*
X675000Y-20983936D01*
X15625328Y-20983936D01*
X15807146Y-21243118D01*
X16570854Y-21466298D01*
X17361834Y-21380231D01*
X17692854Y-21243118D01*
X17874672Y-20983936D01*
X16750000Y-19859264D01*
X15625328Y-20983936D01*
X675000Y-20983936D01*
X675000Y-19410000D01*
X2275000Y-19410000D01*
X2400000Y-19285000D01*
X2400000Y-18360000D01*
X3000000Y-18360000D01*
X3000000Y-19285000D01*
X3125000Y-19410000D01*
X5299456Y-19410000D01*
X5483227Y-19333879D01*
X5561252Y-19255854D01*
X14718702Y-19255854D01*
X14804769Y-20046834D01*
X14941882Y-20377854D01*
X15201064Y-20559672D01*
X16325736Y-19435000D01*
X17174264Y-19435000D01*
X18298936Y-20559672D01*
X18558118Y-20377854D01*
X18781298Y-19614146D01*
X18695231Y-18823166D01*
X18558118Y-18492146D01*
X18298936Y-18310328D01*
X17174264Y-19435000D01*
X16325736Y-19435000D01*
X15201064Y-18310328D01*
X14941882Y-18492146D01*
X14718702Y-19255854D01*
X5561252Y-19255854D01*
X5623880Y-19193227D01*
X5700000Y-19009456D01*
X5700000Y-18485000D01*
X5575000Y-18360000D01*
X3000000Y-18360000D01*
X2400000Y-18360000D01*
X2380000Y-18360000D01*
X2380000Y-17886064D01*
X15625328Y-17886064D01*
X16750000Y-19010736D01*
X17874672Y-17886064D01*
X17692854Y-17626882D01*
X16929146Y-17403702D01*
X16138166Y-17489769D01*
X15807146Y-17626882D01*
X15625328Y-17886064D01*
X2380000Y-17886064D01*
X2380000Y-17760000D01*
X2400000Y-17760000D01*
X2400000Y-16835000D01*
X3000000Y-16835000D01*
X3000000Y-17760000D01*
X5575000Y-17760000D01*
X5700000Y-17635000D01*
X5700000Y-17110544D01*
X5623880Y-16926773D01*
X5483227Y-16786121D01*
X5299456Y-16710000D01*
X3125000Y-16710000D01*
X3000000Y-16835000D01*
X2400000Y-16835000D01*
X2275000Y-16710000D01*
X675000Y-16710000D01*
X675000Y-14237647D01*
X10199793Y-14237647D01*
X10382097Y-14678857D01*
X10719367Y-15016717D01*
X11160258Y-15199791D01*
X11637647Y-15200207D01*
X12078857Y-15017903D01*
X12300090Y-14797056D01*
X12519367Y-15016717D01*
X12960258Y-15199791D01*
X13437647Y-15200207D01*
X13878857Y-15017903D01*
X14100090Y-14797056D01*
X14319367Y-15016717D01*
X14760258Y-15199791D01*
X15237647Y-15200207D01*
X15678857Y-15017903D01*
X16016717Y-14680633D01*
X16199791Y-14239742D01*
X16200207Y-13762353D01*
X16017903Y-13321143D01*
X15680633Y-12983283D01*
X15239742Y-12800209D01*
X14762353Y-12799793D01*
X14321143Y-12982097D01*
X14099910Y-13202944D01*
X13880633Y-12983283D01*
X13439742Y-12800209D01*
X12962353Y-12799793D01*
X12521143Y-12982097D01*
X12299910Y-13202944D01*
X12080633Y-12983283D01*
X11639742Y-12800209D01*
X11162353Y-12799793D01*
X10721143Y-12982097D01*
X10383283Y-13319367D01*
X10200209Y-13760258D01*
X10199793Y-14237647D01*
X675000Y-14237647D01*
X675000Y-5058308D01*
X1541698Y-5926520D01*
X2680667Y-6399461D01*
X3913923Y-6400537D01*
X4394313Y-6202044D01*
X38003000Y-6202044D01*
X38003000Y-6575000D01*
X38128000Y-6700000D01*
X38725250Y-6700000D01*
X38725250Y-5926500D01*
X38600250Y-5801500D01*
X38403544Y-5801500D01*
X38219773Y-5877620D01*
X38079121Y-6018273D01*
X38003000Y-6202044D01*
X4394313Y-6202044D01*
X5053715Y-5929585D01*
X5926520Y-5058302D01*
X6399461Y-3919333D01*
X6400537Y-2686077D01*
X5929585Y-1546285D01*
X5059819Y-675000D01*
X44941692Y-675000D01*
X44073480Y-1541698D01*
X44073480Y-1541698D01*
G37*
X44073480Y-1541698D02*
X43600539Y-2680667D01*
X43599463Y-3913923D01*
X44070415Y-5053715D01*
X44941698Y-5926520D01*
X45660518Y-6225000D01*
X41894360Y-6225000D01*
X41866917Y-6079154D01*
X41735510Y-5874942D01*
X41535007Y-5737944D01*
X41297000Y-5689746D01*
X40408000Y-5689746D01*
X40185654Y-5731583D01*
X39981442Y-5862990D01*
X39844444Y-6063493D01*
X39841215Y-6079439D01*
X39815879Y-6018273D01*
X39675227Y-5877620D01*
X39491456Y-5801500D01*
X39294750Y-5801500D01*
X39169750Y-5926500D01*
X39169750Y-6700000D01*
X39267500Y-6700000D01*
X39267500Y-7300000D01*
X39169750Y-7300000D01*
X39169750Y-7320000D01*
X38725250Y-7320000D01*
X38725250Y-7300000D01*
X38128000Y-7300000D01*
X38003000Y-7425000D01*
X38003000Y-7797956D01*
X38021702Y-7843105D01*
X37939444Y-7963493D01*
X37914003Y-8089125D01*
X37699785Y-8000174D01*
X37301960Y-7999827D01*
X36934286Y-8151747D01*
X36652736Y-8432806D01*
X36500174Y-8800215D01*
X36499827Y-9198040D01*
X36651747Y-9565714D01*
X36932806Y-9847264D01*
X37300215Y-9999826D01*
X37698040Y-10000173D01*
X37974872Y-9885788D01*
X38064490Y-10025058D01*
X38264993Y-10162056D01*
X38503000Y-10210254D01*
X39392000Y-10210254D01*
X39614346Y-10168417D01*
X39818558Y-10037010D01*
X39900248Y-9917453D01*
X39969490Y-10025058D01*
X40169993Y-10162056D01*
X40408000Y-10210254D01*
X41297000Y-10210254D01*
X41519346Y-10168417D01*
X41723558Y-10037010D01*
X41860556Y-9836507D01*
X41908754Y-9598500D01*
X41908754Y-8201500D01*
X41866917Y-7979154D01*
X41849699Y-7952397D01*
X41860556Y-7936507D01*
X41893262Y-7775000D01*
X45778984Y-7775000D01*
X45825000Y-7821016D01*
X45825000Y-20369801D01*
X45696580Y-20283993D01*
X45400000Y-20225000D01*
X41894360Y-20225000D01*
X41866917Y-20079154D01*
X41735510Y-19874942D01*
X41535007Y-19737944D01*
X41480251Y-19726856D01*
X41573880Y-19633227D01*
X41650000Y-19449456D01*
X41650000Y-19275000D01*
X41525000Y-19150000D01*
X40925000Y-19150000D01*
X40925000Y-19270000D01*
X40475000Y-19270000D01*
X40475000Y-19150000D01*
X39875000Y-19150000D01*
X39750000Y-19275000D01*
X39750000Y-19449456D01*
X39826120Y-19633227D01*
X39966773Y-19773879D01*
X40059947Y-19812473D01*
X39981442Y-19862990D01*
X39844444Y-20063493D01*
X39841215Y-20079439D01*
X39815879Y-20018273D01*
X39675227Y-19877620D01*
X39491456Y-19801500D01*
X39294750Y-19801500D01*
X39169750Y-19926500D01*
X39169750Y-20700000D01*
X39267500Y-20700000D01*
X39267500Y-21300000D01*
X39169750Y-21300000D01*
X39169750Y-21320000D01*
X38725250Y-21320000D01*
X38725250Y-21300000D01*
X38128000Y-21300000D01*
X38003000Y-21425000D01*
X38003000Y-21797956D01*
X38021702Y-21843105D01*
X37939444Y-21963493D01*
X37891246Y-22201500D01*
X37891246Y-22812738D01*
X37704068Y-22999916D01*
X37601960Y-22999827D01*
X37234286Y-23151747D01*
X36952736Y-23432806D01*
X36800174Y-23800215D01*
X36799827Y-24198040D01*
X36951747Y-24565714D01*
X37232806Y-24847264D01*
X37600215Y-24999826D01*
X37998040Y-25000173D01*
X38365714Y-24848253D01*
X38647264Y-24567194D01*
X38795479Y-24210254D01*
X39392000Y-24210254D01*
X39614346Y-24168417D01*
X39818558Y-24037010D01*
X39900248Y-23917453D01*
X39969490Y-24025058D01*
X40169993Y-24162056D01*
X40408000Y-24210254D01*
X41297000Y-24210254D01*
X41519346Y-24168417D01*
X41723558Y-24037010D01*
X41860556Y-23836507D01*
X41908754Y-23598500D01*
X41908754Y-22201500D01*
X41866917Y-21979154D01*
X41849699Y-21952397D01*
X41860556Y-21936507D01*
X41893262Y-21775000D01*
X45078984Y-21775000D01*
X45125000Y-21821016D01*
X45125000Y-24755516D01*
X45119124Y-24725975D01*
X44793965Y-24239340D01*
X44307330Y-23914181D01*
X43733305Y-23800000D01*
X43266695Y-23800000D01*
X42692670Y-23914181D01*
X42206035Y-24239340D01*
X41880876Y-24725975D01*
X41766695Y-25300000D01*
X41880876Y-25874025D01*
X42206035Y-26360660D01*
X42594181Y-26620011D01*
X42488853Y-26667717D01*
X42117292Y-27064319D01*
X41996287Y-27289773D01*
X42060797Y-27500000D01*
X43200000Y-27500000D01*
X43200000Y-27480000D01*
X43800000Y-27480000D01*
X43800000Y-27500000D01*
X44939203Y-27500000D01*
X45003713Y-27289773D01*
X44882708Y-27064319D01*
X44511147Y-26667717D01*
X44405819Y-26620011D01*
X44793965Y-26360660D01*
X45119124Y-25874025D01*
X45125000Y-25844484D01*
X45125000Y-29755516D01*
X45119124Y-29725975D01*
X44793965Y-29239340D01*
X44405819Y-28979989D01*
X44511147Y-28932283D01*
X44882708Y-28535681D01*
X45003713Y-28310227D01*
X44939203Y-28100000D01*
X43800000Y-28100000D01*
X43800000Y-28120000D01*
X43200000Y-28120000D01*
X43200000Y-28100000D01*
X42060797Y-28100000D01*
X41996287Y-28310227D01*
X42117292Y-28535681D01*
X42488853Y-28932283D01*
X42594181Y-28979989D01*
X42206035Y-29239340D01*
X42015163Y-29525000D01*
X41710254Y-29525000D01*
X41710254Y-29008000D01*
X41668417Y-28785654D01*
X41537010Y-28581442D01*
X41336507Y-28444444D01*
X41320561Y-28441215D01*
X41381727Y-28415879D01*
X41522380Y-28275227D01*
X41598500Y-28091456D01*
X41598500Y-27894750D01*
X41473500Y-27769750D01*
X40700000Y-27769750D01*
X40700000Y-27867500D01*
X40100000Y-27867500D01*
X40100000Y-27769750D01*
X39326500Y-27769750D01*
X39201500Y-27894750D01*
X39201500Y-28091456D01*
X39277620Y-28275227D01*
X39418273Y-28415879D01*
X39476304Y-28439917D01*
X39274942Y-28569490D01*
X39137944Y-28769993D01*
X39089746Y-29008000D01*
X39089746Y-29897000D01*
X39131583Y-30119346D01*
X39262990Y-30323558D01*
X39463493Y-30460556D01*
X39668214Y-30502013D01*
X39638246Y-30650000D01*
X39638246Y-31250734D01*
X39588510Y-31173442D01*
X39388007Y-31036444D01*
X39150000Y-30988246D01*
X38250000Y-30988246D01*
X38027654Y-31030083D01*
X37823442Y-31161490D01*
X37686444Y-31361993D01*
X37638246Y-31600000D01*
X37638246Y-32400000D01*
X37680083Y-32622346D01*
X37811490Y-32826558D01*
X38011993Y-32963556D01*
X38250000Y-33011754D01*
X39150000Y-33011754D01*
X39372346Y-32969917D01*
X39576558Y-32838510D01*
X39713556Y-32638007D01*
X39750000Y-32458043D01*
X39750000Y-32625000D01*
X39875000Y-32750000D01*
X40475000Y-32750000D01*
X40475000Y-32630000D01*
X40925000Y-32630000D01*
X40925000Y-32750000D01*
X41525000Y-32750000D01*
X41650000Y-32625000D01*
X41650000Y-32450544D01*
X41573880Y-32266773D01*
X41433227Y-32126121D01*
X41249456Y-32050000D01*
X41212468Y-32050000D01*
X41372346Y-32019917D01*
X41576558Y-31888510D01*
X41713556Y-31688007D01*
X41761754Y-31450000D01*
X41761754Y-31075000D01*
X42015163Y-31075000D01*
X42206035Y-31360660D01*
X42692670Y-31685819D01*
X43266695Y-31800000D01*
X43733305Y-31800000D01*
X44307330Y-31685819D01*
X44793965Y-31360660D01*
X45119124Y-30874025D01*
X45125000Y-30844484D01*
X45125000Y-34531626D01*
X44834286Y-34651747D01*
X44552736Y-34932806D01*
X44400174Y-35300215D01*
X44399827Y-35698040D01*
X44551747Y-36065714D01*
X44832806Y-36347264D01*
X45200215Y-36499826D01*
X45598040Y-36500173D01*
X45825000Y-36406395D01*
X45825000Y-38960668D01*
X45752736Y-39032806D01*
X45600174Y-39400215D01*
X45599827Y-39798040D01*
X45751747Y-40165714D01*
X46032806Y-40447264D01*
X46400215Y-40599826D01*
X46798040Y-40600173D01*
X47165714Y-40448253D01*
X47447264Y-40167194D01*
X47599826Y-39799785D01*
X47600173Y-39401960D01*
X47448253Y-39034286D01*
X47375000Y-38960905D01*
X47375000Y-7500005D01*
X47375001Y-7500000D01*
X47316007Y-7203420D01*
X47148008Y-6951992D01*
X46648008Y-6451992D01*
X46570029Y-6399888D01*
X47313923Y-6400537D01*
X48453715Y-5929585D01*
X49325000Y-5059819D01*
X49325000Y-44941692D01*
X48458302Y-44073480D01*
X47319333Y-43600539D01*
X46086077Y-43599463D01*
X44946285Y-44070415D01*
X44073480Y-44941698D01*
X43600539Y-46080667D01*
X43599463Y-47313923D01*
X44070415Y-48453715D01*
X44940181Y-49325000D01*
X39590000Y-49325000D01*
X39590000Y-47625000D01*
X39465000Y-47500000D01*
X38540000Y-47500000D01*
X38540000Y-47520000D01*
X37940000Y-47520000D01*
X37940000Y-47500000D01*
X37920000Y-47500000D01*
X37920000Y-46900000D01*
X37940000Y-46900000D01*
X37940000Y-44325000D01*
X38540000Y-44325000D01*
X38540000Y-46900000D01*
X39465000Y-46900000D01*
X39590000Y-46775000D01*
X39590000Y-44600544D01*
X39513879Y-44416773D01*
X39373227Y-44276120D01*
X39189456Y-44200000D01*
X38665000Y-44200000D01*
X38540000Y-44325000D01*
X37940000Y-44325000D01*
X37815000Y-44200000D01*
X37290544Y-44200000D01*
X37106773Y-44276120D01*
X37005440Y-44377454D01*
X36938510Y-44273442D01*
X36864512Y-44222881D01*
X36910254Y-43997000D01*
X36910254Y-43108000D01*
X36868417Y-42885654D01*
X36737010Y-42681442D01*
X36617453Y-42599752D01*
X36725058Y-42530510D01*
X36862056Y-42330007D01*
X36910254Y-42092000D01*
X36910254Y-41203000D01*
X36868417Y-40980654D01*
X36737010Y-40776442D01*
X36536507Y-40639444D01*
X36298500Y-40591246D01*
X35639762Y-40591246D01*
X35500508Y-40451992D01*
X35249080Y-40283993D01*
X34952500Y-40225000D01*
X33460979Y-40225000D01*
X33407205Y-40094857D01*
X32957511Y-39644377D01*
X32497633Y-39453419D01*
X32508754Y-39398500D01*
X32508754Y-38001500D01*
X32472487Y-37808754D01*
X32698500Y-37808754D01*
X32920846Y-37766917D01*
X33125058Y-37635510D01*
X33262056Y-37435007D01*
X33310254Y-37197000D01*
X33310254Y-36308000D01*
X33268417Y-36085654D01*
X33137010Y-35881442D01*
X33017453Y-35799752D01*
X33125058Y-35730510D01*
X33262056Y-35530007D01*
X33310254Y-35292000D01*
X33310254Y-34403000D01*
X33268417Y-34180654D01*
X33137010Y-33976442D01*
X33136542Y-33976122D01*
X33405623Y-33707511D01*
X33585217Y-33275000D01*
X39750000Y-33275000D01*
X39750000Y-33449456D01*
X39826120Y-33633227D01*
X39966773Y-33773879D01*
X40150544Y-33850000D01*
X40350000Y-33850000D01*
X40475000Y-33725000D01*
X40475000Y-33150000D01*
X40925000Y-33150000D01*
X40925000Y-33725000D01*
X41050000Y-33850000D01*
X41249456Y-33850000D01*
X41433227Y-33773879D01*
X41573880Y-33633227D01*
X41650000Y-33449456D01*
X41650000Y-33275000D01*
X41525000Y-33150000D01*
X40925000Y-33150000D01*
X40475000Y-33150000D01*
X39875000Y-33150000D01*
X39750000Y-33275000D01*
X33585217Y-33275000D01*
X33649722Y-33119656D01*
X33650277Y-32483137D01*
X33595485Y-32350531D01*
X36562041Y-29383975D01*
X36600215Y-29399826D01*
X36998040Y-29400173D01*
X37365714Y-29248253D01*
X37647264Y-28967194D01*
X37799826Y-28599785D01*
X37800173Y-28201960D01*
X37648253Y-27834286D01*
X37367194Y-27552736D01*
X36999785Y-27400174D01*
X36601960Y-27399827D01*
X36234286Y-27551747D01*
X35997332Y-27788288D01*
X35901992Y-27851992D01*
X32499705Y-31254279D01*
X32369656Y-31200278D01*
X31733137Y-31199723D01*
X31144857Y-31442795D01*
X30694377Y-31892489D01*
X30561168Y-32213292D01*
X30539598Y-32161218D01*
X30332261Y-32042003D01*
X29574264Y-32800000D01*
X30332261Y-33557997D01*
X30539598Y-33438782D01*
X30555404Y-33372630D01*
X30692795Y-33705143D01*
X30921672Y-33934420D01*
X30874942Y-33964490D01*
X30737944Y-34164993D01*
X30689746Y-34403000D01*
X30689746Y-35292000D01*
X30731583Y-35514346D01*
X30862990Y-35718558D01*
X30982547Y-35800248D01*
X30874942Y-35869490D01*
X30737944Y-36069993D01*
X30689746Y-36308000D01*
X30689746Y-37197000D01*
X30693752Y-37218293D01*
X30677500Y-37300000D01*
X30677500Y-37501178D01*
X30581442Y-37562990D01*
X30499752Y-37682547D01*
X30430510Y-37574942D01*
X30322500Y-37501142D01*
X30322500Y-36947500D01*
X30263507Y-36650920D01*
X30095508Y-36399492D01*
X27810254Y-34114238D01*
X27810254Y-33982261D01*
X28392003Y-33982261D01*
X28511218Y-34189598D01*
X29091618Y-34328273D01*
X29680907Y-34234281D01*
X29788782Y-34189598D01*
X29907997Y-33982261D01*
X29150000Y-33224264D01*
X28392003Y-33982261D01*
X27810254Y-33982261D01*
X27810254Y-33908000D01*
X27768417Y-33685654D01*
X27637010Y-33481442D01*
X27517453Y-33399752D01*
X27625058Y-33330510D01*
X27698509Y-33223010D01*
X27715719Y-33330907D01*
X27760402Y-33438782D01*
X27967739Y-33557997D01*
X28725736Y-32800000D01*
X27967739Y-32042003D01*
X27810254Y-32132554D01*
X27810254Y-32003000D01*
X27768417Y-31780654D01*
X27663584Y-31617739D01*
X28392003Y-31617739D01*
X29150000Y-32375736D01*
X29907997Y-31617739D01*
X29788782Y-31410402D01*
X29208382Y-31271727D01*
X28619093Y-31365719D01*
X28511218Y-31410402D01*
X28392003Y-31617739D01*
X27663584Y-31617739D01*
X27637010Y-31576442D01*
X27436507Y-31439444D01*
X27275000Y-31406738D01*
X27275000Y-24725000D01*
X27703000Y-24725000D01*
X27703000Y-25097956D01*
X27779121Y-25281727D01*
X27919773Y-25422380D01*
X28103544Y-25498500D01*
X28300250Y-25498500D01*
X28425250Y-25373500D01*
X28425250Y-24600000D01*
X27828000Y-24600000D01*
X27703000Y-24725000D01*
X27275000Y-24725000D01*
X27275000Y-22725000D01*
X27703000Y-22725000D01*
X27703000Y-23097956D01*
X27779121Y-23281727D01*
X27797394Y-23300000D01*
X27779121Y-23318273D01*
X27703000Y-23502044D01*
X27703000Y-23875000D01*
X27828000Y-24000000D01*
X28425250Y-24000000D01*
X28425250Y-22600000D01*
X27828000Y-22600000D01*
X27703000Y-22725000D01*
X27275000Y-22725000D01*
X27275000Y-20725000D01*
X27703000Y-20725000D01*
X27703000Y-21097956D01*
X27779121Y-21281727D01*
X27797394Y-21300000D01*
X27779121Y-21318273D01*
X27703000Y-21502044D01*
X27703000Y-21875000D01*
X27828000Y-22000000D01*
X28425250Y-22000000D01*
X28425250Y-20600000D01*
X27828000Y-20600000D01*
X27703000Y-20725000D01*
X27275000Y-20725000D01*
X27275000Y-19502044D01*
X27703000Y-19502044D01*
X27703000Y-19875000D01*
X27828000Y-20000000D01*
X28425250Y-20000000D01*
X28425250Y-19226500D01*
X28869750Y-19226500D01*
X28869750Y-20000000D01*
X28967500Y-20000000D01*
X28967500Y-20600000D01*
X28869750Y-20600000D01*
X28869750Y-22000000D01*
X28967500Y-22000000D01*
X28967500Y-22600000D01*
X28869750Y-22600000D01*
X28869750Y-24000000D01*
X28967500Y-24000000D01*
X28967500Y-24600000D01*
X28869750Y-24600000D01*
X28869750Y-25373500D01*
X28994750Y-25498500D01*
X29110908Y-25498500D01*
X29089746Y-25603000D01*
X29089746Y-26492000D01*
X29131583Y-26714346D01*
X29262990Y-26918558D01*
X29382547Y-27000248D01*
X29274942Y-27069490D01*
X29137944Y-27269993D01*
X29089746Y-27508000D01*
X29089746Y-28397000D01*
X29131583Y-28619346D01*
X29262990Y-28823558D01*
X29463493Y-28960556D01*
X29701500Y-29008754D01*
X31098500Y-29008754D01*
X31320846Y-28966917D01*
X31525058Y-28835510D01*
X31598858Y-28727500D01*
X31747500Y-28727500D01*
X32044080Y-28668507D01*
X32295508Y-28500508D01*
X32767750Y-28028265D01*
X33180452Y-28199634D01*
X34015883Y-28200363D01*
X34788000Y-27881331D01*
X35379255Y-27291107D01*
X35498661Y-27003544D01*
X39201500Y-27003544D01*
X39201500Y-27200250D01*
X39326500Y-27325250D01*
X40100000Y-27325250D01*
X40100000Y-26728000D01*
X40700000Y-26728000D01*
X40700000Y-27325250D01*
X41473500Y-27325250D01*
X41598500Y-27200250D01*
X41598500Y-27003544D01*
X41522380Y-26819773D01*
X41381727Y-26679121D01*
X41197956Y-26603000D01*
X40825000Y-26603000D01*
X40700000Y-26728000D01*
X40100000Y-26728000D01*
X39975000Y-26603000D01*
X39602044Y-26603000D01*
X39418273Y-26679121D01*
X39277620Y-26819773D01*
X39201500Y-27003544D01*
X35498661Y-27003544D01*
X35699634Y-26519548D01*
X35700363Y-25684117D01*
X35381331Y-24912000D01*
X34791107Y-24320745D01*
X34019548Y-24000366D01*
X33184117Y-23999637D01*
X32412000Y-24318669D01*
X31820745Y-24908893D01*
X31641939Y-25339506D01*
X31564172Y-25218652D01*
X31608754Y-24998500D01*
X31608754Y-23603935D01*
X31973272Y-23847498D01*
X32614267Y-23975000D01*
X35585733Y-23975000D01*
X36226728Y-23847498D01*
X36770137Y-23484404D01*
X37133231Y-22940995D01*
X37260733Y-22300000D01*
X37133231Y-21659005D01*
X36770137Y-21115596D01*
X36759897Y-21108754D01*
X37398500Y-21108754D01*
X37620846Y-21066917D01*
X37825058Y-20935510D01*
X37962056Y-20735007D01*
X38003000Y-20532821D01*
X38003000Y-20575000D01*
X38128000Y-20700000D01*
X38725250Y-20700000D01*
X38725250Y-19926500D01*
X38600250Y-19801500D01*
X38403544Y-19801500D01*
X38219773Y-19877620D01*
X38079121Y-20018273D01*
X38010254Y-20184531D01*
X38010254Y-19608000D01*
X37968417Y-19385654D01*
X37837010Y-19181442D01*
X37636507Y-19044444D01*
X37620561Y-19041215D01*
X37681727Y-19015879D01*
X37822380Y-18875227D01*
X37835690Y-18843093D01*
X38011993Y-18963556D01*
X38250000Y-19011754D01*
X39150000Y-19011754D01*
X39372346Y-18969917D01*
X39576558Y-18838510D01*
X39713556Y-18638007D01*
X39750000Y-18458043D01*
X39750000Y-18625000D01*
X39875000Y-18750000D01*
X40475000Y-18750000D01*
X40475000Y-18630000D01*
X40925000Y-18630000D01*
X40925000Y-18750000D01*
X41525000Y-18750000D01*
X41650000Y-18625000D01*
X41650000Y-18450544D01*
X41573880Y-18266773D01*
X41433227Y-18126121D01*
X41249456Y-18050000D01*
X41212468Y-18050000D01*
X41372346Y-18019917D01*
X41576558Y-17888510D01*
X41713556Y-17688007D01*
X41761754Y-17450000D01*
X41761754Y-17075000D01*
X42015163Y-17075000D01*
X42206035Y-17360660D01*
X42692670Y-17685819D01*
X43266695Y-17800000D01*
X43733305Y-17800000D01*
X44307330Y-17685819D01*
X44793965Y-17360660D01*
X45119124Y-16874025D01*
X45233305Y-16300000D01*
X45119124Y-15725975D01*
X44793965Y-15239340D01*
X44405819Y-14979989D01*
X44511147Y-14932283D01*
X44882708Y-14535681D01*
X45003713Y-14310227D01*
X44939203Y-14100000D01*
X43800000Y-14100000D01*
X43800000Y-14120000D01*
X43200000Y-14120000D01*
X43200000Y-14100000D01*
X42060797Y-14100000D01*
X41996287Y-14310227D01*
X42117292Y-14535681D01*
X42488853Y-14932283D01*
X42594181Y-14979989D01*
X42206035Y-15239340D01*
X42015163Y-15525000D01*
X41710254Y-15525000D01*
X41710254Y-15008000D01*
X41668417Y-14785654D01*
X41537010Y-14581442D01*
X41336507Y-14444444D01*
X41320561Y-14441215D01*
X41381727Y-14415879D01*
X41522380Y-14275227D01*
X41598500Y-14091456D01*
X41598500Y-13894750D01*
X41473500Y-13769750D01*
X40700000Y-13769750D01*
X40700000Y-13867500D01*
X40100000Y-13867500D01*
X40100000Y-13769750D01*
X39326500Y-13769750D01*
X39201500Y-13894750D01*
X39201500Y-14091456D01*
X39277620Y-14275227D01*
X39418273Y-14415879D01*
X39476304Y-14439917D01*
X39274942Y-14569490D01*
X39137944Y-14769993D01*
X39089746Y-15008000D01*
X39089746Y-15897000D01*
X39131583Y-16119346D01*
X39262990Y-16323558D01*
X39463493Y-16460556D01*
X39668214Y-16502013D01*
X39638246Y-16650000D01*
X39638246Y-17250734D01*
X39588510Y-17173442D01*
X39388007Y-17036444D01*
X39150000Y-16988246D01*
X38250000Y-16988246D01*
X38027654Y-17030083D01*
X37823442Y-17161490D01*
X37718169Y-17315562D01*
X37681727Y-17279121D01*
X37497956Y-17203000D01*
X37125000Y-17203000D01*
X37000000Y-17328000D01*
X37000000Y-17925250D01*
X37020000Y-17925250D01*
X37020000Y-18369750D01*
X37000000Y-18369750D01*
X37000000Y-18467500D01*
X36400000Y-18467500D01*
X36400000Y-18369750D01*
X36380000Y-18369750D01*
X36380000Y-17925250D01*
X36400000Y-17925250D01*
X36400000Y-17328000D01*
X36275000Y-17203000D01*
X35902044Y-17203000D01*
X35718273Y-17279121D01*
X35577620Y-17419773D01*
X35522332Y-17553250D01*
X35381331Y-17212000D01*
X34791107Y-16620745D01*
X34019548Y-16300366D01*
X33184117Y-16299637D01*
X32767709Y-16471693D01*
X32395508Y-16099492D01*
X32144080Y-15931493D01*
X31847500Y-15872500D01*
X31598822Y-15872500D01*
X31537010Y-15776442D01*
X31336507Y-15639444D01*
X31098500Y-15591246D01*
X29701500Y-15591246D01*
X29479154Y-15633083D01*
X29274942Y-15764490D01*
X29137944Y-15964993D01*
X29089746Y-16203000D01*
X29089746Y-17092000D01*
X29131583Y-17314346D01*
X29262990Y-17518558D01*
X29382547Y-17600248D01*
X29274942Y-17669490D01*
X29137944Y-17869993D01*
X29089746Y-18108000D01*
X29089746Y-18997000D01*
X29109409Y-19101500D01*
X28994750Y-19101500D01*
X28869750Y-19226500D01*
X28425250Y-19226500D01*
X28300250Y-19101500D01*
X28103544Y-19101500D01*
X27919773Y-19177620D01*
X27779121Y-19318273D01*
X27703000Y-19502044D01*
X27275000Y-19502044D01*
X27275000Y-17321016D01*
X31592472Y-13003544D01*
X39201500Y-13003544D01*
X39201500Y-13200250D01*
X39326500Y-13325250D01*
X40100000Y-13325250D01*
X40100000Y-12728000D01*
X40700000Y-12728000D01*
X40700000Y-13325250D01*
X41473500Y-13325250D01*
X41598500Y-13200250D01*
X41598500Y-13003544D01*
X41522380Y-12819773D01*
X41381727Y-12679121D01*
X41197956Y-12603000D01*
X40825000Y-12603000D01*
X40700000Y-12728000D01*
X40100000Y-12728000D01*
X39975000Y-12603000D01*
X39602044Y-12603000D01*
X39418273Y-12679121D01*
X39277620Y-12819773D01*
X39201500Y-13003544D01*
X31592472Y-13003544D01*
X33021016Y-11575000D01*
X33360668Y-11575000D01*
X33432806Y-11647264D01*
X33800215Y-11799826D01*
X34198040Y-11800173D01*
X34565714Y-11648253D01*
X34847264Y-11367194D01*
X34875165Y-11300000D01*
X41766695Y-11300000D01*
X41880876Y-11874025D01*
X42206035Y-12360660D01*
X42594181Y-12620011D01*
X42488853Y-12667717D01*
X42117292Y-13064319D01*
X41996287Y-13289773D01*
X42060797Y-13500000D01*
X43200000Y-13500000D01*
X43200000Y-13480000D01*
X43800000Y-13480000D01*
X43800000Y-13500000D01*
X44939203Y-13500000D01*
X45003713Y-13289773D01*
X44882708Y-13064319D01*
X44511147Y-12667717D01*
X44405819Y-12620011D01*
X44793965Y-12360660D01*
X45119124Y-11874025D01*
X45233305Y-11300000D01*
X45119124Y-10725975D01*
X44793965Y-10239340D01*
X44307330Y-9914181D01*
X43733305Y-9800000D01*
X43266695Y-9800000D01*
X42692670Y-9914181D01*
X42206035Y-10239340D01*
X41880876Y-10725975D01*
X41766695Y-11300000D01*
X34875165Y-11300000D01*
X34999826Y-10999785D01*
X35000173Y-10601960D01*
X34848253Y-10234286D01*
X34567194Y-9952736D01*
X34199785Y-9800174D01*
X33801960Y-9799827D01*
X33434286Y-9951747D01*
X33360905Y-10025000D01*
X32700000Y-10025000D01*
X32403420Y-10083993D01*
X32151992Y-10251992D01*
X25951992Y-16451992D01*
X25783993Y-16703420D01*
X25725000Y-17000000D01*
X25725000Y-31405640D01*
X25579154Y-31433083D01*
X25374942Y-31564490D01*
X25237944Y-31764993D01*
X25189746Y-32003000D01*
X25189746Y-32892000D01*
X25231583Y-33114346D01*
X25362990Y-33318558D01*
X25482547Y-33400248D01*
X25374942Y-33469490D01*
X25237944Y-33669993D01*
X25189746Y-33908000D01*
X25189746Y-34487512D01*
X25034286Y-34551747D01*
X24752736Y-34832806D01*
X24600174Y-35200215D01*
X24599827Y-35598040D01*
X24751747Y-35965714D01*
X25032806Y-36247264D01*
X25400215Y-36399826D01*
X25798040Y-36400173D01*
X26165714Y-36248253D01*
X26447264Y-35967194D01*
X26599826Y-35599785D01*
X26599916Y-35496100D01*
X26687262Y-35408754D01*
X26912738Y-35408754D01*
X28772500Y-37268516D01*
X28772500Y-37501178D01*
X28676442Y-37562990D01*
X28539444Y-37763493D01*
X28491246Y-38001500D01*
X28491246Y-39398500D01*
X28516123Y-39530710D01*
X28244857Y-39642795D01*
X27794377Y-40092489D01*
X27739354Y-40225000D01*
X26247500Y-40225000D01*
X25950920Y-40283993D01*
X25699492Y-40451992D01*
X25560238Y-40591246D01*
X24901500Y-40591246D01*
X24679154Y-40633083D01*
X24474942Y-40764490D01*
X24337944Y-40964993D01*
X24289746Y-41203000D01*
X24289746Y-42092000D01*
X24331583Y-42314346D01*
X24462990Y-42518558D01*
X24582547Y-42600248D01*
X24474942Y-42669490D01*
X24337944Y-42869993D01*
X24289746Y-43108000D01*
X24289746Y-43997000D01*
X24331583Y-44219346D01*
X24333736Y-44222692D01*
X24273442Y-44261490D01*
X24194350Y-44377244D01*
X24093227Y-44276120D01*
X23909456Y-44200000D01*
X23385000Y-44200000D01*
X23260000Y-44325000D01*
X23260000Y-46900000D01*
X23280000Y-46900000D01*
X23280000Y-47500000D01*
X23260000Y-47500000D01*
X23260000Y-47520000D01*
X22660000Y-47520000D01*
X22660000Y-47500000D01*
X21735000Y-47500000D01*
X21610000Y-47625000D01*
X21610000Y-49325000D01*
X5058308Y-49325000D01*
X5926520Y-48458302D01*
X6399461Y-47319333D01*
X6399842Y-46882261D01*
X8742003Y-46882261D01*
X8861218Y-47089598D01*
X9441618Y-47228273D01*
X10030907Y-47134281D01*
X10138782Y-47089598D01*
X10257997Y-46882261D01*
X9500000Y-46124264D01*
X8742003Y-46882261D01*
X6399842Y-46882261D01*
X6400537Y-46086077D01*
X6216891Y-45641618D01*
X7971727Y-45641618D01*
X8065719Y-46230907D01*
X8110402Y-46338782D01*
X8317739Y-46457997D01*
X9075736Y-45700000D01*
X9924264Y-45700000D01*
X10682261Y-46457997D01*
X10889598Y-46338782D01*
X11028273Y-45758382D01*
X10934281Y-45169093D01*
X10889598Y-45061218D01*
X10682261Y-44942003D01*
X9924264Y-45700000D01*
X9075736Y-45700000D01*
X8317739Y-44942003D01*
X8110402Y-45061218D01*
X7971727Y-45641618D01*
X6216891Y-45641618D01*
X5929585Y-44946285D01*
X5501787Y-44517739D01*
X8742003Y-44517739D01*
X9500000Y-45275736D01*
X10257997Y-44517739D01*
X10138782Y-44310402D01*
X9730981Y-44212966D01*
X10511298Y-44212966D01*
X10754866Y-44524170D01*
X11700800Y-44831357D01*
X12692284Y-44753168D01*
X13245134Y-44524170D01*
X13488702Y-44212966D01*
X12000000Y-42724264D01*
X10511298Y-44212966D01*
X9730981Y-44212966D01*
X9558382Y-44171727D01*
X8969093Y-44265719D01*
X8861218Y-44310402D01*
X8742003Y-44517739D01*
X5501787Y-44517739D01*
X5058302Y-44073480D01*
X3919333Y-43600539D01*
X2686077Y-43599463D01*
X1546285Y-44070415D01*
X675000Y-44940181D01*
X675000Y-42000800D01*
X9468643Y-42000800D01*
X9546832Y-42992284D01*
X9775830Y-43545134D01*
X10087034Y-43788702D01*
X11575736Y-42300000D01*
X10087034Y-40811298D01*
X9775830Y-41054866D01*
X9468643Y-42000800D01*
X675000Y-42000800D01*
X675000Y-40387034D01*
X10511298Y-40387034D01*
X12000000Y-41875736D01*
X13488702Y-40387034D01*
X13245134Y-40075830D01*
X12299200Y-39768643D01*
X11307716Y-39846832D01*
X10754866Y-40075830D01*
X10511298Y-40387034D01*
X675000Y-40387034D01*
X675000Y-36300000D01*
X6700000Y-36300000D01*
X6821793Y-36912293D01*
X7168629Y-37431371D01*
X7687707Y-37778207D01*
X8300000Y-37900000D01*
X9577403Y-37900000D01*
X9582479Y-37912286D01*
X10383497Y-38714704D01*
X11430613Y-39149504D01*
X12564413Y-39150494D01*
X13612286Y-38717521D01*
X14250000Y-38080920D01*
X14250000Y-41117225D01*
X14224170Y-41054866D01*
X13912966Y-40811298D01*
X12424264Y-42300000D01*
X13912966Y-43788702D01*
X14224170Y-43545134D01*
X14250000Y-43465595D01*
X14250000Y-44040812D01*
X14191082Y-44099730D01*
X14183137Y-44099723D01*
X13594857Y-44342795D01*
X13144377Y-44792489D01*
X12900278Y-45380344D01*
X12899723Y-46016863D01*
X13142795Y-46605143D01*
X13592489Y-47055623D01*
X14180344Y-47299722D01*
X14816863Y-47300277D01*
X15405143Y-47057205D01*
X15855623Y-46607511D01*
X16099722Y-46019656D01*
X16099731Y-46009457D01*
X16554594Y-45554594D01*
X16740921Y-45275736D01*
X16847237Y-45116623D01*
X16949891Y-44600544D01*
X21610000Y-44600544D01*
X21610000Y-46775000D01*
X21735000Y-46900000D01*
X22660000Y-46900000D01*
X22660000Y-44325000D01*
X22535000Y-44200000D01*
X22010544Y-44200000D01*
X21826773Y-44276120D01*
X21686121Y-44416773D01*
X21610000Y-44600544D01*
X16949891Y-44600544D01*
X16950000Y-44600000D01*
X16950000Y-38262149D01*
X17047238Y-38116622D01*
X17150000Y-37600000D01*
X17150000Y-37104169D01*
X17278207Y-36912293D01*
X17400000Y-36300000D01*
X17278207Y-35687707D01*
X16931371Y-35168629D01*
X16575000Y-34930510D01*
X16575000Y-33752500D01*
X16516007Y-33455920D01*
X16410254Y-33297650D01*
X16410254Y-32608000D01*
X16368417Y-32385654D01*
X16237010Y-32181442D01*
X16036507Y-32044444D01*
X16020561Y-32041215D01*
X16081727Y-32015879D01*
X16222380Y-31875227D01*
X16298500Y-31691456D01*
X16298500Y-31494750D01*
X16173500Y-31369750D01*
X15400000Y-31369750D01*
X15400000Y-31467500D01*
X14800000Y-31467500D01*
X14800000Y-31369750D01*
X14026500Y-31369750D01*
X14000000Y-31396250D01*
X13973500Y-31369750D01*
X13200000Y-31369750D01*
X13200000Y-31467500D01*
X12600000Y-31467500D01*
X12600000Y-31369750D01*
X11826500Y-31369750D01*
X11800000Y-31396250D01*
X11773500Y-31369750D01*
X11000000Y-31369750D01*
X11000000Y-31467500D01*
X10400000Y-31467500D01*
X10400000Y-31369750D01*
X9626500Y-31369750D01*
X9600000Y-31396250D01*
X9573500Y-31369750D01*
X8800000Y-31369750D01*
X8800000Y-31467500D01*
X8200000Y-31467500D01*
X8200000Y-31369750D01*
X7426500Y-31369750D01*
X7301500Y-31494750D01*
X7301500Y-31691456D01*
X7377620Y-31875227D01*
X7518273Y-32015879D01*
X7576304Y-32039917D01*
X7374942Y-32169490D01*
X7237944Y-32369993D01*
X7189746Y-32608000D01*
X7189746Y-33497000D01*
X7231583Y-33719346D01*
X7362990Y-33923558D01*
X7525000Y-34034255D01*
X7525000Y-34930510D01*
X7168629Y-35168629D01*
X6821793Y-35687707D01*
X6700000Y-36300000D01*
X675000Y-36300000D01*
X675000Y-30603544D01*
X7301500Y-30603544D01*
X7301500Y-30800250D01*
X7426500Y-30925250D01*
X8200000Y-30925250D01*
X8200000Y-30328000D01*
X8800000Y-30328000D01*
X8800000Y-30925250D01*
X9573500Y-30925250D01*
X9600000Y-30898750D01*
X9626500Y-30925250D01*
X10400000Y-30925250D01*
X10400000Y-30328000D01*
X11000000Y-30328000D01*
X11000000Y-30925250D01*
X11773500Y-30925250D01*
X11800000Y-30898750D01*
X11826500Y-30925250D01*
X12600000Y-30925250D01*
X12600000Y-30328000D01*
X13200000Y-30328000D01*
X13200000Y-30925250D01*
X13973500Y-30925250D01*
X14000000Y-30898750D01*
X14026500Y-30925250D01*
X14800000Y-30925250D01*
X14800000Y-30328000D01*
X15400000Y-30328000D01*
X15400000Y-30925250D01*
X16173500Y-30925250D01*
X16298500Y-30800250D01*
X16298500Y-30603544D01*
X16222380Y-30419773D01*
X16081727Y-30279121D01*
X15897956Y-30203000D01*
X15525000Y-30203000D01*
X15400000Y-30328000D01*
X14800000Y-30328000D01*
X14675000Y-30203000D01*
X14302044Y-30203000D01*
X14118273Y-30279121D01*
X14000000Y-30397393D01*
X13881727Y-30279121D01*
X13697956Y-30203000D01*
X13325000Y-30203000D01*
X13200000Y-30328000D01*
X12600000Y-30328000D01*
X12475000Y-30203000D01*
X12102044Y-30203000D01*
X11918273Y-30279121D01*
X11800000Y-30397393D01*
X11681727Y-30279121D01*
X11497956Y-30203000D01*
X11125000Y-30203000D01*
X11000000Y-30328000D01*
X10400000Y-30328000D01*
X10275000Y-30203000D01*
X9902044Y-30203000D01*
X9718273Y-30279121D01*
X9600000Y-30397393D01*
X9481727Y-30279121D01*
X9297956Y-30203000D01*
X8925000Y-30203000D01*
X8800000Y-30328000D01*
X8200000Y-30328000D01*
X8075000Y-30203000D01*
X7702044Y-30203000D01*
X7518273Y-30279121D01*
X7377620Y-30419773D01*
X7301500Y-30603544D01*
X675000Y-30603544D01*
X675000Y-25550883D01*
X14649637Y-25550883D01*
X14968669Y-26323000D01*
X15558893Y-26914255D01*
X16330452Y-27234634D01*
X17165883Y-27235363D01*
X17938000Y-26916331D01*
X18529255Y-26326107D01*
X18849634Y-25554548D01*
X18850363Y-24719117D01*
X18531331Y-23947000D01*
X17941107Y-23355745D01*
X17169548Y-23035366D01*
X16334117Y-23034637D01*
X15562000Y-23353669D01*
X14970745Y-23943893D01*
X14650366Y-24715452D01*
X14649637Y-25550883D01*
X675000Y-25550883D01*
X675000Y-24490000D01*
X2275000Y-24490000D01*
X2400000Y-24365000D01*
X2400000Y-23440000D01*
X3000000Y-23440000D01*
X3000000Y-24365000D01*
X3125000Y-24490000D01*
X5299456Y-24490000D01*
X5483227Y-24413879D01*
X5623880Y-24273227D01*
X5700000Y-24089456D01*
X5700000Y-23565000D01*
X5575000Y-23440000D01*
X3000000Y-23440000D01*
X2400000Y-23440000D01*
X2380000Y-23440000D01*
X2380000Y-22840000D01*
X2400000Y-22840000D01*
X2400000Y-21915000D01*
X3000000Y-21915000D01*
X3000000Y-22840000D01*
X5575000Y-22840000D01*
X5700000Y-22715000D01*
X5700000Y-22190544D01*
X5623880Y-22006773D01*
X5483227Y-21866121D01*
X5299456Y-21790000D01*
X3125000Y-21790000D01*
X3000000Y-21915000D01*
X2400000Y-21915000D01*
X2275000Y-21790000D01*
X675000Y-21790000D01*
X675000Y-20983936D01*
X15625328Y-20983936D01*
X15807146Y-21243118D01*
X16570854Y-21466298D01*
X17361834Y-21380231D01*
X17692854Y-21243118D01*
X17874672Y-20983936D01*
X16750000Y-19859264D01*
X15625328Y-20983936D01*
X675000Y-20983936D01*
X675000Y-19410000D01*
X2275000Y-19410000D01*
X2400000Y-19285000D01*
X2400000Y-18360000D01*
X3000000Y-18360000D01*
X3000000Y-19285000D01*
X3125000Y-19410000D01*
X5299456Y-19410000D01*
X5483227Y-19333879D01*
X5561252Y-19255854D01*
X14718702Y-19255854D01*
X14804769Y-20046834D01*
X14941882Y-20377854D01*
X15201064Y-20559672D01*
X16325736Y-19435000D01*
X17174264Y-19435000D01*
X18298936Y-20559672D01*
X18558118Y-20377854D01*
X18781298Y-19614146D01*
X18695231Y-18823166D01*
X18558118Y-18492146D01*
X18298936Y-18310328D01*
X17174264Y-19435000D01*
X16325736Y-19435000D01*
X15201064Y-18310328D01*
X14941882Y-18492146D01*
X14718702Y-19255854D01*
X5561252Y-19255854D01*
X5623880Y-19193227D01*
X5700000Y-19009456D01*
X5700000Y-18485000D01*
X5575000Y-18360000D01*
X3000000Y-18360000D01*
X2400000Y-18360000D01*
X2380000Y-18360000D01*
X2380000Y-17886064D01*
X15625328Y-17886064D01*
X16750000Y-19010736D01*
X17874672Y-17886064D01*
X17692854Y-17626882D01*
X16929146Y-17403702D01*
X16138166Y-17489769D01*
X15807146Y-17626882D01*
X15625328Y-17886064D01*
X2380000Y-17886064D01*
X2380000Y-17760000D01*
X2400000Y-17760000D01*
X2400000Y-16835000D01*
X3000000Y-16835000D01*
X3000000Y-17760000D01*
X5575000Y-17760000D01*
X5700000Y-17635000D01*
X5700000Y-17110544D01*
X5623880Y-16926773D01*
X5483227Y-16786121D01*
X5299456Y-16710000D01*
X3125000Y-16710000D01*
X3000000Y-16835000D01*
X2400000Y-16835000D01*
X2275000Y-16710000D01*
X675000Y-16710000D01*
X675000Y-14237647D01*
X10199793Y-14237647D01*
X10382097Y-14678857D01*
X10719367Y-15016717D01*
X11160258Y-15199791D01*
X11637647Y-15200207D01*
X12078857Y-15017903D01*
X12300090Y-14797056D01*
X12519367Y-15016717D01*
X12960258Y-15199791D01*
X13437647Y-15200207D01*
X13878857Y-15017903D01*
X14100090Y-14797056D01*
X14319367Y-15016717D01*
X14760258Y-15199791D01*
X15237647Y-15200207D01*
X15678857Y-15017903D01*
X16016717Y-14680633D01*
X16199791Y-14239742D01*
X16200207Y-13762353D01*
X16017903Y-13321143D01*
X15680633Y-12983283D01*
X15239742Y-12800209D01*
X14762353Y-12799793D01*
X14321143Y-12982097D01*
X14099910Y-13202944D01*
X13880633Y-12983283D01*
X13439742Y-12800209D01*
X12962353Y-12799793D01*
X12521143Y-12982097D01*
X12299910Y-13202944D01*
X12080633Y-12983283D01*
X11639742Y-12800209D01*
X11162353Y-12799793D01*
X10721143Y-12982097D01*
X10383283Y-13319367D01*
X10200209Y-13760258D01*
X10199793Y-14237647D01*
X675000Y-14237647D01*
X675000Y-5058308D01*
X1541698Y-5926520D01*
X2680667Y-6399461D01*
X3913923Y-6400537D01*
X4394313Y-6202044D01*
X38003000Y-6202044D01*
X38003000Y-6575000D01*
X38128000Y-6700000D01*
X38725250Y-6700000D01*
X38725250Y-5926500D01*
X38600250Y-5801500D01*
X38403544Y-5801500D01*
X38219773Y-5877620D01*
X38079121Y-6018273D01*
X38003000Y-6202044D01*
X4394313Y-6202044D01*
X5053715Y-5929585D01*
X5926520Y-5058302D01*
X6399461Y-3919333D01*
X6400537Y-2686077D01*
X5929585Y-1546285D01*
X5059819Y-675000D01*
X44941692Y-675000D01*
X44073480Y-1541698D01*
M02*
