M48
;DRILL file {KiCad 4.0.1-stable} date 7/31/2016 1:29:09 PM
;FORMAT={-:-/ absolute / metric / decimal}
FMAT,2
METRIC,TZ
T1C0.500
T2C0.800
T3C1.100
T4C1.200
T5C1.300
T6C1.400
T7C1.800
T8C3.000
T9C3.500
T10C2.700
%
G90
G05
M71
T1
X1.35Y-24.75
X1.35Y-24.75
X1.4Y-16.5
X1.4Y-16.5
X2.6Y-29.
X2.85Y-24.75
X2.85Y-24.75
X2.9Y-16.5
X2.9Y-16.5
X4.35Y-24.75
X4.35Y-24.75
X4.4Y-16.5
X4.4Y-16.5
X4.5Y-27.5
X8.Y-27.5
X8.Y-41.2
X9.4Y-41.2
X17.Y-29.
X17.3Y-31.9
X17.3Y-38.9
X17.4Y-33.7
X20.Y-34.5
X21.3Y-45.7
X21.3Y-45.7
X21.3Y-47.2
X21.3Y-47.2
X21.3Y-48.7
X21.3Y-48.7
X22.7Y-34.4
X25.1Y-37.1
X25.1Y-38.4
X25.6Y-35.4
X29.55Y-45.75
X29.55Y-45.75
X29.55Y-47.25
X29.55Y-47.25
X29.55Y-48.75
X29.55Y-48.75
X31.6Y-45.7
X31.6Y-45.7
X31.6Y-47.2
X31.6Y-47.2
X31.6Y-48.7
X31.6Y-48.7
X34.Y-10.8
X36.Y-16.9
X36.8Y-28.4
X37.5Y-7.
X37.5Y-9.
X37.8Y-24.
X38.5Y-38.3
X39.85Y-45.75
X39.85Y-45.75
X39.85Y-47.25
X39.85Y-47.25
X39.85Y-48.75
X39.85Y-48.75
X41.8Y-13.1
X41.8Y-27.1
X42.3Y-20.
X42.4Y-23.2
X42.6Y-9.2
X42.8Y-34.6
X43.2Y-33.5
X43.3Y-8.3
X43.3Y-19.4
X43.4Y-22.4
X45.4Y-35.5
X46.6Y-39.6
T2
X8.3Y-36.3
X11.4Y-14.
X13.2Y-14.
X15.Y-14.
X15.8Y-36.3
T3
X43.5Y-11.3
X43.5Y-13.8
X43.5Y-16.3
X43.5Y-25.3
X43.5Y-27.8
X43.5Y-30.3
T4
X29.15Y-32.8
X29.15Y-41.
X32.05Y-32.8
X32.05Y-41.
T5
X9.5Y-45.7
X14.5Y-45.7
T7
X16.75Y-19.435
X16.75Y-25.135
X33.6Y-18.4
X33.6Y-26.1
T8
X12.Y-42.3
T9
X12.Y-36.3
T10
X3.3Y-3.3
X3.3Y-46.7
X46.7Y-3.3
X46.7Y-46.7
T6
X34.8Y-22.3G85X33.4Y-22.3
G05
T0
M30
