G04 #@! TF.FileFunction,Copper,L1,Top,Signal*
%FSLAX46Y46*%
G04 Gerber Fmt 4.6, Leading zero omitted, Abs format (unit mm)*
G04 Created by KiCad (PCBNEW 4.0.1-stable) date 7/31/2016 1:29:05 PM*
%MOMM*%
G01*
G04 APERTURE LIST*
%ADD10C,0.100000*%
%ADD11C,2.000000*%
%ADD12R,3.500000X1.400000*%
%ADD13R,2.794000X1.778000*%
%ADD14C,4.000000*%
%ADD15C,4.500000*%
%ADD16R,5.000000X1.600000*%
%ADD17R,5.000000X1.700000*%
%ADD18R,1.700000X5.000000*%
%ADD19R,1.050000X0.600000*%
%ADD20R,5.000000X2.150000*%
%ADD21C,3.000000*%
%ADD22R,14.000000X2.150000*%
%ADD23O,5.000000X2.150000*%
%ADD24R,0.889000X1.397000*%
%ADD25R,1.397000X0.889000*%
%ADD26R,1.200000X1.200000*%
%ADD27R,1.500000X1.600000*%
%ADD28C,5.000000*%
%ADD29O,2.200000X1.800000*%
%ADD30R,2.000000X2.000000*%
%ADD31R,3.200000X1.000000*%
%ADD32C,0.800000*%
%ADD33C,1.200000*%
%ADD34C,2.000000*%
%ADD35C,0.350000*%
%ADD36C,1.000000*%
%ADD37C,1.500000*%
%ADD38C,0.200000*%
G04 APERTURE END LIST*
D10*
D11*
X32050000Y-41000000D03*
X29150000Y-41000000D03*
X32050000Y-32800000D03*
D12*
X27900000Y-37800000D03*
X27900000Y-36000000D03*
X33300000Y-37800000D03*
X33300000Y-36000000D03*
D11*
X29150000Y-32800000D03*
D13*
X5400000Y-36522000D03*
X5400000Y-40078000D03*
X4500000Y-32578000D03*
X4500000Y-29022000D03*
X8000000Y-32578000D03*
X8000000Y-29022000D03*
X11500000Y-32578000D03*
X11500000Y-29022000D03*
X15000000Y-32578000D03*
X15000000Y-29022000D03*
D14*
X12000000Y-42300000D03*
D15*
X12000000Y-36300000D03*
D11*
X9500000Y-45700000D03*
X14500000Y-45700000D03*
D16*
X2700000Y-20600000D03*
D17*
X2700000Y-18060000D03*
X2700000Y-23140000D03*
D18*
X33160000Y-47200000D03*
X38240000Y-47200000D03*
X22960000Y-47200000D03*
X28040000Y-47200000D03*
D19*
X18600000Y-38000000D03*
X18600000Y-38950000D03*
X18600000Y-39900000D03*
X21300000Y-39900000D03*
X21300000Y-38000000D03*
D20*
X32600000Y-18855000D03*
D21*
X16750000Y-19435000D03*
D20*
X32600000Y-22285000D03*
D22*
X28100000Y-25715000D03*
D20*
X23600000Y-22285000D03*
D21*
X16750000Y-25135000D03*
X33600000Y-26100000D03*
X33600000Y-18400000D03*
D23*
X34100000Y-22300000D03*
D24*
X39547500Y-42900000D03*
X41452500Y-42900000D03*
X39547500Y-38300000D03*
X41452500Y-38300000D03*
X41452500Y-40500000D03*
X39547500Y-40500000D03*
X41452500Y-35900000D03*
X39547500Y-35900000D03*
D25*
X18800000Y-41747500D03*
X18800000Y-43652500D03*
X39000000Y-14452500D03*
X39000000Y-12547500D03*
X39000000Y-28452500D03*
X39000000Y-26547500D03*
D24*
X38947500Y-10800000D03*
X40852500Y-10800000D03*
X38947500Y-24800000D03*
X40852500Y-24800000D03*
D25*
X18700000Y-36352500D03*
X18700000Y-34447500D03*
X21300000Y-36352500D03*
X21300000Y-34447500D03*
D24*
X20747500Y-41800000D03*
X22652500Y-41800000D03*
X37452500Y-10800000D03*
X35547500Y-10800000D03*
X40752500Y-16200000D03*
X38847500Y-16200000D03*
D25*
X36800000Y-24847500D03*
X36800000Y-26752500D03*
D24*
X8747500Y-22000000D03*
X10652500Y-22000000D03*
X40752500Y-30200000D03*
X38847500Y-30200000D03*
D26*
X43200000Y-40700000D03*
X43200000Y-42700000D03*
D27*
X46450000Y-41700000D03*
D26*
X43200000Y-36100000D03*
X43200000Y-38100000D03*
D27*
X46450000Y-37100000D03*
D28*
X46700000Y-3300000D03*
X46700000Y-46700000D03*
X3300000Y-3300000D03*
X3300000Y-46700000D03*
D29*
X43500000Y-16300000D03*
X43500000Y-11300000D03*
X43500000Y-13800000D03*
D30*
X45200000Y-10800000D03*
X45200000Y-13800000D03*
X45200000Y-16800000D03*
D31*
X45500000Y-8300000D03*
X45500000Y-19300000D03*
D29*
X43500000Y-30300000D03*
X43500000Y-25300000D03*
X43500000Y-27800000D03*
D30*
X45200000Y-24800000D03*
X45200000Y-27800000D03*
X45200000Y-30800000D03*
D31*
X45500000Y-22300000D03*
X45500000Y-33300000D03*
D32*
X37800000Y-24000000D03*
X36800000Y-28400000D03*
X17300000Y-38900000D03*
X17300000Y-31900000D03*
X17400000Y-33700000D03*
X25100000Y-38400000D03*
X25100000Y-37100000D03*
X8000000Y-41200000D03*
X9400000Y-41200000D03*
X41800000Y-27100000D03*
X41800000Y-13100000D03*
X2600000Y-29000000D03*
X1350000Y-24750000D03*
X1350000Y-24750000D03*
X2850000Y-24750000D03*
X4350000Y-24750000D03*
X4350000Y-24750000D03*
X2850000Y-24750000D03*
X2900000Y-16500000D03*
X4400000Y-16500000D03*
X1400000Y-16500000D03*
X1400000Y-16500000D03*
X4400000Y-16500000D03*
X2900000Y-16500000D03*
X38500000Y-38300000D03*
X39850000Y-47250000D03*
X39850000Y-48750000D03*
X39850000Y-45750000D03*
X39850000Y-45750000D03*
X39850000Y-48750000D03*
X39850000Y-47250000D03*
X29550000Y-47250000D03*
X29550000Y-48750000D03*
X29550000Y-45750000D03*
X29550000Y-45750000D03*
X29550000Y-48750000D03*
X29550000Y-47250000D03*
X31600000Y-47200000D03*
X31600000Y-45700000D03*
X31600000Y-48700000D03*
X31600000Y-48700000D03*
X31600000Y-45700000D03*
X31600000Y-47200000D03*
X21300000Y-47200000D03*
X21300000Y-45700000D03*
X21300000Y-48700000D03*
X36000000Y-16900000D03*
X43300000Y-19400000D03*
X37500000Y-7000000D03*
X42600000Y-9200000D03*
X43300000Y-8300000D03*
X42800000Y-34600000D03*
X43200000Y-33500000D03*
X42400000Y-23200000D03*
X42300000Y-20000000D03*
X43400000Y-22400000D03*
X20000000Y-34500000D03*
X22700000Y-34400000D03*
X21300000Y-48700000D03*
X21300000Y-45700000D03*
X21300000Y-47200000D03*
X17000000Y-29000000D03*
X8000000Y-27500000D03*
X4500000Y-27500000D03*
D33*
X15800000Y-36300000D03*
X8300000Y-36300000D03*
X13200000Y-14000000D03*
X11400000Y-14000000D03*
X15000000Y-14000000D03*
D32*
X37500000Y-9000000D03*
X34000000Y-10800000D03*
X45400000Y-35500000D03*
X46600000Y-39600000D03*
X25600000Y-35400000D03*
D34*
X45200000Y-30800000D02*
X42700000Y-30800000D01*
X42700000Y-30800000D02*
X40600000Y-32900000D01*
X40600000Y-32900000D02*
X37100000Y-32900000D01*
X37100000Y-32900000D02*
X33600000Y-29400000D01*
X33600000Y-29400000D02*
X33600000Y-26100000D01*
X33600000Y-26100000D02*
X28100000Y-25715000D01*
X28100000Y-25715000D02*
X33215000Y-25715000D01*
X33215000Y-25715000D02*
X33600000Y-26100000D01*
X33600000Y-26100000D02*
X28100000Y-25715000D01*
D35*
X40752500Y-30200000D02*
X43400000Y-30200000D01*
X43400000Y-30200000D02*
X43500000Y-30300000D01*
X39000000Y-28452500D02*
X39000000Y-30047500D01*
X39000000Y-30047500D02*
X38847500Y-30200000D01*
X2700000Y-20600000D02*
X6400000Y-20600000D01*
X7800000Y-22000000D02*
X6400000Y-20600000D01*
X7800000Y-22000000D02*
X8747500Y-22000000D01*
X23600000Y-22285000D02*
X19600000Y-22285000D01*
X19600000Y-22285000D02*
X16750000Y-25135000D01*
X16750000Y-25135000D02*
X15635000Y-25135000D01*
X15635000Y-25135000D02*
X12500000Y-22000000D01*
X12500000Y-22000000D02*
X10652500Y-22000000D01*
X36800000Y-24847500D02*
X36952500Y-24847500D01*
X36952500Y-24847500D02*
X37800000Y-24000000D01*
X36800000Y-24847500D02*
X36800000Y-24800000D01*
X38947500Y-24800000D02*
X38947500Y-26495000D01*
X38947500Y-26495000D02*
X39000000Y-26547500D01*
X36800000Y-24847500D02*
X38900000Y-24847500D01*
X38900000Y-24847500D02*
X38947500Y-24800000D01*
X32050000Y-32800000D02*
X32050000Y-34750000D01*
X32050000Y-34750000D02*
X33300000Y-36000000D01*
X36800000Y-28400000D02*
X36800000Y-26752500D01*
X18600000Y-38950000D02*
X17350000Y-38950000D01*
X17350000Y-38950000D02*
X17300000Y-38900000D01*
X18700000Y-34447500D02*
X18147500Y-34447500D01*
X18147500Y-34447500D02*
X17400000Y-33700000D01*
X27900000Y-37800000D02*
X25700000Y-37800000D01*
X25700000Y-37800000D02*
X25100000Y-38400000D01*
X27900000Y-37800000D02*
X25800000Y-37800000D01*
X25800000Y-37800000D02*
X25100000Y-37100000D01*
D36*
X9400000Y-41200000D02*
X8000000Y-41200000D01*
X10500000Y-42300000D02*
X9400000Y-41200000D01*
X12000000Y-42300000D02*
X10500000Y-42300000D01*
X43500000Y-27800000D02*
X42500000Y-27800000D01*
X42500000Y-27800000D02*
X41800000Y-27100000D01*
X43500000Y-13800000D02*
X42500000Y-13800000D01*
X42500000Y-13800000D02*
X41800000Y-13100000D01*
D35*
X4500000Y-29022000D02*
X2622000Y-29022000D01*
X2622000Y-29022000D02*
X2600000Y-29000000D01*
X2850000Y-23090000D02*
X2850000Y-24750000D01*
X1350000Y-23950000D02*
X1350000Y-24750000D01*
X2210000Y-23090000D02*
X1350000Y-23950000D01*
X2850000Y-23090000D02*
X2210000Y-23090000D01*
X4350000Y-23950000D02*
X4350000Y-24750000D01*
X3490000Y-23090000D02*
X4350000Y-23950000D01*
X2850000Y-23090000D02*
X3490000Y-23090000D01*
X2850000Y-23090000D02*
X3490000Y-23090000D01*
X3490000Y-23090000D02*
X4350000Y-23950000D01*
X4350000Y-23950000D02*
X4350000Y-24750000D01*
X2850000Y-23090000D02*
X2210000Y-23090000D01*
X2210000Y-23090000D02*
X1350000Y-23950000D01*
X1350000Y-23950000D02*
X1350000Y-24750000D01*
X2850000Y-23090000D02*
X2850000Y-24750000D01*
X2900000Y-18160000D02*
X2900000Y-16500000D01*
X4400000Y-17300000D02*
X4400000Y-16500000D01*
X3540000Y-18160000D02*
X4400000Y-17300000D01*
X2900000Y-18160000D02*
X3540000Y-18160000D01*
X1400000Y-17300000D02*
X1400000Y-16500000D01*
X2260000Y-18160000D02*
X1400000Y-17300000D01*
X2900000Y-18160000D02*
X2260000Y-18160000D01*
X2900000Y-18160000D02*
X2260000Y-18160000D01*
X2260000Y-18160000D02*
X1400000Y-17300000D01*
X1400000Y-17300000D02*
X1400000Y-16500000D01*
X2900000Y-18160000D02*
X3540000Y-18160000D01*
X3540000Y-18160000D02*
X4400000Y-17300000D01*
X4400000Y-17300000D02*
X4400000Y-16500000D01*
X2900000Y-18160000D02*
X2900000Y-16500000D01*
X39547500Y-38300000D02*
X38500000Y-38300000D01*
X38240000Y-47200000D02*
X38240000Y-44207500D01*
X38240000Y-44207500D02*
X39547500Y-42900000D01*
X38190000Y-47250000D02*
X39850000Y-47250000D01*
X39050000Y-48750000D02*
X39850000Y-48750000D01*
X38190000Y-47890000D02*
X39050000Y-48750000D01*
X38190000Y-47250000D02*
X38190000Y-47890000D01*
X39050000Y-45750000D02*
X39850000Y-45750000D01*
X38190000Y-46610000D02*
X39050000Y-45750000D01*
X38190000Y-47250000D02*
X38190000Y-46610000D01*
X38190000Y-47250000D02*
X38190000Y-46610000D01*
X38190000Y-46610000D02*
X39050000Y-45750000D01*
X39050000Y-45750000D02*
X39850000Y-45750000D01*
X38190000Y-47250000D02*
X38190000Y-47890000D01*
X38190000Y-47890000D02*
X39050000Y-48750000D01*
X39050000Y-48750000D02*
X39850000Y-48750000D01*
X38190000Y-47250000D02*
X39850000Y-47250000D01*
X27890000Y-47250000D02*
X29550000Y-47250000D01*
X28750000Y-48750000D02*
X29550000Y-48750000D01*
X27890000Y-47890000D02*
X28750000Y-48750000D01*
X27890000Y-47250000D02*
X27890000Y-47890000D01*
X28750000Y-45750000D02*
X29550000Y-45750000D01*
X27890000Y-46610000D02*
X28750000Y-45750000D01*
X27890000Y-47250000D02*
X27890000Y-46610000D01*
X27890000Y-47250000D02*
X27890000Y-46610000D01*
X27890000Y-46610000D02*
X28750000Y-45750000D01*
X28750000Y-45750000D02*
X29550000Y-45750000D01*
X27890000Y-47250000D02*
X27890000Y-47890000D01*
X27890000Y-47890000D02*
X28750000Y-48750000D01*
X28750000Y-48750000D02*
X29550000Y-48750000D01*
X27890000Y-47250000D02*
X29550000Y-47250000D01*
X33260000Y-47200000D02*
X31600000Y-47200000D01*
X32400000Y-45700000D02*
X31600000Y-45700000D01*
X33260000Y-46560000D02*
X32400000Y-45700000D01*
X33260000Y-47200000D02*
X33260000Y-46560000D01*
X32400000Y-48700000D02*
X31600000Y-48700000D01*
X33260000Y-47840000D02*
X32400000Y-48700000D01*
X33260000Y-47200000D02*
X33260000Y-47840000D01*
X33260000Y-47200000D02*
X33260000Y-47840000D01*
X33260000Y-47840000D02*
X32400000Y-48700000D01*
X32400000Y-48700000D02*
X31600000Y-48700000D01*
X33260000Y-47200000D02*
X33260000Y-46560000D01*
X33260000Y-46560000D02*
X32400000Y-45700000D01*
X32400000Y-45700000D02*
X31600000Y-45700000D01*
X33260000Y-47200000D02*
X31600000Y-47200000D01*
X22960000Y-47200000D02*
X21300000Y-47200000D01*
X22652500Y-46892500D02*
X22960000Y-47200000D01*
X22652500Y-41800000D02*
X22652500Y-46892500D01*
X22100000Y-45700000D02*
X21300000Y-45700000D01*
X22960000Y-46560000D02*
X22100000Y-45700000D01*
X22960000Y-47200000D02*
X22960000Y-46560000D01*
X22100000Y-48700000D02*
X21300000Y-48700000D01*
X22960000Y-47840000D02*
X22100000Y-48700000D01*
X22960000Y-47200000D02*
X22960000Y-47840000D01*
X43500000Y-27800000D02*
X45200000Y-27800000D01*
X43500000Y-13800000D02*
X45200000Y-13800000D01*
X43300000Y-8300000D02*
X43300000Y-8500000D01*
X43300000Y-8500000D02*
X42600000Y-9200000D01*
X45500000Y-8300000D02*
X43300000Y-8300000D01*
X43200000Y-33500000D02*
X43200000Y-34200000D01*
X43200000Y-34200000D02*
X42800000Y-34600000D01*
X45500000Y-33300000D02*
X43400000Y-33300000D01*
X43400000Y-33300000D02*
X43200000Y-33500000D01*
X43400000Y-22400000D02*
X43200000Y-22400000D01*
X43200000Y-22400000D02*
X42400000Y-23200000D01*
X43300000Y-19400000D02*
X42900000Y-19400000D01*
X42900000Y-19400000D02*
X42300000Y-20000000D01*
X45500000Y-22300000D02*
X43500000Y-22300000D01*
X43500000Y-22300000D02*
X43400000Y-22400000D01*
X45500000Y-19300000D02*
X43400000Y-19300000D01*
X43400000Y-19300000D02*
X43300000Y-19400000D01*
X18700000Y-34447500D02*
X19947500Y-34447500D01*
X19947500Y-34447500D02*
X20000000Y-34500000D01*
X21300000Y-34447500D02*
X22652500Y-34447500D01*
X22652500Y-34447500D02*
X22700000Y-34400000D01*
X22960000Y-47200000D02*
X22960000Y-47840000D01*
X22960000Y-47840000D02*
X22100000Y-48700000D01*
X22100000Y-48700000D02*
X21300000Y-48700000D01*
X22960000Y-47200000D02*
X22960000Y-46560000D01*
X22960000Y-46560000D02*
X22100000Y-45700000D01*
X22100000Y-45700000D02*
X21300000Y-45700000D01*
X22652500Y-41800000D02*
X22652500Y-46892500D01*
X22652500Y-46892500D02*
X22960000Y-47200000D01*
X22960000Y-47200000D02*
X21300000Y-47200000D01*
D34*
X9500000Y-45700000D02*
X9500000Y-43600000D01*
X9500000Y-43600000D02*
X8200000Y-42300000D01*
X12000000Y-42300000D02*
X8200000Y-42300000D01*
X8200000Y-42300000D02*
X7622000Y-42300000D01*
X7622000Y-42300000D02*
X5400000Y-40078000D01*
D35*
X18700000Y-34447500D02*
X21300000Y-34447500D01*
X15000000Y-29022000D02*
X16978000Y-29022000D01*
X16978000Y-29022000D02*
X17000000Y-29000000D01*
X8000000Y-29022000D02*
X8000000Y-27500000D01*
X4500000Y-29022000D02*
X4500000Y-27500000D01*
D34*
X4500000Y-29022000D02*
X8000000Y-29022000D01*
X8000000Y-29022000D02*
X11500000Y-29022000D01*
X11500000Y-29022000D02*
X15000000Y-29022000D01*
D37*
X15800000Y-36300000D02*
X15800000Y-37600000D01*
X15800000Y-37600000D02*
X15600000Y-37800000D01*
X15600000Y-37800000D02*
X15600000Y-44600000D01*
X15600000Y-44600000D02*
X14500000Y-45700000D01*
D34*
X30000000Y-22285000D02*
X29885000Y-22285000D01*
X29885000Y-22285000D02*
X21600000Y-14000000D01*
X21600000Y-14000000D02*
X15000000Y-14000000D01*
X8300000Y-36300000D02*
X12000000Y-36300000D01*
X8300000Y-36300000D02*
X8300000Y-32878000D01*
X8300000Y-32878000D02*
X8000000Y-32578000D01*
D35*
X18800000Y-43652500D02*
X16547500Y-43652500D01*
X16547500Y-43652500D02*
X14500000Y-45700000D01*
X18700000Y-36352500D02*
X15852500Y-36352500D01*
X15852500Y-36352500D02*
X15800000Y-36300000D01*
D34*
X12000000Y-36300000D02*
X12000000Y-33078000D01*
X12000000Y-33078000D02*
X11500000Y-32578000D01*
X8300000Y-36300000D02*
X5622000Y-36300000D01*
X5622000Y-36300000D02*
X5400000Y-36522000D01*
X15800000Y-36300000D02*
X12000000Y-36300000D01*
X4500000Y-32578000D02*
X8000000Y-32578000D01*
X8000000Y-32578000D02*
X11500000Y-32578000D01*
X11500000Y-32578000D02*
X15000000Y-32578000D01*
X13200000Y-14000000D02*
X11400000Y-14000000D01*
X15000000Y-14000000D02*
X13200000Y-14000000D01*
X32600000Y-22285000D02*
X30000000Y-22285000D01*
X30000000Y-22285000D02*
X29885000Y-22285000D01*
D35*
X18600000Y-38000000D02*
X18600000Y-36452500D01*
X18600000Y-36452500D02*
X18700000Y-36352500D01*
D34*
X32600000Y-18855000D02*
X40645000Y-18855000D01*
X40645000Y-18855000D02*
X42700000Y-16800000D01*
X42700000Y-16800000D02*
X45200000Y-16800000D01*
X32600000Y-18855000D02*
X33145000Y-18855000D01*
X33145000Y-18855000D02*
X33600000Y-18400000D01*
X33600000Y-18400000D02*
X32600000Y-18855000D01*
D35*
X40752500Y-16200000D02*
X43400000Y-16200000D01*
X43400000Y-16200000D02*
X43500000Y-16300000D01*
X39000000Y-14452500D02*
X39000000Y-16047500D01*
X39000000Y-16047500D02*
X38847500Y-16200000D01*
X37452500Y-10800000D02*
X37452500Y-9047500D01*
X37452500Y-9047500D02*
X37500000Y-9000000D01*
X37452500Y-10800000D02*
X38947500Y-10800000D01*
X38947500Y-10800000D02*
X38947500Y-12495000D01*
X38947500Y-12495000D02*
X39000000Y-12547500D01*
X34000000Y-10800000D02*
X35547500Y-10800000D01*
X20747500Y-41800000D02*
X20747500Y-40452500D01*
X20747500Y-40452500D02*
X21300000Y-39900000D01*
X21300000Y-36352500D02*
X21300000Y-38000000D01*
X39547500Y-40500000D02*
X37100000Y-40500000D01*
X21300000Y-38000000D02*
X23500000Y-38000000D01*
X37600000Y-35900000D02*
X39547500Y-35900000D01*
X37100000Y-36400000D02*
X37600000Y-35900000D01*
X37100000Y-42900000D02*
X37100000Y-40500000D01*
X37100000Y-40500000D02*
X37100000Y-36400000D01*
X36600000Y-43400000D02*
X37100000Y-42900000D01*
X24500000Y-43400000D02*
X36600000Y-43400000D01*
X24000000Y-42900000D02*
X24500000Y-43400000D01*
X24000000Y-38500000D02*
X24000000Y-42900000D01*
X23500000Y-38000000D02*
X24000000Y-38500000D01*
X40852500Y-24800000D02*
X43000000Y-24800000D01*
X43000000Y-24800000D02*
X43500000Y-25300000D01*
X45200000Y-24800000D02*
X44000000Y-24800000D01*
X44000000Y-24800000D02*
X43500000Y-25300000D01*
X40852500Y-10800000D02*
X43000000Y-10800000D01*
X43000000Y-10800000D02*
X43500000Y-11300000D01*
X45200000Y-10800000D02*
X44000000Y-10800000D01*
X44000000Y-10800000D02*
X43500000Y-11300000D01*
X18800000Y-41747500D02*
X18800000Y-40100000D01*
X18800000Y-40100000D02*
X18600000Y-39900000D01*
X45400000Y-35500000D02*
X46450000Y-36550000D01*
X46450000Y-36550000D02*
X46450000Y-37100000D01*
X46450000Y-39750000D02*
X46450000Y-41700000D01*
X46600000Y-39600000D02*
X46450000Y-39750000D01*
X41452500Y-35900000D02*
X43000000Y-35900000D01*
X43000000Y-35900000D02*
X43200000Y-36100000D01*
X41452500Y-40500000D02*
X43000000Y-40500000D01*
X43000000Y-40500000D02*
X43200000Y-40700000D01*
X41452500Y-38300000D02*
X43000000Y-38300000D01*
X43000000Y-38300000D02*
X43200000Y-38100000D01*
X41452500Y-42900000D02*
X43000000Y-42900000D01*
X43000000Y-42900000D02*
X43200000Y-42700000D01*
X32050000Y-41000000D02*
X32050000Y-39050000D01*
X32050000Y-39050000D02*
X33300000Y-37800000D01*
X27900000Y-36000000D02*
X26200000Y-36000000D01*
X26200000Y-36000000D02*
X25600000Y-35400000D01*
D38*
G36*
X44073480Y-1541698D02*
X43600539Y-2680667D01*
X43599463Y-3913923D01*
X44070415Y-5053715D01*
X44941698Y-5926520D01*
X46080667Y-6399461D01*
X47313923Y-6400537D01*
X48453715Y-5929585D01*
X49325000Y-5059819D01*
X49325000Y-44941692D01*
X48458302Y-44073480D01*
X47319333Y-43600539D01*
X46086077Y-43599463D01*
X44946285Y-44070415D01*
X44073480Y-44941698D01*
X43600539Y-46080667D01*
X43599463Y-47313923D01*
X44070415Y-48453715D01*
X44940181Y-49325000D01*
X39590000Y-49325000D01*
X39590000Y-47625000D01*
X39465000Y-47500000D01*
X38540000Y-47500000D01*
X38540000Y-47520000D01*
X37940000Y-47520000D01*
X37940000Y-47500000D01*
X37015000Y-47500000D01*
X36890000Y-47625000D01*
X36890000Y-49325000D01*
X34510000Y-49325000D01*
X34510000Y-47625000D01*
X34385000Y-47500000D01*
X33460000Y-47500000D01*
X33460000Y-47520000D01*
X32860000Y-47520000D01*
X32860000Y-47500000D01*
X31935000Y-47500000D01*
X31810000Y-47625000D01*
X31810000Y-49325000D01*
X29390000Y-49325000D01*
X29390000Y-47625000D01*
X29265000Y-47500000D01*
X28340000Y-47500000D01*
X28340000Y-47520000D01*
X27740000Y-47520000D01*
X27740000Y-47500000D01*
X26815000Y-47500000D01*
X26690000Y-47625000D01*
X26690000Y-49325000D01*
X24310000Y-49325000D01*
X24310000Y-47625000D01*
X24185000Y-47500000D01*
X23260000Y-47500000D01*
X23260000Y-47520000D01*
X22660000Y-47520000D01*
X22660000Y-47500000D01*
X21735000Y-47500000D01*
X21610000Y-47625000D01*
X21610000Y-49325000D01*
X5058308Y-49325000D01*
X5926520Y-48458302D01*
X6399461Y-47319333D01*
X6399842Y-46882261D01*
X8742003Y-46882261D01*
X8861218Y-47089598D01*
X9441618Y-47228273D01*
X10030907Y-47134281D01*
X10138782Y-47089598D01*
X10257997Y-46882261D01*
X9500000Y-46124264D01*
X8742003Y-46882261D01*
X6399842Y-46882261D01*
X6400537Y-46086077D01*
X6216891Y-45641618D01*
X7971727Y-45641618D01*
X8065719Y-46230907D01*
X8110402Y-46338782D01*
X8317739Y-46457997D01*
X9075736Y-45700000D01*
X9924264Y-45700000D01*
X10682261Y-46457997D01*
X10889598Y-46338782D01*
X11028273Y-45758382D01*
X10934281Y-45169093D01*
X10889598Y-45061218D01*
X10682261Y-44942003D01*
X9924264Y-45700000D01*
X9075736Y-45700000D01*
X8317739Y-44942003D01*
X8110402Y-45061218D01*
X7971727Y-45641618D01*
X6216891Y-45641618D01*
X5929585Y-44946285D01*
X5501787Y-44517739D01*
X8742003Y-44517739D01*
X9500000Y-45275736D01*
X10257997Y-44517739D01*
X10138782Y-44310402D01*
X9730981Y-44212966D01*
X10511298Y-44212966D01*
X10754866Y-44524170D01*
X11700800Y-44831357D01*
X12692284Y-44753168D01*
X13245134Y-44524170D01*
X13488702Y-44212966D01*
X12000000Y-42724264D01*
X10511298Y-44212966D01*
X9730981Y-44212966D01*
X9558382Y-44171727D01*
X8969093Y-44265719D01*
X8861218Y-44310402D01*
X8742003Y-44517739D01*
X5501787Y-44517739D01*
X5058302Y-44073480D01*
X3919333Y-43600539D01*
X2686077Y-43599463D01*
X1546285Y-44070415D01*
X675000Y-44940181D01*
X675000Y-42000800D01*
X9468643Y-42000800D01*
X9546832Y-42992284D01*
X9775830Y-43545134D01*
X10087034Y-43788702D01*
X11575736Y-42300000D01*
X10087034Y-40811298D01*
X9775830Y-41054866D01*
X9468643Y-42000800D01*
X675000Y-42000800D01*
X675000Y-40503000D01*
X3503000Y-40503000D01*
X3503000Y-41066456D01*
X3579120Y-41250227D01*
X3719773Y-41390879D01*
X3903544Y-41467000D01*
X4975000Y-41467000D01*
X5100000Y-41342000D01*
X5100000Y-40378000D01*
X5700000Y-40378000D01*
X5700000Y-41342000D01*
X5825000Y-41467000D01*
X6896456Y-41467000D01*
X7080227Y-41390879D01*
X7220880Y-41250227D01*
X7297000Y-41066456D01*
X7297000Y-40503000D01*
X7181034Y-40387034D01*
X10511298Y-40387034D01*
X12000000Y-41875736D01*
X13488702Y-40387034D01*
X13245134Y-40075830D01*
X12299200Y-39768643D01*
X11307716Y-39846832D01*
X10754866Y-40075830D01*
X10511298Y-40387034D01*
X7181034Y-40387034D01*
X7172000Y-40378000D01*
X5700000Y-40378000D01*
X5100000Y-40378000D01*
X3628000Y-40378000D01*
X3503000Y-40503000D01*
X675000Y-40503000D01*
X675000Y-39089544D01*
X3503000Y-39089544D01*
X3503000Y-39653000D01*
X3628000Y-39778000D01*
X5100000Y-39778000D01*
X5100000Y-38814000D01*
X5700000Y-38814000D01*
X5700000Y-39778000D01*
X7172000Y-39778000D01*
X7297000Y-39653000D01*
X7297000Y-39089544D01*
X7220880Y-38905773D01*
X7080227Y-38765121D01*
X6896456Y-38689000D01*
X5825000Y-38689000D01*
X5700000Y-38814000D01*
X5100000Y-38814000D01*
X4975000Y-38689000D01*
X3903544Y-38689000D01*
X3719773Y-38765121D01*
X3579120Y-38905773D01*
X3503000Y-39089544D01*
X675000Y-39089544D01*
X675000Y-31689000D01*
X2491246Y-31689000D01*
X2491246Y-33467000D01*
X2533083Y-33689346D01*
X2664490Y-33893558D01*
X2864993Y-34030556D01*
X3103000Y-34078754D01*
X4001058Y-34078754D01*
X4500000Y-34178000D01*
X6700000Y-34178000D01*
X6700000Y-34700000D01*
X5622000Y-34700000D01*
X5009707Y-34821793D01*
X4711204Y-35021246D01*
X4003000Y-35021246D01*
X3780654Y-35063083D01*
X3576442Y-35194490D01*
X3439444Y-35394993D01*
X3391246Y-35633000D01*
X3391246Y-37411000D01*
X3433083Y-37633346D01*
X3564490Y-37837558D01*
X3764993Y-37974556D01*
X4003000Y-38022754D01*
X4901057Y-38022754D01*
X5400000Y-38122000D01*
X5898943Y-38022754D01*
X6797000Y-38022754D01*
X7019346Y-37980917D01*
X7145094Y-37900000D01*
X9577403Y-37900000D01*
X9582479Y-37912286D01*
X10383497Y-38714704D01*
X11430613Y-39149504D01*
X12564413Y-39150494D01*
X13612286Y-38717521D01*
X14250000Y-38080920D01*
X14250000Y-41117225D01*
X14224170Y-41054866D01*
X13912966Y-40811298D01*
X12424264Y-42300000D01*
X13912966Y-43788702D01*
X14224170Y-43545134D01*
X14250000Y-43465595D01*
X14250000Y-44040812D01*
X14191082Y-44099730D01*
X14183137Y-44099723D01*
X13594857Y-44342795D01*
X13144377Y-44792489D01*
X12900278Y-45380344D01*
X12899723Y-46016863D01*
X13142795Y-46605143D01*
X13592489Y-47055623D01*
X14180344Y-47299722D01*
X14816863Y-47300277D01*
X15405143Y-47057205D01*
X15855623Y-46607511D01*
X16099722Y-46019656D01*
X16099731Y-46009457D01*
X16554594Y-45554594D01*
X16740921Y-45275736D01*
X16847237Y-45116623D01*
X16950000Y-44600000D01*
X16950000Y-44427500D01*
X17601178Y-44427500D01*
X17662990Y-44523558D01*
X17863493Y-44660556D01*
X18101500Y-44708754D01*
X19498500Y-44708754D01*
X19720846Y-44666917D01*
X19823992Y-44600544D01*
X21610000Y-44600544D01*
X21610000Y-46775000D01*
X21735000Y-46900000D01*
X22660000Y-46900000D01*
X22660000Y-44325000D01*
X23260000Y-44325000D01*
X23260000Y-46900000D01*
X24185000Y-46900000D01*
X24310000Y-46775000D01*
X24310000Y-44600544D01*
X26690000Y-44600544D01*
X26690000Y-46775000D01*
X26815000Y-46900000D01*
X27740000Y-46900000D01*
X27740000Y-44325000D01*
X28340000Y-44325000D01*
X28340000Y-46900000D01*
X29265000Y-46900000D01*
X29390000Y-46775000D01*
X29390000Y-44600544D01*
X31810000Y-44600544D01*
X31810000Y-46775000D01*
X31935000Y-46900000D01*
X32860000Y-46900000D01*
X32860000Y-44325000D01*
X33460000Y-44325000D01*
X33460000Y-46900000D01*
X34385000Y-46900000D01*
X34510000Y-46775000D01*
X34510000Y-44600544D01*
X36890000Y-44600544D01*
X36890000Y-46775000D01*
X37015000Y-46900000D01*
X37940000Y-46900000D01*
X37940000Y-44325000D01*
X38540000Y-44325000D01*
X38540000Y-46900000D01*
X39465000Y-46900000D01*
X39590000Y-46775000D01*
X39590000Y-44600544D01*
X39513879Y-44416773D01*
X39373227Y-44276120D01*
X39189456Y-44200000D01*
X38665000Y-44200000D01*
X38540000Y-44325000D01*
X37940000Y-44325000D01*
X37815000Y-44200000D01*
X37290544Y-44200000D01*
X37106773Y-44276120D01*
X36966121Y-44416773D01*
X36890000Y-44600544D01*
X34510000Y-44600544D01*
X34433879Y-44416773D01*
X34293227Y-44276120D01*
X34109456Y-44200000D01*
X33585000Y-44200000D01*
X33460000Y-44325000D01*
X32860000Y-44325000D01*
X32735000Y-44200000D01*
X32210544Y-44200000D01*
X32026773Y-44276120D01*
X31886121Y-44416773D01*
X31810000Y-44600544D01*
X29390000Y-44600544D01*
X29313879Y-44416773D01*
X29173227Y-44276120D01*
X28989456Y-44200000D01*
X28465000Y-44200000D01*
X28340000Y-44325000D01*
X27740000Y-44325000D01*
X27615000Y-44200000D01*
X27090544Y-44200000D01*
X26906773Y-44276120D01*
X26766121Y-44416773D01*
X26690000Y-44600544D01*
X24310000Y-44600544D01*
X24233879Y-44416773D01*
X24093227Y-44276120D01*
X23909456Y-44200000D01*
X23385000Y-44200000D01*
X23260000Y-44325000D01*
X22660000Y-44325000D01*
X22535000Y-44200000D01*
X22010544Y-44200000D01*
X21826773Y-44276120D01*
X21686121Y-44416773D01*
X21610000Y-44600544D01*
X19823992Y-44600544D01*
X19925058Y-44535510D01*
X20062056Y-44335007D01*
X20110254Y-44097000D01*
X20110254Y-43208000D01*
X20083498Y-43065803D01*
X20303000Y-43110254D01*
X21192000Y-43110254D01*
X21414346Y-43068417D01*
X21618558Y-42937010D01*
X21755556Y-42736507D01*
X21758785Y-42720561D01*
X21784121Y-42781727D01*
X21924773Y-42922380D01*
X22108544Y-42998500D01*
X22305250Y-42998500D01*
X22430250Y-42873500D01*
X22430250Y-42100000D01*
X22332500Y-42100000D01*
X22332500Y-41500000D01*
X22430250Y-41500000D01*
X22430250Y-40726500D01*
X22305250Y-40601500D01*
X22276846Y-40601500D01*
X22388556Y-40438007D01*
X22436754Y-40200000D01*
X22436754Y-39600000D01*
X22394917Y-39377654D01*
X22263510Y-39173442D01*
X22063007Y-39036444D01*
X21825000Y-38988246D01*
X20775000Y-38988246D01*
X20552654Y-39030083D01*
X20348442Y-39161490D01*
X20211444Y-39361993D01*
X20163246Y-39600000D01*
X20163246Y-39958738D01*
X20031493Y-40155920D01*
X19972500Y-40452500D01*
X19972500Y-40601178D01*
X19876442Y-40662990D01*
X19796292Y-40780293D01*
X19736507Y-40739444D01*
X19575000Y-40706738D01*
X19575000Y-40604202D01*
X19688556Y-40438007D01*
X19736754Y-40200000D01*
X19736754Y-39600000D01*
X19694917Y-39377654D01*
X19625000Y-39269000D01*
X19625000Y-39225000D01*
X19500000Y-39100000D01*
X19456024Y-39100000D01*
X19363007Y-39036444D01*
X19125000Y-38988246D01*
X18075000Y-38988246D01*
X17852654Y-39030083D01*
X17744000Y-39100000D01*
X17700000Y-39100000D01*
X17575000Y-39225000D01*
X17575000Y-39268976D01*
X17511444Y-39361993D01*
X17463246Y-39600000D01*
X17463246Y-40200000D01*
X17505083Y-40422346D01*
X17636490Y-40626558D01*
X17834473Y-40761834D01*
X17674942Y-40864490D01*
X17537944Y-41064993D01*
X17489746Y-41303000D01*
X17489746Y-42192000D01*
X17531583Y-42414346D01*
X17662990Y-42618558D01*
X17782547Y-42700248D01*
X17674942Y-42769490D01*
X17601142Y-42877500D01*
X16950000Y-42877500D01*
X16950000Y-38262149D01*
X17047238Y-38116622D01*
X17150000Y-37600000D01*
X17150000Y-37127500D01*
X17501178Y-37127500D01*
X17562990Y-37223558D01*
X17638914Y-37275435D01*
X17511444Y-37461993D01*
X17463246Y-37700000D01*
X17463246Y-38300000D01*
X17505083Y-38522346D01*
X17575000Y-38631000D01*
X17575000Y-38675000D01*
X17700000Y-38800000D01*
X17743976Y-38800000D01*
X17836993Y-38863556D01*
X18075000Y-38911754D01*
X19125000Y-38911754D01*
X19347346Y-38869917D01*
X19456000Y-38800000D01*
X19500000Y-38800000D01*
X19625000Y-38675000D01*
X19625000Y-38631024D01*
X19688556Y-38538007D01*
X19736754Y-38300000D01*
X19736754Y-37700000D01*
X19694917Y-37477654D01*
X19622836Y-37365637D01*
X19825058Y-37235510D01*
X19962056Y-37035007D01*
X19999623Y-36849495D01*
X20031583Y-37019346D01*
X20162990Y-37223558D01*
X20307087Y-37322015D01*
X20211444Y-37461993D01*
X20163246Y-37700000D01*
X20163246Y-38300000D01*
X20205083Y-38522346D01*
X20336490Y-38726558D01*
X20536993Y-38863556D01*
X20775000Y-38911754D01*
X21825000Y-38911754D01*
X22047346Y-38869917D01*
X22194851Y-38775000D01*
X23178984Y-38775000D01*
X23225000Y-38821016D01*
X23225000Y-40613323D01*
X23196456Y-40601500D01*
X22999750Y-40601500D01*
X22874750Y-40726500D01*
X22874750Y-41500000D01*
X22972500Y-41500000D01*
X22972500Y-42100000D01*
X22874750Y-42100000D01*
X22874750Y-42873500D01*
X22999750Y-42998500D01*
X23196456Y-42998500D01*
X23240929Y-42980079D01*
X23283993Y-43196580D01*
X23451992Y-43448008D01*
X23951992Y-43948008D01*
X24203420Y-44116007D01*
X24500000Y-44175001D01*
X24500005Y-44175000D01*
X36600000Y-44175000D01*
X36896580Y-44116007D01*
X37148008Y-43948008D01*
X37648008Y-43448008D01*
X37730199Y-43325000D01*
X38603000Y-43325000D01*
X38603000Y-43697956D01*
X38679121Y-43881727D01*
X38819773Y-44022380D01*
X39003544Y-44098500D01*
X39200250Y-44098500D01*
X39325250Y-43973500D01*
X39325250Y-43200000D01*
X38728000Y-43200000D01*
X38603000Y-43325000D01*
X37730199Y-43325000D01*
X37816007Y-43196580D01*
X37875001Y-42900000D01*
X37875000Y-42899995D01*
X37875000Y-41275000D01*
X38505640Y-41275000D01*
X38533083Y-41420846D01*
X38664490Y-41625058D01*
X38862108Y-41760085D01*
X38819773Y-41777620D01*
X38679121Y-41918273D01*
X38603000Y-42102044D01*
X38603000Y-42475000D01*
X38728000Y-42600000D01*
X39325250Y-42600000D01*
X39325250Y-42580000D01*
X39769750Y-42580000D01*
X39769750Y-42600000D01*
X39867500Y-42600000D01*
X39867500Y-43200000D01*
X39769750Y-43200000D01*
X39769750Y-43973500D01*
X39894750Y-44098500D01*
X40091456Y-44098500D01*
X40275227Y-44022380D01*
X40415879Y-43881727D01*
X40439917Y-43823696D01*
X40569490Y-44025058D01*
X40769993Y-44162056D01*
X41008000Y-44210254D01*
X41897000Y-44210254D01*
X42119346Y-44168417D01*
X42323558Y-44037010D01*
X42432340Y-43877802D01*
X42600000Y-43911754D01*
X43800000Y-43911754D01*
X44022346Y-43869917D01*
X44226558Y-43738510D01*
X44363556Y-43538007D01*
X44411754Y-43300000D01*
X44411754Y-42100000D01*
X44369917Y-41877654D01*
X44254276Y-41697943D01*
X44363556Y-41538007D01*
X44411754Y-41300000D01*
X44411754Y-40900000D01*
X45088246Y-40900000D01*
X45088246Y-42500000D01*
X45130083Y-42722346D01*
X45261490Y-42926558D01*
X45461993Y-43063556D01*
X45700000Y-43111754D01*
X47200000Y-43111754D01*
X47422346Y-43069917D01*
X47626558Y-42938510D01*
X47763556Y-42738007D01*
X47811754Y-42500000D01*
X47811754Y-40900000D01*
X47769917Y-40677654D01*
X47638510Y-40473442D01*
X47438007Y-40336444D01*
X47304751Y-40309459D01*
X47447264Y-40167194D01*
X47599826Y-39799785D01*
X47600173Y-39401960D01*
X47448253Y-39034286D01*
X47167194Y-38752736D01*
X46799785Y-38600174D01*
X46401960Y-38599827D01*
X46034286Y-38751747D01*
X45752736Y-39032806D01*
X45600174Y-39400215D01*
X45599827Y-39798040D01*
X45675000Y-39979972D01*
X45675000Y-40292950D01*
X45477654Y-40330083D01*
X45273442Y-40461490D01*
X45136444Y-40661993D01*
X45088246Y-40900000D01*
X44411754Y-40900000D01*
X44411754Y-40100000D01*
X44369917Y-39877654D01*
X44238510Y-39673442D01*
X44038007Y-39536444D01*
X43800000Y-39488246D01*
X42600000Y-39488246D01*
X42429110Y-39520401D01*
X42350282Y-39397898D01*
X42432340Y-39277802D01*
X42600000Y-39311754D01*
X43800000Y-39311754D01*
X44022346Y-39269917D01*
X44226558Y-39138510D01*
X44363556Y-38938007D01*
X44411754Y-38700000D01*
X44411754Y-37500000D01*
X44369917Y-37277654D01*
X44254276Y-37097943D01*
X44363556Y-36938007D01*
X44411754Y-36700000D01*
X44411754Y-35726906D01*
X44551747Y-36065714D01*
X44832806Y-36347264D01*
X45088246Y-36453332D01*
X45088246Y-37900000D01*
X45130083Y-38122346D01*
X45261490Y-38326558D01*
X45461993Y-38463556D01*
X45700000Y-38511754D01*
X47200000Y-38511754D01*
X47422346Y-38469917D01*
X47626558Y-38338510D01*
X47763556Y-38138007D01*
X47811754Y-37900000D01*
X47811754Y-36300000D01*
X47769917Y-36077654D01*
X47638510Y-35873442D01*
X47438007Y-35736444D01*
X47200000Y-35688246D01*
X46684262Y-35688246D01*
X46400084Y-35404068D01*
X46400173Y-35301960D01*
X46248253Y-34934286D01*
X45967194Y-34652736D01*
X45599785Y-34500174D01*
X45201960Y-34499827D01*
X44834286Y-34651747D01*
X44552736Y-34932806D01*
X44400174Y-35300215D01*
X44400054Y-35437819D01*
X44369917Y-35277654D01*
X44238510Y-35073442D01*
X44038007Y-34936444D01*
X43800000Y-34888246D01*
X42600000Y-34888246D01*
X42429110Y-34920401D01*
X42335510Y-34774942D01*
X42135007Y-34637944D01*
X41897000Y-34589746D01*
X41008000Y-34589746D01*
X40785654Y-34631583D01*
X40581442Y-34762990D01*
X40499752Y-34882547D01*
X40430510Y-34774942D01*
X40230007Y-34637944D01*
X39992000Y-34589746D01*
X39103000Y-34589746D01*
X38880654Y-34631583D01*
X38676442Y-34762990D01*
X38539444Y-34963493D01*
X38506738Y-35125000D01*
X37600005Y-35125000D01*
X37600000Y-35124999D01*
X37303420Y-35183993D01*
X37051992Y-35351992D01*
X36551992Y-35851992D01*
X36383993Y-36103420D01*
X36325000Y-36400000D01*
X36325000Y-42578984D01*
X36278984Y-42625000D01*
X24821016Y-42625000D01*
X24775000Y-42578984D01*
X24775000Y-38500005D01*
X24775001Y-38500000D01*
X24716007Y-38203420D01*
X24548008Y-37951992D01*
X24048008Y-37451992D01*
X23796580Y-37283993D01*
X23500000Y-37225000D01*
X22432239Y-37225000D01*
X22562056Y-37035007D01*
X22610254Y-36797000D01*
X22610254Y-35908000D01*
X22568417Y-35685654D01*
X22437010Y-35481442D01*
X22236507Y-35344444D01*
X22220561Y-35341215D01*
X22281727Y-35315879D01*
X22422380Y-35175227D01*
X22498500Y-34991456D01*
X22498500Y-34794750D01*
X22373500Y-34669750D01*
X21600000Y-34669750D01*
X21600000Y-34767500D01*
X21000000Y-34767500D01*
X21000000Y-34669750D01*
X20226500Y-34669750D01*
X20101500Y-34794750D01*
X20101500Y-34991456D01*
X20177620Y-35175227D01*
X20318273Y-35315879D01*
X20376304Y-35339917D01*
X20174942Y-35469490D01*
X20037944Y-35669993D01*
X20000377Y-35855505D01*
X19968417Y-35685654D01*
X19837010Y-35481442D01*
X19636507Y-35344444D01*
X19620561Y-35341215D01*
X19681727Y-35315879D01*
X19822380Y-35175227D01*
X19898500Y-34991456D01*
X19898500Y-34794750D01*
X19773500Y-34669750D01*
X19000000Y-34669750D01*
X19000000Y-34767500D01*
X18400000Y-34767500D01*
X18400000Y-34669750D01*
X17626500Y-34669750D01*
X17501500Y-34794750D01*
X17501500Y-34991456D01*
X17577620Y-35175227D01*
X17718273Y-35315879D01*
X17776304Y-35339917D01*
X17574942Y-35469490D01*
X17501142Y-35577500D01*
X17204569Y-35577500D01*
X16931371Y-35168629D01*
X16412293Y-34821793D01*
X15800000Y-34700000D01*
X14422597Y-34700000D01*
X14417521Y-34687714D01*
X13908696Y-34178000D01*
X15000000Y-34178000D01*
X15498942Y-34078754D01*
X16397000Y-34078754D01*
X16619346Y-34036917D01*
X16823558Y-33905510D01*
X16824901Y-33903544D01*
X17501500Y-33903544D01*
X17501500Y-34100250D01*
X17626500Y-34225250D01*
X18400000Y-34225250D01*
X18400000Y-33628000D01*
X19000000Y-33628000D01*
X19000000Y-34225250D01*
X19773500Y-34225250D01*
X19898500Y-34100250D01*
X19898500Y-33903544D01*
X20101500Y-33903544D01*
X20101500Y-34100250D01*
X20226500Y-34225250D01*
X21000000Y-34225250D01*
X21000000Y-33628000D01*
X21600000Y-33628000D01*
X21600000Y-34225250D01*
X22373500Y-34225250D01*
X22498500Y-34100250D01*
X22498500Y-33903544D01*
X22422380Y-33719773D01*
X22281727Y-33579121D01*
X22097956Y-33503000D01*
X21725000Y-33503000D01*
X21600000Y-33628000D01*
X21000000Y-33628000D01*
X20875000Y-33503000D01*
X20502044Y-33503000D01*
X20318273Y-33579121D01*
X20177620Y-33719773D01*
X20101500Y-33903544D01*
X19898500Y-33903544D01*
X19822380Y-33719773D01*
X19681727Y-33579121D01*
X19497956Y-33503000D01*
X19125000Y-33503000D01*
X19000000Y-33628000D01*
X18400000Y-33628000D01*
X18275000Y-33503000D01*
X17902044Y-33503000D01*
X17718273Y-33579121D01*
X17577620Y-33719773D01*
X17501500Y-33903544D01*
X16824901Y-33903544D01*
X16960556Y-33705007D01*
X17008754Y-33467000D01*
X17008754Y-31689000D01*
X16966917Y-31466654D01*
X16835510Y-31262442D01*
X16635007Y-31125444D01*
X16397000Y-31077246D01*
X15498942Y-31077246D01*
X15000000Y-30978000D01*
X4500000Y-30978000D01*
X4001058Y-31077246D01*
X3103000Y-31077246D01*
X2880654Y-31119083D01*
X2676442Y-31250490D01*
X2539444Y-31450993D01*
X2491246Y-31689000D01*
X675000Y-31689000D01*
X675000Y-29447000D01*
X2603000Y-29447000D01*
X2603000Y-30010456D01*
X2679120Y-30194227D01*
X2819773Y-30334879D01*
X3003544Y-30411000D01*
X4075000Y-30411000D01*
X4200000Y-30286000D01*
X4200000Y-29322000D01*
X4800000Y-29322000D01*
X4800000Y-30286000D01*
X4925000Y-30411000D01*
X5996456Y-30411000D01*
X6180227Y-30334879D01*
X6250000Y-30265106D01*
X6319773Y-30334879D01*
X6503544Y-30411000D01*
X7575000Y-30411000D01*
X7700000Y-30286000D01*
X7700000Y-29322000D01*
X8300000Y-29322000D01*
X8300000Y-30286000D01*
X8425000Y-30411000D01*
X9496456Y-30411000D01*
X9680227Y-30334879D01*
X9750000Y-30265106D01*
X9819773Y-30334879D01*
X10003544Y-30411000D01*
X11075000Y-30411000D01*
X11200000Y-30286000D01*
X11200000Y-29322000D01*
X11800000Y-29322000D01*
X11800000Y-30286000D01*
X11925000Y-30411000D01*
X12996456Y-30411000D01*
X13180227Y-30334879D01*
X13250000Y-30265106D01*
X13319773Y-30334879D01*
X13503544Y-30411000D01*
X14575000Y-30411000D01*
X14700000Y-30286000D01*
X14700000Y-29322000D01*
X15300000Y-29322000D01*
X15300000Y-30286000D01*
X15425000Y-30411000D01*
X16496456Y-30411000D01*
X16680227Y-30334879D01*
X16820880Y-30194227D01*
X16897000Y-30010456D01*
X16897000Y-29447000D01*
X16772000Y-29322000D01*
X15300000Y-29322000D01*
X14700000Y-29322000D01*
X11800000Y-29322000D01*
X11200000Y-29322000D01*
X8300000Y-29322000D01*
X7700000Y-29322000D01*
X4800000Y-29322000D01*
X4200000Y-29322000D01*
X2728000Y-29322000D01*
X2603000Y-29447000D01*
X675000Y-29447000D01*
X675000Y-28033544D01*
X2603000Y-28033544D01*
X2603000Y-28597000D01*
X2728000Y-28722000D01*
X4200000Y-28722000D01*
X4200000Y-27758000D01*
X4800000Y-27758000D01*
X4800000Y-28722000D01*
X7700000Y-28722000D01*
X7700000Y-27758000D01*
X8300000Y-27758000D01*
X8300000Y-28722000D01*
X11200000Y-28722000D01*
X11200000Y-27758000D01*
X11800000Y-27758000D01*
X11800000Y-28722000D01*
X14700000Y-28722000D01*
X14700000Y-27758000D01*
X15300000Y-27758000D01*
X15300000Y-28722000D01*
X16772000Y-28722000D01*
X16897000Y-28597000D01*
X16897000Y-28033544D01*
X16820880Y-27849773D01*
X16680227Y-27709121D01*
X16496456Y-27633000D01*
X15425000Y-27633000D01*
X15300000Y-27758000D01*
X14700000Y-27758000D01*
X14575000Y-27633000D01*
X13503544Y-27633000D01*
X13319773Y-27709121D01*
X13250000Y-27778894D01*
X13180227Y-27709121D01*
X12996456Y-27633000D01*
X11925000Y-27633000D01*
X11800000Y-27758000D01*
X11200000Y-27758000D01*
X11075000Y-27633000D01*
X10003544Y-27633000D01*
X9819773Y-27709121D01*
X9750000Y-27778894D01*
X9680227Y-27709121D01*
X9496456Y-27633000D01*
X8425000Y-27633000D01*
X8300000Y-27758000D01*
X7700000Y-27758000D01*
X7575000Y-27633000D01*
X6503544Y-27633000D01*
X6319773Y-27709121D01*
X6250000Y-27778894D01*
X6180227Y-27709121D01*
X5996456Y-27633000D01*
X4925000Y-27633000D01*
X4800000Y-27758000D01*
X4200000Y-27758000D01*
X4075000Y-27633000D01*
X3003544Y-27633000D01*
X2819773Y-27709121D01*
X2679120Y-27849773D01*
X2603000Y-28033544D01*
X675000Y-28033544D01*
X675000Y-24490000D01*
X2275000Y-24490000D01*
X2400000Y-24365000D01*
X2400000Y-23440000D01*
X3000000Y-23440000D01*
X3000000Y-24365000D01*
X3125000Y-24490000D01*
X5299456Y-24490000D01*
X5483227Y-24413879D01*
X5623880Y-24273227D01*
X5700000Y-24089456D01*
X5700000Y-23565000D01*
X5575000Y-23440000D01*
X3000000Y-23440000D01*
X2400000Y-23440000D01*
X2380000Y-23440000D01*
X2380000Y-22840000D01*
X2400000Y-22840000D01*
X2400000Y-22820000D01*
X3000000Y-22820000D01*
X3000000Y-22840000D01*
X5575000Y-22840000D01*
X5700000Y-22715000D01*
X5700000Y-22190544D01*
X5623880Y-22006773D01*
X5522546Y-21905440D01*
X5626558Y-21838510D01*
X5763556Y-21638007D01*
X5811754Y-21400000D01*
X5811754Y-21375000D01*
X6078984Y-21375000D01*
X7251992Y-22548008D01*
X7503420Y-22716007D01*
X7701971Y-22755501D01*
X7733083Y-22920846D01*
X7864490Y-23125058D01*
X8064993Y-23262056D01*
X8303000Y-23310254D01*
X9192000Y-23310254D01*
X9414346Y-23268417D01*
X9618558Y-23137010D01*
X9700248Y-23017453D01*
X9769490Y-23125058D01*
X9969993Y-23262056D01*
X10208000Y-23310254D01*
X11097000Y-23310254D01*
X11319346Y-23268417D01*
X11523558Y-23137010D01*
X11660556Y-22936507D01*
X11693262Y-22775000D01*
X12178984Y-22775000D01*
X14649903Y-25245918D01*
X14649637Y-25550883D01*
X14968669Y-26323000D01*
X15558893Y-26914255D01*
X16330452Y-27234634D01*
X17165883Y-27235363D01*
X17800000Y-26973351D01*
X17800000Y-31200000D01*
X17806839Y-31236346D01*
X17828319Y-31269727D01*
X17861094Y-31292121D01*
X17900000Y-31300000D01*
X26300000Y-31300000D01*
X26300000Y-34685774D01*
X26167194Y-34552736D01*
X25799785Y-34400174D01*
X25401960Y-34399827D01*
X25034286Y-34551747D01*
X24752736Y-34832806D01*
X24600174Y-35200215D01*
X24599827Y-35598040D01*
X24751747Y-35965714D01*
X25032806Y-36247264D01*
X25400215Y-36399826D01*
X25503900Y-36399916D01*
X25538246Y-36434262D01*
X25538246Y-36700000D01*
X25580083Y-36922346D01*
X25650000Y-37031000D01*
X25650000Y-37375000D01*
X25775000Y-37500000D01*
X26300000Y-37500000D01*
X26300000Y-38100000D01*
X25775000Y-38100000D01*
X25650000Y-38225000D01*
X25650000Y-38599456D01*
X25726120Y-38783227D01*
X25866773Y-38923879D01*
X26050544Y-39000000D01*
X26300000Y-39000000D01*
X26300000Y-41100000D01*
X26306839Y-41136346D01*
X26328319Y-41169727D01*
X26361094Y-41192121D01*
X26400000Y-41200000D01*
X27549825Y-41200000D01*
X27549723Y-41316863D01*
X27792795Y-41905143D01*
X28242489Y-42355623D01*
X28830344Y-42599722D01*
X29466863Y-42600277D01*
X30055143Y-42357205D01*
X30505623Y-41907511D01*
X30599931Y-41680394D01*
X30692795Y-41905143D01*
X31142489Y-42355623D01*
X31730344Y-42599722D01*
X32366863Y-42600277D01*
X32955143Y-42357205D01*
X33405623Y-41907511D01*
X33649722Y-41319656D01*
X33649826Y-41200000D01*
X34800000Y-41200000D01*
X34836346Y-41193161D01*
X34869727Y-41171681D01*
X34892121Y-41138906D01*
X34900000Y-41100000D01*
X34900000Y-39111754D01*
X35050000Y-39111754D01*
X35272346Y-39069917D01*
X35476558Y-38938510D01*
X35613556Y-38738007D01*
X35661754Y-38500000D01*
X35661754Y-37100000D01*
X35622740Y-36892656D01*
X35661754Y-36700000D01*
X35661754Y-35300000D01*
X35619917Y-35077654D01*
X35488510Y-34873442D01*
X35288007Y-34736444D01*
X35050000Y-34688246D01*
X34900000Y-34688246D01*
X34900000Y-32962742D01*
X35968629Y-34031371D01*
X36487707Y-34378207D01*
X37100000Y-34500000D01*
X40600000Y-34500000D01*
X41212294Y-34378207D01*
X41731371Y-34031371D01*
X42087742Y-33675000D01*
X43400000Y-33675000D01*
X43400000Y-33899456D01*
X43476120Y-34083227D01*
X43616773Y-34223879D01*
X43800544Y-34300000D01*
X45075000Y-34300000D01*
X45200000Y-34175000D01*
X45200000Y-33550000D01*
X45800000Y-33550000D01*
X45800000Y-34175000D01*
X45925000Y-34300000D01*
X47199456Y-34300000D01*
X47383227Y-34223879D01*
X47523880Y-34083227D01*
X47600000Y-33899456D01*
X47600000Y-33675000D01*
X47475000Y-33550000D01*
X45800000Y-33550000D01*
X45200000Y-33550000D01*
X43525000Y-33550000D01*
X43400000Y-33675000D01*
X42087742Y-33675000D01*
X43362742Y-32400000D01*
X43592894Y-32400000D01*
X43476120Y-32516773D01*
X43400000Y-32700544D01*
X43400000Y-32925000D01*
X43525000Y-33050000D01*
X45200000Y-33050000D01*
X45200000Y-32980000D01*
X45800000Y-32980000D01*
X45800000Y-33050000D01*
X47475000Y-33050000D01*
X47600000Y-32925000D01*
X47600000Y-32700544D01*
X47523880Y-32516773D01*
X47383227Y-32376121D01*
X47199456Y-32300000D01*
X46531000Y-32300000D01*
X46626558Y-32238510D01*
X46763556Y-32038007D01*
X46811754Y-31800000D01*
X46811754Y-29800000D01*
X46769917Y-29577654D01*
X46638510Y-29373442D01*
X46443625Y-29240283D01*
X46483227Y-29223879D01*
X46623880Y-29083227D01*
X46700000Y-28899456D01*
X46700000Y-28225000D01*
X46575000Y-28100000D01*
X45500000Y-28100000D01*
X45500000Y-28120000D01*
X44945340Y-28120000D01*
X44939203Y-28100000D01*
X43800000Y-28100000D01*
X43800000Y-28120000D01*
X43200000Y-28120000D01*
X43200000Y-28100000D01*
X42060797Y-28100000D01*
X41996287Y-28310227D01*
X42117292Y-28535681D01*
X42488853Y-28932283D01*
X42594181Y-28979989D01*
X42206035Y-29239340D01*
X42160634Y-29307287D01*
X42087707Y-29321793D01*
X41933246Y-29425000D01*
X41794360Y-29425000D01*
X41766917Y-29279154D01*
X41635510Y-29074942D01*
X41435007Y-28937944D01*
X41197000Y-28889746D01*
X40310254Y-28889746D01*
X40310254Y-28008000D01*
X40268417Y-27785654D01*
X40137010Y-27581442D01*
X40017453Y-27499752D01*
X40125058Y-27430510D01*
X40262056Y-27230007D01*
X40310254Y-26992000D01*
X40310254Y-26103000D01*
X40307801Y-26089963D01*
X40408000Y-26110254D01*
X41297000Y-26110254D01*
X41519346Y-26068417D01*
X41723558Y-25937010D01*
X41855108Y-25744481D01*
X41880876Y-25874025D01*
X42206035Y-26360660D01*
X42594181Y-26620011D01*
X42488853Y-26667717D01*
X42117292Y-27064319D01*
X41996287Y-27289773D01*
X42060797Y-27500000D01*
X43200000Y-27500000D01*
X43200000Y-27480000D01*
X43800000Y-27480000D01*
X43800000Y-27500000D01*
X44939203Y-27500000D01*
X44945340Y-27480000D01*
X45500000Y-27480000D01*
X45500000Y-27500000D01*
X46575000Y-27500000D01*
X46700000Y-27375000D01*
X46700000Y-26700544D01*
X46623880Y-26516773D01*
X46483227Y-26376121D01*
X46440323Y-26358349D01*
X46626558Y-26238510D01*
X46763556Y-26038007D01*
X46811754Y-25800000D01*
X46811754Y-23800000D01*
X46769917Y-23577654D01*
X46638510Y-23373442D01*
X46531024Y-23300000D01*
X47199456Y-23300000D01*
X47383227Y-23223879D01*
X47523880Y-23083227D01*
X47600000Y-22899456D01*
X47600000Y-22675000D01*
X47475000Y-22550000D01*
X45800000Y-22550000D01*
X45800000Y-22620000D01*
X45200000Y-22620000D01*
X45200000Y-22550000D01*
X43525000Y-22550000D01*
X43400000Y-22675000D01*
X43400000Y-22899456D01*
X43476120Y-23083227D01*
X43616773Y-23223879D01*
X43800544Y-23300000D01*
X43869000Y-23300000D01*
X43773442Y-23361490D01*
X43636444Y-23561993D01*
X43588246Y-23800000D01*
X43266695Y-23800000D01*
X42692670Y-23914181D01*
X42526818Y-24025000D01*
X41894360Y-24025000D01*
X41866917Y-23879154D01*
X41735510Y-23674942D01*
X41535007Y-23537944D01*
X41297000Y-23489746D01*
X40408000Y-23489746D01*
X40185654Y-23531583D01*
X39981442Y-23662990D01*
X39899752Y-23782547D01*
X39830510Y-23674942D01*
X39630007Y-23537944D01*
X39392000Y-23489746D01*
X38671169Y-23489746D01*
X38648253Y-23434286D01*
X38367194Y-23152736D01*
X37999785Y-23000174D01*
X37601960Y-22999827D01*
X37234286Y-23151747D01*
X36952736Y-23432806D01*
X36803898Y-23791246D01*
X36310915Y-23791246D01*
X36770137Y-23484404D01*
X37133231Y-22940995D01*
X37260733Y-22300000D01*
X37141494Y-21700544D01*
X43400000Y-21700544D01*
X43400000Y-21925000D01*
X43525000Y-22050000D01*
X45200000Y-22050000D01*
X45200000Y-21425000D01*
X45800000Y-21425000D01*
X45800000Y-22050000D01*
X47475000Y-22050000D01*
X47600000Y-21925000D01*
X47600000Y-21700544D01*
X47523880Y-21516773D01*
X47383227Y-21376121D01*
X47199456Y-21300000D01*
X45925000Y-21300000D01*
X45800000Y-21425000D01*
X45200000Y-21425000D01*
X45075000Y-21300000D01*
X43800544Y-21300000D01*
X43616773Y-21376121D01*
X43476120Y-21516773D01*
X43400000Y-21700544D01*
X37141494Y-21700544D01*
X37133231Y-21659005D01*
X36770137Y-21115596D01*
X36226728Y-20752502D01*
X35585733Y-20625000D01*
X35400000Y-20625000D01*
X35400000Y-20455000D01*
X40645000Y-20455000D01*
X41257294Y-20333207D01*
X41776371Y-19986371D01*
X42087742Y-19675000D01*
X43400000Y-19675000D01*
X43400000Y-19899456D01*
X43476120Y-20083227D01*
X43616773Y-20223879D01*
X43800544Y-20300000D01*
X45075000Y-20300000D01*
X45200000Y-20175000D01*
X45200000Y-19550000D01*
X45800000Y-19550000D01*
X45800000Y-20175000D01*
X45925000Y-20300000D01*
X47199456Y-20300000D01*
X47383227Y-20223879D01*
X47523880Y-20083227D01*
X47600000Y-19899456D01*
X47600000Y-19675000D01*
X47475000Y-19550000D01*
X45800000Y-19550000D01*
X45200000Y-19550000D01*
X43525000Y-19550000D01*
X43400000Y-19675000D01*
X42087742Y-19675000D01*
X43362742Y-18400000D01*
X43592894Y-18400000D01*
X43476120Y-18516773D01*
X43400000Y-18700544D01*
X43400000Y-18925000D01*
X43525000Y-19050000D01*
X45200000Y-19050000D01*
X45200000Y-18980000D01*
X45800000Y-18980000D01*
X45800000Y-19050000D01*
X47475000Y-19050000D01*
X47600000Y-18925000D01*
X47600000Y-18700544D01*
X47523880Y-18516773D01*
X47383227Y-18376121D01*
X47199456Y-18300000D01*
X46531000Y-18300000D01*
X46626558Y-18238510D01*
X46763556Y-18038007D01*
X46811754Y-17800000D01*
X46811754Y-15800000D01*
X46769917Y-15577654D01*
X46638510Y-15373442D01*
X46443625Y-15240283D01*
X46483227Y-15223879D01*
X46623880Y-15083227D01*
X46700000Y-14899456D01*
X46700000Y-14225000D01*
X46575000Y-14100000D01*
X45500000Y-14100000D01*
X45500000Y-14120000D01*
X44945340Y-14120000D01*
X44939203Y-14100000D01*
X43800000Y-14100000D01*
X43800000Y-14120000D01*
X43200000Y-14120000D01*
X43200000Y-14100000D01*
X42060797Y-14100000D01*
X41996287Y-14310227D01*
X42117292Y-14535681D01*
X42488853Y-14932283D01*
X42594181Y-14979989D01*
X42206035Y-15239340D01*
X42160635Y-15307287D01*
X42087706Y-15321793D01*
X41933246Y-15425000D01*
X41794360Y-15425000D01*
X41766917Y-15279154D01*
X41635510Y-15074942D01*
X41435007Y-14937944D01*
X41197000Y-14889746D01*
X40310254Y-14889746D01*
X40310254Y-14008000D01*
X40268417Y-13785654D01*
X40137010Y-13581442D01*
X40017453Y-13499752D01*
X40125058Y-13430510D01*
X40262056Y-13230007D01*
X40310254Y-12992000D01*
X40310254Y-12103000D01*
X40307801Y-12089963D01*
X40408000Y-12110254D01*
X41297000Y-12110254D01*
X41519346Y-12068417D01*
X41723558Y-11937010D01*
X41855108Y-11744481D01*
X41880876Y-11874025D01*
X42206035Y-12360660D01*
X42594181Y-12620011D01*
X42488853Y-12667717D01*
X42117292Y-13064319D01*
X41996287Y-13289773D01*
X42060797Y-13500000D01*
X43200000Y-13500000D01*
X43200000Y-13480000D01*
X43800000Y-13480000D01*
X43800000Y-13500000D01*
X44939203Y-13500000D01*
X44945340Y-13480000D01*
X45500000Y-13480000D01*
X45500000Y-13500000D01*
X46575000Y-13500000D01*
X46700000Y-13375000D01*
X46700000Y-12700544D01*
X46623880Y-12516773D01*
X46483227Y-12376121D01*
X46440323Y-12358349D01*
X46626558Y-12238510D01*
X46763556Y-12038007D01*
X46811754Y-11800000D01*
X46811754Y-9800000D01*
X46769917Y-9577654D01*
X46638510Y-9373442D01*
X46531024Y-9300000D01*
X47199456Y-9300000D01*
X47383227Y-9223879D01*
X47523880Y-9083227D01*
X47600000Y-8899456D01*
X47600000Y-8675000D01*
X47475000Y-8550000D01*
X45800000Y-8550000D01*
X45800000Y-8620000D01*
X45200000Y-8620000D01*
X45200000Y-8550000D01*
X43525000Y-8550000D01*
X43400000Y-8675000D01*
X43400000Y-8899456D01*
X43476120Y-9083227D01*
X43616773Y-9223879D01*
X43800544Y-9300000D01*
X43869000Y-9300000D01*
X43773442Y-9361490D01*
X43636444Y-9561993D01*
X43588246Y-9800000D01*
X43266695Y-9800000D01*
X42692670Y-9914181D01*
X42526818Y-10025000D01*
X41894360Y-10025000D01*
X41866917Y-9879154D01*
X41735510Y-9674942D01*
X41535007Y-9537944D01*
X41297000Y-9489746D01*
X40408000Y-9489746D01*
X40185654Y-9531583D01*
X39981442Y-9662990D01*
X39899752Y-9782547D01*
X39830510Y-9674942D01*
X39630007Y-9537944D01*
X39392000Y-9489746D01*
X38503000Y-9489746D01*
X38368950Y-9514969D01*
X38499826Y-9199785D01*
X38500173Y-8801960D01*
X38348253Y-8434286D01*
X38067194Y-8152736D01*
X37699785Y-8000174D01*
X37301960Y-7999827D01*
X36934286Y-8151747D01*
X36652736Y-8432806D01*
X36500174Y-8800215D01*
X36499827Y-9198040D01*
X36651747Y-9565714D01*
X36677500Y-9591512D01*
X36677500Y-9601178D01*
X36581442Y-9662990D01*
X36499752Y-9782547D01*
X36430510Y-9674942D01*
X36230007Y-9537944D01*
X35992000Y-9489746D01*
X35103000Y-9489746D01*
X34880654Y-9531583D01*
X34676442Y-9662990D01*
X34539444Y-9863493D01*
X34524926Y-9935185D01*
X34199785Y-9800174D01*
X33801960Y-9799827D01*
X33434286Y-9951747D01*
X33152736Y-10232806D01*
X33000174Y-10600215D01*
X32999827Y-10998040D01*
X33151747Y-11365714D01*
X33432806Y-11647264D01*
X33800215Y-11799826D01*
X34198040Y-11800173D01*
X34522763Y-11666000D01*
X34533083Y-11720846D01*
X34664490Y-11925058D01*
X34864993Y-12062056D01*
X35103000Y-12110254D01*
X35992000Y-12110254D01*
X36214346Y-12068417D01*
X36418558Y-11937010D01*
X36500248Y-11817453D01*
X36569490Y-11925058D01*
X36769993Y-12062056D01*
X37008000Y-12110254D01*
X37689746Y-12110254D01*
X37689746Y-12992000D01*
X37731583Y-13214346D01*
X37862990Y-13418558D01*
X37982547Y-13500248D01*
X37874942Y-13569490D01*
X37737944Y-13769993D01*
X37689746Y-14008000D01*
X37689746Y-14897000D01*
X37731583Y-15119346D01*
X37835828Y-15281348D01*
X37791246Y-15501500D01*
X37791246Y-16898500D01*
X37833083Y-17120846D01*
X37919409Y-17255000D01*
X35400000Y-17255000D01*
X35400000Y-15100000D01*
X35393161Y-15063654D01*
X35371681Y-15030273D01*
X35338906Y-15007879D01*
X35300000Y-15000000D01*
X24862742Y-15000000D01*
X22731371Y-12868629D01*
X22212294Y-12521793D01*
X21600000Y-12400000D01*
X11400000Y-12400000D01*
X10787707Y-12521793D01*
X10268629Y-12868629D01*
X9921793Y-13387707D01*
X9800000Y-14000000D01*
X9921793Y-14612293D01*
X10268629Y-15131371D01*
X10787707Y-15478207D01*
X11400000Y-15600000D01*
X17800000Y-15600000D01*
X17800000Y-17779619D01*
X17692854Y-17626882D01*
X16929146Y-17403702D01*
X16138166Y-17489769D01*
X15807146Y-17626882D01*
X15625328Y-17886064D01*
X16750000Y-19010736D01*
X16764143Y-18996594D01*
X17188407Y-19420858D01*
X17174264Y-19435000D01*
X17188407Y-19449143D01*
X16764143Y-19873407D01*
X16750000Y-19859264D01*
X15625328Y-20983936D01*
X15807146Y-21243118D01*
X16570854Y-21466298D01*
X17361834Y-21380231D01*
X17692854Y-21243118D01*
X17800000Y-21090381D01*
X17800000Y-22988984D01*
X17582250Y-23206734D01*
X17169548Y-23035366D01*
X16334117Y-23034637D01*
X15562000Y-23353669D01*
X15255575Y-23659560D01*
X13048008Y-21451992D01*
X12796580Y-21283993D01*
X12500000Y-21225000D01*
X11694360Y-21225000D01*
X11666917Y-21079154D01*
X11535510Y-20874942D01*
X11335007Y-20737944D01*
X11097000Y-20689746D01*
X10208000Y-20689746D01*
X9985654Y-20731583D01*
X9781442Y-20862990D01*
X9699752Y-20982547D01*
X9630510Y-20874942D01*
X9430007Y-20737944D01*
X9192000Y-20689746D01*
X8303000Y-20689746D01*
X8080654Y-20731583D01*
X7876442Y-20862990D01*
X7828773Y-20932757D01*
X6948008Y-20051992D01*
X6696580Y-19883993D01*
X6400000Y-19825000D01*
X5811754Y-19825000D01*
X5811754Y-19800000D01*
X5769917Y-19577654D01*
X5638510Y-19373442D01*
X5522756Y-19294350D01*
X5561252Y-19255854D01*
X14718702Y-19255854D01*
X14804769Y-20046834D01*
X14941882Y-20377854D01*
X15201064Y-20559672D01*
X16325736Y-19435000D01*
X15201064Y-18310328D01*
X14941882Y-18492146D01*
X14718702Y-19255854D01*
X5561252Y-19255854D01*
X5623880Y-19193227D01*
X5700000Y-19009456D01*
X5700000Y-18485000D01*
X5575000Y-18360000D01*
X3000000Y-18360000D01*
X3000000Y-18380000D01*
X2400000Y-18380000D01*
X2400000Y-18360000D01*
X2380000Y-18360000D01*
X2380000Y-17760000D01*
X2400000Y-17760000D01*
X2400000Y-16835000D01*
X3000000Y-16835000D01*
X3000000Y-17760000D01*
X5575000Y-17760000D01*
X5700000Y-17635000D01*
X5700000Y-17110544D01*
X5623880Y-16926773D01*
X5483227Y-16786121D01*
X5299456Y-16710000D01*
X3125000Y-16710000D01*
X3000000Y-16835000D01*
X2400000Y-16835000D01*
X2275000Y-16710000D01*
X675000Y-16710000D01*
X675000Y-7700544D01*
X43400000Y-7700544D01*
X43400000Y-7925000D01*
X43525000Y-8050000D01*
X45200000Y-8050000D01*
X45200000Y-7425000D01*
X45800000Y-7425000D01*
X45800000Y-8050000D01*
X47475000Y-8050000D01*
X47600000Y-7925000D01*
X47600000Y-7700544D01*
X47523880Y-7516773D01*
X47383227Y-7376121D01*
X47199456Y-7300000D01*
X45925000Y-7300000D01*
X45800000Y-7425000D01*
X45200000Y-7425000D01*
X45075000Y-7300000D01*
X43800544Y-7300000D01*
X43616773Y-7376121D01*
X43476120Y-7516773D01*
X43400000Y-7700544D01*
X675000Y-7700544D01*
X675000Y-5058308D01*
X1541698Y-5926520D01*
X2680667Y-6399461D01*
X3913923Y-6400537D01*
X5053715Y-5929585D01*
X5926520Y-5058302D01*
X6399461Y-3919333D01*
X6400537Y-2686077D01*
X5929585Y-1546285D01*
X5059819Y-675000D01*
X44941692Y-675000D01*
X44073480Y-1541698D01*
X44073480Y-1541698D01*
G37*
X44073480Y-1541698D02*
X43600539Y-2680667D01*
X43599463Y-3913923D01*
X44070415Y-5053715D01*
X44941698Y-5926520D01*
X46080667Y-6399461D01*
X47313923Y-6400537D01*
X48453715Y-5929585D01*
X49325000Y-5059819D01*
X49325000Y-44941692D01*
X48458302Y-44073480D01*
X47319333Y-43600539D01*
X46086077Y-43599463D01*
X44946285Y-44070415D01*
X44073480Y-44941698D01*
X43600539Y-46080667D01*
X43599463Y-47313923D01*
X44070415Y-48453715D01*
X44940181Y-49325000D01*
X39590000Y-49325000D01*
X39590000Y-47625000D01*
X39465000Y-47500000D01*
X38540000Y-47500000D01*
X38540000Y-47520000D01*
X37940000Y-47520000D01*
X37940000Y-47500000D01*
X37015000Y-47500000D01*
X36890000Y-47625000D01*
X36890000Y-49325000D01*
X34510000Y-49325000D01*
X34510000Y-47625000D01*
X34385000Y-47500000D01*
X33460000Y-47500000D01*
X33460000Y-47520000D01*
X32860000Y-47520000D01*
X32860000Y-47500000D01*
X31935000Y-47500000D01*
X31810000Y-47625000D01*
X31810000Y-49325000D01*
X29390000Y-49325000D01*
X29390000Y-47625000D01*
X29265000Y-47500000D01*
X28340000Y-47500000D01*
X28340000Y-47520000D01*
X27740000Y-47520000D01*
X27740000Y-47500000D01*
X26815000Y-47500000D01*
X26690000Y-47625000D01*
X26690000Y-49325000D01*
X24310000Y-49325000D01*
X24310000Y-47625000D01*
X24185000Y-47500000D01*
X23260000Y-47500000D01*
X23260000Y-47520000D01*
X22660000Y-47520000D01*
X22660000Y-47500000D01*
X21735000Y-47500000D01*
X21610000Y-47625000D01*
X21610000Y-49325000D01*
X5058308Y-49325000D01*
X5926520Y-48458302D01*
X6399461Y-47319333D01*
X6399842Y-46882261D01*
X8742003Y-46882261D01*
X8861218Y-47089598D01*
X9441618Y-47228273D01*
X10030907Y-47134281D01*
X10138782Y-47089598D01*
X10257997Y-46882261D01*
X9500000Y-46124264D01*
X8742003Y-46882261D01*
X6399842Y-46882261D01*
X6400537Y-46086077D01*
X6216891Y-45641618D01*
X7971727Y-45641618D01*
X8065719Y-46230907D01*
X8110402Y-46338782D01*
X8317739Y-46457997D01*
X9075736Y-45700000D01*
X9924264Y-45700000D01*
X10682261Y-46457997D01*
X10889598Y-46338782D01*
X11028273Y-45758382D01*
X10934281Y-45169093D01*
X10889598Y-45061218D01*
X10682261Y-44942003D01*
X9924264Y-45700000D01*
X9075736Y-45700000D01*
X8317739Y-44942003D01*
X8110402Y-45061218D01*
X7971727Y-45641618D01*
X6216891Y-45641618D01*
X5929585Y-44946285D01*
X5501787Y-44517739D01*
X8742003Y-44517739D01*
X9500000Y-45275736D01*
X10257997Y-44517739D01*
X10138782Y-44310402D01*
X9730981Y-44212966D01*
X10511298Y-44212966D01*
X10754866Y-44524170D01*
X11700800Y-44831357D01*
X12692284Y-44753168D01*
X13245134Y-44524170D01*
X13488702Y-44212966D01*
X12000000Y-42724264D01*
X10511298Y-44212966D01*
X9730981Y-44212966D01*
X9558382Y-44171727D01*
X8969093Y-44265719D01*
X8861218Y-44310402D01*
X8742003Y-44517739D01*
X5501787Y-44517739D01*
X5058302Y-44073480D01*
X3919333Y-43600539D01*
X2686077Y-43599463D01*
X1546285Y-44070415D01*
X675000Y-44940181D01*
X675000Y-42000800D01*
X9468643Y-42000800D01*
X9546832Y-42992284D01*
X9775830Y-43545134D01*
X10087034Y-43788702D01*
X11575736Y-42300000D01*
X10087034Y-40811298D01*
X9775830Y-41054866D01*
X9468643Y-42000800D01*
X675000Y-42000800D01*
X675000Y-40503000D01*
X3503000Y-40503000D01*
X3503000Y-41066456D01*
X3579120Y-41250227D01*
X3719773Y-41390879D01*
X3903544Y-41467000D01*
X4975000Y-41467000D01*
X5100000Y-41342000D01*
X5100000Y-40378000D01*
X5700000Y-40378000D01*
X5700000Y-41342000D01*
X5825000Y-41467000D01*
X6896456Y-41467000D01*
X7080227Y-41390879D01*
X7220880Y-41250227D01*
X7297000Y-41066456D01*
X7297000Y-40503000D01*
X7181034Y-40387034D01*
X10511298Y-40387034D01*
X12000000Y-41875736D01*
X13488702Y-40387034D01*
X13245134Y-40075830D01*
X12299200Y-39768643D01*
X11307716Y-39846832D01*
X10754866Y-40075830D01*
X10511298Y-40387034D01*
X7181034Y-40387034D01*
X7172000Y-40378000D01*
X5700000Y-40378000D01*
X5100000Y-40378000D01*
X3628000Y-40378000D01*
X3503000Y-40503000D01*
X675000Y-40503000D01*
X675000Y-39089544D01*
X3503000Y-39089544D01*
X3503000Y-39653000D01*
X3628000Y-39778000D01*
X5100000Y-39778000D01*
X5100000Y-38814000D01*
X5700000Y-38814000D01*
X5700000Y-39778000D01*
X7172000Y-39778000D01*
X7297000Y-39653000D01*
X7297000Y-39089544D01*
X7220880Y-38905773D01*
X7080227Y-38765121D01*
X6896456Y-38689000D01*
X5825000Y-38689000D01*
X5700000Y-38814000D01*
X5100000Y-38814000D01*
X4975000Y-38689000D01*
X3903544Y-38689000D01*
X3719773Y-38765121D01*
X3579120Y-38905773D01*
X3503000Y-39089544D01*
X675000Y-39089544D01*
X675000Y-31689000D01*
X2491246Y-31689000D01*
X2491246Y-33467000D01*
X2533083Y-33689346D01*
X2664490Y-33893558D01*
X2864993Y-34030556D01*
X3103000Y-34078754D01*
X4001058Y-34078754D01*
X4500000Y-34178000D01*
X6700000Y-34178000D01*
X6700000Y-34700000D01*
X5622000Y-34700000D01*
X5009707Y-34821793D01*
X4711204Y-35021246D01*
X4003000Y-35021246D01*
X3780654Y-35063083D01*
X3576442Y-35194490D01*
X3439444Y-35394993D01*
X3391246Y-35633000D01*
X3391246Y-37411000D01*
X3433083Y-37633346D01*
X3564490Y-37837558D01*
X3764993Y-37974556D01*
X4003000Y-38022754D01*
X4901057Y-38022754D01*
X5400000Y-38122000D01*
X5898943Y-38022754D01*
X6797000Y-38022754D01*
X7019346Y-37980917D01*
X7145094Y-37900000D01*
X9577403Y-37900000D01*
X9582479Y-37912286D01*
X10383497Y-38714704D01*
X11430613Y-39149504D01*
X12564413Y-39150494D01*
X13612286Y-38717521D01*
X14250000Y-38080920D01*
X14250000Y-41117225D01*
X14224170Y-41054866D01*
X13912966Y-40811298D01*
X12424264Y-42300000D01*
X13912966Y-43788702D01*
X14224170Y-43545134D01*
X14250000Y-43465595D01*
X14250000Y-44040812D01*
X14191082Y-44099730D01*
X14183137Y-44099723D01*
X13594857Y-44342795D01*
X13144377Y-44792489D01*
X12900278Y-45380344D01*
X12899723Y-46016863D01*
X13142795Y-46605143D01*
X13592489Y-47055623D01*
X14180344Y-47299722D01*
X14816863Y-47300277D01*
X15405143Y-47057205D01*
X15855623Y-46607511D01*
X16099722Y-46019656D01*
X16099731Y-46009457D01*
X16554594Y-45554594D01*
X16740921Y-45275736D01*
X16847237Y-45116623D01*
X16950000Y-44600000D01*
X16950000Y-44427500D01*
X17601178Y-44427500D01*
X17662990Y-44523558D01*
X17863493Y-44660556D01*
X18101500Y-44708754D01*
X19498500Y-44708754D01*
X19720846Y-44666917D01*
X19823992Y-44600544D01*
X21610000Y-44600544D01*
X21610000Y-46775000D01*
X21735000Y-46900000D01*
X22660000Y-46900000D01*
X22660000Y-44325000D01*
X23260000Y-44325000D01*
X23260000Y-46900000D01*
X24185000Y-46900000D01*
X24310000Y-46775000D01*
X24310000Y-44600544D01*
X26690000Y-44600544D01*
X26690000Y-46775000D01*
X26815000Y-46900000D01*
X27740000Y-46900000D01*
X27740000Y-44325000D01*
X28340000Y-44325000D01*
X28340000Y-46900000D01*
X29265000Y-46900000D01*
X29390000Y-46775000D01*
X29390000Y-44600544D01*
X31810000Y-44600544D01*
X31810000Y-46775000D01*
X31935000Y-46900000D01*
X32860000Y-46900000D01*
X32860000Y-44325000D01*
X33460000Y-44325000D01*
X33460000Y-46900000D01*
X34385000Y-46900000D01*
X34510000Y-46775000D01*
X34510000Y-44600544D01*
X36890000Y-44600544D01*
X36890000Y-46775000D01*
X37015000Y-46900000D01*
X37940000Y-46900000D01*
X37940000Y-44325000D01*
X38540000Y-44325000D01*
X38540000Y-46900000D01*
X39465000Y-46900000D01*
X39590000Y-46775000D01*
X39590000Y-44600544D01*
X39513879Y-44416773D01*
X39373227Y-44276120D01*
X39189456Y-44200000D01*
X38665000Y-44200000D01*
X38540000Y-44325000D01*
X37940000Y-44325000D01*
X37815000Y-44200000D01*
X37290544Y-44200000D01*
X37106773Y-44276120D01*
X36966121Y-44416773D01*
X36890000Y-44600544D01*
X34510000Y-44600544D01*
X34433879Y-44416773D01*
X34293227Y-44276120D01*
X34109456Y-44200000D01*
X33585000Y-44200000D01*
X33460000Y-44325000D01*
X32860000Y-44325000D01*
X32735000Y-44200000D01*
X32210544Y-44200000D01*
X32026773Y-44276120D01*
X31886121Y-44416773D01*
X31810000Y-44600544D01*
X29390000Y-44600544D01*
X29313879Y-44416773D01*
X29173227Y-44276120D01*
X28989456Y-44200000D01*
X28465000Y-44200000D01*
X28340000Y-44325000D01*
X27740000Y-44325000D01*
X27615000Y-44200000D01*
X27090544Y-44200000D01*
X26906773Y-44276120D01*
X26766121Y-44416773D01*
X26690000Y-44600544D01*
X24310000Y-44600544D01*
X24233879Y-44416773D01*
X24093227Y-44276120D01*
X23909456Y-44200000D01*
X23385000Y-44200000D01*
X23260000Y-44325000D01*
X22660000Y-44325000D01*
X22535000Y-44200000D01*
X22010544Y-44200000D01*
X21826773Y-44276120D01*
X21686121Y-44416773D01*
X21610000Y-44600544D01*
X19823992Y-44600544D01*
X19925058Y-44535510D01*
X20062056Y-44335007D01*
X20110254Y-44097000D01*
X20110254Y-43208000D01*
X20083498Y-43065803D01*
X20303000Y-43110254D01*
X21192000Y-43110254D01*
X21414346Y-43068417D01*
X21618558Y-42937010D01*
X21755556Y-42736507D01*
X21758785Y-42720561D01*
X21784121Y-42781727D01*
X21924773Y-42922380D01*
X22108544Y-42998500D01*
X22305250Y-42998500D01*
X22430250Y-42873500D01*
X22430250Y-42100000D01*
X22332500Y-42100000D01*
X22332500Y-41500000D01*
X22430250Y-41500000D01*
X22430250Y-40726500D01*
X22305250Y-40601500D01*
X22276846Y-40601500D01*
X22388556Y-40438007D01*
X22436754Y-40200000D01*
X22436754Y-39600000D01*
X22394917Y-39377654D01*
X22263510Y-39173442D01*
X22063007Y-39036444D01*
X21825000Y-38988246D01*
X20775000Y-38988246D01*
X20552654Y-39030083D01*
X20348442Y-39161490D01*
X20211444Y-39361993D01*
X20163246Y-39600000D01*
X20163246Y-39958738D01*
X20031493Y-40155920D01*
X19972500Y-40452500D01*
X19972500Y-40601178D01*
X19876442Y-40662990D01*
X19796292Y-40780293D01*
X19736507Y-40739444D01*
X19575000Y-40706738D01*
X19575000Y-40604202D01*
X19688556Y-40438007D01*
X19736754Y-40200000D01*
X19736754Y-39600000D01*
X19694917Y-39377654D01*
X19625000Y-39269000D01*
X19625000Y-39225000D01*
X19500000Y-39100000D01*
X19456024Y-39100000D01*
X19363007Y-39036444D01*
X19125000Y-38988246D01*
X18075000Y-38988246D01*
X17852654Y-39030083D01*
X17744000Y-39100000D01*
X17700000Y-39100000D01*
X17575000Y-39225000D01*
X17575000Y-39268976D01*
X17511444Y-39361993D01*
X17463246Y-39600000D01*
X17463246Y-40200000D01*
X17505083Y-40422346D01*
X17636490Y-40626558D01*
X17834473Y-40761834D01*
X17674942Y-40864490D01*
X17537944Y-41064993D01*
X17489746Y-41303000D01*
X17489746Y-42192000D01*
X17531583Y-42414346D01*
X17662990Y-42618558D01*
X17782547Y-42700248D01*
X17674942Y-42769490D01*
X17601142Y-42877500D01*
X16950000Y-42877500D01*
X16950000Y-38262149D01*
X17047238Y-38116622D01*
X17150000Y-37600000D01*
X17150000Y-37127500D01*
X17501178Y-37127500D01*
X17562990Y-37223558D01*
X17638914Y-37275435D01*
X17511444Y-37461993D01*
X17463246Y-37700000D01*
X17463246Y-38300000D01*
X17505083Y-38522346D01*
X17575000Y-38631000D01*
X17575000Y-38675000D01*
X17700000Y-38800000D01*
X17743976Y-38800000D01*
X17836993Y-38863556D01*
X18075000Y-38911754D01*
X19125000Y-38911754D01*
X19347346Y-38869917D01*
X19456000Y-38800000D01*
X19500000Y-38800000D01*
X19625000Y-38675000D01*
X19625000Y-38631024D01*
X19688556Y-38538007D01*
X19736754Y-38300000D01*
X19736754Y-37700000D01*
X19694917Y-37477654D01*
X19622836Y-37365637D01*
X19825058Y-37235510D01*
X19962056Y-37035007D01*
X19999623Y-36849495D01*
X20031583Y-37019346D01*
X20162990Y-37223558D01*
X20307087Y-37322015D01*
X20211444Y-37461993D01*
X20163246Y-37700000D01*
X20163246Y-38300000D01*
X20205083Y-38522346D01*
X20336490Y-38726558D01*
X20536993Y-38863556D01*
X20775000Y-38911754D01*
X21825000Y-38911754D01*
X22047346Y-38869917D01*
X22194851Y-38775000D01*
X23178984Y-38775000D01*
X23225000Y-38821016D01*
X23225000Y-40613323D01*
X23196456Y-40601500D01*
X22999750Y-40601500D01*
X22874750Y-40726500D01*
X22874750Y-41500000D01*
X22972500Y-41500000D01*
X22972500Y-42100000D01*
X22874750Y-42100000D01*
X22874750Y-42873500D01*
X22999750Y-42998500D01*
X23196456Y-42998500D01*
X23240929Y-42980079D01*
X23283993Y-43196580D01*
X23451992Y-43448008D01*
X23951992Y-43948008D01*
X24203420Y-44116007D01*
X24500000Y-44175001D01*
X24500005Y-44175000D01*
X36600000Y-44175000D01*
X36896580Y-44116007D01*
X37148008Y-43948008D01*
X37648008Y-43448008D01*
X37730199Y-43325000D01*
X38603000Y-43325000D01*
X38603000Y-43697956D01*
X38679121Y-43881727D01*
X38819773Y-44022380D01*
X39003544Y-44098500D01*
X39200250Y-44098500D01*
X39325250Y-43973500D01*
X39325250Y-43200000D01*
X38728000Y-43200000D01*
X38603000Y-43325000D01*
X37730199Y-43325000D01*
X37816007Y-43196580D01*
X37875001Y-42900000D01*
X37875000Y-42899995D01*
X37875000Y-41275000D01*
X38505640Y-41275000D01*
X38533083Y-41420846D01*
X38664490Y-41625058D01*
X38862108Y-41760085D01*
X38819773Y-41777620D01*
X38679121Y-41918273D01*
X38603000Y-42102044D01*
X38603000Y-42475000D01*
X38728000Y-42600000D01*
X39325250Y-42600000D01*
X39325250Y-42580000D01*
X39769750Y-42580000D01*
X39769750Y-42600000D01*
X39867500Y-42600000D01*
X39867500Y-43200000D01*
X39769750Y-43200000D01*
X39769750Y-43973500D01*
X39894750Y-44098500D01*
X40091456Y-44098500D01*
X40275227Y-44022380D01*
X40415879Y-43881727D01*
X40439917Y-43823696D01*
X40569490Y-44025058D01*
X40769993Y-44162056D01*
X41008000Y-44210254D01*
X41897000Y-44210254D01*
X42119346Y-44168417D01*
X42323558Y-44037010D01*
X42432340Y-43877802D01*
X42600000Y-43911754D01*
X43800000Y-43911754D01*
X44022346Y-43869917D01*
X44226558Y-43738510D01*
X44363556Y-43538007D01*
X44411754Y-43300000D01*
X44411754Y-42100000D01*
X44369917Y-41877654D01*
X44254276Y-41697943D01*
X44363556Y-41538007D01*
X44411754Y-41300000D01*
X44411754Y-40900000D01*
X45088246Y-40900000D01*
X45088246Y-42500000D01*
X45130083Y-42722346D01*
X45261490Y-42926558D01*
X45461993Y-43063556D01*
X45700000Y-43111754D01*
X47200000Y-43111754D01*
X47422346Y-43069917D01*
X47626558Y-42938510D01*
X47763556Y-42738007D01*
X47811754Y-42500000D01*
X47811754Y-40900000D01*
X47769917Y-40677654D01*
X47638510Y-40473442D01*
X47438007Y-40336444D01*
X47304751Y-40309459D01*
X47447264Y-40167194D01*
X47599826Y-39799785D01*
X47600173Y-39401960D01*
X47448253Y-39034286D01*
X47167194Y-38752736D01*
X46799785Y-38600174D01*
X46401960Y-38599827D01*
X46034286Y-38751747D01*
X45752736Y-39032806D01*
X45600174Y-39400215D01*
X45599827Y-39798040D01*
X45675000Y-39979972D01*
X45675000Y-40292950D01*
X45477654Y-40330083D01*
X45273442Y-40461490D01*
X45136444Y-40661993D01*
X45088246Y-40900000D01*
X44411754Y-40900000D01*
X44411754Y-40100000D01*
X44369917Y-39877654D01*
X44238510Y-39673442D01*
X44038007Y-39536444D01*
X43800000Y-39488246D01*
X42600000Y-39488246D01*
X42429110Y-39520401D01*
X42350282Y-39397898D01*
X42432340Y-39277802D01*
X42600000Y-39311754D01*
X43800000Y-39311754D01*
X44022346Y-39269917D01*
X44226558Y-39138510D01*
X44363556Y-38938007D01*
X44411754Y-38700000D01*
X44411754Y-37500000D01*
X44369917Y-37277654D01*
X44254276Y-37097943D01*
X44363556Y-36938007D01*
X44411754Y-36700000D01*
X44411754Y-35726906D01*
X44551747Y-36065714D01*
X44832806Y-36347264D01*
X45088246Y-36453332D01*
X45088246Y-37900000D01*
X45130083Y-38122346D01*
X45261490Y-38326558D01*
X45461993Y-38463556D01*
X45700000Y-38511754D01*
X47200000Y-38511754D01*
X47422346Y-38469917D01*
X47626558Y-38338510D01*
X47763556Y-38138007D01*
X47811754Y-37900000D01*
X47811754Y-36300000D01*
X47769917Y-36077654D01*
X47638510Y-35873442D01*
X47438007Y-35736444D01*
X47200000Y-35688246D01*
X46684262Y-35688246D01*
X46400084Y-35404068D01*
X46400173Y-35301960D01*
X46248253Y-34934286D01*
X45967194Y-34652736D01*
X45599785Y-34500174D01*
X45201960Y-34499827D01*
X44834286Y-34651747D01*
X44552736Y-34932806D01*
X44400174Y-35300215D01*
X44400054Y-35437819D01*
X44369917Y-35277654D01*
X44238510Y-35073442D01*
X44038007Y-34936444D01*
X43800000Y-34888246D01*
X42600000Y-34888246D01*
X42429110Y-34920401D01*
X42335510Y-34774942D01*
X42135007Y-34637944D01*
X41897000Y-34589746D01*
X41008000Y-34589746D01*
X40785654Y-34631583D01*
X40581442Y-34762990D01*
X40499752Y-34882547D01*
X40430510Y-34774942D01*
X40230007Y-34637944D01*
X39992000Y-34589746D01*
X39103000Y-34589746D01*
X38880654Y-34631583D01*
X38676442Y-34762990D01*
X38539444Y-34963493D01*
X38506738Y-35125000D01*
X37600005Y-35125000D01*
X37600000Y-35124999D01*
X37303420Y-35183993D01*
X37051992Y-35351992D01*
X36551992Y-35851992D01*
X36383993Y-36103420D01*
X36325000Y-36400000D01*
X36325000Y-42578984D01*
X36278984Y-42625000D01*
X24821016Y-42625000D01*
X24775000Y-42578984D01*
X24775000Y-38500005D01*
X24775001Y-38500000D01*
X24716007Y-38203420D01*
X24548008Y-37951992D01*
X24048008Y-37451992D01*
X23796580Y-37283993D01*
X23500000Y-37225000D01*
X22432239Y-37225000D01*
X22562056Y-37035007D01*
X22610254Y-36797000D01*
X22610254Y-35908000D01*
X22568417Y-35685654D01*
X22437010Y-35481442D01*
X22236507Y-35344444D01*
X22220561Y-35341215D01*
X22281727Y-35315879D01*
X22422380Y-35175227D01*
X22498500Y-34991456D01*
X22498500Y-34794750D01*
X22373500Y-34669750D01*
X21600000Y-34669750D01*
X21600000Y-34767500D01*
X21000000Y-34767500D01*
X21000000Y-34669750D01*
X20226500Y-34669750D01*
X20101500Y-34794750D01*
X20101500Y-34991456D01*
X20177620Y-35175227D01*
X20318273Y-35315879D01*
X20376304Y-35339917D01*
X20174942Y-35469490D01*
X20037944Y-35669993D01*
X20000377Y-35855505D01*
X19968417Y-35685654D01*
X19837010Y-35481442D01*
X19636507Y-35344444D01*
X19620561Y-35341215D01*
X19681727Y-35315879D01*
X19822380Y-35175227D01*
X19898500Y-34991456D01*
X19898500Y-34794750D01*
X19773500Y-34669750D01*
X19000000Y-34669750D01*
X19000000Y-34767500D01*
X18400000Y-34767500D01*
X18400000Y-34669750D01*
X17626500Y-34669750D01*
X17501500Y-34794750D01*
X17501500Y-34991456D01*
X17577620Y-35175227D01*
X17718273Y-35315879D01*
X17776304Y-35339917D01*
X17574942Y-35469490D01*
X17501142Y-35577500D01*
X17204569Y-35577500D01*
X16931371Y-35168629D01*
X16412293Y-34821793D01*
X15800000Y-34700000D01*
X14422597Y-34700000D01*
X14417521Y-34687714D01*
X13908696Y-34178000D01*
X15000000Y-34178000D01*
X15498942Y-34078754D01*
X16397000Y-34078754D01*
X16619346Y-34036917D01*
X16823558Y-33905510D01*
X16824901Y-33903544D01*
X17501500Y-33903544D01*
X17501500Y-34100250D01*
X17626500Y-34225250D01*
X18400000Y-34225250D01*
X18400000Y-33628000D01*
X19000000Y-33628000D01*
X19000000Y-34225250D01*
X19773500Y-34225250D01*
X19898500Y-34100250D01*
X19898500Y-33903544D01*
X20101500Y-33903544D01*
X20101500Y-34100250D01*
X20226500Y-34225250D01*
X21000000Y-34225250D01*
X21000000Y-33628000D01*
X21600000Y-33628000D01*
X21600000Y-34225250D01*
X22373500Y-34225250D01*
X22498500Y-34100250D01*
X22498500Y-33903544D01*
X22422380Y-33719773D01*
X22281727Y-33579121D01*
X22097956Y-33503000D01*
X21725000Y-33503000D01*
X21600000Y-33628000D01*
X21000000Y-33628000D01*
X20875000Y-33503000D01*
X20502044Y-33503000D01*
X20318273Y-33579121D01*
X20177620Y-33719773D01*
X20101500Y-33903544D01*
X19898500Y-33903544D01*
X19822380Y-33719773D01*
X19681727Y-33579121D01*
X19497956Y-33503000D01*
X19125000Y-33503000D01*
X19000000Y-33628000D01*
X18400000Y-33628000D01*
X18275000Y-33503000D01*
X17902044Y-33503000D01*
X17718273Y-33579121D01*
X17577620Y-33719773D01*
X17501500Y-33903544D01*
X16824901Y-33903544D01*
X16960556Y-33705007D01*
X17008754Y-33467000D01*
X17008754Y-31689000D01*
X16966917Y-31466654D01*
X16835510Y-31262442D01*
X16635007Y-31125444D01*
X16397000Y-31077246D01*
X15498942Y-31077246D01*
X15000000Y-30978000D01*
X4500000Y-30978000D01*
X4001058Y-31077246D01*
X3103000Y-31077246D01*
X2880654Y-31119083D01*
X2676442Y-31250490D01*
X2539444Y-31450993D01*
X2491246Y-31689000D01*
X675000Y-31689000D01*
X675000Y-29447000D01*
X2603000Y-29447000D01*
X2603000Y-30010456D01*
X2679120Y-30194227D01*
X2819773Y-30334879D01*
X3003544Y-30411000D01*
X4075000Y-30411000D01*
X4200000Y-30286000D01*
X4200000Y-29322000D01*
X4800000Y-29322000D01*
X4800000Y-30286000D01*
X4925000Y-30411000D01*
X5996456Y-30411000D01*
X6180227Y-30334879D01*
X6250000Y-30265106D01*
X6319773Y-30334879D01*
X6503544Y-30411000D01*
X7575000Y-30411000D01*
X7700000Y-30286000D01*
X7700000Y-29322000D01*
X8300000Y-29322000D01*
X8300000Y-30286000D01*
X8425000Y-30411000D01*
X9496456Y-30411000D01*
X9680227Y-30334879D01*
X9750000Y-30265106D01*
X9819773Y-30334879D01*
X10003544Y-30411000D01*
X11075000Y-30411000D01*
X11200000Y-30286000D01*
X11200000Y-29322000D01*
X11800000Y-29322000D01*
X11800000Y-30286000D01*
X11925000Y-30411000D01*
X12996456Y-30411000D01*
X13180227Y-30334879D01*
X13250000Y-30265106D01*
X13319773Y-30334879D01*
X13503544Y-30411000D01*
X14575000Y-30411000D01*
X14700000Y-30286000D01*
X14700000Y-29322000D01*
X15300000Y-29322000D01*
X15300000Y-30286000D01*
X15425000Y-30411000D01*
X16496456Y-30411000D01*
X16680227Y-30334879D01*
X16820880Y-30194227D01*
X16897000Y-30010456D01*
X16897000Y-29447000D01*
X16772000Y-29322000D01*
X15300000Y-29322000D01*
X14700000Y-29322000D01*
X11800000Y-29322000D01*
X11200000Y-29322000D01*
X8300000Y-29322000D01*
X7700000Y-29322000D01*
X4800000Y-29322000D01*
X4200000Y-29322000D01*
X2728000Y-29322000D01*
X2603000Y-29447000D01*
X675000Y-29447000D01*
X675000Y-28033544D01*
X2603000Y-28033544D01*
X2603000Y-28597000D01*
X2728000Y-28722000D01*
X4200000Y-28722000D01*
X4200000Y-27758000D01*
X4800000Y-27758000D01*
X4800000Y-28722000D01*
X7700000Y-28722000D01*
X7700000Y-27758000D01*
X8300000Y-27758000D01*
X8300000Y-28722000D01*
X11200000Y-28722000D01*
X11200000Y-27758000D01*
X11800000Y-27758000D01*
X11800000Y-28722000D01*
X14700000Y-28722000D01*
X14700000Y-27758000D01*
X15300000Y-27758000D01*
X15300000Y-28722000D01*
X16772000Y-28722000D01*
X16897000Y-28597000D01*
X16897000Y-28033544D01*
X16820880Y-27849773D01*
X16680227Y-27709121D01*
X16496456Y-27633000D01*
X15425000Y-27633000D01*
X15300000Y-27758000D01*
X14700000Y-27758000D01*
X14575000Y-27633000D01*
X13503544Y-27633000D01*
X13319773Y-27709121D01*
X13250000Y-27778894D01*
X13180227Y-27709121D01*
X12996456Y-27633000D01*
X11925000Y-27633000D01*
X11800000Y-27758000D01*
X11200000Y-27758000D01*
X11075000Y-27633000D01*
X10003544Y-27633000D01*
X9819773Y-27709121D01*
X9750000Y-27778894D01*
X9680227Y-27709121D01*
X9496456Y-27633000D01*
X8425000Y-27633000D01*
X8300000Y-27758000D01*
X7700000Y-27758000D01*
X7575000Y-27633000D01*
X6503544Y-27633000D01*
X6319773Y-27709121D01*
X6250000Y-27778894D01*
X6180227Y-27709121D01*
X5996456Y-27633000D01*
X4925000Y-27633000D01*
X4800000Y-27758000D01*
X4200000Y-27758000D01*
X4075000Y-27633000D01*
X3003544Y-27633000D01*
X2819773Y-27709121D01*
X2679120Y-27849773D01*
X2603000Y-28033544D01*
X675000Y-28033544D01*
X675000Y-24490000D01*
X2275000Y-24490000D01*
X2400000Y-24365000D01*
X2400000Y-23440000D01*
X3000000Y-23440000D01*
X3000000Y-24365000D01*
X3125000Y-24490000D01*
X5299456Y-24490000D01*
X5483227Y-24413879D01*
X5623880Y-24273227D01*
X5700000Y-24089456D01*
X5700000Y-23565000D01*
X5575000Y-23440000D01*
X3000000Y-23440000D01*
X2400000Y-23440000D01*
X2380000Y-23440000D01*
X2380000Y-22840000D01*
X2400000Y-22840000D01*
X2400000Y-22820000D01*
X3000000Y-22820000D01*
X3000000Y-22840000D01*
X5575000Y-22840000D01*
X5700000Y-22715000D01*
X5700000Y-22190544D01*
X5623880Y-22006773D01*
X5522546Y-21905440D01*
X5626558Y-21838510D01*
X5763556Y-21638007D01*
X5811754Y-21400000D01*
X5811754Y-21375000D01*
X6078984Y-21375000D01*
X7251992Y-22548008D01*
X7503420Y-22716007D01*
X7701971Y-22755501D01*
X7733083Y-22920846D01*
X7864490Y-23125058D01*
X8064993Y-23262056D01*
X8303000Y-23310254D01*
X9192000Y-23310254D01*
X9414346Y-23268417D01*
X9618558Y-23137010D01*
X9700248Y-23017453D01*
X9769490Y-23125058D01*
X9969993Y-23262056D01*
X10208000Y-23310254D01*
X11097000Y-23310254D01*
X11319346Y-23268417D01*
X11523558Y-23137010D01*
X11660556Y-22936507D01*
X11693262Y-22775000D01*
X12178984Y-22775000D01*
X14649903Y-25245918D01*
X14649637Y-25550883D01*
X14968669Y-26323000D01*
X15558893Y-26914255D01*
X16330452Y-27234634D01*
X17165883Y-27235363D01*
X17800000Y-26973351D01*
X17800000Y-31200000D01*
X17806839Y-31236346D01*
X17828319Y-31269727D01*
X17861094Y-31292121D01*
X17900000Y-31300000D01*
X26300000Y-31300000D01*
X26300000Y-34685774D01*
X26167194Y-34552736D01*
X25799785Y-34400174D01*
X25401960Y-34399827D01*
X25034286Y-34551747D01*
X24752736Y-34832806D01*
X24600174Y-35200215D01*
X24599827Y-35598040D01*
X24751747Y-35965714D01*
X25032806Y-36247264D01*
X25400215Y-36399826D01*
X25503900Y-36399916D01*
X25538246Y-36434262D01*
X25538246Y-36700000D01*
X25580083Y-36922346D01*
X25650000Y-37031000D01*
X25650000Y-37375000D01*
X25775000Y-37500000D01*
X26300000Y-37500000D01*
X26300000Y-38100000D01*
X25775000Y-38100000D01*
X25650000Y-38225000D01*
X25650000Y-38599456D01*
X25726120Y-38783227D01*
X25866773Y-38923879D01*
X26050544Y-39000000D01*
X26300000Y-39000000D01*
X26300000Y-41100000D01*
X26306839Y-41136346D01*
X26328319Y-41169727D01*
X26361094Y-41192121D01*
X26400000Y-41200000D01*
X27549825Y-41200000D01*
X27549723Y-41316863D01*
X27792795Y-41905143D01*
X28242489Y-42355623D01*
X28830344Y-42599722D01*
X29466863Y-42600277D01*
X30055143Y-42357205D01*
X30505623Y-41907511D01*
X30599931Y-41680394D01*
X30692795Y-41905143D01*
X31142489Y-42355623D01*
X31730344Y-42599722D01*
X32366863Y-42600277D01*
X32955143Y-42357205D01*
X33405623Y-41907511D01*
X33649722Y-41319656D01*
X33649826Y-41200000D01*
X34800000Y-41200000D01*
X34836346Y-41193161D01*
X34869727Y-41171681D01*
X34892121Y-41138906D01*
X34900000Y-41100000D01*
X34900000Y-39111754D01*
X35050000Y-39111754D01*
X35272346Y-39069917D01*
X35476558Y-38938510D01*
X35613556Y-38738007D01*
X35661754Y-38500000D01*
X35661754Y-37100000D01*
X35622740Y-36892656D01*
X35661754Y-36700000D01*
X35661754Y-35300000D01*
X35619917Y-35077654D01*
X35488510Y-34873442D01*
X35288007Y-34736444D01*
X35050000Y-34688246D01*
X34900000Y-34688246D01*
X34900000Y-32962742D01*
X35968629Y-34031371D01*
X36487707Y-34378207D01*
X37100000Y-34500000D01*
X40600000Y-34500000D01*
X41212294Y-34378207D01*
X41731371Y-34031371D01*
X42087742Y-33675000D01*
X43400000Y-33675000D01*
X43400000Y-33899456D01*
X43476120Y-34083227D01*
X43616773Y-34223879D01*
X43800544Y-34300000D01*
X45075000Y-34300000D01*
X45200000Y-34175000D01*
X45200000Y-33550000D01*
X45800000Y-33550000D01*
X45800000Y-34175000D01*
X45925000Y-34300000D01*
X47199456Y-34300000D01*
X47383227Y-34223879D01*
X47523880Y-34083227D01*
X47600000Y-33899456D01*
X47600000Y-33675000D01*
X47475000Y-33550000D01*
X45800000Y-33550000D01*
X45200000Y-33550000D01*
X43525000Y-33550000D01*
X43400000Y-33675000D01*
X42087742Y-33675000D01*
X43362742Y-32400000D01*
X43592894Y-32400000D01*
X43476120Y-32516773D01*
X43400000Y-32700544D01*
X43400000Y-32925000D01*
X43525000Y-33050000D01*
X45200000Y-33050000D01*
X45200000Y-32980000D01*
X45800000Y-32980000D01*
X45800000Y-33050000D01*
X47475000Y-33050000D01*
X47600000Y-32925000D01*
X47600000Y-32700544D01*
X47523880Y-32516773D01*
X47383227Y-32376121D01*
X47199456Y-32300000D01*
X46531000Y-32300000D01*
X46626558Y-32238510D01*
X46763556Y-32038007D01*
X46811754Y-31800000D01*
X46811754Y-29800000D01*
X46769917Y-29577654D01*
X46638510Y-29373442D01*
X46443625Y-29240283D01*
X46483227Y-29223879D01*
X46623880Y-29083227D01*
X46700000Y-28899456D01*
X46700000Y-28225000D01*
X46575000Y-28100000D01*
X45500000Y-28100000D01*
X45500000Y-28120000D01*
X44945340Y-28120000D01*
X44939203Y-28100000D01*
X43800000Y-28100000D01*
X43800000Y-28120000D01*
X43200000Y-28120000D01*
X43200000Y-28100000D01*
X42060797Y-28100000D01*
X41996287Y-28310227D01*
X42117292Y-28535681D01*
X42488853Y-28932283D01*
X42594181Y-28979989D01*
X42206035Y-29239340D01*
X42160634Y-29307287D01*
X42087707Y-29321793D01*
X41933246Y-29425000D01*
X41794360Y-29425000D01*
X41766917Y-29279154D01*
X41635510Y-29074942D01*
X41435007Y-28937944D01*
X41197000Y-28889746D01*
X40310254Y-28889746D01*
X40310254Y-28008000D01*
X40268417Y-27785654D01*
X40137010Y-27581442D01*
X40017453Y-27499752D01*
X40125058Y-27430510D01*
X40262056Y-27230007D01*
X40310254Y-26992000D01*
X40310254Y-26103000D01*
X40307801Y-26089963D01*
X40408000Y-26110254D01*
X41297000Y-26110254D01*
X41519346Y-26068417D01*
X41723558Y-25937010D01*
X41855108Y-25744481D01*
X41880876Y-25874025D01*
X42206035Y-26360660D01*
X42594181Y-26620011D01*
X42488853Y-26667717D01*
X42117292Y-27064319D01*
X41996287Y-27289773D01*
X42060797Y-27500000D01*
X43200000Y-27500000D01*
X43200000Y-27480000D01*
X43800000Y-27480000D01*
X43800000Y-27500000D01*
X44939203Y-27500000D01*
X44945340Y-27480000D01*
X45500000Y-27480000D01*
X45500000Y-27500000D01*
X46575000Y-27500000D01*
X46700000Y-27375000D01*
X46700000Y-26700544D01*
X46623880Y-26516773D01*
X46483227Y-26376121D01*
X46440323Y-26358349D01*
X46626558Y-26238510D01*
X46763556Y-26038007D01*
X46811754Y-25800000D01*
X46811754Y-23800000D01*
X46769917Y-23577654D01*
X46638510Y-23373442D01*
X46531024Y-23300000D01*
X47199456Y-23300000D01*
X47383227Y-23223879D01*
X47523880Y-23083227D01*
X47600000Y-22899456D01*
X47600000Y-22675000D01*
X47475000Y-22550000D01*
X45800000Y-22550000D01*
X45800000Y-22620000D01*
X45200000Y-22620000D01*
X45200000Y-22550000D01*
X43525000Y-22550000D01*
X43400000Y-22675000D01*
X43400000Y-22899456D01*
X43476120Y-23083227D01*
X43616773Y-23223879D01*
X43800544Y-23300000D01*
X43869000Y-23300000D01*
X43773442Y-23361490D01*
X43636444Y-23561993D01*
X43588246Y-23800000D01*
X43266695Y-23800000D01*
X42692670Y-23914181D01*
X42526818Y-24025000D01*
X41894360Y-24025000D01*
X41866917Y-23879154D01*
X41735510Y-23674942D01*
X41535007Y-23537944D01*
X41297000Y-23489746D01*
X40408000Y-23489746D01*
X40185654Y-23531583D01*
X39981442Y-23662990D01*
X39899752Y-23782547D01*
X39830510Y-23674942D01*
X39630007Y-23537944D01*
X39392000Y-23489746D01*
X38671169Y-23489746D01*
X38648253Y-23434286D01*
X38367194Y-23152736D01*
X37999785Y-23000174D01*
X37601960Y-22999827D01*
X37234286Y-23151747D01*
X36952736Y-23432806D01*
X36803898Y-23791246D01*
X36310915Y-23791246D01*
X36770137Y-23484404D01*
X37133231Y-22940995D01*
X37260733Y-22300000D01*
X37141494Y-21700544D01*
X43400000Y-21700544D01*
X43400000Y-21925000D01*
X43525000Y-22050000D01*
X45200000Y-22050000D01*
X45200000Y-21425000D01*
X45800000Y-21425000D01*
X45800000Y-22050000D01*
X47475000Y-22050000D01*
X47600000Y-21925000D01*
X47600000Y-21700544D01*
X47523880Y-21516773D01*
X47383227Y-21376121D01*
X47199456Y-21300000D01*
X45925000Y-21300000D01*
X45800000Y-21425000D01*
X45200000Y-21425000D01*
X45075000Y-21300000D01*
X43800544Y-21300000D01*
X43616773Y-21376121D01*
X43476120Y-21516773D01*
X43400000Y-21700544D01*
X37141494Y-21700544D01*
X37133231Y-21659005D01*
X36770137Y-21115596D01*
X36226728Y-20752502D01*
X35585733Y-20625000D01*
X35400000Y-20625000D01*
X35400000Y-20455000D01*
X40645000Y-20455000D01*
X41257294Y-20333207D01*
X41776371Y-19986371D01*
X42087742Y-19675000D01*
X43400000Y-19675000D01*
X43400000Y-19899456D01*
X43476120Y-20083227D01*
X43616773Y-20223879D01*
X43800544Y-20300000D01*
X45075000Y-20300000D01*
X45200000Y-20175000D01*
X45200000Y-19550000D01*
X45800000Y-19550000D01*
X45800000Y-20175000D01*
X45925000Y-20300000D01*
X47199456Y-20300000D01*
X47383227Y-20223879D01*
X47523880Y-20083227D01*
X47600000Y-19899456D01*
X47600000Y-19675000D01*
X47475000Y-19550000D01*
X45800000Y-19550000D01*
X45200000Y-19550000D01*
X43525000Y-19550000D01*
X43400000Y-19675000D01*
X42087742Y-19675000D01*
X43362742Y-18400000D01*
X43592894Y-18400000D01*
X43476120Y-18516773D01*
X43400000Y-18700544D01*
X43400000Y-18925000D01*
X43525000Y-19050000D01*
X45200000Y-19050000D01*
X45200000Y-18980000D01*
X45800000Y-18980000D01*
X45800000Y-19050000D01*
X47475000Y-19050000D01*
X47600000Y-18925000D01*
X47600000Y-18700544D01*
X47523880Y-18516773D01*
X47383227Y-18376121D01*
X47199456Y-18300000D01*
X46531000Y-18300000D01*
X46626558Y-18238510D01*
X46763556Y-18038007D01*
X46811754Y-17800000D01*
X46811754Y-15800000D01*
X46769917Y-15577654D01*
X46638510Y-15373442D01*
X46443625Y-15240283D01*
X46483227Y-15223879D01*
X46623880Y-15083227D01*
X46700000Y-14899456D01*
X46700000Y-14225000D01*
X46575000Y-14100000D01*
X45500000Y-14100000D01*
X45500000Y-14120000D01*
X44945340Y-14120000D01*
X44939203Y-14100000D01*
X43800000Y-14100000D01*
X43800000Y-14120000D01*
X43200000Y-14120000D01*
X43200000Y-14100000D01*
X42060797Y-14100000D01*
X41996287Y-14310227D01*
X42117292Y-14535681D01*
X42488853Y-14932283D01*
X42594181Y-14979989D01*
X42206035Y-15239340D01*
X42160635Y-15307287D01*
X42087706Y-15321793D01*
X41933246Y-15425000D01*
X41794360Y-15425000D01*
X41766917Y-15279154D01*
X41635510Y-15074942D01*
X41435007Y-14937944D01*
X41197000Y-14889746D01*
X40310254Y-14889746D01*
X40310254Y-14008000D01*
X40268417Y-13785654D01*
X40137010Y-13581442D01*
X40017453Y-13499752D01*
X40125058Y-13430510D01*
X40262056Y-13230007D01*
X40310254Y-12992000D01*
X40310254Y-12103000D01*
X40307801Y-12089963D01*
X40408000Y-12110254D01*
X41297000Y-12110254D01*
X41519346Y-12068417D01*
X41723558Y-11937010D01*
X41855108Y-11744481D01*
X41880876Y-11874025D01*
X42206035Y-12360660D01*
X42594181Y-12620011D01*
X42488853Y-12667717D01*
X42117292Y-13064319D01*
X41996287Y-13289773D01*
X42060797Y-13500000D01*
X43200000Y-13500000D01*
X43200000Y-13480000D01*
X43800000Y-13480000D01*
X43800000Y-13500000D01*
X44939203Y-13500000D01*
X44945340Y-13480000D01*
X45500000Y-13480000D01*
X45500000Y-13500000D01*
X46575000Y-13500000D01*
X46700000Y-13375000D01*
X46700000Y-12700544D01*
X46623880Y-12516773D01*
X46483227Y-12376121D01*
X46440323Y-12358349D01*
X46626558Y-12238510D01*
X46763556Y-12038007D01*
X46811754Y-11800000D01*
X46811754Y-9800000D01*
X46769917Y-9577654D01*
X46638510Y-9373442D01*
X46531024Y-9300000D01*
X47199456Y-9300000D01*
X47383227Y-9223879D01*
X47523880Y-9083227D01*
X47600000Y-8899456D01*
X47600000Y-8675000D01*
X47475000Y-8550000D01*
X45800000Y-8550000D01*
X45800000Y-8620000D01*
X45200000Y-8620000D01*
X45200000Y-8550000D01*
X43525000Y-8550000D01*
X43400000Y-8675000D01*
X43400000Y-8899456D01*
X43476120Y-9083227D01*
X43616773Y-9223879D01*
X43800544Y-9300000D01*
X43869000Y-9300000D01*
X43773442Y-9361490D01*
X43636444Y-9561993D01*
X43588246Y-9800000D01*
X43266695Y-9800000D01*
X42692670Y-9914181D01*
X42526818Y-10025000D01*
X41894360Y-10025000D01*
X41866917Y-9879154D01*
X41735510Y-9674942D01*
X41535007Y-9537944D01*
X41297000Y-9489746D01*
X40408000Y-9489746D01*
X40185654Y-9531583D01*
X39981442Y-9662990D01*
X39899752Y-9782547D01*
X39830510Y-9674942D01*
X39630007Y-9537944D01*
X39392000Y-9489746D01*
X38503000Y-9489746D01*
X38368950Y-9514969D01*
X38499826Y-9199785D01*
X38500173Y-8801960D01*
X38348253Y-8434286D01*
X38067194Y-8152736D01*
X37699785Y-8000174D01*
X37301960Y-7999827D01*
X36934286Y-8151747D01*
X36652736Y-8432806D01*
X36500174Y-8800215D01*
X36499827Y-9198040D01*
X36651747Y-9565714D01*
X36677500Y-9591512D01*
X36677500Y-9601178D01*
X36581442Y-9662990D01*
X36499752Y-9782547D01*
X36430510Y-9674942D01*
X36230007Y-9537944D01*
X35992000Y-9489746D01*
X35103000Y-9489746D01*
X34880654Y-9531583D01*
X34676442Y-9662990D01*
X34539444Y-9863493D01*
X34524926Y-9935185D01*
X34199785Y-9800174D01*
X33801960Y-9799827D01*
X33434286Y-9951747D01*
X33152736Y-10232806D01*
X33000174Y-10600215D01*
X32999827Y-10998040D01*
X33151747Y-11365714D01*
X33432806Y-11647264D01*
X33800215Y-11799826D01*
X34198040Y-11800173D01*
X34522763Y-11666000D01*
X34533083Y-11720846D01*
X34664490Y-11925058D01*
X34864993Y-12062056D01*
X35103000Y-12110254D01*
X35992000Y-12110254D01*
X36214346Y-12068417D01*
X36418558Y-11937010D01*
X36500248Y-11817453D01*
X36569490Y-11925058D01*
X36769993Y-12062056D01*
X37008000Y-12110254D01*
X37689746Y-12110254D01*
X37689746Y-12992000D01*
X37731583Y-13214346D01*
X37862990Y-13418558D01*
X37982547Y-13500248D01*
X37874942Y-13569490D01*
X37737944Y-13769993D01*
X37689746Y-14008000D01*
X37689746Y-14897000D01*
X37731583Y-15119346D01*
X37835828Y-15281348D01*
X37791246Y-15501500D01*
X37791246Y-16898500D01*
X37833083Y-17120846D01*
X37919409Y-17255000D01*
X35400000Y-17255000D01*
X35400000Y-15100000D01*
X35393161Y-15063654D01*
X35371681Y-15030273D01*
X35338906Y-15007879D01*
X35300000Y-15000000D01*
X24862742Y-15000000D01*
X22731371Y-12868629D01*
X22212294Y-12521793D01*
X21600000Y-12400000D01*
X11400000Y-12400000D01*
X10787707Y-12521793D01*
X10268629Y-12868629D01*
X9921793Y-13387707D01*
X9800000Y-14000000D01*
X9921793Y-14612293D01*
X10268629Y-15131371D01*
X10787707Y-15478207D01*
X11400000Y-15600000D01*
X17800000Y-15600000D01*
X17800000Y-17779619D01*
X17692854Y-17626882D01*
X16929146Y-17403702D01*
X16138166Y-17489769D01*
X15807146Y-17626882D01*
X15625328Y-17886064D01*
X16750000Y-19010736D01*
X16764143Y-18996594D01*
X17188407Y-19420858D01*
X17174264Y-19435000D01*
X17188407Y-19449143D01*
X16764143Y-19873407D01*
X16750000Y-19859264D01*
X15625328Y-20983936D01*
X15807146Y-21243118D01*
X16570854Y-21466298D01*
X17361834Y-21380231D01*
X17692854Y-21243118D01*
X17800000Y-21090381D01*
X17800000Y-22988984D01*
X17582250Y-23206734D01*
X17169548Y-23035366D01*
X16334117Y-23034637D01*
X15562000Y-23353669D01*
X15255575Y-23659560D01*
X13048008Y-21451992D01*
X12796580Y-21283993D01*
X12500000Y-21225000D01*
X11694360Y-21225000D01*
X11666917Y-21079154D01*
X11535510Y-20874942D01*
X11335007Y-20737944D01*
X11097000Y-20689746D01*
X10208000Y-20689746D01*
X9985654Y-20731583D01*
X9781442Y-20862990D01*
X9699752Y-20982547D01*
X9630510Y-20874942D01*
X9430007Y-20737944D01*
X9192000Y-20689746D01*
X8303000Y-20689746D01*
X8080654Y-20731583D01*
X7876442Y-20862990D01*
X7828773Y-20932757D01*
X6948008Y-20051992D01*
X6696580Y-19883993D01*
X6400000Y-19825000D01*
X5811754Y-19825000D01*
X5811754Y-19800000D01*
X5769917Y-19577654D01*
X5638510Y-19373442D01*
X5522756Y-19294350D01*
X5561252Y-19255854D01*
X14718702Y-19255854D01*
X14804769Y-20046834D01*
X14941882Y-20377854D01*
X15201064Y-20559672D01*
X16325736Y-19435000D01*
X15201064Y-18310328D01*
X14941882Y-18492146D01*
X14718702Y-19255854D01*
X5561252Y-19255854D01*
X5623880Y-19193227D01*
X5700000Y-19009456D01*
X5700000Y-18485000D01*
X5575000Y-18360000D01*
X3000000Y-18360000D01*
X3000000Y-18380000D01*
X2400000Y-18380000D01*
X2400000Y-18360000D01*
X2380000Y-18360000D01*
X2380000Y-17760000D01*
X2400000Y-17760000D01*
X2400000Y-16835000D01*
X3000000Y-16835000D01*
X3000000Y-17760000D01*
X5575000Y-17760000D01*
X5700000Y-17635000D01*
X5700000Y-17110544D01*
X5623880Y-16926773D01*
X5483227Y-16786121D01*
X5299456Y-16710000D01*
X3125000Y-16710000D01*
X3000000Y-16835000D01*
X2400000Y-16835000D01*
X2275000Y-16710000D01*
X675000Y-16710000D01*
X675000Y-7700544D01*
X43400000Y-7700544D01*
X43400000Y-7925000D01*
X43525000Y-8050000D01*
X45200000Y-8050000D01*
X45200000Y-7425000D01*
X45800000Y-7425000D01*
X45800000Y-8050000D01*
X47475000Y-8050000D01*
X47600000Y-7925000D01*
X47600000Y-7700544D01*
X47523880Y-7516773D01*
X47383227Y-7376121D01*
X47199456Y-7300000D01*
X45925000Y-7300000D01*
X45800000Y-7425000D01*
X45200000Y-7425000D01*
X45075000Y-7300000D01*
X43800544Y-7300000D01*
X43616773Y-7376121D01*
X43476120Y-7516773D01*
X43400000Y-7700544D01*
X675000Y-7700544D01*
X675000Y-5058308D01*
X1541698Y-5926520D01*
X2680667Y-6399461D01*
X3913923Y-6400537D01*
X5053715Y-5929585D01*
X5926520Y-5058302D01*
X6399461Y-3919333D01*
X6400537Y-2686077D01*
X5929585Y-1546285D01*
X5059819Y-675000D01*
X44941692Y-675000D01*
X44073480Y-1541698D01*
G36*
X38533083Y-36820846D02*
X38664490Y-37025058D01*
X38862108Y-37160085D01*
X38819773Y-37177620D01*
X38679121Y-37318273D01*
X38603000Y-37502044D01*
X38603000Y-37875000D01*
X38728000Y-38000000D01*
X39325250Y-38000000D01*
X39325250Y-37980000D01*
X39769750Y-37980000D01*
X39769750Y-38000000D01*
X39867500Y-38000000D01*
X39867500Y-38600000D01*
X39769750Y-38600000D01*
X39769750Y-38620000D01*
X39325250Y-38620000D01*
X39325250Y-38600000D01*
X38728000Y-38600000D01*
X38603000Y-38725000D01*
X38603000Y-39097956D01*
X38679121Y-39281727D01*
X38727517Y-39330124D01*
X38676442Y-39362990D01*
X38539444Y-39563493D01*
X38506738Y-39725000D01*
X37875000Y-39725000D01*
X37875000Y-36721016D01*
X37921016Y-36675000D01*
X38505640Y-36675000D01*
X38533083Y-36820846D01*
X38533083Y-36820846D01*
G37*
X38533083Y-36820846D02*
X38664490Y-37025058D01*
X38862108Y-37160085D01*
X38819773Y-37177620D01*
X38679121Y-37318273D01*
X38603000Y-37502044D01*
X38603000Y-37875000D01*
X38728000Y-38000000D01*
X39325250Y-38000000D01*
X39325250Y-37980000D01*
X39769750Y-37980000D01*
X39769750Y-38000000D01*
X39867500Y-38000000D01*
X39867500Y-38600000D01*
X39769750Y-38600000D01*
X39769750Y-38620000D01*
X39325250Y-38620000D01*
X39325250Y-38600000D01*
X38728000Y-38600000D01*
X38603000Y-38725000D01*
X38603000Y-39097956D01*
X38679121Y-39281727D01*
X38727517Y-39330124D01*
X38676442Y-39362990D01*
X38539444Y-39563493D01*
X38506738Y-39725000D01*
X37875000Y-39725000D01*
X37875000Y-36721016D01*
X37921016Y-36675000D01*
X38505640Y-36675000D01*
X38533083Y-36820846D01*
M02*
