%FSLAX46Y46*%
G04 Gerber Fmt 4.6, Leading zero omitted, Abs format (unit mm)*
G04 Created by KiCad (PCBNEW (2014-08-05 BZR 5054)-product) date Sun 07 Dec 2014 10:22:46 PM PST*
%MOMM*%
G01*
G04 APERTURE LIST*
%ADD10C,0.100000*%
%ADD11C,0.002540*%
G04 APERTURE END LIST*
D10*
X25433333Y-48049999D02*
X25400000Y-48116665D01*
X25400000Y-48249999D01*
X25433333Y-48316665D01*
X25500000Y-48383332D01*
X25566667Y-48416665D01*
X25700000Y-48416665D01*
X25766667Y-48383332D01*
X25833333Y-48316665D01*
X25866667Y-48249999D01*
X25866667Y-48116665D01*
X25833333Y-48049999D01*
X25166667Y-48183332D02*
X25200000Y-48349999D01*
X25300000Y-48516665D01*
X25466667Y-48616665D01*
X25633333Y-48649999D01*
X25800000Y-48616665D01*
X25966667Y-48516665D01*
X26066667Y-48349999D01*
X26100000Y-48183332D01*
X26066667Y-48016665D01*
X25966667Y-47849999D01*
X25800000Y-47749999D01*
X25633333Y-47716665D01*
X25466667Y-47749999D01*
X25300000Y-47849999D01*
X25200000Y-48016665D01*
X25166667Y-48183332D01*
X25333333Y-47449999D02*
X25300000Y-47416665D01*
X25266667Y-47349999D01*
X25266667Y-47183332D01*
X25300000Y-47116665D01*
X25333333Y-47083332D01*
X25400000Y-47049999D01*
X25466667Y-47049999D01*
X25566667Y-47083332D01*
X25966667Y-47483332D01*
X25966667Y-47049999D01*
X25266667Y-46616665D02*
X25266667Y-46549998D01*
X25300000Y-46483332D01*
X25333333Y-46449998D01*
X25400000Y-46416665D01*
X25533333Y-46383332D01*
X25700000Y-46383332D01*
X25833333Y-46416665D01*
X25900000Y-46449998D01*
X25933333Y-46483332D01*
X25966667Y-46549998D01*
X25966667Y-46616665D01*
X25933333Y-46683332D01*
X25900000Y-46716665D01*
X25833333Y-46749998D01*
X25700000Y-46783332D01*
X25533333Y-46783332D01*
X25400000Y-46749998D01*
X25333333Y-46716665D01*
X25300000Y-46683332D01*
X25266667Y-46616665D01*
X25966667Y-45716665D02*
X25966667Y-46116665D01*
X25966667Y-45916665D02*
X25266667Y-45916665D01*
X25366667Y-45983331D01*
X25433333Y-46049998D01*
X25466667Y-46116665D01*
X25500000Y-45116664D02*
X25966667Y-45116664D01*
X25233333Y-45283331D02*
X25733333Y-45449998D01*
X25733333Y-45016664D01*
X25933333Y-44249998D02*
X25966667Y-44149998D01*
X25966667Y-43983331D01*
X25933333Y-43916664D01*
X25900000Y-43883331D01*
X25833333Y-43849998D01*
X25766667Y-43849998D01*
X25700000Y-43883331D01*
X25666667Y-43916664D01*
X25633333Y-43983331D01*
X25600000Y-44116664D01*
X25566667Y-44183331D01*
X25533333Y-44216664D01*
X25466667Y-44249998D01*
X25400000Y-44249998D01*
X25333333Y-44216664D01*
X25300000Y-44183331D01*
X25266667Y-44116664D01*
X25266667Y-43949998D01*
X25300000Y-43849998D01*
X25966667Y-43449997D02*
X25933333Y-43516664D01*
X25900000Y-43549997D01*
X25833333Y-43583331D01*
X25633333Y-43583331D01*
X25566667Y-43549997D01*
X25533333Y-43516664D01*
X25500000Y-43449997D01*
X25500000Y-43349997D01*
X25533333Y-43283331D01*
X25566667Y-43249997D01*
X25633333Y-43216664D01*
X25833333Y-43216664D01*
X25900000Y-43249997D01*
X25933333Y-43283331D01*
X25966667Y-43349997D01*
X25966667Y-43449997D01*
X25500000Y-43016664D02*
X25500000Y-42749998D01*
X25966667Y-42916664D02*
X25366667Y-42916664D01*
X25300000Y-42883331D01*
X25266667Y-42816664D01*
X25266667Y-42749998D01*
X25500000Y-42616664D02*
X25500000Y-42349998D01*
X25266667Y-42516664D02*
X25866667Y-42516664D01*
X25933333Y-42483331D01*
X25966667Y-42416664D01*
X25966667Y-42349998D01*
X25933333Y-41849998D02*
X25966667Y-41916664D01*
X25966667Y-42049998D01*
X25933333Y-42116664D01*
X25866667Y-42149998D01*
X25600000Y-42149998D01*
X25533333Y-42116664D01*
X25500000Y-42049998D01*
X25500000Y-41916664D01*
X25533333Y-41849998D01*
X25600000Y-41816664D01*
X25666667Y-41816664D01*
X25733333Y-42149998D01*
X25966667Y-41516664D02*
X25500000Y-41516664D01*
X25633333Y-41516664D02*
X25566667Y-41483331D01*
X25533333Y-41449998D01*
X25500000Y-41383331D01*
X25500000Y-41316664D01*
X25966667Y-41083331D02*
X25266667Y-41083331D01*
X25600000Y-41083331D02*
X25600000Y-40683331D01*
X25966667Y-40683331D02*
X25266667Y-40683331D01*
X25966667Y-40049998D02*
X25600000Y-40049998D01*
X25533333Y-40083332D01*
X25500000Y-40149998D01*
X25500000Y-40283332D01*
X25533333Y-40349998D01*
X25933333Y-40049998D02*
X25966667Y-40116665D01*
X25966667Y-40283332D01*
X25933333Y-40349998D01*
X25866667Y-40383332D01*
X25800000Y-40383332D01*
X25733333Y-40349998D01*
X25700000Y-40283332D01*
X25700000Y-40116665D01*
X25666667Y-40049998D01*
X25966667Y-39716665D02*
X25500000Y-39716665D01*
X25633333Y-39716665D02*
X25566667Y-39683332D01*
X25533333Y-39649999D01*
X25500000Y-39583332D01*
X25500000Y-39516665D01*
X25966667Y-38983332D02*
X25266667Y-38983332D01*
X25933333Y-38983332D02*
X25966667Y-39049999D01*
X25966667Y-39183332D01*
X25933333Y-39249999D01*
X25900000Y-39283332D01*
X25833333Y-39316666D01*
X25633333Y-39316666D01*
X25566667Y-39283332D01*
X25533333Y-39249999D01*
X25500000Y-39183332D01*
X25500000Y-39049999D01*
X25533333Y-38983332D01*
X25500000Y-38716666D02*
X25966667Y-38583333D01*
X25633333Y-38449999D01*
X25966667Y-38316666D01*
X25500000Y-38183333D01*
X25966667Y-37616666D02*
X25600000Y-37616666D01*
X25533333Y-37650000D01*
X25500000Y-37716666D01*
X25500000Y-37850000D01*
X25533333Y-37916666D01*
X25933333Y-37616666D02*
X25966667Y-37683333D01*
X25966667Y-37850000D01*
X25933333Y-37916666D01*
X25866667Y-37950000D01*
X25800000Y-37950000D01*
X25733333Y-37916666D01*
X25700000Y-37850000D01*
X25700000Y-37683333D01*
X25666667Y-37616666D01*
X25966667Y-37283333D02*
X25500000Y-37283333D01*
X25633333Y-37283333D02*
X25566667Y-37250000D01*
X25533333Y-37216667D01*
X25500000Y-37150000D01*
X25500000Y-37083333D01*
X25933333Y-36583334D02*
X25966667Y-36650000D01*
X25966667Y-36783334D01*
X25933333Y-36850000D01*
X25866667Y-36883334D01*
X25600000Y-36883334D01*
X25533333Y-36850000D01*
X25500000Y-36783334D01*
X25500000Y-36650000D01*
X25533333Y-36583334D01*
X25600000Y-36550000D01*
X25666667Y-36550000D01*
X25733333Y-36883334D01*
X23626667Y-48533333D02*
X22926667Y-48533333D01*
X23260000Y-48533333D02*
X23260000Y-48133333D01*
X23626667Y-48133333D02*
X22926667Y-48133333D01*
X23593333Y-47533334D02*
X23626667Y-47600000D01*
X23626667Y-47733334D01*
X23593333Y-47800000D01*
X23526667Y-47833334D01*
X23260000Y-47833334D01*
X23193333Y-47800000D01*
X23160000Y-47733334D01*
X23160000Y-47600000D01*
X23193333Y-47533334D01*
X23260000Y-47500000D01*
X23326667Y-47500000D01*
X23393333Y-47833334D01*
X23626667Y-47200000D02*
X23160000Y-47200000D01*
X23293333Y-47200000D02*
X23226667Y-47166667D01*
X23193333Y-47133334D01*
X23160000Y-47066667D01*
X23160000Y-47000000D01*
X23626667Y-46766667D02*
X23160000Y-46766667D01*
X23226667Y-46766667D02*
X23193333Y-46733334D01*
X23160000Y-46666667D01*
X23160000Y-46566667D01*
X23193333Y-46500001D01*
X23260000Y-46466667D01*
X23626667Y-46466667D01*
X23260000Y-46466667D02*
X23193333Y-46433334D01*
X23160000Y-46366667D01*
X23160000Y-46266667D01*
X23193333Y-46200001D01*
X23260000Y-46166667D01*
X23626667Y-46166667D01*
X23593333Y-45566668D02*
X23626667Y-45633334D01*
X23626667Y-45766668D01*
X23593333Y-45833334D01*
X23526667Y-45866668D01*
X23260000Y-45866668D01*
X23193333Y-45833334D01*
X23160000Y-45766668D01*
X23160000Y-45633334D01*
X23193333Y-45566668D01*
X23260000Y-45533334D01*
X23326667Y-45533334D01*
X23393333Y-45866668D01*
X23593333Y-45266668D02*
X23626667Y-45200001D01*
X23626667Y-45066668D01*
X23593333Y-45000001D01*
X23526667Y-44966668D01*
X23493333Y-44966668D01*
X23426667Y-45000001D01*
X23393333Y-45066668D01*
X23393333Y-45166668D01*
X23360000Y-45233334D01*
X23293333Y-45266668D01*
X23260000Y-45266668D01*
X23193333Y-45233334D01*
X23160000Y-45166668D01*
X23160000Y-45066668D01*
X23193333Y-45000001D01*
X23360000Y-44666667D02*
X23360000Y-44133334D01*
X23626667Y-43466667D02*
X23626667Y-43800000D01*
X22926667Y-43800000D01*
X23626667Y-43233333D02*
X23160000Y-43233333D01*
X22926667Y-43233333D02*
X22960000Y-43266667D01*
X22993333Y-43233333D01*
X22960000Y-43200000D01*
X22926667Y-43233333D01*
X22993333Y-43233333D01*
X23160000Y-43000000D02*
X23160000Y-42733334D01*
X22926667Y-42900000D02*
X23526667Y-42900000D01*
X23593333Y-42866667D01*
X23626667Y-42800000D01*
X23626667Y-42733334D01*
X23593333Y-42233334D02*
X23626667Y-42300000D01*
X23626667Y-42433334D01*
X23593333Y-42500000D01*
X23526667Y-42533334D01*
X23260000Y-42533334D01*
X23193333Y-42500000D01*
X23160000Y-42433334D01*
X23160000Y-42300000D01*
X23193333Y-42233334D01*
X23260000Y-42200000D01*
X23326667Y-42200000D01*
X23393333Y-42533334D01*
X24340000Y-48300000D02*
X24373333Y-48200000D01*
X24406667Y-48166667D01*
X24473333Y-48133333D01*
X24573333Y-48133333D01*
X24640000Y-48166667D01*
X24673333Y-48200000D01*
X24706667Y-48266667D01*
X24706667Y-48533333D01*
X24006667Y-48533333D01*
X24006667Y-48300000D01*
X24040000Y-48233333D01*
X24073333Y-48200000D01*
X24140000Y-48166667D01*
X24206667Y-48166667D01*
X24273333Y-48200000D01*
X24306667Y-48233333D01*
X24340000Y-48300000D01*
X24340000Y-48533333D01*
X24706667Y-47533333D02*
X24340000Y-47533333D01*
X24273333Y-47566667D01*
X24240000Y-47633333D01*
X24240000Y-47766667D01*
X24273333Y-47833333D01*
X24673333Y-47533333D02*
X24706667Y-47600000D01*
X24706667Y-47766667D01*
X24673333Y-47833333D01*
X24606667Y-47866667D01*
X24540000Y-47866667D01*
X24473333Y-47833333D01*
X24440000Y-47766667D01*
X24440000Y-47600000D01*
X24406667Y-47533333D01*
X24673333Y-47233334D02*
X24706667Y-47166667D01*
X24706667Y-47033334D01*
X24673333Y-46966667D01*
X24606667Y-46933334D01*
X24573333Y-46933334D01*
X24506667Y-46966667D01*
X24473333Y-47033334D01*
X24473333Y-47133334D01*
X24440000Y-47200000D01*
X24373333Y-47233334D01*
X24340000Y-47233334D01*
X24273333Y-47200000D01*
X24240000Y-47133334D01*
X24240000Y-47033334D01*
X24273333Y-46966667D01*
X24706667Y-46633333D02*
X24240000Y-46633333D01*
X24006667Y-46633333D02*
X24040000Y-46666667D01*
X24073333Y-46633333D01*
X24040000Y-46600000D01*
X24006667Y-46633333D01*
X24073333Y-46633333D01*
X24673333Y-46000000D02*
X24706667Y-46066667D01*
X24706667Y-46200000D01*
X24673333Y-46266667D01*
X24640000Y-46300000D01*
X24573333Y-46333334D01*
X24373333Y-46333334D01*
X24306667Y-46300000D01*
X24273333Y-46266667D01*
X24240000Y-46200000D01*
X24240000Y-46066667D01*
X24273333Y-46000000D01*
X24340000Y-44933334D02*
X24340000Y-45166667D01*
X24706667Y-45166667D02*
X24006667Y-45166667D01*
X24006667Y-44833334D01*
X24706667Y-44566667D02*
X24240000Y-44566667D01*
X24373333Y-44566667D02*
X24306667Y-44533334D01*
X24273333Y-44500001D01*
X24240000Y-44433334D01*
X24240000Y-44366667D01*
X24706667Y-44033334D02*
X24673333Y-44100001D01*
X24640000Y-44133334D01*
X24573333Y-44166668D01*
X24373333Y-44166668D01*
X24306667Y-44133334D01*
X24273333Y-44100001D01*
X24240000Y-44033334D01*
X24240000Y-43933334D01*
X24273333Y-43866668D01*
X24306667Y-43833334D01*
X24373333Y-43800001D01*
X24573333Y-43800001D01*
X24640000Y-43833334D01*
X24673333Y-43866668D01*
X24706667Y-43933334D01*
X24706667Y-44033334D01*
X24240000Y-43500001D02*
X24706667Y-43500001D01*
X24306667Y-43500001D02*
X24273333Y-43466668D01*
X24240000Y-43400001D01*
X24240000Y-43300001D01*
X24273333Y-43233335D01*
X24340000Y-43200001D01*
X24706667Y-43200001D01*
X24240000Y-42966668D02*
X24240000Y-42700002D01*
X24006667Y-42866668D02*
X24606667Y-42866668D01*
X24673333Y-42833335D01*
X24706667Y-42766668D01*
X24706667Y-42700002D01*
X24673333Y-42200002D02*
X24706667Y-42266668D01*
X24706667Y-42400002D01*
X24673333Y-42466668D01*
X24606667Y-42500002D01*
X24340000Y-42500002D01*
X24273333Y-42466668D01*
X24240000Y-42400002D01*
X24240000Y-42266668D01*
X24273333Y-42200002D01*
X24340000Y-42166668D01*
X24406667Y-42166668D01*
X24473333Y-42500002D01*
X24240000Y-41866668D02*
X24706667Y-41866668D01*
X24306667Y-41866668D02*
X24273333Y-41833335D01*
X24240000Y-41766668D01*
X24240000Y-41666668D01*
X24273333Y-41600002D01*
X24340000Y-41566668D01*
X24706667Y-41566668D01*
X24706667Y-40933335D02*
X24006667Y-40933335D01*
X24673333Y-40933335D02*
X24706667Y-41000002D01*
X24706667Y-41133335D01*
X24673333Y-41200002D01*
X24640000Y-41233335D01*
X24573333Y-41266669D01*
X24373333Y-41266669D01*
X24306667Y-41233335D01*
X24273333Y-41200002D01*
X24240000Y-41133335D01*
X24240000Y-41000002D01*
X24273333Y-40933335D01*
X24706667Y-39700003D02*
X24706667Y-40100003D01*
X24706667Y-39900003D02*
X24006667Y-39900003D01*
X24106667Y-39966669D01*
X24173333Y-40033336D01*
X24206667Y-40100003D01*
X24640000Y-39400002D02*
X24673333Y-39366669D01*
X24706667Y-39400002D01*
X24673333Y-39433336D01*
X24640000Y-39400002D01*
X24706667Y-39400002D01*
X24006667Y-38933336D02*
X24006667Y-38866669D01*
X24040000Y-38800003D01*
X24073333Y-38766669D01*
X24140000Y-38733336D01*
X24273333Y-38700003D01*
X24440000Y-38700003D01*
X24573333Y-38733336D01*
X24640000Y-38766669D01*
X24673333Y-38800003D01*
X24706667Y-38866669D01*
X24706667Y-38933336D01*
X24673333Y-39000003D01*
X24640000Y-39033336D01*
X24573333Y-39066669D01*
X24440000Y-39100003D01*
X24273333Y-39100003D01*
X24140000Y-39066669D01*
X24073333Y-39033336D01*
X24040000Y-39000003D01*
X24006667Y-38933336D01*
X29450000Y-45100000D02*
X29450000Y-35500000D01*
X29450000Y-35500000D02*
X41850000Y-35500000D01*
X41850000Y-35500000D02*
X41850000Y-47500000D01*
X41850000Y-47500000D02*
X29450000Y-47500000D01*
X29450000Y-47500000D02*
X29450000Y-45100000D01*
X9450000Y-45100000D02*
X9450000Y-35500000D01*
X9450000Y-35500000D02*
X21850000Y-35500000D01*
X21850000Y-35500000D02*
X21850000Y-47500000D01*
X21850000Y-47500000D02*
X9450000Y-47500000D01*
X9450000Y-47500000D02*
X9450000Y-45100000D01*
X26150000Y-32600000D02*
X26150000Y-37500000D01*
X26150000Y-37500000D02*
X28550000Y-37500000D01*
X28550000Y-37500000D02*
X28550000Y-32600000D01*
X28550000Y-32600000D02*
X26150000Y-32600000D01*
X22750000Y-32600000D02*
X22750000Y-37500000D01*
X22750000Y-37500000D02*
X25150000Y-37500000D01*
X25150000Y-37500000D02*
X25150000Y-32600000D01*
X25150000Y-32600000D02*
X22750000Y-32600000D01*
X29450000Y-35000000D02*
X29450000Y-27600000D01*
X29450000Y-27600000D02*
X34850000Y-27600000D01*
X34850000Y-27600000D02*
X34850000Y-35000000D01*
X34850000Y-35000000D02*
X29450000Y-35000000D01*
X15050000Y-35000000D02*
X15050000Y-27600000D01*
X15050000Y-27600000D02*
X20450000Y-27600000D01*
X20450000Y-27600000D02*
X20450000Y-35000000D01*
X20450000Y-35000000D02*
X15050000Y-35000000D01*
D11*
G36*
X28396620Y-45104520D02*
X28391540Y-45094360D01*
X28376300Y-45071500D01*
X28355980Y-45038480D01*
X28328040Y-44997840D01*
X28302640Y-44959740D01*
X28279780Y-44926720D01*
X28264540Y-44903860D01*
X28259460Y-44893700D01*
X28262000Y-44888620D01*
X28272160Y-44870840D01*
X28284860Y-44842900D01*
X28292480Y-44827660D01*
X28305180Y-44802260D01*
X28307720Y-44789560D01*
X28302640Y-44787020D01*
X28284860Y-44776860D01*
X28251840Y-44764160D01*
X28208660Y-44743840D01*
X28157860Y-44723520D01*
X28101980Y-44700660D01*
X28046100Y-44677800D01*
X27992760Y-44654940D01*
X27944500Y-44634620D01*
X27906400Y-44619380D01*
X27878460Y-44609220D01*
X27868300Y-44604140D01*
X27865760Y-44606680D01*
X27853060Y-44619380D01*
X27837820Y-44639700D01*
X27797180Y-44687960D01*
X27738760Y-44733680D01*
X27672720Y-44764160D01*
X27599060Y-44771780D01*
X27533020Y-44764160D01*
X27469520Y-44738760D01*
X27408560Y-44693040D01*
X27365380Y-44637160D01*
X27337440Y-44571120D01*
X27329820Y-44500000D01*
X27337440Y-44431420D01*
X27362840Y-44365380D01*
X27408560Y-44304420D01*
X27436500Y-44281560D01*
X27497460Y-44246000D01*
X27558420Y-44225680D01*
X27573660Y-44225680D01*
X27644780Y-44228220D01*
X27713360Y-44248540D01*
X27771780Y-44284100D01*
X27822580Y-44337440D01*
X27827660Y-44342520D01*
X27845440Y-44367920D01*
X27855600Y-44383160D01*
X27865760Y-44395860D01*
X28081660Y-44306960D01*
X28117220Y-44291720D01*
X28175640Y-44266320D01*
X28226440Y-44246000D01*
X28267080Y-44228220D01*
X28292480Y-44215520D01*
X28305180Y-44210440D01*
X28305180Y-44210440D01*
X28305180Y-44202820D01*
X28300100Y-44187580D01*
X28284860Y-44157100D01*
X28274700Y-44136780D01*
X28264540Y-44113920D01*
X28259460Y-44103760D01*
X28264540Y-44093600D01*
X28279780Y-44073280D01*
X28300100Y-44040260D01*
X28325500Y-44002160D01*
X28350900Y-43966600D01*
X28373760Y-43931040D01*
X28389000Y-43908180D01*
X28396620Y-43895480D01*
X28396620Y-43892940D01*
X28389000Y-43882780D01*
X28373760Y-43862460D01*
X28345820Y-43834520D01*
X28305180Y-43793880D01*
X28300100Y-43786260D01*
X28264540Y-43753240D01*
X28234060Y-43725300D01*
X28213740Y-43704980D01*
X28206120Y-43699900D01*
X28206120Y-43699900D01*
X28193420Y-43704980D01*
X28168020Y-43720220D01*
X28135000Y-43743080D01*
X28094360Y-43771020D01*
X27990220Y-43842140D01*
X27893700Y-43801500D01*
X27863220Y-43791340D01*
X27827660Y-43776100D01*
X27802260Y-43763400D01*
X27789560Y-43758320D01*
X27787020Y-43748160D01*
X27779400Y-43720220D01*
X27771780Y-43682120D01*
X27764160Y-43636400D01*
X27754000Y-43590680D01*
X27746380Y-43552580D01*
X27741300Y-43522100D01*
X27738760Y-43509400D01*
X27736220Y-43506860D01*
X27731140Y-43504320D01*
X27718440Y-43501780D01*
X27693040Y-43501780D01*
X27654940Y-43501780D01*
X27599060Y-43501780D01*
X27593980Y-43501780D01*
X27540640Y-43501780D01*
X27500000Y-43501780D01*
X27474600Y-43504320D01*
X27464440Y-43506860D01*
X27464440Y-43506860D01*
X27459360Y-43519560D01*
X27454280Y-43547500D01*
X27446660Y-43585600D01*
X27436500Y-43633860D01*
X27436500Y-43636400D01*
X27428880Y-43684660D01*
X27418720Y-43722760D01*
X27413640Y-43750700D01*
X27408560Y-43763400D01*
X27406020Y-43765940D01*
X27388240Y-43776100D01*
X27357760Y-43788800D01*
X27322200Y-43804040D01*
X27286640Y-43819280D01*
X27251080Y-43834520D01*
X27228220Y-43842140D01*
X27215520Y-43844680D01*
X27215520Y-43844680D01*
X27205360Y-43837060D01*
X27179960Y-43821820D01*
X27146940Y-43798960D01*
X27106300Y-43771020D01*
X27101220Y-43768480D01*
X27063120Y-43740540D01*
X27027560Y-43720220D01*
X27004700Y-43704980D01*
X26994540Y-43699900D01*
X26992000Y-43699900D01*
X26981840Y-43707520D01*
X26958980Y-43727840D01*
X26928500Y-43758320D01*
X26892940Y-43793880D01*
X26882780Y-43804040D01*
X26844680Y-43842140D01*
X26819280Y-43870080D01*
X26806580Y-43887860D01*
X26801500Y-43895480D01*
X26804040Y-43895480D01*
X26809120Y-43908180D01*
X26826900Y-43933580D01*
X26849760Y-43966600D01*
X26877700Y-44007240D01*
X26880240Y-44009780D01*
X26905640Y-44050420D01*
X26928500Y-44083440D01*
X26943740Y-44106300D01*
X26951360Y-44116460D01*
X26951360Y-44119000D01*
X26946280Y-44134240D01*
X26936120Y-44164720D01*
X26923420Y-44197740D01*
X26908180Y-44235840D01*
X26892940Y-44268860D01*
X26882780Y-44294260D01*
X26875160Y-44306960D01*
X26875160Y-44306960D01*
X26859920Y-44312040D01*
X26829440Y-44317120D01*
X26788800Y-44327280D01*
X26740540Y-44334900D01*
X26732920Y-44337440D01*
X26684660Y-44345060D01*
X26646560Y-44352680D01*
X26618620Y-44360300D01*
X26605920Y-44362840D01*
X26605920Y-44367920D01*
X26603380Y-44393320D01*
X26603380Y-44428880D01*
X26603380Y-44472060D01*
X26603380Y-44515240D01*
X26603380Y-44558420D01*
X26605920Y-44596520D01*
X26605920Y-44621920D01*
X26608460Y-44634620D01*
X26611000Y-44634620D01*
X26623700Y-44639700D01*
X26654180Y-44644780D01*
X26694820Y-44654940D01*
X26745620Y-44662560D01*
X26753240Y-44665100D01*
X26801500Y-44672720D01*
X26839600Y-44682880D01*
X26867540Y-44687960D01*
X26877700Y-44690500D01*
X26880240Y-44695580D01*
X26887860Y-44713360D01*
X26900560Y-44746380D01*
X26918340Y-44787020D01*
X26953900Y-44878460D01*
X26877700Y-44990220D01*
X26870080Y-45000380D01*
X26842140Y-45041020D01*
X26821820Y-45074040D01*
X26806580Y-45096900D01*
X26801500Y-45107060D01*
X26801500Y-45107060D01*
X26811660Y-45117220D01*
X26831980Y-45140080D01*
X26862460Y-45170560D01*
X26895480Y-45206120D01*
X26923420Y-45231520D01*
X26953900Y-45262000D01*
X26974220Y-45282320D01*
X26989460Y-45292480D01*
X26997080Y-45297560D01*
X27002160Y-45295020D01*
X27014860Y-45289940D01*
X27037720Y-45272160D01*
X27073280Y-45249300D01*
X27111380Y-45221360D01*
X27146940Y-45198500D01*
X27182500Y-45175640D01*
X27210440Y-45160400D01*
X27223140Y-45152780D01*
X27228220Y-45155320D01*
X27251080Y-45162940D01*
X27284100Y-45175640D01*
X27324740Y-45193420D01*
X27413640Y-45231520D01*
X27423800Y-45289940D01*
X27431420Y-45325500D01*
X27439040Y-45376300D01*
X27449200Y-45422020D01*
X27464440Y-45495680D01*
X27731140Y-45498220D01*
X27736220Y-45488060D01*
X27741300Y-45475360D01*
X27746380Y-45449960D01*
X27754000Y-45409320D01*
X27761620Y-45363600D01*
X27769240Y-45325500D01*
X27776860Y-45284860D01*
X27781940Y-45256920D01*
X27784480Y-45244220D01*
X27789560Y-45241680D01*
X27809880Y-45231520D01*
X27840360Y-45216280D01*
X27875920Y-45201040D01*
X27914020Y-45185800D01*
X27949580Y-45173100D01*
X27974980Y-45162940D01*
X27990220Y-45157860D01*
X28000380Y-45162940D01*
X28023240Y-45178180D01*
X28056260Y-45201040D01*
X28094360Y-45226440D01*
X28135000Y-45254380D01*
X28168020Y-45277240D01*
X28193420Y-45292480D01*
X28203580Y-45300100D01*
X28211200Y-45295020D01*
X28228980Y-45279780D01*
X28259460Y-45251840D01*
X28305180Y-45206120D01*
X28310260Y-45198500D01*
X28345820Y-45165480D01*
X28371220Y-45135000D01*
X28391540Y-45114680D01*
X28396620Y-45104520D01*
X28396620Y-45104520D01*
G37*
X28396620Y-45104520D02*
X28391540Y-45094360D01*
X28376300Y-45071500D01*
X28355980Y-45038480D01*
X28328040Y-44997840D01*
X28302640Y-44959740D01*
X28279780Y-44926720D01*
X28264540Y-44903860D01*
X28259460Y-44893700D01*
X28262000Y-44888620D01*
X28272160Y-44870840D01*
X28284860Y-44842900D01*
X28292480Y-44827660D01*
X28305180Y-44802260D01*
X28307720Y-44789560D01*
X28302640Y-44787020D01*
X28284860Y-44776860D01*
X28251840Y-44764160D01*
X28208660Y-44743840D01*
X28157860Y-44723520D01*
X28101980Y-44700660D01*
X28046100Y-44677800D01*
X27992760Y-44654940D01*
X27944500Y-44634620D01*
X27906400Y-44619380D01*
X27878460Y-44609220D01*
X27868300Y-44604140D01*
X27865760Y-44606680D01*
X27853060Y-44619380D01*
X27837820Y-44639700D01*
X27797180Y-44687960D01*
X27738760Y-44733680D01*
X27672720Y-44764160D01*
X27599060Y-44771780D01*
X27533020Y-44764160D01*
X27469520Y-44738760D01*
X27408560Y-44693040D01*
X27365380Y-44637160D01*
X27337440Y-44571120D01*
X27329820Y-44500000D01*
X27337440Y-44431420D01*
X27362840Y-44365380D01*
X27408560Y-44304420D01*
X27436500Y-44281560D01*
X27497460Y-44246000D01*
X27558420Y-44225680D01*
X27573660Y-44225680D01*
X27644780Y-44228220D01*
X27713360Y-44248540D01*
X27771780Y-44284100D01*
X27822580Y-44337440D01*
X27827660Y-44342520D01*
X27845440Y-44367920D01*
X27855600Y-44383160D01*
X27865760Y-44395860D01*
X28081660Y-44306960D01*
X28117220Y-44291720D01*
X28175640Y-44266320D01*
X28226440Y-44246000D01*
X28267080Y-44228220D01*
X28292480Y-44215520D01*
X28305180Y-44210440D01*
X28305180Y-44210440D01*
X28305180Y-44202820D01*
X28300100Y-44187580D01*
X28284860Y-44157100D01*
X28274700Y-44136780D01*
X28264540Y-44113920D01*
X28259460Y-44103760D01*
X28264540Y-44093600D01*
X28279780Y-44073280D01*
X28300100Y-44040260D01*
X28325500Y-44002160D01*
X28350900Y-43966600D01*
X28373760Y-43931040D01*
X28389000Y-43908180D01*
X28396620Y-43895480D01*
X28396620Y-43892940D01*
X28389000Y-43882780D01*
X28373760Y-43862460D01*
X28345820Y-43834520D01*
X28305180Y-43793880D01*
X28300100Y-43786260D01*
X28264540Y-43753240D01*
X28234060Y-43725300D01*
X28213740Y-43704980D01*
X28206120Y-43699900D01*
X28206120Y-43699900D01*
X28193420Y-43704980D01*
X28168020Y-43720220D01*
X28135000Y-43743080D01*
X28094360Y-43771020D01*
X27990220Y-43842140D01*
X27893700Y-43801500D01*
X27863220Y-43791340D01*
X27827660Y-43776100D01*
X27802260Y-43763400D01*
X27789560Y-43758320D01*
X27787020Y-43748160D01*
X27779400Y-43720220D01*
X27771780Y-43682120D01*
X27764160Y-43636400D01*
X27754000Y-43590680D01*
X27746380Y-43552580D01*
X27741300Y-43522100D01*
X27738760Y-43509400D01*
X27736220Y-43506860D01*
X27731140Y-43504320D01*
X27718440Y-43501780D01*
X27693040Y-43501780D01*
X27654940Y-43501780D01*
X27599060Y-43501780D01*
X27593980Y-43501780D01*
X27540640Y-43501780D01*
X27500000Y-43501780D01*
X27474600Y-43504320D01*
X27464440Y-43506860D01*
X27464440Y-43506860D01*
X27459360Y-43519560D01*
X27454280Y-43547500D01*
X27446660Y-43585600D01*
X27436500Y-43633860D01*
X27436500Y-43636400D01*
X27428880Y-43684660D01*
X27418720Y-43722760D01*
X27413640Y-43750700D01*
X27408560Y-43763400D01*
X27406020Y-43765940D01*
X27388240Y-43776100D01*
X27357760Y-43788800D01*
X27322200Y-43804040D01*
X27286640Y-43819280D01*
X27251080Y-43834520D01*
X27228220Y-43842140D01*
X27215520Y-43844680D01*
X27215520Y-43844680D01*
X27205360Y-43837060D01*
X27179960Y-43821820D01*
X27146940Y-43798960D01*
X27106300Y-43771020D01*
X27101220Y-43768480D01*
X27063120Y-43740540D01*
X27027560Y-43720220D01*
X27004700Y-43704980D01*
X26994540Y-43699900D01*
X26992000Y-43699900D01*
X26981840Y-43707520D01*
X26958980Y-43727840D01*
X26928500Y-43758320D01*
X26892940Y-43793880D01*
X26882780Y-43804040D01*
X26844680Y-43842140D01*
X26819280Y-43870080D01*
X26806580Y-43887860D01*
X26801500Y-43895480D01*
X26804040Y-43895480D01*
X26809120Y-43908180D01*
X26826900Y-43933580D01*
X26849760Y-43966600D01*
X26877700Y-44007240D01*
X26880240Y-44009780D01*
X26905640Y-44050420D01*
X26928500Y-44083440D01*
X26943740Y-44106300D01*
X26951360Y-44116460D01*
X26951360Y-44119000D01*
X26946280Y-44134240D01*
X26936120Y-44164720D01*
X26923420Y-44197740D01*
X26908180Y-44235840D01*
X26892940Y-44268860D01*
X26882780Y-44294260D01*
X26875160Y-44306960D01*
X26875160Y-44306960D01*
X26859920Y-44312040D01*
X26829440Y-44317120D01*
X26788800Y-44327280D01*
X26740540Y-44334900D01*
X26732920Y-44337440D01*
X26684660Y-44345060D01*
X26646560Y-44352680D01*
X26618620Y-44360300D01*
X26605920Y-44362840D01*
X26605920Y-44367920D01*
X26603380Y-44393320D01*
X26603380Y-44428880D01*
X26603380Y-44472060D01*
X26603380Y-44515240D01*
X26603380Y-44558420D01*
X26605920Y-44596520D01*
X26605920Y-44621920D01*
X26608460Y-44634620D01*
X26611000Y-44634620D01*
X26623700Y-44639700D01*
X26654180Y-44644780D01*
X26694820Y-44654940D01*
X26745620Y-44662560D01*
X26753240Y-44665100D01*
X26801500Y-44672720D01*
X26839600Y-44682880D01*
X26867540Y-44687960D01*
X26877700Y-44690500D01*
X26880240Y-44695580D01*
X26887860Y-44713360D01*
X26900560Y-44746380D01*
X26918340Y-44787020D01*
X26953900Y-44878460D01*
X26877700Y-44990220D01*
X26870080Y-45000380D01*
X26842140Y-45041020D01*
X26821820Y-45074040D01*
X26806580Y-45096900D01*
X26801500Y-45107060D01*
X26801500Y-45107060D01*
X26811660Y-45117220D01*
X26831980Y-45140080D01*
X26862460Y-45170560D01*
X26895480Y-45206120D01*
X26923420Y-45231520D01*
X26953900Y-45262000D01*
X26974220Y-45282320D01*
X26989460Y-45292480D01*
X26997080Y-45297560D01*
X27002160Y-45295020D01*
X27014860Y-45289940D01*
X27037720Y-45272160D01*
X27073280Y-45249300D01*
X27111380Y-45221360D01*
X27146940Y-45198500D01*
X27182500Y-45175640D01*
X27210440Y-45160400D01*
X27223140Y-45152780D01*
X27228220Y-45155320D01*
X27251080Y-45162940D01*
X27284100Y-45175640D01*
X27324740Y-45193420D01*
X27413640Y-45231520D01*
X27423800Y-45289940D01*
X27431420Y-45325500D01*
X27439040Y-45376300D01*
X27449200Y-45422020D01*
X27464440Y-45495680D01*
X27731140Y-45498220D01*
X27736220Y-45488060D01*
X27741300Y-45475360D01*
X27746380Y-45449960D01*
X27754000Y-45409320D01*
X27761620Y-45363600D01*
X27769240Y-45325500D01*
X27776860Y-45284860D01*
X27781940Y-45256920D01*
X27784480Y-45244220D01*
X27789560Y-45241680D01*
X27809880Y-45231520D01*
X27840360Y-45216280D01*
X27875920Y-45201040D01*
X27914020Y-45185800D01*
X27949580Y-45173100D01*
X27974980Y-45162940D01*
X27990220Y-45157860D01*
X28000380Y-45162940D01*
X28023240Y-45178180D01*
X28056260Y-45201040D01*
X28094360Y-45226440D01*
X28135000Y-45254380D01*
X28168020Y-45277240D01*
X28193420Y-45292480D01*
X28203580Y-45300100D01*
X28211200Y-45295020D01*
X28228980Y-45279780D01*
X28259460Y-45251840D01*
X28305180Y-45206120D01*
X28310260Y-45198500D01*
X28345820Y-45165480D01*
X28371220Y-45135000D01*
X28391540Y-45114680D01*
X28396620Y-45104520D01*
D10*
X15800000Y-21050000D02*
X10900000Y-21050000D01*
X10900000Y-21050000D02*
X10900000Y-23450000D01*
X10900000Y-23450000D02*
X15800000Y-23450000D01*
X15800000Y-23450000D02*
X15800000Y-21050000D01*
X36200000Y-33700000D02*
X41100000Y-33700000D01*
X41100000Y-33700000D02*
X41100000Y-31300000D01*
X41100000Y-31300000D02*
X36200000Y-31300000D01*
X36200000Y-31300000D02*
X36200000Y-33700000D01*
X9550000Y-34000000D02*
X14450000Y-34000000D01*
X14450000Y-34000000D02*
X14450000Y-31600000D01*
X14450000Y-31600000D02*
X9550000Y-31600000D01*
X9550000Y-31600000D02*
X9550000Y-34000000D01*
X29216667Y-39516666D02*
X28516667Y-39516666D01*
X28516667Y-39250000D01*
X28550000Y-39183333D01*
X28583333Y-39150000D01*
X28650000Y-39116666D01*
X28750000Y-39116666D01*
X28816667Y-39150000D01*
X28850000Y-39183333D01*
X28883333Y-39250000D01*
X28883333Y-39516666D01*
X29216667Y-38450000D02*
X29216667Y-38850000D01*
X29216667Y-38650000D02*
X28516667Y-38650000D01*
X28616667Y-38716666D01*
X28683333Y-38783333D01*
X28716667Y-38850000D01*
X22766667Y-39616666D02*
X22066667Y-39616666D01*
X22066667Y-39350000D01*
X22100000Y-39283333D01*
X22133333Y-39250000D01*
X22200000Y-39216666D01*
X22300000Y-39216666D01*
X22366667Y-39250000D01*
X22400000Y-39283333D01*
X22433333Y-39350000D01*
X22433333Y-39616666D01*
X22133333Y-38950000D02*
X22100000Y-38916666D01*
X22066667Y-38850000D01*
X22066667Y-38683333D01*
X22100000Y-38616666D01*
X22133333Y-38583333D01*
X22200000Y-38550000D01*
X22266667Y-38550000D01*
X22366667Y-38583333D01*
X22766667Y-38983333D01*
X22766667Y-38550000D01*
X26966667Y-31983333D02*
X27466667Y-31983333D01*
X27566667Y-32016667D01*
X27633333Y-32083333D01*
X27666667Y-32183333D01*
X27666667Y-32250000D01*
X27666667Y-31283334D02*
X27666667Y-31683334D01*
X27666667Y-31483334D02*
X26966667Y-31483334D01*
X27066667Y-31550000D01*
X27133333Y-31616667D01*
X27166667Y-31683334D01*
X23566667Y-32033333D02*
X24066667Y-32033333D01*
X24166667Y-32066667D01*
X24233333Y-32133333D01*
X24266667Y-32233333D01*
X24266667Y-32300000D01*
X23633333Y-31733334D02*
X23600000Y-31700000D01*
X23566667Y-31633334D01*
X23566667Y-31466667D01*
X23600000Y-31400000D01*
X23633333Y-31366667D01*
X23700000Y-31333334D01*
X23766667Y-31333334D01*
X23866667Y-31366667D01*
X24266667Y-31766667D01*
X24266667Y-31333334D01*
X35116667Y-29633333D02*
X35116667Y-29233333D01*
X35816667Y-29433333D02*
X35116667Y-29433333D01*
X35816667Y-28633334D02*
X35816667Y-29033334D01*
X35816667Y-28833334D02*
X35116667Y-28833334D01*
X35216667Y-28900000D01*
X35283333Y-28966667D01*
X35316667Y-29033334D01*
X20666667Y-28633333D02*
X20666667Y-28233333D01*
X21366667Y-28433333D02*
X20666667Y-28433333D01*
X20733333Y-28033334D02*
X20700000Y-28000000D01*
X20666667Y-27933334D01*
X20666667Y-27766667D01*
X20700000Y-27700000D01*
X20733333Y-27666667D01*
X20800000Y-27633334D01*
X20866667Y-27633334D01*
X20966667Y-27666667D01*
X21366667Y-28066667D01*
X21366667Y-27633334D01*
X19066667Y-12600000D02*
X19033333Y-12633333D01*
X18933333Y-12666667D01*
X18866667Y-12666667D01*
X18766667Y-12633333D01*
X18700000Y-12566667D01*
X18666667Y-12500000D01*
X18633333Y-12366667D01*
X18633333Y-12266667D01*
X18666667Y-12133333D01*
X18700000Y-12066667D01*
X18766667Y-12000000D01*
X18866667Y-11966667D01*
X18933333Y-11966667D01*
X19033333Y-12000000D01*
X19066667Y-12033333D01*
X19366667Y-12666667D02*
X19366667Y-11966667D01*
X19766667Y-12666667D01*
X19766667Y-11966667D01*
X20066666Y-12033333D02*
X20100000Y-12000000D01*
X20166666Y-11966667D01*
X20333333Y-11966667D01*
X20400000Y-12000000D01*
X20433333Y-12033333D01*
X20466666Y-12100000D01*
X20466666Y-12166667D01*
X20433333Y-12266667D01*
X20033333Y-12666667D01*
X20466666Y-12666667D01*
X8716667Y-13616667D02*
X9183334Y-13616667D01*
X8883334Y-14316667D01*
X9250000Y-16816667D02*
X8850000Y-16816667D01*
X9050000Y-16816667D02*
X9050000Y-16116667D01*
X8983334Y-16216667D01*
X8916667Y-16283333D01*
X8850000Y-16316667D01*
X16650000Y-22733333D02*
X16683333Y-22766667D01*
X16716667Y-22866667D01*
X16716667Y-22933333D01*
X16683333Y-23033333D01*
X16616667Y-23100000D01*
X16550000Y-23133333D01*
X16416667Y-23166667D01*
X16316667Y-23166667D01*
X16183333Y-23133333D01*
X16116667Y-23100000D01*
X16050000Y-23033333D01*
X16016667Y-22933333D01*
X16016667Y-22866667D01*
X16050000Y-22766667D01*
X16083333Y-22733333D01*
X16716667Y-22433333D02*
X16016667Y-22433333D01*
X16716667Y-22033333D01*
X16016667Y-22033333D01*
X16016667Y-21766667D02*
X16016667Y-21333334D01*
X16283333Y-21566667D01*
X16283333Y-21466667D01*
X16316667Y-21400000D01*
X16350000Y-21366667D01*
X16416667Y-21333334D01*
X16583333Y-21333334D01*
X16650000Y-21366667D01*
X16683333Y-21400000D01*
X16716667Y-21466667D01*
X16716667Y-21666667D01*
X16683333Y-21733334D01*
X16650000Y-21766667D01*
X41900000Y-32983333D02*
X41933333Y-33016667D01*
X41966667Y-33116667D01*
X41966667Y-33183333D01*
X41933333Y-33283333D01*
X41866667Y-33350000D01*
X41800000Y-33383333D01*
X41666667Y-33416667D01*
X41566667Y-33416667D01*
X41433333Y-33383333D01*
X41366667Y-33350000D01*
X41300000Y-33283333D01*
X41266667Y-33183333D01*
X41266667Y-33116667D01*
X41300000Y-33016667D01*
X41333333Y-32983333D01*
X41966667Y-32683333D02*
X41266667Y-32683333D01*
X41966667Y-32283333D01*
X41266667Y-32283333D01*
X41500000Y-31650000D02*
X41966667Y-31650000D01*
X41233333Y-31816667D02*
X41733333Y-31983334D01*
X41733333Y-31550000D01*
X12400000Y-30933333D02*
X12433333Y-30966667D01*
X12466667Y-31066667D01*
X12466667Y-31133333D01*
X12433333Y-31233333D01*
X12366667Y-31300000D01*
X12300000Y-31333333D01*
X12166667Y-31366667D01*
X12066667Y-31366667D01*
X11933333Y-31333333D01*
X11866667Y-31300000D01*
X11800000Y-31233333D01*
X11766667Y-31133333D01*
X11766667Y-31066667D01*
X11800000Y-30966667D01*
X11833333Y-30933333D01*
X12466667Y-30633333D02*
X11766667Y-30633333D01*
X12466667Y-30233333D01*
X11766667Y-30233333D01*
X11766667Y-29566667D02*
X11766667Y-29900000D01*
X12100000Y-29933334D01*
X12066667Y-29900000D01*
X12033333Y-29833334D01*
X12033333Y-29666667D01*
X12066667Y-29600000D01*
X12100000Y-29566667D01*
X12166667Y-29533334D01*
X12333333Y-29533334D01*
X12400000Y-29566667D01*
X12433333Y-29600000D01*
X12466667Y-29666667D01*
X12466667Y-29833334D01*
X12433333Y-29900000D01*
X12400000Y-29933334D01*
M02*
