G04 #@! TF.FileFunction,Soldermask,Bot*
%FSLAX46Y46*%
G04 Gerber Fmt 4.6, Leading zero omitted, Abs format (unit mm)*
G04 Created by KiCad (PCBNEW 4.0.1-stable) date 7/31/2016 2:21:32 PM*
%MOMM*%
G01*
G04 APERTURE LIST*
%ADD10C,0.100000*%
%ADD11C,0.900000*%
%ADD12C,3.400000*%
%ADD13R,12.400000X16.400000*%
G04 APERTURE END LIST*
D10*
D11*
X48650000Y-35334000D03*
X47650000Y-35334000D03*
X46650000Y-35334000D03*
X45650000Y-35334000D03*
X45650000Y-36334000D03*
X46650000Y-36334000D03*
X47650000Y-36334000D03*
X48650000Y-36334000D03*
X48650000Y-37334000D03*
X47650000Y-37334000D03*
X46650000Y-37334000D03*
X45650000Y-37334000D03*
X38850000Y-37334000D03*
X39850000Y-37334000D03*
X40850000Y-37334000D03*
X41850000Y-37334000D03*
X41850000Y-36334000D03*
X40850000Y-36334000D03*
X39850000Y-36334000D03*
X38850000Y-36334000D03*
X38850000Y-35334000D03*
X39850000Y-35334000D03*
X40850000Y-35334000D03*
X41850000Y-35334000D03*
X48650000Y-41334000D03*
X47650000Y-41334000D03*
X46650000Y-41334000D03*
X45650000Y-41334000D03*
X44650000Y-40334000D03*
X45650000Y-40334000D03*
X46650000Y-40334000D03*
X47650000Y-40334000D03*
X48650000Y-40334000D03*
X48650000Y-39334000D03*
X47650000Y-39334000D03*
X46650000Y-39334000D03*
X45650000Y-39334000D03*
X44650000Y-39334000D03*
X44650000Y-38334000D03*
X45650000Y-38334000D03*
X46650000Y-38334000D03*
X47650000Y-38334000D03*
X48650000Y-38334000D03*
X43750000Y-38834000D03*
X43750000Y-39834000D03*
X42850000Y-38334000D03*
X41850000Y-38334000D03*
X40850000Y-38334000D03*
X39850000Y-38334000D03*
X38850000Y-38334000D03*
X38850000Y-39334000D03*
X39850000Y-39334000D03*
X40850000Y-39334000D03*
X41850000Y-39334000D03*
X42850000Y-39334000D03*
X42850000Y-40334000D03*
X41850000Y-40334000D03*
X40850000Y-40334000D03*
X39850000Y-40334000D03*
X38850000Y-40334000D03*
X41850000Y-41334000D03*
X40850000Y-41334000D03*
X39850000Y-41334000D03*
X38850000Y-41334000D03*
X43750000Y-40834000D03*
X43750000Y-46834000D03*
X43750000Y-47834000D03*
X43750000Y-41834000D03*
X43750000Y-42834000D03*
X43750000Y-43834000D03*
X43750000Y-44834000D03*
X43750000Y-45834000D03*
X44650000Y-46334000D03*
X44650000Y-47334000D03*
X44650000Y-48334000D03*
X42850000Y-46334000D03*
X42850000Y-47334000D03*
X42850000Y-48334000D03*
X44650000Y-41334000D03*
X44650000Y-42334000D03*
X44650000Y-43334000D03*
X44650000Y-44334000D03*
X44650000Y-45334000D03*
X42850000Y-41334000D03*
X42850000Y-42334000D03*
X42850000Y-43334000D03*
X42850000Y-44334000D03*
X42850000Y-45334000D03*
D12*
X43750000Y-36734000D03*
D13*
X43750000Y-41734000D03*
D11*
X36150000Y-35334000D03*
X35150000Y-35334000D03*
X34150000Y-35334000D03*
X33150000Y-35334000D03*
X33150000Y-36334000D03*
X34150000Y-36334000D03*
X35150000Y-36334000D03*
X36150000Y-36334000D03*
X36150000Y-37334000D03*
X35150000Y-37334000D03*
X34150000Y-37334000D03*
X33150000Y-37334000D03*
X26350000Y-37334000D03*
X27350000Y-37334000D03*
X28350000Y-37334000D03*
X29350000Y-37334000D03*
X29350000Y-36334000D03*
X28350000Y-36334000D03*
X27350000Y-36334000D03*
X26350000Y-36334000D03*
X26350000Y-35334000D03*
X27350000Y-35334000D03*
X28350000Y-35334000D03*
X29350000Y-35334000D03*
X36150000Y-41334000D03*
X35150000Y-41334000D03*
X34150000Y-41334000D03*
X33150000Y-41334000D03*
X32150000Y-40334000D03*
X33150000Y-40334000D03*
X34150000Y-40334000D03*
X35150000Y-40334000D03*
X36150000Y-40334000D03*
X36150000Y-39334000D03*
X35150000Y-39334000D03*
X34150000Y-39334000D03*
X33150000Y-39334000D03*
X32150000Y-39334000D03*
X32150000Y-38334000D03*
X33150000Y-38334000D03*
X34150000Y-38334000D03*
X35150000Y-38334000D03*
X36150000Y-38334000D03*
X31250000Y-38834000D03*
X31250000Y-39834000D03*
X30350000Y-38334000D03*
X29350000Y-38334000D03*
X28350000Y-38334000D03*
X27350000Y-38334000D03*
X26350000Y-38334000D03*
X26350000Y-39334000D03*
X27350000Y-39334000D03*
X28350000Y-39334000D03*
X29350000Y-39334000D03*
X30350000Y-39334000D03*
X30350000Y-40334000D03*
X29350000Y-40334000D03*
X28350000Y-40334000D03*
X27350000Y-40334000D03*
X26350000Y-40334000D03*
X29350000Y-41334000D03*
X28350000Y-41334000D03*
X27350000Y-41334000D03*
X26350000Y-41334000D03*
X31250000Y-40834000D03*
X31250000Y-46834000D03*
X31250000Y-47834000D03*
X31250000Y-41834000D03*
X31250000Y-42834000D03*
X31250000Y-43834000D03*
X31250000Y-44834000D03*
X31250000Y-45834000D03*
X32150000Y-46334000D03*
X32150000Y-47334000D03*
X32150000Y-48334000D03*
X30350000Y-46334000D03*
X30350000Y-47334000D03*
X30350000Y-48334000D03*
X32150000Y-41334000D03*
X32150000Y-42334000D03*
X32150000Y-43334000D03*
X32150000Y-44334000D03*
X32150000Y-45334000D03*
X30350000Y-41334000D03*
X30350000Y-42334000D03*
X30350000Y-43334000D03*
X30350000Y-44334000D03*
X30350000Y-45334000D03*
D12*
X31250000Y-36734000D03*
D13*
X31250000Y-41734000D03*
D11*
X48650000Y-18667000D03*
X47650000Y-18667000D03*
X46650000Y-18667000D03*
X45650000Y-18667000D03*
X45650000Y-19667000D03*
X46650000Y-19667000D03*
X47650000Y-19667000D03*
X48650000Y-19667000D03*
X48650000Y-20667000D03*
X47650000Y-20667000D03*
X46650000Y-20667000D03*
X45650000Y-20667000D03*
X38850000Y-20667000D03*
X39850000Y-20667000D03*
X40850000Y-20667000D03*
X41850000Y-20667000D03*
X41850000Y-19667000D03*
X40850000Y-19667000D03*
X39850000Y-19667000D03*
X38850000Y-19667000D03*
X38850000Y-18667000D03*
X39850000Y-18667000D03*
X40850000Y-18667000D03*
X41850000Y-18667000D03*
X48650000Y-24667000D03*
X47650000Y-24667000D03*
X46650000Y-24667000D03*
X45650000Y-24667000D03*
X44650000Y-23667000D03*
X45650000Y-23667000D03*
X46650000Y-23667000D03*
X47650000Y-23667000D03*
X48650000Y-23667000D03*
X48650000Y-22667000D03*
X47650000Y-22667000D03*
X46650000Y-22667000D03*
X45650000Y-22667000D03*
X44650000Y-22667000D03*
X44650000Y-21667000D03*
X45650000Y-21667000D03*
X46650000Y-21667000D03*
X47650000Y-21667000D03*
X48650000Y-21667000D03*
X43750000Y-22167000D03*
X43750000Y-23167000D03*
X42850000Y-21667000D03*
X41850000Y-21667000D03*
X40850000Y-21667000D03*
X39850000Y-21667000D03*
X38850000Y-21667000D03*
X38850000Y-22667000D03*
X39850000Y-22667000D03*
X40850000Y-22667000D03*
X41850000Y-22667000D03*
X42850000Y-22667000D03*
X42850000Y-23667000D03*
X41850000Y-23667000D03*
X40850000Y-23667000D03*
X39850000Y-23667000D03*
X38850000Y-23667000D03*
X41850000Y-24667000D03*
X40850000Y-24667000D03*
X39850000Y-24667000D03*
X38850000Y-24667000D03*
X43750000Y-24167000D03*
X43750000Y-30167000D03*
X43750000Y-31167000D03*
X43750000Y-25167000D03*
X43750000Y-26167000D03*
X43750000Y-27167000D03*
X43750000Y-28167000D03*
X43750000Y-29167000D03*
X44650000Y-29667000D03*
X44650000Y-30667000D03*
X44650000Y-31667000D03*
X42850000Y-29667000D03*
X42850000Y-30667000D03*
X42850000Y-31667000D03*
X44650000Y-24667000D03*
X44650000Y-25667000D03*
X44650000Y-26667000D03*
X44650000Y-27667000D03*
X44650000Y-28667000D03*
X42850000Y-24667000D03*
X42850000Y-25667000D03*
X42850000Y-26667000D03*
X42850000Y-27667000D03*
X42850000Y-28667000D03*
D12*
X43750000Y-20067000D03*
D13*
X43750000Y-25067000D03*
D11*
X36150000Y-18667000D03*
X35150000Y-18667000D03*
X34150000Y-18667000D03*
X33150000Y-18667000D03*
X33150000Y-19667000D03*
X34150000Y-19667000D03*
X35150000Y-19667000D03*
X36150000Y-19667000D03*
X36150000Y-20667000D03*
X35150000Y-20667000D03*
X34150000Y-20667000D03*
X33150000Y-20667000D03*
X26350000Y-20667000D03*
X27350000Y-20667000D03*
X28350000Y-20667000D03*
X29350000Y-20667000D03*
X29350000Y-19667000D03*
X28350000Y-19667000D03*
X27350000Y-19667000D03*
X26350000Y-19667000D03*
X26350000Y-18667000D03*
X27350000Y-18667000D03*
X28350000Y-18667000D03*
X29350000Y-18667000D03*
X36150000Y-24667000D03*
X35150000Y-24667000D03*
X34150000Y-24667000D03*
X33150000Y-24667000D03*
X32150000Y-23667000D03*
X33150000Y-23667000D03*
X34150000Y-23667000D03*
X35150000Y-23667000D03*
X36150000Y-23667000D03*
X36150000Y-22667000D03*
X35150000Y-22667000D03*
X34150000Y-22667000D03*
X33150000Y-22667000D03*
X32150000Y-22667000D03*
X32150000Y-21667000D03*
X33150000Y-21667000D03*
X34150000Y-21667000D03*
X35150000Y-21667000D03*
X36150000Y-21667000D03*
X31250000Y-22167000D03*
X31250000Y-23167000D03*
X30350000Y-21667000D03*
X29350000Y-21667000D03*
X28350000Y-21667000D03*
X27350000Y-21667000D03*
X26350000Y-21667000D03*
X26350000Y-22667000D03*
X27350000Y-22667000D03*
X28350000Y-22667000D03*
X29350000Y-22667000D03*
X30350000Y-22667000D03*
X30350000Y-23667000D03*
X29350000Y-23667000D03*
X28350000Y-23667000D03*
X27350000Y-23667000D03*
X26350000Y-23667000D03*
X29350000Y-24667000D03*
X28350000Y-24667000D03*
X27350000Y-24667000D03*
X26350000Y-24667000D03*
X31250000Y-24167000D03*
X31250000Y-30167000D03*
X31250000Y-31167000D03*
X31250000Y-25167000D03*
X31250000Y-26167000D03*
X31250000Y-27167000D03*
X31250000Y-28167000D03*
X31250000Y-29167000D03*
X32150000Y-29667000D03*
X32150000Y-30667000D03*
X32150000Y-31667000D03*
X30350000Y-29667000D03*
X30350000Y-30667000D03*
X30350000Y-31667000D03*
X32150000Y-24667000D03*
X32150000Y-25667000D03*
X32150000Y-26667000D03*
X32150000Y-27667000D03*
X32150000Y-28667000D03*
X30350000Y-24667000D03*
X30350000Y-25667000D03*
X30350000Y-26667000D03*
X30350000Y-27667000D03*
X30350000Y-28667000D03*
D12*
X31250000Y-20067000D03*
D13*
X31250000Y-25067000D03*
D11*
X48650000Y-2000000D03*
X47650000Y-2000000D03*
X46650000Y-2000000D03*
X45650000Y-2000000D03*
X45650000Y-3000000D03*
X46650000Y-3000000D03*
X47650000Y-3000000D03*
X48650000Y-3000000D03*
X48650000Y-4000000D03*
X47650000Y-4000000D03*
X46650000Y-4000000D03*
X45650000Y-4000000D03*
X38850000Y-4000000D03*
X39850000Y-4000000D03*
X40850000Y-4000000D03*
X41850000Y-4000000D03*
X41850000Y-3000000D03*
X40850000Y-3000000D03*
X39850000Y-3000000D03*
X38850000Y-3000000D03*
X38850000Y-2000000D03*
X39850000Y-2000000D03*
X40850000Y-2000000D03*
X41850000Y-2000000D03*
X48650000Y-8000000D03*
X47650000Y-8000000D03*
X46650000Y-8000000D03*
X45650000Y-8000000D03*
X44650000Y-7000000D03*
X45650000Y-7000000D03*
X46650000Y-7000000D03*
X47650000Y-7000000D03*
X48650000Y-7000000D03*
X48650000Y-6000000D03*
X47650000Y-6000000D03*
X46650000Y-6000000D03*
X45650000Y-6000000D03*
X44650000Y-6000000D03*
X44650000Y-5000000D03*
X45650000Y-5000000D03*
X46650000Y-5000000D03*
X47650000Y-5000000D03*
X48650000Y-5000000D03*
X43750000Y-5500000D03*
X43750000Y-6500000D03*
X42850000Y-5000000D03*
X41850000Y-5000000D03*
X40850000Y-5000000D03*
X39850000Y-5000000D03*
X38850000Y-5000000D03*
X38850000Y-6000000D03*
X39850000Y-6000000D03*
X40850000Y-6000000D03*
X41850000Y-6000000D03*
X42850000Y-6000000D03*
X42850000Y-7000000D03*
X41850000Y-7000000D03*
X40850000Y-7000000D03*
X39850000Y-7000000D03*
X38850000Y-7000000D03*
X41850000Y-8000000D03*
X40850000Y-8000000D03*
X39850000Y-8000000D03*
X38850000Y-8000000D03*
X43750000Y-7500000D03*
X43750000Y-13500000D03*
X43750000Y-14500000D03*
X43750000Y-8500000D03*
X43750000Y-9500000D03*
X43750000Y-10500000D03*
X43750000Y-11500000D03*
X43750000Y-12500000D03*
X44650000Y-13000000D03*
X44650000Y-14000000D03*
X44650000Y-15000000D03*
X42850000Y-13000000D03*
X42850000Y-14000000D03*
X42850000Y-15000000D03*
X44650000Y-8000000D03*
X44650000Y-9000000D03*
X44650000Y-10000000D03*
X44650000Y-11000000D03*
X44650000Y-12000000D03*
X42850000Y-8000000D03*
X42850000Y-9000000D03*
X42850000Y-10000000D03*
X42850000Y-11000000D03*
X42850000Y-12000000D03*
D12*
X43750000Y-3400000D03*
D13*
X43750000Y-8400000D03*
D11*
X36150000Y-2000000D03*
X35150000Y-2000000D03*
X34150000Y-2000000D03*
X33150000Y-2000000D03*
X33150000Y-3000000D03*
X34150000Y-3000000D03*
X35150000Y-3000000D03*
X36150000Y-3000000D03*
X36150000Y-4000000D03*
X35150000Y-4000000D03*
X34150000Y-4000000D03*
X33150000Y-4000000D03*
X26350000Y-4000000D03*
X27350000Y-4000000D03*
X28350000Y-4000000D03*
X29350000Y-4000000D03*
X29350000Y-3000000D03*
X28350000Y-3000000D03*
X27350000Y-3000000D03*
X26350000Y-3000000D03*
X26350000Y-2000000D03*
X27350000Y-2000000D03*
X28350000Y-2000000D03*
X29350000Y-2000000D03*
X36150000Y-8000000D03*
X35150000Y-8000000D03*
X34150000Y-8000000D03*
X33150000Y-8000000D03*
X32150000Y-7000000D03*
X33150000Y-7000000D03*
X34150000Y-7000000D03*
X35150000Y-7000000D03*
X36150000Y-7000000D03*
X36150000Y-6000000D03*
X35150000Y-6000000D03*
X34150000Y-6000000D03*
X33150000Y-6000000D03*
X32150000Y-6000000D03*
X32150000Y-5000000D03*
X33150000Y-5000000D03*
X34150000Y-5000000D03*
X35150000Y-5000000D03*
X36150000Y-5000000D03*
X31250000Y-5500000D03*
X31250000Y-6500000D03*
X30350000Y-5000000D03*
X29350000Y-5000000D03*
X28350000Y-5000000D03*
X27350000Y-5000000D03*
X26350000Y-5000000D03*
X26350000Y-6000000D03*
X27350000Y-6000000D03*
X28350000Y-6000000D03*
X29350000Y-6000000D03*
X30350000Y-6000000D03*
X30350000Y-7000000D03*
X29350000Y-7000000D03*
X28350000Y-7000000D03*
X27350000Y-7000000D03*
X26350000Y-7000000D03*
X29350000Y-8000000D03*
X28350000Y-8000000D03*
X27350000Y-8000000D03*
X26350000Y-8000000D03*
X31250000Y-7500000D03*
X31250000Y-13500000D03*
X31250000Y-14500000D03*
X31250000Y-8500000D03*
X31250000Y-9500000D03*
X31250000Y-10500000D03*
X31250000Y-11500000D03*
X31250000Y-12500000D03*
X32150000Y-13000000D03*
X32150000Y-14000000D03*
X32150000Y-15000000D03*
X30350000Y-13000000D03*
X30350000Y-14000000D03*
X30350000Y-15000000D03*
X32150000Y-8000000D03*
X32150000Y-9000000D03*
X32150000Y-10000000D03*
X32150000Y-11000000D03*
X32150000Y-12000000D03*
X30350000Y-8000000D03*
X30350000Y-9000000D03*
X30350000Y-10000000D03*
X30350000Y-11000000D03*
X30350000Y-12000000D03*
D12*
X31250000Y-3400000D03*
D13*
X31250000Y-8400000D03*
D11*
X10950000Y-2500000D03*
X9950000Y-2500000D03*
X8950000Y-2500000D03*
X7950000Y-2500000D03*
X7950000Y-3500000D03*
X8950000Y-3500000D03*
X9950000Y-3500000D03*
X10950000Y-3500000D03*
X10950000Y-4500000D03*
X9950000Y-4500000D03*
X8950000Y-4500000D03*
X7950000Y-4500000D03*
X1550000Y-4500000D03*
X2550000Y-4500000D03*
X3550000Y-4500000D03*
X4550000Y-4500000D03*
X4550000Y-3500000D03*
X3550000Y-3500000D03*
X2550000Y-3500000D03*
X1550000Y-3500000D03*
X1550000Y-2500000D03*
X2550000Y-2500000D03*
X3550000Y-2500000D03*
X4550000Y-2500000D03*
X6250000Y-9000000D03*
X6950000Y-6500000D03*
X6950000Y-7500000D03*
X6950000Y-8500000D03*
X5550000Y-8500000D03*
X5550000Y-7500000D03*
X5550000Y-6500000D03*
X6250000Y-13000000D03*
X6250000Y-10000000D03*
X6250000Y-12000000D03*
X6250000Y-11000000D03*
X4550000Y-12500000D03*
X3550000Y-12500000D03*
X2550000Y-12500000D03*
X1550000Y-12500000D03*
X6950000Y-12500000D03*
X5550000Y-12500000D03*
X6950000Y-11500000D03*
X6950000Y-9500000D03*
X5550000Y-9500000D03*
X5550000Y-5500000D03*
X6950000Y-5500000D03*
X10950000Y-12500000D03*
X9950000Y-12500000D03*
X8950000Y-12500000D03*
X7950000Y-12500000D03*
X7950000Y-11500000D03*
X8950000Y-11500000D03*
X9950000Y-11500000D03*
X10950000Y-11500000D03*
X10950000Y-10500000D03*
X9950000Y-10500000D03*
X8950000Y-10500000D03*
X7950000Y-10500000D03*
X7950000Y-9500000D03*
X8950000Y-9500000D03*
X9950000Y-9500000D03*
X10950000Y-9500000D03*
X10950000Y-8500000D03*
X9950000Y-8500000D03*
X8950000Y-8500000D03*
X7950000Y-8500000D03*
X7950000Y-7500000D03*
X8950000Y-7500000D03*
X9950000Y-7500000D03*
X10950000Y-7500000D03*
X10950000Y-6500000D03*
X9950000Y-6500000D03*
X8950000Y-6500000D03*
X7950000Y-6500000D03*
X7950000Y-5500000D03*
X8950000Y-5500000D03*
X9950000Y-5500000D03*
X10950000Y-5500000D03*
X4550000Y-5500000D03*
X3550000Y-5500000D03*
X2550000Y-5500000D03*
X1550000Y-5500000D03*
X1550000Y-6500000D03*
X2550000Y-6500000D03*
X3550000Y-6500000D03*
X4550000Y-6500000D03*
X4550000Y-7500000D03*
X3550000Y-7500000D03*
X2550000Y-7500000D03*
X1550000Y-7500000D03*
X1550000Y-8500000D03*
X2550000Y-8500000D03*
X3550000Y-8500000D03*
X4550000Y-8500000D03*
X4550000Y-9500000D03*
X3550000Y-9500000D03*
X2550000Y-9500000D03*
X1550000Y-9500000D03*
X1550000Y-10500000D03*
X2550000Y-10500000D03*
X3550000Y-10500000D03*
X4550000Y-10500000D03*
X4550000Y-11500000D03*
X3550000Y-11500000D03*
X2550000Y-11500000D03*
X1550000Y-11500000D03*
X6950000Y-10500000D03*
X5550000Y-11500000D03*
X5550000Y-10500000D03*
D12*
X6250000Y-3400000D03*
D13*
X6250000Y-8400000D03*
D11*
X23450000Y-2500000D03*
X22450000Y-2500000D03*
X21450000Y-2500000D03*
X20450000Y-2500000D03*
X20450000Y-3500000D03*
X21450000Y-3500000D03*
X22450000Y-3500000D03*
X23450000Y-3500000D03*
X23450000Y-4500000D03*
X22450000Y-4500000D03*
X21450000Y-4500000D03*
X20450000Y-4500000D03*
X14050000Y-4500000D03*
X15050000Y-4500000D03*
X16050000Y-4500000D03*
X17050000Y-4500000D03*
X17050000Y-3500000D03*
X16050000Y-3500000D03*
X15050000Y-3500000D03*
X14050000Y-3500000D03*
X14050000Y-2500000D03*
X15050000Y-2500000D03*
X16050000Y-2500000D03*
X17050000Y-2500000D03*
X18750000Y-9000000D03*
X19450000Y-6500000D03*
X19450000Y-7500000D03*
X19450000Y-8500000D03*
X18050000Y-8500000D03*
X18050000Y-7500000D03*
X18050000Y-6500000D03*
X18750000Y-13000000D03*
X18750000Y-10000000D03*
X18750000Y-12000000D03*
X18750000Y-11000000D03*
X17050000Y-12500000D03*
X16050000Y-12500000D03*
X15050000Y-12500000D03*
X14050000Y-12500000D03*
X19450000Y-12500000D03*
X18050000Y-12500000D03*
X19450000Y-11500000D03*
X19450000Y-9500000D03*
X18050000Y-9500000D03*
X18050000Y-5500000D03*
X19450000Y-5500000D03*
X23450000Y-12500000D03*
X22450000Y-12500000D03*
X21450000Y-12500000D03*
X20450000Y-12500000D03*
X20450000Y-11500000D03*
X21450000Y-11500000D03*
X22450000Y-11500000D03*
X23450000Y-11500000D03*
X23450000Y-10500000D03*
X22450000Y-10500000D03*
X21450000Y-10500000D03*
X20450000Y-10500000D03*
X20450000Y-9500000D03*
X21450000Y-9500000D03*
X22450000Y-9500000D03*
X23450000Y-9500000D03*
X23450000Y-8500000D03*
X22450000Y-8500000D03*
X21450000Y-8500000D03*
X20450000Y-8500000D03*
X20450000Y-7500000D03*
X21450000Y-7500000D03*
X22450000Y-7500000D03*
X23450000Y-7500000D03*
X23450000Y-6500000D03*
X22450000Y-6500000D03*
X21450000Y-6500000D03*
X20450000Y-6500000D03*
X20450000Y-5500000D03*
X21450000Y-5500000D03*
X22450000Y-5500000D03*
X23450000Y-5500000D03*
X17050000Y-5500000D03*
X16050000Y-5500000D03*
X15050000Y-5500000D03*
X14050000Y-5500000D03*
X14050000Y-6500000D03*
X15050000Y-6500000D03*
X16050000Y-6500000D03*
X17050000Y-6500000D03*
X17050000Y-7500000D03*
X16050000Y-7500000D03*
X15050000Y-7500000D03*
X14050000Y-7500000D03*
X14050000Y-8500000D03*
X15050000Y-8500000D03*
X16050000Y-8500000D03*
X17050000Y-8500000D03*
X17050000Y-9500000D03*
X16050000Y-9500000D03*
X15050000Y-9500000D03*
X14050000Y-9500000D03*
X14050000Y-10500000D03*
X15050000Y-10500000D03*
X16050000Y-10500000D03*
X17050000Y-10500000D03*
X17050000Y-11500000D03*
X16050000Y-11500000D03*
X15050000Y-11500000D03*
X14050000Y-11500000D03*
X19450000Y-10500000D03*
X18050000Y-11500000D03*
X18050000Y-10500000D03*
D12*
X18750000Y-3400000D03*
D13*
X18750000Y-8400000D03*
D11*
X10950000Y-19167000D03*
X9950000Y-19167000D03*
X8950000Y-19167000D03*
X7950000Y-19167000D03*
X7950000Y-20167000D03*
X8950000Y-20167000D03*
X9950000Y-20167000D03*
X10950000Y-20167000D03*
X10950000Y-21167000D03*
X9950000Y-21167000D03*
X8950000Y-21167000D03*
X7950000Y-21167000D03*
X1550000Y-21167000D03*
X2550000Y-21167000D03*
X3550000Y-21167000D03*
X4550000Y-21167000D03*
X4550000Y-20167000D03*
X3550000Y-20167000D03*
X2550000Y-20167000D03*
X1550000Y-20167000D03*
X1550000Y-19167000D03*
X2550000Y-19167000D03*
X3550000Y-19167000D03*
X4550000Y-19167000D03*
X6250000Y-25667000D03*
X6950000Y-23167000D03*
X6950000Y-24167000D03*
X6950000Y-25167000D03*
X5550000Y-25167000D03*
X5550000Y-24167000D03*
X5550000Y-23167000D03*
X6250000Y-29667000D03*
X6250000Y-26667000D03*
X6250000Y-28667000D03*
X6250000Y-27667000D03*
X4550000Y-29167000D03*
X3550000Y-29167000D03*
X2550000Y-29167000D03*
X1550000Y-29167000D03*
X6950000Y-29167000D03*
X5550000Y-29167000D03*
X6950000Y-28167000D03*
X6950000Y-26167000D03*
X5550000Y-26167000D03*
X5550000Y-22167000D03*
X6950000Y-22167000D03*
X10950000Y-29167000D03*
X9950000Y-29167000D03*
X8950000Y-29167000D03*
X7950000Y-29167000D03*
X7950000Y-28167000D03*
X8950000Y-28167000D03*
X9950000Y-28167000D03*
X10950000Y-28167000D03*
X10950000Y-27167000D03*
X9950000Y-27167000D03*
X8950000Y-27167000D03*
X7950000Y-27167000D03*
X7950000Y-26167000D03*
X8950000Y-26167000D03*
X9950000Y-26167000D03*
X10950000Y-26167000D03*
X10950000Y-25167000D03*
X9950000Y-25167000D03*
X8950000Y-25167000D03*
X7950000Y-25167000D03*
X7950000Y-24167000D03*
X8950000Y-24167000D03*
X9950000Y-24167000D03*
X10950000Y-24167000D03*
X10950000Y-23167000D03*
X9950000Y-23167000D03*
X8950000Y-23167000D03*
X7950000Y-23167000D03*
X7950000Y-22167000D03*
X8950000Y-22167000D03*
X9950000Y-22167000D03*
X10950000Y-22167000D03*
X4550000Y-22167000D03*
X3550000Y-22167000D03*
X2550000Y-22167000D03*
X1550000Y-22167000D03*
X1550000Y-23167000D03*
X2550000Y-23167000D03*
X3550000Y-23167000D03*
X4550000Y-23167000D03*
X4550000Y-24167000D03*
X3550000Y-24167000D03*
X2550000Y-24167000D03*
X1550000Y-24167000D03*
X1550000Y-25167000D03*
X2550000Y-25167000D03*
X3550000Y-25167000D03*
X4550000Y-25167000D03*
X4550000Y-26167000D03*
X3550000Y-26167000D03*
X2550000Y-26167000D03*
X1550000Y-26167000D03*
X1550000Y-27167000D03*
X2550000Y-27167000D03*
X3550000Y-27167000D03*
X4550000Y-27167000D03*
X4550000Y-28167000D03*
X3550000Y-28167000D03*
X2550000Y-28167000D03*
X1550000Y-28167000D03*
X6950000Y-27167000D03*
X5550000Y-28167000D03*
X5550000Y-27167000D03*
D12*
X6250000Y-20067000D03*
D13*
X6250000Y-25067000D03*
D11*
X23450000Y-19167000D03*
X22450000Y-19167000D03*
X21450000Y-19167000D03*
X20450000Y-19167000D03*
X20450000Y-20167000D03*
X21450000Y-20167000D03*
X22450000Y-20167000D03*
X23450000Y-20167000D03*
X23450000Y-21167000D03*
X22450000Y-21167000D03*
X21450000Y-21167000D03*
X20450000Y-21167000D03*
X14050000Y-21167000D03*
X15050000Y-21167000D03*
X16050000Y-21167000D03*
X17050000Y-21167000D03*
X17050000Y-20167000D03*
X16050000Y-20167000D03*
X15050000Y-20167000D03*
X14050000Y-20167000D03*
X14050000Y-19167000D03*
X15050000Y-19167000D03*
X16050000Y-19167000D03*
X17050000Y-19167000D03*
X18750000Y-25667000D03*
X19450000Y-23167000D03*
X19450000Y-24167000D03*
X19450000Y-25167000D03*
X18050000Y-25167000D03*
X18050000Y-24167000D03*
X18050000Y-23167000D03*
X18750000Y-29667000D03*
X18750000Y-26667000D03*
X18750000Y-28667000D03*
X18750000Y-27667000D03*
X17050000Y-29167000D03*
X16050000Y-29167000D03*
X15050000Y-29167000D03*
X14050000Y-29167000D03*
X19450000Y-29167000D03*
X18050000Y-29167000D03*
X19450000Y-28167000D03*
X19450000Y-26167000D03*
X18050000Y-26167000D03*
X18050000Y-22167000D03*
X19450000Y-22167000D03*
X23450000Y-29167000D03*
X22450000Y-29167000D03*
X21450000Y-29167000D03*
X20450000Y-29167000D03*
X20450000Y-28167000D03*
X21450000Y-28167000D03*
X22450000Y-28167000D03*
X23450000Y-28167000D03*
X23450000Y-27167000D03*
X22450000Y-27167000D03*
X21450000Y-27167000D03*
X20450000Y-27167000D03*
X20450000Y-26167000D03*
X21450000Y-26167000D03*
X22450000Y-26167000D03*
X23450000Y-26167000D03*
X23450000Y-25167000D03*
X22450000Y-25167000D03*
X21450000Y-25167000D03*
X20450000Y-25167000D03*
X20450000Y-24167000D03*
X21450000Y-24167000D03*
X22450000Y-24167000D03*
X23450000Y-24167000D03*
X23450000Y-23167000D03*
X22450000Y-23167000D03*
X21450000Y-23167000D03*
X20450000Y-23167000D03*
X20450000Y-22167000D03*
X21450000Y-22167000D03*
X22450000Y-22167000D03*
X23450000Y-22167000D03*
X17050000Y-22167000D03*
X16050000Y-22167000D03*
X15050000Y-22167000D03*
X14050000Y-22167000D03*
X14050000Y-23167000D03*
X15050000Y-23167000D03*
X16050000Y-23167000D03*
X17050000Y-23167000D03*
X17050000Y-24167000D03*
X16050000Y-24167000D03*
X15050000Y-24167000D03*
X14050000Y-24167000D03*
X14050000Y-25167000D03*
X15050000Y-25167000D03*
X16050000Y-25167000D03*
X17050000Y-25167000D03*
X17050000Y-26167000D03*
X16050000Y-26167000D03*
X15050000Y-26167000D03*
X14050000Y-26167000D03*
X14050000Y-27167000D03*
X15050000Y-27167000D03*
X16050000Y-27167000D03*
X17050000Y-27167000D03*
X17050000Y-28167000D03*
X16050000Y-28167000D03*
X15050000Y-28167000D03*
X14050000Y-28167000D03*
X19450000Y-27167000D03*
X18050000Y-28167000D03*
X18050000Y-27167000D03*
D12*
X18750000Y-20067000D03*
D13*
X18750000Y-25067000D03*
D11*
X10950000Y-35834000D03*
X9950000Y-35834000D03*
X8950000Y-35834000D03*
X7950000Y-35834000D03*
X7950000Y-36834000D03*
X8950000Y-36834000D03*
X9950000Y-36834000D03*
X10950000Y-36834000D03*
X10950000Y-37834000D03*
X9950000Y-37834000D03*
X8950000Y-37834000D03*
X7950000Y-37834000D03*
X1550000Y-37834000D03*
X2550000Y-37834000D03*
X3550000Y-37834000D03*
X4550000Y-37834000D03*
X4550000Y-36834000D03*
X3550000Y-36834000D03*
X2550000Y-36834000D03*
X1550000Y-36834000D03*
X1550000Y-35834000D03*
X2550000Y-35834000D03*
X3550000Y-35834000D03*
X4550000Y-35834000D03*
X6250000Y-42334000D03*
X6950000Y-39834000D03*
X6950000Y-40834000D03*
X6950000Y-41834000D03*
X5550000Y-41834000D03*
X5550000Y-40834000D03*
X5550000Y-39834000D03*
X6250000Y-46334000D03*
X6250000Y-43334000D03*
X6250000Y-45334000D03*
X6250000Y-44334000D03*
X4550000Y-45834000D03*
X3550000Y-45834000D03*
X2550000Y-45834000D03*
X1550000Y-45834000D03*
X6950000Y-45834000D03*
X5550000Y-45834000D03*
X6950000Y-44834000D03*
X6950000Y-42834000D03*
X5550000Y-42834000D03*
X5550000Y-38834000D03*
X6950000Y-38834000D03*
X10950000Y-45834000D03*
X9950000Y-45834000D03*
X8950000Y-45834000D03*
X7950000Y-45834000D03*
X7950000Y-44834000D03*
X8950000Y-44834000D03*
X9950000Y-44834000D03*
X10950000Y-44834000D03*
X10950000Y-43834000D03*
X9950000Y-43834000D03*
X8950000Y-43834000D03*
X7950000Y-43834000D03*
X7950000Y-42834000D03*
X8950000Y-42834000D03*
X9950000Y-42834000D03*
X10950000Y-42834000D03*
X10950000Y-41834000D03*
X9950000Y-41834000D03*
X8950000Y-41834000D03*
X7950000Y-41834000D03*
X7950000Y-40834000D03*
X8950000Y-40834000D03*
X9950000Y-40834000D03*
X10950000Y-40834000D03*
X10950000Y-39834000D03*
X9950000Y-39834000D03*
X8950000Y-39834000D03*
X7950000Y-39834000D03*
X7950000Y-38834000D03*
X8950000Y-38834000D03*
X9950000Y-38834000D03*
X10950000Y-38834000D03*
X4550000Y-38834000D03*
X3550000Y-38834000D03*
X2550000Y-38834000D03*
X1550000Y-38834000D03*
X1550000Y-39834000D03*
X2550000Y-39834000D03*
X3550000Y-39834000D03*
X4550000Y-39834000D03*
X4550000Y-40834000D03*
X3550000Y-40834000D03*
X2550000Y-40834000D03*
X1550000Y-40834000D03*
X1550000Y-41834000D03*
X2550000Y-41834000D03*
X3550000Y-41834000D03*
X4550000Y-41834000D03*
X4550000Y-42834000D03*
X3550000Y-42834000D03*
X2550000Y-42834000D03*
X1550000Y-42834000D03*
X1550000Y-43834000D03*
X2550000Y-43834000D03*
X3550000Y-43834000D03*
X4550000Y-43834000D03*
X4550000Y-44834000D03*
X3550000Y-44834000D03*
X2550000Y-44834000D03*
X1550000Y-44834000D03*
X6950000Y-43834000D03*
X5550000Y-44834000D03*
X5550000Y-43834000D03*
D12*
X6250000Y-36734000D03*
D13*
X6250000Y-41734000D03*
D11*
X23450000Y-35834000D03*
X22450000Y-35834000D03*
X21450000Y-35834000D03*
X20450000Y-35834000D03*
X20450000Y-36834000D03*
X21450000Y-36834000D03*
X22450000Y-36834000D03*
X23450000Y-36834000D03*
X23450000Y-37834000D03*
X22450000Y-37834000D03*
X21450000Y-37834000D03*
X20450000Y-37834000D03*
X14050000Y-37834000D03*
X15050000Y-37834000D03*
X16050000Y-37834000D03*
X17050000Y-37834000D03*
X17050000Y-36834000D03*
X16050000Y-36834000D03*
X15050000Y-36834000D03*
X14050000Y-36834000D03*
X14050000Y-35834000D03*
X15050000Y-35834000D03*
X16050000Y-35834000D03*
X17050000Y-35834000D03*
X18750000Y-42334000D03*
X19450000Y-39834000D03*
X19450000Y-40834000D03*
X19450000Y-41834000D03*
X18050000Y-41834000D03*
X18050000Y-40834000D03*
X18050000Y-39834000D03*
X18750000Y-46334000D03*
X18750000Y-43334000D03*
X18750000Y-45334000D03*
X18750000Y-44334000D03*
X17050000Y-45834000D03*
X16050000Y-45834000D03*
X15050000Y-45834000D03*
X14050000Y-45834000D03*
X19450000Y-45834000D03*
X18050000Y-45834000D03*
X19450000Y-44834000D03*
X19450000Y-42834000D03*
X18050000Y-42834000D03*
X18050000Y-38834000D03*
X19450000Y-38834000D03*
X23450000Y-45834000D03*
X22450000Y-45834000D03*
X21450000Y-45834000D03*
X20450000Y-45834000D03*
X20450000Y-44834000D03*
X21450000Y-44834000D03*
X22450000Y-44834000D03*
X23450000Y-44834000D03*
X23450000Y-43834000D03*
X22450000Y-43834000D03*
X21450000Y-43834000D03*
X20450000Y-43834000D03*
X20450000Y-42834000D03*
X21450000Y-42834000D03*
X22450000Y-42834000D03*
X23450000Y-42834000D03*
X23450000Y-41834000D03*
X22450000Y-41834000D03*
X21450000Y-41834000D03*
X20450000Y-41834000D03*
X20450000Y-40834000D03*
X21450000Y-40834000D03*
X22450000Y-40834000D03*
X23450000Y-40834000D03*
X23450000Y-39834000D03*
X22450000Y-39834000D03*
X21450000Y-39834000D03*
X20450000Y-39834000D03*
X20450000Y-38834000D03*
X21450000Y-38834000D03*
X22450000Y-38834000D03*
X23450000Y-38834000D03*
X17050000Y-38834000D03*
X16050000Y-38834000D03*
X15050000Y-38834000D03*
X14050000Y-38834000D03*
X14050000Y-39834000D03*
X15050000Y-39834000D03*
X16050000Y-39834000D03*
X17050000Y-39834000D03*
X17050000Y-40834000D03*
X16050000Y-40834000D03*
X15050000Y-40834000D03*
X14050000Y-40834000D03*
X14050000Y-41834000D03*
X15050000Y-41834000D03*
X16050000Y-41834000D03*
X17050000Y-41834000D03*
X17050000Y-42834000D03*
X16050000Y-42834000D03*
X15050000Y-42834000D03*
X14050000Y-42834000D03*
X14050000Y-43834000D03*
X15050000Y-43834000D03*
X16050000Y-43834000D03*
X17050000Y-43834000D03*
X17050000Y-44834000D03*
X16050000Y-44834000D03*
X15050000Y-44834000D03*
X14050000Y-44834000D03*
X19450000Y-43834000D03*
X18050000Y-44834000D03*
X18050000Y-43834000D03*
D12*
X18750000Y-36734000D03*
D13*
X18750000Y-41734000D03*
M02*
