M48
;DRILL file {KiCad 4.0.1-stable} date 7/31/2016 2:21:35 PM
;FORMAT={-:-/ absolute / metric / decimal}
FMAT,2
METRIC,TZ
T1C0.300
T2C2.250
%
G90
G05
M71
T1
X1.55Y-2.5
X1.55Y-3.5
X1.55Y-4.5
X1.55Y-5.5
X1.55Y-6.5
X1.55Y-7.5
X1.55Y-8.5
X1.55Y-9.5
X1.55Y-10.5
X1.55Y-11.5
X1.55Y-12.5
X1.55Y-19.167
X1.55Y-20.167
X1.55Y-21.167
X1.55Y-22.167
X1.55Y-23.167
X1.55Y-24.167
X1.55Y-25.167
X1.55Y-26.167
X1.55Y-27.167
X1.55Y-28.167
X1.55Y-29.167
X1.55Y-35.834
X1.55Y-36.834
X1.55Y-37.834
X1.55Y-38.834
X1.55Y-39.834
X1.55Y-40.834
X1.55Y-41.834
X1.55Y-42.834
X1.55Y-43.834
X1.55Y-44.834
X1.55Y-45.834
X2.55Y-2.5
X2.55Y-3.5
X2.55Y-4.5
X2.55Y-5.5
X2.55Y-6.5
X2.55Y-7.5
X2.55Y-8.5
X2.55Y-9.5
X2.55Y-10.5
X2.55Y-11.5
X2.55Y-12.5
X2.55Y-19.167
X2.55Y-20.167
X2.55Y-21.167
X2.55Y-22.167
X2.55Y-23.167
X2.55Y-24.167
X2.55Y-25.167
X2.55Y-26.167
X2.55Y-27.167
X2.55Y-28.167
X2.55Y-29.167
X2.55Y-35.834
X2.55Y-36.834
X2.55Y-37.834
X2.55Y-38.834
X2.55Y-39.834
X2.55Y-40.834
X2.55Y-41.834
X2.55Y-42.834
X2.55Y-43.834
X2.55Y-44.834
X2.55Y-45.834
X3.55Y-2.5
X3.55Y-3.5
X3.55Y-4.5
X3.55Y-5.5
X3.55Y-6.5
X3.55Y-7.5
X3.55Y-8.5
X3.55Y-9.5
X3.55Y-10.5
X3.55Y-11.5
X3.55Y-12.5
X3.55Y-19.167
X3.55Y-20.167
X3.55Y-21.167
X3.55Y-22.167
X3.55Y-23.167
X3.55Y-24.167
X3.55Y-25.167
X3.55Y-26.167
X3.55Y-27.167
X3.55Y-28.167
X3.55Y-29.167
X3.55Y-35.834
X3.55Y-36.834
X3.55Y-37.834
X3.55Y-38.834
X3.55Y-39.834
X3.55Y-40.834
X3.55Y-41.834
X3.55Y-42.834
X3.55Y-43.834
X3.55Y-44.834
X3.55Y-45.834
X4.55Y-2.5
X4.55Y-3.5
X4.55Y-4.5
X4.55Y-5.5
X4.55Y-6.5
X4.55Y-7.5
X4.55Y-8.5
X4.55Y-9.5
X4.55Y-10.5
X4.55Y-11.5
X4.55Y-12.5
X4.55Y-19.167
X4.55Y-20.167
X4.55Y-21.167
X4.55Y-22.167
X4.55Y-23.167
X4.55Y-24.167
X4.55Y-25.167
X4.55Y-26.167
X4.55Y-27.167
X4.55Y-28.167
X4.55Y-29.167
X4.55Y-35.834
X4.55Y-36.834
X4.55Y-37.834
X4.55Y-38.834
X4.55Y-39.834
X4.55Y-40.834
X4.55Y-41.834
X4.55Y-42.834
X4.55Y-43.834
X4.55Y-44.834
X4.55Y-45.834
X5.55Y-5.5
X5.55Y-6.5
X5.55Y-7.5
X5.55Y-8.5
X5.55Y-9.5
X5.55Y-10.5
X5.55Y-11.5
X5.55Y-12.5
X5.55Y-22.167
X5.55Y-23.167
X5.55Y-24.167
X5.55Y-25.167
X5.55Y-26.167
X5.55Y-27.167
X5.55Y-28.167
X5.55Y-29.167
X5.55Y-38.834
X5.55Y-39.834
X5.55Y-40.834
X5.55Y-41.834
X5.55Y-42.834
X5.55Y-43.834
X5.55Y-44.834
X5.55Y-45.834
X6.25Y-9.
X6.25Y-10.
X6.25Y-11.
X6.25Y-12.
X6.25Y-13.
X6.25Y-25.667
X6.25Y-26.667
X6.25Y-27.667
X6.25Y-28.667
X6.25Y-29.667
X6.25Y-42.334
X6.25Y-43.334
X6.25Y-44.334
X6.25Y-45.334
X6.25Y-46.334
X6.95Y-5.5
X6.95Y-6.5
X6.95Y-7.5
X6.95Y-8.5
X6.95Y-9.5
X6.95Y-10.5
X6.95Y-11.5
X6.95Y-12.5
X6.95Y-22.167
X6.95Y-23.167
X6.95Y-24.167
X6.95Y-25.167
X6.95Y-26.167
X6.95Y-27.167
X6.95Y-28.167
X6.95Y-29.167
X6.95Y-38.834
X6.95Y-39.834
X6.95Y-40.834
X6.95Y-41.834
X6.95Y-42.834
X6.95Y-43.834
X6.95Y-44.834
X6.95Y-45.834
X7.95Y-2.5
X7.95Y-3.5
X7.95Y-4.5
X7.95Y-5.5
X7.95Y-6.5
X7.95Y-7.5
X7.95Y-8.5
X7.95Y-9.5
X7.95Y-10.5
X7.95Y-11.5
X7.95Y-12.5
X7.95Y-19.167
X7.95Y-20.167
X7.95Y-21.167
X7.95Y-22.167
X7.95Y-23.167
X7.95Y-24.167
X7.95Y-25.167
X7.95Y-26.167
X7.95Y-27.167
X7.95Y-28.167
X7.95Y-29.167
X7.95Y-35.834
X7.95Y-36.834
X7.95Y-37.834
X7.95Y-38.834
X7.95Y-39.834
X7.95Y-40.834
X7.95Y-41.834
X7.95Y-42.834
X7.95Y-43.834
X7.95Y-44.834
X7.95Y-45.834
X8.95Y-2.5
X8.95Y-3.5
X8.95Y-4.5
X8.95Y-5.5
X8.95Y-6.5
X8.95Y-7.5
X8.95Y-8.5
X8.95Y-9.5
X8.95Y-10.5
X8.95Y-11.5
X8.95Y-12.5
X8.95Y-19.167
X8.95Y-20.167
X8.95Y-21.167
X8.95Y-22.167
X8.95Y-23.167
X8.95Y-24.167
X8.95Y-25.167
X8.95Y-26.167
X8.95Y-27.167
X8.95Y-28.167
X8.95Y-29.167
X8.95Y-35.834
X8.95Y-36.834
X8.95Y-37.834
X8.95Y-38.834
X8.95Y-39.834
X8.95Y-40.834
X8.95Y-41.834
X8.95Y-42.834
X8.95Y-43.834
X8.95Y-44.834
X8.95Y-45.834
X9.95Y-2.5
X9.95Y-3.5
X9.95Y-4.5
X9.95Y-5.5
X9.95Y-6.5
X9.95Y-7.5
X9.95Y-8.5
X9.95Y-9.5
X9.95Y-10.5
X9.95Y-11.5
X9.95Y-12.5
X9.95Y-19.167
X9.95Y-20.167
X9.95Y-21.167
X9.95Y-22.167
X9.95Y-23.167
X9.95Y-24.167
X9.95Y-25.167
X9.95Y-26.167
X9.95Y-27.167
X9.95Y-28.167
X9.95Y-29.167
X9.95Y-35.834
X9.95Y-36.834
X9.95Y-37.834
X9.95Y-38.834
X9.95Y-39.834
X9.95Y-40.834
X9.95Y-41.834
X9.95Y-42.834
X9.95Y-43.834
X9.95Y-44.834
X9.95Y-45.834
X10.95Y-2.5
X10.95Y-3.5
X10.95Y-4.5
X10.95Y-5.5
X10.95Y-6.5
X10.95Y-7.5
X10.95Y-8.5
X10.95Y-9.5
X10.95Y-10.5
X10.95Y-11.5
X10.95Y-12.5
X10.95Y-19.167
X10.95Y-20.167
X10.95Y-21.167
X10.95Y-22.167
X10.95Y-23.167
X10.95Y-24.167
X10.95Y-25.167
X10.95Y-26.167
X10.95Y-27.167
X10.95Y-28.167
X10.95Y-29.167
X10.95Y-35.834
X10.95Y-36.834
X10.95Y-37.834
X10.95Y-38.834
X10.95Y-39.834
X10.95Y-40.834
X10.95Y-41.834
X10.95Y-42.834
X10.95Y-43.834
X10.95Y-44.834
X10.95Y-45.834
X14.05Y-2.5
X14.05Y-3.5
X14.05Y-4.5
X14.05Y-5.5
X14.05Y-6.5
X14.05Y-7.5
X14.05Y-8.5
X14.05Y-9.5
X14.05Y-10.5
X14.05Y-11.5
X14.05Y-12.5
X14.05Y-19.167
X14.05Y-20.167
X14.05Y-21.167
X14.05Y-22.167
X14.05Y-23.167
X14.05Y-24.167
X14.05Y-25.167
X14.05Y-26.167
X14.05Y-27.167
X14.05Y-28.167
X14.05Y-29.167
X14.05Y-35.834
X14.05Y-36.834
X14.05Y-37.834
X14.05Y-38.834
X14.05Y-39.834
X14.05Y-40.834
X14.05Y-41.834
X14.05Y-42.834
X14.05Y-43.834
X14.05Y-44.834
X14.05Y-45.834
X15.05Y-2.5
X15.05Y-3.5
X15.05Y-4.5
X15.05Y-5.5
X15.05Y-6.5
X15.05Y-7.5
X15.05Y-8.5
X15.05Y-9.5
X15.05Y-10.5
X15.05Y-11.5
X15.05Y-12.5
X15.05Y-19.167
X15.05Y-20.167
X15.05Y-21.167
X15.05Y-22.167
X15.05Y-23.167
X15.05Y-24.167
X15.05Y-25.167
X15.05Y-26.167
X15.05Y-27.167
X15.05Y-28.167
X15.05Y-29.167
X15.05Y-35.834
X15.05Y-36.834
X15.05Y-37.834
X15.05Y-38.834
X15.05Y-39.834
X15.05Y-40.834
X15.05Y-41.834
X15.05Y-42.834
X15.05Y-43.834
X15.05Y-44.834
X15.05Y-45.834
X16.05Y-2.5
X16.05Y-3.5
X16.05Y-4.5
X16.05Y-5.5
X16.05Y-6.5
X16.05Y-7.5
X16.05Y-8.5
X16.05Y-9.5
X16.05Y-10.5
X16.05Y-11.5
X16.05Y-12.5
X16.05Y-19.167
X16.05Y-20.167
X16.05Y-21.167
X16.05Y-22.167
X16.05Y-23.167
X16.05Y-24.167
X16.05Y-25.167
X16.05Y-26.167
X16.05Y-27.167
X16.05Y-28.167
X16.05Y-29.167
X16.05Y-35.834
X16.05Y-36.834
X16.05Y-37.834
X16.05Y-38.834
X16.05Y-39.834
X16.05Y-40.834
X16.05Y-41.834
X16.05Y-42.834
X16.05Y-43.834
X16.05Y-44.834
X16.05Y-45.834
X17.05Y-2.5
X17.05Y-3.5
X17.05Y-4.5
X17.05Y-5.5
X17.05Y-6.5
X17.05Y-7.5
X17.05Y-8.5
X17.05Y-9.5
X17.05Y-10.5
X17.05Y-11.5
X17.05Y-12.5
X17.05Y-19.167
X17.05Y-20.167
X17.05Y-21.167
X17.05Y-22.167
X17.05Y-23.167
X17.05Y-24.167
X17.05Y-25.167
X17.05Y-26.167
X17.05Y-27.167
X17.05Y-28.167
X17.05Y-29.167
X17.05Y-35.834
X17.05Y-36.834
X17.05Y-37.834
X17.05Y-38.834
X17.05Y-39.834
X17.05Y-40.834
X17.05Y-41.834
X17.05Y-42.834
X17.05Y-43.834
X17.05Y-44.834
X17.05Y-45.834
X18.05Y-5.5
X18.05Y-6.5
X18.05Y-7.5
X18.05Y-8.5
X18.05Y-9.5
X18.05Y-10.5
X18.05Y-11.5
X18.05Y-12.5
X18.05Y-22.167
X18.05Y-23.167
X18.05Y-24.167
X18.05Y-25.167
X18.05Y-26.167
X18.05Y-27.167
X18.05Y-28.167
X18.05Y-29.167
X18.05Y-38.834
X18.05Y-39.834
X18.05Y-40.834
X18.05Y-41.834
X18.05Y-42.834
X18.05Y-43.834
X18.05Y-44.834
X18.05Y-45.834
X18.75Y-9.
X18.75Y-10.
X18.75Y-11.
X18.75Y-12.
X18.75Y-13.
X18.75Y-25.667
X18.75Y-26.667
X18.75Y-27.667
X18.75Y-28.667
X18.75Y-29.667
X18.75Y-42.334
X18.75Y-43.334
X18.75Y-44.334
X18.75Y-45.334
X18.75Y-46.334
X19.45Y-5.5
X19.45Y-6.5
X19.45Y-7.5
X19.45Y-8.5
X19.45Y-9.5
X19.45Y-10.5
X19.45Y-11.5
X19.45Y-12.5
X19.45Y-22.167
X19.45Y-23.167
X19.45Y-24.167
X19.45Y-25.167
X19.45Y-26.167
X19.45Y-27.167
X19.45Y-28.167
X19.45Y-29.167
X19.45Y-38.834
X19.45Y-39.834
X19.45Y-40.834
X19.45Y-41.834
X19.45Y-42.834
X19.45Y-43.834
X19.45Y-44.834
X19.45Y-45.834
X20.45Y-2.5
X20.45Y-3.5
X20.45Y-4.5
X20.45Y-5.5
X20.45Y-6.5
X20.45Y-7.5
X20.45Y-8.5
X20.45Y-9.5
X20.45Y-10.5
X20.45Y-11.5
X20.45Y-12.5
X20.45Y-19.167
X20.45Y-20.167
X20.45Y-21.167
X20.45Y-22.167
X20.45Y-23.167
X20.45Y-24.167
X20.45Y-25.167
X20.45Y-26.167
X20.45Y-27.167
X20.45Y-28.167
X20.45Y-29.167
X20.45Y-35.834
X20.45Y-36.834
X20.45Y-37.834
X20.45Y-38.834
X20.45Y-39.834
X20.45Y-40.834
X20.45Y-41.834
X20.45Y-42.834
X20.45Y-43.834
X20.45Y-44.834
X20.45Y-45.834
X21.45Y-2.5
X21.45Y-3.5
X21.45Y-4.5
X21.45Y-5.5
X21.45Y-6.5
X21.45Y-7.5
X21.45Y-8.5
X21.45Y-9.5
X21.45Y-10.5
X21.45Y-11.5
X21.45Y-12.5
X21.45Y-19.167
X21.45Y-20.167
X21.45Y-21.167
X21.45Y-22.167
X21.45Y-23.167
X21.45Y-24.167
X21.45Y-25.167
X21.45Y-26.167
X21.45Y-27.167
X21.45Y-28.167
X21.45Y-29.167
X21.45Y-35.834
X21.45Y-36.834
X21.45Y-37.834
X21.45Y-38.834
X21.45Y-39.834
X21.45Y-40.834
X21.45Y-41.834
X21.45Y-42.834
X21.45Y-43.834
X21.45Y-44.834
X21.45Y-45.834
X22.45Y-2.5
X22.45Y-3.5
X22.45Y-4.5
X22.45Y-5.5
X22.45Y-6.5
X22.45Y-7.5
X22.45Y-8.5
X22.45Y-9.5
X22.45Y-10.5
X22.45Y-11.5
X22.45Y-12.5
X22.45Y-19.167
X22.45Y-20.167
X22.45Y-21.167
X22.45Y-22.167
X22.45Y-23.167
X22.45Y-24.167
X22.45Y-25.167
X22.45Y-26.167
X22.45Y-27.167
X22.45Y-28.167
X22.45Y-29.167
X22.45Y-35.834
X22.45Y-36.834
X22.45Y-37.834
X22.45Y-38.834
X22.45Y-39.834
X22.45Y-40.834
X22.45Y-41.834
X22.45Y-42.834
X22.45Y-43.834
X22.45Y-44.834
X22.45Y-45.834
X23.45Y-2.5
X23.45Y-3.5
X23.45Y-4.5
X23.45Y-5.5
X23.45Y-6.5
X23.45Y-7.5
X23.45Y-8.5
X23.45Y-9.5
X23.45Y-10.5
X23.45Y-11.5
X23.45Y-12.5
X23.45Y-19.167
X23.45Y-20.167
X23.45Y-21.167
X23.45Y-22.167
X23.45Y-23.167
X23.45Y-24.167
X23.45Y-25.167
X23.45Y-26.167
X23.45Y-27.167
X23.45Y-28.167
X23.45Y-29.167
X23.45Y-35.834
X23.45Y-36.834
X23.45Y-37.834
X23.45Y-38.834
X23.45Y-39.834
X23.45Y-40.834
X23.45Y-41.834
X23.45Y-42.834
X23.45Y-43.834
X23.45Y-44.834
X23.45Y-45.834
X26.35Y-2.
X26.35Y-3.
X26.35Y-4.
X26.35Y-5.
X26.35Y-6.
X26.35Y-7.
X26.35Y-8.
X26.35Y-18.667
X26.35Y-19.667
X26.35Y-20.667
X26.35Y-21.667
X26.35Y-22.667
X26.35Y-23.667
X26.35Y-24.667
X26.35Y-35.334
X26.35Y-36.334
X26.35Y-37.334
X26.35Y-38.334
X26.35Y-39.334
X26.35Y-40.334
X26.35Y-41.334
X27.35Y-2.
X27.35Y-3.
X27.35Y-4.
X27.35Y-5.
X27.35Y-6.
X27.35Y-7.
X27.35Y-8.
X27.35Y-18.667
X27.35Y-19.667
X27.35Y-20.667
X27.35Y-21.667
X27.35Y-22.667
X27.35Y-23.667
X27.35Y-24.667
X27.35Y-35.334
X27.35Y-36.334
X27.35Y-37.334
X27.35Y-38.334
X27.35Y-39.334
X27.35Y-40.334
X27.35Y-41.334
X28.35Y-2.
X28.35Y-3.
X28.35Y-4.
X28.35Y-5.
X28.35Y-6.
X28.35Y-7.
X28.35Y-8.
X28.35Y-18.667
X28.35Y-19.667
X28.35Y-20.667
X28.35Y-21.667
X28.35Y-22.667
X28.35Y-23.667
X28.35Y-24.667
X28.35Y-35.334
X28.35Y-36.334
X28.35Y-37.334
X28.35Y-38.334
X28.35Y-39.334
X28.35Y-40.334
X28.35Y-41.334
X29.35Y-2.
X29.35Y-3.
X29.35Y-4.
X29.35Y-5.
X29.35Y-6.
X29.35Y-7.
X29.35Y-8.
X29.35Y-18.667
X29.35Y-19.667
X29.35Y-20.667
X29.35Y-21.667
X29.35Y-22.667
X29.35Y-23.667
X29.35Y-24.667
X29.35Y-35.334
X29.35Y-36.334
X29.35Y-37.334
X29.35Y-38.334
X29.35Y-39.334
X29.35Y-40.334
X29.35Y-41.334
X30.35Y-5.
X30.35Y-6.
X30.35Y-7.
X30.35Y-8.
X30.35Y-9.
X30.35Y-10.
X30.35Y-11.
X30.35Y-12.
X30.35Y-13.
X30.35Y-14.
X30.35Y-15.
X30.35Y-21.667
X30.35Y-22.667
X30.35Y-23.667
X30.35Y-24.667
X30.35Y-25.667
X30.35Y-26.667
X30.35Y-27.667
X30.35Y-28.667
X30.35Y-29.667
X30.35Y-30.667
X30.35Y-31.667
X30.35Y-38.334
X30.35Y-39.334
X30.35Y-40.334
X30.35Y-41.334
X30.35Y-42.334
X30.35Y-43.334
X30.35Y-44.334
X30.35Y-45.334
X30.35Y-46.334
X30.35Y-47.334
X30.35Y-48.334
X31.25Y-5.5
X31.25Y-6.5
X31.25Y-7.5
X31.25Y-8.5
X31.25Y-9.5
X31.25Y-10.5
X31.25Y-11.5
X31.25Y-12.5
X31.25Y-13.5
X31.25Y-14.5
X31.25Y-22.167
X31.25Y-23.167
X31.25Y-24.167
X31.25Y-25.167
X31.25Y-26.167
X31.25Y-27.167
X31.25Y-28.167
X31.25Y-29.167
X31.25Y-30.167
X31.25Y-31.167
X31.25Y-38.834
X31.25Y-39.834
X31.25Y-40.834
X31.25Y-41.834
X31.25Y-42.834
X31.25Y-43.834
X31.25Y-44.834
X31.25Y-45.834
X31.25Y-46.834
X31.25Y-47.834
X32.15Y-5.
X32.15Y-6.
X32.15Y-7.
X32.15Y-8.
X32.15Y-9.
X32.15Y-10.
X32.15Y-11.
X32.15Y-12.
X32.15Y-13.
X32.15Y-14.
X32.15Y-15.
X32.15Y-21.667
X32.15Y-22.667
X32.15Y-23.667
X32.15Y-24.667
X32.15Y-25.667
X32.15Y-26.667
X32.15Y-27.667
X32.15Y-28.667
X32.15Y-29.667
X32.15Y-30.667
X32.15Y-31.667
X32.15Y-38.334
X32.15Y-39.334
X32.15Y-40.334
X32.15Y-41.334
X32.15Y-42.334
X32.15Y-43.334
X32.15Y-44.334
X32.15Y-45.334
X32.15Y-46.334
X32.15Y-47.334
X32.15Y-48.334
X33.15Y-2.
X33.15Y-3.
X33.15Y-4.
X33.15Y-5.
X33.15Y-6.
X33.15Y-7.
X33.15Y-8.
X33.15Y-18.667
X33.15Y-19.667
X33.15Y-20.667
X33.15Y-21.667
X33.15Y-22.667
X33.15Y-23.667
X33.15Y-24.667
X33.15Y-35.334
X33.15Y-36.334
X33.15Y-37.334
X33.15Y-38.334
X33.15Y-39.334
X33.15Y-40.334
X33.15Y-41.334
X34.15Y-2.
X34.15Y-3.
X34.15Y-4.
X34.15Y-5.
X34.15Y-6.
X34.15Y-7.
X34.15Y-8.
X34.15Y-18.667
X34.15Y-19.667
X34.15Y-20.667
X34.15Y-21.667
X34.15Y-22.667
X34.15Y-23.667
X34.15Y-24.667
X34.15Y-35.334
X34.15Y-36.334
X34.15Y-37.334
X34.15Y-38.334
X34.15Y-39.334
X34.15Y-40.334
X34.15Y-41.334
X35.15Y-2.
X35.15Y-3.
X35.15Y-4.
X35.15Y-5.
X35.15Y-6.
X35.15Y-7.
X35.15Y-8.
X35.15Y-18.667
X35.15Y-19.667
X35.15Y-20.667
X35.15Y-21.667
X35.15Y-22.667
X35.15Y-23.667
X35.15Y-24.667
X35.15Y-35.334
X35.15Y-36.334
X35.15Y-37.334
X35.15Y-38.334
X35.15Y-39.334
X35.15Y-40.334
X35.15Y-41.334
X36.15Y-2.
X36.15Y-3.
X36.15Y-4.
X36.15Y-5.
X36.15Y-6.
X36.15Y-7.
X36.15Y-8.
X36.15Y-18.667
X36.15Y-19.667
X36.15Y-20.667
X36.15Y-21.667
X36.15Y-22.667
X36.15Y-23.667
X36.15Y-24.667
X36.15Y-35.334
X36.15Y-36.334
X36.15Y-37.334
X36.15Y-38.334
X36.15Y-39.334
X36.15Y-40.334
X36.15Y-41.334
X38.85Y-2.
X38.85Y-3.
X38.85Y-4.
X38.85Y-5.
X38.85Y-6.
X38.85Y-7.
X38.85Y-8.
X38.85Y-18.667
X38.85Y-19.667
X38.85Y-20.667
X38.85Y-21.667
X38.85Y-22.667
X38.85Y-23.667
X38.85Y-24.667
X38.85Y-35.334
X38.85Y-36.334
X38.85Y-37.334
X38.85Y-38.334
X38.85Y-39.334
X38.85Y-40.334
X38.85Y-41.334
X39.85Y-2.
X39.85Y-3.
X39.85Y-4.
X39.85Y-5.
X39.85Y-6.
X39.85Y-7.
X39.85Y-8.
X39.85Y-18.667
X39.85Y-19.667
X39.85Y-20.667
X39.85Y-21.667
X39.85Y-22.667
X39.85Y-23.667
X39.85Y-24.667
X39.85Y-35.334
X39.85Y-36.334
X39.85Y-37.334
X39.85Y-38.334
X39.85Y-39.334
X39.85Y-40.334
X39.85Y-41.334
X40.85Y-2.
X40.85Y-3.
X40.85Y-4.
X40.85Y-5.
X40.85Y-6.
X40.85Y-7.
X40.85Y-8.
X40.85Y-18.667
X40.85Y-19.667
X40.85Y-20.667
X40.85Y-21.667
X40.85Y-22.667
X40.85Y-23.667
X40.85Y-24.667
X40.85Y-35.334
X40.85Y-36.334
X40.85Y-37.334
X40.85Y-38.334
X40.85Y-39.334
X40.85Y-40.334
X40.85Y-41.334
X41.85Y-2.
X41.85Y-3.
X41.85Y-4.
X41.85Y-5.
X41.85Y-6.
X41.85Y-7.
X41.85Y-8.
X41.85Y-18.667
X41.85Y-19.667
X41.85Y-20.667
X41.85Y-21.667
X41.85Y-22.667
X41.85Y-23.667
X41.85Y-24.667
X41.85Y-35.334
X41.85Y-36.334
X41.85Y-37.334
X41.85Y-38.334
X41.85Y-39.334
X41.85Y-40.334
X41.85Y-41.334
X42.85Y-5.
X42.85Y-6.
X42.85Y-7.
X42.85Y-8.
X42.85Y-9.
X42.85Y-10.
X42.85Y-11.
X42.85Y-12.
X42.85Y-13.
X42.85Y-14.
X42.85Y-15.
X42.85Y-21.667
X42.85Y-22.667
X42.85Y-23.667
X42.85Y-24.667
X42.85Y-25.667
X42.85Y-26.667
X42.85Y-27.667
X42.85Y-28.667
X42.85Y-29.667
X42.85Y-30.667
X42.85Y-31.667
X42.85Y-38.334
X42.85Y-39.334
X42.85Y-40.334
X42.85Y-41.334
X42.85Y-42.334
X42.85Y-43.334
X42.85Y-44.334
X42.85Y-45.334
X42.85Y-46.334
X42.85Y-47.334
X42.85Y-48.334
X43.75Y-5.5
X43.75Y-6.5
X43.75Y-7.5
X43.75Y-8.5
X43.75Y-9.5
X43.75Y-10.5
X43.75Y-11.5
X43.75Y-12.5
X43.75Y-13.5
X43.75Y-14.5
X43.75Y-22.167
X43.75Y-23.167
X43.75Y-24.167
X43.75Y-25.167
X43.75Y-26.167
X43.75Y-27.167
X43.75Y-28.167
X43.75Y-29.167
X43.75Y-30.167
X43.75Y-31.167
X43.75Y-38.834
X43.75Y-39.834
X43.75Y-40.834
X43.75Y-41.834
X43.75Y-42.834
X43.75Y-43.834
X43.75Y-44.834
X43.75Y-45.834
X43.75Y-46.834
X43.75Y-47.834
X44.65Y-5.
X44.65Y-6.
X44.65Y-7.
X44.65Y-8.
X44.65Y-9.
X44.65Y-10.
X44.65Y-11.
X44.65Y-12.
X44.65Y-13.
X44.65Y-14.
X44.65Y-15.
X44.65Y-21.667
X44.65Y-22.667
X44.65Y-23.667
X44.65Y-24.667
X44.65Y-25.667
X44.65Y-26.667
X44.65Y-27.667
X44.65Y-28.667
X44.65Y-29.667
X44.65Y-30.667
X44.65Y-31.667
X44.65Y-38.334
X44.65Y-39.334
X44.65Y-40.334
X44.65Y-41.334
X44.65Y-42.334
X44.65Y-43.334
X44.65Y-44.334
X44.65Y-45.334
X44.65Y-46.334
X44.65Y-47.334
X44.65Y-48.334
X45.65Y-2.
X45.65Y-3.
X45.65Y-4.
X45.65Y-5.
X45.65Y-6.
X45.65Y-7.
X45.65Y-8.
X45.65Y-18.667
X45.65Y-19.667
X45.65Y-20.667
X45.65Y-21.667
X45.65Y-22.667
X45.65Y-23.667
X45.65Y-24.667
X45.65Y-35.334
X45.65Y-36.334
X45.65Y-37.334
X45.65Y-38.334
X45.65Y-39.334
X45.65Y-40.334
X45.65Y-41.334
X46.65Y-2.
X46.65Y-3.
X46.65Y-4.
X46.65Y-5.
X46.65Y-6.
X46.65Y-7.
X46.65Y-8.
X46.65Y-18.667
X46.65Y-19.667
X46.65Y-20.667
X46.65Y-21.667
X46.65Y-22.667
X46.65Y-23.667
X46.65Y-24.667
X46.65Y-35.334
X46.65Y-36.334
X46.65Y-37.334
X46.65Y-38.334
X46.65Y-39.334
X46.65Y-40.334
X46.65Y-41.334
X47.65Y-2.
X47.65Y-3.
X47.65Y-4.
X47.65Y-5.
X47.65Y-6.
X47.65Y-7.
X47.65Y-8.
X47.65Y-18.667
X47.65Y-19.667
X47.65Y-20.667
X47.65Y-21.667
X47.65Y-22.667
X47.65Y-23.667
X47.65Y-24.667
X47.65Y-35.334
X47.65Y-36.334
X47.65Y-37.334
X47.65Y-38.334
X47.65Y-39.334
X47.65Y-40.334
X47.65Y-41.334
X48.65Y-2.
X48.65Y-3.
X48.65Y-4.
X48.65Y-5.
X48.65Y-6.
X48.65Y-7.
X48.65Y-8.
X48.65Y-18.667
X48.65Y-19.667
X48.65Y-20.667
X48.65Y-21.667
X48.65Y-22.667
X48.65Y-23.667
X48.65Y-24.667
X48.65Y-35.334
X48.65Y-36.334
X48.65Y-37.334
X48.65Y-38.334
X48.65Y-39.334
X48.65Y-40.334
X48.65Y-41.334
T2
X6.25Y-3.4
X6.25Y-20.067
X6.25Y-36.734
X18.75Y-3.4
X18.75Y-20.067
X18.75Y-36.734
X31.25Y-3.4
X31.25Y-20.067
X31.25Y-36.734
X43.75Y-3.4
X43.75Y-20.067
X43.75Y-36.734
T0
M30
