M48
;DRILL file {kicad (2014-08-05 BZR 5054)-product} date Sun 07 Dec 2014 10:23:06 PM PST
;FORMAT={-:-/ absolute / metric / decimal}
FMAT,2
METRIC,TZ
T1C0.635
T2C0.813
T3C0.900
T4C0.920
T5C1.800
T6C3.900
%
G90
G05
M71
T1
X8.2Y-25.2
X8.2Y-28.2
X9.95Y-21.8
T2
X20.8Y-22.1
T3
X10.65Y-3.8
X10.65Y-6.34
X10.65Y-8.88
X10.65Y-13.96
X10.65Y-16.5
X10.71Y-32.8
X12.1Y-22.25
X13.19Y-3.8
X13.19Y-6.34
X13.19Y-8.88
X13.19Y-13.96
X13.19Y-16.5
X13.25Y-32.8
X14.64Y-22.25
X15.73Y-3.8
X15.73Y-6.34
X15.73Y-8.88
X15.73Y-13.96
X15.73Y-16.5
X16.25Y-28.8
X16.25Y-31.3
X16.25Y-33.8
X18.27Y-3.8
X18.27Y-6.34
X18.27Y-8.88
X18.27Y-13.96
X18.27Y-16.5
X19.25Y-28.8
X19.25Y-31.3
X19.25Y-33.8
X20.81Y-3.8
X20.81Y-6.34
X20.81Y-8.88
X20.81Y-13.96
X20.81Y-16.5
X23.35Y-3.8
X23.35Y-6.34
X23.35Y-8.88
X23.35Y-11.42
X23.35Y-13.96
X23.35Y-16.5
X23.35Y-19.04
X23.95Y-33.76
X23.95Y-36.3
X25.89Y-3.8
X25.89Y-6.34
X25.89Y-8.88
X25.89Y-11.42
X25.89Y-13.96
X25.89Y-16.5
X25.89Y-19.04
X25.89Y-21.58
X27.35Y-33.76
X27.35Y-36.3
X28.43Y-3.8
X28.43Y-6.34
X28.43Y-8.88
X28.43Y-11.42
X28.43Y-13.96
X28.43Y-16.5
X28.43Y-19.04
X28.43Y-21.58
X30.65Y-28.8
X30.65Y-31.3
X30.65Y-33.8
X30.97Y-3.8
X30.97Y-6.34
X30.97Y-8.88
X30.97Y-11.42
X30.97Y-13.96
X30.97Y-16.5
X30.97Y-19.04
X30.97Y-21.58
X33.51Y-3.8
X33.51Y-6.34
X33.51Y-8.88
X33.51Y-11.42
X33.51Y-13.96
X33.51Y-16.5
X33.51Y-19.04
X33.51Y-21.58
X33.51Y-24.12
X33.65Y-28.8
X33.65Y-31.3
X33.65Y-33.8
X36.05Y-3.8
X36.05Y-6.34
X36.05Y-8.88
X36.05Y-11.42
X36.05Y-13.96
X36.05Y-16.5
X36.05Y-19.04
X36.05Y-21.58
X36.05Y-24.12
X36.05Y-26.66
X37.36Y-32.5
X38.59Y-3.8
X38.59Y-6.34
X38.59Y-8.88
X38.59Y-11.42
X38.59Y-13.96
X38.59Y-16.5
X38.59Y-19.04
X38.59Y-21.58
X38.59Y-24.12
X38.59Y-26.66
X38.59Y-29.2
X39.9Y-32.5
X41.13Y-3.8
X41.13Y-6.34
X41.13Y-8.88
X41.13Y-11.42
X41.13Y-13.96
X41.13Y-16.5
X41.13Y-19.04
X41.13Y-21.58
X41.13Y-24.12
X41.13Y-26.66
X41.13Y-29.2
X43.67Y-8.88
X43.67Y-11.42
X43.67Y-13.96
X43.67Y-16.5
X43.67Y-19.04
X43.67Y-21.58
X43.67Y-24.12
X43.67Y-26.66
X43.67Y-29.2
X43.67Y-31.74
X43.67Y-34.28
X43.67Y-36.82
X43.67Y-39.36
T4
X15.85Y-37.3
X35.85Y-37.3
T5
X12.05Y-45.1
X19.65Y-45.1
X32.05Y-45.1
X39.65Y-45.1
T6
X46.05Y-3.9
X46.05Y-46.
T0
M30
