%FSLAX46Y46*%
G04 Gerber Fmt 4.6, Leading zero omitted, Abs format (unit mm)*
G04 Created by KiCad (PCBNEW (2014-08-05 BZR 5054)-product) date Sun 07 Dec 2014 10:22:46 PM PST*
%MOMM*%
G01*
G04 APERTURE LIST*
%ADD10C,0.100000*%
%ADD11C,0.099060*%
%ADD12C,0.002540*%
G04 APERTURE END LIST*
D10*
X40899999Y-40983333D02*
X40966665Y-40950000D01*
X41099999Y-40950000D01*
X41166665Y-40983333D01*
X41233332Y-41050000D01*
X41266665Y-41116667D01*
X41266665Y-41250000D01*
X41233332Y-41316667D01*
X41166665Y-41383333D01*
X41099999Y-41416667D01*
X40966665Y-41416667D01*
X40899999Y-41383333D01*
X41033332Y-40716667D02*
X41199999Y-40750000D01*
X41366665Y-40850000D01*
X41466665Y-41016667D01*
X41499999Y-41183333D01*
X41466665Y-41350000D01*
X41366665Y-41516667D01*
X41199999Y-41616667D01*
X41033332Y-41650000D01*
X40866665Y-41616667D01*
X40699999Y-41516667D01*
X40599999Y-41350000D01*
X40566665Y-41183333D01*
X40599999Y-41016667D01*
X40699999Y-40850000D01*
X40866665Y-40750000D01*
X41033332Y-40716667D01*
X40299999Y-40883333D02*
X40266665Y-40850000D01*
X40199999Y-40816667D01*
X40033332Y-40816667D01*
X39966665Y-40850000D01*
X39933332Y-40883333D01*
X39899999Y-40950000D01*
X39899999Y-41016667D01*
X39933332Y-41116667D01*
X40333332Y-41516667D01*
X39899999Y-41516667D01*
X39466665Y-40816667D02*
X39399998Y-40816667D01*
X39333332Y-40850000D01*
X39299998Y-40883333D01*
X39266665Y-40950000D01*
X39233332Y-41083333D01*
X39233332Y-41250000D01*
X39266665Y-41383333D01*
X39299998Y-41450000D01*
X39333332Y-41483333D01*
X39399998Y-41516667D01*
X39466665Y-41516667D01*
X39533332Y-41483333D01*
X39566665Y-41450000D01*
X39599998Y-41383333D01*
X39633332Y-41250000D01*
X39633332Y-41083333D01*
X39599998Y-40950000D01*
X39566665Y-40883333D01*
X39533332Y-40850000D01*
X39466665Y-40816667D01*
X38566665Y-41516667D02*
X38966665Y-41516667D01*
X38766665Y-41516667D02*
X38766665Y-40816667D01*
X38833331Y-40916667D01*
X38899998Y-40983333D01*
X38966665Y-41016667D01*
X37966664Y-41050000D02*
X37966664Y-41516667D01*
X38133331Y-40783333D02*
X38299998Y-41283333D01*
X37866664Y-41283333D01*
X37099998Y-41483333D02*
X36999998Y-41516667D01*
X36833331Y-41516667D01*
X36766664Y-41483333D01*
X36733331Y-41450000D01*
X36699998Y-41383333D01*
X36699998Y-41316667D01*
X36733331Y-41250000D01*
X36766664Y-41216667D01*
X36833331Y-41183333D01*
X36966664Y-41150000D01*
X37033331Y-41116667D01*
X37066664Y-41083333D01*
X37099998Y-41016667D01*
X37099998Y-40950000D01*
X37066664Y-40883333D01*
X37033331Y-40850000D01*
X36966664Y-40816667D01*
X36799998Y-40816667D01*
X36699998Y-40850000D01*
X36299997Y-41516667D02*
X36366664Y-41483333D01*
X36399997Y-41450000D01*
X36433331Y-41383333D01*
X36433331Y-41183333D01*
X36399997Y-41116667D01*
X36366664Y-41083333D01*
X36299997Y-41050000D01*
X36199997Y-41050000D01*
X36133331Y-41083333D01*
X36099997Y-41116667D01*
X36066664Y-41183333D01*
X36066664Y-41383333D01*
X36099997Y-41450000D01*
X36133331Y-41483333D01*
X36199997Y-41516667D01*
X36299997Y-41516667D01*
X35866664Y-41050000D02*
X35599998Y-41050000D01*
X35766664Y-41516667D02*
X35766664Y-40916667D01*
X35733331Y-40850000D01*
X35666664Y-40816667D01*
X35599998Y-40816667D01*
X35466664Y-41050000D02*
X35199998Y-41050000D01*
X35366664Y-40816667D02*
X35366664Y-41416667D01*
X35333331Y-41483333D01*
X35266664Y-41516667D01*
X35199998Y-41516667D01*
X34699998Y-41483333D02*
X34766664Y-41516667D01*
X34899998Y-41516667D01*
X34966664Y-41483333D01*
X34999998Y-41416667D01*
X34999998Y-41150000D01*
X34966664Y-41083333D01*
X34899998Y-41050000D01*
X34766664Y-41050000D01*
X34699998Y-41083333D01*
X34666664Y-41150000D01*
X34666664Y-41216667D01*
X34999998Y-41283333D01*
X34366664Y-41516667D02*
X34366664Y-41050000D01*
X34366664Y-41183333D02*
X34333331Y-41116667D01*
X34299998Y-41083333D01*
X34233331Y-41050000D01*
X34166664Y-41050000D01*
X33933331Y-41516667D02*
X33933331Y-40816667D01*
X33933331Y-41150000D02*
X33533331Y-41150000D01*
X33533331Y-41516667D02*
X33533331Y-40816667D01*
X32899998Y-41516667D02*
X32899998Y-41150000D01*
X32933332Y-41083333D01*
X32999998Y-41050000D01*
X33133332Y-41050000D01*
X33199998Y-41083333D01*
X32899998Y-41483333D02*
X32966665Y-41516667D01*
X33133332Y-41516667D01*
X33199998Y-41483333D01*
X33233332Y-41416667D01*
X33233332Y-41350000D01*
X33199998Y-41283333D01*
X33133332Y-41250000D01*
X32966665Y-41250000D01*
X32899998Y-41216667D01*
X32566665Y-41516667D02*
X32566665Y-41050000D01*
X32566665Y-41183333D02*
X32533332Y-41116667D01*
X32499999Y-41083333D01*
X32433332Y-41050000D01*
X32366665Y-41050000D01*
X31833332Y-41516667D02*
X31833332Y-40816667D01*
X31833332Y-41483333D02*
X31899999Y-41516667D01*
X32033332Y-41516667D01*
X32099999Y-41483333D01*
X32133332Y-41450000D01*
X32166666Y-41383333D01*
X32166666Y-41183333D01*
X32133332Y-41116667D01*
X32099999Y-41083333D01*
X32033332Y-41050000D01*
X31899999Y-41050000D01*
X31833332Y-41083333D01*
X31566666Y-41050000D02*
X31433333Y-41516667D01*
X31299999Y-41183333D01*
X31166666Y-41516667D01*
X31033333Y-41050000D01*
X30466666Y-41516667D02*
X30466666Y-41150000D01*
X30500000Y-41083333D01*
X30566666Y-41050000D01*
X30700000Y-41050000D01*
X30766666Y-41083333D01*
X30466666Y-41483333D02*
X30533333Y-41516667D01*
X30700000Y-41516667D01*
X30766666Y-41483333D01*
X30800000Y-41416667D01*
X30800000Y-41350000D01*
X30766666Y-41283333D01*
X30700000Y-41250000D01*
X30533333Y-41250000D01*
X30466666Y-41216667D01*
X30133333Y-41516667D02*
X30133333Y-41050000D01*
X30133333Y-41183333D02*
X30100000Y-41116667D01*
X30066667Y-41083333D01*
X30000000Y-41050000D01*
X29933333Y-41050000D01*
X29433334Y-41483333D02*
X29500000Y-41516667D01*
X29633334Y-41516667D01*
X29700000Y-41483333D01*
X29733334Y-41416667D01*
X29733334Y-41150000D01*
X29700000Y-41083333D01*
X29633334Y-41050000D01*
X29500000Y-41050000D01*
X29433334Y-41083333D01*
X29400000Y-41150000D01*
X29400000Y-41216667D01*
X29733334Y-41283333D01*
X41183331Y-40016667D02*
X41183331Y-39316667D01*
X41183331Y-39650000D02*
X40783331Y-39650000D01*
X40783331Y-40016667D02*
X40783331Y-39316667D01*
X40183332Y-39983333D02*
X40249998Y-40016667D01*
X40383332Y-40016667D01*
X40449998Y-39983333D01*
X40483332Y-39916667D01*
X40483332Y-39650000D01*
X40449998Y-39583333D01*
X40383332Y-39550000D01*
X40249998Y-39550000D01*
X40183332Y-39583333D01*
X40149998Y-39650000D01*
X40149998Y-39716667D01*
X40483332Y-39783333D01*
X39849998Y-40016667D02*
X39849998Y-39550000D01*
X39849998Y-39683333D02*
X39816665Y-39616667D01*
X39783332Y-39583333D01*
X39716665Y-39550000D01*
X39649998Y-39550000D01*
X39416665Y-40016667D02*
X39416665Y-39550000D01*
X39416665Y-39616667D02*
X39383332Y-39583333D01*
X39316665Y-39550000D01*
X39216665Y-39550000D01*
X39149999Y-39583333D01*
X39116665Y-39650000D01*
X39116665Y-40016667D01*
X39116665Y-39650000D02*
X39083332Y-39583333D01*
X39016665Y-39550000D01*
X38916665Y-39550000D01*
X38849999Y-39583333D01*
X38816665Y-39650000D01*
X38816665Y-40016667D01*
X38216666Y-39983333D02*
X38283332Y-40016667D01*
X38416666Y-40016667D01*
X38483332Y-39983333D01*
X38516666Y-39916667D01*
X38516666Y-39650000D01*
X38483332Y-39583333D01*
X38416666Y-39550000D01*
X38283332Y-39550000D01*
X38216666Y-39583333D01*
X38183332Y-39650000D01*
X38183332Y-39716667D01*
X38516666Y-39783333D01*
X37916666Y-39983333D02*
X37849999Y-40016667D01*
X37716666Y-40016667D01*
X37649999Y-39983333D01*
X37616666Y-39916667D01*
X37616666Y-39883333D01*
X37649999Y-39816667D01*
X37716666Y-39783333D01*
X37816666Y-39783333D01*
X37883332Y-39750000D01*
X37916666Y-39683333D01*
X37916666Y-39650000D01*
X37883332Y-39583333D01*
X37816666Y-39550000D01*
X37716666Y-39550000D01*
X37649999Y-39583333D01*
X37316665Y-39750000D02*
X36783332Y-39750000D01*
X36116665Y-40016667D02*
X36449998Y-40016667D01*
X36449998Y-39316667D01*
X35883331Y-40016667D02*
X35883331Y-39550000D01*
X35883331Y-39316667D02*
X35916665Y-39350000D01*
X35883331Y-39383333D01*
X35849998Y-39350000D01*
X35883331Y-39316667D01*
X35883331Y-39383333D01*
X35649998Y-39550000D02*
X35383332Y-39550000D01*
X35549998Y-39316667D02*
X35549998Y-39916667D01*
X35516665Y-39983333D01*
X35449998Y-40016667D01*
X35383332Y-40016667D01*
X34883332Y-39983333D02*
X34949998Y-40016667D01*
X35083332Y-40016667D01*
X35149998Y-39983333D01*
X35183332Y-39916667D01*
X35183332Y-39650000D01*
X35149998Y-39583333D01*
X35083332Y-39550000D01*
X34949998Y-39550000D01*
X34883332Y-39583333D01*
X34849998Y-39650000D01*
X34849998Y-39716667D01*
X35183332Y-39783333D01*
X33783332Y-39650000D02*
X33683332Y-39683333D01*
X33649999Y-39716667D01*
X33616665Y-39783333D01*
X33616665Y-39883333D01*
X33649999Y-39950000D01*
X33683332Y-39983333D01*
X33749999Y-40016667D01*
X34016665Y-40016667D01*
X34016665Y-39316667D01*
X33783332Y-39316667D01*
X33716665Y-39350000D01*
X33683332Y-39383333D01*
X33649999Y-39450000D01*
X33649999Y-39516667D01*
X33683332Y-39583333D01*
X33716665Y-39616667D01*
X33783332Y-39650000D01*
X34016665Y-39650000D01*
X33016665Y-40016667D02*
X33016665Y-39650000D01*
X33049999Y-39583333D01*
X33116665Y-39550000D01*
X33249999Y-39550000D01*
X33316665Y-39583333D01*
X33016665Y-39983333D02*
X33083332Y-40016667D01*
X33249999Y-40016667D01*
X33316665Y-39983333D01*
X33349999Y-39916667D01*
X33349999Y-39850000D01*
X33316665Y-39783333D01*
X33249999Y-39750000D01*
X33083332Y-39750000D01*
X33016665Y-39716667D01*
X32716666Y-39983333D02*
X32649999Y-40016667D01*
X32516666Y-40016667D01*
X32449999Y-39983333D01*
X32416666Y-39916667D01*
X32416666Y-39883333D01*
X32449999Y-39816667D01*
X32516666Y-39783333D01*
X32616666Y-39783333D01*
X32683332Y-39750000D01*
X32716666Y-39683333D01*
X32716666Y-39650000D01*
X32683332Y-39583333D01*
X32616666Y-39550000D01*
X32516666Y-39550000D01*
X32449999Y-39583333D01*
X32116665Y-40016667D02*
X32116665Y-39550000D01*
X32116665Y-39316667D02*
X32149999Y-39350000D01*
X32116665Y-39383333D01*
X32083332Y-39350000D01*
X32116665Y-39316667D01*
X32116665Y-39383333D01*
X31483332Y-39983333D02*
X31549999Y-40016667D01*
X31683332Y-40016667D01*
X31749999Y-39983333D01*
X31783332Y-39950000D01*
X31816666Y-39883333D01*
X31816666Y-39683333D01*
X31783332Y-39616667D01*
X31749999Y-39583333D01*
X31683332Y-39550000D01*
X31549999Y-39550000D01*
X31483332Y-39583333D01*
X30416666Y-39650000D02*
X30649999Y-39650000D01*
X30649999Y-40016667D02*
X30649999Y-39316667D01*
X30316666Y-39316667D01*
X30049999Y-40016667D02*
X30049999Y-39550000D01*
X30049999Y-39683333D02*
X30016666Y-39616667D01*
X29983333Y-39583333D01*
X29916666Y-39550000D01*
X29849999Y-39550000D01*
X29516666Y-40016667D02*
X29583333Y-39983333D01*
X29616666Y-39950000D01*
X29650000Y-39883333D01*
X29650000Y-39683333D01*
X29616666Y-39616667D01*
X29583333Y-39583333D01*
X29516666Y-39550000D01*
X29416666Y-39550000D01*
X29350000Y-39583333D01*
X29316666Y-39616667D01*
X29283333Y-39683333D01*
X29283333Y-39883333D01*
X29316666Y-39950000D01*
X29350000Y-39983333D01*
X29416666Y-40016667D01*
X29516666Y-40016667D01*
X28983333Y-39550000D02*
X28983333Y-40016667D01*
X28983333Y-39616667D02*
X28950000Y-39583333D01*
X28883333Y-39550000D01*
X28783333Y-39550000D01*
X28716667Y-39583333D01*
X28683333Y-39650000D01*
X28683333Y-40016667D01*
X28450000Y-39550000D02*
X28183334Y-39550000D01*
X28350000Y-39316667D02*
X28350000Y-39916667D01*
X28316667Y-39983333D01*
X28250000Y-40016667D01*
X28183334Y-40016667D01*
X27683334Y-39983333D02*
X27750000Y-40016667D01*
X27883334Y-40016667D01*
X27950000Y-39983333D01*
X27983334Y-39916667D01*
X27983334Y-39650000D01*
X27950000Y-39583333D01*
X27883334Y-39550000D01*
X27750000Y-39550000D01*
X27683334Y-39583333D01*
X27650000Y-39650000D01*
X27650000Y-39716667D01*
X27983334Y-39783333D01*
X27350000Y-39550000D02*
X27350000Y-40016667D01*
X27350000Y-39616667D02*
X27316667Y-39583333D01*
X27250000Y-39550000D01*
X27150000Y-39550000D01*
X27083334Y-39583333D01*
X27050000Y-39650000D01*
X27050000Y-40016667D01*
X26416667Y-40016667D02*
X26416667Y-39316667D01*
X26416667Y-39983333D02*
X26483334Y-40016667D01*
X26616667Y-40016667D01*
X26683334Y-39983333D01*
X26716667Y-39950000D01*
X26750001Y-39883333D01*
X26750001Y-39683333D01*
X26716667Y-39616667D01*
X26683334Y-39583333D01*
X26616667Y-39550000D01*
X26483334Y-39550000D01*
X26416667Y-39583333D01*
X25183335Y-40016667D02*
X25583335Y-40016667D01*
X25383335Y-40016667D02*
X25383335Y-39316667D01*
X25450001Y-39416667D01*
X25516668Y-39483333D01*
X25583335Y-39516667D01*
X24883334Y-39950000D02*
X24850001Y-39983333D01*
X24883334Y-40016667D01*
X24916668Y-39983333D01*
X24883334Y-39950000D01*
X24883334Y-40016667D01*
X24416668Y-39316667D02*
X24350001Y-39316667D01*
X24283335Y-39350000D01*
X24250001Y-39383333D01*
X24216668Y-39450000D01*
X24183335Y-39583333D01*
X24183335Y-39750000D01*
X24216668Y-39883333D01*
X24250001Y-39950000D01*
X24283335Y-39983333D01*
X24350001Y-40016667D01*
X24416668Y-40016667D01*
X24483335Y-39983333D01*
X24516668Y-39950000D01*
X24550001Y-39883333D01*
X24583335Y-39750000D01*
X24583335Y-39583333D01*
X24550001Y-39450000D01*
X24516668Y-39383333D01*
X24483335Y-39350000D01*
X24416668Y-39316667D01*
D11*
X29328000Y-29562000D02*
G75*
G03X29328000Y-29562000I-127000J0D01*
G74*
G01*
X28058000Y-29562000D02*
X29074000Y-29562000D01*
X29074000Y-29562000D02*
X29074000Y-28038000D01*
X29074000Y-28038000D02*
X28058000Y-28038000D01*
X27042000Y-28038000D02*
X26026000Y-28038000D01*
X26026000Y-28038000D02*
X26026000Y-29562000D01*
X26026000Y-29562000D02*
X27042000Y-29562000D01*
X20826000Y-30538000D02*
G75*
G03X20826000Y-30538000I-127000J0D01*
G74*
G01*
X21842000Y-30538000D02*
X20826000Y-30538000D01*
X20826000Y-30538000D02*
X20826000Y-32062000D01*
X20826000Y-32062000D02*
X21842000Y-32062000D01*
X22858000Y-32062000D02*
X23874000Y-32062000D01*
X23874000Y-32062000D02*
X23874000Y-30538000D01*
X23874000Y-30538000D02*
X22858000Y-30538000D01*
X21015000Y-37051000D02*
G75*
G03X21015000Y-37051000I-127000J0D01*
G74*
G01*
X20888000Y-35908000D02*
X20888000Y-36924000D01*
X20888000Y-36924000D02*
X22412000Y-36924000D01*
X22412000Y-36924000D02*
X22412000Y-35908000D01*
X22412000Y-34892000D02*
X22412000Y-33876000D01*
X22412000Y-33876000D02*
X20888000Y-33876000D01*
X20888000Y-33876000D02*
X20888000Y-34892000D01*
X17326000Y-36538000D02*
G75*
G03X17326000Y-36538000I-127000J0D01*
G74*
G01*
X18342000Y-36538000D02*
X17326000Y-36538000D01*
X17326000Y-36538000D02*
X17326000Y-38062000D01*
X17326000Y-38062000D02*
X18342000Y-38062000D01*
X19358000Y-38062000D02*
X20374000Y-38062000D01*
X20374000Y-38062000D02*
X20374000Y-36538000D01*
X20374000Y-36538000D02*
X19358000Y-36538000D01*
D10*
X20948960Y-39500380D02*
X22351040Y-39500380D01*
X20948960Y-39899160D02*
X20948960Y-38100840D01*
X20948960Y-38100840D02*
X22351040Y-38100840D01*
X22351040Y-38100840D02*
X22351040Y-39899160D01*
X22351040Y-39899160D02*
X20948960Y-39899160D01*
D11*
X22576000Y-25938000D02*
G75*
G03X22576000Y-25938000I-127000J0D01*
G74*
G01*
X23592000Y-25938000D02*
X22576000Y-25938000D01*
X22576000Y-25938000D02*
X22576000Y-27462000D01*
X22576000Y-27462000D02*
X23592000Y-27462000D01*
X24608000Y-27462000D02*
X25624000Y-27462000D01*
X25624000Y-27462000D02*
X25624000Y-25938000D01*
X25624000Y-25938000D02*
X24608000Y-25938000D01*
X29328000Y-27462000D02*
G75*
G03X29328000Y-27462000I-127000J0D01*
G74*
G01*
X28058000Y-27462000D02*
X29074000Y-27462000D01*
X29074000Y-27462000D02*
X29074000Y-25938000D01*
X29074000Y-25938000D02*
X28058000Y-25938000D01*
X27042000Y-25938000D02*
X26026000Y-25938000D01*
X26026000Y-25938000D02*
X26026000Y-27462000D01*
X26026000Y-27462000D02*
X27042000Y-27462000D01*
D12*
G36*
X27095480Y-42196620D02*
X27105640Y-42191540D01*
X27128500Y-42176300D01*
X27161520Y-42155980D01*
X27202160Y-42128040D01*
X27240260Y-42102640D01*
X27273280Y-42079780D01*
X27296140Y-42064540D01*
X27306300Y-42059460D01*
X27311380Y-42062000D01*
X27329160Y-42072160D01*
X27357100Y-42084860D01*
X27372340Y-42092480D01*
X27397740Y-42105180D01*
X27410440Y-42107720D01*
X27412980Y-42102640D01*
X27423140Y-42084860D01*
X27435840Y-42051840D01*
X27456160Y-42008660D01*
X27476480Y-41957860D01*
X27499340Y-41901980D01*
X27522200Y-41846100D01*
X27545060Y-41792760D01*
X27565380Y-41744500D01*
X27580620Y-41706400D01*
X27590780Y-41678460D01*
X27595860Y-41668300D01*
X27593320Y-41665760D01*
X27580620Y-41653060D01*
X27560300Y-41637820D01*
X27512040Y-41597180D01*
X27466320Y-41538760D01*
X27435840Y-41472720D01*
X27428220Y-41399060D01*
X27435840Y-41333020D01*
X27461240Y-41269520D01*
X27506960Y-41208560D01*
X27562840Y-41165380D01*
X27628880Y-41137440D01*
X27700000Y-41129820D01*
X27768580Y-41137440D01*
X27834620Y-41162840D01*
X27895580Y-41208560D01*
X27918440Y-41236500D01*
X27954000Y-41297460D01*
X27974320Y-41358420D01*
X27974320Y-41373660D01*
X27971780Y-41444780D01*
X27951460Y-41513360D01*
X27915900Y-41571780D01*
X27862560Y-41622580D01*
X27857480Y-41627660D01*
X27832080Y-41645440D01*
X27816840Y-41655600D01*
X27804140Y-41665760D01*
X27893040Y-41881660D01*
X27908280Y-41917220D01*
X27933680Y-41975640D01*
X27954000Y-42026440D01*
X27971780Y-42067080D01*
X27984480Y-42092480D01*
X27989560Y-42105180D01*
X27989560Y-42105180D01*
X27997180Y-42105180D01*
X28012420Y-42100100D01*
X28042900Y-42084860D01*
X28063220Y-42074700D01*
X28086080Y-42064540D01*
X28096240Y-42059460D01*
X28106400Y-42064540D01*
X28126720Y-42079780D01*
X28159740Y-42100100D01*
X28197840Y-42125500D01*
X28233400Y-42150900D01*
X28268960Y-42173760D01*
X28291820Y-42189000D01*
X28304520Y-42196620D01*
X28307060Y-42196620D01*
X28317220Y-42189000D01*
X28337540Y-42173760D01*
X28365480Y-42145820D01*
X28406120Y-42105180D01*
X28413740Y-42100100D01*
X28446760Y-42064540D01*
X28474700Y-42034060D01*
X28495020Y-42013740D01*
X28500100Y-42006120D01*
X28500100Y-42006120D01*
X28495020Y-41993420D01*
X28479780Y-41968020D01*
X28456920Y-41935000D01*
X28428980Y-41894360D01*
X28357860Y-41790220D01*
X28398500Y-41693700D01*
X28408660Y-41663220D01*
X28423900Y-41627660D01*
X28436600Y-41602260D01*
X28441680Y-41589560D01*
X28451840Y-41587020D01*
X28479780Y-41579400D01*
X28517880Y-41571780D01*
X28563600Y-41564160D01*
X28609320Y-41554000D01*
X28647420Y-41546380D01*
X28677900Y-41541300D01*
X28690600Y-41538760D01*
X28693140Y-41536220D01*
X28695680Y-41531140D01*
X28698220Y-41518440D01*
X28698220Y-41493040D01*
X28698220Y-41454940D01*
X28698220Y-41399060D01*
X28698220Y-41393980D01*
X28698220Y-41340640D01*
X28698220Y-41300000D01*
X28695680Y-41274600D01*
X28693140Y-41264440D01*
X28693140Y-41264440D01*
X28680440Y-41259360D01*
X28652500Y-41254280D01*
X28614400Y-41246660D01*
X28566140Y-41236500D01*
X28563600Y-41236500D01*
X28515340Y-41228880D01*
X28477240Y-41218720D01*
X28449300Y-41213640D01*
X28436600Y-41208560D01*
X28434060Y-41206020D01*
X28423900Y-41188240D01*
X28411200Y-41157760D01*
X28395960Y-41122200D01*
X28380720Y-41086640D01*
X28365480Y-41051080D01*
X28357860Y-41028220D01*
X28355320Y-41015520D01*
X28355320Y-41015520D01*
X28362940Y-41005360D01*
X28378180Y-40979960D01*
X28401040Y-40946940D01*
X28428980Y-40906300D01*
X28431520Y-40901220D01*
X28459460Y-40863120D01*
X28479780Y-40827560D01*
X28495020Y-40804700D01*
X28500100Y-40794540D01*
X28500100Y-40792000D01*
X28492480Y-40781840D01*
X28472160Y-40758980D01*
X28441680Y-40728500D01*
X28406120Y-40692940D01*
X28395960Y-40682780D01*
X28357860Y-40644680D01*
X28329920Y-40619280D01*
X28312140Y-40606580D01*
X28304520Y-40601500D01*
X28304520Y-40604040D01*
X28291820Y-40609120D01*
X28266420Y-40626900D01*
X28233400Y-40649760D01*
X28192760Y-40677700D01*
X28190220Y-40680240D01*
X28149580Y-40705640D01*
X28116560Y-40728500D01*
X28093700Y-40743740D01*
X28083540Y-40751360D01*
X28081000Y-40751360D01*
X28065760Y-40746280D01*
X28035280Y-40736120D01*
X28002260Y-40723420D01*
X27964160Y-40708180D01*
X27931140Y-40692940D01*
X27905740Y-40682780D01*
X27893040Y-40675160D01*
X27893040Y-40675160D01*
X27887960Y-40659920D01*
X27882880Y-40629440D01*
X27872720Y-40588800D01*
X27865100Y-40540540D01*
X27862560Y-40532920D01*
X27854940Y-40484660D01*
X27847320Y-40446560D01*
X27839700Y-40418620D01*
X27837160Y-40405920D01*
X27832080Y-40405920D01*
X27806680Y-40403380D01*
X27771120Y-40403380D01*
X27727940Y-40403380D01*
X27684760Y-40403380D01*
X27641580Y-40403380D01*
X27603480Y-40405920D01*
X27578080Y-40405920D01*
X27565380Y-40408460D01*
X27565380Y-40411000D01*
X27560300Y-40423700D01*
X27555220Y-40454180D01*
X27545060Y-40494820D01*
X27537440Y-40545620D01*
X27534900Y-40553240D01*
X27527280Y-40601500D01*
X27517120Y-40639600D01*
X27512040Y-40667540D01*
X27509500Y-40677700D01*
X27504420Y-40680240D01*
X27486640Y-40687860D01*
X27453620Y-40700560D01*
X27412980Y-40718340D01*
X27321540Y-40753900D01*
X27209780Y-40677700D01*
X27199620Y-40670080D01*
X27158980Y-40642140D01*
X27125960Y-40621820D01*
X27103100Y-40606580D01*
X27092940Y-40601500D01*
X27092940Y-40601500D01*
X27082780Y-40611660D01*
X27059920Y-40631980D01*
X27029440Y-40662460D01*
X26993880Y-40695480D01*
X26968480Y-40723420D01*
X26938000Y-40753900D01*
X26917680Y-40774220D01*
X26907520Y-40789460D01*
X26902440Y-40797080D01*
X26904980Y-40802160D01*
X26910060Y-40814860D01*
X26927840Y-40837720D01*
X26950700Y-40873280D01*
X26978640Y-40911380D01*
X27001500Y-40946940D01*
X27024360Y-40982500D01*
X27039600Y-41010440D01*
X27047220Y-41023140D01*
X27044680Y-41028220D01*
X27037060Y-41051080D01*
X27024360Y-41084100D01*
X27006580Y-41124740D01*
X26968480Y-41213640D01*
X26910060Y-41223800D01*
X26874500Y-41231420D01*
X26823700Y-41239040D01*
X26777980Y-41249200D01*
X26704320Y-41264440D01*
X26701780Y-41531140D01*
X26711940Y-41536220D01*
X26724640Y-41541300D01*
X26750040Y-41546380D01*
X26790680Y-41554000D01*
X26836400Y-41561620D01*
X26874500Y-41569240D01*
X26915140Y-41576860D01*
X26943080Y-41581940D01*
X26955780Y-41584480D01*
X26958320Y-41589560D01*
X26968480Y-41609880D01*
X26983720Y-41640360D01*
X26998960Y-41675920D01*
X27014200Y-41714020D01*
X27026900Y-41749580D01*
X27037060Y-41774980D01*
X27042140Y-41790220D01*
X27037060Y-41800380D01*
X27021820Y-41823240D01*
X26998960Y-41856260D01*
X26973560Y-41894360D01*
X26945620Y-41935000D01*
X26922760Y-41968020D01*
X26907520Y-41993420D01*
X26899900Y-42003580D01*
X26904980Y-42011200D01*
X26920220Y-42028980D01*
X26948160Y-42059460D01*
X26993880Y-42105180D01*
X27001500Y-42110260D01*
X27034520Y-42145820D01*
X27065000Y-42171220D01*
X27085320Y-42191540D01*
X27095480Y-42196620D01*
X27095480Y-42196620D01*
G37*
X27095480Y-42196620D02*
X27105640Y-42191540D01*
X27128500Y-42176300D01*
X27161520Y-42155980D01*
X27202160Y-42128040D01*
X27240260Y-42102640D01*
X27273280Y-42079780D01*
X27296140Y-42064540D01*
X27306300Y-42059460D01*
X27311380Y-42062000D01*
X27329160Y-42072160D01*
X27357100Y-42084860D01*
X27372340Y-42092480D01*
X27397740Y-42105180D01*
X27410440Y-42107720D01*
X27412980Y-42102640D01*
X27423140Y-42084860D01*
X27435840Y-42051840D01*
X27456160Y-42008660D01*
X27476480Y-41957860D01*
X27499340Y-41901980D01*
X27522200Y-41846100D01*
X27545060Y-41792760D01*
X27565380Y-41744500D01*
X27580620Y-41706400D01*
X27590780Y-41678460D01*
X27595860Y-41668300D01*
X27593320Y-41665760D01*
X27580620Y-41653060D01*
X27560300Y-41637820D01*
X27512040Y-41597180D01*
X27466320Y-41538760D01*
X27435840Y-41472720D01*
X27428220Y-41399060D01*
X27435840Y-41333020D01*
X27461240Y-41269520D01*
X27506960Y-41208560D01*
X27562840Y-41165380D01*
X27628880Y-41137440D01*
X27700000Y-41129820D01*
X27768580Y-41137440D01*
X27834620Y-41162840D01*
X27895580Y-41208560D01*
X27918440Y-41236500D01*
X27954000Y-41297460D01*
X27974320Y-41358420D01*
X27974320Y-41373660D01*
X27971780Y-41444780D01*
X27951460Y-41513360D01*
X27915900Y-41571780D01*
X27862560Y-41622580D01*
X27857480Y-41627660D01*
X27832080Y-41645440D01*
X27816840Y-41655600D01*
X27804140Y-41665760D01*
X27893040Y-41881660D01*
X27908280Y-41917220D01*
X27933680Y-41975640D01*
X27954000Y-42026440D01*
X27971780Y-42067080D01*
X27984480Y-42092480D01*
X27989560Y-42105180D01*
X27989560Y-42105180D01*
X27997180Y-42105180D01*
X28012420Y-42100100D01*
X28042900Y-42084860D01*
X28063220Y-42074700D01*
X28086080Y-42064540D01*
X28096240Y-42059460D01*
X28106400Y-42064540D01*
X28126720Y-42079780D01*
X28159740Y-42100100D01*
X28197840Y-42125500D01*
X28233400Y-42150900D01*
X28268960Y-42173760D01*
X28291820Y-42189000D01*
X28304520Y-42196620D01*
X28307060Y-42196620D01*
X28317220Y-42189000D01*
X28337540Y-42173760D01*
X28365480Y-42145820D01*
X28406120Y-42105180D01*
X28413740Y-42100100D01*
X28446760Y-42064540D01*
X28474700Y-42034060D01*
X28495020Y-42013740D01*
X28500100Y-42006120D01*
X28500100Y-42006120D01*
X28495020Y-41993420D01*
X28479780Y-41968020D01*
X28456920Y-41935000D01*
X28428980Y-41894360D01*
X28357860Y-41790220D01*
X28398500Y-41693700D01*
X28408660Y-41663220D01*
X28423900Y-41627660D01*
X28436600Y-41602260D01*
X28441680Y-41589560D01*
X28451840Y-41587020D01*
X28479780Y-41579400D01*
X28517880Y-41571780D01*
X28563600Y-41564160D01*
X28609320Y-41554000D01*
X28647420Y-41546380D01*
X28677900Y-41541300D01*
X28690600Y-41538760D01*
X28693140Y-41536220D01*
X28695680Y-41531140D01*
X28698220Y-41518440D01*
X28698220Y-41493040D01*
X28698220Y-41454940D01*
X28698220Y-41399060D01*
X28698220Y-41393980D01*
X28698220Y-41340640D01*
X28698220Y-41300000D01*
X28695680Y-41274600D01*
X28693140Y-41264440D01*
X28693140Y-41264440D01*
X28680440Y-41259360D01*
X28652500Y-41254280D01*
X28614400Y-41246660D01*
X28566140Y-41236500D01*
X28563600Y-41236500D01*
X28515340Y-41228880D01*
X28477240Y-41218720D01*
X28449300Y-41213640D01*
X28436600Y-41208560D01*
X28434060Y-41206020D01*
X28423900Y-41188240D01*
X28411200Y-41157760D01*
X28395960Y-41122200D01*
X28380720Y-41086640D01*
X28365480Y-41051080D01*
X28357860Y-41028220D01*
X28355320Y-41015520D01*
X28355320Y-41015520D01*
X28362940Y-41005360D01*
X28378180Y-40979960D01*
X28401040Y-40946940D01*
X28428980Y-40906300D01*
X28431520Y-40901220D01*
X28459460Y-40863120D01*
X28479780Y-40827560D01*
X28495020Y-40804700D01*
X28500100Y-40794540D01*
X28500100Y-40792000D01*
X28492480Y-40781840D01*
X28472160Y-40758980D01*
X28441680Y-40728500D01*
X28406120Y-40692940D01*
X28395960Y-40682780D01*
X28357860Y-40644680D01*
X28329920Y-40619280D01*
X28312140Y-40606580D01*
X28304520Y-40601500D01*
X28304520Y-40604040D01*
X28291820Y-40609120D01*
X28266420Y-40626900D01*
X28233400Y-40649760D01*
X28192760Y-40677700D01*
X28190220Y-40680240D01*
X28149580Y-40705640D01*
X28116560Y-40728500D01*
X28093700Y-40743740D01*
X28083540Y-40751360D01*
X28081000Y-40751360D01*
X28065760Y-40746280D01*
X28035280Y-40736120D01*
X28002260Y-40723420D01*
X27964160Y-40708180D01*
X27931140Y-40692940D01*
X27905740Y-40682780D01*
X27893040Y-40675160D01*
X27893040Y-40675160D01*
X27887960Y-40659920D01*
X27882880Y-40629440D01*
X27872720Y-40588800D01*
X27865100Y-40540540D01*
X27862560Y-40532920D01*
X27854940Y-40484660D01*
X27847320Y-40446560D01*
X27839700Y-40418620D01*
X27837160Y-40405920D01*
X27832080Y-40405920D01*
X27806680Y-40403380D01*
X27771120Y-40403380D01*
X27727940Y-40403380D01*
X27684760Y-40403380D01*
X27641580Y-40403380D01*
X27603480Y-40405920D01*
X27578080Y-40405920D01*
X27565380Y-40408460D01*
X27565380Y-40411000D01*
X27560300Y-40423700D01*
X27555220Y-40454180D01*
X27545060Y-40494820D01*
X27537440Y-40545620D01*
X27534900Y-40553240D01*
X27527280Y-40601500D01*
X27517120Y-40639600D01*
X27512040Y-40667540D01*
X27509500Y-40677700D01*
X27504420Y-40680240D01*
X27486640Y-40687860D01*
X27453620Y-40700560D01*
X27412980Y-40718340D01*
X27321540Y-40753900D01*
X27209780Y-40677700D01*
X27199620Y-40670080D01*
X27158980Y-40642140D01*
X27125960Y-40621820D01*
X27103100Y-40606580D01*
X27092940Y-40601500D01*
X27092940Y-40601500D01*
X27082780Y-40611660D01*
X27059920Y-40631980D01*
X27029440Y-40662460D01*
X26993880Y-40695480D01*
X26968480Y-40723420D01*
X26938000Y-40753900D01*
X26917680Y-40774220D01*
X26907520Y-40789460D01*
X26902440Y-40797080D01*
X26904980Y-40802160D01*
X26910060Y-40814860D01*
X26927840Y-40837720D01*
X26950700Y-40873280D01*
X26978640Y-40911380D01*
X27001500Y-40946940D01*
X27024360Y-40982500D01*
X27039600Y-41010440D01*
X27047220Y-41023140D01*
X27044680Y-41028220D01*
X27037060Y-41051080D01*
X27024360Y-41084100D01*
X27006580Y-41124740D01*
X26968480Y-41213640D01*
X26910060Y-41223800D01*
X26874500Y-41231420D01*
X26823700Y-41239040D01*
X26777980Y-41249200D01*
X26704320Y-41264440D01*
X26701780Y-41531140D01*
X26711940Y-41536220D01*
X26724640Y-41541300D01*
X26750040Y-41546380D01*
X26790680Y-41554000D01*
X26836400Y-41561620D01*
X26874500Y-41569240D01*
X26915140Y-41576860D01*
X26943080Y-41581940D01*
X26955780Y-41584480D01*
X26958320Y-41589560D01*
X26968480Y-41609880D01*
X26983720Y-41640360D01*
X26998960Y-41675920D01*
X27014200Y-41714020D01*
X27026900Y-41749580D01*
X27037060Y-41774980D01*
X27042140Y-41790220D01*
X27037060Y-41800380D01*
X27021820Y-41823240D01*
X26998960Y-41856260D01*
X26973560Y-41894360D01*
X26945620Y-41935000D01*
X26922760Y-41968020D01*
X26907520Y-41993420D01*
X26899900Y-42003580D01*
X26904980Y-42011200D01*
X26920220Y-42028980D01*
X26948160Y-42059460D01*
X26993880Y-42105180D01*
X27001500Y-42110260D01*
X27034520Y-42145820D01*
X27065000Y-42171220D01*
X27085320Y-42191540D01*
X27095480Y-42196620D01*
D10*
X25700000Y-28683334D02*
X25733333Y-28650000D01*
X25766667Y-28550000D01*
X25766667Y-28483334D01*
X25733333Y-28383334D01*
X25666667Y-28316667D01*
X25600000Y-28283334D01*
X25466667Y-28250000D01*
X25366667Y-28250000D01*
X25233333Y-28283334D01*
X25166667Y-28316667D01*
X25100000Y-28383334D01*
X25066667Y-28483334D01*
X25066667Y-28550000D01*
X25100000Y-28650000D01*
X25133333Y-28683334D01*
X25766667Y-29350000D02*
X25766667Y-28950000D01*
X25766667Y-29150000D02*
X25066667Y-29150000D01*
X25166667Y-29083334D01*
X25233333Y-29016667D01*
X25266667Y-28950000D01*
X24600000Y-31183334D02*
X24633333Y-31150000D01*
X24666667Y-31050000D01*
X24666667Y-30983334D01*
X24633333Y-30883334D01*
X24566667Y-30816667D01*
X24500000Y-30783334D01*
X24366667Y-30750000D01*
X24266667Y-30750000D01*
X24133333Y-30783334D01*
X24066667Y-30816667D01*
X24000000Y-30883334D01*
X23966667Y-30983334D01*
X23966667Y-31050000D01*
X24000000Y-31150000D01*
X24033333Y-31183334D01*
X24033333Y-31450000D02*
X24000000Y-31483334D01*
X23966667Y-31550000D01*
X23966667Y-31716667D01*
X24000000Y-31783334D01*
X24033333Y-31816667D01*
X24100000Y-31850000D01*
X24166667Y-31850000D01*
X24266667Y-31816667D01*
X24666667Y-31416667D01*
X24666667Y-31850000D01*
X22200000Y-32983334D02*
X22233333Y-32950000D01*
X22266667Y-32850000D01*
X22266667Y-32783334D01*
X22233333Y-32683334D01*
X22166667Y-32616667D01*
X22100000Y-32583334D01*
X21966667Y-32550000D01*
X21866667Y-32550000D01*
X21733333Y-32583334D01*
X21666667Y-32616667D01*
X21600000Y-32683334D01*
X21566667Y-32783334D01*
X21566667Y-32850000D01*
X21600000Y-32950000D01*
X21633333Y-32983334D01*
X21566667Y-33216667D02*
X21566667Y-33650000D01*
X21833333Y-33416667D01*
X21833333Y-33516667D01*
X21866667Y-33583334D01*
X21900000Y-33616667D01*
X21966667Y-33650000D01*
X22133333Y-33650000D01*
X22200000Y-33616667D01*
X22233333Y-33583334D01*
X22266667Y-33516667D01*
X22266667Y-33316667D01*
X22233333Y-33250000D01*
X22200000Y-33216667D01*
X19100000Y-38683334D02*
X19133333Y-38650000D01*
X19166667Y-38550000D01*
X19166667Y-38483334D01*
X19133333Y-38383334D01*
X19066667Y-38316667D01*
X19000000Y-38283334D01*
X18866667Y-38250000D01*
X18766667Y-38250000D01*
X18633333Y-38283334D01*
X18566667Y-38316667D01*
X18500000Y-38383334D01*
X18466667Y-38483334D01*
X18466667Y-38550000D01*
X18500000Y-38650000D01*
X18533333Y-38683334D01*
X18700000Y-39283334D02*
X19166667Y-39283334D01*
X18433333Y-39116667D02*
X18933333Y-38950000D01*
X18933333Y-39383334D01*
X23266667Y-38383334D02*
X22566667Y-38383334D01*
X22566667Y-38550000D01*
X22600000Y-38650000D01*
X22666667Y-38716667D01*
X22733333Y-38750000D01*
X22866667Y-38783334D01*
X22966667Y-38783334D01*
X23100000Y-38750000D01*
X23166667Y-38716667D01*
X23233333Y-38650000D01*
X23266667Y-38550000D01*
X23266667Y-38383334D01*
X23266667Y-39450000D02*
X23266667Y-39050000D01*
X23266667Y-39250000D02*
X22566667Y-39250000D01*
X22666667Y-39183334D01*
X22733333Y-39116667D01*
X22766667Y-39050000D01*
X21800000Y-26016667D02*
X21800000Y-25783334D01*
X22166667Y-25783334D02*
X21466667Y-25783334D01*
X21466667Y-26116667D01*
X21800000Y-26616667D02*
X21833333Y-26716667D01*
X21866667Y-26750000D01*
X21933333Y-26783334D01*
X22033333Y-26783334D01*
X22100000Y-26750000D01*
X22133333Y-26716667D01*
X22166667Y-26650000D01*
X22166667Y-26383334D01*
X21466667Y-26383334D01*
X21466667Y-26616667D01*
X21500000Y-26683334D01*
X21533333Y-26716667D01*
X21600000Y-26750000D01*
X21666667Y-26750000D01*
X21733333Y-26716667D01*
X21766667Y-26683334D01*
X21800000Y-26616667D01*
X21800000Y-26383334D01*
X22166667Y-27450000D02*
X22166667Y-27050000D01*
X22166667Y-27250000D02*
X21466667Y-27250000D01*
X21566667Y-27183334D01*
X21633333Y-27116667D01*
X21666667Y-27050000D01*
X30066667Y-26433334D02*
X29733333Y-26200000D01*
X30066667Y-26033334D02*
X29366667Y-26033334D01*
X29366667Y-26300000D01*
X29400000Y-26366667D01*
X29433333Y-26400000D01*
X29500000Y-26433334D01*
X29600000Y-26433334D01*
X29666667Y-26400000D01*
X29700000Y-26366667D01*
X29733333Y-26300000D01*
X29733333Y-26033334D01*
X30066667Y-27100000D02*
X30066667Y-26700000D01*
X30066667Y-26900000D02*
X29366667Y-26900000D01*
X29466667Y-26833334D01*
X29533333Y-26766667D01*
X29566667Y-26700000D01*
X7100000Y-29316667D02*
X7133333Y-29283333D01*
X7166667Y-29183333D01*
X7166667Y-29116667D01*
X7133333Y-29016667D01*
X7066667Y-28950000D01*
X7000000Y-28916667D01*
X6866667Y-28883333D01*
X6766667Y-28883333D01*
X6633333Y-28916667D01*
X6566667Y-28950000D01*
X6500000Y-29016667D01*
X6466667Y-29116667D01*
X6466667Y-29183333D01*
X6500000Y-29283333D01*
X6533333Y-29316667D01*
X7166667Y-29616667D02*
X6466667Y-29616667D01*
X7166667Y-30016667D01*
X6466667Y-30016667D01*
X7166667Y-30716666D02*
X7166667Y-30316666D01*
X7166667Y-30516666D02*
X6466667Y-30516666D01*
X6566667Y-30450000D01*
X6633333Y-30383333D01*
X6666667Y-30316666D01*
M02*
