%FSLAX46Y46*%
G04 Gerber Fmt 4.6, Leading zero omitted, Abs format (unit mm)*
G04 Created by KiCad (PCBNEW (2014-08-05 BZR 5054)-product) date Sun 07 Dec 2014 10:22:46 PM PST*
%MOMM*%
G01*
G04 APERTURE LIST*
%ADD10C,0.100000*%
%ADD11C,0.020000*%
G04 APERTURE END LIST*
D10*
D11*
X8450000Y0D02*
X8450000Y-9700000D01*
X8450000Y-33700000D02*
X8450000Y-49900000D01*
X49950000Y0D02*
X8450000Y0D01*
X49950000Y-49900000D02*
X8450000Y-49900000D01*
X49950000Y0D02*
X49950000Y-49900000D01*
X8450000Y-32700000D02*
X8450000Y-33700000D01*
X8450000Y-10650000D02*
X8450000Y-9700000D01*
X7500000Y-31800000D02*
G75*
G02X8450000Y-32750000I0J-950000D01*
G74*
G01*
X50000Y-31450000D02*
X400000Y-31800000D01*
X400000Y-31800000D02*
X7500000Y-31800000D01*
X50000Y-21000000D02*
X50000Y-31450000D01*
X8450000Y-10650000D02*
G75*
G02X7500000Y-11600000I-950000J0D01*
G74*
G01*
X50000Y-11950000D02*
X400000Y-11600000D01*
X400000Y-11600000D02*
X7500000Y-11600000D01*
X7500000Y-18750000D02*
X400000Y-18750000D01*
X400000Y-18750000D02*
X50000Y-18400000D01*
X50000Y-18400000D02*
X50000Y-11950000D01*
X400000Y-20650000D02*
X7500000Y-20650000D01*
X400000Y-20650000D02*
X50000Y-21000000D01*
X8450000Y-19700000D02*
G75*
G02X7500000Y-20650000I-950000J0D01*
G74*
G01*
X7500000Y-18750000D02*
G75*
G02X8450000Y-19700000I0J-950000D01*
G74*
G01*
M02*
