%FSLAX46Y46*%
G04 Gerber Fmt 4.6, Leading zero omitted, Abs format (unit mm)*
G04 Created by KiCad (PCBNEW (2014-08-05 BZR 5054)-product) date Sun 07 Dec 2014 10:22:46 PM PST*
%MOMM*%
G01*
G04 APERTURE LIST*
%ADD10C,0.100000*%
%ADD11C,6.350000*%
%ADD12C,3.500000*%
%ADD13C,2.000000*%
%ADD14C,1.800000*%
%ADD15R,1.800000X1.800000*%
%ADD16R,4.200000X0.700000*%
%ADD17O,4.500000X1.800000*%
%ADD18O,1.800000X2.100000*%
%ADD19C,1.397000*%
%ADD20C,0.889000*%
%ADD21C,0.400000*%
%ADD22C,0.250000*%
%ADD23C,0.254000*%
G04 APERTURE END LIST*
D10*
D11*
X46050000Y-3900000D03*
X46050000Y-46000000D03*
D12*
X32050000Y-45100000D03*
X39650000Y-45100000D03*
D13*
X35850000Y-37300000D03*
D12*
X12050000Y-45100000D03*
X19650000Y-45100000D03*
D13*
X15850000Y-37300000D03*
D14*
X27350000Y-36300000D03*
X27350000Y-33760000D03*
X23950000Y-36300000D03*
X23950000Y-33760000D03*
X30650000Y-33800000D03*
X30650000Y-31300000D03*
D15*
X33650000Y-33800000D03*
D14*
X30650000Y-28800000D03*
X33650000Y-28800000D03*
X33650000Y-31300000D03*
X16250000Y-33800000D03*
X16250000Y-31300000D03*
D15*
X19250000Y-33800000D03*
D14*
X16250000Y-28800000D03*
X19250000Y-28800000D03*
X19250000Y-31300000D03*
D16*
X3550000Y-31200000D03*
X3550000Y-30200000D03*
X3550000Y-29200000D03*
X3550000Y-28200000D03*
X3550000Y-27200000D03*
X3550000Y-26200000D03*
X3550000Y-25200000D03*
X3550000Y-24200000D03*
X3550000Y-23200000D03*
X3550000Y-22200000D03*
X3550000Y-21200000D03*
X3550000Y-18200000D03*
X3550000Y-17200000D03*
X3550000Y-16200000D03*
X3550000Y-15200000D03*
X3550000Y-14200000D03*
X3550000Y-13200000D03*
X3550000Y-12200000D03*
D15*
X10650000Y-16500000D03*
D14*
X13190000Y-16500000D03*
X15730000Y-16500000D03*
X18270000Y-16500000D03*
X20810000Y-16500000D03*
X23350000Y-16500000D03*
X10650000Y-13960000D03*
X13190000Y-13960000D03*
X15730000Y-13960000D03*
X18270000Y-13960000D03*
X20810000Y-13960000D03*
X23350000Y-13960000D03*
X12100000Y-22250000D03*
X14640000Y-22250000D03*
X39900000Y-32500000D03*
X37360000Y-32500000D03*
X13250000Y-32800000D03*
X10710000Y-32800000D03*
X10650000Y-8880000D03*
X10650000Y-6340000D03*
X10650000Y-3800000D03*
X13190000Y-8880000D03*
X13190000Y-6340000D03*
X13190000Y-3800000D03*
X15730000Y-8880000D03*
X15730000Y-6340000D03*
X15730000Y-3800000D03*
X18270000Y-3800000D03*
X18270000Y-6340000D03*
X18270000Y-8880000D03*
X20810000Y-8880000D03*
X23350000Y-8880000D03*
X25890000Y-8880000D03*
X28430000Y-8880000D03*
X30970000Y-8880000D03*
X33510000Y-8880000D03*
X36050000Y-8880000D03*
X38590000Y-8880000D03*
X41130000Y-8880000D03*
X41130000Y-6340000D03*
X41130000Y-3800000D03*
X38590000Y-3800000D03*
X36050000Y-3800000D03*
X33510000Y-3800000D03*
X30970000Y-3800000D03*
X28430000Y-3800000D03*
X25890000Y-3800000D03*
X23350000Y-3800000D03*
X20810000Y-3800000D03*
X25890000Y-11420000D03*
X23350000Y-11420000D03*
X20810000Y-6340000D03*
X23350000Y-6340000D03*
X25890000Y-6340000D03*
X28430000Y-6340000D03*
X30970000Y-6340000D03*
X33510000Y-6340000D03*
X36050000Y-6340000D03*
X38590000Y-6340000D03*
X28430000Y-11420000D03*
X30970000Y-11420000D03*
X33510000Y-11420000D03*
X36050000Y-11420000D03*
X38590000Y-11420000D03*
X41130000Y-11420000D03*
X41130000Y-13960000D03*
X38590000Y-13960000D03*
X36050000Y-13960000D03*
X33510000Y-13960000D03*
X30970000Y-13960000D03*
X28430000Y-13960000D03*
X25890000Y-13960000D03*
X25890000Y-16500000D03*
X28430000Y-16500000D03*
X30970000Y-16500000D03*
X33510000Y-16500000D03*
X36050000Y-16500000D03*
X38590000Y-16500000D03*
X41130000Y-16500000D03*
X41130000Y-19040000D03*
X38590000Y-19040000D03*
X36050000Y-19040000D03*
X33510000Y-19040000D03*
X30970000Y-19040000D03*
X28430000Y-19040000D03*
X25890000Y-19040000D03*
X23350000Y-19040000D03*
X43670000Y-8880000D03*
X43670000Y-11420000D03*
X43670000Y-13960000D03*
X43670000Y-16500000D03*
X43670000Y-19040000D03*
X25890000Y-21580000D03*
X28430000Y-21580000D03*
X30970000Y-21580000D03*
X33510000Y-21580000D03*
X36050000Y-21580000D03*
X38590000Y-21580000D03*
X41130000Y-21580000D03*
X43670000Y-21580000D03*
X33510000Y-24120000D03*
X36050000Y-24120000D03*
X38590000Y-24120000D03*
X41130000Y-24120000D03*
X43670000Y-24120000D03*
X36050000Y-26660000D03*
X38590000Y-26660000D03*
X41130000Y-26660000D03*
X43670000Y-26660000D03*
X38590000Y-29200000D03*
X41130000Y-29200000D03*
X43670000Y-29200000D03*
X43670000Y-31740000D03*
X43670000Y-34280000D03*
X43670000Y-36820000D03*
X43670000Y-39360000D03*
D17*
X47480000Y-39360000D03*
X47480000Y-36820000D03*
X47480000Y-34280000D03*
X47480000Y-31740000D03*
X47480000Y-29200000D03*
X47480000Y-26660000D03*
X47480000Y-24120000D03*
X47480000Y-21580000D03*
X47480000Y-19040000D03*
X47480000Y-16500000D03*
X47480000Y-13960000D03*
X47480000Y-11420000D03*
D18*
X10650000Y-1260000D03*
X13190000Y-1260000D03*
X15730000Y-1260000D03*
X18270000Y-1260000D03*
X20810000Y-1260000D03*
X23350000Y-1260000D03*
X25890000Y-1260000D03*
X28430000Y-1260000D03*
X30970000Y-1260000D03*
X33510000Y-1260000D03*
X36050000Y-1260000D03*
X38590000Y-1260000D03*
D19*
X20800000Y-22100000D03*
D20*
X9950000Y-21800000D03*
X8200000Y-28200000D03*
X8200000Y-25200000D03*
D21*
X20810000Y-16500000D02*
X20810000Y-22090000D01*
X20810000Y-22090000D02*
X20800000Y-22100000D01*
X3550000Y-30200000D02*
X13450000Y-30200000D01*
X14550000Y-31300000D02*
X16250000Y-31300000D01*
X13450000Y-30200000D02*
X14550000Y-31300000D01*
X16250000Y-31300000D02*
X15950000Y-31300000D01*
X15050000Y-27200000D02*
X17650000Y-27200000D01*
X13050000Y-29200000D02*
X15050000Y-27200000D01*
X3550000Y-29200000D02*
X13050000Y-29200000D01*
X17650000Y-27200000D02*
X19250000Y-28800000D01*
X30650000Y-31300000D02*
X25450000Y-26100000D01*
X12950000Y-27200000D02*
X14050000Y-26100000D01*
X14050000Y-26100000D02*
X19950000Y-26100000D01*
X12950000Y-27200000D02*
X3550000Y-27200000D01*
X25450000Y-26100000D02*
X19950000Y-26100000D01*
X33650000Y-28800000D02*
X29950000Y-25100000D01*
X12550000Y-26200000D02*
X13650000Y-25100000D01*
X13650000Y-25100000D02*
X19950000Y-25100000D01*
X12550000Y-26200000D02*
X3550000Y-26200000D01*
X29950000Y-25100000D02*
X19950000Y-25100000D01*
X3550000Y-24200000D02*
X12690000Y-24200000D01*
X12690000Y-24200000D02*
X14640000Y-22250000D01*
X3550000Y-23200000D02*
X11150000Y-23200000D01*
X11150000Y-23200000D02*
X12100000Y-22250000D01*
D22*
X12650000Y-19700000D02*
X15070000Y-19700000D01*
X8450000Y-21200000D02*
X9950000Y-19700000D01*
X9950000Y-19700000D02*
X12650000Y-19700000D01*
X3550000Y-21200000D02*
X8450000Y-21200000D01*
X15070000Y-19700000D02*
X18270000Y-16500000D01*
X12650000Y-19000000D02*
X13230000Y-19000000D01*
X8250000Y-18200000D02*
X9050000Y-19000000D01*
X9050000Y-19000000D02*
X12650000Y-19000000D01*
X3550000Y-18200000D02*
X8250000Y-18200000D01*
X13230000Y-19000000D02*
X15730000Y-16500000D01*
X11450000Y-18300000D02*
X11950000Y-18300000D01*
X8450000Y-17200000D02*
X9550000Y-18300000D01*
X9550000Y-18300000D02*
X11450000Y-18300000D01*
X3550000Y-17200000D02*
X8450000Y-17200000D01*
X11950000Y-18300000D02*
X13190000Y-17060000D01*
X13190000Y-17060000D02*
X13190000Y-16500000D01*
X3550000Y-16200000D02*
X10350000Y-16200000D01*
X10350000Y-16200000D02*
X10650000Y-16500000D01*
X3550000Y-15200000D02*
X8350000Y-15200000D01*
X9590000Y-13960000D02*
X10650000Y-13960000D01*
X8350000Y-15200000D02*
X9590000Y-13960000D01*
X3550000Y-14200000D02*
X7950000Y-14200000D01*
X11630000Y-12400000D02*
X13190000Y-13960000D01*
X9750000Y-12400000D02*
X11630000Y-12400000D01*
X7950000Y-14200000D02*
X9750000Y-12400000D01*
X13250000Y-11800000D02*
X13570000Y-11800000D01*
X8150000Y-13200000D02*
X9550000Y-11800000D01*
X9550000Y-11800000D02*
X13250000Y-11800000D01*
X3550000Y-13200000D02*
X8150000Y-13200000D01*
X13570000Y-11800000D02*
X15730000Y-13960000D01*
X13250000Y-11200000D02*
X15510000Y-11200000D01*
X8350000Y-12200000D02*
X9350000Y-11200000D01*
X9350000Y-11200000D02*
X13250000Y-11200000D01*
X3550000Y-12200000D02*
X8350000Y-12200000D01*
X15510000Y-11200000D02*
X18270000Y-13960000D01*
D21*
X3550000Y-22200000D02*
X9550000Y-22200000D01*
X9550000Y-22200000D02*
X9950000Y-21800000D01*
X3550000Y-31200000D02*
X9110000Y-31200000D01*
X9110000Y-31200000D02*
X10710000Y-32800000D01*
X3550000Y-28200000D02*
X8200000Y-28200000D01*
X3550000Y-25200000D02*
X8200000Y-25200000D01*
X23950000Y-33760000D02*
X23950000Y-31600000D01*
X27350000Y-33760000D02*
X27350000Y-31700000D01*
X19650000Y-45100000D02*
X12050000Y-45100000D01*
X12050000Y-45100000D02*
X12050000Y-41500000D01*
X19650000Y-45100000D02*
X19650000Y-41500000D01*
X23950000Y-36300000D02*
X23950000Y-38400000D01*
X16250000Y-33800000D02*
X16150000Y-33800000D01*
X16150000Y-33800000D02*
X13250000Y-36700000D01*
X39650000Y-45100000D02*
X32050000Y-45100000D01*
X39650000Y-45100000D02*
X39650000Y-41900000D01*
X32050000Y-45100000D02*
X32050000Y-41700000D01*
X27350000Y-36300000D02*
X27350000Y-38300000D01*
X30650000Y-33800000D02*
X30650000Y-36500000D01*
D23*
G36*
X25023000Y-49313000D02*
X24937943Y-49313000D01*
X22043259Y-49313000D01*
X22043259Y-44717908D01*
X21714864Y-43831132D01*
X21612470Y-43677890D01*
X21255002Y-43499240D01*
X21250760Y-43503482D01*
X21250760Y-43494998D01*
X21072110Y-43137530D01*
X20212853Y-42742696D01*
X19267908Y-42706741D01*
X18381132Y-43035136D01*
X18227890Y-43137530D01*
X18049240Y-43494998D01*
X19650000Y-45095757D01*
X21250760Y-43494998D01*
X21250760Y-43503482D01*
X19654243Y-45100000D01*
X21255002Y-46700760D01*
X21612470Y-46522110D01*
X22007304Y-45662853D01*
X22043259Y-44717908D01*
X22043259Y-49313000D01*
X21250760Y-49313000D01*
X21250760Y-46705002D01*
X19650000Y-45104243D01*
X19645757Y-45108485D01*
X19645757Y-45100000D01*
X18044998Y-43499240D01*
X17687530Y-43677890D01*
X17427273Y-44244273D01*
X17427273Y-36987692D01*
X17187695Y-36407868D01*
X16744465Y-35963864D01*
X16165061Y-35723275D01*
X15537692Y-35722727D01*
X14957868Y-35962305D01*
X14513864Y-36405535D01*
X14273275Y-36984939D01*
X14272727Y-37612308D01*
X14512305Y-38192132D01*
X14955535Y-38636136D01*
X15534939Y-38876725D01*
X16162308Y-38877273D01*
X16742132Y-38637695D01*
X17186136Y-38194465D01*
X17426725Y-37615061D01*
X17427273Y-36987692D01*
X17427273Y-44244273D01*
X17292696Y-44537147D01*
X17256741Y-45482092D01*
X17585136Y-46368868D01*
X17687530Y-46522110D01*
X18044998Y-46700760D01*
X19645757Y-45100000D01*
X19645757Y-45108485D01*
X18049240Y-46705002D01*
X18227890Y-47062470D01*
X19087147Y-47457304D01*
X20032092Y-47493259D01*
X20918868Y-47164864D01*
X21072110Y-47062470D01*
X21250760Y-46705002D01*
X21250760Y-49313000D01*
X14443259Y-49313000D01*
X14443259Y-44717908D01*
X14114864Y-43831132D01*
X14012470Y-43677890D01*
X13655002Y-43499240D01*
X13650760Y-43503482D01*
X13650760Y-43494998D01*
X13472110Y-43137530D01*
X12612853Y-42742696D01*
X11667908Y-42706741D01*
X10781132Y-43035136D01*
X10627890Y-43137530D01*
X10449240Y-43494998D01*
X12050000Y-45095757D01*
X13650760Y-43494998D01*
X13650760Y-43503482D01*
X12054243Y-45100000D01*
X13655002Y-46700760D01*
X14012470Y-46522110D01*
X14407304Y-45662853D01*
X14443259Y-44717908D01*
X14443259Y-49313000D01*
X13650760Y-49313000D01*
X13650760Y-46705002D01*
X12050000Y-45104243D01*
X12045757Y-45108485D01*
X12045757Y-45100000D01*
X10444998Y-43499240D01*
X10087530Y-43677890D01*
X9692696Y-44537147D01*
X9656741Y-45482092D01*
X9985136Y-46368868D01*
X10087530Y-46522110D01*
X10444998Y-46700760D01*
X12045757Y-45100000D01*
X12045757Y-45108485D01*
X10449240Y-46705002D01*
X10627890Y-47062470D01*
X11487147Y-47457304D01*
X12432092Y-47493259D01*
X13318868Y-47164864D01*
X13472110Y-47062470D01*
X13650760Y-46705002D01*
X13650760Y-49313000D01*
X9037000Y-49313000D01*
X9037000Y-35627000D01*
X22578721Y-35627000D01*
X22435404Y-35939463D01*
X22412724Y-36546519D01*
X22624081Y-37116044D01*
X22688667Y-37212704D01*
X22957814Y-37287943D01*
X23945757Y-36300000D01*
X23931615Y-36285858D01*
X23935858Y-36281615D01*
X23950000Y-36295757D01*
X23964142Y-36281615D01*
X23968385Y-36285858D01*
X23954243Y-36300000D01*
X23968385Y-36314142D01*
X23964142Y-36318385D01*
X23950000Y-36304243D01*
X22962057Y-37292186D01*
X23037296Y-37561333D01*
X23589463Y-37814596D01*
X24196519Y-37837276D01*
X24766044Y-37625919D01*
X24862704Y-37561333D01*
X24937942Y-37292187D01*
X24937943Y-37292188D01*
X25023000Y-37377245D01*
X25023000Y-49313000D01*
X25023000Y-49313000D01*
G37*
X25023000Y-49313000D02*
X24937943Y-49313000D01*
X22043259Y-49313000D01*
X22043259Y-44717908D01*
X21714864Y-43831132D01*
X21612470Y-43677890D01*
X21255002Y-43499240D01*
X21250760Y-43503482D01*
X21250760Y-43494998D01*
X21072110Y-43137530D01*
X20212853Y-42742696D01*
X19267908Y-42706741D01*
X18381132Y-43035136D01*
X18227890Y-43137530D01*
X18049240Y-43494998D01*
X19650000Y-45095757D01*
X21250760Y-43494998D01*
X21250760Y-43503482D01*
X19654243Y-45100000D01*
X21255002Y-46700760D01*
X21612470Y-46522110D01*
X22007304Y-45662853D01*
X22043259Y-44717908D01*
X22043259Y-49313000D01*
X21250760Y-49313000D01*
X21250760Y-46705002D01*
X19650000Y-45104243D01*
X19645757Y-45108485D01*
X19645757Y-45100000D01*
X18044998Y-43499240D01*
X17687530Y-43677890D01*
X17427273Y-44244273D01*
X17427273Y-36987692D01*
X17187695Y-36407868D01*
X16744465Y-35963864D01*
X16165061Y-35723275D01*
X15537692Y-35722727D01*
X14957868Y-35962305D01*
X14513864Y-36405535D01*
X14273275Y-36984939D01*
X14272727Y-37612308D01*
X14512305Y-38192132D01*
X14955535Y-38636136D01*
X15534939Y-38876725D01*
X16162308Y-38877273D01*
X16742132Y-38637695D01*
X17186136Y-38194465D01*
X17426725Y-37615061D01*
X17427273Y-36987692D01*
X17427273Y-44244273D01*
X17292696Y-44537147D01*
X17256741Y-45482092D01*
X17585136Y-46368868D01*
X17687530Y-46522110D01*
X18044998Y-46700760D01*
X19645757Y-45100000D01*
X19645757Y-45108485D01*
X18049240Y-46705002D01*
X18227890Y-47062470D01*
X19087147Y-47457304D01*
X20032092Y-47493259D01*
X20918868Y-47164864D01*
X21072110Y-47062470D01*
X21250760Y-46705002D01*
X21250760Y-49313000D01*
X14443259Y-49313000D01*
X14443259Y-44717908D01*
X14114864Y-43831132D01*
X14012470Y-43677890D01*
X13655002Y-43499240D01*
X13650760Y-43503482D01*
X13650760Y-43494998D01*
X13472110Y-43137530D01*
X12612853Y-42742696D01*
X11667908Y-42706741D01*
X10781132Y-43035136D01*
X10627890Y-43137530D01*
X10449240Y-43494998D01*
X12050000Y-45095757D01*
X13650760Y-43494998D01*
X13650760Y-43503482D01*
X12054243Y-45100000D01*
X13655002Y-46700760D01*
X14012470Y-46522110D01*
X14407304Y-45662853D01*
X14443259Y-44717908D01*
X14443259Y-49313000D01*
X13650760Y-49313000D01*
X13650760Y-46705002D01*
X12050000Y-45104243D01*
X12045757Y-45108485D01*
X12045757Y-45100000D01*
X10444998Y-43499240D01*
X10087530Y-43677890D01*
X9692696Y-44537147D01*
X9656741Y-45482092D01*
X9985136Y-46368868D01*
X10087530Y-46522110D01*
X10444998Y-46700760D01*
X12045757Y-45100000D01*
X12045757Y-45108485D01*
X10449240Y-46705002D01*
X10627890Y-47062470D01*
X11487147Y-47457304D01*
X12432092Y-47493259D01*
X13318868Y-47164864D01*
X13472110Y-47062470D01*
X13650760Y-46705002D01*
X13650760Y-49313000D01*
X9037000Y-49313000D01*
X9037000Y-35627000D01*
X22578721Y-35627000D01*
X22435404Y-35939463D01*
X22412724Y-36546519D01*
X22624081Y-37116044D01*
X22688667Y-37212704D01*
X22957814Y-37287943D01*
X23945757Y-36300000D01*
X23931615Y-36285858D01*
X23935858Y-36281615D01*
X23950000Y-36295757D01*
X23964142Y-36281615D01*
X23968385Y-36285858D01*
X23954243Y-36300000D01*
X23968385Y-36314142D01*
X23964142Y-36318385D01*
X23950000Y-36304243D01*
X22962057Y-37292186D01*
X23037296Y-37561333D01*
X23589463Y-37814596D01*
X24196519Y-37837276D01*
X24766044Y-37625919D01*
X24862704Y-37561333D01*
X24937942Y-37292187D01*
X24937943Y-37292188D01*
X25023000Y-37377245D01*
X25023000Y-49313000D01*
G36*
X12674156Y-24977000D02*
X12228156Y-25423000D01*
X6277000Y-25423000D01*
X6277000Y-25359750D01*
X6120250Y-25203000D01*
X5627000Y-25203000D01*
X5627000Y-25197000D01*
X6120250Y-25197000D01*
X6277000Y-25040250D01*
X6277000Y-24977000D01*
X12674156Y-24977000D01*
X12674156Y-24977000D01*
G37*
X12674156Y-24977000D02*
X12228156Y-25423000D01*
X6277000Y-25423000D01*
X6277000Y-25359750D01*
X6120250Y-25203000D01*
X5627000Y-25203000D01*
X5627000Y-25197000D01*
X6120250Y-25197000D01*
X6277000Y-25040250D01*
X6277000Y-24977000D01*
X12674156Y-24977000D01*
G36*
X13229815Y-27921340D02*
X12728156Y-28423000D01*
X6277000Y-28423000D01*
X6277000Y-28359750D01*
X6120250Y-28203000D01*
X5627000Y-28203000D01*
X5627000Y-28197000D01*
X6120250Y-28197000D01*
X6277000Y-28040250D01*
X6277000Y-27977000D01*
X12950000Y-27977000D01*
X13229815Y-27921340D01*
X13229815Y-27921340D01*
G37*
X13229815Y-27921340D02*
X12728156Y-28423000D01*
X6277000Y-28423000D01*
X6277000Y-28359750D01*
X6120250Y-28203000D01*
X5627000Y-28203000D01*
X5627000Y-28197000D01*
X6120250Y-28197000D01*
X6277000Y-28040250D01*
X6277000Y-27977000D01*
X12950000Y-27977000D01*
X13229815Y-27921340D01*
G36*
X15411205Y-32550358D02*
X14998591Y-32962254D01*
X14773257Y-33504918D01*
X14772756Y-34078399D01*
X14478156Y-34373000D01*
X14237943Y-34373000D01*
X14237943Y-33792186D01*
X13250000Y-32804243D01*
X13245757Y-32808486D01*
X13245757Y-32800000D01*
X12257814Y-31812057D01*
X11988667Y-31887296D01*
X11981611Y-31902678D01*
X11971333Y-31887296D01*
X11702186Y-31812057D01*
X11697943Y-31816300D01*
X11697943Y-31807814D01*
X11622704Y-31538667D01*
X11070537Y-31285404D01*
X10463481Y-31262724D01*
X9893956Y-31474081D01*
X9797296Y-31538667D01*
X9722057Y-31807814D01*
X10710000Y-32795757D01*
X11697943Y-31807814D01*
X11697943Y-31816300D01*
X10714243Y-32800000D01*
X11702186Y-33787943D01*
X11971333Y-33712704D01*
X11978388Y-33697321D01*
X11988667Y-33712704D01*
X12257814Y-33787943D01*
X13245757Y-32800000D01*
X13245757Y-32808486D01*
X12262057Y-33792186D01*
X12337296Y-34061333D01*
X12889463Y-34314596D01*
X13496519Y-34337276D01*
X14066044Y-34125919D01*
X14162704Y-34061333D01*
X14237943Y-33792186D01*
X14237943Y-34373000D01*
X11697943Y-34373000D01*
X11697943Y-33792186D01*
X10710000Y-32804243D01*
X10705757Y-32808486D01*
X10705757Y-32800000D01*
X9717814Y-31812057D01*
X9448667Y-31887296D01*
X9195404Y-32439463D01*
X9172724Y-33046519D01*
X9384081Y-33616044D01*
X9448667Y-33712704D01*
X9717814Y-33787943D01*
X10705757Y-32800000D01*
X10705757Y-32808486D01*
X9722057Y-33792186D01*
X9797296Y-34061333D01*
X10349463Y-34314596D01*
X10956519Y-34337276D01*
X11526044Y-34125919D01*
X11622704Y-34061333D01*
X11697943Y-33792186D01*
X11697943Y-34373000D01*
X9037000Y-34373000D01*
X9037000Y-33700000D01*
X9037000Y-32700000D01*
X9025720Y-32643296D01*
X9025721Y-32635482D01*
X8953407Y-32271934D01*
X8953406Y-32271932D01*
X8865759Y-32060332D01*
X8865758Y-32060331D01*
X8865758Y-32060330D01*
X8659823Y-31752128D01*
X8578847Y-31671152D01*
X8497872Y-31590177D01*
X8189670Y-31384242D01*
X8189668Y-31384241D01*
X7978068Y-31296594D01*
X7978066Y-31296593D01*
X7614517Y-31224279D01*
X7556702Y-31224279D01*
X7500000Y-31213000D01*
X6130250Y-31213000D01*
X6120250Y-31203000D01*
X5627000Y-31203000D01*
X5627000Y-31197000D01*
X6120250Y-31197000D01*
X6277000Y-31040250D01*
X6277000Y-30977000D01*
X13128156Y-30977000D01*
X13429807Y-31278651D01*
X13003481Y-31262724D01*
X12433956Y-31474081D01*
X12337296Y-31538667D01*
X12262057Y-31807814D01*
X13250000Y-32795757D01*
X13264141Y-32781614D01*
X13268384Y-32785857D01*
X13254243Y-32800000D01*
X14242186Y-33787943D01*
X14511333Y-33712704D01*
X14764596Y-33160537D01*
X14787276Y-32553481D01*
X14610448Y-32077000D01*
X14972933Y-32077000D01*
X14997130Y-32135560D01*
X15411205Y-32550358D01*
X15411205Y-32550358D01*
G37*
X15411205Y-32550358D02*
X14998591Y-32962254D01*
X14773257Y-33504918D01*
X14772756Y-34078399D01*
X14478156Y-34373000D01*
X14237943Y-34373000D01*
X14237943Y-33792186D01*
X13250000Y-32804243D01*
X13245757Y-32808486D01*
X13245757Y-32800000D01*
X12257814Y-31812057D01*
X11988667Y-31887296D01*
X11981611Y-31902678D01*
X11971333Y-31887296D01*
X11702186Y-31812057D01*
X11697943Y-31816300D01*
X11697943Y-31807814D01*
X11622704Y-31538667D01*
X11070537Y-31285404D01*
X10463481Y-31262724D01*
X9893956Y-31474081D01*
X9797296Y-31538667D01*
X9722057Y-31807814D01*
X10710000Y-32795757D01*
X11697943Y-31807814D01*
X11697943Y-31816300D01*
X10714243Y-32800000D01*
X11702186Y-33787943D01*
X11971333Y-33712704D01*
X11978388Y-33697321D01*
X11988667Y-33712704D01*
X12257814Y-33787943D01*
X13245757Y-32800000D01*
X13245757Y-32808486D01*
X12262057Y-33792186D01*
X12337296Y-34061333D01*
X12889463Y-34314596D01*
X13496519Y-34337276D01*
X14066044Y-34125919D01*
X14162704Y-34061333D01*
X14237943Y-33792186D01*
X14237943Y-34373000D01*
X11697943Y-34373000D01*
X11697943Y-33792186D01*
X10710000Y-32804243D01*
X10705757Y-32808486D01*
X10705757Y-32800000D01*
X9717814Y-31812057D01*
X9448667Y-31887296D01*
X9195404Y-32439463D01*
X9172724Y-33046519D01*
X9384081Y-33616044D01*
X9448667Y-33712704D01*
X9717814Y-33787943D01*
X10705757Y-32800000D01*
X10705757Y-32808486D01*
X9722057Y-33792186D01*
X9797296Y-34061333D01*
X10349463Y-34314596D01*
X10956519Y-34337276D01*
X11526044Y-34125919D01*
X11622704Y-34061333D01*
X11697943Y-33792186D01*
X11697943Y-34373000D01*
X9037000Y-34373000D01*
X9037000Y-33700000D01*
X9037000Y-32700000D01*
X9025720Y-32643296D01*
X9025721Y-32635482D01*
X8953407Y-32271934D01*
X8953406Y-32271932D01*
X8865759Y-32060332D01*
X8865758Y-32060331D01*
X8865758Y-32060330D01*
X8659823Y-31752128D01*
X8578847Y-31671152D01*
X8497872Y-31590177D01*
X8189670Y-31384242D01*
X8189668Y-31384241D01*
X7978068Y-31296594D01*
X7978066Y-31296593D01*
X7614517Y-31224279D01*
X7556702Y-31224279D01*
X7500000Y-31213000D01*
X6130250Y-31213000D01*
X6120250Y-31203000D01*
X5627000Y-31203000D01*
X5627000Y-31197000D01*
X6120250Y-31197000D01*
X6277000Y-31040250D01*
X6277000Y-30977000D01*
X13128156Y-30977000D01*
X13429807Y-31278651D01*
X13003481Y-31262724D01*
X12433956Y-31474081D01*
X12337296Y-31538667D01*
X12262057Y-31807814D01*
X13250000Y-32795757D01*
X13264141Y-32781614D01*
X13268384Y-32785857D01*
X13254243Y-32800000D01*
X14242186Y-33787943D01*
X14511333Y-33712704D01*
X14764596Y-33160537D01*
X14787276Y-32553481D01*
X14610448Y-32077000D01*
X14972933Y-32077000D01*
X14997130Y-32135560D01*
X15411205Y-32550358D01*
G36*
X29811205Y-32550358D02*
X29398591Y-32962254D01*
X29173257Y-33504918D01*
X29172744Y-34092505D01*
X29288642Y-34373000D01*
X28748798Y-34373000D01*
X28864596Y-34120537D01*
X28887276Y-33513481D01*
X28675919Y-32943956D01*
X28611333Y-32847296D01*
X28342186Y-32772057D01*
X28337943Y-32776300D01*
X28337943Y-32767814D01*
X28262704Y-32498667D01*
X27710537Y-32245404D01*
X27103481Y-32222724D01*
X26533956Y-32434081D01*
X26437296Y-32498667D01*
X26362057Y-32767814D01*
X27350000Y-33755757D01*
X28337943Y-32767814D01*
X28337943Y-32776300D01*
X27354243Y-33760000D01*
X27368385Y-33774142D01*
X27364142Y-33778385D01*
X27350000Y-33764243D01*
X27335857Y-33778384D01*
X27331615Y-33774142D01*
X27345757Y-33760000D01*
X26357814Y-32772057D01*
X26088667Y-32847296D01*
X25835404Y-33399463D01*
X25812724Y-34006519D01*
X25948729Y-34373000D01*
X25348798Y-34373000D01*
X25464596Y-34120537D01*
X25487276Y-33513481D01*
X25275919Y-32943956D01*
X25211333Y-32847296D01*
X24942186Y-32772057D01*
X24937943Y-32776300D01*
X24937943Y-32767814D01*
X24862704Y-32498667D01*
X24310537Y-32245404D01*
X23703481Y-32222724D01*
X23133956Y-32434081D01*
X23037296Y-32498667D01*
X22962057Y-32767814D01*
X23950000Y-33755757D01*
X24937943Y-32767814D01*
X24937943Y-32776300D01*
X23954243Y-33760000D01*
X23968385Y-33774142D01*
X23964142Y-33778385D01*
X23950000Y-33764243D01*
X23935857Y-33778384D01*
X23931615Y-33774142D01*
X23945757Y-33760000D01*
X22957814Y-32772057D01*
X22688667Y-32847296D01*
X22435404Y-33399463D01*
X22412724Y-34006519D01*
X22548729Y-34373000D01*
X20727000Y-34373000D01*
X20727000Y-32785228D01*
X20639157Y-32573156D01*
X20476845Y-32410843D01*
X20300858Y-32337947D01*
X20501409Y-32137746D01*
X20726743Y-31595082D01*
X20727256Y-31007495D01*
X20502870Y-30464440D01*
X20088794Y-30049641D01*
X20501409Y-29637746D01*
X20726743Y-29095082D01*
X20727256Y-28507495D01*
X20502870Y-27964440D01*
X20087746Y-27548591D01*
X19545082Y-27323257D01*
X18957495Y-27322744D01*
X18896705Y-27347861D01*
X18425844Y-26877000D01*
X19950000Y-26877000D01*
X25128156Y-26877000D01*
X29197555Y-30946399D01*
X29173257Y-31004918D01*
X29172744Y-31592505D01*
X29397130Y-32135560D01*
X29811205Y-32550358D01*
X29811205Y-32550358D01*
G37*
X29811205Y-32550358D02*
X29398591Y-32962254D01*
X29173257Y-33504918D01*
X29172744Y-34092505D01*
X29288642Y-34373000D01*
X28748798Y-34373000D01*
X28864596Y-34120537D01*
X28887276Y-33513481D01*
X28675919Y-32943956D01*
X28611333Y-32847296D01*
X28342186Y-32772057D01*
X28337943Y-32776300D01*
X28337943Y-32767814D01*
X28262704Y-32498667D01*
X27710537Y-32245404D01*
X27103481Y-32222724D01*
X26533956Y-32434081D01*
X26437296Y-32498667D01*
X26362057Y-32767814D01*
X27350000Y-33755757D01*
X28337943Y-32767814D01*
X28337943Y-32776300D01*
X27354243Y-33760000D01*
X27368385Y-33774142D01*
X27364142Y-33778385D01*
X27350000Y-33764243D01*
X27335857Y-33778384D01*
X27331615Y-33774142D01*
X27345757Y-33760000D01*
X26357814Y-32772057D01*
X26088667Y-32847296D01*
X25835404Y-33399463D01*
X25812724Y-34006519D01*
X25948729Y-34373000D01*
X25348798Y-34373000D01*
X25464596Y-34120537D01*
X25487276Y-33513481D01*
X25275919Y-32943956D01*
X25211333Y-32847296D01*
X24942186Y-32772057D01*
X24937943Y-32776300D01*
X24937943Y-32767814D01*
X24862704Y-32498667D01*
X24310537Y-32245404D01*
X23703481Y-32222724D01*
X23133956Y-32434081D01*
X23037296Y-32498667D01*
X22962057Y-32767814D01*
X23950000Y-33755757D01*
X24937943Y-32767814D01*
X24937943Y-32776300D01*
X23954243Y-33760000D01*
X23968385Y-33774142D01*
X23964142Y-33778385D01*
X23950000Y-33764243D01*
X23935857Y-33778384D01*
X23931615Y-33774142D01*
X23945757Y-33760000D01*
X22957814Y-32772057D01*
X22688667Y-32847296D01*
X22435404Y-33399463D01*
X22412724Y-34006519D01*
X22548729Y-34373000D01*
X20727000Y-34373000D01*
X20727000Y-32785228D01*
X20639157Y-32573156D01*
X20476845Y-32410843D01*
X20300858Y-32337947D01*
X20501409Y-32137746D01*
X20726743Y-31595082D01*
X20727256Y-31007495D01*
X20502870Y-30464440D01*
X20088794Y-30049641D01*
X20501409Y-29637746D01*
X20726743Y-29095082D01*
X20727256Y-28507495D01*
X20502870Y-27964440D01*
X20087746Y-27548591D01*
X19545082Y-27323257D01*
X18957495Y-27322744D01*
X18896705Y-27347861D01*
X18425844Y-26877000D01*
X19950000Y-26877000D01*
X25128156Y-26877000D01*
X29197555Y-30946399D01*
X29173257Y-31004918D01*
X29172744Y-31592505D01*
X29397130Y-32135560D01*
X29811205Y-32550358D01*
G36*
X41823000Y-34373000D02*
X41437276Y-34373000D01*
X41437276Y-32253481D01*
X41225919Y-31683956D01*
X41161333Y-31587296D01*
X40892186Y-31512057D01*
X40887943Y-31516300D01*
X40887943Y-31507814D01*
X40812704Y-31238667D01*
X40260537Y-30985404D01*
X39653481Y-30962724D01*
X39083956Y-31174081D01*
X38987296Y-31238667D01*
X38912057Y-31507814D01*
X39900000Y-32495757D01*
X40887943Y-31507814D01*
X40887943Y-31516300D01*
X39904243Y-32500000D01*
X40892186Y-33487943D01*
X41161333Y-33412704D01*
X41414596Y-32860537D01*
X41437276Y-32253481D01*
X41437276Y-34373000D01*
X40887943Y-34373000D01*
X40887943Y-33492186D01*
X39900000Y-32504243D01*
X39895757Y-32508486D01*
X39895757Y-32500000D01*
X38907814Y-31512057D01*
X38638667Y-31587296D01*
X38631611Y-31602678D01*
X38621333Y-31587296D01*
X38352186Y-31512057D01*
X38347943Y-31516300D01*
X38347943Y-31507814D01*
X38272704Y-31238667D01*
X37720537Y-30985404D01*
X37113481Y-30962724D01*
X36543956Y-31174081D01*
X36447296Y-31238667D01*
X36372057Y-31507814D01*
X37360000Y-32495757D01*
X38347943Y-31507814D01*
X38347943Y-31516300D01*
X37364243Y-32500000D01*
X38352186Y-33487943D01*
X38621333Y-33412704D01*
X38628388Y-33397321D01*
X38638667Y-33412704D01*
X38907814Y-33487943D01*
X39895757Y-32500000D01*
X39895757Y-32508486D01*
X38912057Y-33492186D01*
X38987296Y-33761333D01*
X39539463Y-34014596D01*
X40146519Y-34037276D01*
X40716044Y-33825919D01*
X40812704Y-33761333D01*
X40887943Y-33492186D01*
X40887943Y-34373000D01*
X38347943Y-34373000D01*
X38347943Y-33492186D01*
X37360000Y-32504243D01*
X37355757Y-32508486D01*
X37355757Y-32500000D01*
X36367814Y-31512057D01*
X36098667Y-31587296D01*
X35845404Y-32139463D01*
X35822724Y-32746519D01*
X36034081Y-33316044D01*
X36098667Y-33412704D01*
X36367814Y-33487943D01*
X37355757Y-32500000D01*
X37355757Y-32508486D01*
X36372057Y-33492186D01*
X36447296Y-33761333D01*
X36999463Y-34014596D01*
X37606519Y-34037276D01*
X38176044Y-33825919D01*
X38272704Y-33761333D01*
X38347943Y-33492186D01*
X38347943Y-34373000D01*
X35127000Y-34373000D01*
X35127000Y-32785228D01*
X35039157Y-32573156D01*
X34876845Y-32410843D01*
X34700858Y-32337947D01*
X34901409Y-32137746D01*
X35126743Y-31595082D01*
X35127256Y-31007495D01*
X34902870Y-30464440D01*
X34488794Y-30049641D01*
X34901409Y-29637746D01*
X35126743Y-29095082D01*
X35127256Y-28507495D01*
X34902870Y-27964440D01*
X34487746Y-27548591D01*
X33945082Y-27323257D01*
X33357495Y-27322744D01*
X33296705Y-27347861D01*
X30499422Y-24550578D01*
X30247345Y-24382146D01*
X29950000Y-24323000D01*
X19950000Y-24323000D01*
X13665844Y-24323000D01*
X14286399Y-23702444D01*
X14344918Y-23726743D01*
X14932505Y-23727256D01*
X15475560Y-23502870D01*
X15891409Y-23087746D01*
X16116743Y-22545082D01*
X16117256Y-21957495D01*
X15892870Y-21414440D01*
X15477746Y-20998591D01*
X14935082Y-20773257D01*
X14347495Y-20772744D01*
X13804440Y-20997130D01*
X13388591Y-21412254D01*
X13370233Y-21456463D01*
X13352870Y-21414440D01*
X12937746Y-20998591D01*
X12395082Y-20773257D01*
X11807495Y-20772744D01*
X11264440Y-20997130D01*
X10848591Y-21412254D01*
X10623257Y-21954918D01*
X10622848Y-22423000D01*
X6277000Y-22423000D01*
X6277000Y-22359750D01*
X6120250Y-22203000D01*
X5627000Y-22203000D01*
X5627000Y-22197000D01*
X6120250Y-22197000D01*
X6277000Y-22040250D01*
X6277000Y-21902000D01*
X8450000Y-21902000D01*
X8718643Y-21848563D01*
X8718644Y-21848563D01*
X8946389Y-21696389D01*
X10240778Y-20402000D01*
X12650000Y-20402000D01*
X15070000Y-20402000D01*
X15338643Y-20348563D01*
X15338644Y-20348563D01*
X15566389Y-20196389D01*
X15935778Y-19827000D01*
X20033000Y-19827000D01*
X20033000Y-21063404D01*
X19719314Y-21376544D01*
X19524721Y-21845174D01*
X19524279Y-22352600D01*
X19718053Y-22821569D01*
X20076544Y-23180686D01*
X20545174Y-23375279D01*
X21052600Y-23375721D01*
X21521569Y-23181947D01*
X21880686Y-22823456D01*
X22075279Y-22354826D01*
X22075721Y-21847400D01*
X21881947Y-21378431D01*
X21587000Y-21082968D01*
X21587000Y-19827000D01*
X22077065Y-19827000D01*
X22097130Y-19875560D01*
X22512254Y-20291409D01*
X23054918Y-20516743D01*
X23642505Y-20517256D01*
X24185560Y-20292870D01*
X24601409Y-19877746D01*
X24619766Y-19833536D01*
X24637130Y-19875560D01*
X25052254Y-20291409D01*
X25096463Y-20309766D01*
X25054440Y-20327130D01*
X24638591Y-20742254D01*
X24413257Y-21284918D01*
X24412744Y-21872505D01*
X24637130Y-22415560D01*
X25052254Y-22831409D01*
X25594918Y-23056743D01*
X26182505Y-23057256D01*
X26725560Y-22832870D01*
X27141409Y-22417746D01*
X27159766Y-22373536D01*
X27177130Y-22415560D01*
X27592254Y-22831409D01*
X28134918Y-23056743D01*
X28722505Y-23057256D01*
X29265560Y-22832870D01*
X29681409Y-22417746D01*
X29699766Y-22373536D01*
X29717130Y-22415560D01*
X30132254Y-22831409D01*
X30674918Y-23056743D01*
X31262505Y-23057256D01*
X31805560Y-22832870D01*
X32221409Y-22417746D01*
X32239766Y-22373536D01*
X32257130Y-22415560D01*
X32672254Y-22831409D01*
X32716463Y-22849766D01*
X32674440Y-22867130D01*
X32258591Y-23282254D01*
X32033257Y-23824918D01*
X32032744Y-24412505D01*
X32257130Y-24955560D01*
X32672254Y-25371409D01*
X33214918Y-25596743D01*
X33802505Y-25597256D01*
X34345560Y-25372870D01*
X34761409Y-24957746D01*
X34779766Y-24913536D01*
X34797130Y-24955560D01*
X35212254Y-25371409D01*
X35256463Y-25389766D01*
X35214440Y-25407130D01*
X34798591Y-25822254D01*
X34573257Y-26364918D01*
X34572744Y-26952505D01*
X34797130Y-27495560D01*
X35212254Y-27911409D01*
X35754918Y-28136743D01*
X36342505Y-28137256D01*
X36885560Y-27912870D01*
X37301409Y-27497746D01*
X37319766Y-27453536D01*
X37337130Y-27495560D01*
X37752254Y-27911409D01*
X37796463Y-27929766D01*
X37754440Y-27947130D01*
X37338591Y-28362254D01*
X37113257Y-28904918D01*
X37112744Y-29492505D01*
X37337130Y-30035560D01*
X37752254Y-30451409D01*
X38294918Y-30676743D01*
X38882505Y-30677256D01*
X39425560Y-30452870D01*
X39841409Y-30037746D01*
X39859766Y-29993536D01*
X39877130Y-30035560D01*
X40292254Y-30451409D01*
X40834918Y-30676743D01*
X41422505Y-30677256D01*
X41823000Y-30511774D01*
X41823000Y-34373000D01*
X41823000Y-34373000D01*
G37*
X41823000Y-34373000D02*
X41437276Y-34373000D01*
X41437276Y-32253481D01*
X41225919Y-31683956D01*
X41161333Y-31587296D01*
X40892186Y-31512057D01*
X40887943Y-31516300D01*
X40887943Y-31507814D01*
X40812704Y-31238667D01*
X40260537Y-30985404D01*
X39653481Y-30962724D01*
X39083956Y-31174081D01*
X38987296Y-31238667D01*
X38912057Y-31507814D01*
X39900000Y-32495757D01*
X40887943Y-31507814D01*
X40887943Y-31516300D01*
X39904243Y-32500000D01*
X40892186Y-33487943D01*
X41161333Y-33412704D01*
X41414596Y-32860537D01*
X41437276Y-32253481D01*
X41437276Y-34373000D01*
X40887943Y-34373000D01*
X40887943Y-33492186D01*
X39900000Y-32504243D01*
X39895757Y-32508486D01*
X39895757Y-32500000D01*
X38907814Y-31512057D01*
X38638667Y-31587296D01*
X38631611Y-31602678D01*
X38621333Y-31587296D01*
X38352186Y-31512057D01*
X38347943Y-31516300D01*
X38347943Y-31507814D01*
X38272704Y-31238667D01*
X37720537Y-30985404D01*
X37113481Y-30962724D01*
X36543956Y-31174081D01*
X36447296Y-31238667D01*
X36372057Y-31507814D01*
X37360000Y-32495757D01*
X38347943Y-31507814D01*
X38347943Y-31516300D01*
X37364243Y-32500000D01*
X38352186Y-33487943D01*
X38621333Y-33412704D01*
X38628388Y-33397321D01*
X38638667Y-33412704D01*
X38907814Y-33487943D01*
X39895757Y-32500000D01*
X39895757Y-32508486D01*
X38912057Y-33492186D01*
X38987296Y-33761333D01*
X39539463Y-34014596D01*
X40146519Y-34037276D01*
X40716044Y-33825919D01*
X40812704Y-33761333D01*
X40887943Y-33492186D01*
X40887943Y-34373000D01*
X38347943Y-34373000D01*
X38347943Y-33492186D01*
X37360000Y-32504243D01*
X37355757Y-32508486D01*
X37355757Y-32500000D01*
X36367814Y-31512057D01*
X36098667Y-31587296D01*
X35845404Y-32139463D01*
X35822724Y-32746519D01*
X36034081Y-33316044D01*
X36098667Y-33412704D01*
X36367814Y-33487943D01*
X37355757Y-32500000D01*
X37355757Y-32508486D01*
X36372057Y-33492186D01*
X36447296Y-33761333D01*
X36999463Y-34014596D01*
X37606519Y-34037276D01*
X38176044Y-33825919D01*
X38272704Y-33761333D01*
X38347943Y-33492186D01*
X38347943Y-34373000D01*
X35127000Y-34373000D01*
X35127000Y-32785228D01*
X35039157Y-32573156D01*
X34876845Y-32410843D01*
X34700858Y-32337947D01*
X34901409Y-32137746D01*
X35126743Y-31595082D01*
X35127256Y-31007495D01*
X34902870Y-30464440D01*
X34488794Y-30049641D01*
X34901409Y-29637746D01*
X35126743Y-29095082D01*
X35127256Y-28507495D01*
X34902870Y-27964440D01*
X34487746Y-27548591D01*
X33945082Y-27323257D01*
X33357495Y-27322744D01*
X33296705Y-27347861D01*
X30499422Y-24550578D01*
X30247345Y-24382146D01*
X29950000Y-24323000D01*
X19950000Y-24323000D01*
X13665844Y-24323000D01*
X14286399Y-23702444D01*
X14344918Y-23726743D01*
X14932505Y-23727256D01*
X15475560Y-23502870D01*
X15891409Y-23087746D01*
X16116743Y-22545082D01*
X16117256Y-21957495D01*
X15892870Y-21414440D01*
X15477746Y-20998591D01*
X14935082Y-20773257D01*
X14347495Y-20772744D01*
X13804440Y-20997130D01*
X13388591Y-21412254D01*
X13370233Y-21456463D01*
X13352870Y-21414440D01*
X12937746Y-20998591D01*
X12395082Y-20773257D01*
X11807495Y-20772744D01*
X11264440Y-20997130D01*
X10848591Y-21412254D01*
X10623257Y-21954918D01*
X10622848Y-22423000D01*
X6277000Y-22423000D01*
X6277000Y-22359750D01*
X6120250Y-22203000D01*
X5627000Y-22203000D01*
X5627000Y-22197000D01*
X6120250Y-22197000D01*
X6277000Y-22040250D01*
X6277000Y-21902000D01*
X8450000Y-21902000D01*
X8718643Y-21848563D01*
X8718644Y-21848563D01*
X8946389Y-21696389D01*
X10240778Y-20402000D01*
X12650000Y-20402000D01*
X15070000Y-20402000D01*
X15338643Y-20348563D01*
X15338644Y-20348563D01*
X15566389Y-20196389D01*
X15935778Y-19827000D01*
X20033000Y-19827000D01*
X20033000Y-21063404D01*
X19719314Y-21376544D01*
X19524721Y-21845174D01*
X19524279Y-22352600D01*
X19718053Y-22821569D01*
X20076544Y-23180686D01*
X20545174Y-23375279D01*
X21052600Y-23375721D01*
X21521569Y-23181947D01*
X21880686Y-22823456D01*
X22075279Y-22354826D01*
X22075721Y-21847400D01*
X21881947Y-21378431D01*
X21587000Y-21082968D01*
X21587000Y-19827000D01*
X22077065Y-19827000D01*
X22097130Y-19875560D01*
X22512254Y-20291409D01*
X23054918Y-20516743D01*
X23642505Y-20517256D01*
X24185560Y-20292870D01*
X24601409Y-19877746D01*
X24619766Y-19833536D01*
X24637130Y-19875560D01*
X25052254Y-20291409D01*
X25096463Y-20309766D01*
X25054440Y-20327130D01*
X24638591Y-20742254D01*
X24413257Y-21284918D01*
X24412744Y-21872505D01*
X24637130Y-22415560D01*
X25052254Y-22831409D01*
X25594918Y-23056743D01*
X26182505Y-23057256D01*
X26725560Y-22832870D01*
X27141409Y-22417746D01*
X27159766Y-22373536D01*
X27177130Y-22415560D01*
X27592254Y-22831409D01*
X28134918Y-23056743D01*
X28722505Y-23057256D01*
X29265560Y-22832870D01*
X29681409Y-22417746D01*
X29699766Y-22373536D01*
X29717130Y-22415560D01*
X30132254Y-22831409D01*
X30674918Y-23056743D01*
X31262505Y-23057256D01*
X31805560Y-22832870D01*
X32221409Y-22417746D01*
X32239766Y-22373536D01*
X32257130Y-22415560D01*
X32672254Y-22831409D01*
X32716463Y-22849766D01*
X32674440Y-22867130D01*
X32258591Y-23282254D01*
X32033257Y-23824918D01*
X32032744Y-24412505D01*
X32257130Y-24955560D01*
X32672254Y-25371409D01*
X33214918Y-25596743D01*
X33802505Y-25597256D01*
X34345560Y-25372870D01*
X34761409Y-24957746D01*
X34779766Y-24913536D01*
X34797130Y-24955560D01*
X35212254Y-25371409D01*
X35256463Y-25389766D01*
X35214440Y-25407130D01*
X34798591Y-25822254D01*
X34573257Y-26364918D01*
X34572744Y-26952505D01*
X34797130Y-27495560D01*
X35212254Y-27911409D01*
X35754918Y-28136743D01*
X36342505Y-28137256D01*
X36885560Y-27912870D01*
X37301409Y-27497746D01*
X37319766Y-27453536D01*
X37337130Y-27495560D01*
X37752254Y-27911409D01*
X37796463Y-27929766D01*
X37754440Y-27947130D01*
X37338591Y-28362254D01*
X37113257Y-28904918D01*
X37112744Y-29492505D01*
X37337130Y-30035560D01*
X37752254Y-30451409D01*
X38294918Y-30676743D01*
X38882505Y-30677256D01*
X39425560Y-30452870D01*
X39841409Y-30037746D01*
X39859766Y-29993536D01*
X39877130Y-30035560D01*
X40292254Y-30451409D01*
X40834918Y-30676743D01*
X41422505Y-30677256D01*
X41823000Y-30511774D01*
X41823000Y-34373000D01*
G36*
X41823000Y-49313000D02*
X41250760Y-49313000D01*
X41250760Y-46705002D01*
X39650000Y-45104243D01*
X39645757Y-45108485D01*
X39645757Y-45100000D01*
X38044998Y-43499240D01*
X37687530Y-43677890D01*
X37427273Y-44244273D01*
X37427273Y-36987692D01*
X37187695Y-36407868D01*
X36744465Y-35963864D01*
X36165061Y-35723275D01*
X35537692Y-35722727D01*
X34957868Y-35962305D01*
X34513864Y-36405535D01*
X34273275Y-36984939D01*
X34272727Y-37612308D01*
X34512305Y-38192132D01*
X34955535Y-38636136D01*
X35534939Y-38876725D01*
X36162308Y-38877273D01*
X36742132Y-38637695D01*
X37186136Y-38194465D01*
X37426725Y-37615061D01*
X37427273Y-36987692D01*
X37427273Y-44244273D01*
X37292696Y-44537147D01*
X37256741Y-45482092D01*
X37585136Y-46368868D01*
X37687530Y-46522110D01*
X38044998Y-46700760D01*
X39645757Y-45100000D01*
X39645757Y-45108485D01*
X38049240Y-46705002D01*
X38227890Y-47062470D01*
X39087147Y-47457304D01*
X40032092Y-47493259D01*
X40918868Y-47164864D01*
X41072110Y-47062470D01*
X41250760Y-46705002D01*
X41250760Y-49313000D01*
X34443259Y-49313000D01*
X34443259Y-44717908D01*
X34114864Y-43831132D01*
X34012470Y-43677890D01*
X33655002Y-43499240D01*
X33650760Y-43503482D01*
X33650760Y-43494998D01*
X33472110Y-43137530D01*
X32612853Y-42742696D01*
X31667908Y-42706741D01*
X30781132Y-43035136D01*
X30627890Y-43137530D01*
X30449240Y-43494998D01*
X32050000Y-45095757D01*
X33650760Y-43494998D01*
X33650760Y-43503482D01*
X32054243Y-45100000D01*
X33655002Y-46700760D01*
X34012470Y-46522110D01*
X34407304Y-45662853D01*
X34443259Y-44717908D01*
X34443259Y-49313000D01*
X33650760Y-49313000D01*
X33650760Y-46705002D01*
X32050000Y-45104243D01*
X32045757Y-45108485D01*
X32045757Y-45100000D01*
X30444998Y-43499240D01*
X30087530Y-43677890D01*
X29692696Y-44537147D01*
X29656741Y-45482092D01*
X29985136Y-46368868D01*
X30087530Y-46522110D01*
X30444998Y-46700760D01*
X32045757Y-45100000D01*
X32045757Y-45108485D01*
X30449240Y-46705002D01*
X30627890Y-47062470D01*
X31487147Y-47457304D01*
X32432092Y-47493259D01*
X33318868Y-47164864D01*
X33472110Y-47062470D01*
X33650760Y-46705002D01*
X33650760Y-49313000D01*
X28337943Y-49313000D01*
X26277000Y-49313000D01*
X26277000Y-37377245D01*
X26362057Y-37292187D01*
X26437296Y-37561333D01*
X26989463Y-37814596D01*
X27596519Y-37837276D01*
X28166044Y-37625919D01*
X28262704Y-37561333D01*
X28337943Y-37292186D01*
X27350000Y-36304243D01*
X27335858Y-36318385D01*
X27331615Y-36314142D01*
X27345757Y-36300000D01*
X27331615Y-36285858D01*
X27335858Y-36281615D01*
X27350000Y-36295757D01*
X27364142Y-36281615D01*
X27368385Y-36285858D01*
X27354243Y-36300000D01*
X28342186Y-37287943D01*
X28611333Y-37212704D01*
X28864596Y-36660537D01*
X28887276Y-36053481D01*
X28729004Y-35627000D01*
X41823000Y-35627000D01*
X41823000Y-44123135D01*
X41714864Y-43831132D01*
X41612470Y-43677890D01*
X41255002Y-43499240D01*
X41250760Y-43503482D01*
X41250760Y-43494998D01*
X41072110Y-43137530D01*
X40212853Y-42742696D01*
X39267908Y-42706741D01*
X38381132Y-43035136D01*
X38227890Y-43137530D01*
X38049240Y-43494998D01*
X39650000Y-45095757D01*
X41250760Y-43494998D01*
X41250760Y-43503482D01*
X39654243Y-45100000D01*
X41255002Y-46700760D01*
X41612470Y-46522110D01*
X41823000Y-46063944D01*
X41823000Y-49313000D01*
X41823000Y-49313000D01*
G37*
X41823000Y-49313000D02*
X41250760Y-49313000D01*
X41250760Y-46705002D01*
X39650000Y-45104243D01*
X39645757Y-45108485D01*
X39645757Y-45100000D01*
X38044998Y-43499240D01*
X37687530Y-43677890D01*
X37427273Y-44244273D01*
X37427273Y-36987692D01*
X37187695Y-36407868D01*
X36744465Y-35963864D01*
X36165061Y-35723275D01*
X35537692Y-35722727D01*
X34957868Y-35962305D01*
X34513864Y-36405535D01*
X34273275Y-36984939D01*
X34272727Y-37612308D01*
X34512305Y-38192132D01*
X34955535Y-38636136D01*
X35534939Y-38876725D01*
X36162308Y-38877273D01*
X36742132Y-38637695D01*
X37186136Y-38194465D01*
X37426725Y-37615061D01*
X37427273Y-36987692D01*
X37427273Y-44244273D01*
X37292696Y-44537147D01*
X37256741Y-45482092D01*
X37585136Y-46368868D01*
X37687530Y-46522110D01*
X38044998Y-46700760D01*
X39645757Y-45100000D01*
X39645757Y-45108485D01*
X38049240Y-46705002D01*
X38227890Y-47062470D01*
X39087147Y-47457304D01*
X40032092Y-47493259D01*
X40918868Y-47164864D01*
X41072110Y-47062470D01*
X41250760Y-46705002D01*
X41250760Y-49313000D01*
X34443259Y-49313000D01*
X34443259Y-44717908D01*
X34114864Y-43831132D01*
X34012470Y-43677890D01*
X33655002Y-43499240D01*
X33650760Y-43503482D01*
X33650760Y-43494998D01*
X33472110Y-43137530D01*
X32612853Y-42742696D01*
X31667908Y-42706741D01*
X30781132Y-43035136D01*
X30627890Y-43137530D01*
X30449240Y-43494998D01*
X32050000Y-45095757D01*
X33650760Y-43494998D01*
X33650760Y-43503482D01*
X32054243Y-45100000D01*
X33655002Y-46700760D01*
X34012470Y-46522110D01*
X34407304Y-45662853D01*
X34443259Y-44717908D01*
X34443259Y-49313000D01*
X33650760Y-49313000D01*
X33650760Y-46705002D01*
X32050000Y-45104243D01*
X32045757Y-45108485D01*
X32045757Y-45100000D01*
X30444998Y-43499240D01*
X30087530Y-43677890D01*
X29692696Y-44537147D01*
X29656741Y-45482092D01*
X29985136Y-46368868D01*
X30087530Y-46522110D01*
X30444998Y-46700760D01*
X32045757Y-45100000D01*
X32045757Y-45108485D01*
X30449240Y-46705002D01*
X30627890Y-47062470D01*
X31487147Y-47457304D01*
X32432092Y-47493259D01*
X33318868Y-47164864D01*
X33472110Y-47062470D01*
X33650760Y-46705002D01*
X33650760Y-49313000D01*
X28337943Y-49313000D01*
X26277000Y-49313000D01*
X26277000Y-37377245D01*
X26362057Y-37292187D01*
X26437296Y-37561333D01*
X26989463Y-37814596D01*
X27596519Y-37837276D01*
X28166044Y-37625919D01*
X28262704Y-37561333D01*
X28337943Y-37292186D01*
X27350000Y-36304243D01*
X27335858Y-36318385D01*
X27331615Y-36314142D01*
X27345757Y-36300000D01*
X27331615Y-36285858D01*
X27335858Y-36281615D01*
X27350000Y-36295757D01*
X27364142Y-36281615D01*
X27368385Y-36285858D01*
X27354243Y-36300000D01*
X28342186Y-37287943D01*
X28611333Y-37212704D01*
X28864596Y-36660537D01*
X28887276Y-36053481D01*
X28729004Y-35627000D01*
X41823000Y-35627000D01*
X41823000Y-44123135D01*
X41714864Y-43831132D01*
X41612470Y-43677890D01*
X41255002Y-43499240D01*
X41250760Y-43503482D01*
X41250760Y-43494998D01*
X41072110Y-43137530D01*
X40212853Y-42742696D01*
X39267908Y-42706741D01*
X38381132Y-43035136D01*
X38227890Y-43137530D01*
X38049240Y-43494998D01*
X39650000Y-45095757D01*
X41250760Y-43494998D01*
X41250760Y-43503482D01*
X39654243Y-45100000D01*
X41255002Y-46700760D01*
X41612470Y-46522110D01*
X41823000Y-46063944D01*
X41823000Y-49313000D01*
M02*
