%FSLAX46Y46*%
G04 Gerber Fmt 4.6, Leading zero omitted, Abs format (unit mm)*
G04 Created by KiCad (PCBNEW (2014-08-05 BZR 5054)-product) date Sun 07 Dec 2014 10:24:08 PM PST*
%MOMM*%
G01*
G04 APERTURE LIST*
%ADD10C,0.100000*%
%ADD11R,3.000000X0.700000*%
%ADD12R,0.914400X0.304800*%
%ADD13R,0.304800X0.914400*%
%ADD14R,7.239000X7.239000*%
%ADD15R,0.889000X1.397000*%
%ADD16R,1.550000X1.950000*%
%ADD17R,2.000000X0.400000*%
%ADD18R,1.397000X0.889000*%
%ADD19C,1.501140*%
%ADD20C,6.350000*%
%ADD21R,2.032000X1.524000*%
%ADD22C,1.000000*%
%ADD23C,1.800000*%
%ADD24O,1.600000X3.800000*%
%ADD25C,5.000000*%
%ADD26C,1.397000*%
%ADD27C,0.889000*%
%ADD28C,1.000000*%
%ADD29C,0.250000*%
%ADD30C,0.400000*%
%ADD31C,0.254000*%
G04 APERTURE END LIST*
D10*
D11*
X42300000Y-31200000D03*
X42300000Y-30200000D03*
X42300000Y-29200000D03*
X42300000Y-28200000D03*
X42300000Y-27200000D03*
X42300000Y-26200000D03*
X42300000Y-25200000D03*
X42300000Y-24200000D03*
X42300000Y-23200000D03*
X42300000Y-22200000D03*
X42300000Y-21200000D03*
X42300000Y-18200000D03*
X42300000Y-17200000D03*
X42300000Y-16200000D03*
X42300000Y-15200000D03*
X42300000Y-14200000D03*
X42300000Y-13200000D03*
X42300000Y-12200000D03*
D10*
G36*
X14900704Y-18370445D02*
X15814616Y-18406401D01*
X15809645Y-18691158D01*
X14895035Y-18695196D01*
X14900704Y-18370445D01*
X14900704Y-18370445D01*
G37*
D12*
X15355000Y-19048800D03*
X15355000Y-19556800D03*
X15355000Y-20039400D03*
X15355000Y-20547400D03*
X15355000Y-21055400D03*
X15355000Y-21538000D03*
X15355000Y-22046000D03*
X15355000Y-22554000D03*
X15355000Y-23062000D03*
X15355000Y-23544600D03*
X15355000Y-24052600D03*
X15355000Y-24560600D03*
X15355000Y-25043200D03*
X15355000Y-25551200D03*
D10*
G36*
X14895035Y-25904804D02*
X15809645Y-25908842D01*
X15814616Y-26193599D01*
X14900704Y-26229555D01*
X14895035Y-25904804D01*
X14895035Y-25904804D01*
G37*
G36*
X16191158Y-26290355D02*
X16195196Y-27204965D01*
X15870445Y-27199296D01*
X15906401Y-26285384D01*
X16191158Y-26290355D01*
X16191158Y-26290355D01*
G37*
D13*
X16548800Y-26745000D03*
X17056800Y-26745000D03*
X17539400Y-26745000D03*
X18047400Y-26745000D03*
X18555400Y-26745000D03*
X19038000Y-26745000D03*
X19546000Y-26745000D03*
X20054000Y-26745000D03*
X20562000Y-26745000D03*
X21044600Y-26745000D03*
X21552600Y-26745000D03*
X22060600Y-26745000D03*
X22543200Y-26745000D03*
X23051200Y-26745000D03*
D10*
G36*
X23693599Y-26285384D02*
X23729555Y-27199296D01*
X23404804Y-27204965D01*
X23408842Y-26290355D01*
X23693599Y-26285384D01*
X23693599Y-26285384D01*
G37*
G36*
X23790355Y-25908842D02*
X24704965Y-25904804D01*
X24699296Y-26229555D01*
X23785384Y-26193599D01*
X23790355Y-25908842D01*
X23790355Y-25908842D01*
G37*
D12*
X24245000Y-25551200D03*
X24245000Y-25043200D03*
X24245000Y-24560600D03*
X24245000Y-24052600D03*
X24245000Y-23544600D03*
X24245000Y-23062000D03*
X24245000Y-22554000D03*
X24245000Y-22046000D03*
X24245000Y-21538000D03*
X24245000Y-21055400D03*
X24245000Y-20547400D03*
X24245000Y-20039400D03*
X24245000Y-19556800D03*
X24245000Y-19048800D03*
D10*
G36*
X23785384Y-18406401D02*
X24699296Y-18370445D01*
X24704965Y-18695196D01*
X23790355Y-18691158D01*
X23785384Y-18406401D01*
X23785384Y-18406401D01*
G37*
G36*
X23729555Y-17400704D02*
X23693599Y-18314616D01*
X23408842Y-18309645D01*
X23404804Y-17395035D01*
X23729555Y-17400704D01*
X23729555Y-17400704D01*
G37*
D13*
X23051200Y-17855000D03*
X22543200Y-17855000D03*
X22060600Y-17855000D03*
X21552600Y-17855000D03*
X21044600Y-17855000D03*
X20562000Y-17855000D03*
X20054000Y-17855000D03*
X19546000Y-17855000D03*
X19038000Y-17855000D03*
X18555400Y-17855000D03*
X18047400Y-17855000D03*
X17539400Y-17855000D03*
X17056800Y-17855000D03*
X16548800Y-17855000D03*
D10*
G36*
X16195196Y-17395035D02*
X16191158Y-18309645D01*
X15906401Y-18314616D01*
X15870445Y-17400704D01*
X16195196Y-17395035D01*
X16195196Y-17395035D01*
G37*
D14*
X19800000Y-22300000D03*
D15*
X26747500Y-20600000D03*
X28652500Y-20600000D03*
D10*
G36*
X25593914Y-26318258D02*
X26581742Y-27306086D01*
X25953124Y-27934704D01*
X24965296Y-26946876D01*
X25593914Y-26318258D01*
X25593914Y-26318258D01*
G37*
G36*
X24246876Y-27665296D02*
X25234704Y-28653124D01*
X24606086Y-29281742D01*
X23618258Y-28293914D01*
X24246876Y-27665296D01*
X24246876Y-27665296D01*
G37*
G36*
X28287828Y-27675331D02*
X29724669Y-29112172D01*
X28647038Y-30189803D01*
X27210197Y-28752962D01*
X28287828Y-27675331D01*
X28287828Y-27675331D01*
G37*
G36*
X25952962Y-30010197D02*
X27389803Y-31447038D01*
X26312172Y-32524669D01*
X24875331Y-31087828D01*
X25952962Y-30010197D01*
X25952962Y-30010197D01*
G37*
D16*
X24640000Y-9850000D03*
X19560000Y-9850000D03*
X19560000Y-14050000D03*
X24640000Y-14050000D03*
D15*
X28652500Y-22450000D03*
X26747500Y-22450000D03*
D17*
X3500000Y-12567500D03*
X11500000Y-12567500D03*
X3500000Y-13202500D03*
X11500000Y-13202500D03*
X3500000Y-13837500D03*
X11500000Y-13837500D03*
X3500000Y-14472500D03*
X11500000Y-14472500D03*
X3500000Y-15107500D03*
X11500000Y-15107500D03*
X3500000Y-15742500D03*
X11500000Y-15742500D03*
X3500000Y-16377500D03*
X11500000Y-16377500D03*
X3500000Y-17012500D03*
X11500000Y-17012500D03*
X3500000Y-17647500D03*
X11500000Y-17647500D03*
X3500000Y-18282500D03*
X11500000Y-18282500D03*
X3500000Y-18917500D03*
X11500000Y-18917500D03*
X3500000Y-19552500D03*
X11500000Y-19552500D03*
X3500000Y-20187500D03*
X11500000Y-20187500D03*
X3500000Y-20822500D03*
X11500000Y-20822500D03*
X3500000Y-21457500D03*
X11500000Y-21457500D03*
X3500000Y-22092500D03*
X11500000Y-22092500D03*
X3500000Y-22727500D03*
X11500000Y-22727500D03*
X3500000Y-23362500D03*
X11500000Y-23362500D03*
X3500000Y-23997500D03*
X11500000Y-23997500D03*
X3500000Y-24632500D03*
X11500000Y-24632500D03*
X3500000Y-25267500D03*
X11500000Y-25267500D03*
X3500000Y-25902500D03*
X11500000Y-25902500D03*
X3500000Y-26537500D03*
X11500000Y-26537500D03*
X3500000Y-27172500D03*
X11500000Y-27172500D03*
X3500000Y-27807500D03*
X11500000Y-27807500D03*
X3500000Y-28442500D03*
X11500000Y-28442500D03*
X3500000Y-29077500D03*
X11500000Y-29077500D03*
X3500000Y-29712500D03*
X11500000Y-29712500D03*
X3500000Y-30347500D03*
X11500000Y-30347500D03*
X3500000Y-30982500D03*
X11500000Y-30982500D03*
X3500000Y-31617500D03*
X11500000Y-31617500D03*
X3500000Y-32252500D03*
X11500000Y-32252500D03*
X3500000Y-32887500D03*
X11500000Y-32887500D03*
X3500000Y-33522500D03*
X11500000Y-33522500D03*
X3500000Y-34157500D03*
X11500000Y-34157500D03*
X3500000Y-34792500D03*
X11500000Y-34792500D03*
X3500000Y-35427500D03*
X11500000Y-35427500D03*
X3500000Y-36062500D03*
X11500000Y-36062500D03*
X3500000Y-36697500D03*
X11500000Y-36697500D03*
X3500000Y-37332500D03*
X11500000Y-37332500D03*
D15*
X32252500Y-25000000D03*
X30347500Y-25000000D03*
X32252500Y-23100000D03*
X30347500Y-23100000D03*
D18*
X29400000Y-39752500D03*
X29400000Y-37847500D03*
X31400000Y-39752500D03*
X31400000Y-37847500D03*
X33400000Y-39752500D03*
X33400000Y-37847500D03*
X27100000Y-39752500D03*
X27100000Y-37847500D03*
D15*
X32252500Y-16900000D03*
X30347500Y-16900000D03*
X32252500Y-19500000D03*
X30347500Y-19500000D03*
D19*
X28100000Y-42300000D03*
X35700000Y-42300000D03*
X31900000Y-42300000D03*
X39500000Y-42300000D03*
D20*
X7600000Y-46000000D03*
X7600000Y-3900000D03*
X46000000Y-3900000D03*
X46000000Y-46000000D03*
D18*
X35400000Y-39752500D03*
X35400000Y-37847500D03*
X25100000Y-39752500D03*
X25100000Y-37847500D03*
X37400000Y-39752500D03*
X37400000Y-37847500D03*
X23100000Y-39752500D03*
X23100000Y-37847500D03*
D21*
X39700000Y-39751000D03*
X39700000Y-36449000D03*
X20800000Y-39751000D03*
X20800000Y-36449000D03*
D18*
X34000000Y-17847500D03*
X34000000Y-19752500D03*
D22*
X13400000Y-16100000D03*
D18*
X27500000Y-13947500D03*
X27500000Y-15852500D03*
D23*
X18050000Y-40650000D03*
X15510000Y-40650000D03*
X15550000Y-38100000D03*
X18090000Y-38100000D03*
X16150000Y-12100000D03*
X16150000Y-9560000D03*
D22*
X13400000Y-35150000D03*
X1550000Y-22700000D03*
X1550000Y-24300000D03*
X1550000Y-25650000D03*
X1550000Y-35800000D03*
D24*
X25500000Y-47800000D03*
X22960000Y-47800000D03*
X20420000Y-47800000D03*
X17880000Y-47800000D03*
X15340000Y-47800000D03*
X12800000Y-47800000D03*
D19*
X22450000Y-43300000D03*
X24350000Y-43300000D03*
X26250000Y-43300000D03*
D24*
X40740000Y-47800000D03*
X38200000Y-47800000D03*
X35660000Y-47800000D03*
X33120000Y-47800000D03*
X30580000Y-47800000D03*
X28040000Y-47800000D03*
D22*
X47800000Y-41500000D03*
X2000000Y-2000000D03*
D19*
X26250000Y-41450000D03*
D25*
X19800000Y-22300000D03*
D26*
X30000000Y-34600000D03*
D27*
X25350000Y-25050000D03*
X25500000Y-22850000D03*
D26*
X33500000Y-34600000D03*
D27*
X25500000Y-20750000D03*
D26*
X37000000Y-36200000D03*
D27*
X19100000Y-16200000D03*
X23550000Y-14100000D03*
X4900000Y-7300000D03*
D26*
X39500000Y-9600000D03*
X27100000Y-36100000D03*
D27*
X16100000Y-15852500D03*
X15600000Y-17100000D03*
X14800000Y-27000000D03*
X5800000Y-26400000D03*
X16150000Y-14300000D03*
X1700000Y-28200000D03*
X6300000Y-24250000D03*
X1700000Y-34450000D03*
X35500000Y-5400000D03*
X41700000Y-37500000D03*
X39500000Y-5400000D03*
X1700000Y-14000000D03*
X1675000Y-20825000D03*
X1700000Y-31100000D03*
X39700000Y-35300000D03*
X22300000Y-36900000D03*
X40000000Y-22000000D03*
X40000000Y-25000000D03*
X40000000Y-28000000D03*
X40000000Y-31200000D03*
X29500000Y-21000000D03*
X16900000Y-19400000D03*
X19100000Y-19400000D03*
X21400000Y-19400000D03*
X22900000Y-19400000D03*
X16900000Y-25200000D03*
X19100000Y-25200000D03*
X21400000Y-25200000D03*
X22900000Y-25200000D03*
X22900000Y-23500000D03*
X22900000Y-21300000D03*
X16900000Y-21300000D03*
X16900000Y-23500000D03*
X26200000Y-28900000D03*
X19600000Y-12200000D03*
X28050000Y-25650000D03*
X23550000Y-9900000D03*
X9600000Y-20800000D03*
X9700000Y-31000000D03*
X9500000Y-26100000D03*
X14000000Y-45800000D03*
D26*
X41500000Y-10500000D03*
X29700000Y-42300000D03*
D27*
X26000000Y-26300000D03*
X23600000Y-28700000D03*
D26*
X3500000Y-38600000D03*
D27*
X16600000Y-45500000D03*
X19150000Y-45500000D03*
X21650000Y-45500000D03*
X7100000Y-25300000D03*
X8900000Y-28900000D03*
X15450000Y-35450000D03*
X5200000Y-35500000D03*
X13700000Y-27000000D03*
D26*
X1900000Y-42400000D03*
X2650000Y-8700000D03*
X41550000Y-19700000D03*
D27*
X16050000Y-27900000D03*
D26*
X2800000Y-11500000D03*
X11500000Y-11200000D03*
D27*
X1700000Y-26900000D03*
X6600000Y-28300000D03*
X1700000Y-29700000D03*
X5400000Y-30900000D03*
X3500000Y-40750000D03*
D28*
X29400000Y-37847500D02*
X29400000Y-35200000D01*
X29400000Y-35200000D02*
X30000000Y-34600000D01*
D29*
X25343200Y-25043200D02*
X25350000Y-25050000D01*
X25154000Y-22554000D02*
X25500000Y-22850000D01*
X24245000Y-22554000D02*
X25154000Y-22554000D01*
X25343200Y-25043200D02*
X25350000Y-25050000D01*
X24245000Y-25043200D02*
X25343200Y-25043200D01*
D28*
X31400000Y-37847500D02*
X31400000Y-35800000D01*
X32600000Y-34600000D02*
X33500000Y-34600000D01*
X31400000Y-35800000D02*
X32600000Y-34600000D01*
D29*
X25194600Y-21055400D02*
X25500000Y-20750000D01*
X24245000Y-21055400D02*
X25194600Y-21055400D01*
D28*
X33400000Y-37847500D02*
X33400000Y-36600000D01*
X33800000Y-36200000D02*
X37000000Y-36200000D01*
X33400000Y-36600000D02*
X33800000Y-36200000D01*
D29*
X19038000Y-16262000D02*
X19100000Y-16200000D01*
X19038000Y-16262000D02*
X19100000Y-16200000D01*
X19038000Y-17855000D02*
X19038000Y-16262000D01*
X23600000Y-14050000D02*
X23550000Y-14100000D01*
X24640000Y-14050000D02*
X23600000Y-14050000D01*
X2102500Y-13202500D02*
X1500000Y-12600000D01*
X1500000Y-12600000D02*
X1500000Y-7600000D01*
X1500000Y-7600000D02*
X1800000Y-7300000D01*
X4900000Y-7300000D02*
X1800000Y-7300000D01*
X2102500Y-13202500D02*
X3500000Y-13202500D01*
D28*
X27100000Y-37847500D02*
X27100000Y-36100000D01*
D29*
X18047400Y-16947400D02*
X17800000Y-16700000D01*
X16947500Y-16700000D02*
X17800000Y-16700000D01*
X16947500Y-16700000D02*
X16100000Y-15852500D01*
X18047400Y-17855000D02*
X18047400Y-16947400D01*
X16040800Y-17540800D02*
X15600000Y-17100000D01*
X16040800Y-17855000D02*
X16040800Y-17540800D01*
X15055000Y-26745000D02*
X14800000Y-27000000D01*
X16040800Y-26745000D02*
X15055000Y-26745000D01*
X3500000Y-27807500D02*
X2092500Y-27807500D01*
X2092500Y-27807500D02*
X1700000Y-28200000D01*
X6047500Y-23997500D02*
X3500000Y-23997500D01*
X6300000Y-24250000D02*
X6047500Y-23997500D01*
X3500000Y-34792500D02*
X2042500Y-34792500D01*
X2042500Y-34792500D02*
X1700000Y-34450000D01*
X24245000Y-19048800D02*
X23051200Y-19048800D01*
X23051200Y-19048800D02*
X19800000Y-22300000D01*
D30*
X42300000Y-28200000D02*
X40200000Y-28200000D01*
X40200000Y-28200000D02*
X40000000Y-28000000D01*
X42300000Y-25200000D02*
X40200000Y-25200000D01*
X40200000Y-25200000D02*
X40000000Y-25000000D01*
X42300000Y-22200000D02*
X40200000Y-22200000D01*
X40200000Y-22200000D02*
X40000000Y-22000000D01*
D29*
X3500000Y-13837500D02*
X1862500Y-13837500D01*
X1862500Y-13837500D02*
X1700000Y-14000000D01*
X1677500Y-20822500D02*
X1675000Y-20825000D01*
X3500000Y-20822500D02*
X1677500Y-20822500D01*
X1817500Y-30982500D02*
X3500000Y-30982500D01*
X1817500Y-30982500D02*
X1700000Y-31100000D01*
D30*
X39700000Y-36449000D02*
X39700000Y-35300000D01*
X22326250Y-37073750D02*
X22326250Y-36926250D01*
X22326250Y-36926250D02*
X22300000Y-36900000D01*
X35400000Y-37847500D02*
X37400000Y-37847500D01*
X37400000Y-37847500D02*
X38798500Y-36449000D01*
X38798500Y-36449000D02*
X39700000Y-36449000D01*
X25100000Y-37847500D02*
X23100000Y-37847500D01*
X23100000Y-37847500D02*
X22326250Y-37073750D01*
X22326250Y-37073750D02*
X21701500Y-36449000D01*
X21701500Y-36449000D02*
X20800000Y-36449000D01*
D29*
X40200000Y-22200000D02*
X40000000Y-22000000D01*
X40200000Y-25200000D02*
X40000000Y-25000000D01*
X40200000Y-28200000D02*
X40000000Y-28000000D01*
D30*
X40000000Y-31200000D02*
X42300000Y-31200000D01*
D29*
X29100000Y-20600000D02*
X29500000Y-21000000D01*
X29100000Y-20600000D02*
X28652500Y-20600000D01*
X21552600Y-17855000D02*
X21552600Y-20547400D01*
X21552600Y-20547400D02*
X19800000Y-22300000D01*
X21044600Y-17855000D02*
X21044600Y-21055400D01*
X21044600Y-21055400D02*
X19800000Y-22300000D01*
X17056800Y-17855000D02*
X17056800Y-19556800D01*
X17056800Y-19556800D02*
X19800000Y-22300000D01*
X9800000Y-27500000D02*
X9800000Y-30750000D01*
X16900000Y-19400000D02*
X19800000Y-22300000D01*
X19100000Y-19400000D02*
X19800000Y-20100000D01*
X19800000Y-20100000D02*
X19800000Y-22300000D01*
X21400000Y-19400000D02*
X19800000Y-21000000D01*
X19800000Y-21000000D02*
X19800000Y-22300000D01*
X20000000Y-22300000D02*
X19800000Y-22300000D01*
X22900000Y-19400000D02*
X20000000Y-22300000D01*
X16900000Y-25200000D02*
X19800000Y-22300000D01*
X19100000Y-25200000D02*
X19800000Y-24500000D01*
X19800000Y-24500000D02*
X19800000Y-22300000D01*
X21400000Y-25200000D02*
X19800000Y-23600000D01*
X19800000Y-23600000D02*
X19800000Y-22300000D01*
X20000000Y-22300000D02*
X19800000Y-22300000D01*
X22900000Y-25200000D02*
X20000000Y-22300000D01*
X20200000Y-22300000D02*
X19800000Y-22300000D01*
X21700000Y-22300000D02*
X19800000Y-22300000D01*
X22900000Y-23500000D02*
X21700000Y-22300000D01*
X21900000Y-22300000D02*
X19800000Y-22300000D01*
X22900000Y-21300000D02*
X21900000Y-22300000D01*
X20400000Y-22300000D02*
X19800000Y-22300000D01*
X19800000Y-22000000D02*
X19800000Y-22300000D01*
X17900000Y-22300000D02*
X19800000Y-22300000D01*
X16900000Y-21300000D02*
X17900000Y-22300000D01*
X19800000Y-22800000D02*
X19800000Y-22300000D01*
X18100000Y-22300000D02*
X19800000Y-22300000D01*
X16900000Y-23500000D02*
X18100000Y-22300000D01*
X16548800Y-19048800D02*
X19800000Y-22300000D01*
X16548800Y-17855000D02*
X16548800Y-19048800D01*
X18555400Y-21055400D02*
X19800000Y-22300000D01*
X20562000Y-21538000D02*
X19800000Y-22300000D01*
X23100000Y-19000000D02*
X19800000Y-22300000D01*
X24245000Y-19048800D02*
X24196200Y-19000000D01*
X24245000Y-18540800D02*
X24245000Y-19048800D01*
X21552600Y-20547400D02*
X19800000Y-22300000D01*
X24245000Y-20547400D02*
X21552600Y-20547400D01*
X20562000Y-23062000D02*
X19800000Y-22300000D01*
X23051200Y-25551200D02*
X19800000Y-22300000D01*
X23051200Y-25551200D02*
X19800000Y-22300000D01*
X23051200Y-26745000D02*
X23051200Y-25551200D01*
X16548800Y-25551200D02*
X19800000Y-22300000D01*
X16548800Y-26745000D02*
X16548800Y-25551200D01*
X19560000Y-12160000D02*
X19600000Y-12200000D01*
X19600000Y-9890000D02*
X19560000Y-9850000D01*
X19600000Y-12200000D02*
X19600000Y-9890000D01*
X23600000Y-9850000D02*
X23550000Y-9900000D01*
X24640000Y-9850000D02*
X23600000Y-9850000D01*
X23051200Y-25551200D02*
X19800000Y-22300000D01*
X24245000Y-25551200D02*
X23051200Y-25551200D01*
X20562000Y-23062000D02*
X19800000Y-22300000D01*
X24245000Y-23062000D02*
X20562000Y-23062000D01*
X20562000Y-21538000D02*
X19800000Y-22300000D01*
X20562000Y-17855000D02*
X20562000Y-21538000D01*
X18555400Y-21055400D02*
X19800000Y-22300000D01*
X18555400Y-17855000D02*
X18555400Y-21055400D01*
X22060600Y-24560600D02*
X19800000Y-22300000D01*
X24245000Y-24560600D02*
X22060600Y-24560600D01*
X9622500Y-20822500D02*
X9600000Y-20800000D01*
X11500000Y-20822500D02*
X9622500Y-20822500D01*
X9700000Y-30800000D02*
X9800000Y-30700000D01*
X9800000Y-30700000D02*
X9700000Y-31000000D01*
X11500000Y-30982500D02*
X9717500Y-30982500D01*
X9717500Y-30982500D02*
X9700000Y-31000000D01*
X9700000Y-31000000D02*
X9700000Y-30800000D01*
X9800000Y-26400000D02*
X9500000Y-26100000D01*
X9800000Y-27172500D02*
X9800000Y-26400000D01*
X9800000Y-27500000D02*
X9800000Y-27172500D01*
X10127500Y-27172500D02*
X11500000Y-27172500D01*
X9800000Y-27172500D02*
X10127500Y-27172500D01*
X28652500Y-20600000D02*
X28652500Y-22450000D01*
D30*
X28100000Y-42300000D02*
X27700000Y-42300000D01*
D28*
X27250000Y-41450000D02*
X28100000Y-42300000D01*
X26250000Y-41450000D02*
X27250000Y-41450000D01*
X29700000Y-42300000D02*
X28100000Y-42300000D01*
D29*
X26000000Y-26900000D02*
X25773519Y-27126481D01*
X26000000Y-26300000D02*
X26000000Y-26900000D01*
X26000000Y-26465134D02*
X28467433Y-28932567D01*
X25759200Y-26059200D02*
X26000000Y-26300000D01*
X26000000Y-26300000D02*
X26000000Y-26465134D01*
X24245000Y-26059200D02*
X25759200Y-26059200D01*
X23559200Y-28659200D02*
X23600000Y-28700000D01*
X23600000Y-28700000D02*
X23600000Y-28734866D01*
X23559200Y-26745000D02*
X23559200Y-28659200D01*
X24200000Y-28700000D02*
X24426481Y-28473519D01*
X23600000Y-28700000D02*
X24200000Y-28700000D01*
X23600000Y-28734866D02*
X26132567Y-31267433D01*
D30*
X15550000Y-38100000D02*
X13200000Y-38100000D01*
X13200000Y-38100000D02*
X12432500Y-37332500D01*
X11500000Y-37332500D02*
X12432500Y-37332500D01*
X3500000Y-37332500D02*
X3500000Y-38600000D01*
D29*
X3317500Y-37332500D02*
X3500000Y-37332500D01*
D30*
X3500000Y-37332500D02*
X3832500Y-37332500D01*
X11500000Y-37332500D02*
X11167500Y-37332500D01*
D29*
X22060600Y-29439400D02*
X22060600Y-29739400D01*
X11500000Y-34157500D02*
X17342500Y-34157500D01*
X22060600Y-29439400D02*
X22060600Y-26745000D01*
X17642500Y-34157500D02*
X17342500Y-34157500D01*
X22060600Y-29739400D02*
X17642500Y-34157500D01*
X5800000Y-42300000D02*
X9150000Y-42300000D01*
X4650000Y-41150000D02*
X5800000Y-42300000D01*
X5000000Y-36900000D02*
X5000000Y-37600000D01*
X5257500Y-34157500D02*
X6100000Y-35000000D01*
X6100000Y-35000000D02*
X6100000Y-35800000D01*
X6100000Y-35800000D02*
X5000000Y-36900000D01*
X3500000Y-34157500D02*
X5257500Y-34157500D01*
X4650000Y-37950000D02*
X4650000Y-40750000D01*
X5000000Y-37600000D02*
X4650000Y-37950000D01*
X4650000Y-40750000D02*
X4650000Y-41150000D01*
X12800000Y-45950000D02*
X9150000Y-42300000D01*
X12800000Y-47800000D02*
X12800000Y-45950000D01*
X21552600Y-29500000D02*
X21552600Y-29547400D01*
X21552600Y-29547400D02*
X17577500Y-33522500D01*
X17577500Y-33522500D02*
X17000000Y-33522500D01*
X21552600Y-29097400D02*
X21552600Y-29500000D01*
X21552600Y-26745000D02*
X21552600Y-29097400D01*
X17127500Y-33522500D02*
X17000000Y-33522500D01*
X17000000Y-33522500D02*
X11500000Y-33522500D01*
X14500000Y-45050000D02*
X15340000Y-45890000D01*
X15340000Y-45890000D02*
X15340000Y-47800000D01*
X5150000Y-40900000D02*
X6050000Y-41800000D01*
X5500000Y-37100000D02*
X5500000Y-37850000D01*
X5372500Y-33522500D02*
X6600000Y-34750000D01*
X6600000Y-34750000D02*
X6600000Y-36000000D01*
X6600000Y-36000000D02*
X5500000Y-37100000D01*
X3500000Y-33522500D02*
X5372500Y-33522500D01*
X5150000Y-38200000D02*
X5150000Y-40750000D01*
X5500000Y-37850000D02*
X5150000Y-38200000D01*
X5150000Y-40750000D02*
X5150000Y-40900000D01*
X6050000Y-41800000D02*
X9400000Y-41800000D01*
X9400000Y-41800000D02*
X12650000Y-45050000D01*
X12650000Y-45050000D02*
X14500000Y-45050000D01*
X21044600Y-28800000D02*
X21044600Y-29355400D01*
X16962500Y-32887500D02*
X11500000Y-32887500D01*
X17512500Y-32887500D02*
X16962500Y-32887500D01*
X21044600Y-29355400D02*
X17512500Y-32887500D01*
X21044600Y-26745000D02*
X21044600Y-28800000D01*
X21044600Y-28800000D02*
X21044600Y-28805400D01*
X11512500Y-32900000D02*
X11500000Y-32887500D01*
X15650000Y-44550000D02*
X16600000Y-45500000D01*
X9650000Y-41300000D02*
X12900000Y-44550000D01*
X5650000Y-38450000D02*
X5650000Y-40650000D01*
X6300000Y-41300000D02*
X8300000Y-41300000D01*
X5650000Y-40650000D02*
X6300000Y-41300000D01*
X8300000Y-41300000D02*
X9650000Y-41300000D01*
X14300000Y-44550000D02*
X12900000Y-44550000D01*
X6000000Y-38100000D02*
X5650000Y-38450000D01*
X7100000Y-36250000D02*
X7100000Y-34500000D01*
X7100000Y-36250000D02*
X6000000Y-37350000D01*
X3500000Y-32887500D02*
X5287500Y-32887500D01*
X5487500Y-32887500D02*
X5287500Y-32887500D01*
X7100000Y-34500000D02*
X5487500Y-32887500D01*
X6000000Y-37350000D02*
X6000000Y-38100000D01*
X14300000Y-44550000D02*
X15650000Y-44550000D01*
X20562000Y-28488000D02*
X20562000Y-29138000D01*
X11500000Y-32252500D02*
X16797500Y-32252500D01*
X20562000Y-28488000D02*
X20562000Y-26745000D01*
X17447500Y-32252500D02*
X16797500Y-32252500D01*
X20562000Y-29138000D02*
X17447500Y-32252500D01*
X16650000Y-44050000D02*
X17880000Y-45280000D01*
X17880000Y-45280000D02*
X17880000Y-47800000D01*
X9900000Y-40800000D02*
X13150000Y-44050000D01*
X6550000Y-40800000D02*
X7750000Y-40800000D01*
X7750000Y-40800000D02*
X9900000Y-40800000D01*
X13150000Y-44050000D02*
X15000000Y-44050000D01*
X6150000Y-38700000D02*
X6150000Y-40400000D01*
X6500000Y-38350000D02*
X6150000Y-38700000D01*
X7600000Y-36500000D02*
X7600000Y-34250000D01*
X6500000Y-37600000D02*
X7600000Y-36500000D01*
X3500000Y-32252500D02*
X5602500Y-32252500D01*
X7600000Y-34250000D02*
X5602500Y-32252500D01*
X6500000Y-37600000D02*
X6500000Y-38350000D01*
X6150000Y-40400000D02*
X6550000Y-40800000D01*
X15000000Y-44050000D02*
X16650000Y-44050000D01*
X20054000Y-28246000D02*
X20054000Y-28946000D01*
X11500000Y-31617500D02*
X16682500Y-31617500D01*
X20054000Y-28246000D02*
X20054000Y-26745000D01*
X17382500Y-31617500D02*
X16682500Y-31617500D01*
X20054000Y-28946000D02*
X17382500Y-31617500D01*
X11517500Y-31600000D02*
X11500000Y-31617500D01*
X8300000Y-34200000D02*
X5850000Y-31750000D01*
X4817500Y-31617500D02*
X3500000Y-31617500D01*
X4817500Y-31617500D02*
X4950000Y-31750000D01*
X4950000Y-31750000D02*
X5850000Y-31750000D01*
X8300000Y-34200000D02*
X8300000Y-36650000D01*
X8600000Y-37950000D02*
X8600000Y-38750000D01*
X8300000Y-37650000D02*
X8600000Y-37950000D01*
X8300000Y-36650000D02*
X8300000Y-37650000D01*
X10150000Y-40300000D02*
X8600000Y-38750000D01*
X10150000Y-40300000D02*
X10150000Y-40300000D01*
X17200000Y-43550000D02*
X19150000Y-45500000D01*
X10150000Y-40300000D02*
X13400000Y-43550000D01*
X16200000Y-43550000D02*
X13400000Y-43550000D01*
X16200000Y-43550000D02*
X17200000Y-43550000D01*
X19546000Y-26745000D02*
X19546000Y-28554000D01*
X14047500Y-30347500D02*
X11500000Y-30347500D01*
X14400000Y-30700000D02*
X14047500Y-30347500D01*
X17400000Y-30700000D02*
X14400000Y-30700000D01*
X19546000Y-28554000D02*
X17400000Y-30700000D01*
X19038000Y-26745000D02*
X19038000Y-28362000D01*
X14112500Y-29712500D02*
X11500000Y-29712500D01*
X14600000Y-30200000D02*
X14112500Y-29712500D01*
X17200000Y-30200000D02*
X14600000Y-30200000D01*
X19038000Y-28362000D02*
X17200000Y-30200000D01*
X18555400Y-26745000D02*
X18555400Y-28144600D01*
X14177500Y-29077500D02*
X11500000Y-29077500D01*
X14800000Y-29700000D02*
X14177500Y-29077500D01*
X17000000Y-29700000D02*
X14800000Y-29700000D01*
X18555400Y-28144600D02*
X17000000Y-29700000D01*
X6300000Y-31450000D02*
X6300000Y-30500000D01*
X3500000Y-29077500D02*
X4877500Y-29077500D01*
X4877500Y-29077500D02*
X6300000Y-30500000D01*
X10400000Y-39800000D02*
X10400000Y-39800000D01*
X9100000Y-38500000D02*
X10400000Y-39800000D01*
X9100000Y-37700000D02*
X9100000Y-38500000D01*
X8800000Y-37400000D02*
X9100000Y-37700000D01*
X8800000Y-36650000D02*
X8800000Y-33950000D01*
X8800000Y-33950000D02*
X6300000Y-31450000D01*
X8800000Y-36650000D02*
X8800000Y-37400000D01*
X13650000Y-43050000D02*
X10400000Y-39800000D01*
X18050000Y-43050000D02*
X13650000Y-43050000D01*
X20420000Y-45420000D02*
X18050000Y-43050000D01*
X20420000Y-47800000D02*
X20420000Y-45420000D01*
X18047400Y-26745000D02*
X18047400Y-27952600D01*
X14242500Y-28442500D02*
X11500000Y-28442500D01*
X15000000Y-29200000D02*
X14242500Y-28442500D01*
X16800000Y-29200000D02*
X15000000Y-29200000D01*
X18047400Y-27952600D02*
X16800000Y-29200000D01*
X22543200Y-30000000D02*
X22543200Y-30006800D01*
X22543200Y-30006800D02*
X17650000Y-34900000D01*
X13700000Y-36697500D02*
X15852500Y-36697500D01*
X17650000Y-34900000D02*
X17650000Y-34900000D01*
X15852500Y-36697500D02*
X17650000Y-34900000D01*
X13700000Y-36697500D02*
X11500000Y-36697500D01*
X22543200Y-26745000D02*
X22543200Y-30000000D01*
X22543200Y-30000000D02*
X22543200Y-30006800D01*
X18700000Y-42550000D02*
X21650000Y-45500000D01*
X18600000Y-42550000D02*
X16200000Y-42550000D01*
X11200000Y-39850000D02*
X13900000Y-42550000D01*
X9600000Y-38250000D02*
X11200000Y-39850000D01*
X9300000Y-36650000D02*
X9300000Y-36950000D01*
X3500000Y-28442500D02*
X5142500Y-28442500D01*
X6800000Y-30100000D02*
X6800000Y-30900000D01*
X5142500Y-28442500D02*
X6800000Y-30100000D01*
X6800000Y-30900000D02*
X6800000Y-31200000D01*
X9300000Y-36650000D02*
X9300000Y-33700000D01*
X9300000Y-33700000D02*
X6800000Y-31200000D01*
X9300000Y-36950000D02*
X9600000Y-37250000D01*
X9600000Y-37250000D02*
X9600000Y-38250000D01*
X13900000Y-42550000D02*
X16200000Y-42550000D01*
X18600000Y-42550000D02*
X18700000Y-42550000D01*
X17539400Y-26745000D02*
X17539400Y-27760600D01*
X14307500Y-27807500D02*
X11500000Y-27807500D01*
X15200000Y-28700000D02*
X14307500Y-27807500D01*
X16600000Y-28700000D02*
X15200000Y-28700000D01*
X17539400Y-27760600D02*
X16600000Y-28700000D01*
X13062500Y-26537500D02*
X14048800Y-25551200D01*
X14048800Y-25551200D02*
X15355000Y-25551200D01*
X11500000Y-26537500D02*
X13062500Y-26537500D01*
X12997500Y-25902500D02*
X13856800Y-25043200D01*
X13856800Y-25043200D02*
X15355000Y-25043200D01*
X11500000Y-25902500D02*
X12997500Y-25902500D01*
X3500000Y-25902500D02*
X1802500Y-25902500D01*
X1802500Y-25902500D02*
X1550000Y-25650000D01*
X12957500Y-25267500D02*
X13664400Y-24560600D01*
X13664400Y-24560600D02*
X15355000Y-24560600D01*
X11500000Y-25267500D02*
X12957500Y-25267500D01*
X3500000Y-25267500D02*
X7067500Y-25267500D01*
X7067500Y-25267500D02*
X7100000Y-25300000D01*
X12917500Y-24632500D02*
X13497400Y-24052600D01*
X13497400Y-24052600D02*
X15355000Y-24052600D01*
X11500000Y-24632500D02*
X12917500Y-24632500D01*
X3500000Y-24632500D02*
X1882500Y-24632500D01*
X1882500Y-24632500D02*
X1550000Y-24300000D01*
X12877500Y-23997500D02*
X13330400Y-23544600D01*
X13330400Y-23544600D02*
X15355000Y-23544600D01*
X11500000Y-23997500D02*
X12877500Y-23997500D01*
X12812500Y-23362500D02*
X13113000Y-23062000D01*
X13113000Y-23062000D02*
X15355000Y-23062000D01*
X11500000Y-23362500D02*
X12812500Y-23362500D01*
X8200000Y-26300000D02*
X8200000Y-24850000D01*
X3500000Y-23362500D02*
X5262500Y-23362500D01*
X8200000Y-26300000D02*
X8200000Y-28200000D01*
X8200000Y-28200000D02*
X8900000Y-28900000D01*
X6712500Y-23362500D02*
X5262500Y-23362500D01*
X8200000Y-24850000D02*
X6712500Y-23362500D01*
X12797500Y-22727500D02*
X12971000Y-22554000D01*
X12971000Y-22554000D02*
X15355000Y-22554000D01*
X11500000Y-22727500D02*
X12797500Y-22727500D01*
X3500000Y-22727500D02*
X1577500Y-22727500D01*
X1577500Y-22727500D02*
X1550000Y-22700000D01*
X12807500Y-22092500D02*
X12854000Y-22046000D01*
X12854000Y-22046000D02*
X15355000Y-22046000D01*
X11500000Y-22092500D02*
X12807500Y-22092500D01*
X11500000Y-36062500D02*
X14837500Y-36062500D01*
X14837500Y-36062500D02*
X15450000Y-35450000D01*
X13632500Y-21457500D02*
X13713000Y-21538000D01*
X13713000Y-21538000D02*
X15355000Y-21538000D01*
X11500000Y-21457500D02*
X13632500Y-21457500D01*
X13037500Y-20187500D02*
X13905400Y-21055400D01*
X13905400Y-21055400D02*
X15355000Y-21055400D01*
X11500000Y-20187500D02*
X13037500Y-20187500D01*
X13077500Y-19552500D02*
X14072400Y-20547400D01*
X14072400Y-20547400D02*
X15355000Y-20547400D01*
X11500000Y-19552500D02*
X13077500Y-19552500D01*
X13117500Y-18917500D02*
X14239400Y-20039400D01*
X14239400Y-20039400D02*
X15355000Y-20039400D01*
X11500000Y-18917500D02*
X13117500Y-18917500D01*
X3500000Y-36062500D02*
X4637500Y-36062500D01*
X4637500Y-36062500D02*
X5200000Y-35500000D01*
X15355000Y-26059200D02*
X14640800Y-26059200D01*
X14640800Y-26059200D02*
X13700000Y-27000000D01*
X13157500Y-18282500D02*
X14431800Y-19556800D01*
X14431800Y-19556800D02*
X15355000Y-19556800D01*
X11500000Y-18282500D02*
X13157500Y-18282500D01*
X13222500Y-17647500D02*
X14623800Y-19048800D01*
X14623800Y-19048800D02*
X15355000Y-19048800D01*
X11500000Y-17647500D02*
X13222500Y-17647500D01*
X13262500Y-17012500D02*
X14790800Y-18540800D01*
X14790800Y-18540800D02*
X15355000Y-18540800D01*
X11500000Y-17012500D02*
X13262500Y-17012500D01*
X11500000Y-16377500D02*
X13122500Y-16377500D01*
X13122500Y-16377500D02*
X13400000Y-16100000D01*
X11500000Y-35427500D02*
X13122500Y-35427500D01*
X13122500Y-35427500D02*
X13400000Y-35150000D01*
X3500000Y-35427500D02*
X1922500Y-35427500D01*
X1922500Y-35427500D02*
X1550000Y-35800000D01*
X14150000Y-42050000D02*
X17000000Y-42050000D01*
X10100000Y-36900000D02*
X10100000Y-38000000D01*
X9800000Y-36600000D02*
X10100000Y-36900000D01*
X10307500Y-34792500D02*
X11500000Y-34792500D01*
X10307500Y-34792500D02*
X9800000Y-35300000D01*
X9800000Y-35300000D02*
X9800000Y-36600000D01*
X10100000Y-38000000D02*
X10950000Y-38850000D01*
X10950000Y-38850000D02*
X14150000Y-42050000D01*
X19550000Y-42050000D02*
X17000000Y-42050000D01*
X22960000Y-45460000D02*
X19550000Y-42050000D01*
X22960000Y-47800000D02*
X22960000Y-45460000D01*
D28*
X20401000Y-39751000D02*
X18750000Y-38100000D01*
X18750000Y-38100000D02*
X18090000Y-38100000D01*
X20800000Y-39751000D02*
X20401000Y-39751000D01*
X25100000Y-39752500D02*
X27100000Y-39752500D01*
X25100000Y-39752500D02*
X23100000Y-39752500D01*
X23100000Y-39752500D02*
X23098500Y-39751000D01*
X23098500Y-39751000D02*
X20800000Y-39751000D01*
X24300000Y-39752500D02*
X27100000Y-39752500D01*
X23098500Y-39751000D02*
X23100000Y-39752500D01*
X27100000Y-39752500D02*
X29400000Y-39752500D01*
X29400000Y-39752500D02*
X31400000Y-39752500D01*
X31400000Y-39752500D02*
X33400000Y-39752500D01*
X33400000Y-39752500D02*
X35400000Y-39752500D01*
X35400000Y-39752500D02*
X37400000Y-39752500D01*
X37400000Y-39752500D02*
X37401500Y-39751000D01*
X37401500Y-39751000D02*
X39700000Y-39751000D01*
X35700000Y-40052500D02*
X35400000Y-39752500D01*
X35700000Y-42300000D02*
X35700000Y-40052500D01*
X33120000Y-44880000D02*
X35700000Y-42300000D01*
X33120000Y-47800000D02*
X33120000Y-44880000D01*
X35660000Y-42340000D02*
X35700000Y-42300000D01*
X35660000Y-47800000D02*
X35660000Y-42340000D01*
X30580000Y-43620000D02*
X31900000Y-42300000D01*
X28040000Y-46160000D02*
X30580000Y-43620000D01*
X28040000Y-47800000D02*
X28040000Y-46160000D01*
X30580000Y-47800000D02*
X30580000Y-43620000D01*
X40740000Y-47800000D02*
X40740000Y-46390000D01*
X40740000Y-46390000D02*
X39375000Y-45025000D01*
X38200000Y-47800000D02*
X38200000Y-46200000D01*
X38200000Y-46200000D02*
X39375000Y-45025000D01*
X39375000Y-45025000D02*
X39500000Y-44900000D01*
X39500000Y-44900000D02*
X39500000Y-42300000D01*
D29*
X30347500Y-16952500D02*
X30347500Y-16800000D01*
X23814200Y-17600000D02*
X23559200Y-17855000D01*
X29800000Y-17600000D02*
X23814200Y-17600000D01*
X30347500Y-17052500D02*
X29800000Y-17600000D01*
X30347500Y-16900000D02*
X30347500Y-17052500D01*
X30147500Y-19300000D02*
X30347500Y-19500000D01*
X25160600Y-20039400D02*
X25900000Y-19300000D01*
X25160600Y-20039400D02*
X24245000Y-20039400D01*
X30147500Y-19300000D02*
X25900000Y-19300000D01*
X17056800Y-26745000D02*
X17056800Y-27443200D01*
X16600000Y-27900000D02*
X16050000Y-27900000D01*
X17056800Y-27443200D02*
X16600000Y-27900000D01*
X19950000Y-14790000D02*
X19560000Y-14400000D01*
X19950000Y-14440000D02*
X19560000Y-14050000D01*
X19546000Y-16954000D02*
X19950000Y-16550000D01*
X19546000Y-17855000D02*
X19546000Y-16954000D01*
X19950000Y-16550000D02*
X19950000Y-14440000D01*
X30347500Y-25000000D02*
X30347500Y-24847500D01*
X30347500Y-24847500D02*
X29900000Y-24400000D01*
X29900000Y-24400000D02*
X28600000Y-24400000D01*
X25000000Y-24200000D02*
X28400000Y-24200000D01*
X24245000Y-24052600D02*
X24852600Y-24052600D01*
X24852600Y-24052600D02*
X25000000Y-24200000D01*
X28400000Y-24200000D02*
X28600000Y-24400000D01*
X29550000Y-23700000D02*
X29900000Y-23700000D01*
X28700000Y-23700000D02*
X29550000Y-23700000D01*
X25044600Y-23544600D02*
X25200000Y-23700000D01*
X25200000Y-23700000D02*
X28700000Y-23700000D01*
X24245000Y-23544600D02*
X25044600Y-23544600D01*
X29900000Y-23700000D02*
X30347500Y-23252500D01*
X30347500Y-23252500D02*
X30347500Y-23100000D01*
X25909500Y-21538000D02*
X26747500Y-20700000D01*
X24245000Y-21538000D02*
X25909500Y-21538000D01*
X32252500Y-24847500D02*
X32252500Y-25000000D01*
X40300000Y-30200000D02*
X34500000Y-24400000D01*
X34500000Y-24400000D02*
X32700000Y-24400000D01*
X32700000Y-24400000D02*
X32252500Y-24847500D01*
X42300000Y-30200000D02*
X40300000Y-30200000D01*
X32252500Y-23100000D02*
X32600000Y-23100000D01*
X32252500Y-23352500D02*
X32252500Y-23100000D01*
X40000000Y-29200000D02*
X34744998Y-23944998D01*
X34744998Y-23944998D02*
X32844998Y-23944998D01*
X32844998Y-23944998D02*
X32252500Y-23352500D01*
X42300000Y-29200000D02*
X40000000Y-29200000D01*
X11500000Y-12567500D02*
X11507500Y-12567500D01*
D30*
X3500000Y-12200000D02*
X2800000Y-11500000D01*
X3500000Y-12567500D02*
X3500000Y-12200000D01*
X11500000Y-12567500D02*
X11500000Y-11200000D01*
D29*
X13050000Y-10400000D02*
X13050000Y-13500000D01*
X13550000Y-7700000D02*
X13050000Y-8200000D01*
X13050000Y-8200000D02*
X13050000Y-10400000D01*
X29800000Y-7800000D02*
X29700000Y-7700000D01*
X29700000Y-7700000D02*
X18400000Y-7700000D01*
X42300000Y-18200000D02*
X40200000Y-18200000D01*
X40200000Y-18200000D02*
X33300000Y-11300000D01*
X33300000Y-11300000D02*
X29800000Y-7800000D01*
X17700000Y-7700000D02*
X18400000Y-7700000D01*
X17700000Y-7700000D02*
X13550000Y-7700000D01*
X12712500Y-13837500D02*
X11500000Y-13837500D01*
X13050000Y-13500000D02*
X12712500Y-13837500D01*
X11500000Y-13837500D02*
X10062500Y-13837500D01*
X6942500Y-21457500D02*
X9400000Y-19000000D01*
X9400000Y-19000000D02*
X9400000Y-14500000D01*
X6942500Y-21457500D02*
X3500000Y-21457500D01*
X10062500Y-13837500D02*
X9400000Y-14500000D01*
X13600000Y-13900000D02*
X13600000Y-10200000D01*
X13800000Y-8200000D02*
X13600000Y-8400000D01*
X13600000Y-8400000D02*
X13600000Y-10200000D01*
X29300000Y-8200000D02*
X18400000Y-8200000D01*
X40200000Y-19400000D02*
X40200000Y-19100000D01*
X40200000Y-20200000D02*
X40200000Y-19400000D01*
X40200000Y-20200000D02*
X41200000Y-21200000D01*
X40200000Y-19100000D02*
X33500000Y-12400000D01*
X33500000Y-12400000D02*
X29300000Y-8200000D01*
X17900000Y-8200000D02*
X18400000Y-8200000D01*
X17900000Y-8200000D02*
X13800000Y-8200000D01*
X11500000Y-14472500D02*
X13027500Y-14472500D01*
X13027500Y-14472500D02*
X13600000Y-13900000D01*
X11500000Y-14472500D02*
X10127500Y-14472500D01*
X7107500Y-22092500D02*
X9900000Y-19300000D01*
X9900000Y-19300000D02*
X9900000Y-14900000D01*
X7107500Y-22092500D02*
X3500000Y-22092500D01*
X9900000Y-14700000D02*
X9900000Y-14900000D01*
X10127500Y-14472500D02*
X9900000Y-14700000D01*
X42300000Y-21200000D02*
X41200000Y-21200000D01*
X17300000Y-4700000D02*
X18300000Y-4700000D01*
X7500000Y-7700000D02*
X9300000Y-7700000D01*
X9300000Y-7700000D02*
X12300000Y-4700000D01*
X12300000Y-4700000D02*
X17300000Y-4700000D01*
X3500000Y-17012500D02*
X4787500Y-17012500D01*
X5000000Y-16800000D02*
X5000000Y-11800000D01*
X4787500Y-17012500D02*
X5000000Y-16800000D01*
X5000000Y-11800000D02*
X5000000Y-10300000D01*
X5000000Y-10200000D02*
X7500000Y-7700000D01*
X5000000Y-10300000D02*
X5000000Y-10200000D01*
X40200000Y-12200000D02*
X32700000Y-4700000D01*
X32700000Y-4700000D02*
X18300000Y-4700000D01*
X40200000Y-12200000D02*
X42300000Y-12200000D01*
X17300000Y-5200000D02*
X18400000Y-5200000D01*
X7800000Y-8200000D02*
X9500000Y-8200000D01*
X9500000Y-8200000D02*
X12500000Y-5200000D01*
X12500000Y-5200000D02*
X17300000Y-5200000D01*
X3500000Y-17647500D02*
X4852500Y-17647500D01*
X5500000Y-17000000D02*
X5500000Y-11800000D01*
X4852500Y-17647500D02*
X5500000Y-17000000D01*
X5500000Y-11800000D02*
X5500000Y-10800000D01*
X5500000Y-10500000D02*
X7800000Y-8200000D01*
X5500000Y-10800000D02*
X5500000Y-10500000D01*
X40200000Y-13200000D02*
X32200000Y-5200000D01*
X32200000Y-5200000D02*
X18400000Y-5200000D01*
X40200000Y-13200000D02*
X42300000Y-13200000D01*
X17300000Y-5700000D02*
X18400000Y-5700000D01*
X40200000Y-14200000D02*
X31700000Y-5700000D01*
X31700000Y-5700000D02*
X18400000Y-5700000D01*
X42300000Y-14200000D02*
X40200000Y-14200000D01*
X6000000Y-10800000D02*
X8100000Y-8700000D01*
X8100000Y-8700000D02*
X9700000Y-8700000D01*
X9700000Y-8700000D02*
X12700000Y-5700000D01*
X12700000Y-5700000D02*
X17300000Y-5700000D01*
X4917500Y-18282500D02*
X3500000Y-18282500D01*
X6000000Y-17200000D02*
X6000000Y-11800000D01*
X4917500Y-18282500D02*
X6000000Y-17200000D01*
X6000000Y-11800000D02*
X6000000Y-10800000D01*
X17300000Y-6200000D02*
X18400000Y-6200000D01*
X40200000Y-15200000D02*
X31200000Y-6200000D01*
X31200000Y-6200000D02*
X18400000Y-6200000D01*
X42300000Y-15200000D02*
X40200000Y-15200000D01*
X9000000Y-10100000D02*
X12900000Y-6200000D01*
X12900000Y-6200000D02*
X17300000Y-6200000D01*
X6500000Y-17400000D02*
X6500000Y-17300000D01*
X4982500Y-18917500D02*
X6500000Y-17400000D01*
X4982500Y-18917500D02*
X3500000Y-18917500D01*
X9000000Y-12800000D02*
X9000000Y-12600000D01*
X7900000Y-13900000D02*
X9000000Y-12800000D01*
X7900000Y-15900000D02*
X7900000Y-13900000D01*
X6500000Y-17300000D02*
X7900000Y-15900000D01*
X9000000Y-12600000D02*
X9000000Y-10100000D01*
X17300000Y-6700000D02*
X18400000Y-6700000D01*
X40200000Y-16200000D02*
X30700000Y-6700000D01*
X30700000Y-6700000D02*
X18400000Y-6700000D01*
X42300000Y-16200000D02*
X40200000Y-16200000D01*
X9500000Y-10300000D02*
X13100000Y-6700000D01*
X13100000Y-6700000D02*
X17300000Y-6700000D01*
X8400000Y-16200000D02*
X6950000Y-17650000D01*
X9500000Y-13000000D02*
X9500000Y-12600000D01*
X8400000Y-14100000D02*
X9500000Y-13000000D01*
X8400000Y-16200000D02*
X8400000Y-14100000D01*
X9500000Y-12600000D02*
X9500000Y-10300000D01*
X3500000Y-19552500D02*
X5047500Y-19552500D01*
X5047500Y-19552500D02*
X6950000Y-17650000D01*
X6950000Y-17650000D02*
X7000000Y-17600000D01*
X17300000Y-7200000D02*
X18400000Y-7200000D01*
X30200000Y-7200000D02*
X18400000Y-7200000D01*
X42300000Y-17200000D02*
X40200000Y-17200000D01*
X40200000Y-17200000D02*
X34500000Y-11500000D01*
X34500000Y-11500000D02*
X30200000Y-7200000D01*
X10000000Y-10500000D02*
X13300000Y-7200000D01*
X13300000Y-7200000D02*
X17300000Y-7200000D01*
X7500000Y-17800000D02*
X8800000Y-16500000D01*
X5112500Y-20187500D02*
X7500000Y-17800000D01*
X5112500Y-20187500D02*
X3500000Y-20187500D01*
X10000000Y-13200000D02*
X10000000Y-12600000D01*
X8900000Y-14300000D02*
X10000000Y-13200000D01*
X8900000Y-16400000D02*
X8900000Y-14300000D01*
X8800000Y-16500000D02*
X8900000Y-16400000D01*
X10000000Y-12600000D02*
X10000000Y-10500000D01*
X24943200Y-19556800D02*
X25800000Y-18700000D01*
X24245000Y-19556800D02*
X24943200Y-19556800D01*
X25800000Y-18700000D02*
X26300000Y-18200000D01*
X31100000Y-18200000D02*
X26300000Y-18200000D01*
X32252500Y-19352500D02*
X31100000Y-18200000D01*
X32252500Y-19500000D02*
X32252500Y-19352500D01*
X33747500Y-19500000D02*
X34000000Y-19752500D01*
X32252500Y-19500000D02*
X33747500Y-19500000D01*
X34352500Y-19752500D02*
X34000000Y-19752500D01*
X40300000Y-27200000D02*
X34800000Y-21700000D01*
X34800000Y-21700000D02*
X34800000Y-20200000D01*
X34800000Y-20200000D02*
X34352500Y-19752500D01*
X42300000Y-27200000D02*
X40300000Y-27200000D01*
X26400000Y-16850000D02*
X26450000Y-16850000D01*
X26000000Y-16850000D02*
X26400000Y-16850000D01*
X23051200Y-17048800D02*
X23250000Y-16850000D01*
X23250000Y-16850000D02*
X26000000Y-16850000D01*
X23051200Y-17855000D02*
X23051200Y-17048800D01*
X32252500Y-16652500D02*
X32252500Y-16900000D01*
X28350000Y-16850000D02*
X29600000Y-15600000D01*
X29600000Y-15600000D02*
X31200000Y-15600000D01*
X31200000Y-15600000D02*
X32252500Y-16652500D01*
X26400000Y-16850000D02*
X28350000Y-16850000D01*
X32947500Y-17847500D02*
X34000000Y-17847500D01*
X32252500Y-17152500D02*
X32947500Y-17847500D01*
X32252500Y-16900000D02*
X32252500Y-17152500D01*
X34352500Y-18200000D02*
X34000000Y-17847500D01*
X34700000Y-18200000D02*
X34352500Y-18200000D01*
X42300000Y-26200000D02*
X40000000Y-26200000D01*
X35255002Y-18755002D02*
X34800000Y-18300000D01*
X35255002Y-21455002D02*
X35255002Y-18755002D01*
X40000000Y-26200000D02*
X35255002Y-21455002D01*
X34800000Y-18300000D02*
X34700000Y-18200000D01*
X34500000Y-15800000D02*
X37400000Y-18700000D01*
X33102502Y-14402502D02*
X34500000Y-15800000D01*
X28050002Y-15852500D02*
X29500000Y-14402502D01*
X29500000Y-14402502D02*
X33100000Y-14402502D01*
X33100000Y-14402502D02*
X33102502Y-14402502D01*
X40300000Y-24200000D02*
X42300000Y-24200000D01*
X37400000Y-21300000D02*
X40300000Y-24200000D01*
X37400000Y-18744998D02*
X37400000Y-21300000D01*
X27500000Y-15852500D02*
X28050002Y-15852500D01*
X27102500Y-16250000D02*
X26200000Y-16250000D01*
X26000000Y-16250000D02*
X26200000Y-16250000D01*
X22543200Y-16706800D02*
X23000000Y-16250000D01*
X23000000Y-16250000D02*
X26000000Y-16250000D01*
X22543200Y-16706800D02*
X22543200Y-17855000D01*
X27102500Y-16250000D02*
X27500000Y-15852500D01*
X37900000Y-18500000D02*
X37900000Y-21100000D01*
X27500000Y-13947500D02*
X33347500Y-13947500D01*
X33347500Y-13947500D02*
X34700000Y-15300000D01*
X37900000Y-18500000D02*
X34700000Y-15300000D01*
X40000000Y-23200000D02*
X42300000Y-23200000D01*
X37900000Y-21100000D02*
X40000000Y-23200000D01*
X22775000Y-15775000D02*
X25825000Y-15775000D01*
X26200000Y-14900000D02*
X27152500Y-13947500D01*
X26200000Y-15400000D02*
X26200000Y-14900000D01*
X25825000Y-15775000D02*
X26200000Y-15400000D01*
X27152500Y-13947500D02*
X27500000Y-13947500D01*
X22060600Y-17855000D02*
X22060600Y-16489400D01*
X22060600Y-16489400D02*
X22775000Y-15775000D01*
X22775000Y-15775000D02*
X22800000Y-15750000D01*
X26243500Y-22046000D02*
X26747500Y-22550000D01*
X24245000Y-22046000D02*
X26243500Y-22046000D01*
X3500000Y-26537500D02*
X2062500Y-26537500D01*
X2062500Y-26537500D02*
X1700000Y-26900000D01*
X5472500Y-27172500D02*
X4950000Y-27172500D01*
X6600000Y-28300000D02*
X5472500Y-27172500D01*
X3500000Y-27172500D02*
X4950000Y-27172500D01*
X4950000Y-27172500D02*
X5072500Y-27172500D01*
X1712500Y-29712500D02*
X1700000Y-29700000D01*
X3500000Y-29712500D02*
X1712500Y-29712500D01*
X5047500Y-30347500D02*
X5400000Y-30700000D01*
X5400000Y-30700000D02*
X5400000Y-30900000D01*
X3500000Y-30347500D02*
X5047500Y-30347500D01*
X1700000Y-37747500D02*
X1700000Y-38950000D01*
X3500000Y-36697500D02*
X2102500Y-36697500D01*
X1700000Y-37100000D02*
X1700000Y-37747500D01*
X2102500Y-36697500D02*
X1700000Y-37100000D01*
X1700000Y-38950000D02*
X3500000Y-40750000D01*
D30*
X25500000Y-45300000D02*
X26250000Y-44550000D01*
X26250000Y-44550000D02*
X26250000Y-43300000D01*
X25500000Y-47800000D02*
X25500000Y-45300000D01*
D31*
G36*
X2118998Y-30982500D02*
X2115998Y-30985500D01*
X2029750Y-30985500D01*
X1873000Y-31142250D01*
X1873000Y-31307218D01*
X1923000Y-31427928D01*
X1923000Y-31532272D01*
X1923000Y-31932272D01*
X1924129Y-31934999D01*
X1923000Y-31937727D01*
X1923000Y-32167272D01*
X1923000Y-32567272D01*
X1924129Y-32569999D01*
X1923000Y-32572727D01*
X1923000Y-32802272D01*
X1923000Y-33202272D01*
X1924129Y-33204999D01*
X1923000Y-33207727D01*
X1923000Y-33437272D01*
X1923000Y-33837272D01*
X1924129Y-33839999D01*
X1923000Y-33842727D01*
X1923000Y-34072272D01*
X1923000Y-34347071D01*
X1873000Y-34467782D01*
X1873000Y-34632750D01*
X1965750Y-34725500D01*
X1922500Y-34725500D01*
X1819891Y-34745910D01*
X1765168Y-34723187D01*
X1336711Y-34722813D01*
X940725Y-34886431D01*
X637496Y-35189132D01*
X587000Y-35310739D01*
X587000Y-26139642D01*
X636431Y-26259275D01*
X794315Y-26417434D01*
X678678Y-26695920D01*
X678323Y-27102297D01*
X833510Y-27477877D01*
X1120611Y-27765480D01*
X1495920Y-27921322D01*
X1902297Y-27921677D01*
X1930033Y-27910216D01*
X1873000Y-27967250D01*
X1873000Y-28132218D01*
X1923000Y-28252928D01*
X1923000Y-28357272D01*
X1923000Y-28686534D01*
X1904080Y-28678678D01*
X1497703Y-28678323D01*
X1122123Y-28833510D01*
X834520Y-29120611D01*
X678678Y-29495920D01*
X678323Y-29902297D01*
X833510Y-30277877D01*
X1120611Y-30565480D01*
X1495920Y-30721322D01*
X1873000Y-30721651D01*
X1873000Y-30822750D01*
X2029750Y-30979500D01*
X2115998Y-30979500D01*
X2118998Y-30982500D01*
X2118998Y-30982500D01*
G37*
X2118998Y-30982500D02*
X2115998Y-30985500D01*
X2029750Y-30985500D01*
X1873000Y-31142250D01*
X1873000Y-31307218D01*
X1923000Y-31427928D01*
X1923000Y-31532272D01*
X1923000Y-31932272D01*
X1924129Y-31934999D01*
X1923000Y-31937727D01*
X1923000Y-32167272D01*
X1923000Y-32567272D01*
X1924129Y-32569999D01*
X1923000Y-32572727D01*
X1923000Y-32802272D01*
X1923000Y-33202272D01*
X1924129Y-33204999D01*
X1923000Y-33207727D01*
X1923000Y-33437272D01*
X1923000Y-33837272D01*
X1924129Y-33839999D01*
X1923000Y-33842727D01*
X1923000Y-34072272D01*
X1923000Y-34347071D01*
X1873000Y-34467782D01*
X1873000Y-34632750D01*
X1965750Y-34725500D01*
X1922500Y-34725500D01*
X1819891Y-34745910D01*
X1765168Y-34723187D01*
X1336711Y-34722813D01*
X940725Y-34886431D01*
X637496Y-35189132D01*
X587000Y-35310739D01*
X587000Y-26139642D01*
X636431Y-26259275D01*
X794315Y-26417434D01*
X678678Y-26695920D01*
X678323Y-27102297D01*
X833510Y-27477877D01*
X1120611Y-27765480D01*
X1495920Y-27921322D01*
X1902297Y-27921677D01*
X1930033Y-27910216D01*
X1873000Y-27967250D01*
X1873000Y-28132218D01*
X1923000Y-28252928D01*
X1923000Y-28357272D01*
X1923000Y-28686534D01*
X1904080Y-28678678D01*
X1497703Y-28678323D01*
X1122123Y-28833510D01*
X834520Y-29120611D01*
X678678Y-29495920D01*
X678323Y-29902297D01*
X833510Y-30277877D01*
X1120611Y-30565480D01*
X1495920Y-30721322D01*
X1873000Y-30721651D01*
X1873000Y-30822750D01*
X2029750Y-30979500D01*
X2115998Y-30979500D01*
X2118998Y-30982500D01*
G36*
X5792921Y-587000D02*
X5477439Y-717355D01*
X4421064Y-1771888D01*
X3848653Y-3150407D01*
X3847350Y-4643045D01*
X4417355Y-6022561D01*
X4679980Y-6285645D01*
X4322123Y-6433510D01*
X4157345Y-6598000D01*
X1800000Y-6598000D01*
X1531356Y-6651437D01*
X1303611Y-6803611D01*
X1003611Y-7103611D01*
X851437Y-7331356D01*
X798000Y-7600000D01*
X798000Y-12600000D01*
X851437Y-12868644D01*
X1003611Y-13096389D01*
X1606111Y-13698889D01*
X1833856Y-13851063D01*
X1833857Y-13851064D01*
X1988438Y-13881811D01*
X1873000Y-13997250D01*
X1873000Y-14162218D01*
X1923000Y-14282928D01*
X1923000Y-14387272D01*
X1923000Y-14787272D01*
X1924129Y-14789999D01*
X1923000Y-14792727D01*
X1923000Y-15022272D01*
X1923000Y-15422272D01*
X1924129Y-15424999D01*
X1923000Y-15427727D01*
X1923000Y-15657272D01*
X1923000Y-16057272D01*
X1924129Y-16059999D01*
X1923000Y-16062727D01*
X1923000Y-16292272D01*
X1923000Y-16692272D01*
X1924129Y-16694999D01*
X1923000Y-16697727D01*
X1923000Y-16927272D01*
X1923000Y-17327272D01*
X1924129Y-17329999D01*
X1923000Y-17332727D01*
X1923000Y-17562272D01*
X1923000Y-17962272D01*
X1924129Y-17964999D01*
X1923000Y-17967727D01*
X1923000Y-18197272D01*
X1923000Y-18597272D01*
X1924129Y-18599999D01*
X1923000Y-18602727D01*
X1923000Y-18832272D01*
X1923000Y-19232272D01*
X1924129Y-19234999D01*
X1923000Y-19237727D01*
X1923000Y-19467272D01*
X1923000Y-19867272D01*
X1924129Y-19869999D01*
X1923000Y-19872727D01*
X1923000Y-20102272D01*
X1923000Y-20377071D01*
X1873000Y-20497782D01*
X1873000Y-20662750D01*
X2029750Y-20819500D01*
X2115998Y-20819500D01*
X2118998Y-20822500D01*
X2115998Y-20825500D01*
X2029750Y-20825500D01*
X1873000Y-20982250D01*
X1873000Y-21147218D01*
X1923000Y-21267928D01*
X1923000Y-21372272D01*
X1923000Y-21688724D01*
X1765168Y-21623187D01*
X1336711Y-21622813D01*
X940725Y-21786431D01*
X637496Y-22089132D01*
X587000Y-22210739D01*
X587000Y-2840813D01*
X619892Y-2920418D01*
X1077175Y-3378499D01*
X1674950Y-3626717D01*
X2322211Y-3627282D01*
X2920418Y-3380108D01*
X3378499Y-2922825D01*
X3626717Y-2325050D01*
X3627282Y-1677789D01*
X3380108Y-1079582D01*
X2922825Y-621501D01*
X2839737Y-587000D01*
X5792921Y-587000D01*
X5792921Y-587000D01*
G37*
X5792921Y-587000D02*
X5477439Y-717355D01*
X4421064Y-1771888D01*
X3848653Y-3150407D01*
X3847350Y-4643045D01*
X4417355Y-6022561D01*
X4679980Y-6285645D01*
X4322123Y-6433510D01*
X4157345Y-6598000D01*
X1800000Y-6598000D01*
X1531356Y-6651437D01*
X1303611Y-6803611D01*
X1003611Y-7103611D01*
X851437Y-7331356D01*
X798000Y-7600000D01*
X798000Y-12600000D01*
X851437Y-12868644D01*
X1003611Y-13096389D01*
X1606111Y-13698889D01*
X1833856Y-13851063D01*
X1833857Y-13851064D01*
X1988438Y-13881811D01*
X1873000Y-13997250D01*
X1873000Y-14162218D01*
X1923000Y-14282928D01*
X1923000Y-14387272D01*
X1923000Y-14787272D01*
X1924129Y-14789999D01*
X1923000Y-14792727D01*
X1923000Y-15022272D01*
X1923000Y-15422272D01*
X1924129Y-15424999D01*
X1923000Y-15427727D01*
X1923000Y-15657272D01*
X1923000Y-16057272D01*
X1924129Y-16059999D01*
X1923000Y-16062727D01*
X1923000Y-16292272D01*
X1923000Y-16692272D01*
X1924129Y-16694999D01*
X1923000Y-16697727D01*
X1923000Y-16927272D01*
X1923000Y-17327272D01*
X1924129Y-17329999D01*
X1923000Y-17332727D01*
X1923000Y-17562272D01*
X1923000Y-17962272D01*
X1924129Y-17964999D01*
X1923000Y-17967727D01*
X1923000Y-18197272D01*
X1923000Y-18597272D01*
X1924129Y-18599999D01*
X1923000Y-18602727D01*
X1923000Y-18832272D01*
X1923000Y-19232272D01*
X1924129Y-19234999D01*
X1923000Y-19237727D01*
X1923000Y-19467272D01*
X1923000Y-19867272D01*
X1924129Y-19869999D01*
X1923000Y-19872727D01*
X1923000Y-20102272D01*
X1923000Y-20377071D01*
X1873000Y-20497782D01*
X1873000Y-20662750D01*
X2029750Y-20819500D01*
X2115998Y-20819500D01*
X2118998Y-20822500D01*
X2115998Y-20825500D01*
X2029750Y-20825500D01*
X1873000Y-20982250D01*
X1873000Y-21147218D01*
X1923000Y-21267928D01*
X1923000Y-21372272D01*
X1923000Y-21688724D01*
X1765168Y-21623187D01*
X1336711Y-21622813D01*
X940725Y-21786431D01*
X637496Y-22089132D01*
X587000Y-22210739D01*
X587000Y-2840813D01*
X619892Y-2920418D01*
X1077175Y-3378499D01*
X1674950Y-3626717D01*
X2322211Y-3627282D01*
X2920418Y-3380108D01*
X3378499Y-2922825D01*
X3626717Y-2325050D01*
X3627282Y-1677789D01*
X3380108Y-1079582D01*
X2922825Y-621501D01*
X2839737Y-587000D01*
X5792921Y-587000D01*
G36*
X6712195Y-24354973D02*
X6522123Y-24433510D01*
X6389902Y-24565500D01*
X5077000Y-24565500D01*
X5077000Y-24442928D01*
X5127000Y-24322218D01*
X5127000Y-24157250D01*
X5034250Y-24064500D01*
X5262500Y-24064500D01*
X6421722Y-24064500D01*
X6712195Y-24354973D01*
X6712195Y-24354973D01*
G37*
X6712195Y-24354973D02*
X6522123Y-24433510D01*
X6389902Y-24565500D01*
X5077000Y-24565500D01*
X5077000Y-24442928D01*
X5127000Y-24322218D01*
X5127000Y-24157250D01*
X5034250Y-24064500D01*
X5262500Y-24064500D01*
X6421722Y-24064500D01*
X6712195Y-24354973D01*
G36*
X10118998Y-30982500D02*
X10115998Y-30985500D01*
X10029750Y-30985500D01*
X9873000Y-31142250D01*
X9873000Y-31307218D01*
X9923000Y-31427928D01*
X9923000Y-31532272D01*
X9923000Y-31932272D01*
X9924129Y-31934999D01*
X9923000Y-31937727D01*
X9923000Y-32167272D01*
X9923000Y-32567272D01*
X9924129Y-32569999D01*
X9923000Y-32572727D01*
X9923000Y-32802272D01*
X9923000Y-33202272D01*
X9924129Y-33204999D01*
X9923000Y-33207727D01*
X9923000Y-33393098D01*
X9796389Y-33203611D01*
X7502000Y-30909222D01*
X7502000Y-30900000D01*
X7502000Y-30100000D01*
X7448563Y-29831357D01*
X7448563Y-29831356D01*
X7296389Y-29603611D01*
X6952423Y-29259645D01*
X7177877Y-29166490D01*
X7465480Y-28879389D01*
X7603612Y-28546729D01*
X7703611Y-28696389D01*
X7878524Y-28871302D01*
X7878323Y-29102297D01*
X8033510Y-29477877D01*
X8320611Y-29765480D01*
X8695920Y-29921322D01*
X9102297Y-29921677D01*
X9477877Y-29766490D01*
X9765480Y-29479389D01*
X9921322Y-29104080D01*
X9921677Y-28697703D01*
X9766490Y-28322123D01*
X9479389Y-28034520D01*
X9104080Y-27878678D01*
X8902000Y-27878501D01*
X8902000Y-26300000D01*
X8902000Y-24850000D01*
X8848564Y-24581357D01*
X8848563Y-24581356D01*
X8696389Y-24353611D01*
X7208889Y-22866111D01*
X7101715Y-22794500D01*
X7107500Y-22794500D01*
X7376143Y-22741063D01*
X7376144Y-22741063D01*
X7603889Y-22588889D01*
X9923000Y-20269778D01*
X9923000Y-20377071D01*
X9873000Y-20497782D01*
X9873000Y-20662750D01*
X10029750Y-20819500D01*
X10115998Y-20819500D01*
X10118998Y-20822500D01*
X10115998Y-20825500D01*
X10029750Y-20825500D01*
X9873000Y-20982250D01*
X9873000Y-21147218D01*
X9923000Y-21267928D01*
X9923000Y-21372272D01*
X9923000Y-21772272D01*
X9924129Y-21774999D01*
X9923000Y-21777727D01*
X9923000Y-22007272D01*
X9923000Y-22407272D01*
X9924129Y-22409999D01*
X9923000Y-22412727D01*
X9923000Y-22642272D01*
X9923000Y-23042272D01*
X9924129Y-23044999D01*
X9923000Y-23047727D01*
X9923000Y-23277272D01*
X9923000Y-23677272D01*
X9924129Y-23679999D01*
X9923000Y-23682727D01*
X9923000Y-23912272D01*
X9923000Y-24312272D01*
X9924129Y-24314999D01*
X9923000Y-24317727D01*
X9923000Y-24547272D01*
X9923000Y-24947272D01*
X9924129Y-24949999D01*
X9923000Y-24952727D01*
X9923000Y-25182272D01*
X9923000Y-25582272D01*
X9924129Y-25584999D01*
X9923000Y-25587727D01*
X9923000Y-25817272D01*
X9923000Y-26217272D01*
X9924129Y-26219999D01*
X9923000Y-26222727D01*
X9923000Y-26452272D01*
X9923000Y-26727071D01*
X9873000Y-26847782D01*
X9873000Y-27012750D01*
X10029750Y-27169500D01*
X10115998Y-27169500D01*
X10118998Y-27172500D01*
X10115998Y-27175500D01*
X10029750Y-27175500D01*
X9873000Y-27332250D01*
X9873000Y-27497218D01*
X9923000Y-27617928D01*
X9923000Y-27722272D01*
X9923000Y-28122272D01*
X9924129Y-28124999D01*
X9923000Y-28127727D01*
X9923000Y-28357272D01*
X9923000Y-28757272D01*
X9924129Y-28759999D01*
X9923000Y-28762727D01*
X9923000Y-28992272D01*
X9923000Y-29392272D01*
X9924129Y-29394999D01*
X9923000Y-29397727D01*
X9923000Y-29627272D01*
X9923000Y-30027272D01*
X9924129Y-30029999D01*
X9923000Y-30032727D01*
X9923000Y-30262272D01*
X9923000Y-30537071D01*
X9873000Y-30657782D01*
X9873000Y-30822750D01*
X10029750Y-30979500D01*
X10115998Y-30979500D01*
X10118998Y-30982500D01*
X10118998Y-30982500D01*
G37*
X10118998Y-30982500D02*
X10115998Y-30985500D01*
X10029750Y-30985500D01*
X9873000Y-31142250D01*
X9873000Y-31307218D01*
X9923000Y-31427928D01*
X9923000Y-31532272D01*
X9923000Y-31932272D01*
X9924129Y-31934999D01*
X9923000Y-31937727D01*
X9923000Y-32167272D01*
X9923000Y-32567272D01*
X9924129Y-32569999D01*
X9923000Y-32572727D01*
X9923000Y-32802272D01*
X9923000Y-33202272D01*
X9924129Y-33204999D01*
X9923000Y-33207727D01*
X9923000Y-33393098D01*
X9796389Y-33203611D01*
X7502000Y-30909222D01*
X7502000Y-30900000D01*
X7502000Y-30100000D01*
X7448563Y-29831357D01*
X7448563Y-29831356D01*
X7296389Y-29603611D01*
X6952423Y-29259645D01*
X7177877Y-29166490D01*
X7465480Y-28879389D01*
X7603612Y-28546729D01*
X7703611Y-28696389D01*
X7878524Y-28871302D01*
X7878323Y-29102297D01*
X8033510Y-29477877D01*
X8320611Y-29765480D01*
X8695920Y-29921322D01*
X9102297Y-29921677D01*
X9477877Y-29766490D01*
X9765480Y-29479389D01*
X9921322Y-29104080D01*
X9921677Y-28697703D01*
X9766490Y-28322123D01*
X9479389Y-28034520D01*
X9104080Y-27878678D01*
X8902000Y-27878501D01*
X8902000Y-26300000D01*
X8902000Y-24850000D01*
X8848564Y-24581357D01*
X8848563Y-24581356D01*
X8696389Y-24353611D01*
X7208889Y-22866111D01*
X7101715Y-22794500D01*
X7107500Y-22794500D01*
X7376143Y-22741063D01*
X7376144Y-22741063D01*
X7603889Y-22588889D01*
X9923000Y-20269778D01*
X9923000Y-20377071D01*
X9873000Y-20497782D01*
X9873000Y-20662750D01*
X10029750Y-20819500D01*
X10115998Y-20819500D01*
X10118998Y-20822500D01*
X10115998Y-20825500D01*
X10029750Y-20825500D01*
X9873000Y-20982250D01*
X9873000Y-21147218D01*
X9923000Y-21267928D01*
X9923000Y-21372272D01*
X9923000Y-21772272D01*
X9924129Y-21774999D01*
X9923000Y-21777727D01*
X9923000Y-22007272D01*
X9923000Y-22407272D01*
X9924129Y-22409999D01*
X9923000Y-22412727D01*
X9923000Y-22642272D01*
X9923000Y-23042272D01*
X9924129Y-23044999D01*
X9923000Y-23047727D01*
X9923000Y-23277272D01*
X9923000Y-23677272D01*
X9924129Y-23679999D01*
X9923000Y-23682727D01*
X9923000Y-23912272D01*
X9923000Y-24312272D01*
X9924129Y-24314999D01*
X9923000Y-24317727D01*
X9923000Y-24547272D01*
X9923000Y-24947272D01*
X9924129Y-24949999D01*
X9923000Y-24952727D01*
X9923000Y-25182272D01*
X9923000Y-25582272D01*
X9924129Y-25584999D01*
X9923000Y-25587727D01*
X9923000Y-25817272D01*
X9923000Y-26217272D01*
X9924129Y-26219999D01*
X9923000Y-26222727D01*
X9923000Y-26452272D01*
X9923000Y-26727071D01*
X9873000Y-26847782D01*
X9873000Y-27012750D01*
X10029750Y-27169500D01*
X10115998Y-27169500D01*
X10118998Y-27172500D01*
X10115998Y-27175500D01*
X10029750Y-27175500D01*
X9873000Y-27332250D01*
X9873000Y-27497218D01*
X9923000Y-27617928D01*
X9923000Y-27722272D01*
X9923000Y-28122272D01*
X9924129Y-28124999D01*
X9923000Y-28127727D01*
X9923000Y-28357272D01*
X9923000Y-28757272D01*
X9924129Y-28759999D01*
X9923000Y-28762727D01*
X9923000Y-28992272D01*
X9923000Y-29392272D01*
X9924129Y-29394999D01*
X9923000Y-29397727D01*
X9923000Y-29627272D01*
X9923000Y-30027272D01*
X9924129Y-30029999D01*
X9923000Y-30032727D01*
X9923000Y-30262272D01*
X9923000Y-30537071D01*
X9873000Y-30657782D01*
X9873000Y-30822750D01*
X10029750Y-30979500D01*
X10115998Y-30979500D01*
X10118998Y-30982500D01*
G36*
X14273666Y-45816444D02*
X14070000Y-46121252D01*
X13823273Y-45752000D01*
X14209222Y-45752000D01*
X14273666Y-45816444D01*
X14273666Y-45816444D01*
G37*
X14273666Y-45816444D02*
X14070000Y-46121252D01*
X13823273Y-45752000D01*
X14209222Y-45752000D01*
X14273666Y-45816444D01*
G36*
X17473000Y-15998000D02*
X17238278Y-15998000D01*
X17121475Y-15881197D01*
X17121677Y-15650203D01*
X16966490Y-15274623D01*
X16679389Y-14987020D01*
X16304080Y-14831178D01*
X15897703Y-14830823D01*
X15522123Y-14986010D01*
X15234520Y-15273111D01*
X15078678Y-15648420D01*
X15078323Y-16054797D01*
X15133201Y-16187613D01*
X15022123Y-16233510D01*
X14734520Y-16520611D01*
X14578678Y-16895920D01*
X14578323Y-17302297D01*
X14601734Y-17358956D01*
X14132918Y-16890140D01*
X14312504Y-16710868D01*
X14476813Y-16315168D01*
X14477187Y-15886711D01*
X14313569Y-15490725D01*
X14010868Y-15187496D01*
X13615168Y-15023187D01*
X13442851Y-15023036D01*
X13523889Y-14968889D01*
X14096389Y-14396389D01*
X14248563Y-14168644D01*
X14248563Y-14168643D01*
X14302000Y-13900000D01*
X14302000Y-10200000D01*
X14302000Y-8902000D01*
X14823953Y-8902000D01*
X14673257Y-9264918D01*
X14672744Y-9852505D01*
X14897130Y-10395560D01*
X15312254Y-10811409D01*
X15356463Y-10829766D01*
X15314440Y-10847130D01*
X14898591Y-11262254D01*
X14673257Y-11804918D01*
X14672744Y-12392505D01*
X14897130Y-12935560D01*
X15312254Y-13351409D01*
X15854918Y-13576743D01*
X16442505Y-13577256D01*
X16985560Y-13352870D01*
X17401409Y-12937746D01*
X17473000Y-12765335D01*
X17473000Y-15998000D01*
X17473000Y-15998000D01*
G37*
X17473000Y-15998000D02*
X17238278Y-15998000D01*
X17121475Y-15881197D01*
X17121677Y-15650203D01*
X16966490Y-15274623D01*
X16679389Y-14987020D01*
X16304080Y-14831178D01*
X15897703Y-14830823D01*
X15522123Y-14986010D01*
X15234520Y-15273111D01*
X15078678Y-15648420D01*
X15078323Y-16054797D01*
X15133201Y-16187613D01*
X15022123Y-16233510D01*
X14734520Y-16520611D01*
X14578678Y-16895920D01*
X14578323Y-17302297D01*
X14601734Y-17358956D01*
X14132918Y-16890140D01*
X14312504Y-16710868D01*
X14476813Y-16315168D01*
X14477187Y-15886711D01*
X14313569Y-15490725D01*
X14010868Y-15187496D01*
X13615168Y-15023187D01*
X13442851Y-15023036D01*
X13523889Y-14968889D01*
X14096389Y-14396389D01*
X14248563Y-14168644D01*
X14248563Y-14168643D01*
X14302000Y-13900000D01*
X14302000Y-10200000D01*
X14302000Y-8902000D01*
X14823953Y-8902000D01*
X14673257Y-9264918D01*
X14672744Y-9852505D01*
X14897130Y-10395560D01*
X15312254Y-10811409D01*
X15356463Y-10829766D01*
X15314440Y-10847130D01*
X14898591Y-11262254D01*
X14673257Y-11804918D01*
X14672744Y-12392505D01*
X14897130Y-12935560D01*
X15312254Y-13351409D01*
X15854918Y-13576743D01*
X16442505Y-13577256D01*
X16985560Y-13352870D01*
X17401409Y-12937746D01*
X17473000Y-12765335D01*
X17473000Y-15998000D01*
G36*
X19823000Y-22303000D02*
X19803000Y-22303000D01*
X19803000Y-22323000D01*
X19797000Y-22323000D01*
X19797000Y-22303000D01*
X19777000Y-22303000D01*
X19777000Y-22297000D01*
X19797000Y-22297000D01*
X19797000Y-22277000D01*
X19803000Y-22277000D01*
X19803000Y-22297000D01*
X19823000Y-22297000D01*
X19823000Y-22303000D01*
X19823000Y-22303000D01*
G37*
X19823000Y-22303000D02*
X19803000Y-22303000D01*
X19803000Y-22323000D01*
X19797000Y-22323000D01*
X19797000Y-22303000D01*
X19777000Y-22303000D01*
X19777000Y-22297000D01*
X19797000Y-22297000D01*
X19797000Y-22277000D01*
X19803000Y-22277000D01*
X19803000Y-22297000D01*
X19823000Y-22297000D01*
X19823000Y-22303000D01*
G36*
X27225287Y-34824608D02*
X26847400Y-34824279D01*
X26378431Y-35018053D01*
X26019314Y-35376544D01*
X25824721Y-35845174D01*
X25824279Y-36352600D01*
X26014918Y-36813983D01*
X25923218Y-36776000D01*
X25673782Y-36776000D01*
X25259750Y-36776000D01*
X25103000Y-36932750D01*
X25103000Y-37844500D01*
X25123000Y-37844500D01*
X25123000Y-37850500D01*
X25103000Y-37850500D01*
X25103000Y-37870500D01*
X25097000Y-37870500D01*
X25097000Y-37850500D01*
X25097000Y-37844500D01*
X25097000Y-36932750D01*
X24940250Y-36776000D01*
X24526218Y-36776000D01*
X24276782Y-36776000D01*
X24100000Y-36849225D01*
X23923218Y-36776000D01*
X23673782Y-36776000D01*
X23259750Y-36776000D01*
X23103000Y-36932750D01*
X23103000Y-37844500D01*
X23931250Y-37844500D01*
X24268750Y-37844500D01*
X25097000Y-37844500D01*
X25097000Y-37850500D01*
X24268750Y-37850500D01*
X23931250Y-37850500D01*
X23103000Y-37850500D01*
X23103000Y-37870500D01*
X23097000Y-37870500D01*
X23097000Y-37850500D01*
X23097000Y-37844500D01*
X23097000Y-36932750D01*
X22940250Y-36776000D01*
X22526218Y-36776000D01*
X22443000Y-36776000D01*
X22443000Y-36608750D01*
X22443000Y-36289250D01*
X22443000Y-35562282D01*
X22347545Y-35331833D01*
X22171167Y-35155455D01*
X21940718Y-35060000D01*
X21691282Y-35060000D01*
X20959750Y-35060000D01*
X20803000Y-35216750D01*
X20803000Y-36446000D01*
X22286250Y-36446000D01*
X22443000Y-36289250D01*
X22443000Y-36608750D01*
X22286250Y-36452000D01*
X20803000Y-36452000D01*
X20803000Y-37681250D01*
X20959750Y-37838000D01*
X21691282Y-37838000D01*
X21924750Y-37838000D01*
X21931250Y-37844500D01*
X23097000Y-37844500D01*
X23097000Y-37850500D01*
X21931250Y-37850500D01*
X21774500Y-38007250D01*
X21774500Y-38412000D01*
X21701228Y-38412000D01*
X20585108Y-38412000D01*
X20011108Y-37838000D01*
X20640250Y-37838000D01*
X20797000Y-37681250D01*
X20797000Y-36452000D01*
X20797000Y-36446000D01*
X20797000Y-35216750D01*
X20640250Y-35060000D01*
X19908718Y-35060000D01*
X19659282Y-35060000D01*
X19428833Y-35155455D01*
X19252455Y-35331833D01*
X19157000Y-35562282D01*
X19157000Y-36289250D01*
X19313750Y-36446000D01*
X20797000Y-36446000D01*
X20797000Y-36452000D01*
X19313750Y-36452000D01*
X19157000Y-36608750D01*
X19157000Y-37078245D01*
X18927746Y-36848591D01*
X18385082Y-36623257D01*
X17797495Y-36622744D01*
X17254440Y-36847130D01*
X16838591Y-37262254D01*
X16820233Y-37306463D01*
X16802870Y-37264440D01*
X16540832Y-37001945D01*
X18146389Y-35396389D01*
X23039589Y-30503189D01*
X23176038Y-30298977D01*
X27225287Y-34824608D01*
X27225287Y-34824608D01*
G37*
X27225287Y-34824608D02*
X26847400Y-34824279D01*
X26378431Y-35018053D01*
X26019314Y-35376544D01*
X25824721Y-35845174D01*
X25824279Y-36352600D01*
X26014918Y-36813983D01*
X25923218Y-36776000D01*
X25673782Y-36776000D01*
X25259750Y-36776000D01*
X25103000Y-36932750D01*
X25103000Y-37844500D01*
X25123000Y-37844500D01*
X25123000Y-37850500D01*
X25103000Y-37850500D01*
X25103000Y-37870500D01*
X25097000Y-37870500D01*
X25097000Y-37850500D01*
X25097000Y-37844500D01*
X25097000Y-36932750D01*
X24940250Y-36776000D01*
X24526218Y-36776000D01*
X24276782Y-36776000D01*
X24100000Y-36849225D01*
X23923218Y-36776000D01*
X23673782Y-36776000D01*
X23259750Y-36776000D01*
X23103000Y-36932750D01*
X23103000Y-37844500D01*
X23931250Y-37844500D01*
X24268750Y-37844500D01*
X25097000Y-37844500D01*
X25097000Y-37850500D01*
X24268750Y-37850500D01*
X23931250Y-37850500D01*
X23103000Y-37850500D01*
X23103000Y-37870500D01*
X23097000Y-37870500D01*
X23097000Y-37850500D01*
X23097000Y-37844500D01*
X23097000Y-36932750D01*
X22940250Y-36776000D01*
X22526218Y-36776000D01*
X22443000Y-36776000D01*
X22443000Y-36608750D01*
X22443000Y-36289250D01*
X22443000Y-35562282D01*
X22347545Y-35331833D01*
X22171167Y-35155455D01*
X21940718Y-35060000D01*
X21691282Y-35060000D01*
X20959750Y-35060000D01*
X20803000Y-35216750D01*
X20803000Y-36446000D01*
X22286250Y-36446000D01*
X22443000Y-36289250D01*
X22443000Y-36608750D01*
X22286250Y-36452000D01*
X20803000Y-36452000D01*
X20803000Y-37681250D01*
X20959750Y-37838000D01*
X21691282Y-37838000D01*
X21924750Y-37838000D01*
X21931250Y-37844500D01*
X23097000Y-37844500D01*
X23097000Y-37850500D01*
X21931250Y-37850500D01*
X21774500Y-38007250D01*
X21774500Y-38412000D01*
X21701228Y-38412000D01*
X20585108Y-38412000D01*
X20011108Y-37838000D01*
X20640250Y-37838000D01*
X20797000Y-37681250D01*
X20797000Y-36452000D01*
X20797000Y-36446000D01*
X20797000Y-35216750D01*
X20640250Y-35060000D01*
X19908718Y-35060000D01*
X19659282Y-35060000D01*
X19428833Y-35155455D01*
X19252455Y-35331833D01*
X19157000Y-35562282D01*
X19157000Y-36289250D01*
X19313750Y-36446000D01*
X20797000Y-36446000D01*
X20797000Y-36452000D01*
X19313750Y-36452000D01*
X19157000Y-36608750D01*
X19157000Y-37078245D01*
X18927746Y-36848591D01*
X18385082Y-36623257D01*
X17797495Y-36622744D01*
X17254440Y-36847130D01*
X16838591Y-37262254D01*
X16820233Y-37306463D01*
X16802870Y-37264440D01*
X16540832Y-37001945D01*
X18146389Y-35396389D01*
X23039589Y-30503189D01*
X23176038Y-30298977D01*
X27225287Y-34824608D01*
G36*
X27873000Y-44803892D02*
X27278446Y-45398446D01*
X27112349Y-45647026D01*
X27066314Y-45677787D01*
X26770000Y-46121252D01*
X26473686Y-45677787D01*
X26322245Y-45576598D01*
X26799422Y-45099422D01*
X26967854Y-44847345D01*
X27027000Y-44550000D01*
X27027000Y-44400187D01*
X27374803Y-44052990D01*
X27577339Y-43565229D01*
X27577800Y-43037088D01*
X27376116Y-42548974D01*
X27002990Y-42175197D01*
X26515229Y-41972661D01*
X25987088Y-41972200D01*
X25498974Y-42173884D01*
X25299980Y-42372531D01*
X25102990Y-42175197D01*
X24615229Y-41972661D01*
X24087088Y-41972200D01*
X23598974Y-42173884D01*
X23399980Y-42372531D01*
X23202990Y-42175197D01*
X22715229Y-41972661D01*
X22187088Y-41972200D01*
X21698974Y-42173884D01*
X21325197Y-42547010D01*
X21241456Y-42748678D01*
X20046389Y-41553611D01*
X19818644Y-41401437D01*
X19550000Y-41348000D01*
X17000000Y-41348000D01*
X16819436Y-41348000D01*
X16986743Y-40945082D01*
X16987256Y-40357495D01*
X16762870Y-39814440D01*
X16347746Y-39398591D01*
X16311416Y-39383505D01*
X16385560Y-39352870D01*
X16801409Y-38937746D01*
X16819766Y-38893536D01*
X16837130Y-38935560D01*
X17252254Y-39351409D01*
X17794918Y-39576743D01*
X18382505Y-39577256D01*
X18610105Y-39483213D01*
X19207000Y-40080108D01*
X19207000Y-40627772D01*
X19294843Y-40839844D01*
X19457155Y-41002157D01*
X19669227Y-41090000D01*
X19898772Y-41090000D01*
X21930772Y-41090000D01*
X22142844Y-41002157D01*
X22305157Y-40839845D01*
X22310063Y-40828000D01*
X23092459Y-40828000D01*
X23100000Y-40829500D01*
X24300000Y-40829500D01*
X25100000Y-40829500D01*
X27100000Y-40829500D01*
X27873000Y-40829500D01*
X27873000Y-44803892D01*
X27873000Y-44803892D01*
G37*
X27873000Y-44803892D02*
X27278446Y-45398446D01*
X27112349Y-45647026D01*
X27066314Y-45677787D01*
X26770000Y-46121252D01*
X26473686Y-45677787D01*
X26322245Y-45576598D01*
X26799422Y-45099422D01*
X26967854Y-44847345D01*
X27027000Y-44550000D01*
X27027000Y-44400187D01*
X27374803Y-44052990D01*
X27577339Y-43565229D01*
X27577800Y-43037088D01*
X27376116Y-42548974D01*
X27002990Y-42175197D01*
X26515229Y-41972661D01*
X25987088Y-41972200D01*
X25498974Y-42173884D01*
X25299980Y-42372531D01*
X25102990Y-42175197D01*
X24615229Y-41972661D01*
X24087088Y-41972200D01*
X23598974Y-42173884D01*
X23399980Y-42372531D01*
X23202990Y-42175197D01*
X22715229Y-41972661D01*
X22187088Y-41972200D01*
X21698974Y-42173884D01*
X21325197Y-42547010D01*
X21241456Y-42748678D01*
X20046389Y-41553611D01*
X19818644Y-41401437D01*
X19550000Y-41348000D01*
X17000000Y-41348000D01*
X16819436Y-41348000D01*
X16986743Y-40945082D01*
X16987256Y-40357495D01*
X16762870Y-39814440D01*
X16347746Y-39398591D01*
X16311416Y-39383505D01*
X16385560Y-39352870D01*
X16801409Y-38937746D01*
X16819766Y-38893536D01*
X16837130Y-38935560D01*
X17252254Y-39351409D01*
X17794918Y-39576743D01*
X18382505Y-39577256D01*
X18610105Y-39483213D01*
X19207000Y-40080108D01*
X19207000Y-40627772D01*
X19294843Y-40839844D01*
X19457155Y-41002157D01*
X19669227Y-41090000D01*
X19898772Y-41090000D01*
X21930772Y-41090000D01*
X22142844Y-41002157D01*
X22305157Y-40839845D01*
X22310063Y-40828000D01*
X23092459Y-40828000D01*
X23100000Y-40829500D01*
X24300000Y-40829500D01*
X25100000Y-40829500D01*
X27100000Y-40829500D01*
X27873000Y-40829500D01*
X27873000Y-44803892D01*
G36*
X28675500Y-22453000D02*
X28655500Y-22453000D01*
X28655500Y-22473000D01*
X28649500Y-22473000D01*
X28649500Y-22453000D01*
X28629500Y-22453000D01*
X28629500Y-22447000D01*
X28649500Y-22447000D01*
X28649500Y-21768750D01*
X28649500Y-21281250D01*
X28649500Y-20603000D01*
X28629500Y-20603000D01*
X28629500Y-20597000D01*
X28649500Y-20597000D01*
X28649500Y-20577000D01*
X28655500Y-20577000D01*
X28655500Y-20597000D01*
X28675500Y-20597000D01*
X28675500Y-20603000D01*
X28655500Y-20603000D01*
X28655500Y-21281250D01*
X28655500Y-21768750D01*
X28655500Y-22447000D01*
X28675500Y-22447000D01*
X28675500Y-22453000D01*
X28675500Y-22453000D01*
G37*
X28675500Y-22453000D02*
X28655500Y-22453000D01*
X28655500Y-22473000D01*
X28649500Y-22473000D01*
X28649500Y-22453000D01*
X28629500Y-22453000D01*
X28629500Y-22447000D01*
X28649500Y-22447000D01*
X28649500Y-21768750D01*
X28649500Y-21281250D01*
X28649500Y-20603000D01*
X28629500Y-20603000D01*
X28629500Y-20597000D01*
X28649500Y-20597000D01*
X28649500Y-20577000D01*
X28655500Y-20577000D01*
X28655500Y-20597000D01*
X28675500Y-20597000D01*
X28675500Y-20603000D01*
X28655500Y-20603000D01*
X28655500Y-21281250D01*
X28655500Y-21768750D01*
X28655500Y-22447000D01*
X28675500Y-22447000D01*
X28675500Y-22453000D01*
G36*
X33224801Y-13245500D02*
X28716380Y-13245500D01*
X28687657Y-13176156D01*
X28525345Y-13013843D01*
X28313273Y-12926000D01*
X28083728Y-12926000D01*
X26686728Y-12926000D01*
X26474656Y-13013843D01*
X26312343Y-13176155D01*
X26224500Y-13388227D01*
X26224500Y-13617772D01*
X26224500Y-13882722D01*
X26042000Y-14065222D01*
X26042000Y-10949718D01*
X26042000Y-10009750D01*
X25885250Y-9853000D01*
X24643000Y-9853000D01*
X24643000Y-11295250D01*
X24799750Y-11452000D01*
X25290282Y-11452000D01*
X25539718Y-11452000D01*
X25770167Y-11356545D01*
X25946545Y-11180167D01*
X26042000Y-10949718D01*
X26042000Y-14065222D01*
X25992000Y-14115222D01*
X25992000Y-12960228D01*
X25904157Y-12748156D01*
X25741845Y-12585843D01*
X25529773Y-12498000D01*
X25300228Y-12498000D01*
X24637000Y-12498000D01*
X24637000Y-11295250D01*
X24637000Y-9853000D01*
X23394750Y-9853000D01*
X23238000Y-10009750D01*
X23238000Y-10949718D01*
X23333455Y-11180167D01*
X23509833Y-11356545D01*
X23740282Y-11452000D01*
X23989718Y-11452000D01*
X24480250Y-11452000D01*
X24637000Y-11295250D01*
X24637000Y-12498000D01*
X23750228Y-12498000D01*
X23538156Y-12585843D01*
X23375843Y-12748155D01*
X23288000Y-12960227D01*
X23288000Y-13102991D01*
X22972123Y-13233510D01*
X22684520Y-13520611D01*
X22528678Y-13895920D01*
X22528323Y-14302297D01*
X22683510Y-14677877D01*
X22970611Y-14965480D01*
X23229547Y-15073000D01*
X22925682Y-15073000D01*
X22800000Y-15048000D01*
X22531356Y-15101437D01*
X22303611Y-15253611D01*
X22278611Y-15278611D01*
X21564211Y-15993011D01*
X21412037Y-16220756D01*
X21358600Y-16489400D01*
X21358600Y-16770800D01*
X21321718Y-16770800D01*
X21275482Y-16770800D01*
X21204350Y-16770800D01*
X21154052Y-16821097D01*
X21057300Y-16861173D01*
X20962000Y-16821698D01*
X20962000Y-10949718D01*
X20962000Y-10009750D01*
X20805250Y-9853000D01*
X19563000Y-9853000D01*
X19563000Y-11295250D01*
X19719750Y-11452000D01*
X20210282Y-11452000D01*
X20459718Y-11452000D01*
X20690167Y-11356545D01*
X20866545Y-11180167D01*
X20962000Y-10949718D01*
X20962000Y-16821698D01*
X20917187Y-16803137D01*
X20884850Y-16770800D01*
X20839118Y-16770800D01*
X20767482Y-16770800D01*
X20721750Y-16770800D01*
X20689412Y-16803137D01*
X20578122Y-16849235D01*
X20598563Y-16818644D01*
X20598563Y-16818643D01*
X20652000Y-16550000D01*
X20652000Y-15518234D01*
X20661844Y-15514157D01*
X20824157Y-15351845D01*
X20912000Y-15139773D01*
X20912000Y-14910228D01*
X20912000Y-12960228D01*
X20824157Y-12748156D01*
X20661845Y-12585843D01*
X20449773Y-12498000D01*
X20220228Y-12498000D01*
X18670228Y-12498000D01*
X18458156Y-12585843D01*
X18295843Y-12748155D01*
X18227000Y-12914356D01*
X18227000Y-11116298D01*
X18253455Y-11180167D01*
X18429833Y-11356545D01*
X18660282Y-11452000D01*
X18909718Y-11452000D01*
X19400250Y-11452000D01*
X19557000Y-11295250D01*
X19557000Y-9853000D01*
X19537000Y-9853000D01*
X19537000Y-9847000D01*
X19557000Y-9847000D01*
X19557000Y-9827000D01*
X19563000Y-9827000D01*
X19563000Y-9847000D01*
X20805250Y-9847000D01*
X20962000Y-9690250D01*
X20962000Y-8927000D01*
X23238000Y-8927000D01*
X23238000Y-9690250D01*
X23394750Y-9847000D01*
X24637000Y-9847000D01*
X24637000Y-9827000D01*
X24643000Y-9827000D01*
X24643000Y-9847000D01*
X25885250Y-9847000D01*
X26042000Y-9690250D01*
X26042000Y-8927000D01*
X28947042Y-8927000D01*
X33224801Y-13245500D01*
X33224801Y-13245500D01*
G37*
X33224801Y-13245500D02*
X28716380Y-13245500D01*
X28687657Y-13176156D01*
X28525345Y-13013843D01*
X28313273Y-12926000D01*
X28083728Y-12926000D01*
X26686728Y-12926000D01*
X26474656Y-13013843D01*
X26312343Y-13176155D01*
X26224500Y-13388227D01*
X26224500Y-13617772D01*
X26224500Y-13882722D01*
X26042000Y-14065222D01*
X26042000Y-10949718D01*
X26042000Y-10009750D01*
X25885250Y-9853000D01*
X24643000Y-9853000D01*
X24643000Y-11295250D01*
X24799750Y-11452000D01*
X25290282Y-11452000D01*
X25539718Y-11452000D01*
X25770167Y-11356545D01*
X25946545Y-11180167D01*
X26042000Y-10949718D01*
X26042000Y-14065222D01*
X25992000Y-14115222D01*
X25992000Y-12960228D01*
X25904157Y-12748156D01*
X25741845Y-12585843D01*
X25529773Y-12498000D01*
X25300228Y-12498000D01*
X24637000Y-12498000D01*
X24637000Y-11295250D01*
X24637000Y-9853000D01*
X23394750Y-9853000D01*
X23238000Y-10009750D01*
X23238000Y-10949718D01*
X23333455Y-11180167D01*
X23509833Y-11356545D01*
X23740282Y-11452000D01*
X23989718Y-11452000D01*
X24480250Y-11452000D01*
X24637000Y-11295250D01*
X24637000Y-12498000D01*
X23750228Y-12498000D01*
X23538156Y-12585843D01*
X23375843Y-12748155D01*
X23288000Y-12960227D01*
X23288000Y-13102991D01*
X22972123Y-13233510D01*
X22684520Y-13520611D01*
X22528678Y-13895920D01*
X22528323Y-14302297D01*
X22683510Y-14677877D01*
X22970611Y-14965480D01*
X23229547Y-15073000D01*
X22925682Y-15073000D01*
X22800000Y-15048000D01*
X22531356Y-15101437D01*
X22303611Y-15253611D01*
X22278611Y-15278611D01*
X21564211Y-15993011D01*
X21412037Y-16220756D01*
X21358600Y-16489400D01*
X21358600Y-16770800D01*
X21321718Y-16770800D01*
X21275482Y-16770800D01*
X21204350Y-16770800D01*
X21154052Y-16821097D01*
X21057300Y-16861173D01*
X20962000Y-16821698D01*
X20962000Y-10949718D01*
X20962000Y-10009750D01*
X20805250Y-9853000D01*
X19563000Y-9853000D01*
X19563000Y-11295250D01*
X19719750Y-11452000D01*
X20210282Y-11452000D01*
X20459718Y-11452000D01*
X20690167Y-11356545D01*
X20866545Y-11180167D01*
X20962000Y-10949718D01*
X20962000Y-16821698D01*
X20917187Y-16803137D01*
X20884850Y-16770800D01*
X20839118Y-16770800D01*
X20767482Y-16770800D01*
X20721750Y-16770800D01*
X20689412Y-16803137D01*
X20578122Y-16849235D01*
X20598563Y-16818644D01*
X20598563Y-16818643D01*
X20652000Y-16550000D01*
X20652000Y-15518234D01*
X20661844Y-15514157D01*
X20824157Y-15351845D01*
X20912000Y-15139773D01*
X20912000Y-14910228D01*
X20912000Y-12960228D01*
X20824157Y-12748156D01*
X20661845Y-12585843D01*
X20449773Y-12498000D01*
X20220228Y-12498000D01*
X18670228Y-12498000D01*
X18458156Y-12585843D01*
X18295843Y-12748155D01*
X18227000Y-12914356D01*
X18227000Y-11116298D01*
X18253455Y-11180167D01*
X18429833Y-11356545D01*
X18660282Y-11452000D01*
X18909718Y-11452000D01*
X19400250Y-11452000D01*
X19557000Y-11295250D01*
X19557000Y-9853000D01*
X19537000Y-9853000D01*
X19537000Y-9847000D01*
X19557000Y-9847000D01*
X19557000Y-9827000D01*
X19563000Y-9827000D01*
X19563000Y-9847000D01*
X20805250Y-9847000D01*
X20962000Y-9690250D01*
X20962000Y-8927000D01*
X23238000Y-8927000D01*
X23238000Y-9690250D01*
X23394750Y-9847000D01*
X24637000Y-9847000D01*
X24637000Y-9827000D01*
X24643000Y-9827000D01*
X24643000Y-9847000D01*
X25885250Y-9847000D01*
X26042000Y-9690250D01*
X26042000Y-8927000D01*
X28947042Y-8927000D01*
X33224801Y-13245500D01*
G36*
X34623000Y-41499290D02*
X34575197Y-41547010D01*
X34372661Y-42034771D01*
X34372600Y-42104291D01*
X32358446Y-44118446D01*
X32124982Y-44467850D01*
X32043000Y-44880000D01*
X32043000Y-45832407D01*
X31850000Y-46121252D01*
X31657000Y-45832407D01*
X31657000Y-44066108D01*
X32095366Y-43627741D01*
X32162912Y-43627800D01*
X32651026Y-43426116D01*
X33024803Y-43052990D01*
X33227339Y-42565229D01*
X33227800Y-42037088D01*
X33026116Y-41548974D01*
X32652990Y-41175197D01*
X32165229Y-40972661D01*
X31637088Y-40972200D01*
X31148974Y-41173884D01*
X30775197Y-41547010D01*
X30572661Y-42034771D01*
X30572600Y-42104291D01*
X29818446Y-42858446D01*
X28627000Y-44049892D01*
X28627000Y-40829500D01*
X29400000Y-40829500D01*
X31400000Y-40829500D01*
X33400000Y-40829500D01*
X34623000Y-40829500D01*
X34623000Y-41499290D01*
X34623000Y-41499290D01*
G37*
X34623000Y-41499290D02*
X34575197Y-41547010D01*
X34372661Y-42034771D01*
X34372600Y-42104291D01*
X32358446Y-44118446D01*
X32124982Y-44467850D01*
X32043000Y-44880000D01*
X32043000Y-45832407D01*
X31850000Y-46121252D01*
X31657000Y-45832407D01*
X31657000Y-44066108D01*
X32095366Y-43627741D01*
X32162912Y-43627800D01*
X32651026Y-43426116D01*
X33024803Y-43052990D01*
X33227339Y-42565229D01*
X33227800Y-42037088D01*
X33026116Y-41548974D01*
X32652990Y-41175197D01*
X32165229Y-40972661D01*
X31637088Y-40972200D01*
X31148974Y-41173884D01*
X30775197Y-41547010D01*
X30572661Y-42034771D01*
X30572600Y-42104291D01*
X29818446Y-42858446D01*
X28627000Y-44049892D01*
X28627000Y-40829500D01*
X29400000Y-40829500D01*
X31400000Y-40829500D01*
X33400000Y-40829500D01*
X34623000Y-40829500D01*
X34623000Y-41499290D01*
G36*
X42323000Y-22203000D02*
X42303000Y-22203000D01*
X42303000Y-22223000D01*
X42297000Y-22223000D01*
X42297000Y-22203000D01*
X40329750Y-22203000D01*
X40173000Y-22359750D01*
X40173000Y-22380222D01*
X38602000Y-20809222D01*
X38602000Y-18673910D01*
X39373000Y-19452253D01*
X39373000Y-20646521D01*
X40210070Y-21635785D01*
X40173000Y-21725282D01*
X40173000Y-22040250D01*
X40329750Y-22197000D01*
X42297000Y-22197000D01*
X42297000Y-22177000D01*
X42303000Y-22177000D01*
X42303000Y-22197000D01*
X42323000Y-22197000D01*
X42323000Y-22203000D01*
X42323000Y-22203000D01*
G37*
X42323000Y-22203000D02*
X42303000Y-22203000D01*
X42303000Y-22223000D01*
X42297000Y-22223000D01*
X42297000Y-22203000D01*
X40329750Y-22203000D01*
X40173000Y-22359750D01*
X40173000Y-22380222D01*
X38602000Y-20809222D01*
X38602000Y-18673910D01*
X39373000Y-19452253D01*
X39373000Y-20646521D01*
X40210070Y-21635785D01*
X40173000Y-21725282D01*
X40173000Y-22040250D01*
X40329750Y-22197000D01*
X42297000Y-22197000D01*
X42297000Y-22177000D01*
X42303000Y-22177000D01*
X42303000Y-22197000D01*
X42323000Y-22197000D01*
X42323000Y-22203000D01*
G36*
X42323000Y-25203000D02*
X42303000Y-25203000D01*
X42303000Y-25223000D01*
X42297000Y-25223000D01*
X42297000Y-25203000D01*
X40329750Y-25203000D01*
X40173000Y-25359750D01*
X40173000Y-25380222D01*
X35957002Y-21164224D01*
X35957002Y-18755002D01*
X35903565Y-18486359D01*
X35903565Y-18486358D01*
X35751391Y-18258613D01*
X35296389Y-17803611D01*
X35275500Y-17782722D01*
X35275500Y-17568278D01*
X36698000Y-18990778D01*
X36698000Y-21300000D01*
X36751437Y-21568644D01*
X36903611Y-21796389D01*
X39803611Y-24696389D01*
X40031356Y-24848563D01*
X40173000Y-24876737D01*
X40173000Y-25040250D01*
X40329750Y-25197000D01*
X42297000Y-25197000D01*
X42297000Y-25177000D01*
X42303000Y-25177000D01*
X42303000Y-25197000D01*
X42323000Y-25197000D01*
X42323000Y-25203000D01*
X42323000Y-25203000D01*
G37*
X42323000Y-25203000D02*
X42303000Y-25203000D01*
X42303000Y-25223000D01*
X42297000Y-25223000D01*
X42297000Y-25203000D01*
X40329750Y-25203000D01*
X40173000Y-25359750D01*
X40173000Y-25380222D01*
X35957002Y-21164224D01*
X35957002Y-18755002D01*
X35903565Y-18486359D01*
X35903565Y-18486358D01*
X35751391Y-18258613D01*
X35296389Y-17803611D01*
X35275500Y-17782722D01*
X35275500Y-17568278D01*
X36698000Y-18990778D01*
X36698000Y-21300000D01*
X36751437Y-21568644D01*
X36903611Y-21796389D01*
X39803611Y-24696389D01*
X40031356Y-24848563D01*
X40173000Y-24876737D01*
X40173000Y-25040250D01*
X40329750Y-25197000D01*
X42297000Y-25197000D01*
X42297000Y-25177000D01*
X42303000Y-25177000D01*
X42303000Y-25197000D01*
X42323000Y-25197000D01*
X42323000Y-25203000D01*
G36*
X42323000Y-28203000D02*
X42303000Y-28203000D01*
X42303000Y-28223000D01*
X42297000Y-28223000D01*
X42297000Y-28203000D01*
X40329750Y-28203000D01*
X40173000Y-28359750D01*
X40173000Y-28380222D01*
X35241387Y-23448609D01*
X35013642Y-23296435D01*
X34744998Y-23242998D01*
X33274000Y-23242998D01*
X33274000Y-23240764D01*
X33302000Y-23100000D01*
X33274000Y-22959235D01*
X33274000Y-22286728D01*
X33186157Y-22074656D01*
X33023845Y-21912343D01*
X32811773Y-21824500D01*
X32582228Y-21824500D01*
X31693228Y-21824500D01*
X31481156Y-21912343D01*
X31318843Y-22074655D01*
X31299999Y-22120146D01*
X31281157Y-22074656D01*
X31118845Y-21912343D01*
X30906773Y-21824500D01*
X30677228Y-21824500D01*
X29788228Y-21824500D01*
X29724000Y-21851104D01*
X29724000Y-21626782D01*
X29681840Y-21525000D01*
X29724000Y-21423218D01*
X29724000Y-21173782D01*
X29724000Y-20759750D01*
X29705471Y-20741221D01*
X29788227Y-20775500D01*
X30017772Y-20775500D01*
X30906772Y-20775500D01*
X31118844Y-20687657D01*
X31281157Y-20525345D01*
X31300000Y-20479853D01*
X31318843Y-20525344D01*
X31481155Y-20687657D01*
X31693227Y-20775500D01*
X31922772Y-20775500D01*
X32811772Y-20775500D01*
X33001060Y-20697094D01*
X33186727Y-20774000D01*
X33416272Y-20774000D01*
X34098000Y-20774000D01*
X34098000Y-21700000D01*
X34151437Y-21968644D01*
X34303611Y-22196389D01*
X39803611Y-27696389D01*
X40031356Y-27848563D01*
X40031357Y-27848564D01*
X40173000Y-27876738D01*
X40173000Y-28040250D01*
X40329750Y-28197000D01*
X42297000Y-28197000D01*
X42297000Y-28177000D01*
X42303000Y-28177000D01*
X42303000Y-28197000D01*
X42323000Y-28197000D01*
X42323000Y-28203000D01*
X42323000Y-28203000D01*
G37*
X42323000Y-28203000D02*
X42303000Y-28203000D01*
X42303000Y-28223000D01*
X42297000Y-28223000D01*
X42297000Y-28203000D01*
X40329750Y-28203000D01*
X40173000Y-28359750D01*
X40173000Y-28380222D01*
X35241387Y-23448609D01*
X35013642Y-23296435D01*
X34744998Y-23242998D01*
X33274000Y-23242998D01*
X33274000Y-23240764D01*
X33302000Y-23100000D01*
X33274000Y-22959235D01*
X33274000Y-22286728D01*
X33186157Y-22074656D01*
X33023845Y-21912343D01*
X32811773Y-21824500D01*
X32582228Y-21824500D01*
X31693228Y-21824500D01*
X31481156Y-21912343D01*
X31318843Y-22074655D01*
X31299999Y-22120146D01*
X31281157Y-22074656D01*
X31118845Y-21912343D01*
X30906773Y-21824500D01*
X30677228Y-21824500D01*
X29788228Y-21824500D01*
X29724000Y-21851104D01*
X29724000Y-21626782D01*
X29681840Y-21525000D01*
X29724000Y-21423218D01*
X29724000Y-21173782D01*
X29724000Y-20759750D01*
X29705471Y-20741221D01*
X29788227Y-20775500D01*
X30017772Y-20775500D01*
X30906772Y-20775500D01*
X31118844Y-20687657D01*
X31281157Y-20525345D01*
X31300000Y-20479853D01*
X31318843Y-20525344D01*
X31481155Y-20687657D01*
X31693227Y-20775500D01*
X31922772Y-20775500D01*
X32811772Y-20775500D01*
X33001060Y-20697094D01*
X33186727Y-20774000D01*
X33416272Y-20774000D01*
X34098000Y-20774000D01*
X34098000Y-21700000D01*
X34151437Y-21968644D01*
X34303611Y-22196389D01*
X39803611Y-27696389D01*
X40031356Y-27848563D01*
X40031357Y-27848564D01*
X40173000Y-27876738D01*
X40173000Y-28040250D01*
X40329750Y-28197000D01*
X42297000Y-28197000D01*
X42297000Y-28177000D01*
X42303000Y-28177000D01*
X42303000Y-28197000D01*
X42323000Y-28197000D01*
X42323000Y-28203000D01*
G36*
X49313000Y-9563000D02*
X44200000Y-9563000D01*
X44143297Y-9574279D01*
X44085483Y-9574279D01*
X43894141Y-9612339D01*
X43894138Y-9612339D01*
X43894137Y-9612340D01*
X43795856Y-9653049D01*
X43682539Y-9699987D01*
X43682537Y-9699988D01*
X43682536Y-9699989D01*
X43520325Y-9808376D01*
X43439350Y-9889350D01*
X43358376Y-9970325D01*
X43249989Y-10132536D01*
X43249988Y-10132537D01*
X43249987Y-10132539D01*
X43183607Y-10292794D01*
X43162340Y-10344137D01*
X43162339Y-10344137D01*
X43162339Y-10344140D01*
X43124279Y-10535483D01*
X43124279Y-10593292D01*
X43124279Y-10593295D01*
X43113000Y-10650000D01*
X43113000Y-10700000D01*
X43124279Y-10756704D01*
X43124279Y-10756707D01*
X43124279Y-10814517D01*
X43162339Y-11005860D01*
X43162339Y-11005862D01*
X43162340Y-11005863D01*
X43183607Y-11057206D01*
X43249987Y-11217461D01*
X43249988Y-11217462D01*
X43249989Y-11217464D01*
X43287097Y-11273000D01*
X40685228Y-11273000D01*
X40473156Y-11360843D01*
X40413388Y-11420610D01*
X39834612Y-10841834D01*
X40221569Y-10681947D01*
X40580686Y-10323456D01*
X40775279Y-9854826D01*
X40775721Y-9347400D01*
X40581947Y-8878431D01*
X40223456Y-8519314D01*
X39754826Y-8324721D01*
X39247400Y-8324279D01*
X38778431Y-8518053D01*
X38419314Y-8876544D01*
X38257943Y-9265165D01*
X33196389Y-4203611D01*
X32968644Y-4051437D01*
X32700000Y-3998000D01*
X18300000Y-3998000D01*
X17300000Y-3998000D01*
X12300000Y-3998000D01*
X12031357Y-4051436D01*
X11803611Y-4203611D01*
X11346886Y-4660335D01*
X11351347Y-4649593D01*
X11352650Y-3156955D01*
X10782645Y-1777439D01*
X9728112Y-721064D01*
X9405249Y-587000D01*
X44192921Y-587000D01*
X43877439Y-717355D01*
X42821064Y-1771888D01*
X42248653Y-3150407D01*
X42247350Y-4643045D01*
X42817355Y-6022561D01*
X43871888Y-7078936D01*
X45250407Y-7651347D01*
X46743045Y-7652650D01*
X48122561Y-7082645D01*
X49178936Y-6028112D01*
X49313000Y-5705249D01*
X49313000Y-9563000D01*
X49313000Y-9563000D01*
G37*
X49313000Y-9563000D02*
X44200000Y-9563000D01*
X44143297Y-9574279D01*
X44085483Y-9574279D01*
X43894141Y-9612339D01*
X43894138Y-9612339D01*
X43894137Y-9612340D01*
X43795856Y-9653049D01*
X43682539Y-9699987D01*
X43682537Y-9699988D01*
X43682536Y-9699989D01*
X43520325Y-9808376D01*
X43439350Y-9889350D01*
X43358376Y-9970325D01*
X43249989Y-10132536D01*
X43249988Y-10132537D01*
X43249987Y-10132539D01*
X43183607Y-10292794D01*
X43162340Y-10344137D01*
X43162339Y-10344137D01*
X43162339Y-10344140D01*
X43124279Y-10535483D01*
X43124279Y-10593292D01*
X43124279Y-10593295D01*
X43113000Y-10650000D01*
X43113000Y-10700000D01*
X43124279Y-10756704D01*
X43124279Y-10756707D01*
X43124279Y-10814517D01*
X43162339Y-11005860D01*
X43162339Y-11005862D01*
X43162340Y-11005863D01*
X43183607Y-11057206D01*
X43249987Y-11217461D01*
X43249988Y-11217462D01*
X43249989Y-11217464D01*
X43287097Y-11273000D01*
X40685228Y-11273000D01*
X40473156Y-11360843D01*
X40413388Y-11420610D01*
X39834612Y-10841834D01*
X40221569Y-10681947D01*
X40580686Y-10323456D01*
X40775279Y-9854826D01*
X40775721Y-9347400D01*
X40581947Y-8878431D01*
X40223456Y-8519314D01*
X39754826Y-8324721D01*
X39247400Y-8324279D01*
X38778431Y-8518053D01*
X38419314Y-8876544D01*
X38257943Y-9265165D01*
X33196389Y-4203611D01*
X32968644Y-4051437D01*
X32700000Y-3998000D01*
X18300000Y-3998000D01*
X17300000Y-3998000D01*
X12300000Y-3998000D01*
X12031357Y-4051436D01*
X11803611Y-4203611D01*
X11346886Y-4660335D01*
X11351347Y-4649593D01*
X11352650Y-3156955D01*
X10782645Y-1777439D01*
X9728112Y-721064D01*
X9405249Y-587000D01*
X44192921Y-587000D01*
X43877439Y-717355D01*
X42821064Y-1771888D01*
X42248653Y-3150407D01*
X42247350Y-4643045D01*
X42817355Y-6022561D01*
X43871888Y-7078936D01*
X45250407Y-7651347D01*
X46743045Y-7652650D01*
X48122561Y-7082645D01*
X49178936Y-6028112D01*
X49313000Y-5705249D01*
X49313000Y-9563000D01*
G36*
X49313000Y-40901205D02*
X49180108Y-40579582D01*
X48722825Y-40121501D01*
X48125050Y-39873283D01*
X47477789Y-39872718D01*
X46879582Y-40119892D01*
X46421501Y-40577175D01*
X46173283Y-41174950D01*
X46172718Y-41822211D01*
X46348775Y-42248303D01*
X45256955Y-42247350D01*
X43877439Y-42817355D01*
X42821064Y-43871888D01*
X42297000Y-45133974D01*
X42297000Y-32020250D01*
X42297000Y-31203000D01*
X40329750Y-31203000D01*
X40173000Y-31359750D01*
X40173000Y-31674718D01*
X40268455Y-31905167D01*
X40444833Y-32081545D01*
X40675282Y-32177000D01*
X40924718Y-32177000D01*
X42140250Y-32177000D01*
X42297000Y-32020250D01*
X42297000Y-45133974D01*
X42248653Y-45250407D01*
X42247350Y-46743045D01*
X42817355Y-48122561D01*
X43871888Y-49178936D01*
X44194750Y-49313000D01*
X42044501Y-49313000D01*
X42117000Y-48948527D01*
X42117000Y-46651473D01*
X42012182Y-46124518D01*
X41713686Y-45677787D01*
X41343000Y-45430102D01*
X41343000Y-37335718D01*
X41343000Y-36608750D01*
X41343000Y-36289250D01*
X41343000Y-35562282D01*
X41247545Y-35331833D01*
X41071167Y-35155455D01*
X40840718Y-35060000D01*
X40591282Y-35060000D01*
X39859750Y-35060000D01*
X39703000Y-35216750D01*
X39703000Y-36446000D01*
X41186250Y-36446000D01*
X41343000Y-36289250D01*
X41343000Y-36608750D01*
X41186250Y-36452000D01*
X39703000Y-36452000D01*
X39703000Y-37681250D01*
X39859750Y-37838000D01*
X40591282Y-37838000D01*
X40840718Y-37838000D01*
X41071167Y-37742545D01*
X41247545Y-37566167D01*
X41343000Y-37335718D01*
X41343000Y-45430102D01*
X41266955Y-45379291D01*
X41248784Y-45375676D01*
X40577000Y-44703892D01*
X40577000Y-43100709D01*
X40624803Y-43052990D01*
X40827339Y-42565229D01*
X40827800Y-42037088D01*
X40626116Y-41548974D01*
X40252990Y-41175197D01*
X40047812Y-41090000D01*
X40830772Y-41090000D01*
X41042844Y-41002157D01*
X41205157Y-40839845D01*
X41293000Y-40627773D01*
X41293000Y-40398228D01*
X41293000Y-38874228D01*
X41205157Y-38662156D01*
X41042845Y-38499843D01*
X40830773Y-38412000D01*
X40601228Y-38412000D01*
X38725500Y-38412000D01*
X38725500Y-38007250D01*
X38568750Y-37850500D01*
X37403000Y-37850500D01*
X37403000Y-37870500D01*
X37397000Y-37870500D01*
X37397000Y-37850500D01*
X36568750Y-37850500D01*
X36231250Y-37850500D01*
X35403000Y-37850500D01*
X35403000Y-37870500D01*
X35397000Y-37870500D01*
X35397000Y-37850500D01*
X35377000Y-37850500D01*
X35377000Y-37844500D01*
X35397000Y-37844500D01*
X35397000Y-37824500D01*
X35403000Y-37824500D01*
X35403000Y-37844500D01*
X36231250Y-37844500D01*
X36568750Y-37844500D01*
X37397000Y-37844500D01*
X37397000Y-37824500D01*
X37403000Y-37824500D01*
X37403000Y-37844500D01*
X38568750Y-37844500D01*
X38575250Y-37838000D01*
X38808718Y-37838000D01*
X39540250Y-37838000D01*
X39697000Y-37681250D01*
X39697000Y-36452000D01*
X39677000Y-36452000D01*
X39677000Y-36446000D01*
X39697000Y-36446000D01*
X39697000Y-35216750D01*
X39540250Y-35060000D01*
X38808718Y-35060000D01*
X38559282Y-35060000D01*
X38328833Y-35155455D01*
X38152455Y-35331833D01*
X38086833Y-35490257D01*
X38081947Y-35478431D01*
X37723456Y-35119314D01*
X37254826Y-34924721D01*
X36747400Y-34924279D01*
X36278431Y-35118053D01*
X36273475Y-35123000D01*
X34663922Y-35123000D01*
X34775279Y-34854826D01*
X34775721Y-34347400D01*
X34581947Y-33878431D01*
X34223456Y-33519314D01*
X33754826Y-33324721D01*
X33247400Y-33324279D01*
X32778431Y-33518053D01*
X32773475Y-33523000D01*
X32600000Y-33523000D01*
X32187850Y-33604982D01*
X31838446Y-33838446D01*
X31275674Y-34401217D01*
X31275721Y-34347400D01*
X31081947Y-33878431D01*
X30723456Y-33519314D01*
X30254826Y-33324721D01*
X29747400Y-33324279D01*
X29278431Y-33518053D01*
X28919314Y-33876544D01*
X28724721Y-34345174D01*
X28724714Y-34352177D01*
X28638446Y-34438446D01*
X28404982Y-34787850D01*
X28402132Y-34802175D01*
X26716690Y-32936151D01*
X26801329Y-32851513D01*
X27878960Y-31773883D01*
X27966803Y-31561811D01*
X27966803Y-31332266D01*
X27878960Y-31120194D01*
X27716647Y-30957881D01*
X26279806Y-29521040D01*
X26067735Y-29433197D01*
X25838190Y-29433197D01*
X25626118Y-29521040D01*
X25502535Y-29644623D01*
X25280870Y-29422958D01*
X25723861Y-28979969D01*
X25811704Y-28767897D01*
X25811705Y-28538352D01*
X25792862Y-28492861D01*
X25838351Y-28511704D01*
X26067896Y-28511705D01*
X26279968Y-28423861D01*
X26442281Y-28261549D01*
X26622958Y-28080871D01*
X26844622Y-28302534D01*
X26721040Y-28426117D01*
X26633197Y-28638189D01*
X26633197Y-28867734D01*
X26721040Y-29079806D01*
X26883353Y-29242119D01*
X28320194Y-30678960D01*
X28532265Y-30766803D01*
X28761810Y-30766803D01*
X28973882Y-30678960D01*
X29136195Y-30516647D01*
X30213826Y-29439017D01*
X30301669Y-29226945D01*
X30301669Y-28997400D01*
X30213826Y-28785328D01*
X30051513Y-28623015D01*
X28614672Y-27186174D01*
X28402601Y-27098331D01*
X28173056Y-27098331D01*
X27960984Y-27186174D01*
X27837401Y-27309757D01*
X27021331Y-26493687D01*
X27021677Y-26097703D01*
X26866490Y-25722123D01*
X26579389Y-25434520D01*
X26338014Y-25334292D01*
X26371322Y-25254080D01*
X26371629Y-24902000D01*
X28112008Y-24902000D01*
X28331356Y-25048563D01*
X28331357Y-25048563D01*
X28600000Y-25102000D01*
X29326000Y-25102000D01*
X29326000Y-25813272D01*
X29413843Y-26025344D01*
X29576155Y-26187657D01*
X29788227Y-26275500D01*
X30017772Y-26275500D01*
X30906772Y-26275500D01*
X31118844Y-26187657D01*
X31281157Y-26025345D01*
X31300000Y-25979853D01*
X31318843Y-26025344D01*
X31481155Y-26187657D01*
X31693227Y-26275500D01*
X31922772Y-26275500D01*
X32811772Y-26275500D01*
X33023844Y-26187657D01*
X33186157Y-26025345D01*
X33274000Y-25813273D01*
X33274000Y-25583728D01*
X33274000Y-25102000D01*
X34209222Y-25102000D01*
X39803611Y-30696389D01*
X40031356Y-30848563D01*
X40031357Y-30848564D01*
X40173000Y-30876738D01*
X40173000Y-31040250D01*
X40329750Y-31197000D01*
X42297000Y-31197000D01*
X42297000Y-31177000D01*
X42303000Y-31177000D01*
X42303000Y-31197000D01*
X42323000Y-31197000D01*
X42323000Y-31203000D01*
X42303000Y-31203000D01*
X42303000Y-32020250D01*
X42459750Y-32177000D01*
X43253688Y-32177000D01*
X43249989Y-32182536D01*
X43249988Y-32182537D01*
X43249987Y-32182539D01*
X43183607Y-32342794D01*
X43162340Y-32394137D01*
X43162339Y-32394137D01*
X43162339Y-32394140D01*
X43124279Y-32585483D01*
X43124279Y-32643292D01*
X43124279Y-32643295D01*
X43113000Y-32700000D01*
X43113000Y-32750000D01*
X43124279Y-32806704D01*
X43124279Y-32806707D01*
X43124279Y-32864517D01*
X43162339Y-33055860D01*
X43162339Y-33055862D01*
X43162340Y-33055863D01*
X43183607Y-33107206D01*
X43249987Y-33267461D01*
X43249988Y-33267462D01*
X43249989Y-33267464D01*
X43358373Y-33429670D01*
X43358376Y-33429675D01*
X43439350Y-33510649D01*
X43520325Y-33591624D01*
X43520330Y-33591627D01*
X43682536Y-33700011D01*
X43682537Y-33700011D01*
X43682539Y-33700013D01*
X43795856Y-33746950D01*
X43894137Y-33787660D01*
X43894138Y-33787660D01*
X43894141Y-33787661D01*
X44085483Y-33825721D01*
X44143297Y-33825721D01*
X44200000Y-33837000D01*
X49313000Y-33837000D01*
X49313000Y-40901205D01*
X49313000Y-40901205D01*
G37*
X49313000Y-40901205D02*
X49180108Y-40579582D01*
X48722825Y-40121501D01*
X48125050Y-39873283D01*
X47477789Y-39872718D01*
X46879582Y-40119892D01*
X46421501Y-40577175D01*
X46173283Y-41174950D01*
X46172718Y-41822211D01*
X46348775Y-42248303D01*
X45256955Y-42247350D01*
X43877439Y-42817355D01*
X42821064Y-43871888D01*
X42297000Y-45133974D01*
X42297000Y-32020250D01*
X42297000Y-31203000D01*
X40329750Y-31203000D01*
X40173000Y-31359750D01*
X40173000Y-31674718D01*
X40268455Y-31905167D01*
X40444833Y-32081545D01*
X40675282Y-32177000D01*
X40924718Y-32177000D01*
X42140250Y-32177000D01*
X42297000Y-32020250D01*
X42297000Y-45133974D01*
X42248653Y-45250407D01*
X42247350Y-46743045D01*
X42817355Y-48122561D01*
X43871888Y-49178936D01*
X44194750Y-49313000D01*
X42044501Y-49313000D01*
X42117000Y-48948527D01*
X42117000Y-46651473D01*
X42012182Y-46124518D01*
X41713686Y-45677787D01*
X41343000Y-45430102D01*
X41343000Y-37335718D01*
X41343000Y-36608750D01*
X41343000Y-36289250D01*
X41343000Y-35562282D01*
X41247545Y-35331833D01*
X41071167Y-35155455D01*
X40840718Y-35060000D01*
X40591282Y-35060000D01*
X39859750Y-35060000D01*
X39703000Y-35216750D01*
X39703000Y-36446000D01*
X41186250Y-36446000D01*
X41343000Y-36289250D01*
X41343000Y-36608750D01*
X41186250Y-36452000D01*
X39703000Y-36452000D01*
X39703000Y-37681250D01*
X39859750Y-37838000D01*
X40591282Y-37838000D01*
X40840718Y-37838000D01*
X41071167Y-37742545D01*
X41247545Y-37566167D01*
X41343000Y-37335718D01*
X41343000Y-45430102D01*
X41266955Y-45379291D01*
X41248784Y-45375676D01*
X40577000Y-44703892D01*
X40577000Y-43100709D01*
X40624803Y-43052990D01*
X40827339Y-42565229D01*
X40827800Y-42037088D01*
X40626116Y-41548974D01*
X40252990Y-41175197D01*
X40047812Y-41090000D01*
X40830772Y-41090000D01*
X41042844Y-41002157D01*
X41205157Y-40839845D01*
X41293000Y-40627773D01*
X41293000Y-40398228D01*
X41293000Y-38874228D01*
X41205157Y-38662156D01*
X41042845Y-38499843D01*
X40830773Y-38412000D01*
X40601228Y-38412000D01*
X38725500Y-38412000D01*
X38725500Y-38007250D01*
X38568750Y-37850500D01*
X37403000Y-37850500D01*
X37403000Y-37870500D01*
X37397000Y-37870500D01*
X37397000Y-37850500D01*
X36568750Y-37850500D01*
X36231250Y-37850500D01*
X35403000Y-37850500D01*
X35403000Y-37870500D01*
X35397000Y-37870500D01*
X35397000Y-37850500D01*
X35377000Y-37850500D01*
X35377000Y-37844500D01*
X35397000Y-37844500D01*
X35397000Y-37824500D01*
X35403000Y-37824500D01*
X35403000Y-37844500D01*
X36231250Y-37844500D01*
X36568750Y-37844500D01*
X37397000Y-37844500D01*
X37397000Y-37824500D01*
X37403000Y-37824500D01*
X37403000Y-37844500D01*
X38568750Y-37844500D01*
X38575250Y-37838000D01*
X38808718Y-37838000D01*
X39540250Y-37838000D01*
X39697000Y-37681250D01*
X39697000Y-36452000D01*
X39677000Y-36452000D01*
X39677000Y-36446000D01*
X39697000Y-36446000D01*
X39697000Y-35216750D01*
X39540250Y-35060000D01*
X38808718Y-35060000D01*
X38559282Y-35060000D01*
X38328833Y-35155455D01*
X38152455Y-35331833D01*
X38086833Y-35490257D01*
X38081947Y-35478431D01*
X37723456Y-35119314D01*
X37254826Y-34924721D01*
X36747400Y-34924279D01*
X36278431Y-35118053D01*
X36273475Y-35123000D01*
X34663922Y-35123000D01*
X34775279Y-34854826D01*
X34775721Y-34347400D01*
X34581947Y-33878431D01*
X34223456Y-33519314D01*
X33754826Y-33324721D01*
X33247400Y-33324279D01*
X32778431Y-33518053D01*
X32773475Y-33523000D01*
X32600000Y-33523000D01*
X32187850Y-33604982D01*
X31838446Y-33838446D01*
X31275674Y-34401217D01*
X31275721Y-34347400D01*
X31081947Y-33878431D01*
X30723456Y-33519314D01*
X30254826Y-33324721D01*
X29747400Y-33324279D01*
X29278431Y-33518053D01*
X28919314Y-33876544D01*
X28724721Y-34345174D01*
X28724714Y-34352177D01*
X28638446Y-34438446D01*
X28404982Y-34787850D01*
X28402132Y-34802175D01*
X26716690Y-32936151D01*
X26801329Y-32851513D01*
X27878960Y-31773883D01*
X27966803Y-31561811D01*
X27966803Y-31332266D01*
X27878960Y-31120194D01*
X27716647Y-30957881D01*
X26279806Y-29521040D01*
X26067735Y-29433197D01*
X25838190Y-29433197D01*
X25626118Y-29521040D01*
X25502535Y-29644623D01*
X25280870Y-29422958D01*
X25723861Y-28979969D01*
X25811704Y-28767897D01*
X25811705Y-28538352D01*
X25792862Y-28492861D01*
X25838351Y-28511704D01*
X26067896Y-28511705D01*
X26279968Y-28423861D01*
X26442281Y-28261549D01*
X26622958Y-28080871D01*
X26844622Y-28302534D01*
X26721040Y-28426117D01*
X26633197Y-28638189D01*
X26633197Y-28867734D01*
X26721040Y-29079806D01*
X26883353Y-29242119D01*
X28320194Y-30678960D01*
X28532265Y-30766803D01*
X28761810Y-30766803D01*
X28973882Y-30678960D01*
X29136195Y-30516647D01*
X30213826Y-29439017D01*
X30301669Y-29226945D01*
X30301669Y-28997400D01*
X30213826Y-28785328D01*
X30051513Y-28623015D01*
X28614672Y-27186174D01*
X28402601Y-27098331D01*
X28173056Y-27098331D01*
X27960984Y-27186174D01*
X27837401Y-27309757D01*
X27021331Y-26493687D01*
X27021677Y-26097703D01*
X26866490Y-25722123D01*
X26579389Y-25434520D01*
X26338014Y-25334292D01*
X26371322Y-25254080D01*
X26371629Y-24902000D01*
X28112008Y-24902000D01*
X28331356Y-25048563D01*
X28331357Y-25048563D01*
X28600000Y-25102000D01*
X29326000Y-25102000D01*
X29326000Y-25813272D01*
X29413843Y-26025344D01*
X29576155Y-26187657D01*
X29788227Y-26275500D01*
X30017772Y-26275500D01*
X30906772Y-26275500D01*
X31118844Y-26187657D01*
X31281157Y-26025345D01*
X31300000Y-25979853D01*
X31318843Y-26025344D01*
X31481155Y-26187657D01*
X31693227Y-26275500D01*
X31922772Y-26275500D01*
X32811772Y-26275500D01*
X33023844Y-26187657D01*
X33186157Y-26025345D01*
X33274000Y-25813273D01*
X33274000Y-25583728D01*
X33274000Y-25102000D01*
X34209222Y-25102000D01*
X39803611Y-30696389D01*
X40031356Y-30848563D01*
X40031357Y-30848564D01*
X40173000Y-30876738D01*
X40173000Y-31040250D01*
X40329750Y-31197000D01*
X42297000Y-31197000D01*
X42297000Y-31177000D01*
X42303000Y-31177000D01*
X42303000Y-31197000D01*
X42323000Y-31197000D01*
X42323000Y-31203000D01*
X42303000Y-31203000D01*
X42303000Y-32020250D01*
X42459750Y-32177000D01*
X43253688Y-32177000D01*
X43249989Y-32182536D01*
X43249988Y-32182537D01*
X43249987Y-32182539D01*
X43183607Y-32342794D01*
X43162340Y-32394137D01*
X43162339Y-32394137D01*
X43162339Y-32394140D01*
X43124279Y-32585483D01*
X43124279Y-32643292D01*
X43124279Y-32643295D01*
X43113000Y-32700000D01*
X43113000Y-32750000D01*
X43124279Y-32806704D01*
X43124279Y-32806707D01*
X43124279Y-32864517D01*
X43162339Y-33055860D01*
X43162339Y-33055862D01*
X43162340Y-33055863D01*
X43183607Y-33107206D01*
X43249987Y-33267461D01*
X43249988Y-33267462D01*
X43249989Y-33267464D01*
X43358373Y-33429670D01*
X43358376Y-33429675D01*
X43439350Y-33510649D01*
X43520325Y-33591624D01*
X43520330Y-33591627D01*
X43682536Y-33700011D01*
X43682537Y-33700011D01*
X43682539Y-33700013D01*
X43795856Y-33746950D01*
X43894137Y-33787660D01*
X43894138Y-33787660D01*
X43894141Y-33787661D01*
X44085483Y-33825721D01*
X44143297Y-33825721D01*
X44200000Y-33837000D01*
X49313000Y-33837000D01*
X49313000Y-40901205D01*
M02*
