%FSLAX46Y46*%
G04 Gerber Fmt 4.6, Leading zero omitted, Abs format (unit mm)*
G04 Created by KiCad (PCBNEW (2014-08-05 BZR 5054)-product) date Sun 07 Dec 2014 10:24:09 PM PST*
%MOMM*%
G01*
G04 APERTURE LIST*
%ADD10C,0.100000*%
%ADD11R,3.000000X0.700000*%
%ADD12R,0.914400X0.304800*%
%ADD13R,0.304800X0.914400*%
%ADD14R,7.239000X7.239000*%
%ADD15R,0.889000X1.397000*%
%ADD16R,1.550000X1.950000*%
%ADD17R,2.000000X0.400000*%
%ADD18R,1.397000X0.889000*%
%ADD19C,1.501140*%
%ADD20C,6.350000*%
%ADD21R,2.032000X1.524000*%
%ADD22C,1.000000*%
%ADD23C,1.800000*%
%ADD24O,1.600000X3.800000*%
%ADD25C,3.000000*%
%ADD26C,5.000000*%
%ADD27C,1.397000*%
%ADD28C,0.889000*%
G04 APERTURE END LIST*
D10*
D11*
X42300000Y-31200000D03*
X42300000Y-30200000D03*
X42300000Y-29200000D03*
X42300000Y-28200000D03*
X42300000Y-27200000D03*
X42300000Y-26200000D03*
X42300000Y-25200000D03*
X42300000Y-24200000D03*
X42300000Y-23200000D03*
X42300000Y-22200000D03*
X42300000Y-21200000D03*
X42300000Y-18200000D03*
X42300000Y-17200000D03*
X42300000Y-16200000D03*
X42300000Y-15200000D03*
X42300000Y-14200000D03*
X42300000Y-13200000D03*
X42300000Y-12200000D03*
D10*
G36*
X14900704Y-18370445D02*
X15814616Y-18406401D01*
X15809645Y-18691158D01*
X14895035Y-18695196D01*
X14900704Y-18370445D01*
X14900704Y-18370445D01*
G37*
D12*
X15355000Y-19048800D03*
X15355000Y-19556800D03*
X15355000Y-20039400D03*
X15355000Y-20547400D03*
X15355000Y-21055400D03*
X15355000Y-21538000D03*
X15355000Y-22046000D03*
X15355000Y-22554000D03*
X15355000Y-23062000D03*
X15355000Y-23544600D03*
X15355000Y-24052600D03*
X15355000Y-24560600D03*
X15355000Y-25043200D03*
X15355000Y-25551200D03*
D10*
G36*
X14895035Y-25904804D02*
X15809645Y-25908842D01*
X15814616Y-26193599D01*
X14900704Y-26229555D01*
X14895035Y-25904804D01*
X14895035Y-25904804D01*
G37*
G36*
X16191158Y-26290355D02*
X16195196Y-27204965D01*
X15870445Y-27199296D01*
X15906401Y-26285384D01*
X16191158Y-26290355D01*
X16191158Y-26290355D01*
G37*
D13*
X16548800Y-26745000D03*
X17056800Y-26745000D03*
X17539400Y-26745000D03*
X18047400Y-26745000D03*
X18555400Y-26745000D03*
X19038000Y-26745000D03*
X19546000Y-26745000D03*
X20054000Y-26745000D03*
X20562000Y-26745000D03*
X21044600Y-26745000D03*
X21552600Y-26745000D03*
X22060600Y-26745000D03*
X22543200Y-26745000D03*
X23051200Y-26745000D03*
D10*
G36*
X23693599Y-26285384D02*
X23729555Y-27199296D01*
X23404804Y-27204965D01*
X23408842Y-26290355D01*
X23693599Y-26285384D01*
X23693599Y-26285384D01*
G37*
G36*
X23790355Y-25908842D02*
X24704965Y-25904804D01*
X24699296Y-26229555D01*
X23785384Y-26193599D01*
X23790355Y-25908842D01*
X23790355Y-25908842D01*
G37*
D12*
X24245000Y-25551200D03*
X24245000Y-25043200D03*
X24245000Y-24560600D03*
X24245000Y-24052600D03*
X24245000Y-23544600D03*
X24245000Y-23062000D03*
X24245000Y-22554000D03*
X24245000Y-22046000D03*
X24245000Y-21538000D03*
X24245000Y-21055400D03*
X24245000Y-20547400D03*
X24245000Y-20039400D03*
X24245000Y-19556800D03*
X24245000Y-19048800D03*
D10*
G36*
X23785384Y-18406401D02*
X24699296Y-18370445D01*
X24704965Y-18695196D01*
X23790355Y-18691158D01*
X23785384Y-18406401D01*
X23785384Y-18406401D01*
G37*
G36*
X23729555Y-17400704D02*
X23693599Y-18314616D01*
X23408842Y-18309645D01*
X23404804Y-17395035D01*
X23729555Y-17400704D01*
X23729555Y-17400704D01*
G37*
D13*
X23051200Y-17855000D03*
X22543200Y-17855000D03*
X22060600Y-17855000D03*
X21552600Y-17855000D03*
X21044600Y-17855000D03*
X20562000Y-17855000D03*
X20054000Y-17855000D03*
X19546000Y-17855000D03*
X19038000Y-17855000D03*
X18555400Y-17855000D03*
X18047400Y-17855000D03*
X17539400Y-17855000D03*
X17056800Y-17855000D03*
X16548800Y-17855000D03*
D10*
G36*
X16195196Y-17395035D02*
X16191158Y-18309645D01*
X15906401Y-18314616D01*
X15870445Y-17400704D01*
X16195196Y-17395035D01*
X16195196Y-17395035D01*
G37*
D14*
X19800000Y-22300000D03*
D15*
X26747500Y-20600000D03*
X28652500Y-20600000D03*
D10*
G36*
X25593914Y-26318258D02*
X26581742Y-27306086D01*
X25953124Y-27934704D01*
X24965296Y-26946876D01*
X25593914Y-26318258D01*
X25593914Y-26318258D01*
G37*
G36*
X24246876Y-27665296D02*
X25234704Y-28653124D01*
X24606086Y-29281742D01*
X23618258Y-28293914D01*
X24246876Y-27665296D01*
X24246876Y-27665296D01*
G37*
G36*
X28287828Y-27675331D02*
X29724669Y-29112172D01*
X28647038Y-30189803D01*
X27210197Y-28752962D01*
X28287828Y-27675331D01*
X28287828Y-27675331D01*
G37*
G36*
X25952962Y-30010197D02*
X27389803Y-31447038D01*
X26312172Y-32524669D01*
X24875331Y-31087828D01*
X25952962Y-30010197D01*
X25952962Y-30010197D01*
G37*
D16*
X24640000Y-9850000D03*
X19560000Y-9850000D03*
X19560000Y-14050000D03*
X24640000Y-14050000D03*
D15*
X28652500Y-22450000D03*
X26747500Y-22450000D03*
D17*
X3500000Y-12567500D03*
X11500000Y-12567500D03*
X3500000Y-13202500D03*
X11500000Y-13202500D03*
X3500000Y-13837500D03*
X11500000Y-13837500D03*
X3500000Y-14472500D03*
X11500000Y-14472500D03*
X3500000Y-15107500D03*
X11500000Y-15107500D03*
X3500000Y-15742500D03*
X11500000Y-15742500D03*
X3500000Y-16377500D03*
X11500000Y-16377500D03*
X3500000Y-17012500D03*
X11500000Y-17012500D03*
X3500000Y-17647500D03*
X11500000Y-17647500D03*
X3500000Y-18282500D03*
X11500000Y-18282500D03*
X3500000Y-18917500D03*
X11500000Y-18917500D03*
X3500000Y-19552500D03*
X11500000Y-19552500D03*
X3500000Y-20187500D03*
X11500000Y-20187500D03*
X3500000Y-20822500D03*
X11500000Y-20822500D03*
X3500000Y-21457500D03*
X11500000Y-21457500D03*
X3500000Y-22092500D03*
X11500000Y-22092500D03*
X3500000Y-22727500D03*
X11500000Y-22727500D03*
X3500000Y-23362500D03*
X11500000Y-23362500D03*
X3500000Y-23997500D03*
X11500000Y-23997500D03*
X3500000Y-24632500D03*
X11500000Y-24632500D03*
X3500000Y-25267500D03*
X11500000Y-25267500D03*
X3500000Y-25902500D03*
X11500000Y-25902500D03*
X3500000Y-26537500D03*
X11500000Y-26537500D03*
X3500000Y-27172500D03*
X11500000Y-27172500D03*
X3500000Y-27807500D03*
X11500000Y-27807500D03*
X3500000Y-28442500D03*
X11500000Y-28442500D03*
X3500000Y-29077500D03*
X11500000Y-29077500D03*
X3500000Y-29712500D03*
X11500000Y-29712500D03*
X3500000Y-30347500D03*
X11500000Y-30347500D03*
X3500000Y-30982500D03*
X11500000Y-30982500D03*
X3500000Y-31617500D03*
X11500000Y-31617500D03*
X3500000Y-32252500D03*
X11500000Y-32252500D03*
X3500000Y-32887500D03*
X11500000Y-32887500D03*
X3500000Y-33522500D03*
X11500000Y-33522500D03*
X3500000Y-34157500D03*
X11500000Y-34157500D03*
X3500000Y-34792500D03*
X11500000Y-34792500D03*
X3500000Y-35427500D03*
X11500000Y-35427500D03*
X3500000Y-36062500D03*
X11500000Y-36062500D03*
X3500000Y-36697500D03*
X11500000Y-36697500D03*
X3500000Y-37332500D03*
X11500000Y-37332500D03*
D15*
X32252500Y-25000000D03*
X30347500Y-25000000D03*
X32252500Y-23100000D03*
X30347500Y-23100000D03*
D18*
X29400000Y-39752500D03*
X29400000Y-37847500D03*
X31400000Y-39752500D03*
X31400000Y-37847500D03*
X33400000Y-39752500D03*
X33400000Y-37847500D03*
X27100000Y-39752500D03*
X27100000Y-37847500D03*
D15*
X32252500Y-16900000D03*
X30347500Y-16900000D03*
X32252500Y-19500000D03*
X30347500Y-19500000D03*
D19*
X28100000Y-42300000D03*
X35700000Y-42300000D03*
X31900000Y-42300000D03*
X39500000Y-42300000D03*
D20*
X7600000Y-46000000D03*
X7600000Y-3900000D03*
X46000000Y-3900000D03*
X46000000Y-46000000D03*
D18*
X35400000Y-39752500D03*
X35400000Y-37847500D03*
X25100000Y-39752500D03*
X25100000Y-37847500D03*
X37400000Y-39752500D03*
X37400000Y-37847500D03*
X23100000Y-39752500D03*
X23100000Y-37847500D03*
D21*
X39700000Y-39751000D03*
X39700000Y-36449000D03*
X20800000Y-39751000D03*
X20800000Y-36449000D03*
D18*
X34000000Y-17847500D03*
X34000000Y-19752500D03*
D22*
X13400000Y-16100000D03*
D18*
X27500000Y-13947500D03*
X27500000Y-15852500D03*
D23*
X18050000Y-40650000D03*
X15510000Y-40650000D03*
X15550000Y-38100000D03*
X18090000Y-38100000D03*
X16150000Y-12100000D03*
X16150000Y-9560000D03*
D22*
X13400000Y-35150000D03*
X1550000Y-22700000D03*
X1550000Y-24300000D03*
X1550000Y-25650000D03*
X1550000Y-35800000D03*
D24*
X25500000Y-47800000D03*
X22960000Y-47800000D03*
X20420000Y-47800000D03*
X17880000Y-47800000D03*
X15340000Y-47800000D03*
X12800000Y-47800000D03*
D19*
X22450000Y-43300000D03*
X24350000Y-43300000D03*
X26250000Y-43300000D03*
D24*
X40740000Y-47800000D03*
X38200000Y-47800000D03*
X35660000Y-47800000D03*
X33120000Y-47800000D03*
X30580000Y-47800000D03*
X28040000Y-47800000D03*
D25*
X47800000Y-41500000D03*
X2000000Y-2000000D03*
D19*
X26250000Y-41450000D03*
D26*
X19800000Y-22300000D03*
D27*
X30000000Y-34600000D03*
D28*
X25350000Y-25050000D03*
X25500000Y-22850000D03*
D27*
X33500000Y-34600000D03*
D28*
X25500000Y-20750000D03*
D27*
X37000000Y-36200000D03*
D28*
X19100000Y-16200000D03*
X23550000Y-14100000D03*
X4900000Y-7300000D03*
D27*
X39500000Y-9600000D03*
X27100000Y-36100000D03*
D28*
X16100000Y-15852500D03*
X15600000Y-17100000D03*
X14800000Y-27000000D03*
X5800000Y-26400000D03*
X16150000Y-14300000D03*
X1700000Y-28200000D03*
X6300000Y-24250000D03*
X1700000Y-34450000D03*
X35500000Y-5400000D03*
X41700000Y-37500000D03*
X39500000Y-5400000D03*
X1700000Y-14000000D03*
X1675000Y-20825000D03*
X1700000Y-31100000D03*
X39700000Y-35300000D03*
X22300000Y-36900000D03*
X40000000Y-22000000D03*
X40000000Y-25000000D03*
X40000000Y-28000000D03*
X40000000Y-31200000D03*
X29500000Y-21000000D03*
X16900000Y-19400000D03*
X19100000Y-19400000D03*
X21400000Y-19400000D03*
X22900000Y-19400000D03*
X16900000Y-25200000D03*
X19100000Y-25200000D03*
X21400000Y-25200000D03*
X22900000Y-25200000D03*
X22900000Y-23500000D03*
X22900000Y-21300000D03*
X16900000Y-21300000D03*
X16900000Y-23500000D03*
X26200000Y-28900000D03*
X19600000Y-12200000D03*
X28050000Y-25650000D03*
X23550000Y-9900000D03*
X9600000Y-20800000D03*
X9700000Y-31000000D03*
X9500000Y-26100000D03*
X14000000Y-45800000D03*
D27*
X41500000Y-10500000D03*
X29700000Y-42300000D03*
D28*
X26000000Y-26300000D03*
X23600000Y-28700000D03*
D27*
X3500000Y-38600000D03*
D28*
X16600000Y-45500000D03*
X19150000Y-45500000D03*
X21650000Y-45500000D03*
X7100000Y-25300000D03*
X8900000Y-28900000D03*
X15450000Y-35450000D03*
X5200000Y-35500000D03*
X13700000Y-27000000D03*
D27*
X1900000Y-42400000D03*
X2650000Y-8700000D03*
X41550000Y-19700000D03*
D28*
X16050000Y-27900000D03*
D27*
X2800000Y-11500000D03*
X11500000Y-11200000D03*
D28*
X1700000Y-26900000D03*
X6600000Y-28300000D03*
X1700000Y-29700000D03*
X5400000Y-30900000D03*
X3500000Y-40750000D03*
M02*
