%FSLAX46Y46*%
G04 Gerber Fmt 4.6, Leading zero omitted, Abs format (unit mm)*
G04 Created by KiCad (PCBNEW (2014-08-05 BZR 5054)-product) date Sun 07 Dec 2014 10:24:09 PM PST*
%MOMM*%
G01*
G04 APERTURE LIST*
%ADD10C,0.100000*%
%ADD11C,0.150000*%
%ADD12C,0.152400*%
%ADD13C,0.099060*%
%ADD14C,0.127000*%
%ADD15C,0.002540*%
G04 APERTURE END LIST*
D10*
X40880953Y-42752381D02*
X40309524Y-42752381D01*
X40595238Y-42752381D02*
X40595238Y-41752381D01*
X40500000Y-41895238D01*
X40404762Y-41990476D01*
X40309524Y-42038095D01*
X41261905Y-41847619D02*
X41309524Y-41800000D01*
X41404762Y-41752381D01*
X41642858Y-41752381D01*
X41738096Y-41800000D01*
X41785715Y-41847619D01*
X41833334Y-41942857D01*
X41833334Y-42038095D01*
X41785715Y-42180952D01*
X41214286Y-42752381D01*
X41833334Y-42752381D01*
X42119048Y-41752381D02*
X42452381Y-42752381D01*
X42785715Y-41752381D01*
X31559524Y-40552381D02*
X31083333Y-40552381D01*
X31035714Y-41028571D01*
X31083333Y-40980952D01*
X31178571Y-40933333D01*
X31416667Y-40933333D01*
X31511905Y-40980952D01*
X31559524Y-41028571D01*
X31607143Y-41123810D01*
X31607143Y-41361905D01*
X31559524Y-41457143D01*
X31511905Y-41504762D01*
X31416667Y-41552381D01*
X31178571Y-41552381D01*
X31083333Y-41504762D01*
X31035714Y-41457143D01*
X31892857Y-40552381D02*
X32226190Y-41552381D01*
X32559524Y-40552381D01*
X27638096Y-40550000D02*
X27542858Y-40502381D01*
X27400001Y-40502381D01*
X27257143Y-40550000D01*
X27161905Y-40645238D01*
X27114286Y-40740476D01*
X27066667Y-40930952D01*
X27066667Y-41073810D01*
X27114286Y-41264286D01*
X27161905Y-41359524D01*
X27257143Y-41454762D01*
X27400001Y-41502381D01*
X27495239Y-41502381D01*
X27638096Y-41454762D01*
X27685715Y-41407143D01*
X27685715Y-41073810D01*
X27495239Y-41073810D01*
X28114286Y-41502381D02*
X28114286Y-40502381D01*
X28685715Y-41502381D01*
X28685715Y-40502381D01*
X29161905Y-41502381D02*
X29161905Y-40502381D01*
X29400000Y-40502381D01*
X29542858Y-40550000D01*
X29638096Y-40645238D01*
X29685715Y-40740476D01*
X29733334Y-40930952D01*
X29733334Y-41073810D01*
X29685715Y-41264286D01*
X29638096Y-41359524D01*
X29542858Y-41454762D01*
X29400000Y-41502381D01*
X29161905Y-41502381D01*
X34888095Y-40552381D02*
X35507143Y-40552381D01*
X35173809Y-40933333D01*
X35316667Y-40933333D01*
X35411905Y-40980952D01*
X35459524Y-41028571D01*
X35507143Y-41123810D01*
X35507143Y-41361905D01*
X35459524Y-41457143D01*
X35411905Y-41504762D01*
X35316667Y-41552381D01*
X35030952Y-41552381D01*
X34935714Y-41504762D01*
X34888095Y-41457143D01*
X35792857Y-40552381D02*
X36126190Y-41552381D01*
X36459524Y-40552381D01*
X16388095Y-2202381D02*
X16388095Y-1202381D01*
X16388095Y-1678571D02*
X16959524Y-1678571D01*
X16959524Y-2202381D02*
X16959524Y-1202381D01*
X17816667Y-2154762D02*
X17721429Y-2202381D01*
X17530952Y-2202381D01*
X17435714Y-2154762D01*
X17388095Y-2059524D01*
X17388095Y-1678571D01*
X17435714Y-1583333D01*
X17530952Y-1535714D01*
X17721429Y-1535714D01*
X17816667Y-1583333D01*
X17864286Y-1678571D01*
X17864286Y-1773810D01*
X17388095Y-1869048D01*
X18292857Y-2202381D02*
X18292857Y-1535714D01*
X18292857Y-1726190D02*
X18340476Y-1630952D01*
X18388095Y-1583333D01*
X18483333Y-1535714D01*
X18578572Y-1535714D01*
X18911905Y-2202381D02*
X18911905Y-1535714D01*
X18911905Y-1630952D02*
X18959524Y-1583333D01*
X19054762Y-1535714D01*
X19197620Y-1535714D01*
X19292858Y-1583333D01*
X19340477Y-1678571D01*
X19340477Y-2202381D01*
X19340477Y-1678571D02*
X19388096Y-1583333D01*
X19483334Y-1535714D01*
X19626191Y-1535714D01*
X19721429Y-1583333D01*
X19769048Y-1678571D01*
X19769048Y-2202381D01*
X20626191Y-2154762D02*
X20530953Y-2202381D01*
X20340476Y-2202381D01*
X20245238Y-2154762D01*
X20197619Y-2059524D01*
X20197619Y-1678571D01*
X20245238Y-1583333D01*
X20340476Y-1535714D01*
X20530953Y-1535714D01*
X20626191Y-1583333D01*
X20673810Y-1678571D01*
X20673810Y-1773810D01*
X20197619Y-1869048D01*
X21054762Y-2154762D02*
X21150000Y-2202381D01*
X21340476Y-2202381D01*
X21435715Y-2154762D01*
X21483334Y-2059524D01*
X21483334Y-2011905D01*
X21435715Y-1916667D01*
X21340476Y-1869048D01*
X21197619Y-1869048D01*
X21102381Y-1821429D01*
X21054762Y-1726190D01*
X21054762Y-1678571D01*
X21102381Y-1583333D01*
X21197619Y-1535714D01*
X21340476Y-1535714D01*
X21435715Y-1583333D01*
X21911905Y-1821429D02*
X22673810Y-1821429D01*
X23626191Y-2202381D02*
X23150000Y-2202381D01*
X23150000Y-1202381D01*
X23959524Y-2202381D02*
X23959524Y-1535714D01*
X23959524Y-1202381D02*
X23911905Y-1250000D01*
X23959524Y-1297619D01*
X24007143Y-1250000D01*
X23959524Y-1202381D01*
X23959524Y-1297619D01*
X24292857Y-1535714D02*
X24673809Y-1535714D01*
X24435714Y-1202381D02*
X24435714Y-2059524D01*
X24483333Y-2154762D01*
X24578571Y-2202381D01*
X24673809Y-2202381D01*
X25388096Y-2154762D02*
X25292858Y-2202381D01*
X25102381Y-2202381D01*
X25007143Y-2154762D01*
X24959524Y-2059524D01*
X24959524Y-1678571D01*
X25007143Y-1583333D01*
X25102381Y-1535714D01*
X25292858Y-1535714D01*
X25388096Y-1583333D01*
X25435715Y-1678571D01*
X25435715Y-1773810D01*
X24959524Y-1869048D01*
X27150001Y-2202381D02*
X26578572Y-2202381D01*
X26864286Y-2202381D02*
X26864286Y-1202381D01*
X26769048Y-1345238D01*
X26673810Y-1440476D01*
X26578572Y-1488095D01*
X27578572Y-2107143D02*
X27626191Y-2154762D01*
X27578572Y-2202381D01*
X27530953Y-2154762D01*
X27578572Y-2107143D01*
X27578572Y-2202381D01*
X28007143Y-1297619D02*
X28054762Y-1250000D01*
X28150000Y-1202381D01*
X28388096Y-1202381D01*
X28483334Y-1250000D01*
X28530953Y-1297619D01*
X28578572Y-1392857D01*
X28578572Y-1488095D01*
X28530953Y-1630952D01*
X27959524Y-2202381D01*
X28578572Y-2202381D01*
X29530953Y-2202381D02*
X28959524Y-2202381D01*
X29245238Y-2202381D02*
X29245238Y-1202381D01*
X29150000Y-1345238D01*
X29054762Y-1440476D01*
X28959524Y-1488095D01*
X17197619Y-2940476D02*
X17102381Y-2892857D01*
X16911905Y-2892857D01*
X16816667Y-2940476D01*
X16721429Y-3035714D01*
X16673810Y-3130952D01*
X16673810Y-3321429D01*
X16721429Y-3416667D01*
X16816667Y-3511905D01*
X16911905Y-3559524D01*
X17102381Y-3559524D01*
X17197619Y-3511905D01*
X17007143Y-2559524D02*
X16769048Y-2607143D01*
X16530952Y-2750000D01*
X16388095Y-2988095D01*
X16340476Y-3226190D01*
X16388095Y-3464286D01*
X16530952Y-3702381D01*
X16769048Y-3845238D01*
X17007143Y-3892857D01*
X17245238Y-3845238D01*
X17483333Y-3702381D01*
X17626190Y-3464286D01*
X17673810Y-3226190D01*
X17626190Y-2988095D01*
X17483333Y-2750000D01*
X17245238Y-2607143D01*
X17007143Y-2559524D01*
X18816667Y-2797619D02*
X18864286Y-2750000D01*
X18959524Y-2702381D01*
X19197620Y-2702381D01*
X19292858Y-2750000D01*
X19340477Y-2797619D01*
X19388096Y-2892857D01*
X19388096Y-2988095D01*
X19340477Y-3130952D01*
X18769048Y-3702381D01*
X19388096Y-3702381D01*
X20007143Y-2702381D02*
X20102382Y-2702381D01*
X20197620Y-2750000D01*
X20245239Y-2797619D01*
X20292858Y-2892857D01*
X20340477Y-3083333D01*
X20340477Y-3321429D01*
X20292858Y-3511905D01*
X20245239Y-3607143D01*
X20197620Y-3654762D01*
X20102382Y-3702381D01*
X20007143Y-3702381D01*
X19911905Y-3654762D01*
X19864286Y-3607143D01*
X19816667Y-3511905D01*
X19769048Y-3321429D01*
X19769048Y-3083333D01*
X19816667Y-2892857D01*
X19864286Y-2797619D01*
X19911905Y-2750000D01*
X20007143Y-2702381D01*
X21292858Y-3702381D02*
X20721429Y-3702381D01*
X21007143Y-3702381D02*
X21007143Y-2702381D01*
X20911905Y-2845238D01*
X20816667Y-2940476D01*
X20721429Y-2988095D01*
X22150001Y-3035714D02*
X22150001Y-3702381D01*
X21911905Y-2654762D02*
X21673810Y-3369048D01*
X22292858Y-3369048D01*
X23388096Y-3654762D02*
X23530953Y-3702381D01*
X23769049Y-3702381D01*
X23864287Y-3654762D01*
X23911906Y-3607143D01*
X23959525Y-3511905D01*
X23959525Y-3416667D01*
X23911906Y-3321429D01*
X23864287Y-3273810D01*
X23769049Y-3226190D01*
X23578572Y-3178571D01*
X23483334Y-3130952D01*
X23435715Y-3083333D01*
X23388096Y-2988095D01*
X23388096Y-2892857D01*
X23435715Y-2797619D01*
X23483334Y-2750000D01*
X23578572Y-2702381D01*
X23816668Y-2702381D01*
X23959525Y-2750000D01*
X24530953Y-3702381D02*
X24435715Y-3654762D01*
X24388096Y-3607143D01*
X24340477Y-3511905D01*
X24340477Y-3226190D01*
X24388096Y-3130952D01*
X24435715Y-3083333D01*
X24530953Y-3035714D01*
X24673811Y-3035714D01*
X24769049Y-3083333D01*
X24816668Y-3130952D01*
X24864287Y-3226190D01*
X24864287Y-3511905D01*
X24816668Y-3607143D01*
X24769049Y-3654762D01*
X24673811Y-3702381D01*
X24530953Y-3702381D01*
X25150001Y-3035714D02*
X25530953Y-3035714D01*
X25292858Y-3702381D02*
X25292858Y-2845238D01*
X25340477Y-2750000D01*
X25435715Y-2702381D01*
X25530953Y-2702381D01*
X25721430Y-3035714D02*
X26102382Y-3035714D01*
X25864287Y-2702381D02*
X25864287Y-3559524D01*
X25911906Y-3654762D01*
X26007144Y-3702381D01*
X26102382Y-3702381D01*
X26816669Y-3654762D02*
X26721431Y-3702381D01*
X26530954Y-3702381D01*
X26435716Y-3654762D01*
X26388097Y-3559524D01*
X26388097Y-3178571D01*
X26435716Y-3083333D01*
X26530954Y-3035714D01*
X26721431Y-3035714D01*
X26816669Y-3083333D01*
X26864288Y-3178571D01*
X26864288Y-3273810D01*
X26388097Y-3369048D01*
X27292859Y-3702381D02*
X27292859Y-3035714D01*
X27292859Y-3226190D02*
X27340478Y-3130952D01*
X27388097Y-3083333D01*
X27483335Y-3035714D01*
X27578574Y-3035714D01*
X27911907Y-3702381D02*
X27911907Y-2702381D01*
X27911907Y-3178571D02*
X28483336Y-3178571D01*
X28483336Y-3702381D02*
X28483336Y-2702381D01*
X29388098Y-3702381D02*
X29388098Y-3178571D01*
X29340479Y-3083333D01*
X29245241Y-3035714D01*
X29054764Y-3035714D01*
X28959526Y-3083333D01*
X29388098Y-3654762D02*
X29292860Y-3702381D01*
X29054764Y-3702381D01*
X28959526Y-3654762D01*
X28911907Y-3559524D01*
X28911907Y-3464286D01*
X28959526Y-3369048D01*
X29054764Y-3321429D01*
X29292860Y-3321429D01*
X29388098Y-3273810D01*
X29864288Y-3702381D02*
X29864288Y-3035714D01*
X29864288Y-3226190D02*
X29911907Y-3130952D01*
X29959526Y-3083333D01*
X30054764Y-3035714D01*
X30150003Y-3035714D01*
X30911908Y-3702381D02*
X30911908Y-2702381D01*
X30911908Y-3654762D02*
X30816670Y-3702381D01*
X30626193Y-3702381D01*
X30530955Y-3654762D01*
X30483336Y-3607143D01*
X30435717Y-3511905D01*
X30435717Y-3226190D01*
X30483336Y-3130952D01*
X30530955Y-3083333D01*
X30626193Y-3035714D01*
X30816670Y-3035714D01*
X30911908Y-3083333D01*
X31292860Y-3035714D02*
X31483336Y-3702381D01*
X31673813Y-3226190D01*
X31864289Y-3702381D01*
X32054765Y-3035714D01*
X32864289Y-3702381D02*
X32864289Y-3178571D01*
X32816670Y-3083333D01*
X32721432Y-3035714D01*
X32530955Y-3035714D01*
X32435717Y-3083333D01*
X32864289Y-3654762D02*
X32769051Y-3702381D01*
X32530955Y-3702381D01*
X32435717Y-3654762D01*
X32388098Y-3559524D01*
X32388098Y-3464286D01*
X32435717Y-3369048D01*
X32530955Y-3321429D01*
X32769051Y-3321429D01*
X32864289Y-3273810D01*
X33340479Y-3702381D02*
X33340479Y-3035714D01*
X33340479Y-3226190D02*
X33388098Y-3130952D01*
X33435717Y-3083333D01*
X33530955Y-3035714D01*
X33626194Y-3035714D01*
X34340480Y-3654762D02*
X34245242Y-3702381D01*
X34054765Y-3702381D01*
X33959527Y-3654762D01*
X33911908Y-3559524D01*
X33911908Y-3178571D01*
X33959527Y-3083333D01*
X34054765Y-3035714D01*
X34245242Y-3035714D01*
X34340480Y-3083333D01*
X34388099Y-3178571D01*
X34388099Y-3273810D01*
X33911908Y-3369048D01*
D11*
X44600000Y-9200000D02*
X38800000Y-9200000D01*
X38800000Y-9200000D02*
X38800000Y-34200000D01*
X38800000Y-34200000D02*
X44600000Y-34200000D01*
X15600000Y-17700000D02*
X15200000Y-18100000D01*
D12*
X24295800Y-18058200D02*
X24295800Y-17804200D01*
X24041800Y-26795800D02*
X24295800Y-26795800D01*
X15304200Y-26541800D02*
X15304200Y-26795800D01*
X15304200Y-26795800D02*
X15558200Y-26795800D01*
X24295800Y-26795800D02*
X24295800Y-26541800D01*
X24295800Y-17804200D02*
X24041800Y-17804200D01*
D13*
X26176000Y-21362000D02*
G75*
G03X26176000Y-21362000I-127000J0D01*
G74*
G01*
X27192000Y-21362000D02*
X26176000Y-21362000D01*
X26176000Y-21362000D02*
X26176000Y-19838000D01*
X26176000Y-19838000D02*
X27192000Y-19838000D01*
X28208000Y-19838000D02*
X29224000Y-19838000D01*
X29224000Y-19838000D02*
X29224000Y-21362000D01*
X29224000Y-21362000D02*
X28208000Y-21362000D01*
X25855618Y-26093751D02*
G75*
G03X25855618Y-26093751I-127000J0D01*
G74*
G01*
X24920395Y-26901974D02*
X25638815Y-26183554D01*
X25638815Y-26183554D02*
X26716446Y-27261185D01*
X26716446Y-27261185D02*
X25998026Y-27979605D01*
X25279605Y-28698026D02*
X24561185Y-29416446D01*
X24561185Y-29416446D02*
X23483554Y-28338815D01*
X23483554Y-28338815D02*
X24201974Y-27620395D01*
D14*
X29904274Y-29112172D02*
X28287828Y-27495726D01*
X28287828Y-27495726D02*
X27120395Y-28663159D01*
X27479605Y-31536841D02*
X26312172Y-32704274D01*
X26312172Y-32704274D02*
X24695726Y-31087828D01*
X24695726Y-31087828D02*
X25863159Y-29920395D01*
X28736841Y-30279605D02*
X29904274Y-29112172D01*
D11*
X25900000Y-15350000D02*
X25900000Y-8550000D01*
X25900000Y-8550000D02*
X18400000Y-8550000D01*
X18400000Y-8550000D02*
X18400000Y-15350000D01*
X18400000Y-15350000D02*
X25900000Y-15350000D01*
X25900000Y-15350000D02*
X25900000Y-15250000D01*
X25900000Y-15250000D02*
X25900000Y-15350000D01*
D13*
X29478000Y-21688000D02*
G75*
G03X29478000Y-21688000I-127000J0D01*
G74*
G01*
X28208000Y-21688000D02*
X29224000Y-21688000D01*
X29224000Y-21688000D02*
X29224000Y-23212000D01*
X29224000Y-23212000D02*
X28208000Y-23212000D01*
X27192000Y-23212000D02*
X26176000Y-23212000D01*
X26176000Y-23212000D02*
X26176000Y-21688000D01*
X26176000Y-21688000D02*
X27192000Y-21688000D01*
D14*
X2120000Y-39735000D02*
X2120000Y-10165000D01*
X2120000Y-10165000D02*
X10880000Y-10165000D01*
X10880000Y-10165000D02*
X12880000Y-12165000D01*
X12880000Y-12165000D02*
X12880000Y-37735000D01*
X12880000Y-37735000D02*
X10880000Y-39735000D01*
X10880000Y-39735000D02*
X2120000Y-39735000D01*
D13*
X33078000Y-24238000D02*
G75*
G03X33078000Y-24238000I-127000J0D01*
G74*
G01*
X31808000Y-24238000D02*
X32824000Y-24238000D01*
X32824000Y-24238000D02*
X32824000Y-25762000D01*
X32824000Y-25762000D02*
X31808000Y-25762000D01*
X30792000Y-25762000D02*
X29776000Y-25762000D01*
X29776000Y-25762000D02*
X29776000Y-24238000D01*
X29776000Y-24238000D02*
X30792000Y-24238000D01*
X33078000Y-22338000D02*
G75*
G03X33078000Y-22338000I-127000J0D01*
G74*
G01*
X31808000Y-22338000D02*
X32824000Y-22338000D01*
X32824000Y-22338000D02*
X32824000Y-23862000D01*
X32824000Y-23862000D02*
X31808000Y-23862000D01*
X30792000Y-23862000D02*
X29776000Y-23862000D01*
X29776000Y-23862000D02*
X29776000Y-22338000D01*
X29776000Y-22338000D02*
X30792000Y-22338000D01*
X30289000Y-40451000D02*
G75*
G03X30289000Y-40451000I-127000J0D01*
G74*
G01*
X30162000Y-39308000D02*
X30162000Y-40324000D01*
X30162000Y-40324000D02*
X28638000Y-40324000D01*
X28638000Y-40324000D02*
X28638000Y-39308000D01*
X28638000Y-38292000D02*
X28638000Y-37276000D01*
X28638000Y-37276000D02*
X30162000Y-37276000D01*
X30162000Y-37276000D02*
X30162000Y-38292000D01*
X32289000Y-40451000D02*
G75*
G03X32289000Y-40451000I-127000J0D01*
G74*
G01*
X32162000Y-39308000D02*
X32162000Y-40324000D01*
X32162000Y-40324000D02*
X30638000Y-40324000D01*
X30638000Y-40324000D02*
X30638000Y-39308000D01*
X30638000Y-38292000D02*
X30638000Y-37276000D01*
X30638000Y-37276000D02*
X32162000Y-37276000D01*
X32162000Y-37276000D02*
X32162000Y-38292000D01*
X34289000Y-40451000D02*
G75*
G03X34289000Y-40451000I-127000J0D01*
G74*
G01*
X34162000Y-39308000D02*
X34162000Y-40324000D01*
X34162000Y-40324000D02*
X32638000Y-40324000D01*
X32638000Y-40324000D02*
X32638000Y-39308000D01*
X32638000Y-38292000D02*
X32638000Y-37276000D01*
X32638000Y-37276000D02*
X34162000Y-37276000D01*
X34162000Y-37276000D02*
X34162000Y-38292000D01*
X27989000Y-40451000D02*
G75*
G03X27989000Y-40451000I-127000J0D01*
G74*
G01*
X27862000Y-39308000D02*
X27862000Y-40324000D01*
X27862000Y-40324000D02*
X26338000Y-40324000D01*
X26338000Y-40324000D02*
X26338000Y-39308000D01*
X26338000Y-38292000D02*
X26338000Y-37276000D01*
X26338000Y-37276000D02*
X27862000Y-37276000D01*
X27862000Y-37276000D02*
X27862000Y-38292000D01*
X33078000Y-16138000D02*
G75*
G03X33078000Y-16138000I-127000J0D01*
G74*
G01*
X31808000Y-16138000D02*
X32824000Y-16138000D01*
X32824000Y-16138000D02*
X32824000Y-17662000D01*
X32824000Y-17662000D02*
X31808000Y-17662000D01*
X30792000Y-17662000D02*
X29776000Y-17662000D01*
X29776000Y-17662000D02*
X29776000Y-16138000D01*
X29776000Y-16138000D02*
X30792000Y-16138000D01*
X33078000Y-18738000D02*
G75*
G03X33078000Y-18738000I-127000J0D01*
G74*
G01*
X31808000Y-18738000D02*
X32824000Y-18738000D01*
X32824000Y-18738000D02*
X32824000Y-20262000D01*
X32824000Y-20262000D02*
X31808000Y-20262000D01*
X30792000Y-20262000D02*
X29776000Y-20262000D01*
X29776000Y-20262000D02*
X29776000Y-18738000D01*
X29776000Y-18738000D02*
X30792000Y-18738000D01*
X36289000Y-40451000D02*
G75*
G03X36289000Y-40451000I-127000J0D01*
G74*
G01*
X36162000Y-39308000D02*
X36162000Y-40324000D01*
X36162000Y-40324000D02*
X34638000Y-40324000D01*
X34638000Y-40324000D02*
X34638000Y-39308000D01*
X34638000Y-38292000D02*
X34638000Y-37276000D01*
X34638000Y-37276000D02*
X36162000Y-37276000D01*
X36162000Y-37276000D02*
X36162000Y-38292000D01*
X25989000Y-40451000D02*
G75*
G03X25989000Y-40451000I-127000J0D01*
G74*
G01*
X25862000Y-39308000D02*
X25862000Y-40324000D01*
X25862000Y-40324000D02*
X24338000Y-40324000D01*
X24338000Y-40324000D02*
X24338000Y-39308000D01*
X24338000Y-38292000D02*
X24338000Y-37276000D01*
X24338000Y-37276000D02*
X25862000Y-37276000D01*
X25862000Y-37276000D02*
X25862000Y-38292000D01*
X38289000Y-40451000D02*
G75*
G03X38289000Y-40451000I-127000J0D01*
G74*
G01*
X38162000Y-39308000D02*
X38162000Y-40324000D01*
X38162000Y-40324000D02*
X36638000Y-40324000D01*
X36638000Y-40324000D02*
X36638000Y-39308000D01*
X36638000Y-38292000D02*
X36638000Y-37276000D01*
X36638000Y-37276000D02*
X38162000Y-37276000D01*
X38162000Y-37276000D02*
X38162000Y-38292000D01*
X23989000Y-40451000D02*
G75*
G03X23989000Y-40451000I-127000J0D01*
G74*
G01*
X23862000Y-39308000D02*
X23862000Y-40324000D01*
X23862000Y-40324000D02*
X22338000Y-40324000D01*
X22338000Y-40324000D02*
X22338000Y-39308000D01*
X22338000Y-38292000D02*
X22338000Y-37276000D01*
X22338000Y-37276000D02*
X23862000Y-37276000D01*
X23862000Y-37276000D02*
X23862000Y-38292000D01*
D14*
X38557000Y-40640000D02*
X38557000Y-40894000D01*
X38557000Y-40894000D02*
X40843000Y-40894000D01*
X40843000Y-40894000D02*
X40843000Y-40640000D01*
X38557000Y-40640000D02*
X40843000Y-40640000D01*
X40843000Y-40640000D02*
X40843000Y-38989000D01*
X38557000Y-37211000D02*
X38557000Y-35560000D01*
X38557000Y-35560000D02*
X40843000Y-35560000D01*
X40843000Y-35560000D02*
X40843000Y-37211000D01*
X38557000Y-38989000D02*
X38557000Y-40640000D01*
X19657000Y-40640000D02*
X19657000Y-40894000D01*
X19657000Y-40894000D02*
X21943000Y-40894000D01*
X21943000Y-40894000D02*
X21943000Y-40640000D01*
X19657000Y-40640000D02*
X21943000Y-40640000D01*
X21943000Y-40640000D02*
X21943000Y-38989000D01*
X19657000Y-37211000D02*
X19657000Y-35560000D01*
X19657000Y-35560000D02*
X21943000Y-35560000D01*
X21943000Y-35560000D02*
X21943000Y-37211000D01*
X19657000Y-38989000D02*
X19657000Y-40640000D01*
D13*
X33365000Y-17149000D02*
G75*
G03X33365000Y-17149000I-127000J0D01*
G74*
G01*
X33238000Y-18292000D02*
X33238000Y-17276000D01*
X33238000Y-17276000D02*
X34762000Y-17276000D01*
X34762000Y-17276000D02*
X34762000Y-18292000D01*
X34762000Y-19308000D02*
X34762000Y-20324000D01*
X34762000Y-20324000D02*
X33238000Y-20324000D01*
X33238000Y-20324000D02*
X33238000Y-19308000D01*
X26865000Y-13249000D02*
G75*
G03X26865000Y-13249000I-127000J0D01*
G74*
G01*
X26738000Y-14392000D02*
X26738000Y-13376000D01*
X26738000Y-13376000D02*
X28262000Y-13376000D01*
X28262000Y-13376000D02*
X28262000Y-14392000D01*
X28262000Y-15408000D02*
X28262000Y-16424000D01*
X28262000Y-16424000D02*
X26738000Y-16424000D01*
X26738000Y-16424000D02*
X26738000Y-15408000D01*
D10*
X14350000Y-41850000D02*
X19250000Y-41850000D01*
X19250000Y-41850000D02*
X19250000Y-39450000D01*
X19250000Y-39450000D02*
X14350000Y-39450000D01*
X14350000Y-39450000D02*
X14350000Y-41850000D01*
X19250000Y-36900000D02*
X14350000Y-36900000D01*
X14350000Y-36900000D02*
X14350000Y-39300000D01*
X14350000Y-39300000D02*
X19250000Y-39300000D01*
X19250000Y-39300000D02*
X19250000Y-36900000D01*
X14950000Y-8400000D02*
X14950000Y-13300000D01*
X14950000Y-13300000D02*
X17350000Y-13300000D01*
X17350000Y-13300000D02*
X17350000Y-8400000D01*
X17350000Y-8400000D02*
X14950000Y-8400000D01*
D11*
X11530000Y-45800000D02*
X11530000Y-49300000D01*
X26770000Y-49300000D02*
X26770000Y-45800000D01*
X26770000Y-45800000D02*
X26770000Y-49300000D01*
X42010000Y-49300000D02*
X42010000Y-45800000D01*
D15*
G36*
X35245480Y-3146620D02*
X35255640Y-3141540D01*
X35278500Y-3126300D01*
X35311520Y-3105980D01*
X35352160Y-3078040D01*
X35390260Y-3052640D01*
X35423280Y-3029780D01*
X35446140Y-3014540D01*
X35456300Y-3009460D01*
X35461380Y-3012000D01*
X35479160Y-3022160D01*
X35507100Y-3034860D01*
X35522340Y-3042480D01*
X35547740Y-3055180D01*
X35560440Y-3057720D01*
X35562980Y-3052640D01*
X35573140Y-3034860D01*
X35585840Y-3001840D01*
X35606160Y-2958660D01*
X35626480Y-2907860D01*
X35649340Y-2851980D01*
X35672200Y-2796100D01*
X35695060Y-2742760D01*
X35715380Y-2694500D01*
X35730620Y-2656400D01*
X35740780Y-2628460D01*
X35745860Y-2618300D01*
X35743320Y-2615760D01*
X35730620Y-2603060D01*
X35710300Y-2587820D01*
X35662040Y-2547180D01*
X35616320Y-2488760D01*
X35585840Y-2422720D01*
X35578220Y-2349060D01*
X35585840Y-2283020D01*
X35611240Y-2219520D01*
X35656960Y-2158560D01*
X35712840Y-2115380D01*
X35778880Y-2087440D01*
X35850000Y-2079820D01*
X35918580Y-2087440D01*
X35984620Y-2112840D01*
X36045580Y-2158560D01*
X36068440Y-2186500D01*
X36104000Y-2247460D01*
X36124320Y-2308420D01*
X36124320Y-2323660D01*
X36121780Y-2394780D01*
X36101460Y-2463360D01*
X36065900Y-2521780D01*
X36012560Y-2572580D01*
X36007480Y-2577660D01*
X35982080Y-2595440D01*
X35966840Y-2605600D01*
X35954140Y-2615760D01*
X36043040Y-2831660D01*
X36058280Y-2867220D01*
X36083680Y-2925640D01*
X36104000Y-2976440D01*
X36121780Y-3017080D01*
X36134480Y-3042480D01*
X36139560Y-3055180D01*
X36139560Y-3055180D01*
X36147180Y-3055180D01*
X36162420Y-3050100D01*
X36192900Y-3034860D01*
X36213220Y-3024700D01*
X36236080Y-3014540D01*
X36246240Y-3009460D01*
X36256400Y-3014540D01*
X36276720Y-3029780D01*
X36309740Y-3050100D01*
X36347840Y-3075500D01*
X36383400Y-3100900D01*
X36418960Y-3123760D01*
X36441820Y-3139000D01*
X36454520Y-3146620D01*
X36457060Y-3146620D01*
X36467220Y-3139000D01*
X36487540Y-3123760D01*
X36515480Y-3095820D01*
X36556120Y-3055180D01*
X36563740Y-3050100D01*
X36596760Y-3014540D01*
X36624700Y-2984060D01*
X36645020Y-2963740D01*
X36650100Y-2956120D01*
X36650100Y-2956120D01*
X36645020Y-2943420D01*
X36629780Y-2918020D01*
X36606920Y-2885000D01*
X36578980Y-2844360D01*
X36507860Y-2740220D01*
X36548500Y-2643700D01*
X36558660Y-2613220D01*
X36573900Y-2577660D01*
X36586600Y-2552260D01*
X36591680Y-2539560D01*
X36601840Y-2537020D01*
X36629780Y-2529400D01*
X36667880Y-2521780D01*
X36713600Y-2514160D01*
X36759320Y-2504000D01*
X36797420Y-2496380D01*
X36827900Y-2491300D01*
X36840600Y-2488760D01*
X36843140Y-2486220D01*
X36845680Y-2481140D01*
X36848220Y-2468440D01*
X36848220Y-2443040D01*
X36848220Y-2404940D01*
X36848220Y-2349060D01*
X36848220Y-2343980D01*
X36848220Y-2290640D01*
X36848220Y-2250000D01*
X36845680Y-2224600D01*
X36843140Y-2214440D01*
X36843140Y-2214440D01*
X36830440Y-2209360D01*
X36802500Y-2204280D01*
X36764400Y-2196660D01*
X36716140Y-2186500D01*
X36713600Y-2186500D01*
X36665340Y-2178880D01*
X36627240Y-2168720D01*
X36599300Y-2163640D01*
X36586600Y-2158560D01*
X36584060Y-2156020D01*
X36573900Y-2138240D01*
X36561200Y-2107760D01*
X36545960Y-2072200D01*
X36530720Y-2036640D01*
X36515480Y-2001080D01*
X36507860Y-1978220D01*
X36505320Y-1965520D01*
X36505320Y-1965520D01*
X36512940Y-1955360D01*
X36528180Y-1929960D01*
X36551040Y-1896940D01*
X36578980Y-1856300D01*
X36581520Y-1851220D01*
X36609460Y-1813120D01*
X36629780Y-1777560D01*
X36645020Y-1754700D01*
X36650100Y-1744540D01*
X36650100Y-1742000D01*
X36642480Y-1731840D01*
X36622160Y-1708980D01*
X36591680Y-1678500D01*
X36556120Y-1642940D01*
X36545960Y-1632780D01*
X36507860Y-1594680D01*
X36479920Y-1569280D01*
X36462140Y-1556580D01*
X36454520Y-1551500D01*
X36454520Y-1554040D01*
X36441820Y-1559120D01*
X36416420Y-1576900D01*
X36383400Y-1599760D01*
X36342760Y-1627700D01*
X36340220Y-1630240D01*
X36299580Y-1655640D01*
X36266560Y-1678500D01*
X36243700Y-1693740D01*
X36233540Y-1701360D01*
X36231000Y-1701360D01*
X36215760Y-1696280D01*
X36185280Y-1686120D01*
X36152260Y-1673420D01*
X36114160Y-1658180D01*
X36081140Y-1642940D01*
X36055740Y-1632780D01*
X36043040Y-1625160D01*
X36043040Y-1625160D01*
X36037960Y-1609920D01*
X36032880Y-1579440D01*
X36022720Y-1538800D01*
X36015100Y-1490540D01*
X36012560Y-1482920D01*
X36004940Y-1434660D01*
X35997320Y-1396560D01*
X35989700Y-1368620D01*
X35987160Y-1355920D01*
X35982080Y-1355920D01*
X35956680Y-1353380D01*
X35921120Y-1353380D01*
X35877940Y-1353380D01*
X35834760Y-1353380D01*
X35791580Y-1353380D01*
X35753480Y-1355920D01*
X35728080Y-1355920D01*
X35715380Y-1358460D01*
X35715380Y-1361000D01*
X35710300Y-1373700D01*
X35705220Y-1404180D01*
X35695060Y-1444820D01*
X35687440Y-1495620D01*
X35684900Y-1503240D01*
X35677280Y-1551500D01*
X35667120Y-1589600D01*
X35662040Y-1617540D01*
X35659500Y-1627700D01*
X35654420Y-1630240D01*
X35636640Y-1637860D01*
X35603620Y-1650560D01*
X35562980Y-1668340D01*
X35471540Y-1703900D01*
X35359780Y-1627700D01*
X35349620Y-1620080D01*
X35308980Y-1592140D01*
X35275960Y-1571820D01*
X35253100Y-1556580D01*
X35242940Y-1551500D01*
X35242940Y-1551500D01*
X35232780Y-1561660D01*
X35209920Y-1581980D01*
X35179440Y-1612460D01*
X35143880Y-1645480D01*
X35118480Y-1673420D01*
X35088000Y-1703900D01*
X35067680Y-1724220D01*
X35057520Y-1739460D01*
X35052440Y-1747080D01*
X35054980Y-1752160D01*
X35060060Y-1764860D01*
X35077840Y-1787720D01*
X35100700Y-1823280D01*
X35128640Y-1861380D01*
X35151500Y-1896940D01*
X35174360Y-1932500D01*
X35189600Y-1960440D01*
X35197220Y-1973140D01*
X35194680Y-1978220D01*
X35187060Y-2001080D01*
X35174360Y-2034100D01*
X35156580Y-2074740D01*
X35118480Y-2163640D01*
X35060060Y-2173800D01*
X35024500Y-2181420D01*
X34973700Y-2189040D01*
X34927980Y-2199200D01*
X34854320Y-2214440D01*
X34851780Y-2481140D01*
X34861940Y-2486220D01*
X34874640Y-2491300D01*
X34900040Y-2496380D01*
X34940680Y-2504000D01*
X34986400Y-2511620D01*
X35024500Y-2519240D01*
X35065140Y-2526860D01*
X35093080Y-2531940D01*
X35105780Y-2534480D01*
X35108320Y-2539560D01*
X35118480Y-2559880D01*
X35133720Y-2590360D01*
X35148960Y-2625920D01*
X35164200Y-2664020D01*
X35176900Y-2699580D01*
X35187060Y-2724980D01*
X35192140Y-2740220D01*
X35187060Y-2750380D01*
X35171820Y-2773240D01*
X35148960Y-2806260D01*
X35123560Y-2844360D01*
X35095620Y-2885000D01*
X35072760Y-2918020D01*
X35057520Y-2943420D01*
X35049900Y-2953580D01*
X35054980Y-2961200D01*
X35070220Y-2978980D01*
X35098160Y-3009460D01*
X35143880Y-3055180D01*
X35151500Y-3060260D01*
X35184520Y-3095820D01*
X35215000Y-3121220D01*
X35235320Y-3141540D01*
X35245480Y-3146620D01*
X35245480Y-3146620D01*
G37*
X35245480Y-3146620D02*
X35255640Y-3141540D01*
X35278500Y-3126300D01*
X35311520Y-3105980D01*
X35352160Y-3078040D01*
X35390260Y-3052640D01*
X35423280Y-3029780D01*
X35446140Y-3014540D01*
X35456300Y-3009460D01*
X35461380Y-3012000D01*
X35479160Y-3022160D01*
X35507100Y-3034860D01*
X35522340Y-3042480D01*
X35547740Y-3055180D01*
X35560440Y-3057720D01*
X35562980Y-3052640D01*
X35573140Y-3034860D01*
X35585840Y-3001840D01*
X35606160Y-2958660D01*
X35626480Y-2907860D01*
X35649340Y-2851980D01*
X35672200Y-2796100D01*
X35695060Y-2742760D01*
X35715380Y-2694500D01*
X35730620Y-2656400D01*
X35740780Y-2628460D01*
X35745860Y-2618300D01*
X35743320Y-2615760D01*
X35730620Y-2603060D01*
X35710300Y-2587820D01*
X35662040Y-2547180D01*
X35616320Y-2488760D01*
X35585840Y-2422720D01*
X35578220Y-2349060D01*
X35585840Y-2283020D01*
X35611240Y-2219520D01*
X35656960Y-2158560D01*
X35712840Y-2115380D01*
X35778880Y-2087440D01*
X35850000Y-2079820D01*
X35918580Y-2087440D01*
X35984620Y-2112840D01*
X36045580Y-2158560D01*
X36068440Y-2186500D01*
X36104000Y-2247460D01*
X36124320Y-2308420D01*
X36124320Y-2323660D01*
X36121780Y-2394780D01*
X36101460Y-2463360D01*
X36065900Y-2521780D01*
X36012560Y-2572580D01*
X36007480Y-2577660D01*
X35982080Y-2595440D01*
X35966840Y-2605600D01*
X35954140Y-2615760D01*
X36043040Y-2831660D01*
X36058280Y-2867220D01*
X36083680Y-2925640D01*
X36104000Y-2976440D01*
X36121780Y-3017080D01*
X36134480Y-3042480D01*
X36139560Y-3055180D01*
X36139560Y-3055180D01*
X36147180Y-3055180D01*
X36162420Y-3050100D01*
X36192900Y-3034860D01*
X36213220Y-3024700D01*
X36236080Y-3014540D01*
X36246240Y-3009460D01*
X36256400Y-3014540D01*
X36276720Y-3029780D01*
X36309740Y-3050100D01*
X36347840Y-3075500D01*
X36383400Y-3100900D01*
X36418960Y-3123760D01*
X36441820Y-3139000D01*
X36454520Y-3146620D01*
X36457060Y-3146620D01*
X36467220Y-3139000D01*
X36487540Y-3123760D01*
X36515480Y-3095820D01*
X36556120Y-3055180D01*
X36563740Y-3050100D01*
X36596760Y-3014540D01*
X36624700Y-2984060D01*
X36645020Y-2963740D01*
X36650100Y-2956120D01*
X36650100Y-2956120D01*
X36645020Y-2943420D01*
X36629780Y-2918020D01*
X36606920Y-2885000D01*
X36578980Y-2844360D01*
X36507860Y-2740220D01*
X36548500Y-2643700D01*
X36558660Y-2613220D01*
X36573900Y-2577660D01*
X36586600Y-2552260D01*
X36591680Y-2539560D01*
X36601840Y-2537020D01*
X36629780Y-2529400D01*
X36667880Y-2521780D01*
X36713600Y-2514160D01*
X36759320Y-2504000D01*
X36797420Y-2496380D01*
X36827900Y-2491300D01*
X36840600Y-2488760D01*
X36843140Y-2486220D01*
X36845680Y-2481140D01*
X36848220Y-2468440D01*
X36848220Y-2443040D01*
X36848220Y-2404940D01*
X36848220Y-2349060D01*
X36848220Y-2343980D01*
X36848220Y-2290640D01*
X36848220Y-2250000D01*
X36845680Y-2224600D01*
X36843140Y-2214440D01*
X36843140Y-2214440D01*
X36830440Y-2209360D01*
X36802500Y-2204280D01*
X36764400Y-2196660D01*
X36716140Y-2186500D01*
X36713600Y-2186500D01*
X36665340Y-2178880D01*
X36627240Y-2168720D01*
X36599300Y-2163640D01*
X36586600Y-2158560D01*
X36584060Y-2156020D01*
X36573900Y-2138240D01*
X36561200Y-2107760D01*
X36545960Y-2072200D01*
X36530720Y-2036640D01*
X36515480Y-2001080D01*
X36507860Y-1978220D01*
X36505320Y-1965520D01*
X36505320Y-1965520D01*
X36512940Y-1955360D01*
X36528180Y-1929960D01*
X36551040Y-1896940D01*
X36578980Y-1856300D01*
X36581520Y-1851220D01*
X36609460Y-1813120D01*
X36629780Y-1777560D01*
X36645020Y-1754700D01*
X36650100Y-1744540D01*
X36650100Y-1742000D01*
X36642480Y-1731840D01*
X36622160Y-1708980D01*
X36591680Y-1678500D01*
X36556120Y-1642940D01*
X36545960Y-1632780D01*
X36507860Y-1594680D01*
X36479920Y-1569280D01*
X36462140Y-1556580D01*
X36454520Y-1551500D01*
X36454520Y-1554040D01*
X36441820Y-1559120D01*
X36416420Y-1576900D01*
X36383400Y-1599760D01*
X36342760Y-1627700D01*
X36340220Y-1630240D01*
X36299580Y-1655640D01*
X36266560Y-1678500D01*
X36243700Y-1693740D01*
X36233540Y-1701360D01*
X36231000Y-1701360D01*
X36215760Y-1696280D01*
X36185280Y-1686120D01*
X36152260Y-1673420D01*
X36114160Y-1658180D01*
X36081140Y-1642940D01*
X36055740Y-1632780D01*
X36043040Y-1625160D01*
X36043040Y-1625160D01*
X36037960Y-1609920D01*
X36032880Y-1579440D01*
X36022720Y-1538800D01*
X36015100Y-1490540D01*
X36012560Y-1482920D01*
X36004940Y-1434660D01*
X35997320Y-1396560D01*
X35989700Y-1368620D01*
X35987160Y-1355920D01*
X35982080Y-1355920D01*
X35956680Y-1353380D01*
X35921120Y-1353380D01*
X35877940Y-1353380D01*
X35834760Y-1353380D01*
X35791580Y-1353380D01*
X35753480Y-1355920D01*
X35728080Y-1355920D01*
X35715380Y-1358460D01*
X35715380Y-1361000D01*
X35710300Y-1373700D01*
X35705220Y-1404180D01*
X35695060Y-1444820D01*
X35687440Y-1495620D01*
X35684900Y-1503240D01*
X35677280Y-1551500D01*
X35667120Y-1589600D01*
X35662040Y-1617540D01*
X35659500Y-1627700D01*
X35654420Y-1630240D01*
X35636640Y-1637860D01*
X35603620Y-1650560D01*
X35562980Y-1668340D01*
X35471540Y-1703900D01*
X35359780Y-1627700D01*
X35349620Y-1620080D01*
X35308980Y-1592140D01*
X35275960Y-1571820D01*
X35253100Y-1556580D01*
X35242940Y-1551500D01*
X35242940Y-1551500D01*
X35232780Y-1561660D01*
X35209920Y-1581980D01*
X35179440Y-1612460D01*
X35143880Y-1645480D01*
X35118480Y-1673420D01*
X35088000Y-1703900D01*
X35067680Y-1724220D01*
X35057520Y-1739460D01*
X35052440Y-1747080D01*
X35054980Y-1752160D01*
X35060060Y-1764860D01*
X35077840Y-1787720D01*
X35100700Y-1823280D01*
X35128640Y-1861380D01*
X35151500Y-1896940D01*
X35174360Y-1932500D01*
X35189600Y-1960440D01*
X35197220Y-1973140D01*
X35194680Y-1978220D01*
X35187060Y-2001080D01*
X35174360Y-2034100D01*
X35156580Y-2074740D01*
X35118480Y-2163640D01*
X35060060Y-2173800D01*
X35024500Y-2181420D01*
X34973700Y-2189040D01*
X34927980Y-2199200D01*
X34854320Y-2214440D01*
X34851780Y-2481140D01*
X34861940Y-2486220D01*
X34874640Y-2491300D01*
X34900040Y-2496380D01*
X34940680Y-2504000D01*
X34986400Y-2511620D01*
X35024500Y-2519240D01*
X35065140Y-2526860D01*
X35093080Y-2531940D01*
X35105780Y-2534480D01*
X35108320Y-2539560D01*
X35118480Y-2559880D01*
X35133720Y-2590360D01*
X35148960Y-2625920D01*
X35164200Y-2664020D01*
X35176900Y-2699580D01*
X35187060Y-2724980D01*
X35192140Y-2740220D01*
X35187060Y-2750380D01*
X35171820Y-2773240D01*
X35148960Y-2806260D01*
X35123560Y-2844360D01*
X35095620Y-2885000D01*
X35072760Y-2918020D01*
X35057520Y-2943420D01*
X35049900Y-2953580D01*
X35054980Y-2961200D01*
X35070220Y-2978980D01*
X35098160Y-3009460D01*
X35143880Y-3055180D01*
X35151500Y-3060260D01*
X35184520Y-3095820D01*
X35215000Y-3121220D01*
X35235320Y-3141540D01*
X35245480Y-3146620D01*
D10*
X37016667Y-13150000D02*
X36983333Y-13183333D01*
X36883333Y-13216667D01*
X36816667Y-13216667D01*
X36716667Y-13183333D01*
X36650000Y-13116667D01*
X36616667Y-13050000D01*
X36583333Y-12916667D01*
X36583333Y-12816667D01*
X36616667Y-12683333D01*
X36650000Y-12616667D01*
X36716667Y-12550000D01*
X36816667Y-12516667D01*
X36883333Y-12516667D01*
X36983333Y-12550000D01*
X37016667Y-12583333D01*
X37316667Y-13216667D02*
X37316667Y-12516667D01*
X37716667Y-13216667D01*
X37716667Y-12516667D01*
X38016666Y-12583333D02*
X38050000Y-12550000D01*
X38116666Y-12516667D01*
X38283333Y-12516667D01*
X38350000Y-12550000D01*
X38383333Y-12583333D01*
X38416666Y-12650000D01*
X38416666Y-12716667D01*
X38383333Y-12816667D01*
X37983333Y-13216667D01*
X38416666Y-13216667D01*
X24591667Y-17066667D02*
X24591667Y-17633333D01*
X24625000Y-17700000D01*
X24658333Y-17733333D01*
X24725000Y-17766667D01*
X24858333Y-17766667D01*
X24925000Y-17733333D01*
X24958333Y-17700000D01*
X24991667Y-17633333D01*
X24991667Y-17066667D01*
X25691666Y-17766667D02*
X25291666Y-17766667D01*
X25491666Y-17766667D02*
X25491666Y-17066667D01*
X25425000Y-17166667D01*
X25358333Y-17233333D01*
X25291666Y-17266667D01*
X13678601Y-18182867D02*
X13678601Y-18349533D01*
X13511934Y-18282867D02*
X13678601Y-18349533D01*
X13845267Y-18282867D01*
X13578601Y-18482867D02*
X13678601Y-18349533D01*
X13778601Y-18482867D01*
X26650000Y-19550000D02*
X26616666Y-19583333D01*
X26516666Y-19616667D01*
X26450000Y-19616667D01*
X26350000Y-19583333D01*
X26283333Y-19516667D01*
X26250000Y-19450000D01*
X26216666Y-19316667D01*
X26216666Y-19216667D01*
X26250000Y-19083333D01*
X26283333Y-19016667D01*
X26350000Y-18950000D01*
X26450000Y-18916667D01*
X26516666Y-18916667D01*
X26616666Y-18950000D01*
X26650000Y-18983333D01*
X26916666Y-18983333D02*
X26950000Y-18950000D01*
X27016666Y-18916667D01*
X27183333Y-18916667D01*
X27250000Y-18950000D01*
X27283333Y-18983333D01*
X27316666Y-19050000D01*
X27316666Y-19116667D01*
X27283333Y-19216667D01*
X26883333Y-19616667D01*
X27316666Y-19616667D01*
X27550000Y-18916667D02*
X27983333Y-18916667D01*
X27750000Y-19183333D01*
X27850000Y-19183333D01*
X27916667Y-19216667D01*
X27950000Y-19250000D01*
X27983333Y-19316667D01*
X27983333Y-19483333D01*
X27950000Y-19550000D01*
X27916667Y-19583333D01*
X27850000Y-19616667D01*
X27650000Y-19616667D01*
X27583333Y-19583333D01*
X27550000Y-19550000D01*
X22858579Y-30694975D02*
X22858578Y-30742115D01*
X22811438Y-30836397D01*
X22764298Y-30883537D01*
X22670017Y-30930677D01*
X22575736Y-30930677D01*
X22505025Y-30907107D01*
X22387174Y-30836397D01*
X22316463Y-30765686D01*
X22245753Y-30647834D01*
X22222183Y-30577124D01*
X22222183Y-30482843D01*
X22269323Y-30388562D01*
X22316463Y-30341422D01*
X22410744Y-30294281D01*
X22457885Y-30294281D01*
X22646446Y-30105719D02*
X22646447Y-30058579D01*
X22670017Y-29987869D01*
X22787868Y-29870017D01*
X22858579Y-29846447D01*
X22905719Y-29846447D01*
X22976429Y-29870017D01*
X23023570Y-29917158D01*
X23070711Y-30011439D01*
X23070711Y-30577124D01*
X23377123Y-30270711D01*
X23471405Y-29516463D02*
X23801388Y-29846447D01*
X23164991Y-29445753D02*
X23400693Y-29917157D01*
X23707107Y-29610744D01*
X24358579Y-33194976D02*
X24358578Y-33242116D01*
X24311438Y-33336398D01*
X24264298Y-33383538D01*
X24170017Y-33430678D01*
X24075736Y-33430678D01*
X24005025Y-33407108D01*
X23887174Y-33336398D01*
X23816463Y-33265687D01*
X23745753Y-33147835D01*
X23722183Y-33077125D01*
X23722183Y-32982844D01*
X23769323Y-32888563D01*
X23816463Y-32841423D01*
X23910744Y-32794282D01*
X23957885Y-32794282D01*
X24146446Y-32605720D02*
X24146447Y-32558580D01*
X24170017Y-32487870D01*
X24287868Y-32370018D01*
X24358579Y-32346448D01*
X24405719Y-32346448D01*
X24476429Y-32370018D01*
X24523570Y-32417159D01*
X24570711Y-32511440D01*
X24570711Y-33077125D01*
X24877123Y-32770712D01*
X24829983Y-31827903D02*
X24594281Y-32063605D01*
X24806413Y-32322878D01*
X24806413Y-32275737D01*
X24829983Y-32205026D01*
X24947834Y-32087175D01*
X25018545Y-32063605D01*
X25065685Y-32063605D01*
X25136396Y-32087176D01*
X25254247Y-32205026D01*
X25277817Y-32275737D01*
X25277817Y-32322877D01*
X25254247Y-32393588D01*
X25136396Y-32511440D01*
X25065685Y-32535009D01*
X25018545Y-32535010D01*
X26233333Y-8516667D02*
X26700000Y-9216667D01*
X26700000Y-8516667D02*
X26233333Y-9216667D01*
X27333333Y-9216667D02*
X26933333Y-9216667D01*
X27133333Y-9216667D02*
X27133333Y-8516667D01*
X27066667Y-8616667D01*
X27000000Y-8683333D01*
X26933333Y-8716667D01*
X26683334Y-24116667D02*
X26450000Y-23783333D01*
X26283334Y-24116667D02*
X26283334Y-23416667D01*
X26550000Y-23416667D01*
X26616667Y-23450000D01*
X26650000Y-23483333D01*
X26683334Y-23550000D01*
X26683334Y-23650000D01*
X26650000Y-23716667D01*
X26616667Y-23750000D01*
X26550000Y-23783333D01*
X26283334Y-23783333D01*
X27350000Y-24116667D02*
X26950000Y-24116667D01*
X27150000Y-24116667D02*
X27150000Y-23416667D01*
X27083334Y-23516667D01*
X27016667Y-23583333D01*
X26950000Y-23616667D01*
X7166667Y-9600000D02*
X7133333Y-9633333D01*
X7033333Y-9666667D01*
X6966667Y-9666667D01*
X6866667Y-9633333D01*
X6800000Y-9566667D01*
X6766667Y-9500000D01*
X6733333Y-9366667D01*
X6733333Y-9266667D01*
X6766667Y-9133333D01*
X6800000Y-9066667D01*
X6866667Y-9000000D01*
X6966667Y-8966667D01*
X7033333Y-8966667D01*
X7133333Y-9000000D01*
X7166667Y-9033333D01*
X7466667Y-9666667D02*
X7466667Y-8966667D01*
X7866667Y-9666667D01*
X7866667Y-8966667D01*
X8566666Y-9666667D02*
X8166666Y-9666667D01*
X8366666Y-9666667D02*
X8366666Y-8966667D01*
X8300000Y-9066667D01*
X8233333Y-9133333D01*
X8166666Y-9166667D01*
X33550000Y-25250000D02*
X33516666Y-25283333D01*
X33416666Y-25316667D01*
X33350000Y-25316667D01*
X33250000Y-25283333D01*
X33183333Y-25216667D01*
X33150000Y-25150000D01*
X33116666Y-25016667D01*
X33116666Y-24916667D01*
X33150000Y-24783333D01*
X33183333Y-24716667D01*
X33250000Y-24650000D01*
X33350000Y-24616667D01*
X33416666Y-24616667D01*
X33516666Y-24650000D01*
X33550000Y-24683333D01*
X33783333Y-24616667D02*
X34216666Y-24616667D01*
X33983333Y-24883333D01*
X34083333Y-24883333D01*
X34150000Y-24916667D01*
X34183333Y-24950000D01*
X34216666Y-25016667D01*
X34216666Y-25183333D01*
X34183333Y-25250000D01*
X34150000Y-25283333D01*
X34083333Y-25316667D01*
X33883333Y-25316667D01*
X33816666Y-25283333D01*
X33783333Y-25250000D01*
X34883333Y-25316667D02*
X34483333Y-25316667D01*
X34683333Y-25316667D02*
X34683333Y-24616667D01*
X34616667Y-24716667D01*
X34550000Y-24783333D01*
X34483333Y-24816667D01*
X33550000Y-23450000D02*
X33516666Y-23483333D01*
X33416666Y-23516667D01*
X33350000Y-23516667D01*
X33250000Y-23483333D01*
X33183333Y-23416667D01*
X33150000Y-23350000D01*
X33116666Y-23216667D01*
X33116666Y-23116667D01*
X33150000Y-22983333D01*
X33183333Y-22916667D01*
X33250000Y-22850000D01*
X33350000Y-22816667D01*
X33416666Y-22816667D01*
X33516666Y-22850000D01*
X33550000Y-22883333D01*
X33783333Y-22816667D02*
X34216666Y-22816667D01*
X33983333Y-23083333D01*
X34083333Y-23083333D01*
X34150000Y-23116667D01*
X34183333Y-23150000D01*
X34216666Y-23216667D01*
X34216666Y-23383333D01*
X34183333Y-23450000D01*
X34150000Y-23483333D01*
X34083333Y-23516667D01*
X33883333Y-23516667D01*
X33816666Y-23483333D01*
X33783333Y-23450000D01*
X34483333Y-22883333D02*
X34516667Y-22850000D01*
X34583333Y-22816667D01*
X34750000Y-22816667D01*
X34816667Y-22850000D01*
X34850000Y-22883333D01*
X34883333Y-22950000D01*
X34883333Y-23016667D01*
X34850000Y-23116667D01*
X34450000Y-23516667D01*
X34883333Y-23516667D01*
X28416667Y-36050000D02*
X28183334Y-36050000D01*
X28183334Y-36416667D02*
X28183334Y-35716667D01*
X28516667Y-35716667D01*
X29016667Y-36050000D02*
X29116667Y-36083333D01*
X29150000Y-36116667D01*
X29183334Y-36183333D01*
X29183334Y-36283333D01*
X29150000Y-36350000D01*
X29116667Y-36383333D01*
X29050000Y-36416667D01*
X28783334Y-36416667D01*
X28783334Y-35716667D01*
X29016667Y-35716667D01*
X29083334Y-35750000D01*
X29116667Y-35783333D01*
X29150000Y-35850000D01*
X29150000Y-35916667D01*
X29116667Y-35983333D01*
X29083334Y-36016667D01*
X29016667Y-36050000D01*
X28783334Y-36050000D01*
X29850000Y-36416667D02*
X29450000Y-36416667D01*
X29650000Y-36416667D02*
X29650000Y-35716667D01*
X29583334Y-35816667D01*
X29516667Y-35883333D01*
X29450000Y-35916667D01*
X30516667Y-36050000D02*
X30283334Y-36050000D01*
X30283334Y-36416667D02*
X30283334Y-35716667D01*
X30616667Y-35716667D01*
X31116667Y-36050000D02*
X31216667Y-36083333D01*
X31250000Y-36116667D01*
X31283334Y-36183333D01*
X31283334Y-36283333D01*
X31250000Y-36350000D01*
X31216667Y-36383333D01*
X31150000Y-36416667D01*
X30883334Y-36416667D01*
X30883334Y-35716667D01*
X31116667Y-35716667D01*
X31183334Y-35750000D01*
X31216667Y-35783333D01*
X31250000Y-35850000D01*
X31250000Y-35916667D01*
X31216667Y-35983333D01*
X31183334Y-36016667D01*
X31116667Y-36050000D01*
X30883334Y-36050000D01*
X31550000Y-35783333D02*
X31583334Y-35750000D01*
X31650000Y-35716667D01*
X31816667Y-35716667D01*
X31883334Y-35750000D01*
X31916667Y-35783333D01*
X31950000Y-35850000D01*
X31950000Y-35916667D01*
X31916667Y-36016667D01*
X31516667Y-36416667D01*
X31950000Y-36416667D01*
X32716667Y-36050000D02*
X32483334Y-36050000D01*
X32483334Y-36416667D02*
X32483334Y-35716667D01*
X32816667Y-35716667D01*
X33316667Y-36050000D02*
X33416667Y-36083333D01*
X33450000Y-36116667D01*
X33483334Y-36183333D01*
X33483334Y-36283333D01*
X33450000Y-36350000D01*
X33416667Y-36383333D01*
X33350000Y-36416667D01*
X33083334Y-36416667D01*
X33083334Y-35716667D01*
X33316667Y-35716667D01*
X33383334Y-35750000D01*
X33416667Y-35783333D01*
X33450000Y-35850000D01*
X33450000Y-35916667D01*
X33416667Y-35983333D01*
X33383334Y-36016667D01*
X33316667Y-36050000D01*
X33083334Y-36050000D01*
X33716667Y-35716667D02*
X34150000Y-35716667D01*
X33916667Y-35983333D01*
X34016667Y-35983333D01*
X34083334Y-36016667D01*
X34116667Y-36050000D01*
X34150000Y-36116667D01*
X34150000Y-36283333D01*
X34116667Y-36350000D01*
X34083334Y-36383333D01*
X34016667Y-36416667D01*
X33816667Y-36416667D01*
X33750000Y-36383333D01*
X33716667Y-36350000D01*
X26516667Y-34950000D02*
X26283334Y-34950000D01*
X26283334Y-35316667D02*
X26283334Y-34616667D01*
X26616667Y-34616667D01*
X27116667Y-34950000D02*
X27216667Y-34983333D01*
X27250000Y-35016667D01*
X27283334Y-35083333D01*
X27283334Y-35183333D01*
X27250000Y-35250000D01*
X27216667Y-35283333D01*
X27150000Y-35316667D01*
X26883334Y-35316667D01*
X26883334Y-34616667D01*
X27116667Y-34616667D01*
X27183334Y-34650000D01*
X27216667Y-34683333D01*
X27250000Y-34750000D01*
X27250000Y-34816667D01*
X27216667Y-34883333D01*
X27183334Y-34916667D01*
X27116667Y-34950000D01*
X26883334Y-34950000D01*
X27883334Y-34850000D02*
X27883334Y-35316667D01*
X27716667Y-34583333D02*
X27550000Y-35083333D01*
X27983334Y-35083333D01*
X31066667Y-15116667D02*
X31066667Y-15616667D01*
X31033333Y-15716667D01*
X30966667Y-15783333D01*
X30866667Y-15816667D01*
X30800000Y-15816667D01*
X31766666Y-15816667D02*
X31366666Y-15816667D01*
X31566666Y-15816667D02*
X31566666Y-15116667D01*
X31500000Y-15216667D01*
X31433333Y-15283333D01*
X31366666Y-15316667D01*
X31066667Y-20616667D02*
X31066667Y-21116667D01*
X31033333Y-21216667D01*
X30966667Y-21283333D01*
X30866667Y-21316667D01*
X30800000Y-21316667D01*
X31366666Y-20683333D02*
X31400000Y-20650000D01*
X31466666Y-20616667D01*
X31633333Y-20616667D01*
X31700000Y-20650000D01*
X31733333Y-20683333D01*
X31766666Y-20750000D01*
X31766666Y-20816667D01*
X31733333Y-20916667D01*
X31333333Y-21316667D01*
X31766666Y-21316667D01*
X34950000Y-36350000D02*
X34916666Y-36383333D01*
X34816666Y-36416667D01*
X34750000Y-36416667D01*
X34650000Y-36383333D01*
X34583333Y-36316667D01*
X34550000Y-36250000D01*
X34516666Y-36116667D01*
X34516666Y-36016667D01*
X34550000Y-35883333D01*
X34583333Y-35816667D01*
X34650000Y-35750000D01*
X34750000Y-35716667D01*
X34816666Y-35716667D01*
X34916666Y-35750000D01*
X34950000Y-35783333D01*
X35616666Y-36416667D02*
X35216666Y-36416667D01*
X35416666Y-36416667D02*
X35416666Y-35716667D01*
X35350000Y-35816667D01*
X35283333Y-35883333D01*
X35216666Y-35916667D01*
X36250000Y-35716667D02*
X35916667Y-35716667D01*
X35883333Y-36050000D01*
X35916667Y-36016667D01*
X35983333Y-35983333D01*
X36150000Y-35983333D01*
X36216667Y-36016667D01*
X36250000Y-36050000D01*
X36283333Y-36116667D01*
X36283333Y-36283333D01*
X36250000Y-36350000D01*
X36216667Y-36383333D01*
X36150000Y-36416667D01*
X35983333Y-36416667D01*
X35916667Y-36383333D01*
X35883333Y-36350000D01*
X24850000Y-36350000D02*
X24816666Y-36383333D01*
X24716666Y-36416667D01*
X24650000Y-36416667D01*
X24550000Y-36383333D01*
X24483333Y-36316667D01*
X24450000Y-36250000D01*
X24416666Y-36116667D01*
X24416666Y-36016667D01*
X24450000Y-35883333D01*
X24483333Y-35816667D01*
X24550000Y-35750000D01*
X24650000Y-35716667D01*
X24716666Y-35716667D01*
X24816666Y-35750000D01*
X24850000Y-35783333D01*
X25516666Y-36416667D02*
X25116666Y-36416667D01*
X25316666Y-36416667D02*
X25316666Y-35716667D01*
X25250000Y-35816667D01*
X25183333Y-35883333D01*
X25116666Y-35916667D01*
X26116667Y-35716667D02*
X25983333Y-35716667D01*
X25916667Y-35750000D01*
X25883333Y-35783333D01*
X25816667Y-35883333D01*
X25783333Y-36016667D01*
X25783333Y-36283333D01*
X25816667Y-36350000D01*
X25850000Y-36383333D01*
X25916667Y-36416667D01*
X26050000Y-36416667D01*
X26116667Y-36383333D01*
X26150000Y-36350000D01*
X26183333Y-36283333D01*
X26183333Y-36116667D01*
X26150000Y-36050000D01*
X26116667Y-36016667D01*
X26050000Y-35983333D01*
X25916667Y-35983333D01*
X25850000Y-36016667D01*
X25816667Y-36050000D01*
X25783333Y-36116667D01*
X36950000Y-35350000D02*
X36916666Y-35383333D01*
X36816666Y-35416667D01*
X36750000Y-35416667D01*
X36650000Y-35383333D01*
X36583333Y-35316667D01*
X36550000Y-35250000D01*
X36516666Y-35116667D01*
X36516666Y-35016667D01*
X36550000Y-34883333D01*
X36583333Y-34816667D01*
X36650000Y-34750000D01*
X36750000Y-34716667D01*
X36816666Y-34716667D01*
X36916666Y-34750000D01*
X36950000Y-34783333D01*
X37616666Y-35416667D02*
X37216666Y-35416667D01*
X37416666Y-35416667D02*
X37416666Y-34716667D01*
X37350000Y-34816667D01*
X37283333Y-34883333D01*
X37216666Y-34916667D01*
X37850000Y-34716667D02*
X38316667Y-34716667D01*
X38016667Y-35416667D01*
X22550000Y-36350000D02*
X22516666Y-36383333D01*
X22416666Y-36416667D01*
X22350000Y-36416667D01*
X22250000Y-36383333D01*
X22183333Y-36316667D01*
X22150000Y-36250000D01*
X22116666Y-36116667D01*
X22116666Y-36016667D01*
X22150000Y-35883333D01*
X22183333Y-35816667D01*
X22250000Y-35750000D01*
X22350000Y-35716667D01*
X22416666Y-35716667D01*
X22516666Y-35750000D01*
X22550000Y-35783333D01*
X23216666Y-36416667D02*
X22816666Y-36416667D01*
X23016666Y-36416667D02*
X23016666Y-35716667D01*
X22950000Y-35816667D01*
X22883333Y-35883333D01*
X22816666Y-35916667D01*
X23616667Y-36016667D02*
X23550000Y-35983333D01*
X23516667Y-35950000D01*
X23483333Y-35883333D01*
X23483333Y-35850000D01*
X23516667Y-35783333D01*
X23550000Y-35750000D01*
X23616667Y-35716667D01*
X23750000Y-35716667D01*
X23816667Y-35750000D01*
X23850000Y-35783333D01*
X23883333Y-35850000D01*
X23883333Y-35883333D01*
X23850000Y-35950000D01*
X23816667Y-35983333D01*
X23750000Y-36016667D01*
X23616667Y-36016667D01*
X23550000Y-36050000D01*
X23516667Y-36083333D01*
X23483333Y-36150000D01*
X23483333Y-36283333D01*
X23516667Y-36350000D01*
X23550000Y-36383333D01*
X23616667Y-36416667D01*
X23750000Y-36416667D01*
X23816667Y-36383333D01*
X23850000Y-36350000D01*
X23883333Y-36283333D01*
X23883333Y-36150000D01*
X23850000Y-36083333D01*
X23816667Y-36050000D01*
X23750000Y-36016667D01*
X41450000Y-36350000D02*
X41416666Y-36383333D01*
X41316666Y-36416667D01*
X41250000Y-36416667D01*
X41150000Y-36383333D01*
X41083333Y-36316667D01*
X41050000Y-36250000D01*
X41016666Y-36116667D01*
X41016666Y-36016667D01*
X41050000Y-35883333D01*
X41083333Y-35816667D01*
X41150000Y-35750000D01*
X41250000Y-35716667D01*
X41316666Y-35716667D01*
X41416666Y-35750000D01*
X41450000Y-35783333D01*
X42116666Y-36416667D02*
X41716666Y-36416667D01*
X41916666Y-36416667D02*
X41916666Y-35716667D01*
X41850000Y-35816667D01*
X41783333Y-35883333D01*
X41716666Y-35916667D01*
X42450000Y-36416667D02*
X42583333Y-36416667D01*
X42650000Y-36383333D01*
X42683333Y-36350000D01*
X42750000Y-36250000D01*
X42783333Y-36116667D01*
X42783333Y-35850000D01*
X42750000Y-35783333D01*
X42716667Y-35750000D01*
X42650000Y-35716667D01*
X42516667Y-35716667D01*
X42450000Y-35750000D01*
X42416667Y-35783333D01*
X42383333Y-35850000D01*
X42383333Y-36016667D01*
X42416667Y-36083333D01*
X42450000Y-36116667D01*
X42516667Y-36150000D01*
X42650000Y-36150000D01*
X42716667Y-36116667D01*
X42750000Y-36083333D01*
X42783333Y-36016667D01*
X20350000Y-35250000D02*
X20316666Y-35283333D01*
X20216666Y-35316667D01*
X20150000Y-35316667D01*
X20050000Y-35283333D01*
X19983333Y-35216667D01*
X19950000Y-35150000D01*
X19916666Y-35016667D01*
X19916666Y-34916667D01*
X19950000Y-34783333D01*
X19983333Y-34716667D01*
X20050000Y-34650000D01*
X20150000Y-34616667D01*
X20216666Y-34616667D01*
X20316666Y-34650000D01*
X20350000Y-34683333D01*
X20616666Y-34683333D02*
X20650000Y-34650000D01*
X20716666Y-34616667D01*
X20883333Y-34616667D01*
X20950000Y-34650000D01*
X20983333Y-34683333D01*
X21016666Y-34750000D01*
X21016666Y-34816667D01*
X20983333Y-34916667D01*
X20583333Y-35316667D01*
X21016666Y-35316667D01*
X21450000Y-34616667D02*
X21516667Y-34616667D01*
X21583333Y-34650000D01*
X21616667Y-34683333D01*
X21650000Y-34750000D01*
X21683333Y-34883333D01*
X21683333Y-35050000D01*
X21650000Y-35183333D01*
X21616667Y-35250000D01*
X21583333Y-35283333D01*
X21516667Y-35316667D01*
X21450000Y-35316667D01*
X21383333Y-35283333D01*
X21350000Y-35250000D01*
X21316667Y-35183333D01*
X21283333Y-35050000D01*
X21283333Y-34883333D01*
X21316667Y-34750000D01*
X21350000Y-34683333D01*
X21383333Y-34650000D01*
X21450000Y-34616667D01*
X35483334Y-19216667D02*
X35250000Y-18883333D01*
X35083334Y-19216667D02*
X35083334Y-18516667D01*
X35350000Y-18516667D01*
X35416667Y-18550000D01*
X35450000Y-18583333D01*
X35483334Y-18650000D01*
X35483334Y-18750000D01*
X35450000Y-18816667D01*
X35416667Y-18850000D01*
X35350000Y-18883333D01*
X35083334Y-18883333D01*
X35750000Y-18583333D02*
X35783334Y-18550000D01*
X35850000Y-18516667D01*
X36016667Y-18516667D01*
X36083334Y-18550000D01*
X36116667Y-18583333D01*
X36150000Y-18650000D01*
X36150000Y-18716667D01*
X36116667Y-18816667D01*
X35716667Y-19216667D01*
X36150000Y-19216667D01*
X13316667Y-14516667D02*
X13716667Y-14516667D01*
X13516667Y-15216667D02*
X13516667Y-14516667D01*
X13950000Y-15216667D02*
X13950000Y-14516667D01*
X14216666Y-14516667D01*
X14283333Y-14550000D01*
X14316666Y-14583333D01*
X14350000Y-14650000D01*
X14350000Y-14750000D01*
X14316666Y-14816667D01*
X14283333Y-14850000D01*
X14216666Y-14883333D01*
X13950000Y-14883333D01*
X14616666Y-14583333D02*
X14650000Y-14550000D01*
X14716666Y-14516667D01*
X14883333Y-14516667D01*
X14950000Y-14550000D01*
X14983333Y-14583333D01*
X15016666Y-14650000D01*
X15016666Y-14716667D01*
X14983333Y-14816667D01*
X14583333Y-15216667D01*
X15016666Y-15216667D01*
X28983334Y-14316667D02*
X28750000Y-13983333D01*
X28583334Y-14316667D02*
X28583334Y-13616667D01*
X28850000Y-13616667D01*
X28916667Y-13650000D01*
X28950000Y-13683333D01*
X28983334Y-13750000D01*
X28983334Y-13850000D01*
X28950000Y-13916667D01*
X28916667Y-13950000D01*
X28850000Y-13983333D01*
X28583334Y-13983333D01*
X29216667Y-13616667D02*
X29650000Y-13616667D01*
X29416667Y-13883333D01*
X29516667Y-13883333D01*
X29583334Y-13916667D01*
X29616667Y-13950000D01*
X29650000Y-14016667D01*
X29650000Y-14183333D01*
X29616667Y-14250000D01*
X29583334Y-14283333D01*
X29516667Y-14316667D01*
X29316667Y-14316667D01*
X29250000Y-14283333D01*
X29216667Y-14250000D01*
X13466667Y-40216667D02*
X13466667Y-40716667D01*
X13433333Y-40816667D01*
X13366667Y-40883333D01*
X13266667Y-40916667D01*
X13200000Y-40916667D01*
X14133333Y-40216667D02*
X13800000Y-40216667D01*
X13766666Y-40550000D01*
X13800000Y-40516667D01*
X13866666Y-40483333D01*
X14033333Y-40483333D01*
X14100000Y-40516667D01*
X14133333Y-40550000D01*
X14166666Y-40616667D01*
X14166666Y-40783333D01*
X14133333Y-40850000D01*
X14100000Y-40883333D01*
X14033333Y-40916667D01*
X13866666Y-40916667D01*
X13800000Y-40883333D01*
X13766666Y-40850000D01*
X13466667Y-37716667D02*
X13466667Y-38216667D01*
X13433333Y-38316667D01*
X13366667Y-38383333D01*
X13266667Y-38416667D01*
X13200000Y-38416667D01*
X13733333Y-37716667D02*
X14200000Y-37716667D01*
X13900000Y-38416667D01*
X15916667Y-7416667D02*
X15916667Y-7916667D01*
X15883333Y-8016667D01*
X15816667Y-8083333D01*
X15716667Y-8116667D01*
X15650000Y-8116667D01*
X16350000Y-7716667D02*
X16283333Y-7683333D01*
X16250000Y-7650000D01*
X16216666Y-7583333D01*
X16216666Y-7550000D01*
X16250000Y-7483333D01*
X16283333Y-7450000D01*
X16350000Y-7416667D01*
X16483333Y-7416667D01*
X16550000Y-7450000D01*
X16583333Y-7483333D01*
X16616666Y-7550000D01*
X16616666Y-7583333D01*
X16583333Y-7650000D01*
X16550000Y-7683333D01*
X16483333Y-7716667D01*
X16350000Y-7716667D01*
X16283333Y-7750000D01*
X16250000Y-7783333D01*
X16216666Y-7850000D01*
X16216666Y-7983333D01*
X16250000Y-8050000D01*
X16283333Y-8083333D01*
X16350000Y-8116667D01*
X16483333Y-8116667D01*
X16550000Y-8083333D01*
X16583333Y-8050000D01*
X16616666Y-7983333D01*
X16616666Y-7850000D01*
X16583333Y-7783333D01*
X16550000Y-7750000D01*
X16483333Y-7716667D01*
X13016667Y-33816667D02*
X13416667Y-33816667D01*
X13216667Y-34516667D02*
X13216667Y-33816667D01*
X13650000Y-34516667D02*
X13650000Y-33816667D01*
X13916666Y-33816667D01*
X13983333Y-33850000D01*
X14016666Y-33883333D01*
X14050000Y-33950000D01*
X14050000Y-34050000D01*
X14016666Y-34116667D01*
X13983333Y-34150000D01*
X13916666Y-34183333D01*
X13650000Y-34183333D01*
X14716666Y-34516667D02*
X14316666Y-34516667D01*
X14516666Y-34516667D02*
X14516666Y-33816667D01*
X14450000Y-33916667D01*
X14383333Y-33983333D01*
X14316666Y-34016667D01*
X616667Y-22383333D02*
X616667Y-21983333D01*
X1316667Y-22183333D02*
X616667Y-22183333D01*
X1316667Y-21750000D02*
X616667Y-21750000D01*
X616667Y-21483334D01*
X650000Y-21416667D01*
X683333Y-21383334D01*
X750000Y-21350000D01*
X850000Y-21350000D01*
X916667Y-21383334D01*
X950000Y-21416667D01*
X983333Y-21483334D01*
X983333Y-21750000D01*
X616667Y-21116667D02*
X616667Y-20683334D01*
X883333Y-20916667D01*
X883333Y-20816667D01*
X916667Y-20750000D01*
X950000Y-20716667D01*
X1016667Y-20683334D01*
X1183333Y-20683334D01*
X1250000Y-20716667D01*
X1283333Y-20750000D01*
X1316667Y-20816667D01*
X1316667Y-21016667D01*
X1283333Y-21083334D01*
X1250000Y-21116667D01*
X616667Y-25333333D02*
X616667Y-24933333D01*
X1316667Y-25133333D02*
X616667Y-25133333D01*
X1316667Y-24700000D02*
X616667Y-24700000D01*
X616667Y-24433334D01*
X650000Y-24366667D01*
X683333Y-24333334D01*
X750000Y-24300000D01*
X850000Y-24300000D01*
X916667Y-24333334D01*
X950000Y-24366667D01*
X983333Y-24433334D01*
X983333Y-24700000D01*
X850000Y-23700000D02*
X1316667Y-23700000D01*
X583333Y-23866667D02*
X1083333Y-24033334D01*
X1083333Y-23600000D01*
X616667Y-27883333D02*
X616667Y-27483333D01*
X1316667Y-27683333D02*
X616667Y-27683333D01*
X1316667Y-27250000D02*
X616667Y-27250000D01*
X616667Y-26983334D01*
X650000Y-26916667D01*
X683333Y-26883334D01*
X750000Y-26850000D01*
X850000Y-26850000D01*
X916667Y-26883334D01*
X950000Y-26916667D01*
X983333Y-26983334D01*
X983333Y-27250000D01*
X616667Y-26216667D02*
X616667Y-26550000D01*
X950000Y-26583334D01*
X916667Y-26550000D01*
X883333Y-26483334D01*
X883333Y-26316667D01*
X916667Y-26250000D01*
X950000Y-26216667D01*
X1016667Y-26183334D01*
X1183333Y-26183334D01*
X1250000Y-26216667D01*
X1283333Y-26250000D01*
X1316667Y-26316667D01*
X1316667Y-26483334D01*
X1283333Y-26550000D01*
X1250000Y-26583334D01*
X1166667Y-38183333D02*
X1166667Y-37783333D01*
X1866667Y-37983333D02*
X1166667Y-37983333D01*
X1866667Y-37550000D02*
X1166667Y-37550000D01*
X1166667Y-37283334D01*
X1200000Y-37216667D01*
X1233333Y-37183334D01*
X1300000Y-37150000D01*
X1400000Y-37150000D01*
X1466667Y-37183334D01*
X1500000Y-37216667D01*
X1533333Y-37283334D01*
X1533333Y-37550000D01*
X1166667Y-36550000D02*
X1166667Y-36683334D01*
X1200000Y-36750000D01*
X1233333Y-36783334D01*
X1333333Y-36850000D01*
X1466667Y-36883334D01*
X1733333Y-36883334D01*
X1800000Y-36850000D01*
X1833333Y-36816667D01*
X1866667Y-36750000D01*
X1866667Y-36616667D01*
X1833333Y-36550000D01*
X1800000Y-36516667D01*
X1733333Y-36483334D01*
X1566667Y-36483334D01*
X1500000Y-36516667D01*
X1466667Y-36550000D01*
X1433333Y-36616667D01*
X1433333Y-36750000D01*
X1466667Y-36816667D01*
X1500000Y-36850000D01*
X1566667Y-36883334D01*
X11716667Y-45350000D02*
X11683333Y-45383333D01*
X11583333Y-45416667D01*
X11516667Y-45416667D01*
X11416667Y-45383333D01*
X11350000Y-45316667D01*
X11316667Y-45250000D01*
X11283333Y-45116667D01*
X11283333Y-45016667D01*
X11316667Y-44883333D01*
X11350000Y-44816667D01*
X11416667Y-44750000D01*
X11516667Y-44716667D01*
X11583333Y-44716667D01*
X11683333Y-44750000D01*
X11716667Y-44783333D01*
X12016667Y-45416667D02*
X12016667Y-44716667D01*
X12416667Y-45416667D01*
X12416667Y-44716667D01*
X12683333Y-44716667D02*
X13116666Y-44716667D01*
X12883333Y-44983333D01*
X12983333Y-44983333D01*
X13050000Y-45016667D01*
X13083333Y-45050000D01*
X13116666Y-45116667D01*
X13116666Y-45283333D01*
X13083333Y-45350000D01*
X13050000Y-45383333D01*
X12983333Y-45416667D01*
X12783333Y-45416667D01*
X12716666Y-45383333D01*
X12683333Y-45350000D01*
X21916666Y-44833333D02*
X22016666Y-44866667D01*
X22183333Y-44866667D01*
X22250000Y-44833333D01*
X22283333Y-44800000D01*
X22316666Y-44733333D01*
X22316666Y-44666667D01*
X22283333Y-44600000D01*
X22250000Y-44566667D01*
X22183333Y-44533333D01*
X22050000Y-44500000D01*
X21983333Y-44466667D01*
X21950000Y-44433333D01*
X21916666Y-44366667D01*
X21916666Y-44300000D01*
X21950000Y-44233333D01*
X21983333Y-44200000D01*
X22050000Y-44166667D01*
X22216666Y-44166667D01*
X22316666Y-44200000D01*
X22983333Y-44866667D02*
X22583333Y-44866667D01*
X22783333Y-44866667D02*
X22783333Y-44166667D01*
X22716667Y-44266667D01*
X22650000Y-44333333D01*
X22583333Y-44366667D01*
X23816666Y-44833333D02*
X23916666Y-44866667D01*
X24083333Y-44866667D01*
X24150000Y-44833333D01*
X24183333Y-44800000D01*
X24216666Y-44733333D01*
X24216666Y-44666667D01*
X24183333Y-44600000D01*
X24150000Y-44566667D01*
X24083333Y-44533333D01*
X23950000Y-44500000D01*
X23883333Y-44466667D01*
X23850000Y-44433333D01*
X23816666Y-44366667D01*
X23816666Y-44300000D01*
X23850000Y-44233333D01*
X23883333Y-44200000D01*
X23950000Y-44166667D01*
X24116666Y-44166667D01*
X24216666Y-44200000D01*
X24483333Y-44233333D02*
X24516667Y-44200000D01*
X24583333Y-44166667D01*
X24750000Y-44166667D01*
X24816667Y-44200000D01*
X24850000Y-44233333D01*
X24883333Y-44300000D01*
X24883333Y-44366667D01*
X24850000Y-44466667D01*
X24450000Y-44866667D01*
X24883333Y-44866667D01*
X25716666Y-44833333D02*
X25816666Y-44866667D01*
X25983333Y-44866667D01*
X26050000Y-44833333D01*
X26083333Y-44800000D01*
X26116666Y-44733333D01*
X26116666Y-44666667D01*
X26083333Y-44600000D01*
X26050000Y-44566667D01*
X25983333Y-44533333D01*
X25850000Y-44500000D01*
X25783333Y-44466667D01*
X25750000Y-44433333D01*
X25716666Y-44366667D01*
X25716666Y-44300000D01*
X25750000Y-44233333D01*
X25783333Y-44200000D01*
X25850000Y-44166667D01*
X26016666Y-44166667D01*
X26116666Y-44200000D01*
X26350000Y-44166667D02*
X26783333Y-44166667D01*
X26550000Y-44433333D01*
X26650000Y-44433333D01*
X26716667Y-44466667D01*
X26750000Y-44500000D01*
X26783333Y-44566667D01*
X26783333Y-44733333D01*
X26750000Y-44800000D01*
X26716667Y-44833333D01*
X26650000Y-44866667D01*
X26450000Y-44866667D01*
X26383333Y-44833333D01*
X26350000Y-44800000D01*
X40916667Y-45350000D02*
X40883333Y-45383333D01*
X40783333Y-45416667D01*
X40716667Y-45416667D01*
X40616667Y-45383333D01*
X40550000Y-45316667D01*
X40516667Y-45250000D01*
X40483333Y-45116667D01*
X40483333Y-45016667D01*
X40516667Y-44883333D01*
X40550000Y-44816667D01*
X40616667Y-44750000D01*
X40716667Y-44716667D01*
X40783333Y-44716667D01*
X40883333Y-44750000D01*
X40916667Y-44783333D01*
X41216667Y-45416667D02*
X41216667Y-44716667D01*
X41616667Y-45416667D01*
X41616667Y-44716667D01*
X42250000Y-44950000D02*
X42250000Y-45416667D01*
X42083333Y-44683333D02*
X41916666Y-45183333D01*
X42350000Y-45183333D01*
M02*
