%FSLAX46Y46*%
G04 Gerber Fmt 4.6, Leading zero omitted, Abs format (unit mm)*
G04 Created by KiCad (PCBNEW (2014-08-05 BZR 5054)-product) date Sun 07 Dec 2014 10:24:08 PM PST*
%MOMM*%
G01*
G04 APERTURE LIST*
%ADD10C,0.100000*%
%ADD11R,3.000000X0.700000*%
%ADD12R,0.889000X1.397000*%
%ADD13R,1.397000X0.889000*%
%ADD14C,1.501140*%
%ADD15R,0.701040X1.000760*%
%ADD16C,6.350000*%
%ADD17C,1.800000*%
%ADD18O,1.600000X3.800000*%
%ADD19C,1.000000*%
%ADD20C,5.000000*%
%ADD21C,1.397000*%
%ADD22C,0.889000*%
%ADD23C,0.250000*%
%ADD24C,1.000000*%
%ADD25C,0.400000*%
%ADD26C,0.254000*%
G04 APERTURE END LIST*
D10*
D11*
X42300000Y-31200000D03*
X42300000Y-30200000D03*
X42300000Y-29200000D03*
X42300000Y-28200000D03*
X42300000Y-27200000D03*
X42300000Y-26200000D03*
X42300000Y-25200000D03*
X42300000Y-24200000D03*
X42300000Y-23200000D03*
X42300000Y-22200000D03*
X42300000Y-21200000D03*
X42300000Y-18200000D03*
X42300000Y-17200000D03*
X42300000Y-16200000D03*
X42300000Y-15200000D03*
X42300000Y-14200000D03*
X42300000Y-13200000D03*
X42300000Y-12200000D03*
D12*
X26147500Y-24600000D03*
X28052500Y-24600000D03*
D13*
X20300000Y-17847500D03*
X20300000Y-19752500D03*
X15800000Y-17847500D03*
X15800000Y-19752500D03*
X15800000Y-26752500D03*
X15800000Y-24847500D03*
D12*
X24252500Y-24600000D03*
X22347500Y-24600000D03*
D13*
X20000000Y-15752500D03*
X20000000Y-13847500D03*
X15100000Y-15852500D03*
X15100000Y-13947500D03*
X18000000Y-26752500D03*
X18000000Y-24847500D03*
D12*
X24252500Y-22400000D03*
X22347500Y-22400000D03*
X24252500Y-20200000D03*
X22347500Y-20200000D03*
D13*
X18000000Y-17847500D03*
X18000000Y-19752500D03*
D12*
X26247500Y-22750000D03*
X28152500Y-22750000D03*
X26247500Y-20800000D03*
X28152500Y-20800000D03*
D13*
X17200000Y-15852500D03*
X17200000Y-13947500D03*
D10*
G36*
X25418258Y-27206086D02*
X26406086Y-26218258D01*
X27034704Y-26846876D01*
X26046876Y-27834704D01*
X25418258Y-27206086D01*
X25418258Y-27206086D01*
G37*
G36*
X26765296Y-28553124D02*
X27753124Y-27565296D01*
X28381742Y-28193914D01*
X27393914Y-29181742D01*
X26765296Y-28553124D01*
X26765296Y-28553124D01*
G37*
G36*
X23518258Y-29106086D02*
X24506086Y-28118258D01*
X25134704Y-28746876D01*
X24146876Y-29734704D01*
X23518258Y-29106086D01*
X23518258Y-29106086D01*
G37*
G36*
X24865296Y-30453124D02*
X25853124Y-29465296D01*
X26481742Y-30093914D01*
X25493914Y-31081742D01*
X24865296Y-30453124D01*
X24865296Y-30453124D01*
G37*
D13*
X15400000Y-30047500D03*
X15400000Y-31952500D03*
D12*
X13247500Y-28900000D03*
X15152500Y-28900000D03*
X3147500Y-25200000D03*
X5052500Y-25200000D03*
D14*
X28100000Y-42300000D03*
X35700000Y-42300000D03*
X31900000Y-42300000D03*
X39500000Y-42300000D03*
D15*
X5352500Y-27430000D03*
X4400000Y-27430000D03*
X3447500Y-27430000D03*
X3447500Y-29970000D03*
X4400000Y-29970000D03*
X5352500Y-29970000D03*
D16*
X7600000Y-46000000D03*
X7600000Y-3900000D03*
X46000000Y-3900000D03*
X46000000Y-46000000D03*
D13*
X12700000Y-26752500D03*
X12700000Y-24847500D03*
D12*
X17852500Y-28900000D03*
X15947500Y-28900000D03*
D13*
X15000000Y-6852500D03*
X15000000Y-4947500D03*
X13100000Y-6852500D03*
X13100000Y-4947500D03*
X38500000Y-8152500D03*
X38500000Y-6247500D03*
X34500000Y-8152500D03*
X34500000Y-6247500D03*
X39700000Y-40252500D03*
X39700000Y-38347500D03*
X40500000Y-8152500D03*
X40500000Y-6247500D03*
X36500000Y-8152500D03*
X36500000Y-6247500D03*
X41600000Y-40252500D03*
X41600000Y-38347500D03*
D12*
X12297500Y-9150000D03*
X14202500Y-9150000D03*
D13*
X38800000Y-12447500D03*
X38800000Y-14352500D03*
X36700000Y-12447500D03*
X36700000Y-14352500D03*
D12*
X39352500Y-19700000D03*
X37447500Y-19700000D03*
D13*
X8000000Y-27202500D03*
X8000000Y-25297500D03*
D17*
X18050000Y-40650000D03*
X15510000Y-40650000D03*
X15550000Y-38100000D03*
X18090000Y-38100000D03*
X16150000Y-12100000D03*
X16150000Y-9560000D03*
D18*
X25500000Y-47800000D03*
X22960000Y-47800000D03*
X20420000Y-47800000D03*
X17880000Y-47800000D03*
X15340000Y-47800000D03*
X12800000Y-47800000D03*
D14*
X22450000Y-43300000D03*
X24350000Y-43300000D03*
X26250000Y-43300000D03*
D18*
X40740000Y-47800000D03*
X38200000Y-47800000D03*
X35660000Y-47800000D03*
X33120000Y-47800000D03*
X30580000Y-47800000D03*
X28040000Y-47800000D03*
D19*
X2000000Y-2000000D03*
X47800000Y-41500000D03*
D14*
X26250000Y-41450000D03*
D20*
X19800000Y-22300000D03*
D21*
X30000000Y-34600000D03*
D22*
X25350000Y-25050000D03*
X25500000Y-22850000D03*
D21*
X33500000Y-34600000D03*
D22*
X25500000Y-20750000D03*
D21*
X37000000Y-36200000D03*
D22*
X19100000Y-16200000D03*
X23550000Y-14100000D03*
X4900000Y-7300000D03*
D21*
X39500000Y-9600000D03*
X27100000Y-36100000D03*
D22*
X16100000Y-15852500D03*
X15600000Y-17100000D03*
X14800000Y-27000000D03*
X5800000Y-26400000D03*
X16150000Y-14300000D03*
X1700000Y-28200000D03*
X6300000Y-24250000D03*
X1700000Y-34450000D03*
X35500000Y-5400000D03*
X41700000Y-37500000D03*
X39500000Y-5400000D03*
X1700000Y-14000000D03*
X1675000Y-20825000D03*
X1700000Y-31100000D03*
X39700000Y-35300000D03*
X22300000Y-36900000D03*
X40000000Y-22000000D03*
X40000000Y-25000000D03*
X40000000Y-28000000D03*
X40000000Y-31200000D03*
X29500000Y-21000000D03*
X16900000Y-19400000D03*
X19100000Y-19400000D03*
X21400000Y-19400000D03*
X22900000Y-19400000D03*
X16900000Y-25200000D03*
X19100000Y-25200000D03*
X21400000Y-25200000D03*
X22900000Y-25200000D03*
X22900000Y-23500000D03*
X22900000Y-21300000D03*
X16900000Y-21300000D03*
X16900000Y-23500000D03*
X26200000Y-28900000D03*
X19600000Y-12200000D03*
X28050000Y-25650000D03*
X23550000Y-9900000D03*
X9600000Y-20800000D03*
X9700000Y-31000000D03*
X9500000Y-26100000D03*
X14000000Y-45800000D03*
D21*
X41500000Y-10500000D03*
X29700000Y-42300000D03*
D22*
X26000000Y-26300000D03*
X23600000Y-28700000D03*
D21*
X3500000Y-38600000D03*
D22*
X16600000Y-45500000D03*
X19150000Y-45500000D03*
X21650000Y-45500000D03*
X7100000Y-25300000D03*
X8900000Y-28900000D03*
X15450000Y-35450000D03*
X5200000Y-35500000D03*
X13700000Y-27000000D03*
D21*
X1900000Y-42400000D03*
X2650000Y-8700000D03*
X41550000Y-19700000D03*
D22*
X16050000Y-27900000D03*
D21*
X2800000Y-11500000D03*
X11500000Y-11200000D03*
D22*
X1700000Y-26900000D03*
X6600000Y-28300000D03*
X1700000Y-29700000D03*
X5400000Y-30900000D03*
X3500000Y-40750000D03*
D23*
X25697500Y-25050000D02*
X26147500Y-24600000D01*
X25350000Y-25050000D02*
X25697500Y-25050000D01*
X24702500Y-25050000D02*
X24252500Y-24600000D01*
X25350000Y-25050000D02*
X24702500Y-25050000D01*
X26147500Y-22850000D02*
X26247500Y-22750000D01*
X25500000Y-22850000D02*
X26147500Y-22850000D01*
X24702500Y-22850000D02*
X24252500Y-22400000D01*
X25500000Y-22850000D02*
X24702500Y-22850000D01*
X26197500Y-20750000D02*
X26247500Y-20800000D01*
X25500000Y-20750000D02*
X26197500Y-20750000D01*
X24802500Y-20750000D02*
X24252500Y-20200000D01*
X25500000Y-20750000D02*
X24802500Y-20750000D01*
X20000000Y-17547500D02*
X20300000Y-17847500D01*
X20000000Y-15752500D02*
X20000000Y-17547500D01*
X19547500Y-15752500D02*
X19100000Y-16200000D01*
X20000000Y-15752500D02*
X19547500Y-15752500D01*
D24*
X39500000Y-9600000D02*
X39500000Y-8152500D01*
X38800000Y-12447500D02*
X38800000Y-10300000D01*
X38800000Y-10300000D02*
X39500000Y-9600000D01*
D25*
X38500000Y-8152500D02*
X39500000Y-8152500D01*
X39500000Y-8152500D02*
X40500000Y-8152500D01*
D23*
X15800000Y-26752500D02*
X18000000Y-26752500D01*
X15800000Y-17300000D02*
X15800000Y-17847500D01*
X15600000Y-17100000D02*
X15800000Y-17300000D01*
X15047500Y-26752500D02*
X15800000Y-26752500D01*
X14800000Y-27000000D02*
X15047500Y-26752500D01*
X15100000Y-15852500D02*
X16100000Y-15852500D01*
X16100000Y-15852500D02*
X17200000Y-15852500D01*
X17460000Y-15592500D02*
X17200000Y-15852500D01*
X17460000Y-15592500D02*
X17200000Y-15852500D01*
X18000000Y-17847500D02*
X15800000Y-17847500D01*
X5352500Y-25500000D02*
X5052500Y-25200000D01*
X5352500Y-26400000D02*
X5352500Y-25500000D01*
X5352500Y-27430000D02*
X5352500Y-26400000D01*
X5352500Y-26400000D02*
X5800000Y-26400000D01*
X16200000Y-13947500D02*
X16200000Y-14250000D01*
X16200000Y-14250000D02*
X16150000Y-14300000D01*
D24*
X30580000Y-47800000D02*
X30580000Y-45000000D01*
X33120000Y-47800000D02*
X33120000Y-45000000D01*
X35660000Y-47800000D02*
X35660000Y-45090000D01*
X35660000Y-45090000D02*
X35750000Y-45000000D01*
X38200000Y-47800000D02*
X38200000Y-45600000D01*
X38200000Y-45600000D02*
X37600000Y-45000000D01*
X40740000Y-47800000D02*
X40740000Y-46390000D01*
X40740000Y-46390000D02*
X39350000Y-45000000D01*
X39350000Y-45000000D02*
X37600000Y-45000000D01*
X37600000Y-45000000D02*
X35750000Y-45000000D01*
X35750000Y-45000000D02*
X33120000Y-45000000D01*
X33120000Y-45000000D02*
X30580000Y-45000000D01*
X30580000Y-45000000D02*
X28100000Y-45000000D01*
X28100000Y-42300000D02*
X28100000Y-45000000D01*
X28100000Y-45000000D02*
X28100000Y-47740000D01*
X28100000Y-47740000D02*
X28040000Y-47800000D01*
D23*
X3147500Y-25200000D02*
X3147500Y-24402500D01*
X6050000Y-24000000D02*
X6300000Y-24250000D01*
X3550000Y-24000000D02*
X6050000Y-24000000D01*
X3147500Y-24402500D02*
X3550000Y-24000000D01*
D25*
X13100000Y-4947500D02*
X14100000Y-4947500D01*
X14100000Y-4947500D02*
X15000000Y-4947500D01*
X35500000Y-6247500D02*
X35500000Y-5400000D01*
X34500000Y-6247500D02*
X35500000Y-6247500D01*
X35500000Y-6247500D02*
X36500000Y-6247500D01*
X39700000Y-38347500D02*
X41600000Y-38347500D01*
X41600000Y-38347500D02*
X41700000Y-38247500D01*
X41700000Y-38247500D02*
X41700000Y-37500000D01*
D23*
X39500000Y-6247500D02*
X39500000Y-5400000D01*
D25*
X38500000Y-6247500D02*
X39500000Y-6247500D01*
X39500000Y-6247500D02*
X40500000Y-6247500D01*
D23*
X4400000Y-30700000D02*
X4000000Y-31100000D01*
X4000000Y-31100000D02*
X1700000Y-31100000D01*
X4400000Y-29970000D02*
X4400000Y-30700000D01*
X3147500Y-25200000D02*
X2900000Y-25200000D01*
D24*
X28125000Y-42325000D02*
X28100000Y-42300000D01*
D25*
X42300000Y-22200000D02*
X40200000Y-22200000D01*
D23*
X40200000Y-22200000D02*
X40000000Y-22000000D01*
D25*
X42300000Y-25200000D02*
X40200000Y-25200000D01*
D23*
X40200000Y-25200000D02*
X40000000Y-25000000D01*
D25*
X42300000Y-28200000D02*
X40200000Y-28200000D01*
D23*
X40200000Y-28200000D02*
X40000000Y-28000000D01*
D25*
X42300000Y-31200000D02*
X40000000Y-31200000D01*
X42300000Y-31200000D02*
X42300000Y-30200000D01*
X42300000Y-30200000D02*
X42300000Y-29200000D01*
X42300000Y-29200000D02*
X42300000Y-28200000D01*
X42300000Y-28200000D02*
X42300000Y-27200000D01*
X42300000Y-27200000D02*
X42300000Y-26200000D01*
X42300000Y-26200000D02*
X42300000Y-25200000D01*
X42300000Y-25200000D02*
X42300000Y-24200000D01*
X42300000Y-24200000D02*
X42300000Y-23200000D01*
X42300000Y-23200000D02*
X42300000Y-22200000D01*
D23*
X28352500Y-21000000D02*
X29500000Y-21000000D01*
X28352500Y-21000000D02*
X28152500Y-20800000D01*
X18747500Y-19752500D02*
X19100000Y-19400000D01*
X18000000Y-19752500D02*
X18747500Y-19752500D01*
X21047500Y-19752500D02*
X21400000Y-19400000D01*
X20300000Y-19752500D02*
X21047500Y-19752500D01*
X16547500Y-24847500D02*
X16900000Y-25200000D01*
X15800000Y-24847500D02*
X16547500Y-24847500D01*
X18747500Y-24847500D02*
X19100000Y-25200000D01*
X18000000Y-24847500D02*
X18747500Y-24847500D01*
X22000000Y-24600000D02*
X21400000Y-25200000D01*
X22347500Y-24600000D02*
X22000000Y-24600000D01*
X22347500Y-24647500D02*
X22900000Y-25200000D01*
X22347500Y-24600000D02*
X22347500Y-24647500D01*
X22347500Y-22400000D02*
X22347500Y-22552500D01*
X22347500Y-22947500D02*
X22900000Y-23500000D01*
X22347500Y-22400000D02*
X22347500Y-22947500D01*
X22347500Y-21852500D02*
X22900000Y-21300000D01*
X22347500Y-22400000D02*
X22347500Y-21852500D01*
X22347500Y-22400000D02*
X22347500Y-22247500D01*
X15800000Y-20200000D02*
X16900000Y-21300000D01*
X15800000Y-19752500D02*
X15800000Y-20200000D01*
X18000000Y-24847500D02*
X18000000Y-24600000D01*
X15800000Y-24600000D02*
X16900000Y-23500000D01*
X15800000Y-24847500D02*
X15800000Y-24600000D01*
X25673519Y-29426481D02*
X26200000Y-28900000D01*
X25673519Y-30273519D02*
X25673519Y-29426481D01*
X26726481Y-28373519D02*
X26200000Y-28900000D01*
X27573519Y-28373519D02*
X26726481Y-28373519D01*
X16200000Y-13947500D02*
X15100000Y-13947500D01*
X17200000Y-13947500D02*
X16200000Y-13947500D01*
X20000000Y-12600000D02*
X19600000Y-12200000D01*
X20000000Y-13847500D02*
X20000000Y-12600000D01*
X28052500Y-22850000D02*
X28152500Y-22750000D01*
X28052500Y-24600000D02*
X28052500Y-22850000D01*
X28052500Y-24600000D02*
X28050000Y-25650000D01*
X19100000Y-27652500D02*
X17852500Y-28900000D01*
X19100000Y-25200000D02*
X19100000Y-27652500D01*
X12700000Y-24847500D02*
X15800000Y-24847500D01*
D24*
X28125000Y-42325000D02*
X28100000Y-42300000D01*
D23*
X22347500Y-19952500D02*
X22900000Y-19400000D01*
X22347500Y-20200000D02*
X22347500Y-19952500D01*
X12800000Y-47000000D02*
X14000000Y-45800000D01*
X12800000Y-47800000D02*
X12800000Y-47000000D01*
D25*
X41500000Y-11400000D02*
X42300000Y-12200000D01*
X42300000Y-13200000D02*
X40500000Y-13200000D01*
X40500000Y-13200000D02*
X40350000Y-13050000D01*
X40350000Y-13050000D02*
X40350000Y-11650000D01*
X40350000Y-11650000D02*
X41500000Y-10500000D01*
X41500000Y-10500000D02*
X41500000Y-11400000D01*
D24*
X27250000Y-41450000D02*
X28100000Y-42300000D01*
X26250000Y-41450000D02*
X27250000Y-41450000D01*
X28100000Y-42300000D02*
X29700000Y-42300000D01*
D23*
X18000000Y-24100000D02*
X19800000Y-22300000D01*
X18000000Y-24847500D02*
X18000000Y-24100000D01*
X18000000Y-20500000D02*
X19800000Y-22300000D01*
X18000000Y-19752500D02*
X18000000Y-20500000D01*
X21900000Y-20200000D02*
X19800000Y-22300000D01*
X22347500Y-20200000D02*
X21900000Y-20200000D01*
X22100000Y-24600000D02*
X19800000Y-22300000D01*
X22347500Y-24600000D02*
X22100000Y-24600000D01*
X26226481Y-26526481D02*
X26226481Y-27026481D01*
X26000000Y-26300000D02*
X26226481Y-26526481D01*
X23826481Y-28926481D02*
X24326481Y-28926481D01*
X23600000Y-28700000D02*
X23826481Y-28926481D01*
D25*
X10300000Y-39800000D02*
X12650000Y-39800000D01*
X8700000Y-39800000D02*
X10300000Y-39800000D01*
X14350000Y-38100000D02*
X15550000Y-38100000D01*
X12650000Y-39800000D02*
X14350000Y-38100000D01*
X3500000Y-38600000D02*
X4700000Y-39800000D01*
X4700000Y-39800000D02*
X8700000Y-39800000D01*
X8700000Y-39800000D02*
X9500000Y-39800000D01*
D23*
X15340000Y-46760000D02*
X15340000Y-47800000D01*
X16600000Y-45500000D02*
X15340000Y-46760000D01*
X17880000Y-46770000D02*
X17880000Y-47800000D01*
X19150000Y-45500000D02*
X17880000Y-46770000D01*
X20420000Y-46730000D02*
X20420000Y-47800000D01*
X21650000Y-45500000D02*
X20420000Y-46730000D01*
X7102500Y-25297500D02*
X8000000Y-25297500D01*
X7100000Y-25300000D02*
X7102500Y-25297500D01*
X8900000Y-28900000D02*
X13247500Y-28900000D01*
X15400000Y-35400000D02*
X15400000Y-31952500D01*
X15450000Y-35450000D02*
X15400000Y-35400000D01*
X7950000Y-27252500D02*
X7950000Y-28150000D01*
X7950000Y-28150000D02*
X7950000Y-32450000D01*
X7950000Y-27252500D02*
X8000000Y-27202500D01*
X8202500Y-27000000D02*
X9100000Y-27000000D01*
X9100000Y-27000000D02*
X13700000Y-27000000D01*
X8202500Y-27000000D02*
X8000000Y-27202500D01*
X5200000Y-35500000D02*
X7950000Y-32750000D01*
X7950000Y-32750000D02*
X7950000Y-32450000D01*
X7950000Y-32450000D02*
X7950000Y-32850000D01*
X12947500Y-27000000D02*
X12700000Y-26752500D01*
X13700000Y-27000000D02*
X12947500Y-27000000D01*
D24*
X11150000Y-42350000D02*
X10600000Y-41800000D01*
X10600000Y-41800000D02*
X5000000Y-41800000D01*
X5000000Y-41800000D02*
X4400000Y-42400000D01*
X4400000Y-42400000D02*
X1900000Y-42400000D01*
X19650000Y-42350000D02*
X11150000Y-42350000D01*
D25*
X31935000Y-42335000D02*
X31900000Y-42300000D01*
D24*
X31935000Y-42335000D02*
X31900000Y-42300000D01*
D25*
X31935000Y-42335000D02*
X31900000Y-42300000D01*
D24*
X22250000Y-39750000D02*
X19650000Y-42350000D01*
X29350000Y-39750000D02*
X23650000Y-39750000D01*
X31900000Y-42300000D02*
X29350000Y-39750000D01*
X23650000Y-39750000D02*
X22250000Y-39750000D01*
X12297500Y-9150000D02*
X12050000Y-9150000D01*
X12050000Y-9150000D02*
X11600000Y-8700000D01*
X11600000Y-8700000D02*
X2650000Y-8700000D01*
X12297500Y-9150000D02*
X12297500Y-7655000D01*
X12297500Y-7655000D02*
X13100000Y-6852500D01*
X34500000Y-8152500D02*
X36500000Y-8152500D01*
X36500000Y-8152500D02*
X36700000Y-8352500D01*
X36700000Y-8352500D02*
X36700000Y-12447500D01*
X13100000Y-6852500D02*
X15000000Y-6852500D01*
X15000000Y-6852500D02*
X15047500Y-6900000D01*
X15047500Y-6900000D02*
X30500000Y-6900000D01*
X30500000Y-6900000D02*
X31752500Y-8152500D01*
X31752500Y-8152500D02*
X34500000Y-8152500D01*
D25*
X36700000Y-8352500D02*
X36500000Y-8152500D01*
X39500000Y-42300000D02*
X39500000Y-40452500D01*
X39500000Y-40452500D02*
X39700000Y-40252500D01*
X39700000Y-40252500D02*
X41600000Y-40252500D01*
D24*
X39555000Y-42355000D02*
X39500000Y-42300000D01*
D25*
X39555000Y-42355000D02*
X39500000Y-42300000D01*
D24*
X39352500Y-19700000D02*
X41550000Y-19700000D01*
D23*
X15947500Y-28002500D02*
X16050000Y-27900000D01*
X15947500Y-28900000D02*
X15947500Y-28002500D01*
X15152500Y-29900000D02*
X15400000Y-30147500D01*
X15947500Y-28900000D02*
X15152500Y-28900000D01*
X15400000Y-29147500D02*
X15152500Y-28900000D01*
X15400000Y-30047500D02*
X15400000Y-29147500D01*
D24*
X16150000Y-12100000D02*
X12400000Y-12100000D01*
X12400000Y-12100000D02*
X11500000Y-11200000D01*
D25*
X4500000Y-9800000D02*
X2800000Y-11500000D01*
X10100000Y-9800000D02*
X4500000Y-9800000D01*
X11500000Y-11200000D02*
X10100000Y-9800000D01*
X37447500Y-19002500D02*
X37447500Y-19700000D01*
X38250000Y-18200000D02*
X37447500Y-19002500D01*
X42300000Y-18200000D02*
X38250000Y-18200000D01*
X40750000Y-21200000D02*
X40550000Y-21000000D01*
X40550000Y-21000000D02*
X38000000Y-21000000D01*
X38000000Y-21000000D02*
X37447500Y-20447500D01*
X37447500Y-20447500D02*
X37447500Y-19700000D01*
X42300000Y-21200000D02*
X40750000Y-21200000D01*
X38547500Y-16200000D02*
X36700000Y-14352500D01*
X39547500Y-17200000D02*
X38547500Y-16200000D01*
X42300000Y-17200000D02*
X39547500Y-17200000D01*
X42300000Y-16200000D02*
X38547500Y-16200000D01*
X38800000Y-14352500D02*
X42147500Y-14352500D01*
X42147500Y-14352500D02*
X42300000Y-14200000D01*
X39647500Y-15200000D02*
X38800000Y-14352500D01*
X42300000Y-15200000D02*
X39647500Y-15200000D01*
D23*
X4400000Y-26850000D02*
X4400000Y-27430000D01*
X4100000Y-26550000D02*
X4400000Y-26850000D01*
X2050000Y-26550000D02*
X4100000Y-26550000D01*
X1700000Y-26900000D02*
X2050000Y-26550000D01*
X3600000Y-28700000D02*
X6200000Y-28700000D01*
X3600000Y-28700000D02*
X3447500Y-28547500D01*
X3447500Y-27430000D02*
X3447500Y-28547500D01*
X6200000Y-28700000D02*
X6600000Y-28300000D01*
X1700000Y-29700000D02*
X1970000Y-29970000D01*
X1970000Y-29970000D02*
X3447500Y-29970000D01*
X5400000Y-30900000D02*
X5352500Y-30852500D01*
X5352500Y-30852500D02*
X5352500Y-29970000D01*
X14400000Y-40750000D02*
X15410000Y-40750000D01*
X15410000Y-40750000D02*
X15510000Y-40650000D01*
X10150000Y-40750000D02*
X14400000Y-40750000D01*
X14400000Y-40750000D02*
X14410000Y-40750000D01*
X3500000Y-40750000D02*
X10150000Y-40750000D01*
X10150000Y-40750000D02*
X10200000Y-40750000D01*
D24*
X14202500Y-9150000D02*
X15740000Y-9150000D01*
X15740000Y-9150000D02*
X16150000Y-9560000D01*
D23*
X25500000Y-47800000D02*
X25500000Y-47000000D01*
D25*
X25500000Y-45700000D02*
X24350000Y-44550000D01*
X24350000Y-44550000D02*
X24350000Y-43300000D01*
X25500000Y-47800000D02*
X25500000Y-45700000D01*
X22960000Y-44660000D02*
X22450000Y-44150000D01*
X22450000Y-44150000D02*
X22450000Y-43300000D01*
X22960000Y-47800000D02*
X22960000Y-44660000D01*
D26*
G36*
X4423000Y-29973000D02*
X4403000Y-29973000D01*
X4403000Y-29993000D01*
X4397000Y-29993000D01*
X4397000Y-29973000D01*
X4377000Y-29973000D01*
X4377000Y-29967000D01*
X4397000Y-29967000D01*
X4397000Y-29947000D01*
X4403000Y-29947000D01*
X4403000Y-29967000D01*
X4423000Y-29967000D01*
X4423000Y-29973000D01*
X4423000Y-29973000D01*
G37*
X4423000Y-29973000D02*
X4403000Y-29973000D01*
X4403000Y-29993000D01*
X4397000Y-29993000D01*
X4397000Y-29973000D01*
X4377000Y-29973000D01*
X4377000Y-29967000D01*
X4397000Y-29967000D01*
X4397000Y-29947000D01*
X4403000Y-29947000D01*
X4403000Y-29967000D01*
X4423000Y-29967000D01*
X4423000Y-29973000D01*
G36*
X27873000Y-45327829D02*
X27813805Y-45291041D01*
X27496683Y-45380476D01*
X27033080Y-45688837D01*
X26756447Y-46100969D01*
X26473686Y-45677787D01*
X26241755Y-45522816D01*
X26217854Y-45402656D01*
X26217854Y-45402655D01*
X26049422Y-45150578D01*
X25213090Y-44314246D01*
X25300019Y-44227468D01*
X25497010Y-44424803D01*
X25984771Y-44627339D01*
X26512912Y-44627800D01*
X27001026Y-44426116D01*
X27374803Y-44052990D01*
X27577339Y-43565229D01*
X27577800Y-43037088D01*
X27376116Y-42548974D01*
X27002990Y-42175197D01*
X26515229Y-41972661D01*
X25987088Y-41972200D01*
X25498974Y-42173884D01*
X25299980Y-42372531D01*
X25102990Y-42175197D01*
X24615229Y-41972661D01*
X24087088Y-41972200D01*
X23598974Y-42173884D01*
X23399980Y-42372531D01*
X23202990Y-42175197D01*
X22715229Y-41972661D01*
X22187088Y-41972200D01*
X21698974Y-42173884D01*
X21325197Y-42547010D01*
X21122661Y-43034771D01*
X21122200Y-43562912D01*
X21323884Y-44051026D01*
X21697010Y-44424803D01*
X21730421Y-44438676D01*
X21732146Y-44447345D01*
X21753022Y-44478589D01*
X21447703Y-44478323D01*
X21072123Y-44633510D01*
X20784520Y-44920611D01*
X20628678Y-45295920D01*
X20628660Y-45315978D01*
X20420000Y-45274473D01*
X20171654Y-45323872D01*
X20171677Y-45297703D01*
X20016490Y-44922123D01*
X19729389Y-44634520D01*
X19354080Y-44478678D01*
X18947703Y-44478323D01*
X18572123Y-44633510D01*
X18284520Y-44920611D01*
X18128678Y-45295920D01*
X18128653Y-45323933D01*
X17880000Y-45274473D01*
X17621652Y-45325861D01*
X17621677Y-45297703D01*
X17466490Y-44922123D01*
X17179389Y-44634520D01*
X16804080Y-44478678D01*
X16397703Y-44478323D01*
X16022123Y-44633510D01*
X15734520Y-44920611D01*
X15578678Y-45295920D01*
X15578655Y-45321944D01*
X15340000Y-45274473D01*
X14813045Y-45379291D01*
X14366314Y-45677787D01*
X14083552Y-46100969D01*
X13806920Y-45688837D01*
X13343317Y-45380476D01*
X13026195Y-45291041D01*
X12803000Y-45429754D01*
X12803000Y-47797000D01*
X12823000Y-47797000D01*
X12823000Y-47803000D01*
X12803000Y-47803000D01*
X12803000Y-47823000D01*
X12797000Y-47823000D01*
X12797000Y-47803000D01*
X12797000Y-47797000D01*
X12797000Y-45429754D01*
X12573805Y-45291041D01*
X12256683Y-45380476D01*
X11793080Y-45688837D01*
X11482772Y-46151139D01*
X11373000Y-46697000D01*
X11373000Y-47797000D01*
X12797000Y-47797000D01*
X12797000Y-47803000D01*
X11373000Y-47803000D01*
X11373000Y-48903000D01*
X11455450Y-49313000D01*
X9407078Y-49313000D01*
X9722561Y-49182645D01*
X10778936Y-48128112D01*
X11351347Y-46749593D01*
X11352650Y-45256955D01*
X10782645Y-43877439D01*
X9783950Y-42877000D01*
X10153892Y-42877000D01*
X10388446Y-43111554D01*
X10737850Y-43345018D01*
X11150000Y-43427000D01*
X19650000Y-43427000D01*
X20062150Y-43345018D01*
X20411554Y-43111554D01*
X22696108Y-40827000D01*
X23650000Y-40827000D01*
X27873000Y-40827000D01*
X27873000Y-45327829D01*
X27873000Y-45327829D01*
G37*
X27873000Y-45327829D02*
X27813805Y-45291041D01*
X27496683Y-45380476D01*
X27033080Y-45688837D01*
X26756447Y-46100969D01*
X26473686Y-45677787D01*
X26241755Y-45522816D01*
X26217854Y-45402656D01*
X26217854Y-45402655D01*
X26049422Y-45150578D01*
X25213090Y-44314246D01*
X25300019Y-44227468D01*
X25497010Y-44424803D01*
X25984771Y-44627339D01*
X26512912Y-44627800D01*
X27001026Y-44426116D01*
X27374803Y-44052990D01*
X27577339Y-43565229D01*
X27577800Y-43037088D01*
X27376116Y-42548974D01*
X27002990Y-42175197D01*
X26515229Y-41972661D01*
X25987088Y-41972200D01*
X25498974Y-42173884D01*
X25299980Y-42372531D01*
X25102990Y-42175197D01*
X24615229Y-41972661D01*
X24087088Y-41972200D01*
X23598974Y-42173884D01*
X23399980Y-42372531D01*
X23202990Y-42175197D01*
X22715229Y-41972661D01*
X22187088Y-41972200D01*
X21698974Y-42173884D01*
X21325197Y-42547010D01*
X21122661Y-43034771D01*
X21122200Y-43562912D01*
X21323884Y-44051026D01*
X21697010Y-44424803D01*
X21730421Y-44438676D01*
X21732146Y-44447345D01*
X21753022Y-44478589D01*
X21447703Y-44478323D01*
X21072123Y-44633510D01*
X20784520Y-44920611D01*
X20628678Y-45295920D01*
X20628660Y-45315978D01*
X20420000Y-45274473D01*
X20171654Y-45323872D01*
X20171677Y-45297703D01*
X20016490Y-44922123D01*
X19729389Y-44634520D01*
X19354080Y-44478678D01*
X18947703Y-44478323D01*
X18572123Y-44633510D01*
X18284520Y-44920611D01*
X18128678Y-45295920D01*
X18128653Y-45323933D01*
X17880000Y-45274473D01*
X17621652Y-45325861D01*
X17621677Y-45297703D01*
X17466490Y-44922123D01*
X17179389Y-44634520D01*
X16804080Y-44478678D01*
X16397703Y-44478323D01*
X16022123Y-44633510D01*
X15734520Y-44920611D01*
X15578678Y-45295920D01*
X15578655Y-45321944D01*
X15340000Y-45274473D01*
X14813045Y-45379291D01*
X14366314Y-45677787D01*
X14083552Y-46100969D01*
X13806920Y-45688837D01*
X13343317Y-45380476D01*
X13026195Y-45291041D01*
X12803000Y-45429754D01*
X12803000Y-47797000D01*
X12823000Y-47797000D01*
X12823000Y-47803000D01*
X12803000Y-47803000D01*
X12803000Y-47823000D01*
X12797000Y-47823000D01*
X12797000Y-47803000D01*
X12797000Y-47797000D01*
X12797000Y-45429754D01*
X12573805Y-45291041D01*
X12256683Y-45380476D01*
X11793080Y-45688837D01*
X11482772Y-46151139D01*
X11373000Y-46697000D01*
X11373000Y-47797000D01*
X12797000Y-47797000D01*
X12797000Y-47803000D01*
X11373000Y-47803000D01*
X11373000Y-48903000D01*
X11455450Y-49313000D01*
X9407078Y-49313000D01*
X9722561Y-49182645D01*
X10778936Y-48128112D01*
X11351347Y-46749593D01*
X11352650Y-45256955D01*
X10782645Y-43877439D01*
X9783950Y-42877000D01*
X10153892Y-42877000D01*
X10388446Y-43111554D01*
X10737850Y-43345018D01*
X11150000Y-43427000D01*
X19650000Y-43427000D01*
X20062150Y-43345018D01*
X20411554Y-43111554D01*
X22696108Y-40827000D01*
X23650000Y-40827000D01*
X27873000Y-40827000D01*
X27873000Y-45327829D01*
G36*
X49313000Y-9563000D02*
X44200000Y-9563000D01*
X44143297Y-9574279D01*
X44085483Y-9574279D01*
X43894141Y-9612339D01*
X43894138Y-9612339D01*
X43894137Y-9612340D01*
X43795856Y-9653049D01*
X43682539Y-9699987D01*
X43682537Y-9699988D01*
X43682536Y-9699989D01*
X43520325Y-9808376D01*
X43439350Y-9889350D01*
X43358376Y-9970325D01*
X43249989Y-10132536D01*
X43249988Y-10132537D01*
X43249987Y-10132539D01*
X43183607Y-10292794D01*
X43162340Y-10344137D01*
X43162339Y-10344137D01*
X43162339Y-10344140D01*
X43124279Y-10535483D01*
X43124279Y-10593292D01*
X43124279Y-10593295D01*
X43113000Y-10650000D01*
X43113000Y-10700000D01*
X43124279Y-10756704D01*
X43124279Y-10756707D01*
X43124279Y-10814517D01*
X43162339Y-11005860D01*
X43162339Y-11005862D01*
X43162340Y-11005863D01*
X43183607Y-11057206D01*
X43249987Y-11217461D01*
X43249988Y-11217462D01*
X43249989Y-11217464D01*
X43253688Y-11223000D01*
X42459750Y-11223000D01*
X42303000Y-11379750D01*
X42303000Y-12197000D01*
X42323000Y-12197000D01*
X42323000Y-12203000D01*
X42303000Y-12203000D01*
X42303000Y-12379750D01*
X42303000Y-13020250D01*
X42303000Y-13197000D01*
X42323000Y-13197000D01*
X42323000Y-13203000D01*
X42303000Y-13203000D01*
X42303000Y-13223000D01*
X42297000Y-13223000D01*
X42297000Y-13203000D01*
X42297000Y-13197000D01*
X42297000Y-13020250D01*
X42297000Y-12379750D01*
X42297000Y-12203000D01*
X42297000Y-12197000D01*
X42297000Y-11379750D01*
X42140250Y-11223000D01*
X40924718Y-11223000D01*
X40675282Y-11223000D01*
X40444833Y-11318455D01*
X40268455Y-11494833D01*
X40173000Y-11725282D01*
X40173000Y-12040250D01*
X40329750Y-12197000D01*
X42297000Y-12197000D01*
X42297000Y-12203000D01*
X40329750Y-12203000D01*
X40173000Y-12359750D01*
X40173000Y-12674718D01*
X40183472Y-12700000D01*
X40173000Y-12725282D01*
X40173000Y-13040250D01*
X40329750Y-13197000D01*
X42297000Y-13197000D01*
X42297000Y-13203000D01*
X40329750Y-13203000D01*
X40173000Y-13359750D01*
X40173000Y-13575500D01*
X39982001Y-13575500D01*
X39825345Y-13418843D01*
X39779853Y-13399999D01*
X39825344Y-13381157D01*
X39987657Y-13218845D01*
X40075500Y-13006773D01*
X40075500Y-12777228D01*
X40075500Y-11888228D01*
X39987657Y-11676156D01*
X39877000Y-11565498D01*
X39877000Y-10824319D01*
X40221569Y-10681947D01*
X40580686Y-10323456D01*
X40775279Y-9854826D01*
X40775721Y-9347400D01*
X40704073Y-9174000D01*
X41313272Y-9174000D01*
X41525344Y-9086157D01*
X41687657Y-8923845D01*
X41775500Y-8711773D01*
X41775500Y-8482228D01*
X41775500Y-7593228D01*
X41687657Y-7381156D01*
X41536965Y-7230463D01*
X41553667Y-7223545D01*
X41730045Y-7047167D01*
X41825500Y-6816718D01*
X41825500Y-6407250D01*
X41825500Y-6087750D01*
X41825500Y-5678282D01*
X41730045Y-5447833D01*
X41553667Y-5271455D01*
X41323218Y-5176000D01*
X41073782Y-5176000D01*
X40659750Y-5176000D01*
X40503000Y-5332750D01*
X40503000Y-6244500D01*
X41668750Y-6244500D01*
X41825500Y-6087750D01*
X41825500Y-6407250D01*
X41668750Y-6250500D01*
X40503000Y-6250500D01*
X40503000Y-6270500D01*
X40497000Y-6270500D01*
X40497000Y-6250500D01*
X40497000Y-6244500D01*
X40497000Y-5332750D01*
X40340250Y-5176000D01*
X39926218Y-5176000D01*
X39676782Y-5176000D01*
X39500000Y-5249225D01*
X39323218Y-5176000D01*
X39073782Y-5176000D01*
X38659750Y-5176000D01*
X38503000Y-5332750D01*
X38503000Y-6244500D01*
X39331250Y-6244500D01*
X39668750Y-6244500D01*
X40497000Y-6244500D01*
X40497000Y-6250500D01*
X39668750Y-6250500D01*
X39331250Y-6250500D01*
X38503000Y-6250500D01*
X38503000Y-6270500D01*
X38497000Y-6270500D01*
X38497000Y-6250500D01*
X38497000Y-6244500D01*
X38497000Y-5332750D01*
X38340250Y-5176000D01*
X37926218Y-5176000D01*
X37676782Y-5176000D01*
X37500000Y-5249225D01*
X37323218Y-5176000D01*
X37073782Y-5176000D01*
X36659750Y-5176000D01*
X36503000Y-5332750D01*
X36503000Y-6244500D01*
X37331250Y-6244500D01*
X37668750Y-6244500D01*
X38497000Y-6244500D01*
X38497000Y-6250500D01*
X37668750Y-6250500D01*
X37331250Y-6250500D01*
X36503000Y-6250500D01*
X36503000Y-6270500D01*
X36497000Y-6270500D01*
X36497000Y-6250500D01*
X36497000Y-6244500D01*
X36497000Y-5332750D01*
X36340250Y-5176000D01*
X35926218Y-5176000D01*
X35676782Y-5176000D01*
X35500000Y-5249225D01*
X35323218Y-5176000D01*
X35073782Y-5176000D01*
X34659750Y-5176000D01*
X34503000Y-5332750D01*
X34503000Y-6244500D01*
X35331250Y-6244500D01*
X35668750Y-6244500D01*
X36497000Y-6244500D01*
X36497000Y-6250500D01*
X35668750Y-6250500D01*
X35331250Y-6250500D01*
X34503000Y-6250500D01*
X34503000Y-6270500D01*
X34497000Y-6270500D01*
X34497000Y-6250500D01*
X34497000Y-6244500D01*
X34497000Y-5332750D01*
X34340250Y-5176000D01*
X33926218Y-5176000D01*
X33676782Y-5176000D01*
X33446333Y-5271455D01*
X33269955Y-5447833D01*
X33174500Y-5678282D01*
X33174500Y-6087750D01*
X33331250Y-6244500D01*
X34497000Y-6244500D01*
X34497000Y-6250500D01*
X33331250Y-6250500D01*
X33174500Y-6407250D01*
X33174500Y-6816718D01*
X33269955Y-7047167D01*
X33298288Y-7075500D01*
X32198607Y-7075500D01*
X31261554Y-6138446D01*
X30912150Y-5904982D01*
X30500000Y-5823000D01*
X16154212Y-5823000D01*
X16230045Y-5747167D01*
X16325500Y-5516718D01*
X16325500Y-5107250D01*
X16325500Y-4787750D01*
X16325500Y-4378282D01*
X16230045Y-4147833D01*
X16053667Y-3971455D01*
X15823218Y-3876000D01*
X15573782Y-3876000D01*
X15159750Y-3876000D01*
X15003000Y-4032750D01*
X15003000Y-4944500D01*
X16168750Y-4944500D01*
X16325500Y-4787750D01*
X16325500Y-5107250D01*
X16168750Y-4950500D01*
X15003000Y-4950500D01*
X15003000Y-4970500D01*
X14997000Y-4970500D01*
X14997000Y-4950500D01*
X14997000Y-4944500D01*
X14997000Y-4032750D01*
X14840250Y-3876000D01*
X14426218Y-3876000D01*
X14176782Y-3876000D01*
X14050000Y-3928514D01*
X13923218Y-3876000D01*
X13673782Y-3876000D01*
X13259750Y-3876000D01*
X13103000Y-4032750D01*
X13103000Y-4944500D01*
X13831250Y-4944500D01*
X14268750Y-4944500D01*
X14997000Y-4944500D01*
X14997000Y-4950500D01*
X14268750Y-4950500D01*
X13831250Y-4950500D01*
X13103000Y-4950500D01*
X13103000Y-4970500D01*
X13097000Y-4970500D01*
X13097000Y-4950500D01*
X13097000Y-4944500D01*
X13097000Y-4032750D01*
X12940250Y-3876000D01*
X12526218Y-3876000D01*
X12276782Y-3876000D01*
X12046333Y-3971455D01*
X11869955Y-4147833D01*
X11774500Y-4378282D01*
X11774500Y-4787750D01*
X11931250Y-4944500D01*
X13097000Y-4944500D01*
X13097000Y-4950500D01*
X11931250Y-4950500D01*
X11774500Y-5107250D01*
X11774500Y-5516718D01*
X11869955Y-5747167D01*
X12046333Y-5923545D01*
X12063035Y-5930463D01*
X11912343Y-6081155D01*
X11824500Y-6293227D01*
X11824500Y-6522772D01*
X11824500Y-6604892D01*
X11535946Y-6893446D01*
X11302482Y-7242850D01*
X11226865Y-7623000D01*
X8414803Y-7623000D01*
X9722561Y-7082645D01*
X10778936Y-6028112D01*
X11351347Y-4649593D01*
X11352650Y-3156955D01*
X10782645Y-1777439D01*
X9728112Y-721064D01*
X9405249Y-587000D01*
X44192921Y-587000D01*
X43877439Y-717355D01*
X42821064Y-1771888D01*
X42248653Y-3150407D01*
X42247350Y-4643045D01*
X42817355Y-6022561D01*
X43871888Y-7078936D01*
X45250407Y-7651347D01*
X46743045Y-7652650D01*
X48122561Y-7082645D01*
X49178936Y-6028112D01*
X49313000Y-5705249D01*
X49313000Y-9563000D01*
X49313000Y-9563000D01*
G37*
X49313000Y-9563000D02*
X44200000Y-9563000D01*
X44143297Y-9574279D01*
X44085483Y-9574279D01*
X43894141Y-9612339D01*
X43894138Y-9612339D01*
X43894137Y-9612340D01*
X43795856Y-9653049D01*
X43682539Y-9699987D01*
X43682537Y-9699988D01*
X43682536Y-9699989D01*
X43520325Y-9808376D01*
X43439350Y-9889350D01*
X43358376Y-9970325D01*
X43249989Y-10132536D01*
X43249988Y-10132537D01*
X43249987Y-10132539D01*
X43183607Y-10292794D01*
X43162340Y-10344137D01*
X43162339Y-10344137D01*
X43162339Y-10344140D01*
X43124279Y-10535483D01*
X43124279Y-10593292D01*
X43124279Y-10593295D01*
X43113000Y-10650000D01*
X43113000Y-10700000D01*
X43124279Y-10756704D01*
X43124279Y-10756707D01*
X43124279Y-10814517D01*
X43162339Y-11005860D01*
X43162339Y-11005862D01*
X43162340Y-11005863D01*
X43183607Y-11057206D01*
X43249987Y-11217461D01*
X43249988Y-11217462D01*
X43249989Y-11217464D01*
X43253688Y-11223000D01*
X42459750Y-11223000D01*
X42303000Y-11379750D01*
X42303000Y-12197000D01*
X42323000Y-12197000D01*
X42323000Y-12203000D01*
X42303000Y-12203000D01*
X42303000Y-12379750D01*
X42303000Y-13020250D01*
X42303000Y-13197000D01*
X42323000Y-13197000D01*
X42323000Y-13203000D01*
X42303000Y-13203000D01*
X42303000Y-13223000D01*
X42297000Y-13223000D01*
X42297000Y-13203000D01*
X42297000Y-13197000D01*
X42297000Y-13020250D01*
X42297000Y-12379750D01*
X42297000Y-12203000D01*
X42297000Y-12197000D01*
X42297000Y-11379750D01*
X42140250Y-11223000D01*
X40924718Y-11223000D01*
X40675282Y-11223000D01*
X40444833Y-11318455D01*
X40268455Y-11494833D01*
X40173000Y-11725282D01*
X40173000Y-12040250D01*
X40329750Y-12197000D01*
X42297000Y-12197000D01*
X42297000Y-12203000D01*
X40329750Y-12203000D01*
X40173000Y-12359750D01*
X40173000Y-12674718D01*
X40183472Y-12700000D01*
X40173000Y-12725282D01*
X40173000Y-13040250D01*
X40329750Y-13197000D01*
X42297000Y-13197000D01*
X42297000Y-13203000D01*
X40329750Y-13203000D01*
X40173000Y-13359750D01*
X40173000Y-13575500D01*
X39982001Y-13575500D01*
X39825345Y-13418843D01*
X39779853Y-13399999D01*
X39825344Y-13381157D01*
X39987657Y-13218845D01*
X40075500Y-13006773D01*
X40075500Y-12777228D01*
X40075500Y-11888228D01*
X39987657Y-11676156D01*
X39877000Y-11565498D01*
X39877000Y-10824319D01*
X40221569Y-10681947D01*
X40580686Y-10323456D01*
X40775279Y-9854826D01*
X40775721Y-9347400D01*
X40704073Y-9174000D01*
X41313272Y-9174000D01*
X41525344Y-9086157D01*
X41687657Y-8923845D01*
X41775500Y-8711773D01*
X41775500Y-8482228D01*
X41775500Y-7593228D01*
X41687657Y-7381156D01*
X41536965Y-7230463D01*
X41553667Y-7223545D01*
X41730045Y-7047167D01*
X41825500Y-6816718D01*
X41825500Y-6407250D01*
X41825500Y-6087750D01*
X41825500Y-5678282D01*
X41730045Y-5447833D01*
X41553667Y-5271455D01*
X41323218Y-5176000D01*
X41073782Y-5176000D01*
X40659750Y-5176000D01*
X40503000Y-5332750D01*
X40503000Y-6244500D01*
X41668750Y-6244500D01*
X41825500Y-6087750D01*
X41825500Y-6407250D01*
X41668750Y-6250500D01*
X40503000Y-6250500D01*
X40503000Y-6270500D01*
X40497000Y-6270500D01*
X40497000Y-6250500D01*
X40497000Y-6244500D01*
X40497000Y-5332750D01*
X40340250Y-5176000D01*
X39926218Y-5176000D01*
X39676782Y-5176000D01*
X39500000Y-5249225D01*
X39323218Y-5176000D01*
X39073782Y-5176000D01*
X38659750Y-5176000D01*
X38503000Y-5332750D01*
X38503000Y-6244500D01*
X39331250Y-6244500D01*
X39668750Y-6244500D01*
X40497000Y-6244500D01*
X40497000Y-6250500D01*
X39668750Y-6250500D01*
X39331250Y-6250500D01*
X38503000Y-6250500D01*
X38503000Y-6270500D01*
X38497000Y-6270500D01*
X38497000Y-6250500D01*
X38497000Y-6244500D01*
X38497000Y-5332750D01*
X38340250Y-5176000D01*
X37926218Y-5176000D01*
X37676782Y-5176000D01*
X37500000Y-5249225D01*
X37323218Y-5176000D01*
X37073782Y-5176000D01*
X36659750Y-5176000D01*
X36503000Y-5332750D01*
X36503000Y-6244500D01*
X37331250Y-6244500D01*
X37668750Y-6244500D01*
X38497000Y-6244500D01*
X38497000Y-6250500D01*
X37668750Y-6250500D01*
X37331250Y-6250500D01*
X36503000Y-6250500D01*
X36503000Y-6270500D01*
X36497000Y-6270500D01*
X36497000Y-6250500D01*
X36497000Y-6244500D01*
X36497000Y-5332750D01*
X36340250Y-5176000D01*
X35926218Y-5176000D01*
X35676782Y-5176000D01*
X35500000Y-5249225D01*
X35323218Y-5176000D01*
X35073782Y-5176000D01*
X34659750Y-5176000D01*
X34503000Y-5332750D01*
X34503000Y-6244500D01*
X35331250Y-6244500D01*
X35668750Y-6244500D01*
X36497000Y-6244500D01*
X36497000Y-6250500D01*
X35668750Y-6250500D01*
X35331250Y-6250500D01*
X34503000Y-6250500D01*
X34503000Y-6270500D01*
X34497000Y-6270500D01*
X34497000Y-6250500D01*
X34497000Y-6244500D01*
X34497000Y-5332750D01*
X34340250Y-5176000D01*
X33926218Y-5176000D01*
X33676782Y-5176000D01*
X33446333Y-5271455D01*
X33269955Y-5447833D01*
X33174500Y-5678282D01*
X33174500Y-6087750D01*
X33331250Y-6244500D01*
X34497000Y-6244500D01*
X34497000Y-6250500D01*
X33331250Y-6250500D01*
X33174500Y-6407250D01*
X33174500Y-6816718D01*
X33269955Y-7047167D01*
X33298288Y-7075500D01*
X32198607Y-7075500D01*
X31261554Y-6138446D01*
X30912150Y-5904982D01*
X30500000Y-5823000D01*
X16154212Y-5823000D01*
X16230045Y-5747167D01*
X16325500Y-5516718D01*
X16325500Y-5107250D01*
X16325500Y-4787750D01*
X16325500Y-4378282D01*
X16230045Y-4147833D01*
X16053667Y-3971455D01*
X15823218Y-3876000D01*
X15573782Y-3876000D01*
X15159750Y-3876000D01*
X15003000Y-4032750D01*
X15003000Y-4944500D01*
X16168750Y-4944500D01*
X16325500Y-4787750D01*
X16325500Y-5107250D01*
X16168750Y-4950500D01*
X15003000Y-4950500D01*
X15003000Y-4970500D01*
X14997000Y-4970500D01*
X14997000Y-4950500D01*
X14997000Y-4944500D01*
X14997000Y-4032750D01*
X14840250Y-3876000D01*
X14426218Y-3876000D01*
X14176782Y-3876000D01*
X14050000Y-3928514D01*
X13923218Y-3876000D01*
X13673782Y-3876000D01*
X13259750Y-3876000D01*
X13103000Y-4032750D01*
X13103000Y-4944500D01*
X13831250Y-4944500D01*
X14268750Y-4944500D01*
X14997000Y-4944500D01*
X14997000Y-4950500D01*
X14268750Y-4950500D01*
X13831250Y-4950500D01*
X13103000Y-4950500D01*
X13103000Y-4970500D01*
X13097000Y-4970500D01*
X13097000Y-4950500D01*
X13097000Y-4944500D01*
X13097000Y-4032750D01*
X12940250Y-3876000D01*
X12526218Y-3876000D01*
X12276782Y-3876000D01*
X12046333Y-3971455D01*
X11869955Y-4147833D01*
X11774500Y-4378282D01*
X11774500Y-4787750D01*
X11931250Y-4944500D01*
X13097000Y-4944500D01*
X13097000Y-4950500D01*
X11931250Y-4950500D01*
X11774500Y-5107250D01*
X11774500Y-5516718D01*
X11869955Y-5747167D01*
X12046333Y-5923545D01*
X12063035Y-5930463D01*
X11912343Y-6081155D01*
X11824500Y-6293227D01*
X11824500Y-6522772D01*
X11824500Y-6604892D01*
X11535946Y-6893446D01*
X11302482Y-7242850D01*
X11226865Y-7623000D01*
X8414803Y-7623000D01*
X9722561Y-7082645D01*
X10778936Y-6028112D01*
X11351347Y-4649593D01*
X11352650Y-3156955D01*
X10782645Y-1777439D01*
X9728112Y-721064D01*
X9405249Y-587000D01*
X44192921Y-587000D01*
X43877439Y-717355D01*
X42821064Y-1771888D01*
X42248653Y-3150407D01*
X42247350Y-4643045D01*
X42817355Y-6022561D01*
X43871888Y-7078936D01*
X45250407Y-7651347D01*
X46743045Y-7652650D01*
X48122561Y-7082645D01*
X49178936Y-6028112D01*
X49313000Y-5705249D01*
X49313000Y-9563000D01*
G36*
X49313000Y-40901205D02*
X49180108Y-40579582D01*
X48722825Y-40121501D01*
X48125050Y-39873283D01*
X47477789Y-39872718D01*
X46879582Y-40119892D01*
X46421501Y-40577175D01*
X46173283Y-41174950D01*
X46172718Y-41822211D01*
X46348775Y-42248303D01*
X45256955Y-42247350D01*
X43877439Y-42817355D01*
X42925500Y-43767634D01*
X42925500Y-38916718D01*
X42925500Y-38507250D01*
X42925500Y-38187750D01*
X42925500Y-37778282D01*
X42830045Y-37547833D01*
X42653667Y-37371455D01*
X42423218Y-37276000D01*
X42297000Y-37276000D01*
X42297000Y-32020250D01*
X42297000Y-31203000D01*
X42297000Y-31197000D01*
X42297000Y-31020250D01*
X42297000Y-30379750D01*
X42297000Y-30203000D01*
X42297000Y-30197000D01*
X42297000Y-30020250D01*
X42297000Y-29379750D01*
X42297000Y-29203000D01*
X42297000Y-29197000D01*
X42297000Y-29020250D01*
X42297000Y-28379750D01*
X42297000Y-28203000D01*
X42297000Y-28197000D01*
X42297000Y-28020250D01*
X42297000Y-27379750D01*
X42297000Y-27203000D01*
X42297000Y-27197000D01*
X42297000Y-27020250D01*
X42297000Y-26379750D01*
X42297000Y-26203000D01*
X42297000Y-26197000D01*
X42297000Y-26020250D01*
X42297000Y-25379750D01*
X42297000Y-25203000D01*
X42297000Y-25197000D01*
X42297000Y-25020250D01*
X42297000Y-24379750D01*
X42297000Y-24203000D01*
X42297000Y-24197000D01*
X42297000Y-24020250D01*
X42297000Y-23379750D01*
X42297000Y-23203000D01*
X42297000Y-23197000D01*
X42297000Y-23020250D01*
X42297000Y-22379750D01*
X42297000Y-22203000D01*
X40329750Y-22203000D01*
X40173000Y-22359750D01*
X40173000Y-22674718D01*
X40183472Y-22700000D01*
X40173000Y-22725282D01*
X40173000Y-23040250D01*
X40329750Y-23197000D01*
X42297000Y-23197000D01*
X42297000Y-23203000D01*
X40329750Y-23203000D01*
X40173000Y-23359750D01*
X40173000Y-23674718D01*
X40183472Y-23700000D01*
X40173000Y-23725282D01*
X40173000Y-24040250D01*
X40329750Y-24197000D01*
X42297000Y-24197000D01*
X42297000Y-24203000D01*
X40329750Y-24203000D01*
X40173000Y-24359750D01*
X40173000Y-24674718D01*
X40183472Y-24700000D01*
X40173000Y-24725282D01*
X40173000Y-25040250D01*
X40329750Y-25197000D01*
X42297000Y-25197000D01*
X42297000Y-25203000D01*
X40329750Y-25203000D01*
X40173000Y-25359750D01*
X40173000Y-25674718D01*
X40183472Y-25700000D01*
X40173000Y-25725282D01*
X40173000Y-26040250D01*
X40329750Y-26197000D01*
X42297000Y-26197000D01*
X42297000Y-26203000D01*
X40329750Y-26203000D01*
X40173000Y-26359750D01*
X40173000Y-26674718D01*
X40183472Y-26700000D01*
X40173000Y-26725282D01*
X40173000Y-27040250D01*
X40329750Y-27197000D01*
X42297000Y-27197000D01*
X42297000Y-27203000D01*
X40329750Y-27203000D01*
X40173000Y-27359750D01*
X40173000Y-27674718D01*
X40183472Y-27700000D01*
X40173000Y-27725282D01*
X40173000Y-28040250D01*
X40329750Y-28197000D01*
X42297000Y-28197000D01*
X42297000Y-28203000D01*
X40329750Y-28203000D01*
X40173000Y-28359750D01*
X40173000Y-28674718D01*
X40183472Y-28700000D01*
X40173000Y-28725282D01*
X40173000Y-29040250D01*
X40329750Y-29197000D01*
X42297000Y-29197000D01*
X42297000Y-29203000D01*
X40329750Y-29203000D01*
X40173000Y-29359750D01*
X40173000Y-29674718D01*
X40183472Y-29700000D01*
X40173000Y-29725282D01*
X40173000Y-30040250D01*
X40329750Y-30197000D01*
X42297000Y-30197000D01*
X42297000Y-30203000D01*
X40329750Y-30203000D01*
X40173000Y-30359750D01*
X40173000Y-30674718D01*
X40183472Y-30700000D01*
X40173000Y-30725282D01*
X40173000Y-31040250D01*
X40329750Y-31197000D01*
X42297000Y-31197000D01*
X42297000Y-31203000D01*
X40329750Y-31203000D01*
X40173000Y-31359750D01*
X40173000Y-31674718D01*
X40268455Y-31905167D01*
X40444833Y-32081545D01*
X40675282Y-32177000D01*
X40924718Y-32177000D01*
X42140250Y-32177000D01*
X42297000Y-32020250D01*
X42297000Y-37276000D01*
X42173782Y-37276000D01*
X41759750Y-37276000D01*
X41603000Y-37432750D01*
X41603000Y-38344500D01*
X42768750Y-38344500D01*
X42925500Y-38187750D01*
X42925500Y-38507250D01*
X42768750Y-38350500D01*
X41603000Y-38350500D01*
X41603000Y-38370500D01*
X41597000Y-38370500D01*
X41597000Y-38350500D01*
X41597000Y-38344500D01*
X41597000Y-37432750D01*
X41440250Y-37276000D01*
X41026218Y-37276000D01*
X40776782Y-37276000D01*
X40650000Y-37328514D01*
X40523218Y-37276000D01*
X40273782Y-37276000D01*
X39859750Y-37276000D01*
X39703000Y-37432750D01*
X39703000Y-38344500D01*
X40431250Y-38344500D01*
X40868750Y-38344500D01*
X41597000Y-38344500D01*
X41597000Y-38350500D01*
X40868750Y-38350500D01*
X40431250Y-38350500D01*
X39703000Y-38350500D01*
X39703000Y-38370500D01*
X39697000Y-38370500D01*
X39697000Y-38350500D01*
X39697000Y-38344500D01*
X39697000Y-37432750D01*
X39540250Y-37276000D01*
X39126218Y-37276000D01*
X38876782Y-37276000D01*
X38646333Y-37371455D01*
X38469955Y-37547833D01*
X38374500Y-37778282D01*
X38374500Y-38187750D01*
X38531250Y-38344500D01*
X39697000Y-38344500D01*
X39697000Y-38350500D01*
X38531250Y-38350500D01*
X38374500Y-38507250D01*
X38374500Y-38916718D01*
X38469955Y-39147167D01*
X38646333Y-39323545D01*
X38663035Y-39330463D01*
X38512343Y-39481155D01*
X38424500Y-39693227D01*
X38424500Y-39922772D01*
X38424500Y-40811772D01*
X38512343Y-41023844D01*
X38674655Y-41186157D01*
X38718490Y-41204314D01*
X38375197Y-41547010D01*
X38275721Y-41786574D01*
X38275721Y-35947400D01*
X38081947Y-35478431D01*
X37723456Y-35119314D01*
X37254826Y-34924721D01*
X36747400Y-34924279D01*
X36278431Y-35118053D01*
X35919314Y-35476544D01*
X35724721Y-35945174D01*
X35724279Y-36452600D01*
X35918053Y-36921569D01*
X36276544Y-37280686D01*
X36745174Y-37475279D01*
X37252600Y-37475721D01*
X37721569Y-37281947D01*
X38080686Y-36923456D01*
X38275279Y-36454826D01*
X38275721Y-35947400D01*
X38275721Y-41786574D01*
X38172661Y-42034771D01*
X38172200Y-42562912D01*
X38373884Y-43051026D01*
X38747010Y-43424803D01*
X39234771Y-43627339D01*
X39762912Y-43627800D01*
X40251026Y-43426116D01*
X40624803Y-43052990D01*
X40827339Y-42565229D01*
X40827800Y-42037088D01*
X40626116Y-41548974D01*
X40351620Y-41274000D01*
X40513272Y-41274000D01*
X40649999Y-41217365D01*
X40786727Y-41274000D01*
X41016272Y-41274000D01*
X42413272Y-41274000D01*
X42625344Y-41186157D01*
X42787657Y-41023845D01*
X42875500Y-40811773D01*
X42875500Y-40582228D01*
X42875500Y-39693228D01*
X42787657Y-39481156D01*
X42636965Y-39330463D01*
X42653667Y-39323545D01*
X42830045Y-39147167D01*
X42925500Y-38916718D01*
X42925500Y-43767634D01*
X42821064Y-43871888D01*
X42248653Y-45250407D01*
X42247350Y-46743045D01*
X42817355Y-48122561D01*
X43871888Y-49178936D01*
X44194750Y-49313000D01*
X42084549Y-49313000D01*
X42167000Y-48903000D01*
X42167000Y-47803000D01*
X42167000Y-47797000D01*
X42167000Y-46697000D01*
X42057228Y-46151139D01*
X41746920Y-45688837D01*
X41283317Y-45380476D01*
X40966195Y-45291041D01*
X40743000Y-45429754D01*
X40743000Y-47797000D01*
X42167000Y-47797000D01*
X42167000Y-47803000D01*
X40743000Y-47803000D01*
X40743000Y-47823000D01*
X40737000Y-47823000D01*
X40737000Y-47803000D01*
X40737000Y-47797000D01*
X40737000Y-45429754D01*
X40513805Y-45291041D01*
X40196683Y-45380476D01*
X39733080Y-45688837D01*
X39470000Y-46080777D01*
X39206920Y-45688837D01*
X38743317Y-45380476D01*
X38426195Y-45291041D01*
X38203000Y-45429754D01*
X38203000Y-47797000D01*
X39313000Y-47797000D01*
X39627000Y-47797000D01*
X40737000Y-47797000D01*
X40737000Y-47803000D01*
X39627000Y-47803000D01*
X39313000Y-47803000D01*
X38203000Y-47803000D01*
X38203000Y-47823000D01*
X38197000Y-47823000D01*
X38197000Y-47803000D01*
X38197000Y-47797000D01*
X38197000Y-45429754D01*
X37973805Y-45291041D01*
X37656683Y-45380476D01*
X37193080Y-45688837D01*
X37027800Y-45935073D01*
X37027800Y-42037088D01*
X36826116Y-41548974D01*
X36452990Y-41175197D01*
X35965229Y-40972661D01*
X35437088Y-40972200D01*
X34948974Y-41173884D01*
X34775721Y-41346835D01*
X34775721Y-34347400D01*
X34581947Y-33878431D01*
X34223456Y-33519314D01*
X33754826Y-33324721D01*
X33247400Y-33324279D01*
X32778431Y-33518053D01*
X32419314Y-33876544D01*
X32224721Y-34345174D01*
X32224279Y-34852600D01*
X32418053Y-35321569D01*
X32776544Y-35680686D01*
X33245174Y-35875279D01*
X33752600Y-35875721D01*
X34221569Y-35681947D01*
X34580686Y-35323456D01*
X34775279Y-34854826D01*
X34775721Y-34347400D01*
X34775721Y-41346835D01*
X34575197Y-41547010D01*
X34372661Y-42034771D01*
X34372200Y-42562912D01*
X34573884Y-43051026D01*
X34947010Y-43424803D01*
X35434771Y-43627339D01*
X35962912Y-43627800D01*
X36451026Y-43426116D01*
X36824803Y-43052990D01*
X37027339Y-42565229D01*
X37027800Y-42037088D01*
X37027800Y-45935073D01*
X36930000Y-46080777D01*
X36666920Y-45688837D01*
X36203317Y-45380476D01*
X35886195Y-45291041D01*
X35663000Y-45429754D01*
X35663000Y-47797000D01*
X36773000Y-47797000D01*
X37087000Y-47797000D01*
X38197000Y-47797000D01*
X38197000Y-47803000D01*
X37087000Y-47803000D01*
X36773000Y-47803000D01*
X35663000Y-47803000D01*
X35663000Y-47823000D01*
X35657000Y-47823000D01*
X35657000Y-47803000D01*
X35657000Y-47797000D01*
X35657000Y-45429754D01*
X35433805Y-45291041D01*
X35116683Y-45380476D01*
X34653080Y-45688837D01*
X34390000Y-46080777D01*
X34126920Y-45688837D01*
X33663317Y-45380476D01*
X33346195Y-45291041D01*
X33123000Y-45429754D01*
X33123000Y-47797000D01*
X34233000Y-47797000D01*
X34547000Y-47797000D01*
X35657000Y-47797000D01*
X35657000Y-47803000D01*
X34547000Y-47803000D01*
X34233000Y-47803000D01*
X33123000Y-47803000D01*
X33123000Y-47823000D01*
X33117000Y-47823000D01*
X33117000Y-47803000D01*
X33117000Y-47797000D01*
X33117000Y-45429754D01*
X32893805Y-45291041D01*
X32576683Y-45380476D01*
X32113080Y-45688837D01*
X31850000Y-46080777D01*
X31586920Y-45688837D01*
X31123317Y-45380476D01*
X30806195Y-45291041D01*
X30583000Y-45429754D01*
X30583000Y-47797000D01*
X31693000Y-47797000D01*
X32007000Y-47797000D01*
X33117000Y-47797000D01*
X33117000Y-47803000D01*
X32007000Y-47803000D01*
X31693000Y-47803000D01*
X30583000Y-47803000D01*
X30583000Y-47823000D01*
X30577000Y-47823000D01*
X30577000Y-47803000D01*
X29467000Y-47803000D01*
X29153000Y-47803000D01*
X28627000Y-47803000D01*
X28627000Y-47797000D01*
X29153000Y-47797000D01*
X29467000Y-47797000D01*
X30577000Y-47797000D01*
X30577000Y-45429754D01*
X30353805Y-45291041D01*
X30036683Y-45380476D01*
X29573080Y-45688837D01*
X29310000Y-46080777D01*
X29046920Y-45688837D01*
X28627000Y-45409531D01*
X28627000Y-40827000D01*
X28903892Y-40827000D01*
X30572258Y-42495366D01*
X30572200Y-42562912D01*
X30773884Y-43051026D01*
X31147010Y-43424803D01*
X31634771Y-43627339D01*
X32162912Y-43627800D01*
X32651026Y-43426116D01*
X33024803Y-43052990D01*
X33227339Y-42565229D01*
X33227800Y-42037088D01*
X33026116Y-41548974D01*
X32652990Y-41175197D01*
X32165229Y-40972661D01*
X32095708Y-40972600D01*
X31275721Y-40152613D01*
X31275721Y-34347400D01*
X31081947Y-33878431D01*
X30723456Y-33519314D01*
X30254826Y-33324721D01*
X29747400Y-33324279D01*
X29278431Y-33518053D01*
X29224000Y-33572389D01*
X29224000Y-23573218D01*
X29224000Y-23323782D01*
X29224000Y-22909750D01*
X29224000Y-22590250D01*
X29224000Y-22176218D01*
X29224000Y-21926782D01*
X29161129Y-21775000D01*
X29224000Y-21623218D01*
X29224000Y-21373782D01*
X29224000Y-20959750D01*
X29224000Y-20640250D01*
X29224000Y-20226218D01*
X29224000Y-19976782D01*
X29128545Y-19746333D01*
X28952167Y-19569955D01*
X28721718Y-19474500D01*
X28312250Y-19474500D01*
X28155500Y-19631250D01*
X28155500Y-20797000D01*
X29067250Y-20797000D01*
X29224000Y-20640250D01*
X29224000Y-20959750D01*
X29067250Y-20803000D01*
X28155500Y-20803000D01*
X28155500Y-21581250D01*
X28155500Y-21968750D01*
X28155500Y-22747000D01*
X29067250Y-22747000D01*
X29224000Y-22590250D01*
X29224000Y-22909750D01*
X29067250Y-22753000D01*
X28155500Y-22753000D01*
X28155500Y-22773000D01*
X28149500Y-22773000D01*
X28149500Y-22753000D01*
X28129500Y-22753000D01*
X28129500Y-22747000D01*
X28149500Y-22747000D01*
X28149500Y-21968750D01*
X28149500Y-21581250D01*
X28149500Y-20803000D01*
X28129500Y-20803000D01*
X28129500Y-20797000D01*
X28149500Y-20797000D01*
X28149500Y-19631250D01*
X27992750Y-19474500D01*
X27583282Y-19474500D01*
X27352833Y-19569955D01*
X27176455Y-19746333D01*
X27169536Y-19763035D01*
X27018845Y-19612343D01*
X26806773Y-19524500D01*
X26577228Y-19524500D01*
X25688228Y-19524500D01*
X25476156Y-19612343D01*
X25360120Y-19728377D01*
X25297703Y-19728323D01*
X25274000Y-19738116D01*
X25274000Y-19386728D01*
X25186157Y-19174656D01*
X25023845Y-19012343D01*
X24811773Y-18924500D01*
X24582228Y-18924500D01*
X24571677Y-18924500D01*
X24571677Y-13897703D01*
X24416490Y-13522123D01*
X24129389Y-13234520D01*
X23754080Y-13078678D01*
X23347703Y-13078323D01*
X22972123Y-13233510D01*
X22684520Y-13520611D01*
X22528678Y-13895920D01*
X22528323Y-14302297D01*
X22683510Y-14677877D01*
X22970611Y-14965480D01*
X23345920Y-15121322D01*
X23752297Y-15121677D01*
X24127877Y-14966490D01*
X24415480Y-14679389D01*
X24571322Y-14304080D01*
X24571677Y-13897703D01*
X24571677Y-18924500D01*
X23693228Y-18924500D01*
X23481156Y-19012343D01*
X23330463Y-19163034D01*
X23323545Y-19146333D01*
X23147167Y-18969955D01*
X22916718Y-18874500D01*
X22507250Y-18874500D01*
X22350500Y-19031250D01*
X22350500Y-20197000D01*
X22370500Y-20197000D01*
X22370500Y-20203000D01*
X22350500Y-20203000D01*
X22350500Y-21231250D01*
X22350500Y-21368750D01*
X22350500Y-22397000D01*
X22370500Y-22397000D01*
X22370500Y-22403000D01*
X22350500Y-22403000D01*
X22350500Y-23431250D01*
X22350500Y-23568750D01*
X22350500Y-24597000D01*
X22370500Y-24597000D01*
X22370500Y-24603000D01*
X22350500Y-24603000D01*
X22350500Y-25768750D01*
X22507250Y-25925500D01*
X22916718Y-25925500D01*
X23147167Y-25830045D01*
X23323545Y-25653667D01*
X23330463Y-25636964D01*
X23481155Y-25787657D01*
X23693227Y-25875500D01*
X23922772Y-25875500D01*
X24730700Y-25875500D01*
X24770611Y-25915480D01*
X25011985Y-26015707D01*
X24978678Y-26095920D01*
X24978323Y-26502297D01*
X25074143Y-26734199D01*
X24929101Y-26879242D01*
X24841258Y-27091313D01*
X24841257Y-27320858D01*
X24929101Y-27532930D01*
X25091413Y-27695243D01*
X25720031Y-28323861D01*
X25932103Y-28411704D01*
X26145213Y-28411704D01*
X26138296Y-28428406D01*
X26138296Y-28677842D01*
X26233751Y-28908291D01*
X26523289Y-29197829D01*
X26744967Y-29197829D01*
X27569276Y-28373519D01*
X27555134Y-28359376D01*
X27559376Y-28355134D01*
X27573519Y-28369276D01*
X28397829Y-27544967D01*
X28397829Y-27323289D01*
X28108291Y-27033751D01*
X27877842Y-26938296D01*
X27628406Y-26938296D01*
X27611704Y-26945214D01*
X27611705Y-26732104D01*
X27523861Y-26520032D01*
X27361549Y-26357719D01*
X26965447Y-25961617D01*
X26897261Y-25796596D01*
X26918844Y-25787657D01*
X27069536Y-25636965D01*
X27076455Y-25653667D01*
X27252833Y-25830045D01*
X27483282Y-25925500D01*
X27892750Y-25925500D01*
X28049500Y-25768750D01*
X28049500Y-24603000D01*
X28029500Y-24603000D01*
X28029500Y-24597000D01*
X28049500Y-24597000D01*
X28049500Y-24577000D01*
X28055500Y-24577000D01*
X28055500Y-24597000D01*
X28967250Y-24597000D01*
X29124000Y-24440250D01*
X29124000Y-24026218D01*
X29124000Y-23808212D01*
X29128545Y-23803667D01*
X29224000Y-23573218D01*
X29224000Y-33572389D01*
X29124000Y-33672214D01*
X29124000Y-25423218D01*
X29124000Y-25173782D01*
X29124000Y-24759750D01*
X28967250Y-24603000D01*
X28055500Y-24603000D01*
X28055500Y-25768750D01*
X28212250Y-25925500D01*
X28621718Y-25925500D01*
X28852167Y-25830045D01*
X29028545Y-25653667D01*
X29124000Y-25423218D01*
X29124000Y-33672214D01*
X29008742Y-33787271D01*
X29008742Y-28318632D01*
X29008742Y-28069196D01*
X28913287Y-27838747D01*
X28623749Y-27549209D01*
X28402071Y-27549209D01*
X27577762Y-28373519D01*
X28222466Y-29018224D01*
X28444144Y-29018224D01*
X28736909Y-28725459D01*
X28913287Y-28549081D01*
X29008742Y-28318632D01*
X29008742Y-33787271D01*
X28919314Y-33876544D01*
X28724721Y-34345174D01*
X28724279Y-34852600D01*
X28918053Y-35321569D01*
X29276544Y-35680686D01*
X29745174Y-35875279D01*
X30252600Y-35875721D01*
X30721569Y-35681947D01*
X31080686Y-35323456D01*
X31275279Y-34854826D01*
X31275721Y-34347400D01*
X31275721Y-40152613D01*
X30111554Y-38988446D01*
X29762150Y-38754982D01*
X29350000Y-38673000D01*
X28627000Y-38673000D01*
X28627000Y-35051136D01*
X28218224Y-34598562D01*
X28218224Y-29244144D01*
X28218224Y-29022466D01*
X27573519Y-28377762D01*
X26749209Y-29202071D01*
X26749209Y-29423749D01*
X27038747Y-29713287D01*
X27269196Y-29808742D01*
X27518632Y-29808742D01*
X27749081Y-29713287D01*
X27925459Y-29536909D01*
X28218224Y-29244144D01*
X28218224Y-34598562D01*
X27108742Y-33370207D01*
X27108742Y-30218632D01*
X27108742Y-29969196D01*
X27013287Y-29738747D01*
X26723749Y-29449209D01*
X26502071Y-29449209D01*
X25677762Y-30273519D01*
X26322466Y-30918224D01*
X26544144Y-30918224D01*
X26836909Y-30625459D01*
X27013287Y-30449081D01*
X27108742Y-30218632D01*
X27108742Y-33370207D01*
X25608063Y-31708742D01*
X25618632Y-31708742D01*
X25849081Y-31613287D01*
X26025459Y-31436909D01*
X26318224Y-31144144D01*
X26318224Y-30922466D01*
X25673519Y-30277762D01*
X25659376Y-30291903D01*
X25655134Y-30287661D01*
X25669276Y-30273519D01*
X25655134Y-30259376D01*
X25659376Y-30255134D01*
X25673519Y-30269276D01*
X26497829Y-29444967D01*
X26497829Y-29223289D01*
X26208291Y-28933751D01*
X25977842Y-28838296D01*
X25728406Y-28838296D01*
X25711704Y-28845214D01*
X25711705Y-28632104D01*
X25623861Y-28420032D01*
X25461549Y-28257719D01*
X24832931Y-27629101D01*
X24620859Y-27541258D01*
X24391314Y-27541257D01*
X24179242Y-27629101D01*
X24034136Y-27774205D01*
X23804080Y-27678678D01*
X23397703Y-27678323D01*
X23022123Y-27833510D01*
X22734520Y-28120611D01*
X22578678Y-28495920D01*
X22578323Y-28902297D01*
X22733510Y-29277877D01*
X22773000Y-29317436D01*
X22773000Y-29848522D01*
X27225287Y-34824608D01*
X26847400Y-34824279D01*
X26378431Y-35018053D01*
X26019314Y-35376544D01*
X25824721Y-35845174D01*
X25824279Y-36352600D01*
X26018053Y-36821569D01*
X26376544Y-37180686D01*
X26845174Y-37375279D01*
X27352600Y-37375721D01*
X27821569Y-37181947D01*
X27873000Y-37130605D01*
X27873000Y-38673000D01*
X23650000Y-38673000D01*
X22344500Y-38673000D01*
X22344500Y-25768750D01*
X22344500Y-24603000D01*
X22344500Y-24597000D01*
X22344500Y-23568750D01*
X22344500Y-23431250D01*
X22344500Y-22403000D01*
X21432750Y-22403000D01*
X21276000Y-22559750D01*
X21276000Y-22973782D01*
X21276000Y-23223218D01*
X21371455Y-23453667D01*
X21417788Y-23500000D01*
X21371455Y-23546333D01*
X21276000Y-23776782D01*
X21276000Y-24026218D01*
X21276000Y-24440250D01*
X21432750Y-24597000D01*
X22344500Y-24597000D01*
X22344500Y-24603000D01*
X21432750Y-24603000D01*
X21276000Y-24759750D01*
X21276000Y-25173782D01*
X21276000Y-25423218D01*
X21371455Y-25653667D01*
X21547833Y-25830045D01*
X21778282Y-25925500D01*
X22187750Y-25925500D01*
X22344500Y-25768750D01*
X22344500Y-38673000D01*
X22250000Y-38673000D01*
X21837850Y-38754982D01*
X21488446Y-38988446D01*
X20297000Y-40179892D01*
X20297000Y-20667250D01*
X20297000Y-19755500D01*
X19168750Y-19755500D01*
X19131250Y-19755500D01*
X18003000Y-19755500D01*
X18003000Y-20667250D01*
X18159750Y-20824000D01*
X18573782Y-20824000D01*
X18823218Y-20824000D01*
X19053667Y-20728545D01*
X19150000Y-20632212D01*
X19246333Y-20728545D01*
X19476782Y-20824000D01*
X19726218Y-20824000D01*
X20140250Y-20824000D01*
X20297000Y-20667250D01*
X20297000Y-40179892D01*
X19203892Y-41273000D01*
X16850579Y-41273000D01*
X16986743Y-40945082D01*
X16987256Y-40357495D01*
X16762870Y-39814440D01*
X16347746Y-39398591D01*
X16311416Y-39383505D01*
X16385560Y-39352870D01*
X16801409Y-38937746D01*
X16819766Y-38893536D01*
X16837130Y-38935560D01*
X17252254Y-39351409D01*
X17794918Y-39576743D01*
X18382505Y-39577256D01*
X18925560Y-39352870D01*
X19341409Y-38937746D01*
X19566743Y-38395082D01*
X19567256Y-37807495D01*
X19342870Y-37264440D01*
X19325500Y-37247039D01*
X19325500Y-25416718D01*
X19325500Y-25007250D01*
X19325500Y-24687750D01*
X19325500Y-24278282D01*
X19230045Y-24047833D01*
X19053667Y-23871455D01*
X18823218Y-23776000D01*
X18573782Y-23776000D01*
X18159750Y-23776000D01*
X18003000Y-23932750D01*
X18003000Y-24844500D01*
X19168750Y-24844500D01*
X19325500Y-24687750D01*
X19325500Y-25007250D01*
X19168750Y-24850500D01*
X18003000Y-24850500D01*
X18003000Y-24870500D01*
X17997000Y-24870500D01*
X17997000Y-24850500D01*
X17997000Y-24844500D01*
X17997000Y-23932750D01*
X17997000Y-20667250D01*
X17997000Y-19755500D01*
X16968750Y-19755500D01*
X16831250Y-19755500D01*
X15803000Y-19755500D01*
X15803000Y-20667250D01*
X15959750Y-20824000D01*
X16373782Y-20824000D01*
X16623218Y-20824000D01*
X16853667Y-20728545D01*
X16900000Y-20682212D01*
X16946333Y-20728545D01*
X17176782Y-20824000D01*
X17426218Y-20824000D01*
X17840250Y-20824000D01*
X17997000Y-20667250D01*
X17997000Y-23932750D01*
X17840250Y-23776000D01*
X17426218Y-23776000D01*
X17176782Y-23776000D01*
X16946333Y-23871455D01*
X16900000Y-23917788D01*
X16853667Y-23871455D01*
X16623218Y-23776000D01*
X16373782Y-23776000D01*
X15959750Y-23776000D01*
X15803000Y-23932750D01*
X15803000Y-24844500D01*
X16831250Y-24844500D01*
X16968750Y-24844500D01*
X17997000Y-24844500D01*
X17997000Y-24850500D01*
X16968750Y-24850500D01*
X16831250Y-24850500D01*
X15803000Y-24850500D01*
X15803000Y-24870500D01*
X15797000Y-24870500D01*
X15797000Y-24850500D01*
X15797000Y-24844500D01*
X15797000Y-23932750D01*
X15797000Y-20667250D01*
X15797000Y-19755500D01*
X14631250Y-19755500D01*
X14474500Y-19912250D01*
X14474500Y-20321718D01*
X14569955Y-20552167D01*
X14746333Y-20728545D01*
X14976782Y-20824000D01*
X15226218Y-20824000D01*
X15640250Y-20824000D01*
X15797000Y-20667250D01*
X15797000Y-23932750D01*
X15640250Y-23776000D01*
X15226218Y-23776000D01*
X14976782Y-23776000D01*
X14746333Y-23871455D01*
X14569955Y-24047833D01*
X14474500Y-24278282D01*
X14474500Y-24687750D01*
X14631250Y-24844500D01*
X15797000Y-24844500D01*
X15797000Y-24850500D01*
X14631250Y-24850500D01*
X14474500Y-25007250D01*
X14474500Y-25416718D01*
X14569955Y-25647167D01*
X14746333Y-25823545D01*
X14763035Y-25830463D01*
X14615159Y-25978338D01*
X14597703Y-25978323D01*
X14249607Y-26122153D01*
X13904080Y-25978678D01*
X13885162Y-25978661D01*
X13736965Y-25830463D01*
X13753667Y-25823545D01*
X13930045Y-25647167D01*
X14025500Y-25416718D01*
X14025500Y-25007250D01*
X14025500Y-24687750D01*
X14025500Y-24278282D01*
X13930045Y-24047833D01*
X13753667Y-23871455D01*
X13523218Y-23776000D01*
X13273782Y-23776000D01*
X12859750Y-23776000D01*
X12703000Y-23932750D01*
X12703000Y-24844500D01*
X13868750Y-24844500D01*
X14025500Y-24687750D01*
X14025500Y-25007250D01*
X13868750Y-24850500D01*
X12703000Y-24850500D01*
X12703000Y-24870500D01*
X12697000Y-24870500D01*
X12697000Y-24850500D01*
X12697000Y-24844500D01*
X12697000Y-23932750D01*
X12540250Y-23776000D01*
X12126218Y-23776000D01*
X11876782Y-23776000D01*
X11646333Y-23871455D01*
X11469955Y-24047833D01*
X11374500Y-24278282D01*
X11374500Y-24687750D01*
X11531250Y-24844500D01*
X12697000Y-24844500D01*
X12697000Y-24850500D01*
X11531250Y-24850500D01*
X11374500Y-25007250D01*
X11374500Y-25416718D01*
X11469955Y-25647167D01*
X11646333Y-25823545D01*
X11663035Y-25830463D01*
X11512343Y-25981155D01*
X11424500Y-26193227D01*
X11424500Y-26298000D01*
X9100000Y-26298000D01*
X9054501Y-26298000D01*
X9025345Y-26268843D01*
X8979853Y-26249999D01*
X9025344Y-26231157D01*
X9187657Y-26068845D01*
X9275500Y-25856773D01*
X9275500Y-25627228D01*
X9275500Y-24738228D01*
X9187657Y-24526156D01*
X9025345Y-24363843D01*
X8813273Y-24276000D01*
X8583728Y-24276000D01*
X7186728Y-24276000D01*
X7180523Y-24278570D01*
X6897703Y-24278323D01*
X6522123Y-24433510D01*
X6234520Y-24720611D01*
X6078678Y-25095920D01*
X6078404Y-25409540D01*
X6074000Y-25407711D01*
X6074000Y-24386728D01*
X5986157Y-24174656D01*
X5823845Y-24012343D01*
X5611773Y-23924500D01*
X5382228Y-23924500D01*
X4493228Y-23924500D01*
X4281156Y-24012343D01*
X4130463Y-24163034D01*
X4123545Y-24146333D01*
X3947167Y-23969955D01*
X3716718Y-23874500D01*
X3307250Y-23874500D01*
X3150500Y-24031250D01*
X3150500Y-25197000D01*
X3170500Y-25197000D01*
X3170500Y-25203000D01*
X3150500Y-25203000D01*
X3150500Y-25223000D01*
X3144500Y-25223000D01*
X3144500Y-25203000D01*
X3144500Y-25197000D01*
X3144500Y-24031250D01*
X2987750Y-23874500D01*
X2578282Y-23874500D01*
X2347833Y-23969955D01*
X2171455Y-24146333D01*
X2076000Y-24376782D01*
X2076000Y-24626218D01*
X2076000Y-25040250D01*
X2232750Y-25197000D01*
X3144500Y-25197000D01*
X3144500Y-25203000D01*
X2232750Y-25203000D01*
X2076000Y-25359750D01*
X2076000Y-25773782D01*
X2076000Y-25848000D01*
X2050000Y-25848000D01*
X1895809Y-25878670D01*
X1895808Y-25878670D01*
X1497703Y-25878323D01*
X1122123Y-26033510D01*
X834520Y-26320611D01*
X678678Y-26695920D01*
X678323Y-27102297D01*
X833510Y-27477877D01*
X1120611Y-27765480D01*
X1495920Y-27921322D01*
X1902297Y-27921677D01*
X2277877Y-27766490D01*
X2519980Y-27524809D01*
X2519980Y-28045152D01*
X2607823Y-28257224D01*
X2745500Y-28394901D01*
X2745500Y-28547500D01*
X2798937Y-28816144D01*
X2878687Y-28935499D01*
X2770136Y-28980463D01*
X2607823Y-29142775D01*
X2591402Y-29182416D01*
X2566490Y-29122123D01*
X2279389Y-28834520D01*
X1904080Y-28678678D01*
X1497703Y-28678323D01*
X1122123Y-28833510D01*
X834520Y-29120611D01*
X678678Y-29495920D01*
X678323Y-29902297D01*
X833510Y-30277877D01*
X1120611Y-30565480D01*
X1495920Y-30721322D01*
X1902297Y-30721677D01*
X2022524Y-30672000D01*
X2555953Y-30672000D01*
X2607823Y-30797224D01*
X2770135Y-30959537D01*
X2982207Y-31047380D01*
X3211752Y-31047380D01*
X3804051Y-31047380D01*
X3924762Y-31097380D01*
X4240250Y-31097380D01*
X4378448Y-30959181D01*
X4378323Y-31102297D01*
X4533510Y-31477877D01*
X4820611Y-31765480D01*
X5195920Y-31921322D01*
X5602297Y-31921677D01*
X5977877Y-31766490D01*
X6265480Y-31479389D01*
X6421322Y-31104080D01*
X6421677Y-30697703D01*
X6280020Y-30354867D01*
X6280020Y-29386082D01*
X6468643Y-29348563D01*
X6468644Y-29348563D01*
X6509264Y-29321421D01*
X6802297Y-29321677D01*
X7177877Y-29166490D01*
X7248000Y-29096489D01*
X7248000Y-32450000D01*
X7248000Y-32459222D01*
X5228697Y-34478524D01*
X4997703Y-34478323D01*
X4622123Y-34633510D01*
X4334520Y-34920611D01*
X4178678Y-35295920D01*
X4178323Y-35702297D01*
X4333510Y-36077877D01*
X4620611Y-36365480D01*
X4995920Y-36521322D01*
X5402297Y-36521677D01*
X5777877Y-36366490D01*
X6065480Y-36079389D01*
X6221322Y-35704080D01*
X6221525Y-35471252D01*
X8188149Y-33504628D01*
X8218644Y-33498563D01*
X8446389Y-33346389D01*
X8598563Y-33118644D01*
X8652000Y-32850000D01*
X8652000Y-32750000D01*
X8652000Y-32450000D01*
X8652000Y-29903084D01*
X8695920Y-29921322D01*
X9102297Y-29921677D01*
X9477877Y-29766490D01*
X9642654Y-29602000D01*
X12226000Y-29602000D01*
X12226000Y-29713272D01*
X12313843Y-29925344D01*
X12476155Y-30087657D01*
X12688227Y-30175500D01*
X12917772Y-30175500D01*
X13806772Y-30175500D01*
X14018844Y-30087657D01*
X14124500Y-29982001D01*
X14124500Y-30606772D01*
X14212343Y-30818844D01*
X14374655Y-30981157D01*
X14420146Y-31000000D01*
X14374656Y-31018843D01*
X14212343Y-31181155D01*
X14124500Y-31393227D01*
X14124500Y-31622772D01*
X14124500Y-32511772D01*
X14212343Y-32723844D01*
X14374655Y-32886157D01*
X14586727Y-32974000D01*
X14698000Y-32974000D01*
X14698000Y-34757329D01*
X14584520Y-34870611D01*
X14428678Y-35245920D01*
X14428323Y-35652297D01*
X14583510Y-36027877D01*
X14870611Y-36315480D01*
X15245920Y-36471322D01*
X15652297Y-36471677D01*
X16027877Y-36316490D01*
X16315480Y-36029389D01*
X16471322Y-35654080D01*
X16471677Y-35247703D01*
X16316490Y-34872123D01*
X16102000Y-34657257D01*
X16102000Y-32974000D01*
X16213272Y-32974000D01*
X16425344Y-32886157D01*
X16587657Y-32723845D01*
X16675500Y-32511773D01*
X16675500Y-32282228D01*
X16675500Y-31393228D01*
X16587657Y-31181156D01*
X16425345Y-31018843D01*
X16379853Y-30999999D01*
X16425344Y-30981157D01*
X16587657Y-30818845D01*
X16675500Y-30606773D01*
X16675500Y-30377228D01*
X16675500Y-30105610D01*
X16718844Y-30087657D01*
X16869536Y-29936965D01*
X16876455Y-29953667D01*
X17052833Y-30130045D01*
X17283282Y-30225500D01*
X17692750Y-30225500D01*
X17849500Y-30068750D01*
X17849500Y-28903000D01*
X17829500Y-28903000D01*
X17829500Y-28897000D01*
X17849500Y-28897000D01*
X17849500Y-28877000D01*
X17855500Y-28877000D01*
X17855500Y-28897000D01*
X18767250Y-28897000D01*
X18924000Y-28740250D01*
X18924000Y-28326218D01*
X18924000Y-28076782D01*
X18828545Y-27846333D01*
X18756212Y-27774000D01*
X18813272Y-27774000D01*
X19025344Y-27686157D01*
X19187657Y-27523845D01*
X19275500Y-27311773D01*
X19275500Y-27082228D01*
X19275500Y-26193228D01*
X19187657Y-25981156D01*
X19036965Y-25830463D01*
X19053667Y-25823545D01*
X19230045Y-25647167D01*
X19325500Y-25416718D01*
X19325500Y-37247039D01*
X18927746Y-36848591D01*
X18924000Y-36847035D01*
X18924000Y-29723218D01*
X18924000Y-29473782D01*
X18924000Y-29059750D01*
X18767250Y-28903000D01*
X17855500Y-28903000D01*
X17855500Y-30068750D01*
X18012250Y-30225500D01*
X18421718Y-30225500D01*
X18652167Y-30130045D01*
X18828545Y-29953667D01*
X18924000Y-29723218D01*
X18924000Y-36847035D01*
X18385082Y-36623257D01*
X17797495Y-36622744D01*
X17254440Y-36847130D01*
X16838591Y-37262254D01*
X16820233Y-37306463D01*
X16802870Y-37264440D01*
X16387746Y-36848591D01*
X15845082Y-36623257D01*
X15257495Y-36622744D01*
X14714440Y-36847130D01*
X14298591Y-37262254D01*
X14266467Y-37339615D01*
X14052655Y-37382146D01*
X13800578Y-37550578D01*
X12328156Y-39023000D01*
X10300000Y-39023000D01*
X9500000Y-39023000D01*
X8761288Y-39023000D01*
X8851765Y-38805109D01*
X8852234Y-38267250D01*
X8646838Y-37770154D01*
X8266846Y-37389499D01*
X7770109Y-37183235D01*
X7232250Y-37182766D01*
X6735154Y-37388162D01*
X6354499Y-37768154D01*
X6148235Y-38264891D01*
X6147766Y-38802750D01*
X6238771Y-39023000D01*
X5021844Y-39023000D01*
X4775347Y-38776503D01*
X4775721Y-38347400D01*
X4581947Y-37878431D01*
X4223456Y-37519314D01*
X3754826Y-37324721D01*
X3247400Y-37324279D01*
X2778431Y-37518053D01*
X2419314Y-37876544D01*
X2224721Y-38345174D01*
X2224279Y-38852600D01*
X2418053Y-39321569D01*
X2776544Y-39680686D01*
X3093982Y-39812498D01*
X2922123Y-39883510D01*
X2634520Y-40170611D01*
X2478678Y-40545920D01*
X2478323Y-40952297D01*
X2631494Y-41323000D01*
X2627135Y-41323000D01*
X2623456Y-41319314D01*
X2154826Y-41124721D01*
X1647400Y-41124279D01*
X1178431Y-41318053D01*
X819314Y-41676544D01*
X624721Y-42145174D01*
X624279Y-42652600D01*
X818053Y-43121569D01*
X1176544Y-43480686D01*
X1645174Y-43675279D01*
X2152600Y-43675721D01*
X2621569Y-43481947D01*
X2626524Y-43477000D01*
X4400000Y-43477000D01*
X4812150Y-43395018D01*
X5074105Y-43219985D01*
X4421064Y-43871888D01*
X3848653Y-45250407D01*
X3847350Y-46743045D01*
X4417355Y-48122561D01*
X5471888Y-49178936D01*
X5794750Y-49313000D01*
X3450000Y-49313000D01*
X3000000Y-49313000D01*
X587000Y-49313000D01*
X587000Y-2840813D01*
X619892Y-2920418D01*
X1077175Y-3378499D01*
X1674950Y-3626717D01*
X2322211Y-3627282D01*
X2920418Y-3380108D01*
X3378499Y-2922825D01*
X3626717Y-2325050D01*
X3627282Y-1677789D01*
X3380108Y-1079582D01*
X2922825Y-621501D01*
X2839737Y-587000D01*
X5792921Y-587000D01*
X5477439Y-717355D01*
X4421064Y-1771888D01*
X3848653Y-3150407D01*
X3847350Y-4643045D01*
X4417355Y-6022561D01*
X4679980Y-6285645D01*
X4322123Y-6433510D01*
X4034520Y-6720611D01*
X3878678Y-7095920D01*
X3878323Y-7502297D01*
X3928196Y-7623000D01*
X3377135Y-7623000D01*
X3373456Y-7619314D01*
X2904826Y-7424721D01*
X2397400Y-7424279D01*
X1928431Y-7618053D01*
X1569314Y-7976544D01*
X1374721Y-8445174D01*
X1374279Y-8952600D01*
X1568053Y-9421569D01*
X1926544Y-9780686D01*
X2395174Y-9975279D01*
X2902600Y-9975721D01*
X3371569Y-9781947D01*
X3376524Y-9777000D01*
X3424156Y-9777000D01*
X2976503Y-10224652D01*
X2547400Y-10224279D01*
X2078431Y-10418053D01*
X1719314Y-10776544D01*
X1524721Y-11245174D01*
X1524279Y-11752600D01*
X1718053Y-12221569D01*
X2076544Y-12580686D01*
X2545174Y-12775279D01*
X3052600Y-12775721D01*
X3521569Y-12581947D01*
X3880686Y-12223456D01*
X4075279Y-11754826D01*
X4075654Y-11323189D01*
X4821844Y-10577000D01*
X6375689Y-10577000D01*
X6354499Y-10598154D01*
X6148235Y-11094891D01*
X6147766Y-11632750D01*
X6353162Y-12129846D01*
X6733154Y-12510501D01*
X7229891Y-12716765D01*
X7767750Y-12717234D01*
X8264846Y-12511838D01*
X8645501Y-12131846D01*
X8851765Y-11635109D01*
X8852234Y-11097250D01*
X8646838Y-10600154D01*
X8623724Y-10577000D01*
X9778156Y-10577000D01*
X10224652Y-11023496D01*
X10224279Y-11452600D01*
X10418053Y-11921569D01*
X10776544Y-12280686D01*
X11245174Y-12475279D01*
X11252177Y-12475285D01*
X11638446Y-12861554D01*
X11987850Y-13095018D01*
X12400000Y-13177000D01*
X13857873Y-13177000D01*
X13774500Y-13378282D01*
X13774500Y-13787750D01*
X13931250Y-13944500D01*
X15097000Y-13944500D01*
X15097000Y-13924500D01*
X15103000Y-13924500D01*
X15103000Y-13944500D01*
X16031250Y-13944500D01*
X16268750Y-13944500D01*
X17197000Y-13944500D01*
X17197000Y-13924500D01*
X17203000Y-13924500D01*
X17203000Y-13944500D01*
X17473000Y-13944500D01*
X17473000Y-13950500D01*
X17203000Y-13950500D01*
X17203000Y-13970500D01*
X17197000Y-13970500D01*
X17197000Y-13950500D01*
X16268750Y-13950500D01*
X16031250Y-13950500D01*
X15103000Y-13950500D01*
X15103000Y-13970500D01*
X15097000Y-13970500D01*
X15097000Y-13950500D01*
X13931250Y-13950500D01*
X13774500Y-14107250D01*
X13774500Y-14516718D01*
X13869955Y-14747167D01*
X14046333Y-14923545D01*
X14063035Y-14930463D01*
X13912343Y-15081155D01*
X13824500Y-15293227D01*
X13824500Y-15522772D01*
X13824500Y-16411772D01*
X13912343Y-16623844D01*
X14074655Y-16786157D01*
X14286727Y-16874000D01*
X14516272Y-16874000D01*
X14587779Y-16874000D01*
X14578678Y-16895920D01*
X14578449Y-17157982D01*
X14524500Y-17288227D01*
X14524500Y-17517772D01*
X14524500Y-18406772D01*
X14612343Y-18618844D01*
X14763034Y-18769536D01*
X14746333Y-18776455D01*
X14569955Y-18952833D01*
X14474500Y-19183282D01*
X14474500Y-19592750D01*
X14631250Y-19749500D01*
X15797000Y-19749500D01*
X15797000Y-19729500D01*
X15803000Y-19729500D01*
X15803000Y-19749500D01*
X16831250Y-19749500D01*
X16968750Y-19749500D01*
X17997000Y-19749500D01*
X17997000Y-19729500D01*
X18003000Y-19729500D01*
X18003000Y-19749500D01*
X19131250Y-19749500D01*
X19168750Y-19749500D01*
X20297000Y-19749500D01*
X20297000Y-19729500D01*
X20303000Y-19729500D01*
X20303000Y-19749500D01*
X20323000Y-19749500D01*
X20323000Y-19755500D01*
X20303000Y-19755500D01*
X20303000Y-20667250D01*
X20459750Y-20824000D01*
X20873782Y-20824000D01*
X21123218Y-20824000D01*
X21276000Y-20760715D01*
X21276000Y-20773782D01*
X21276000Y-21023218D01*
X21371455Y-21253667D01*
X21417788Y-21300000D01*
X21371455Y-21346333D01*
X21276000Y-21576782D01*
X21276000Y-21826218D01*
X21276000Y-22240250D01*
X21432750Y-22397000D01*
X22344500Y-22397000D01*
X22344500Y-21368750D01*
X22344500Y-21231250D01*
X22344500Y-20203000D01*
X22324500Y-20203000D01*
X22324500Y-20197000D01*
X22344500Y-20197000D01*
X22344500Y-19031250D01*
X22187750Y-18874500D01*
X21778282Y-18874500D01*
X21547833Y-18969955D01*
X21540269Y-18977518D01*
X21530045Y-18952833D01*
X21353667Y-18776455D01*
X21336964Y-18769536D01*
X21487657Y-18618845D01*
X21575500Y-18406773D01*
X21575500Y-18177228D01*
X21575500Y-17288228D01*
X21487657Y-17076156D01*
X21325345Y-16913843D01*
X21113273Y-16826000D01*
X20883728Y-16826000D01*
X20702000Y-16826000D01*
X20702000Y-16774000D01*
X20813272Y-16774000D01*
X21025344Y-16686157D01*
X21187657Y-16523845D01*
X21275500Y-16311773D01*
X21275500Y-16082228D01*
X21275500Y-15193228D01*
X21187657Y-14981156D01*
X21036965Y-14830463D01*
X21053667Y-14823545D01*
X21230045Y-14647167D01*
X21325500Y-14416718D01*
X21325500Y-14007250D01*
X21325500Y-13687750D01*
X21325500Y-13278282D01*
X21230045Y-13047833D01*
X21053667Y-12871455D01*
X20823218Y-12776000D01*
X20573782Y-12776000D01*
X20159750Y-12776000D01*
X20003000Y-12932750D01*
X20003000Y-13844500D01*
X21168750Y-13844500D01*
X21325500Y-13687750D01*
X21325500Y-14007250D01*
X21168750Y-13850500D01*
X20003000Y-13850500D01*
X20003000Y-13870500D01*
X19997000Y-13870500D01*
X19997000Y-13850500D01*
X19997000Y-13844500D01*
X19997000Y-12932750D01*
X19840250Y-12776000D01*
X19426218Y-12776000D01*
X19176782Y-12776000D01*
X18946333Y-12871455D01*
X18769955Y-13047833D01*
X18674500Y-13278282D01*
X18674500Y-13687750D01*
X18831250Y-13844500D01*
X19997000Y-13844500D01*
X19997000Y-13850500D01*
X18831250Y-13850500D01*
X18674500Y-14007250D01*
X18674500Y-14416718D01*
X18769955Y-14647167D01*
X18946333Y-14823545D01*
X18963035Y-14830463D01*
X18812343Y-14981155D01*
X18724500Y-15193227D01*
X18724500Y-15249889D01*
X18522123Y-15333510D01*
X18475500Y-15380051D01*
X18475500Y-15293228D01*
X18387657Y-15081156D01*
X18236965Y-14930463D01*
X18253667Y-14923545D01*
X18430045Y-14747167D01*
X18525500Y-14516718D01*
X18525500Y-14107250D01*
X18368750Y-13950500D01*
X18227000Y-13950500D01*
X18227000Y-13944500D01*
X18368750Y-13944500D01*
X18525500Y-13787750D01*
X18525500Y-13378282D01*
X18430045Y-13147833D01*
X18253667Y-12971455D01*
X18227000Y-12960409D01*
X18227000Y-9052605D01*
X18352605Y-8927000D01*
X28947042Y-8927000D01*
X37644183Y-17706972D01*
X36926656Y-18424500D01*
X36888228Y-18424500D01*
X36676156Y-18512343D01*
X36513843Y-18674655D01*
X36426000Y-18886727D01*
X36426000Y-19116272D01*
X36426000Y-20513272D01*
X36513843Y-20725344D01*
X36676155Y-20887657D01*
X36882056Y-20972944D01*
X36898078Y-20996922D01*
X37450578Y-21549422D01*
X37702655Y-21717854D01*
X38000000Y-21777000D01*
X40173000Y-21777000D01*
X40173000Y-22040250D01*
X40329750Y-22197000D01*
X42297000Y-22197000D01*
X42297000Y-22177000D01*
X42303000Y-22177000D01*
X42303000Y-22197000D01*
X42323000Y-22197000D01*
X42323000Y-22203000D01*
X42303000Y-22203000D01*
X42303000Y-22379750D01*
X42303000Y-23020250D01*
X42303000Y-23197000D01*
X42323000Y-23197000D01*
X42323000Y-23203000D01*
X42303000Y-23203000D01*
X42303000Y-23379750D01*
X42303000Y-24020250D01*
X42303000Y-24197000D01*
X42323000Y-24197000D01*
X42323000Y-24203000D01*
X42303000Y-24203000D01*
X42303000Y-24379750D01*
X42303000Y-25020250D01*
X42303000Y-25197000D01*
X42323000Y-25197000D01*
X42323000Y-25203000D01*
X42303000Y-25203000D01*
X42303000Y-25379750D01*
X42303000Y-26020250D01*
X42303000Y-26197000D01*
X42323000Y-26197000D01*
X42323000Y-26203000D01*
X42303000Y-26203000D01*
X42303000Y-26379750D01*
X42303000Y-27020250D01*
X42303000Y-27197000D01*
X42323000Y-27197000D01*
X42323000Y-27203000D01*
X42303000Y-27203000D01*
X42303000Y-27379750D01*
X42303000Y-28020250D01*
X42303000Y-28197000D01*
X42323000Y-28197000D01*
X42323000Y-28203000D01*
X42303000Y-28203000D01*
X42303000Y-28379750D01*
X42303000Y-29020250D01*
X42303000Y-29197000D01*
X42323000Y-29197000D01*
X42323000Y-29203000D01*
X42303000Y-29203000D01*
X42303000Y-29379750D01*
X42303000Y-30020250D01*
X42303000Y-30197000D01*
X42323000Y-30197000D01*
X42323000Y-30203000D01*
X42303000Y-30203000D01*
X42303000Y-30379750D01*
X42303000Y-31020250D01*
X42303000Y-31197000D01*
X42323000Y-31197000D01*
X42323000Y-31203000D01*
X42303000Y-31203000D01*
X42303000Y-32020250D01*
X42459750Y-32177000D01*
X43253688Y-32177000D01*
X43249989Y-32182536D01*
X43249988Y-32182537D01*
X43249987Y-32182539D01*
X43183607Y-32342794D01*
X43162340Y-32394137D01*
X43162339Y-32394137D01*
X43162339Y-32394140D01*
X43124279Y-32585483D01*
X43124279Y-32643292D01*
X43124279Y-32643295D01*
X43113000Y-32700000D01*
X43113000Y-32750000D01*
X43124279Y-32806704D01*
X43124279Y-32806707D01*
X43124279Y-32864517D01*
X43162339Y-33055860D01*
X43162339Y-33055862D01*
X43162340Y-33055863D01*
X43183607Y-33107206D01*
X43249987Y-33267461D01*
X43249988Y-33267462D01*
X43249989Y-33267464D01*
X43358373Y-33429670D01*
X43358376Y-33429675D01*
X43439350Y-33510649D01*
X43520325Y-33591624D01*
X43520330Y-33591627D01*
X43682536Y-33700011D01*
X43682537Y-33700011D01*
X43682539Y-33700013D01*
X43795856Y-33746950D01*
X43894137Y-33787660D01*
X43894138Y-33787660D01*
X43894141Y-33787661D01*
X44085483Y-33825721D01*
X44143297Y-33825721D01*
X44200000Y-33837000D01*
X49313000Y-33837000D01*
X49313000Y-40901205D01*
X49313000Y-40901205D01*
G37*
X49313000Y-40901205D02*
X49180108Y-40579582D01*
X48722825Y-40121501D01*
X48125050Y-39873283D01*
X47477789Y-39872718D01*
X46879582Y-40119892D01*
X46421501Y-40577175D01*
X46173283Y-41174950D01*
X46172718Y-41822211D01*
X46348775Y-42248303D01*
X45256955Y-42247350D01*
X43877439Y-42817355D01*
X42925500Y-43767634D01*
X42925500Y-38916718D01*
X42925500Y-38507250D01*
X42925500Y-38187750D01*
X42925500Y-37778282D01*
X42830045Y-37547833D01*
X42653667Y-37371455D01*
X42423218Y-37276000D01*
X42297000Y-37276000D01*
X42297000Y-32020250D01*
X42297000Y-31203000D01*
X42297000Y-31197000D01*
X42297000Y-31020250D01*
X42297000Y-30379750D01*
X42297000Y-30203000D01*
X42297000Y-30197000D01*
X42297000Y-30020250D01*
X42297000Y-29379750D01*
X42297000Y-29203000D01*
X42297000Y-29197000D01*
X42297000Y-29020250D01*
X42297000Y-28379750D01*
X42297000Y-28203000D01*
X42297000Y-28197000D01*
X42297000Y-28020250D01*
X42297000Y-27379750D01*
X42297000Y-27203000D01*
X42297000Y-27197000D01*
X42297000Y-27020250D01*
X42297000Y-26379750D01*
X42297000Y-26203000D01*
X42297000Y-26197000D01*
X42297000Y-26020250D01*
X42297000Y-25379750D01*
X42297000Y-25203000D01*
X42297000Y-25197000D01*
X42297000Y-25020250D01*
X42297000Y-24379750D01*
X42297000Y-24203000D01*
X42297000Y-24197000D01*
X42297000Y-24020250D01*
X42297000Y-23379750D01*
X42297000Y-23203000D01*
X42297000Y-23197000D01*
X42297000Y-23020250D01*
X42297000Y-22379750D01*
X42297000Y-22203000D01*
X40329750Y-22203000D01*
X40173000Y-22359750D01*
X40173000Y-22674718D01*
X40183472Y-22700000D01*
X40173000Y-22725282D01*
X40173000Y-23040250D01*
X40329750Y-23197000D01*
X42297000Y-23197000D01*
X42297000Y-23203000D01*
X40329750Y-23203000D01*
X40173000Y-23359750D01*
X40173000Y-23674718D01*
X40183472Y-23700000D01*
X40173000Y-23725282D01*
X40173000Y-24040250D01*
X40329750Y-24197000D01*
X42297000Y-24197000D01*
X42297000Y-24203000D01*
X40329750Y-24203000D01*
X40173000Y-24359750D01*
X40173000Y-24674718D01*
X40183472Y-24700000D01*
X40173000Y-24725282D01*
X40173000Y-25040250D01*
X40329750Y-25197000D01*
X42297000Y-25197000D01*
X42297000Y-25203000D01*
X40329750Y-25203000D01*
X40173000Y-25359750D01*
X40173000Y-25674718D01*
X40183472Y-25700000D01*
X40173000Y-25725282D01*
X40173000Y-26040250D01*
X40329750Y-26197000D01*
X42297000Y-26197000D01*
X42297000Y-26203000D01*
X40329750Y-26203000D01*
X40173000Y-26359750D01*
X40173000Y-26674718D01*
X40183472Y-26700000D01*
X40173000Y-26725282D01*
X40173000Y-27040250D01*
X40329750Y-27197000D01*
X42297000Y-27197000D01*
X42297000Y-27203000D01*
X40329750Y-27203000D01*
X40173000Y-27359750D01*
X40173000Y-27674718D01*
X40183472Y-27700000D01*
X40173000Y-27725282D01*
X40173000Y-28040250D01*
X40329750Y-28197000D01*
X42297000Y-28197000D01*
X42297000Y-28203000D01*
X40329750Y-28203000D01*
X40173000Y-28359750D01*
X40173000Y-28674718D01*
X40183472Y-28700000D01*
X40173000Y-28725282D01*
X40173000Y-29040250D01*
X40329750Y-29197000D01*
X42297000Y-29197000D01*
X42297000Y-29203000D01*
X40329750Y-29203000D01*
X40173000Y-29359750D01*
X40173000Y-29674718D01*
X40183472Y-29700000D01*
X40173000Y-29725282D01*
X40173000Y-30040250D01*
X40329750Y-30197000D01*
X42297000Y-30197000D01*
X42297000Y-30203000D01*
X40329750Y-30203000D01*
X40173000Y-30359750D01*
X40173000Y-30674718D01*
X40183472Y-30700000D01*
X40173000Y-30725282D01*
X40173000Y-31040250D01*
X40329750Y-31197000D01*
X42297000Y-31197000D01*
X42297000Y-31203000D01*
X40329750Y-31203000D01*
X40173000Y-31359750D01*
X40173000Y-31674718D01*
X40268455Y-31905167D01*
X40444833Y-32081545D01*
X40675282Y-32177000D01*
X40924718Y-32177000D01*
X42140250Y-32177000D01*
X42297000Y-32020250D01*
X42297000Y-37276000D01*
X42173782Y-37276000D01*
X41759750Y-37276000D01*
X41603000Y-37432750D01*
X41603000Y-38344500D01*
X42768750Y-38344500D01*
X42925500Y-38187750D01*
X42925500Y-38507250D01*
X42768750Y-38350500D01*
X41603000Y-38350500D01*
X41603000Y-38370500D01*
X41597000Y-38370500D01*
X41597000Y-38350500D01*
X41597000Y-38344500D01*
X41597000Y-37432750D01*
X41440250Y-37276000D01*
X41026218Y-37276000D01*
X40776782Y-37276000D01*
X40650000Y-37328514D01*
X40523218Y-37276000D01*
X40273782Y-37276000D01*
X39859750Y-37276000D01*
X39703000Y-37432750D01*
X39703000Y-38344500D01*
X40431250Y-38344500D01*
X40868750Y-38344500D01*
X41597000Y-38344500D01*
X41597000Y-38350500D01*
X40868750Y-38350500D01*
X40431250Y-38350500D01*
X39703000Y-38350500D01*
X39703000Y-38370500D01*
X39697000Y-38370500D01*
X39697000Y-38350500D01*
X39697000Y-38344500D01*
X39697000Y-37432750D01*
X39540250Y-37276000D01*
X39126218Y-37276000D01*
X38876782Y-37276000D01*
X38646333Y-37371455D01*
X38469955Y-37547833D01*
X38374500Y-37778282D01*
X38374500Y-38187750D01*
X38531250Y-38344500D01*
X39697000Y-38344500D01*
X39697000Y-38350500D01*
X38531250Y-38350500D01*
X38374500Y-38507250D01*
X38374500Y-38916718D01*
X38469955Y-39147167D01*
X38646333Y-39323545D01*
X38663035Y-39330463D01*
X38512343Y-39481155D01*
X38424500Y-39693227D01*
X38424500Y-39922772D01*
X38424500Y-40811772D01*
X38512343Y-41023844D01*
X38674655Y-41186157D01*
X38718490Y-41204314D01*
X38375197Y-41547010D01*
X38275721Y-41786574D01*
X38275721Y-35947400D01*
X38081947Y-35478431D01*
X37723456Y-35119314D01*
X37254826Y-34924721D01*
X36747400Y-34924279D01*
X36278431Y-35118053D01*
X35919314Y-35476544D01*
X35724721Y-35945174D01*
X35724279Y-36452600D01*
X35918053Y-36921569D01*
X36276544Y-37280686D01*
X36745174Y-37475279D01*
X37252600Y-37475721D01*
X37721569Y-37281947D01*
X38080686Y-36923456D01*
X38275279Y-36454826D01*
X38275721Y-35947400D01*
X38275721Y-41786574D01*
X38172661Y-42034771D01*
X38172200Y-42562912D01*
X38373884Y-43051026D01*
X38747010Y-43424803D01*
X39234771Y-43627339D01*
X39762912Y-43627800D01*
X40251026Y-43426116D01*
X40624803Y-43052990D01*
X40827339Y-42565229D01*
X40827800Y-42037088D01*
X40626116Y-41548974D01*
X40351620Y-41274000D01*
X40513272Y-41274000D01*
X40649999Y-41217365D01*
X40786727Y-41274000D01*
X41016272Y-41274000D01*
X42413272Y-41274000D01*
X42625344Y-41186157D01*
X42787657Y-41023845D01*
X42875500Y-40811773D01*
X42875500Y-40582228D01*
X42875500Y-39693228D01*
X42787657Y-39481156D01*
X42636965Y-39330463D01*
X42653667Y-39323545D01*
X42830045Y-39147167D01*
X42925500Y-38916718D01*
X42925500Y-43767634D01*
X42821064Y-43871888D01*
X42248653Y-45250407D01*
X42247350Y-46743045D01*
X42817355Y-48122561D01*
X43871888Y-49178936D01*
X44194750Y-49313000D01*
X42084549Y-49313000D01*
X42167000Y-48903000D01*
X42167000Y-47803000D01*
X42167000Y-47797000D01*
X42167000Y-46697000D01*
X42057228Y-46151139D01*
X41746920Y-45688837D01*
X41283317Y-45380476D01*
X40966195Y-45291041D01*
X40743000Y-45429754D01*
X40743000Y-47797000D01*
X42167000Y-47797000D01*
X42167000Y-47803000D01*
X40743000Y-47803000D01*
X40743000Y-47823000D01*
X40737000Y-47823000D01*
X40737000Y-47803000D01*
X40737000Y-47797000D01*
X40737000Y-45429754D01*
X40513805Y-45291041D01*
X40196683Y-45380476D01*
X39733080Y-45688837D01*
X39470000Y-46080777D01*
X39206920Y-45688837D01*
X38743317Y-45380476D01*
X38426195Y-45291041D01*
X38203000Y-45429754D01*
X38203000Y-47797000D01*
X39313000Y-47797000D01*
X39627000Y-47797000D01*
X40737000Y-47797000D01*
X40737000Y-47803000D01*
X39627000Y-47803000D01*
X39313000Y-47803000D01*
X38203000Y-47803000D01*
X38203000Y-47823000D01*
X38197000Y-47823000D01*
X38197000Y-47803000D01*
X38197000Y-47797000D01*
X38197000Y-45429754D01*
X37973805Y-45291041D01*
X37656683Y-45380476D01*
X37193080Y-45688837D01*
X37027800Y-45935073D01*
X37027800Y-42037088D01*
X36826116Y-41548974D01*
X36452990Y-41175197D01*
X35965229Y-40972661D01*
X35437088Y-40972200D01*
X34948974Y-41173884D01*
X34775721Y-41346835D01*
X34775721Y-34347400D01*
X34581947Y-33878431D01*
X34223456Y-33519314D01*
X33754826Y-33324721D01*
X33247400Y-33324279D01*
X32778431Y-33518053D01*
X32419314Y-33876544D01*
X32224721Y-34345174D01*
X32224279Y-34852600D01*
X32418053Y-35321569D01*
X32776544Y-35680686D01*
X33245174Y-35875279D01*
X33752600Y-35875721D01*
X34221569Y-35681947D01*
X34580686Y-35323456D01*
X34775279Y-34854826D01*
X34775721Y-34347400D01*
X34775721Y-41346835D01*
X34575197Y-41547010D01*
X34372661Y-42034771D01*
X34372200Y-42562912D01*
X34573884Y-43051026D01*
X34947010Y-43424803D01*
X35434771Y-43627339D01*
X35962912Y-43627800D01*
X36451026Y-43426116D01*
X36824803Y-43052990D01*
X37027339Y-42565229D01*
X37027800Y-42037088D01*
X37027800Y-45935073D01*
X36930000Y-46080777D01*
X36666920Y-45688837D01*
X36203317Y-45380476D01*
X35886195Y-45291041D01*
X35663000Y-45429754D01*
X35663000Y-47797000D01*
X36773000Y-47797000D01*
X37087000Y-47797000D01*
X38197000Y-47797000D01*
X38197000Y-47803000D01*
X37087000Y-47803000D01*
X36773000Y-47803000D01*
X35663000Y-47803000D01*
X35663000Y-47823000D01*
X35657000Y-47823000D01*
X35657000Y-47803000D01*
X35657000Y-47797000D01*
X35657000Y-45429754D01*
X35433805Y-45291041D01*
X35116683Y-45380476D01*
X34653080Y-45688837D01*
X34390000Y-46080777D01*
X34126920Y-45688837D01*
X33663317Y-45380476D01*
X33346195Y-45291041D01*
X33123000Y-45429754D01*
X33123000Y-47797000D01*
X34233000Y-47797000D01*
X34547000Y-47797000D01*
X35657000Y-47797000D01*
X35657000Y-47803000D01*
X34547000Y-47803000D01*
X34233000Y-47803000D01*
X33123000Y-47803000D01*
X33123000Y-47823000D01*
X33117000Y-47823000D01*
X33117000Y-47803000D01*
X33117000Y-47797000D01*
X33117000Y-45429754D01*
X32893805Y-45291041D01*
X32576683Y-45380476D01*
X32113080Y-45688837D01*
X31850000Y-46080777D01*
X31586920Y-45688837D01*
X31123317Y-45380476D01*
X30806195Y-45291041D01*
X30583000Y-45429754D01*
X30583000Y-47797000D01*
X31693000Y-47797000D01*
X32007000Y-47797000D01*
X33117000Y-47797000D01*
X33117000Y-47803000D01*
X32007000Y-47803000D01*
X31693000Y-47803000D01*
X30583000Y-47803000D01*
X30583000Y-47823000D01*
X30577000Y-47823000D01*
X30577000Y-47803000D01*
X29467000Y-47803000D01*
X29153000Y-47803000D01*
X28627000Y-47803000D01*
X28627000Y-47797000D01*
X29153000Y-47797000D01*
X29467000Y-47797000D01*
X30577000Y-47797000D01*
X30577000Y-45429754D01*
X30353805Y-45291041D01*
X30036683Y-45380476D01*
X29573080Y-45688837D01*
X29310000Y-46080777D01*
X29046920Y-45688837D01*
X28627000Y-45409531D01*
X28627000Y-40827000D01*
X28903892Y-40827000D01*
X30572258Y-42495366D01*
X30572200Y-42562912D01*
X30773884Y-43051026D01*
X31147010Y-43424803D01*
X31634771Y-43627339D01*
X32162912Y-43627800D01*
X32651026Y-43426116D01*
X33024803Y-43052990D01*
X33227339Y-42565229D01*
X33227800Y-42037088D01*
X33026116Y-41548974D01*
X32652990Y-41175197D01*
X32165229Y-40972661D01*
X32095708Y-40972600D01*
X31275721Y-40152613D01*
X31275721Y-34347400D01*
X31081947Y-33878431D01*
X30723456Y-33519314D01*
X30254826Y-33324721D01*
X29747400Y-33324279D01*
X29278431Y-33518053D01*
X29224000Y-33572389D01*
X29224000Y-23573218D01*
X29224000Y-23323782D01*
X29224000Y-22909750D01*
X29224000Y-22590250D01*
X29224000Y-22176218D01*
X29224000Y-21926782D01*
X29161129Y-21775000D01*
X29224000Y-21623218D01*
X29224000Y-21373782D01*
X29224000Y-20959750D01*
X29224000Y-20640250D01*
X29224000Y-20226218D01*
X29224000Y-19976782D01*
X29128545Y-19746333D01*
X28952167Y-19569955D01*
X28721718Y-19474500D01*
X28312250Y-19474500D01*
X28155500Y-19631250D01*
X28155500Y-20797000D01*
X29067250Y-20797000D01*
X29224000Y-20640250D01*
X29224000Y-20959750D01*
X29067250Y-20803000D01*
X28155500Y-20803000D01*
X28155500Y-21581250D01*
X28155500Y-21968750D01*
X28155500Y-22747000D01*
X29067250Y-22747000D01*
X29224000Y-22590250D01*
X29224000Y-22909750D01*
X29067250Y-22753000D01*
X28155500Y-22753000D01*
X28155500Y-22773000D01*
X28149500Y-22773000D01*
X28149500Y-22753000D01*
X28129500Y-22753000D01*
X28129500Y-22747000D01*
X28149500Y-22747000D01*
X28149500Y-21968750D01*
X28149500Y-21581250D01*
X28149500Y-20803000D01*
X28129500Y-20803000D01*
X28129500Y-20797000D01*
X28149500Y-20797000D01*
X28149500Y-19631250D01*
X27992750Y-19474500D01*
X27583282Y-19474500D01*
X27352833Y-19569955D01*
X27176455Y-19746333D01*
X27169536Y-19763035D01*
X27018845Y-19612343D01*
X26806773Y-19524500D01*
X26577228Y-19524500D01*
X25688228Y-19524500D01*
X25476156Y-19612343D01*
X25360120Y-19728377D01*
X25297703Y-19728323D01*
X25274000Y-19738116D01*
X25274000Y-19386728D01*
X25186157Y-19174656D01*
X25023845Y-19012343D01*
X24811773Y-18924500D01*
X24582228Y-18924500D01*
X24571677Y-18924500D01*
X24571677Y-13897703D01*
X24416490Y-13522123D01*
X24129389Y-13234520D01*
X23754080Y-13078678D01*
X23347703Y-13078323D01*
X22972123Y-13233510D01*
X22684520Y-13520611D01*
X22528678Y-13895920D01*
X22528323Y-14302297D01*
X22683510Y-14677877D01*
X22970611Y-14965480D01*
X23345920Y-15121322D01*
X23752297Y-15121677D01*
X24127877Y-14966490D01*
X24415480Y-14679389D01*
X24571322Y-14304080D01*
X24571677Y-13897703D01*
X24571677Y-18924500D01*
X23693228Y-18924500D01*
X23481156Y-19012343D01*
X23330463Y-19163034D01*
X23323545Y-19146333D01*
X23147167Y-18969955D01*
X22916718Y-18874500D01*
X22507250Y-18874500D01*
X22350500Y-19031250D01*
X22350500Y-20197000D01*
X22370500Y-20197000D01*
X22370500Y-20203000D01*
X22350500Y-20203000D01*
X22350500Y-21231250D01*
X22350500Y-21368750D01*
X22350500Y-22397000D01*
X22370500Y-22397000D01*
X22370500Y-22403000D01*
X22350500Y-22403000D01*
X22350500Y-23431250D01*
X22350500Y-23568750D01*
X22350500Y-24597000D01*
X22370500Y-24597000D01*
X22370500Y-24603000D01*
X22350500Y-24603000D01*
X22350500Y-25768750D01*
X22507250Y-25925500D01*
X22916718Y-25925500D01*
X23147167Y-25830045D01*
X23323545Y-25653667D01*
X23330463Y-25636964D01*
X23481155Y-25787657D01*
X23693227Y-25875500D01*
X23922772Y-25875500D01*
X24730700Y-25875500D01*
X24770611Y-25915480D01*
X25011985Y-26015707D01*
X24978678Y-26095920D01*
X24978323Y-26502297D01*
X25074143Y-26734199D01*
X24929101Y-26879242D01*
X24841258Y-27091313D01*
X24841257Y-27320858D01*
X24929101Y-27532930D01*
X25091413Y-27695243D01*
X25720031Y-28323861D01*
X25932103Y-28411704D01*
X26145213Y-28411704D01*
X26138296Y-28428406D01*
X26138296Y-28677842D01*
X26233751Y-28908291D01*
X26523289Y-29197829D01*
X26744967Y-29197829D01*
X27569276Y-28373519D01*
X27555134Y-28359376D01*
X27559376Y-28355134D01*
X27573519Y-28369276D01*
X28397829Y-27544967D01*
X28397829Y-27323289D01*
X28108291Y-27033751D01*
X27877842Y-26938296D01*
X27628406Y-26938296D01*
X27611704Y-26945214D01*
X27611705Y-26732104D01*
X27523861Y-26520032D01*
X27361549Y-26357719D01*
X26965447Y-25961617D01*
X26897261Y-25796596D01*
X26918844Y-25787657D01*
X27069536Y-25636965D01*
X27076455Y-25653667D01*
X27252833Y-25830045D01*
X27483282Y-25925500D01*
X27892750Y-25925500D01*
X28049500Y-25768750D01*
X28049500Y-24603000D01*
X28029500Y-24603000D01*
X28029500Y-24597000D01*
X28049500Y-24597000D01*
X28049500Y-24577000D01*
X28055500Y-24577000D01*
X28055500Y-24597000D01*
X28967250Y-24597000D01*
X29124000Y-24440250D01*
X29124000Y-24026218D01*
X29124000Y-23808212D01*
X29128545Y-23803667D01*
X29224000Y-23573218D01*
X29224000Y-33572389D01*
X29124000Y-33672214D01*
X29124000Y-25423218D01*
X29124000Y-25173782D01*
X29124000Y-24759750D01*
X28967250Y-24603000D01*
X28055500Y-24603000D01*
X28055500Y-25768750D01*
X28212250Y-25925500D01*
X28621718Y-25925500D01*
X28852167Y-25830045D01*
X29028545Y-25653667D01*
X29124000Y-25423218D01*
X29124000Y-33672214D01*
X29008742Y-33787271D01*
X29008742Y-28318632D01*
X29008742Y-28069196D01*
X28913287Y-27838747D01*
X28623749Y-27549209D01*
X28402071Y-27549209D01*
X27577762Y-28373519D01*
X28222466Y-29018224D01*
X28444144Y-29018224D01*
X28736909Y-28725459D01*
X28913287Y-28549081D01*
X29008742Y-28318632D01*
X29008742Y-33787271D01*
X28919314Y-33876544D01*
X28724721Y-34345174D01*
X28724279Y-34852600D01*
X28918053Y-35321569D01*
X29276544Y-35680686D01*
X29745174Y-35875279D01*
X30252600Y-35875721D01*
X30721569Y-35681947D01*
X31080686Y-35323456D01*
X31275279Y-34854826D01*
X31275721Y-34347400D01*
X31275721Y-40152613D01*
X30111554Y-38988446D01*
X29762150Y-38754982D01*
X29350000Y-38673000D01*
X28627000Y-38673000D01*
X28627000Y-35051136D01*
X28218224Y-34598562D01*
X28218224Y-29244144D01*
X28218224Y-29022466D01*
X27573519Y-28377762D01*
X26749209Y-29202071D01*
X26749209Y-29423749D01*
X27038747Y-29713287D01*
X27269196Y-29808742D01*
X27518632Y-29808742D01*
X27749081Y-29713287D01*
X27925459Y-29536909D01*
X28218224Y-29244144D01*
X28218224Y-34598562D01*
X27108742Y-33370207D01*
X27108742Y-30218632D01*
X27108742Y-29969196D01*
X27013287Y-29738747D01*
X26723749Y-29449209D01*
X26502071Y-29449209D01*
X25677762Y-30273519D01*
X26322466Y-30918224D01*
X26544144Y-30918224D01*
X26836909Y-30625459D01*
X27013287Y-30449081D01*
X27108742Y-30218632D01*
X27108742Y-33370207D01*
X25608063Y-31708742D01*
X25618632Y-31708742D01*
X25849081Y-31613287D01*
X26025459Y-31436909D01*
X26318224Y-31144144D01*
X26318224Y-30922466D01*
X25673519Y-30277762D01*
X25659376Y-30291903D01*
X25655134Y-30287661D01*
X25669276Y-30273519D01*
X25655134Y-30259376D01*
X25659376Y-30255134D01*
X25673519Y-30269276D01*
X26497829Y-29444967D01*
X26497829Y-29223289D01*
X26208291Y-28933751D01*
X25977842Y-28838296D01*
X25728406Y-28838296D01*
X25711704Y-28845214D01*
X25711705Y-28632104D01*
X25623861Y-28420032D01*
X25461549Y-28257719D01*
X24832931Y-27629101D01*
X24620859Y-27541258D01*
X24391314Y-27541257D01*
X24179242Y-27629101D01*
X24034136Y-27774205D01*
X23804080Y-27678678D01*
X23397703Y-27678323D01*
X23022123Y-27833510D01*
X22734520Y-28120611D01*
X22578678Y-28495920D01*
X22578323Y-28902297D01*
X22733510Y-29277877D01*
X22773000Y-29317436D01*
X22773000Y-29848522D01*
X27225287Y-34824608D01*
X26847400Y-34824279D01*
X26378431Y-35018053D01*
X26019314Y-35376544D01*
X25824721Y-35845174D01*
X25824279Y-36352600D01*
X26018053Y-36821569D01*
X26376544Y-37180686D01*
X26845174Y-37375279D01*
X27352600Y-37375721D01*
X27821569Y-37181947D01*
X27873000Y-37130605D01*
X27873000Y-38673000D01*
X23650000Y-38673000D01*
X22344500Y-38673000D01*
X22344500Y-25768750D01*
X22344500Y-24603000D01*
X22344500Y-24597000D01*
X22344500Y-23568750D01*
X22344500Y-23431250D01*
X22344500Y-22403000D01*
X21432750Y-22403000D01*
X21276000Y-22559750D01*
X21276000Y-22973782D01*
X21276000Y-23223218D01*
X21371455Y-23453667D01*
X21417788Y-23500000D01*
X21371455Y-23546333D01*
X21276000Y-23776782D01*
X21276000Y-24026218D01*
X21276000Y-24440250D01*
X21432750Y-24597000D01*
X22344500Y-24597000D01*
X22344500Y-24603000D01*
X21432750Y-24603000D01*
X21276000Y-24759750D01*
X21276000Y-25173782D01*
X21276000Y-25423218D01*
X21371455Y-25653667D01*
X21547833Y-25830045D01*
X21778282Y-25925500D01*
X22187750Y-25925500D01*
X22344500Y-25768750D01*
X22344500Y-38673000D01*
X22250000Y-38673000D01*
X21837850Y-38754982D01*
X21488446Y-38988446D01*
X20297000Y-40179892D01*
X20297000Y-20667250D01*
X20297000Y-19755500D01*
X19168750Y-19755500D01*
X19131250Y-19755500D01*
X18003000Y-19755500D01*
X18003000Y-20667250D01*
X18159750Y-20824000D01*
X18573782Y-20824000D01*
X18823218Y-20824000D01*
X19053667Y-20728545D01*
X19150000Y-20632212D01*
X19246333Y-20728545D01*
X19476782Y-20824000D01*
X19726218Y-20824000D01*
X20140250Y-20824000D01*
X20297000Y-20667250D01*
X20297000Y-40179892D01*
X19203892Y-41273000D01*
X16850579Y-41273000D01*
X16986743Y-40945082D01*
X16987256Y-40357495D01*
X16762870Y-39814440D01*
X16347746Y-39398591D01*
X16311416Y-39383505D01*
X16385560Y-39352870D01*
X16801409Y-38937746D01*
X16819766Y-38893536D01*
X16837130Y-38935560D01*
X17252254Y-39351409D01*
X17794918Y-39576743D01*
X18382505Y-39577256D01*
X18925560Y-39352870D01*
X19341409Y-38937746D01*
X19566743Y-38395082D01*
X19567256Y-37807495D01*
X19342870Y-37264440D01*
X19325500Y-37247039D01*
X19325500Y-25416718D01*
X19325500Y-25007250D01*
X19325500Y-24687750D01*
X19325500Y-24278282D01*
X19230045Y-24047833D01*
X19053667Y-23871455D01*
X18823218Y-23776000D01*
X18573782Y-23776000D01*
X18159750Y-23776000D01*
X18003000Y-23932750D01*
X18003000Y-24844500D01*
X19168750Y-24844500D01*
X19325500Y-24687750D01*
X19325500Y-25007250D01*
X19168750Y-24850500D01*
X18003000Y-24850500D01*
X18003000Y-24870500D01*
X17997000Y-24870500D01*
X17997000Y-24850500D01*
X17997000Y-24844500D01*
X17997000Y-23932750D01*
X17997000Y-20667250D01*
X17997000Y-19755500D01*
X16968750Y-19755500D01*
X16831250Y-19755500D01*
X15803000Y-19755500D01*
X15803000Y-20667250D01*
X15959750Y-20824000D01*
X16373782Y-20824000D01*
X16623218Y-20824000D01*
X16853667Y-20728545D01*
X16900000Y-20682212D01*
X16946333Y-20728545D01*
X17176782Y-20824000D01*
X17426218Y-20824000D01*
X17840250Y-20824000D01*
X17997000Y-20667250D01*
X17997000Y-23932750D01*
X17840250Y-23776000D01*
X17426218Y-23776000D01*
X17176782Y-23776000D01*
X16946333Y-23871455D01*
X16900000Y-23917788D01*
X16853667Y-23871455D01*
X16623218Y-23776000D01*
X16373782Y-23776000D01*
X15959750Y-23776000D01*
X15803000Y-23932750D01*
X15803000Y-24844500D01*
X16831250Y-24844500D01*
X16968750Y-24844500D01*
X17997000Y-24844500D01*
X17997000Y-24850500D01*
X16968750Y-24850500D01*
X16831250Y-24850500D01*
X15803000Y-24850500D01*
X15803000Y-24870500D01*
X15797000Y-24870500D01*
X15797000Y-24850500D01*
X15797000Y-24844500D01*
X15797000Y-23932750D01*
X15797000Y-20667250D01*
X15797000Y-19755500D01*
X14631250Y-19755500D01*
X14474500Y-19912250D01*
X14474500Y-20321718D01*
X14569955Y-20552167D01*
X14746333Y-20728545D01*
X14976782Y-20824000D01*
X15226218Y-20824000D01*
X15640250Y-20824000D01*
X15797000Y-20667250D01*
X15797000Y-23932750D01*
X15640250Y-23776000D01*
X15226218Y-23776000D01*
X14976782Y-23776000D01*
X14746333Y-23871455D01*
X14569955Y-24047833D01*
X14474500Y-24278282D01*
X14474500Y-24687750D01*
X14631250Y-24844500D01*
X15797000Y-24844500D01*
X15797000Y-24850500D01*
X14631250Y-24850500D01*
X14474500Y-25007250D01*
X14474500Y-25416718D01*
X14569955Y-25647167D01*
X14746333Y-25823545D01*
X14763035Y-25830463D01*
X14615159Y-25978338D01*
X14597703Y-25978323D01*
X14249607Y-26122153D01*
X13904080Y-25978678D01*
X13885162Y-25978661D01*
X13736965Y-25830463D01*
X13753667Y-25823545D01*
X13930045Y-25647167D01*
X14025500Y-25416718D01*
X14025500Y-25007250D01*
X14025500Y-24687750D01*
X14025500Y-24278282D01*
X13930045Y-24047833D01*
X13753667Y-23871455D01*
X13523218Y-23776000D01*
X13273782Y-23776000D01*
X12859750Y-23776000D01*
X12703000Y-23932750D01*
X12703000Y-24844500D01*
X13868750Y-24844500D01*
X14025500Y-24687750D01*
X14025500Y-25007250D01*
X13868750Y-24850500D01*
X12703000Y-24850500D01*
X12703000Y-24870500D01*
X12697000Y-24870500D01*
X12697000Y-24850500D01*
X12697000Y-24844500D01*
X12697000Y-23932750D01*
X12540250Y-23776000D01*
X12126218Y-23776000D01*
X11876782Y-23776000D01*
X11646333Y-23871455D01*
X11469955Y-24047833D01*
X11374500Y-24278282D01*
X11374500Y-24687750D01*
X11531250Y-24844500D01*
X12697000Y-24844500D01*
X12697000Y-24850500D01*
X11531250Y-24850500D01*
X11374500Y-25007250D01*
X11374500Y-25416718D01*
X11469955Y-25647167D01*
X11646333Y-25823545D01*
X11663035Y-25830463D01*
X11512343Y-25981155D01*
X11424500Y-26193227D01*
X11424500Y-26298000D01*
X9100000Y-26298000D01*
X9054501Y-26298000D01*
X9025345Y-26268843D01*
X8979853Y-26249999D01*
X9025344Y-26231157D01*
X9187657Y-26068845D01*
X9275500Y-25856773D01*
X9275500Y-25627228D01*
X9275500Y-24738228D01*
X9187657Y-24526156D01*
X9025345Y-24363843D01*
X8813273Y-24276000D01*
X8583728Y-24276000D01*
X7186728Y-24276000D01*
X7180523Y-24278570D01*
X6897703Y-24278323D01*
X6522123Y-24433510D01*
X6234520Y-24720611D01*
X6078678Y-25095920D01*
X6078404Y-25409540D01*
X6074000Y-25407711D01*
X6074000Y-24386728D01*
X5986157Y-24174656D01*
X5823845Y-24012343D01*
X5611773Y-23924500D01*
X5382228Y-23924500D01*
X4493228Y-23924500D01*
X4281156Y-24012343D01*
X4130463Y-24163034D01*
X4123545Y-24146333D01*
X3947167Y-23969955D01*
X3716718Y-23874500D01*
X3307250Y-23874500D01*
X3150500Y-24031250D01*
X3150500Y-25197000D01*
X3170500Y-25197000D01*
X3170500Y-25203000D01*
X3150500Y-25203000D01*
X3150500Y-25223000D01*
X3144500Y-25223000D01*
X3144500Y-25203000D01*
X3144500Y-25197000D01*
X3144500Y-24031250D01*
X2987750Y-23874500D01*
X2578282Y-23874500D01*
X2347833Y-23969955D01*
X2171455Y-24146333D01*
X2076000Y-24376782D01*
X2076000Y-24626218D01*
X2076000Y-25040250D01*
X2232750Y-25197000D01*
X3144500Y-25197000D01*
X3144500Y-25203000D01*
X2232750Y-25203000D01*
X2076000Y-25359750D01*
X2076000Y-25773782D01*
X2076000Y-25848000D01*
X2050000Y-25848000D01*
X1895809Y-25878670D01*
X1895808Y-25878670D01*
X1497703Y-25878323D01*
X1122123Y-26033510D01*
X834520Y-26320611D01*
X678678Y-26695920D01*
X678323Y-27102297D01*
X833510Y-27477877D01*
X1120611Y-27765480D01*
X1495920Y-27921322D01*
X1902297Y-27921677D01*
X2277877Y-27766490D01*
X2519980Y-27524809D01*
X2519980Y-28045152D01*
X2607823Y-28257224D01*
X2745500Y-28394901D01*
X2745500Y-28547500D01*
X2798937Y-28816144D01*
X2878687Y-28935499D01*
X2770136Y-28980463D01*
X2607823Y-29142775D01*
X2591402Y-29182416D01*
X2566490Y-29122123D01*
X2279389Y-28834520D01*
X1904080Y-28678678D01*
X1497703Y-28678323D01*
X1122123Y-28833510D01*
X834520Y-29120611D01*
X678678Y-29495920D01*
X678323Y-29902297D01*
X833510Y-30277877D01*
X1120611Y-30565480D01*
X1495920Y-30721322D01*
X1902297Y-30721677D01*
X2022524Y-30672000D01*
X2555953Y-30672000D01*
X2607823Y-30797224D01*
X2770135Y-30959537D01*
X2982207Y-31047380D01*
X3211752Y-31047380D01*
X3804051Y-31047380D01*
X3924762Y-31097380D01*
X4240250Y-31097380D01*
X4378448Y-30959181D01*
X4378323Y-31102297D01*
X4533510Y-31477877D01*
X4820611Y-31765480D01*
X5195920Y-31921322D01*
X5602297Y-31921677D01*
X5977877Y-31766490D01*
X6265480Y-31479389D01*
X6421322Y-31104080D01*
X6421677Y-30697703D01*
X6280020Y-30354867D01*
X6280020Y-29386082D01*
X6468643Y-29348563D01*
X6468644Y-29348563D01*
X6509264Y-29321421D01*
X6802297Y-29321677D01*
X7177877Y-29166490D01*
X7248000Y-29096489D01*
X7248000Y-32450000D01*
X7248000Y-32459222D01*
X5228697Y-34478524D01*
X4997703Y-34478323D01*
X4622123Y-34633510D01*
X4334520Y-34920611D01*
X4178678Y-35295920D01*
X4178323Y-35702297D01*
X4333510Y-36077877D01*
X4620611Y-36365480D01*
X4995920Y-36521322D01*
X5402297Y-36521677D01*
X5777877Y-36366490D01*
X6065480Y-36079389D01*
X6221322Y-35704080D01*
X6221525Y-35471252D01*
X8188149Y-33504628D01*
X8218644Y-33498563D01*
X8446389Y-33346389D01*
X8598563Y-33118644D01*
X8652000Y-32850000D01*
X8652000Y-32750000D01*
X8652000Y-32450000D01*
X8652000Y-29903084D01*
X8695920Y-29921322D01*
X9102297Y-29921677D01*
X9477877Y-29766490D01*
X9642654Y-29602000D01*
X12226000Y-29602000D01*
X12226000Y-29713272D01*
X12313843Y-29925344D01*
X12476155Y-30087657D01*
X12688227Y-30175500D01*
X12917772Y-30175500D01*
X13806772Y-30175500D01*
X14018844Y-30087657D01*
X14124500Y-29982001D01*
X14124500Y-30606772D01*
X14212343Y-30818844D01*
X14374655Y-30981157D01*
X14420146Y-31000000D01*
X14374656Y-31018843D01*
X14212343Y-31181155D01*
X14124500Y-31393227D01*
X14124500Y-31622772D01*
X14124500Y-32511772D01*
X14212343Y-32723844D01*
X14374655Y-32886157D01*
X14586727Y-32974000D01*
X14698000Y-32974000D01*
X14698000Y-34757329D01*
X14584520Y-34870611D01*
X14428678Y-35245920D01*
X14428323Y-35652297D01*
X14583510Y-36027877D01*
X14870611Y-36315480D01*
X15245920Y-36471322D01*
X15652297Y-36471677D01*
X16027877Y-36316490D01*
X16315480Y-36029389D01*
X16471322Y-35654080D01*
X16471677Y-35247703D01*
X16316490Y-34872123D01*
X16102000Y-34657257D01*
X16102000Y-32974000D01*
X16213272Y-32974000D01*
X16425344Y-32886157D01*
X16587657Y-32723845D01*
X16675500Y-32511773D01*
X16675500Y-32282228D01*
X16675500Y-31393228D01*
X16587657Y-31181156D01*
X16425345Y-31018843D01*
X16379853Y-30999999D01*
X16425344Y-30981157D01*
X16587657Y-30818845D01*
X16675500Y-30606773D01*
X16675500Y-30377228D01*
X16675500Y-30105610D01*
X16718844Y-30087657D01*
X16869536Y-29936965D01*
X16876455Y-29953667D01*
X17052833Y-30130045D01*
X17283282Y-30225500D01*
X17692750Y-30225500D01*
X17849500Y-30068750D01*
X17849500Y-28903000D01*
X17829500Y-28903000D01*
X17829500Y-28897000D01*
X17849500Y-28897000D01*
X17849500Y-28877000D01*
X17855500Y-28877000D01*
X17855500Y-28897000D01*
X18767250Y-28897000D01*
X18924000Y-28740250D01*
X18924000Y-28326218D01*
X18924000Y-28076782D01*
X18828545Y-27846333D01*
X18756212Y-27774000D01*
X18813272Y-27774000D01*
X19025344Y-27686157D01*
X19187657Y-27523845D01*
X19275500Y-27311773D01*
X19275500Y-27082228D01*
X19275500Y-26193228D01*
X19187657Y-25981156D01*
X19036965Y-25830463D01*
X19053667Y-25823545D01*
X19230045Y-25647167D01*
X19325500Y-25416718D01*
X19325500Y-37247039D01*
X18927746Y-36848591D01*
X18924000Y-36847035D01*
X18924000Y-29723218D01*
X18924000Y-29473782D01*
X18924000Y-29059750D01*
X18767250Y-28903000D01*
X17855500Y-28903000D01*
X17855500Y-30068750D01*
X18012250Y-30225500D01*
X18421718Y-30225500D01*
X18652167Y-30130045D01*
X18828545Y-29953667D01*
X18924000Y-29723218D01*
X18924000Y-36847035D01*
X18385082Y-36623257D01*
X17797495Y-36622744D01*
X17254440Y-36847130D01*
X16838591Y-37262254D01*
X16820233Y-37306463D01*
X16802870Y-37264440D01*
X16387746Y-36848591D01*
X15845082Y-36623257D01*
X15257495Y-36622744D01*
X14714440Y-36847130D01*
X14298591Y-37262254D01*
X14266467Y-37339615D01*
X14052655Y-37382146D01*
X13800578Y-37550578D01*
X12328156Y-39023000D01*
X10300000Y-39023000D01*
X9500000Y-39023000D01*
X8761288Y-39023000D01*
X8851765Y-38805109D01*
X8852234Y-38267250D01*
X8646838Y-37770154D01*
X8266846Y-37389499D01*
X7770109Y-37183235D01*
X7232250Y-37182766D01*
X6735154Y-37388162D01*
X6354499Y-37768154D01*
X6148235Y-38264891D01*
X6147766Y-38802750D01*
X6238771Y-39023000D01*
X5021844Y-39023000D01*
X4775347Y-38776503D01*
X4775721Y-38347400D01*
X4581947Y-37878431D01*
X4223456Y-37519314D01*
X3754826Y-37324721D01*
X3247400Y-37324279D01*
X2778431Y-37518053D01*
X2419314Y-37876544D01*
X2224721Y-38345174D01*
X2224279Y-38852600D01*
X2418053Y-39321569D01*
X2776544Y-39680686D01*
X3093982Y-39812498D01*
X2922123Y-39883510D01*
X2634520Y-40170611D01*
X2478678Y-40545920D01*
X2478323Y-40952297D01*
X2631494Y-41323000D01*
X2627135Y-41323000D01*
X2623456Y-41319314D01*
X2154826Y-41124721D01*
X1647400Y-41124279D01*
X1178431Y-41318053D01*
X819314Y-41676544D01*
X624721Y-42145174D01*
X624279Y-42652600D01*
X818053Y-43121569D01*
X1176544Y-43480686D01*
X1645174Y-43675279D01*
X2152600Y-43675721D01*
X2621569Y-43481947D01*
X2626524Y-43477000D01*
X4400000Y-43477000D01*
X4812150Y-43395018D01*
X5074105Y-43219985D01*
X4421064Y-43871888D01*
X3848653Y-45250407D01*
X3847350Y-46743045D01*
X4417355Y-48122561D01*
X5471888Y-49178936D01*
X5794750Y-49313000D01*
X3450000Y-49313000D01*
X3000000Y-49313000D01*
X587000Y-49313000D01*
X587000Y-2840813D01*
X619892Y-2920418D01*
X1077175Y-3378499D01*
X1674950Y-3626717D01*
X2322211Y-3627282D01*
X2920418Y-3380108D01*
X3378499Y-2922825D01*
X3626717Y-2325050D01*
X3627282Y-1677789D01*
X3380108Y-1079582D01*
X2922825Y-621501D01*
X2839737Y-587000D01*
X5792921Y-587000D01*
X5477439Y-717355D01*
X4421064Y-1771888D01*
X3848653Y-3150407D01*
X3847350Y-4643045D01*
X4417355Y-6022561D01*
X4679980Y-6285645D01*
X4322123Y-6433510D01*
X4034520Y-6720611D01*
X3878678Y-7095920D01*
X3878323Y-7502297D01*
X3928196Y-7623000D01*
X3377135Y-7623000D01*
X3373456Y-7619314D01*
X2904826Y-7424721D01*
X2397400Y-7424279D01*
X1928431Y-7618053D01*
X1569314Y-7976544D01*
X1374721Y-8445174D01*
X1374279Y-8952600D01*
X1568053Y-9421569D01*
X1926544Y-9780686D01*
X2395174Y-9975279D01*
X2902600Y-9975721D01*
X3371569Y-9781947D01*
X3376524Y-9777000D01*
X3424156Y-9777000D01*
X2976503Y-10224652D01*
X2547400Y-10224279D01*
X2078431Y-10418053D01*
X1719314Y-10776544D01*
X1524721Y-11245174D01*
X1524279Y-11752600D01*
X1718053Y-12221569D01*
X2076544Y-12580686D01*
X2545174Y-12775279D01*
X3052600Y-12775721D01*
X3521569Y-12581947D01*
X3880686Y-12223456D01*
X4075279Y-11754826D01*
X4075654Y-11323189D01*
X4821844Y-10577000D01*
X6375689Y-10577000D01*
X6354499Y-10598154D01*
X6148235Y-11094891D01*
X6147766Y-11632750D01*
X6353162Y-12129846D01*
X6733154Y-12510501D01*
X7229891Y-12716765D01*
X7767750Y-12717234D01*
X8264846Y-12511838D01*
X8645501Y-12131846D01*
X8851765Y-11635109D01*
X8852234Y-11097250D01*
X8646838Y-10600154D01*
X8623724Y-10577000D01*
X9778156Y-10577000D01*
X10224652Y-11023496D01*
X10224279Y-11452600D01*
X10418053Y-11921569D01*
X10776544Y-12280686D01*
X11245174Y-12475279D01*
X11252177Y-12475285D01*
X11638446Y-12861554D01*
X11987850Y-13095018D01*
X12400000Y-13177000D01*
X13857873Y-13177000D01*
X13774500Y-13378282D01*
X13774500Y-13787750D01*
X13931250Y-13944500D01*
X15097000Y-13944500D01*
X15097000Y-13924500D01*
X15103000Y-13924500D01*
X15103000Y-13944500D01*
X16031250Y-13944500D01*
X16268750Y-13944500D01*
X17197000Y-13944500D01*
X17197000Y-13924500D01*
X17203000Y-13924500D01*
X17203000Y-13944500D01*
X17473000Y-13944500D01*
X17473000Y-13950500D01*
X17203000Y-13950500D01*
X17203000Y-13970500D01*
X17197000Y-13970500D01*
X17197000Y-13950500D01*
X16268750Y-13950500D01*
X16031250Y-13950500D01*
X15103000Y-13950500D01*
X15103000Y-13970500D01*
X15097000Y-13970500D01*
X15097000Y-13950500D01*
X13931250Y-13950500D01*
X13774500Y-14107250D01*
X13774500Y-14516718D01*
X13869955Y-14747167D01*
X14046333Y-14923545D01*
X14063035Y-14930463D01*
X13912343Y-15081155D01*
X13824500Y-15293227D01*
X13824500Y-15522772D01*
X13824500Y-16411772D01*
X13912343Y-16623844D01*
X14074655Y-16786157D01*
X14286727Y-16874000D01*
X14516272Y-16874000D01*
X14587779Y-16874000D01*
X14578678Y-16895920D01*
X14578449Y-17157982D01*
X14524500Y-17288227D01*
X14524500Y-17517772D01*
X14524500Y-18406772D01*
X14612343Y-18618844D01*
X14763034Y-18769536D01*
X14746333Y-18776455D01*
X14569955Y-18952833D01*
X14474500Y-19183282D01*
X14474500Y-19592750D01*
X14631250Y-19749500D01*
X15797000Y-19749500D01*
X15797000Y-19729500D01*
X15803000Y-19729500D01*
X15803000Y-19749500D01*
X16831250Y-19749500D01*
X16968750Y-19749500D01*
X17997000Y-19749500D01*
X17997000Y-19729500D01*
X18003000Y-19729500D01*
X18003000Y-19749500D01*
X19131250Y-19749500D01*
X19168750Y-19749500D01*
X20297000Y-19749500D01*
X20297000Y-19729500D01*
X20303000Y-19729500D01*
X20303000Y-19749500D01*
X20323000Y-19749500D01*
X20323000Y-19755500D01*
X20303000Y-19755500D01*
X20303000Y-20667250D01*
X20459750Y-20824000D01*
X20873782Y-20824000D01*
X21123218Y-20824000D01*
X21276000Y-20760715D01*
X21276000Y-20773782D01*
X21276000Y-21023218D01*
X21371455Y-21253667D01*
X21417788Y-21300000D01*
X21371455Y-21346333D01*
X21276000Y-21576782D01*
X21276000Y-21826218D01*
X21276000Y-22240250D01*
X21432750Y-22397000D01*
X22344500Y-22397000D01*
X22344500Y-21368750D01*
X22344500Y-21231250D01*
X22344500Y-20203000D01*
X22324500Y-20203000D01*
X22324500Y-20197000D01*
X22344500Y-20197000D01*
X22344500Y-19031250D01*
X22187750Y-18874500D01*
X21778282Y-18874500D01*
X21547833Y-18969955D01*
X21540269Y-18977518D01*
X21530045Y-18952833D01*
X21353667Y-18776455D01*
X21336964Y-18769536D01*
X21487657Y-18618845D01*
X21575500Y-18406773D01*
X21575500Y-18177228D01*
X21575500Y-17288228D01*
X21487657Y-17076156D01*
X21325345Y-16913843D01*
X21113273Y-16826000D01*
X20883728Y-16826000D01*
X20702000Y-16826000D01*
X20702000Y-16774000D01*
X20813272Y-16774000D01*
X21025344Y-16686157D01*
X21187657Y-16523845D01*
X21275500Y-16311773D01*
X21275500Y-16082228D01*
X21275500Y-15193228D01*
X21187657Y-14981156D01*
X21036965Y-14830463D01*
X21053667Y-14823545D01*
X21230045Y-14647167D01*
X21325500Y-14416718D01*
X21325500Y-14007250D01*
X21325500Y-13687750D01*
X21325500Y-13278282D01*
X21230045Y-13047833D01*
X21053667Y-12871455D01*
X20823218Y-12776000D01*
X20573782Y-12776000D01*
X20159750Y-12776000D01*
X20003000Y-12932750D01*
X20003000Y-13844500D01*
X21168750Y-13844500D01*
X21325500Y-13687750D01*
X21325500Y-14007250D01*
X21168750Y-13850500D01*
X20003000Y-13850500D01*
X20003000Y-13870500D01*
X19997000Y-13870500D01*
X19997000Y-13850500D01*
X19997000Y-13844500D01*
X19997000Y-12932750D01*
X19840250Y-12776000D01*
X19426218Y-12776000D01*
X19176782Y-12776000D01*
X18946333Y-12871455D01*
X18769955Y-13047833D01*
X18674500Y-13278282D01*
X18674500Y-13687750D01*
X18831250Y-13844500D01*
X19997000Y-13844500D01*
X19997000Y-13850500D01*
X18831250Y-13850500D01*
X18674500Y-14007250D01*
X18674500Y-14416718D01*
X18769955Y-14647167D01*
X18946333Y-14823545D01*
X18963035Y-14830463D01*
X18812343Y-14981155D01*
X18724500Y-15193227D01*
X18724500Y-15249889D01*
X18522123Y-15333510D01*
X18475500Y-15380051D01*
X18475500Y-15293228D01*
X18387657Y-15081156D01*
X18236965Y-14930463D01*
X18253667Y-14923545D01*
X18430045Y-14747167D01*
X18525500Y-14516718D01*
X18525500Y-14107250D01*
X18368750Y-13950500D01*
X18227000Y-13950500D01*
X18227000Y-13944500D01*
X18368750Y-13944500D01*
X18525500Y-13787750D01*
X18525500Y-13378282D01*
X18430045Y-13147833D01*
X18253667Y-12971455D01*
X18227000Y-12960409D01*
X18227000Y-9052605D01*
X18352605Y-8927000D01*
X28947042Y-8927000D01*
X37644183Y-17706972D01*
X36926656Y-18424500D01*
X36888228Y-18424500D01*
X36676156Y-18512343D01*
X36513843Y-18674655D01*
X36426000Y-18886727D01*
X36426000Y-19116272D01*
X36426000Y-20513272D01*
X36513843Y-20725344D01*
X36676155Y-20887657D01*
X36882056Y-20972944D01*
X36898078Y-20996922D01*
X37450578Y-21549422D01*
X37702655Y-21717854D01*
X38000000Y-21777000D01*
X40173000Y-21777000D01*
X40173000Y-22040250D01*
X40329750Y-22197000D01*
X42297000Y-22197000D01*
X42297000Y-22177000D01*
X42303000Y-22177000D01*
X42303000Y-22197000D01*
X42323000Y-22197000D01*
X42323000Y-22203000D01*
X42303000Y-22203000D01*
X42303000Y-22379750D01*
X42303000Y-23020250D01*
X42303000Y-23197000D01*
X42323000Y-23197000D01*
X42323000Y-23203000D01*
X42303000Y-23203000D01*
X42303000Y-23379750D01*
X42303000Y-24020250D01*
X42303000Y-24197000D01*
X42323000Y-24197000D01*
X42323000Y-24203000D01*
X42303000Y-24203000D01*
X42303000Y-24379750D01*
X42303000Y-25020250D01*
X42303000Y-25197000D01*
X42323000Y-25197000D01*
X42323000Y-25203000D01*
X42303000Y-25203000D01*
X42303000Y-25379750D01*
X42303000Y-26020250D01*
X42303000Y-26197000D01*
X42323000Y-26197000D01*
X42323000Y-26203000D01*
X42303000Y-26203000D01*
X42303000Y-26379750D01*
X42303000Y-27020250D01*
X42303000Y-27197000D01*
X42323000Y-27197000D01*
X42323000Y-27203000D01*
X42303000Y-27203000D01*
X42303000Y-27379750D01*
X42303000Y-28020250D01*
X42303000Y-28197000D01*
X42323000Y-28197000D01*
X42323000Y-28203000D01*
X42303000Y-28203000D01*
X42303000Y-28379750D01*
X42303000Y-29020250D01*
X42303000Y-29197000D01*
X42323000Y-29197000D01*
X42323000Y-29203000D01*
X42303000Y-29203000D01*
X42303000Y-29379750D01*
X42303000Y-30020250D01*
X42303000Y-30197000D01*
X42323000Y-30197000D01*
X42323000Y-30203000D01*
X42303000Y-30203000D01*
X42303000Y-30379750D01*
X42303000Y-31020250D01*
X42303000Y-31197000D01*
X42323000Y-31197000D01*
X42323000Y-31203000D01*
X42303000Y-31203000D01*
X42303000Y-32020250D01*
X42459750Y-32177000D01*
X43253688Y-32177000D01*
X43249989Y-32182536D01*
X43249988Y-32182537D01*
X43249987Y-32182539D01*
X43183607Y-32342794D01*
X43162340Y-32394137D01*
X43162339Y-32394137D01*
X43162339Y-32394140D01*
X43124279Y-32585483D01*
X43124279Y-32643292D01*
X43124279Y-32643295D01*
X43113000Y-32700000D01*
X43113000Y-32750000D01*
X43124279Y-32806704D01*
X43124279Y-32806707D01*
X43124279Y-32864517D01*
X43162339Y-33055860D01*
X43162339Y-33055862D01*
X43162340Y-33055863D01*
X43183607Y-33107206D01*
X43249987Y-33267461D01*
X43249988Y-33267462D01*
X43249989Y-33267464D01*
X43358373Y-33429670D01*
X43358376Y-33429675D01*
X43439350Y-33510649D01*
X43520325Y-33591624D01*
X43520330Y-33591627D01*
X43682536Y-33700011D01*
X43682537Y-33700011D01*
X43682539Y-33700013D01*
X43795856Y-33746950D01*
X43894137Y-33787660D01*
X43894138Y-33787660D01*
X43894141Y-33787661D01*
X44085483Y-33825721D01*
X44143297Y-33825721D01*
X44200000Y-33837000D01*
X49313000Y-33837000D01*
X49313000Y-40901205D01*
M02*
