%FSLAX46Y46*%
G04 Gerber Fmt 4.6, Leading zero omitted, Abs format (unit mm)*
G04 Created by KiCad (PCBNEW (2014-08-05 BZR 5054)-product) date Sun 07 Dec 2014 10:24:08 PM PST*
%MOMM*%
G01*
G04 APERTURE LIST*
%ADD10C,0.100000*%
%ADD11C,1.501140*%
%ADD12C,6.350000*%
%ADD13C,1.800000*%
%ADD14C,5.000000*%
%ADD15C,1.397000*%
%ADD16C,0.889000*%
%ADD17C,0.254000*%
G04 APERTURE END LIST*
D10*
D11*
X28100000Y-42300000D03*
X35700000Y-42300000D03*
X31900000Y-42300000D03*
X39500000Y-42300000D03*
D12*
X7600000Y-46000000D03*
X7600000Y-3900000D03*
X46000000Y-3900000D03*
X46000000Y-46000000D03*
D13*
X18050000Y-40650000D03*
X15510000Y-40650000D03*
X15550000Y-38100000D03*
X18090000Y-38100000D03*
X16150000Y-12100000D03*
X16150000Y-9560000D03*
D11*
X22450000Y-43300000D03*
X24350000Y-43300000D03*
X26250000Y-43300000D03*
X26250000Y-41450000D03*
D14*
X19800000Y-22300000D03*
D15*
X30000000Y-34600000D03*
D16*
X25350000Y-25050000D03*
X25500000Y-22850000D03*
D15*
X33500000Y-34600000D03*
D16*
X25500000Y-20750000D03*
D15*
X37000000Y-36200000D03*
D16*
X19100000Y-16200000D03*
X23550000Y-14100000D03*
X4900000Y-7300000D03*
D15*
X39500000Y-9600000D03*
X27100000Y-36100000D03*
D16*
X16100000Y-15852500D03*
X15600000Y-17100000D03*
X14800000Y-27000000D03*
X5800000Y-26400000D03*
X16150000Y-14300000D03*
X1700000Y-28200000D03*
X6300000Y-24250000D03*
X1700000Y-34450000D03*
X35500000Y-5400000D03*
X41700000Y-37500000D03*
X39500000Y-5400000D03*
X1700000Y-14000000D03*
X1675000Y-20825000D03*
X1700000Y-31100000D03*
X39700000Y-35300000D03*
X22300000Y-36900000D03*
X40000000Y-22000000D03*
X40000000Y-25000000D03*
X40000000Y-28000000D03*
X40000000Y-31200000D03*
X29500000Y-21000000D03*
X16900000Y-19400000D03*
X19100000Y-19400000D03*
X21400000Y-19400000D03*
X22900000Y-19400000D03*
X16900000Y-25200000D03*
X19100000Y-25200000D03*
X21400000Y-25200000D03*
X22900000Y-25200000D03*
X22900000Y-23500000D03*
X22900000Y-21300000D03*
X16900000Y-21300000D03*
X16900000Y-23500000D03*
X26200000Y-28900000D03*
X19600000Y-12200000D03*
X28050000Y-25650000D03*
X23550000Y-9900000D03*
X9600000Y-20800000D03*
X9700000Y-31000000D03*
X9500000Y-26100000D03*
X14000000Y-45800000D03*
D15*
X41500000Y-10500000D03*
X29700000Y-42300000D03*
D16*
X26000000Y-26300000D03*
X23600000Y-28700000D03*
D15*
X3500000Y-38600000D03*
D16*
X16600000Y-45500000D03*
X19150000Y-45500000D03*
X21650000Y-45500000D03*
X7100000Y-25300000D03*
X8900000Y-28900000D03*
X15450000Y-35450000D03*
X5200000Y-35500000D03*
X13700000Y-27000000D03*
D15*
X1900000Y-42400000D03*
X2650000Y-8700000D03*
X41550000Y-19700000D03*
D16*
X16050000Y-27900000D03*
D15*
X2800000Y-11500000D03*
X11500000Y-11200000D03*
D16*
X1700000Y-26900000D03*
X6600000Y-28300000D03*
X1700000Y-29700000D03*
X5400000Y-30900000D03*
X3500000Y-40750000D03*
D17*
G36*
X49313000Y-44192921D02*
X49182645Y-43877439D01*
X48128112Y-42821064D01*
X46749593Y-42248653D01*
X45256955Y-42247350D01*
X43877439Y-42817355D01*
X42821064Y-43871888D01*
X42248653Y-45250407D01*
X42247350Y-46743045D01*
X42817355Y-48122561D01*
X43871888Y-49178936D01*
X44194750Y-49313000D01*
X40827800Y-49313000D01*
X40827800Y-42037088D01*
X40626116Y-41548974D01*
X40252990Y-41175197D01*
X39765229Y-40972661D01*
X39237088Y-40972200D01*
X38748974Y-41173884D01*
X38375197Y-41547010D01*
X38275721Y-41786574D01*
X38275721Y-35947400D01*
X38081947Y-35478431D01*
X37723456Y-35119314D01*
X37254826Y-34924721D01*
X36747400Y-34924279D01*
X36278431Y-35118053D01*
X35919314Y-35476544D01*
X35724721Y-35945174D01*
X35724279Y-36452600D01*
X35918053Y-36921569D01*
X36276544Y-37280686D01*
X36745174Y-37475279D01*
X37252600Y-37475721D01*
X37721569Y-37281947D01*
X38080686Y-36923456D01*
X38275279Y-36454826D01*
X38275721Y-35947400D01*
X38275721Y-41786574D01*
X38172661Y-42034771D01*
X38172200Y-42562912D01*
X38373884Y-43051026D01*
X38747010Y-43424803D01*
X39234771Y-43627339D01*
X39762912Y-43627800D01*
X40251026Y-43426116D01*
X40624803Y-43052990D01*
X40827339Y-42565229D01*
X40827800Y-42037088D01*
X40827800Y-49313000D01*
X37027800Y-49313000D01*
X37027800Y-42037088D01*
X36826116Y-41548974D01*
X36452990Y-41175197D01*
X35965229Y-40972661D01*
X35437088Y-40972200D01*
X34948974Y-41173884D01*
X34775721Y-41346835D01*
X34775721Y-34347400D01*
X34581947Y-33878431D01*
X34223456Y-33519314D01*
X33754826Y-33324721D01*
X33247400Y-33324279D01*
X32778431Y-33518053D01*
X32419314Y-33876544D01*
X32224721Y-34345174D01*
X32224279Y-34852600D01*
X32418053Y-35321569D01*
X32776544Y-35680686D01*
X33245174Y-35875279D01*
X33752600Y-35875721D01*
X34221569Y-35681947D01*
X34580686Y-35323456D01*
X34775279Y-34854826D01*
X34775721Y-34347400D01*
X34775721Y-41346835D01*
X34575197Y-41547010D01*
X34372661Y-42034771D01*
X34372200Y-42562912D01*
X34573884Y-43051026D01*
X34947010Y-43424803D01*
X35434771Y-43627339D01*
X35962912Y-43627800D01*
X36451026Y-43426116D01*
X36824803Y-43052990D01*
X37027339Y-42565229D01*
X37027800Y-42037088D01*
X37027800Y-49313000D01*
X33227800Y-49313000D01*
X33227800Y-42037088D01*
X33026116Y-41548974D01*
X32652990Y-41175197D01*
X32165229Y-40972661D01*
X31637088Y-40972200D01*
X31275721Y-41121513D01*
X31275721Y-34347400D01*
X31081947Y-33878431D01*
X30723456Y-33519314D01*
X30254826Y-33324721D01*
X29747400Y-33324279D01*
X29278431Y-33518053D01*
X28919314Y-33876544D01*
X28724721Y-34345174D01*
X28724279Y-34852600D01*
X28918053Y-35321569D01*
X29276544Y-35680686D01*
X29745174Y-35875279D01*
X30252600Y-35875721D01*
X30721569Y-35681947D01*
X31080686Y-35323456D01*
X31275279Y-34854826D01*
X31275721Y-34347400D01*
X31275721Y-41121513D01*
X31148974Y-41173884D01*
X30775197Y-41547010D01*
X30572661Y-42034771D01*
X30572200Y-42562912D01*
X30773884Y-43051026D01*
X31147010Y-43424803D01*
X31634771Y-43627339D01*
X32162912Y-43627800D01*
X32651026Y-43426116D01*
X33024803Y-43052990D01*
X33227339Y-42565229D01*
X33227800Y-42037088D01*
X33227800Y-49313000D01*
X28627000Y-49313000D01*
X28627000Y-35051136D01*
X27021677Y-33273814D01*
X27021677Y-26097703D01*
X26866490Y-25722123D01*
X26579389Y-25434520D01*
X26521677Y-25410555D01*
X26521677Y-22647703D01*
X26521677Y-20547703D01*
X26366490Y-20172123D01*
X26079389Y-19884520D01*
X25704080Y-19728678D01*
X25297703Y-19728323D01*
X24922123Y-19883510D01*
X24634520Y-20170611D01*
X24571677Y-20321953D01*
X24571677Y-13897703D01*
X24416490Y-13522123D01*
X24129389Y-13234520D01*
X23754080Y-13078678D01*
X23347703Y-13078323D01*
X22972123Y-13233510D01*
X22684520Y-13520611D01*
X22528678Y-13895920D01*
X22528323Y-14302297D01*
X22683510Y-14677877D01*
X22970611Y-14965480D01*
X23345920Y-15121322D01*
X23752297Y-15121677D01*
X24127877Y-14966490D01*
X24415480Y-14679389D01*
X24571322Y-14304080D01*
X24571677Y-13897703D01*
X24571677Y-20321953D01*
X24478678Y-20545920D01*
X24478323Y-20952297D01*
X24633510Y-21327877D01*
X24920611Y-21615480D01*
X25295920Y-21771322D01*
X25702297Y-21771677D01*
X26077877Y-21616490D01*
X26365480Y-21329389D01*
X26521322Y-20954080D01*
X26521677Y-20547703D01*
X26521677Y-22647703D01*
X26366490Y-22272123D01*
X26079389Y-21984520D01*
X25704080Y-21828678D01*
X25297703Y-21828323D01*
X24922123Y-21983510D01*
X24634520Y-22270611D01*
X24478678Y-22645920D01*
X24478323Y-23052297D01*
X24633510Y-23427877D01*
X24920611Y-23715480D01*
X25295920Y-23871322D01*
X25702297Y-23871677D01*
X26077877Y-23716490D01*
X26365480Y-23429389D01*
X26521322Y-23054080D01*
X26521677Y-22647703D01*
X26521677Y-25410555D01*
X26338014Y-25334292D01*
X26371322Y-25254080D01*
X26371677Y-24847703D01*
X26216490Y-24472123D01*
X25929389Y-24184520D01*
X25554080Y-24028678D01*
X25147703Y-24028323D01*
X24772123Y-24183510D01*
X24484520Y-24470611D01*
X24328678Y-24845920D01*
X24328323Y-25252297D01*
X24483510Y-25627877D01*
X24770611Y-25915480D01*
X25011985Y-26015707D01*
X24978678Y-26095920D01*
X24978323Y-26502297D01*
X25133510Y-26877877D01*
X25420611Y-27165480D01*
X25795920Y-27321322D01*
X26202297Y-27321677D01*
X26577877Y-27166490D01*
X26865480Y-26879389D01*
X27021322Y-26504080D01*
X27021677Y-26097703D01*
X27021677Y-33273814D01*
X23810305Y-29718367D01*
X24177877Y-29566490D01*
X24465480Y-29279389D01*
X24621322Y-28904080D01*
X24621677Y-28497703D01*
X24466490Y-28122123D01*
X24179389Y-27834520D01*
X23804080Y-27678678D01*
X23397703Y-27678323D01*
X23022123Y-27833510D01*
X22734520Y-28120611D01*
X22578678Y-28495920D01*
X22578323Y-28902297D01*
X22733510Y-29277877D01*
X22773000Y-29317436D01*
X22773000Y-29848522D01*
X27225287Y-34824608D01*
X26847400Y-34824279D01*
X26378431Y-35018053D01*
X26019314Y-35376544D01*
X25824721Y-35845174D01*
X25824279Y-36352600D01*
X26018053Y-36821569D01*
X26376544Y-37180686D01*
X26845174Y-37375279D01*
X27352600Y-37375721D01*
X27821569Y-37181947D01*
X27873000Y-37130605D01*
X27873000Y-49313000D01*
X27577800Y-49313000D01*
X27577800Y-43037088D01*
X27376116Y-42548974D01*
X27002990Y-42175197D01*
X26515229Y-41972661D01*
X25987088Y-41972200D01*
X25498974Y-42173884D01*
X25299980Y-42372531D01*
X25102990Y-42175197D01*
X24615229Y-41972661D01*
X24087088Y-41972200D01*
X23598974Y-42173884D01*
X23399980Y-42372531D01*
X23202990Y-42175197D01*
X22715229Y-41972661D01*
X22187088Y-41972200D01*
X21698974Y-42173884D01*
X21325197Y-42547010D01*
X21122661Y-43034771D01*
X21122200Y-43562912D01*
X21323884Y-44051026D01*
X21697010Y-44424803D01*
X21826697Y-44478654D01*
X21447703Y-44478323D01*
X21072123Y-44633510D01*
X20784520Y-44920611D01*
X20628678Y-45295920D01*
X20628323Y-45702297D01*
X20783510Y-46077877D01*
X21070611Y-46365480D01*
X21445920Y-46521322D01*
X21852297Y-46521677D01*
X22227877Y-46366490D01*
X22515480Y-46079389D01*
X22671322Y-45704080D01*
X22671677Y-45297703D01*
X22516490Y-44922123D01*
X22229389Y-44634520D01*
X22212152Y-44627362D01*
X22712912Y-44627800D01*
X23201026Y-44426116D01*
X23400019Y-44227468D01*
X23597010Y-44424803D01*
X24084771Y-44627339D01*
X24612912Y-44627800D01*
X25101026Y-44426116D01*
X25300019Y-44227468D01*
X25497010Y-44424803D01*
X25984771Y-44627339D01*
X26512912Y-44627800D01*
X27001026Y-44426116D01*
X27374803Y-44052990D01*
X27577339Y-43565229D01*
X27577800Y-43037088D01*
X27577800Y-49313000D01*
X20171677Y-49313000D01*
X20171677Y-45297703D01*
X20016490Y-44922123D01*
X19729389Y-44634520D01*
X19567256Y-44567196D01*
X19567256Y-37807495D01*
X19342870Y-37264440D01*
X18927746Y-36848591D01*
X18385082Y-36623257D01*
X17797495Y-36622744D01*
X17254440Y-36847130D01*
X17121677Y-36979661D01*
X17121677Y-15650203D01*
X16966490Y-15274623D01*
X16679389Y-14987020D01*
X16304080Y-14831178D01*
X15897703Y-14830823D01*
X15522123Y-14986010D01*
X15234520Y-15273111D01*
X15078678Y-15648420D01*
X15078323Y-16054797D01*
X15133201Y-16187613D01*
X15022123Y-16233510D01*
X14734520Y-16520611D01*
X14578678Y-16895920D01*
X14578323Y-17302297D01*
X14733510Y-17677877D01*
X15020611Y-17965480D01*
X15395920Y-18121322D01*
X15802297Y-18121677D01*
X16177877Y-17966490D01*
X16465480Y-17679389D01*
X16621322Y-17304080D01*
X16621677Y-16897703D01*
X16566798Y-16764886D01*
X16677877Y-16718990D01*
X16965480Y-16431889D01*
X17121322Y-16056580D01*
X17121677Y-15650203D01*
X17121677Y-36979661D01*
X17071677Y-37029574D01*
X17071677Y-27697703D01*
X16916490Y-27322123D01*
X16629389Y-27034520D01*
X16254080Y-26878678D01*
X15847703Y-26878323D01*
X15821597Y-26889109D01*
X15821677Y-26797703D01*
X15666490Y-26422123D01*
X15379389Y-26134520D01*
X15004080Y-25978678D01*
X14597703Y-25978323D01*
X14249607Y-26122153D01*
X13904080Y-25978678D01*
X13497703Y-25978323D01*
X13122123Y-26133510D01*
X12834520Y-26420611D01*
X12775721Y-26562214D01*
X12775721Y-10947400D01*
X12581947Y-10478431D01*
X12223456Y-10119314D01*
X11754826Y-9924721D01*
X11247400Y-9924279D01*
X10778431Y-10118053D01*
X10419314Y-10476544D01*
X10224721Y-10945174D01*
X10224279Y-11452600D01*
X10418053Y-11921569D01*
X10776544Y-12280686D01*
X11245174Y-12475279D01*
X11752600Y-12475721D01*
X12221569Y-12281947D01*
X12580686Y-11923456D01*
X12775279Y-11454826D01*
X12775721Y-10947400D01*
X12775721Y-26562214D01*
X12678678Y-26795920D01*
X12678323Y-27202297D01*
X12833510Y-27577877D01*
X13120611Y-27865480D01*
X13495920Y-28021322D01*
X13902297Y-28021677D01*
X14250392Y-27877846D01*
X14595920Y-28021322D01*
X15002297Y-28021677D01*
X15028402Y-28010890D01*
X15028323Y-28102297D01*
X15183510Y-28477877D01*
X15470611Y-28765480D01*
X15845920Y-28921322D01*
X16252297Y-28921677D01*
X16627877Y-28766490D01*
X16915480Y-28479389D01*
X17071322Y-28104080D01*
X17071677Y-27697703D01*
X17071677Y-37029574D01*
X16838591Y-37262254D01*
X16820233Y-37306463D01*
X16802870Y-37264440D01*
X16471677Y-36932668D01*
X16471677Y-35247703D01*
X16316490Y-34872123D01*
X16029389Y-34584520D01*
X15654080Y-34428678D01*
X15247703Y-34428323D01*
X14872123Y-34583510D01*
X14584520Y-34870611D01*
X14428678Y-35245920D01*
X14428323Y-35652297D01*
X14583510Y-36027877D01*
X14870611Y-36315480D01*
X15245920Y-36471322D01*
X15652297Y-36471677D01*
X16027877Y-36316490D01*
X16315480Y-36029389D01*
X16471322Y-35654080D01*
X16471677Y-35247703D01*
X16471677Y-36932668D01*
X16387746Y-36848591D01*
X15845082Y-36623257D01*
X15257495Y-36622744D01*
X14714440Y-36847130D01*
X14298591Y-37262254D01*
X14073257Y-37804918D01*
X14072744Y-38392505D01*
X14297130Y-38935560D01*
X14712254Y-39351409D01*
X14748583Y-39366494D01*
X14674440Y-39397130D01*
X14258591Y-39812254D01*
X14033257Y-40354918D01*
X14032744Y-40942505D01*
X14257130Y-41485560D01*
X14672254Y-41901409D01*
X15214918Y-42126743D01*
X15802505Y-42127256D01*
X16345560Y-41902870D01*
X16761409Y-41487746D01*
X16986743Y-40945082D01*
X16987256Y-40357495D01*
X16762870Y-39814440D01*
X16347746Y-39398591D01*
X16311416Y-39383505D01*
X16385560Y-39352870D01*
X16801409Y-38937746D01*
X16819766Y-38893536D01*
X16837130Y-38935560D01*
X17252254Y-39351409D01*
X17794918Y-39576743D01*
X18382505Y-39577256D01*
X18925560Y-39352870D01*
X19341409Y-38937746D01*
X19566743Y-38395082D01*
X19567256Y-37807495D01*
X19567256Y-44567196D01*
X19354080Y-44478678D01*
X18947703Y-44478323D01*
X18572123Y-44633510D01*
X18284520Y-44920611D01*
X18128678Y-45295920D01*
X18128323Y-45702297D01*
X18283510Y-46077877D01*
X18570611Y-46365480D01*
X18945920Y-46521322D01*
X19352297Y-46521677D01*
X19727877Y-46366490D01*
X20015480Y-46079389D01*
X20171322Y-45704080D01*
X20171677Y-45297703D01*
X20171677Y-49313000D01*
X17621677Y-49313000D01*
X17621677Y-45297703D01*
X17466490Y-44922123D01*
X17179389Y-44634520D01*
X16804080Y-44478678D01*
X16397703Y-44478323D01*
X16022123Y-44633510D01*
X15734520Y-44920611D01*
X15578678Y-45295920D01*
X15578323Y-45702297D01*
X15733510Y-46077877D01*
X16020611Y-46365480D01*
X16395920Y-46521322D01*
X16802297Y-46521677D01*
X17177877Y-46366490D01*
X17465480Y-46079389D01*
X17621322Y-45704080D01*
X17621677Y-45297703D01*
X17621677Y-49313000D01*
X9407078Y-49313000D01*
X9722561Y-49182645D01*
X10778936Y-48128112D01*
X11351347Y-46749593D01*
X11352650Y-45256955D01*
X10782645Y-43877439D01*
X9921677Y-43014967D01*
X9921677Y-28697703D01*
X9766490Y-28322123D01*
X9479389Y-28034520D01*
X9104080Y-27878678D01*
X8852234Y-27878457D01*
X8852234Y-11097250D01*
X8646838Y-10600154D01*
X8266846Y-10219499D01*
X7770109Y-10013235D01*
X7232250Y-10012766D01*
X6735154Y-10218162D01*
X6354499Y-10598154D01*
X6148235Y-11094891D01*
X6147766Y-11632750D01*
X6353162Y-12129846D01*
X6733154Y-12510501D01*
X7229891Y-12716765D01*
X7767750Y-12717234D01*
X8264846Y-12511838D01*
X8645501Y-12131846D01*
X8851765Y-11635109D01*
X8852234Y-11097250D01*
X8852234Y-27878457D01*
X8697703Y-27878323D01*
X8322123Y-28033510D01*
X8121677Y-28233606D01*
X8121677Y-25097703D01*
X7966490Y-24722123D01*
X7679389Y-24434520D01*
X7304080Y-24278678D01*
X6897703Y-24278323D01*
X6522123Y-24433510D01*
X6234520Y-24720611D01*
X6078678Y-25095920D01*
X6078404Y-25409540D01*
X6004080Y-25378678D01*
X5597703Y-25378323D01*
X5222123Y-25533510D01*
X4934520Y-25820611D01*
X4778678Y-26195920D01*
X4778323Y-26602297D01*
X4933510Y-26977877D01*
X5220611Y-27265480D01*
X5595920Y-27421322D01*
X6002297Y-27421677D01*
X6377877Y-27266490D01*
X6665480Y-26979389D01*
X6821322Y-26604080D01*
X6821595Y-26290459D01*
X6895920Y-26321322D01*
X7302297Y-26321677D01*
X7677877Y-26166490D01*
X7965480Y-25879389D01*
X8121322Y-25504080D01*
X8121677Y-25097703D01*
X8121677Y-28233606D01*
X8034520Y-28320611D01*
X7878678Y-28695920D01*
X7878323Y-29102297D01*
X8033510Y-29477877D01*
X8320611Y-29765480D01*
X8695920Y-29921322D01*
X9102297Y-29921677D01*
X9477877Y-29766490D01*
X9765480Y-29479389D01*
X9921322Y-29104080D01*
X9921677Y-28697703D01*
X9921677Y-43014967D01*
X9728112Y-42821064D01*
X8852234Y-42457367D01*
X8852234Y-38267250D01*
X8646838Y-37770154D01*
X8266846Y-37389499D01*
X7770109Y-37183235D01*
X7621677Y-37183105D01*
X7621677Y-28097703D01*
X7466490Y-27722123D01*
X7179389Y-27434520D01*
X6804080Y-27278678D01*
X6397703Y-27278323D01*
X6022123Y-27433510D01*
X5734520Y-27720611D01*
X5578678Y-28095920D01*
X5578323Y-28502297D01*
X5733510Y-28877877D01*
X6020611Y-29165480D01*
X6395920Y-29321322D01*
X6802297Y-29321677D01*
X7177877Y-29166490D01*
X7465480Y-28879389D01*
X7621322Y-28504080D01*
X7621677Y-28097703D01*
X7621677Y-37183105D01*
X7232250Y-37182766D01*
X6735154Y-37388162D01*
X6421677Y-37701093D01*
X6421677Y-30697703D01*
X6266490Y-30322123D01*
X5979389Y-30034520D01*
X5604080Y-29878678D01*
X5197703Y-29878323D01*
X4822123Y-30033510D01*
X4534520Y-30320611D01*
X4378678Y-30695920D01*
X4378323Y-31102297D01*
X4533510Y-31477877D01*
X4820611Y-31765480D01*
X5195920Y-31921322D01*
X5602297Y-31921677D01*
X5977877Y-31766490D01*
X6265480Y-31479389D01*
X6421322Y-31104080D01*
X6421677Y-30697703D01*
X6421677Y-37701093D01*
X6354499Y-37768154D01*
X6221677Y-38088023D01*
X6221677Y-35297703D01*
X6066490Y-34922123D01*
X5779389Y-34634520D01*
X5404080Y-34478678D01*
X4997703Y-34478323D01*
X4622123Y-34633510D01*
X4334520Y-34920611D01*
X4178678Y-35295920D01*
X4178323Y-35702297D01*
X4333510Y-36077877D01*
X4620611Y-36365480D01*
X4995920Y-36521322D01*
X5402297Y-36521677D01*
X5777877Y-36366490D01*
X6065480Y-36079389D01*
X6221322Y-35704080D01*
X6221677Y-35297703D01*
X6221677Y-38088023D01*
X6148235Y-38264891D01*
X6147766Y-38802750D01*
X6353162Y-39299846D01*
X6733154Y-39680501D01*
X7229891Y-39886765D01*
X7767750Y-39887234D01*
X8264846Y-39681838D01*
X8645501Y-39301846D01*
X8851765Y-38805109D01*
X8852234Y-38267250D01*
X8852234Y-42457367D01*
X8349593Y-42248653D01*
X6856955Y-42247350D01*
X5477439Y-42817355D01*
X4775721Y-43517849D01*
X4775721Y-38347400D01*
X4581947Y-37878431D01*
X4223456Y-37519314D01*
X4075721Y-37457968D01*
X4075721Y-11247400D01*
X3925721Y-10884372D01*
X3925721Y-8447400D01*
X3731947Y-7978431D01*
X3373456Y-7619314D01*
X2904826Y-7424721D01*
X2397400Y-7424279D01*
X1928431Y-7618053D01*
X1569314Y-7976544D01*
X1374721Y-8445174D01*
X1374279Y-8952600D01*
X1568053Y-9421569D01*
X1926544Y-9780686D01*
X2395174Y-9975279D01*
X2902600Y-9975721D01*
X3371569Y-9781947D01*
X3730686Y-9423456D01*
X3925279Y-8954826D01*
X3925721Y-8447400D01*
X3925721Y-10884372D01*
X3881947Y-10778431D01*
X3523456Y-10419314D01*
X3054826Y-10224721D01*
X2547400Y-10224279D01*
X2078431Y-10418053D01*
X1719314Y-10776544D01*
X1524721Y-11245174D01*
X1524279Y-11752600D01*
X1718053Y-12221569D01*
X2076544Y-12580686D01*
X2545174Y-12775279D01*
X3052600Y-12775721D01*
X3521569Y-12581947D01*
X3880686Y-12223456D01*
X4075279Y-11754826D01*
X4075721Y-11247400D01*
X4075721Y-37457968D01*
X3754826Y-37324721D01*
X3247400Y-37324279D01*
X2778431Y-37518053D01*
X2721677Y-37574708D01*
X2721677Y-29497703D01*
X2721677Y-26697703D01*
X2566490Y-26322123D01*
X2279389Y-26034520D01*
X1904080Y-25878678D01*
X1497703Y-25878323D01*
X1122123Y-26033510D01*
X834520Y-26320611D01*
X678678Y-26695920D01*
X678323Y-27102297D01*
X833510Y-27477877D01*
X1120611Y-27765480D01*
X1495920Y-27921322D01*
X1902297Y-27921677D01*
X2277877Y-27766490D01*
X2565480Y-27479389D01*
X2721322Y-27104080D01*
X2721677Y-26697703D01*
X2721677Y-29497703D01*
X2566490Y-29122123D01*
X2279389Y-28834520D01*
X1904080Y-28678678D01*
X1497703Y-28678323D01*
X1122123Y-28833510D01*
X834520Y-29120611D01*
X678678Y-29495920D01*
X678323Y-29902297D01*
X833510Y-30277877D01*
X1120611Y-30565480D01*
X1495920Y-30721322D01*
X1902297Y-30721677D01*
X2277877Y-30566490D01*
X2565480Y-30279389D01*
X2721322Y-29904080D01*
X2721677Y-29497703D01*
X2721677Y-37574708D01*
X2419314Y-37876544D01*
X2224721Y-38345174D01*
X2224279Y-38852600D01*
X2418053Y-39321569D01*
X2776544Y-39680686D01*
X3093982Y-39812498D01*
X2922123Y-39883510D01*
X2634520Y-40170611D01*
X2478678Y-40545920D01*
X2478323Y-40952297D01*
X2633510Y-41327877D01*
X2920611Y-41615480D01*
X3295920Y-41771322D01*
X3702297Y-41771677D01*
X4077877Y-41616490D01*
X4365480Y-41329389D01*
X4521322Y-40954080D01*
X4521677Y-40547703D01*
X4366490Y-40172123D01*
X4079389Y-39884520D01*
X3905776Y-39812429D01*
X4221569Y-39681947D01*
X4580686Y-39323456D01*
X4775279Y-38854826D01*
X4775721Y-38347400D01*
X4775721Y-43517849D01*
X4421064Y-43871888D01*
X3848653Y-45250407D01*
X3847350Y-46743045D01*
X4417355Y-48122561D01*
X5471888Y-49178936D01*
X5794750Y-49313000D01*
X3450000Y-49313000D01*
X3175721Y-49313000D01*
X3175721Y-42147400D01*
X2981947Y-41678431D01*
X2623456Y-41319314D01*
X2154826Y-41124721D01*
X1647400Y-41124279D01*
X1178431Y-41318053D01*
X819314Y-41676544D01*
X624721Y-42145174D01*
X624279Y-42652600D01*
X818053Y-43121569D01*
X1176544Y-43480686D01*
X1645174Y-43675279D01*
X2152600Y-43675721D01*
X2621569Y-43481947D01*
X2980686Y-43123456D01*
X3175279Y-42654826D01*
X3175721Y-42147400D01*
X3175721Y-49313000D01*
X3000000Y-49313000D01*
X587000Y-49313000D01*
X587000Y-587000D01*
X5792921Y-587000D01*
X5477439Y-717355D01*
X4421064Y-1771888D01*
X3848653Y-3150407D01*
X3847350Y-4643045D01*
X4417355Y-6022561D01*
X4679980Y-6285645D01*
X4322123Y-6433510D01*
X4034520Y-6720611D01*
X3878678Y-7095920D01*
X3878323Y-7502297D01*
X4033510Y-7877877D01*
X4320611Y-8165480D01*
X4695920Y-8321322D01*
X5102297Y-8321677D01*
X5477877Y-8166490D01*
X5765480Y-7879389D01*
X5921322Y-7504080D01*
X5921530Y-7265643D01*
X6850407Y-7651347D01*
X8343045Y-7652650D01*
X9722561Y-7082645D01*
X10778936Y-6028112D01*
X11351347Y-4649593D01*
X11352650Y-3156955D01*
X10782645Y-1777439D01*
X9728112Y-721064D01*
X9405249Y-587000D01*
X44192921Y-587000D01*
X43877439Y-717355D01*
X42821064Y-1771888D01*
X42248653Y-3150407D01*
X42247350Y-4643045D01*
X42817355Y-6022561D01*
X43871888Y-7078936D01*
X45250407Y-7651347D01*
X46743045Y-7652650D01*
X48122561Y-7082645D01*
X49178936Y-6028112D01*
X49313000Y-5705249D01*
X49313000Y-9563000D01*
X44200000Y-9563000D01*
X44143297Y-9574279D01*
X44085483Y-9574279D01*
X43894141Y-9612339D01*
X43894138Y-9612339D01*
X43894137Y-9612340D01*
X43795856Y-9653049D01*
X43682539Y-9699987D01*
X43682537Y-9699988D01*
X43682536Y-9699989D01*
X43520325Y-9808376D01*
X43439350Y-9889350D01*
X43358376Y-9970325D01*
X43249989Y-10132536D01*
X43249988Y-10132537D01*
X43249987Y-10132539D01*
X43183607Y-10292794D01*
X43162340Y-10344137D01*
X43162339Y-10344137D01*
X43162339Y-10344140D01*
X43124279Y-10535483D01*
X43124279Y-10593292D01*
X43124279Y-10593295D01*
X43113000Y-10650000D01*
X43113000Y-10700000D01*
X43124279Y-10756704D01*
X43124279Y-10756707D01*
X43124279Y-10814517D01*
X43162339Y-11005860D01*
X43162339Y-11005862D01*
X43162340Y-11005863D01*
X43183607Y-11057206D01*
X43249987Y-11217461D01*
X43249988Y-11217462D01*
X43249989Y-11217464D01*
X43358373Y-11379670D01*
X43358376Y-11379675D01*
X43439350Y-11460649D01*
X43520325Y-11541624D01*
X43520330Y-11541627D01*
X43682536Y-11650011D01*
X43682537Y-11650011D01*
X43682539Y-11650013D01*
X43795856Y-11696950D01*
X43894137Y-11737660D01*
X43894138Y-11737660D01*
X43894141Y-11737661D01*
X44085483Y-11775721D01*
X44143297Y-11775721D01*
X44200000Y-11787000D01*
X44213000Y-11787000D01*
X44213000Y-18473000D01*
X41921094Y-18473000D01*
X41804826Y-18424721D01*
X41297400Y-18424279D01*
X41179486Y-18473000D01*
X40775721Y-18473000D01*
X40775721Y-9347400D01*
X40581947Y-8878431D01*
X40223456Y-8519314D01*
X39754826Y-8324721D01*
X39247400Y-8324279D01*
X38778431Y-8518053D01*
X38419314Y-8876544D01*
X38224721Y-9345174D01*
X38224279Y-9852600D01*
X38418053Y-10321569D01*
X38776544Y-10680686D01*
X39245174Y-10875279D01*
X39752600Y-10875721D01*
X40221569Y-10681947D01*
X40580686Y-10323456D01*
X40775279Y-9854826D01*
X40775721Y-9347400D01*
X40775721Y-18473000D01*
X39452968Y-18473000D01*
X29252968Y-8173000D01*
X18047395Y-8173000D01*
X17473000Y-8747395D01*
X17473000Y-8894167D01*
X17402870Y-8724440D01*
X16987746Y-8308591D01*
X16445082Y-8083257D01*
X15857495Y-8082744D01*
X15314440Y-8307130D01*
X14898591Y-8722254D01*
X14673257Y-9264918D01*
X14672744Y-9852505D01*
X14897130Y-10395560D01*
X15312254Y-10811409D01*
X15356463Y-10829766D01*
X15314440Y-10847130D01*
X14898591Y-11262254D01*
X14673257Y-11804918D01*
X14672744Y-12392505D01*
X14897130Y-12935560D01*
X15312254Y-13351409D01*
X15854918Y-13576743D01*
X16442505Y-13577256D01*
X16985560Y-13352870D01*
X17401409Y-12937746D01*
X17473000Y-12765335D01*
X17473000Y-16427000D01*
X18088530Y-16427000D01*
X18233510Y-16777877D01*
X18520611Y-17065480D01*
X18895920Y-17221322D01*
X19302297Y-17221677D01*
X19677877Y-17066490D01*
X19965480Y-16779389D01*
X20121322Y-16404080D01*
X20121677Y-15997703D01*
X19966490Y-15622123D01*
X19679389Y-15334520D01*
X19304080Y-15178678D01*
X18897703Y-15178323D01*
X18522123Y-15333510D01*
X18234520Y-15620611D01*
X18227000Y-15638721D01*
X18227000Y-9052605D01*
X18352605Y-8927000D01*
X28947042Y-8927000D01*
X39373000Y-19452253D01*
X39373000Y-20646521D01*
X40541098Y-22027000D01*
X44213000Y-22027000D01*
X44213000Y-31613000D01*
X44200000Y-31613000D01*
X44143297Y-31624279D01*
X44085483Y-31624279D01*
X43894141Y-31662339D01*
X43894138Y-31662339D01*
X43894137Y-31662340D01*
X43795856Y-31703049D01*
X43682539Y-31749987D01*
X43682537Y-31749988D01*
X43682536Y-31749989D01*
X43520325Y-31858376D01*
X43439350Y-31939350D01*
X43358376Y-32020325D01*
X43249989Y-32182536D01*
X43249988Y-32182537D01*
X43249987Y-32182539D01*
X43183607Y-32342794D01*
X43162340Y-32394137D01*
X43162339Y-32394137D01*
X43162339Y-32394140D01*
X43124279Y-32585483D01*
X43124279Y-32643292D01*
X43124279Y-32643295D01*
X43113000Y-32700000D01*
X43113000Y-32750000D01*
X43124279Y-32806704D01*
X43124279Y-32806707D01*
X43124279Y-32864517D01*
X43162339Y-33055860D01*
X43162339Y-33055862D01*
X43162340Y-33055863D01*
X43183607Y-33107206D01*
X43249987Y-33267461D01*
X43249988Y-33267462D01*
X43249989Y-33267464D01*
X43358373Y-33429670D01*
X43358376Y-33429675D01*
X43439350Y-33510649D01*
X43520325Y-33591624D01*
X43520330Y-33591627D01*
X43682536Y-33700011D01*
X43682537Y-33700011D01*
X43682539Y-33700013D01*
X43795856Y-33746950D01*
X43894137Y-33787660D01*
X43894138Y-33787660D01*
X43894141Y-33787661D01*
X44085483Y-33825721D01*
X44143297Y-33825721D01*
X44200000Y-33837000D01*
X49313000Y-33837000D01*
X49313000Y-44192921D01*
X49313000Y-44192921D01*
G37*
X49313000Y-44192921D02*
X49182645Y-43877439D01*
X48128112Y-42821064D01*
X46749593Y-42248653D01*
X45256955Y-42247350D01*
X43877439Y-42817355D01*
X42821064Y-43871888D01*
X42248653Y-45250407D01*
X42247350Y-46743045D01*
X42817355Y-48122561D01*
X43871888Y-49178936D01*
X44194750Y-49313000D01*
X40827800Y-49313000D01*
X40827800Y-42037088D01*
X40626116Y-41548974D01*
X40252990Y-41175197D01*
X39765229Y-40972661D01*
X39237088Y-40972200D01*
X38748974Y-41173884D01*
X38375197Y-41547010D01*
X38275721Y-41786574D01*
X38275721Y-35947400D01*
X38081947Y-35478431D01*
X37723456Y-35119314D01*
X37254826Y-34924721D01*
X36747400Y-34924279D01*
X36278431Y-35118053D01*
X35919314Y-35476544D01*
X35724721Y-35945174D01*
X35724279Y-36452600D01*
X35918053Y-36921569D01*
X36276544Y-37280686D01*
X36745174Y-37475279D01*
X37252600Y-37475721D01*
X37721569Y-37281947D01*
X38080686Y-36923456D01*
X38275279Y-36454826D01*
X38275721Y-35947400D01*
X38275721Y-41786574D01*
X38172661Y-42034771D01*
X38172200Y-42562912D01*
X38373884Y-43051026D01*
X38747010Y-43424803D01*
X39234771Y-43627339D01*
X39762912Y-43627800D01*
X40251026Y-43426116D01*
X40624803Y-43052990D01*
X40827339Y-42565229D01*
X40827800Y-42037088D01*
X40827800Y-49313000D01*
X37027800Y-49313000D01*
X37027800Y-42037088D01*
X36826116Y-41548974D01*
X36452990Y-41175197D01*
X35965229Y-40972661D01*
X35437088Y-40972200D01*
X34948974Y-41173884D01*
X34775721Y-41346835D01*
X34775721Y-34347400D01*
X34581947Y-33878431D01*
X34223456Y-33519314D01*
X33754826Y-33324721D01*
X33247400Y-33324279D01*
X32778431Y-33518053D01*
X32419314Y-33876544D01*
X32224721Y-34345174D01*
X32224279Y-34852600D01*
X32418053Y-35321569D01*
X32776544Y-35680686D01*
X33245174Y-35875279D01*
X33752600Y-35875721D01*
X34221569Y-35681947D01*
X34580686Y-35323456D01*
X34775279Y-34854826D01*
X34775721Y-34347400D01*
X34775721Y-41346835D01*
X34575197Y-41547010D01*
X34372661Y-42034771D01*
X34372200Y-42562912D01*
X34573884Y-43051026D01*
X34947010Y-43424803D01*
X35434771Y-43627339D01*
X35962912Y-43627800D01*
X36451026Y-43426116D01*
X36824803Y-43052990D01*
X37027339Y-42565229D01*
X37027800Y-42037088D01*
X37027800Y-49313000D01*
X33227800Y-49313000D01*
X33227800Y-42037088D01*
X33026116Y-41548974D01*
X32652990Y-41175197D01*
X32165229Y-40972661D01*
X31637088Y-40972200D01*
X31275721Y-41121513D01*
X31275721Y-34347400D01*
X31081947Y-33878431D01*
X30723456Y-33519314D01*
X30254826Y-33324721D01*
X29747400Y-33324279D01*
X29278431Y-33518053D01*
X28919314Y-33876544D01*
X28724721Y-34345174D01*
X28724279Y-34852600D01*
X28918053Y-35321569D01*
X29276544Y-35680686D01*
X29745174Y-35875279D01*
X30252600Y-35875721D01*
X30721569Y-35681947D01*
X31080686Y-35323456D01*
X31275279Y-34854826D01*
X31275721Y-34347400D01*
X31275721Y-41121513D01*
X31148974Y-41173884D01*
X30775197Y-41547010D01*
X30572661Y-42034771D01*
X30572200Y-42562912D01*
X30773884Y-43051026D01*
X31147010Y-43424803D01*
X31634771Y-43627339D01*
X32162912Y-43627800D01*
X32651026Y-43426116D01*
X33024803Y-43052990D01*
X33227339Y-42565229D01*
X33227800Y-42037088D01*
X33227800Y-49313000D01*
X28627000Y-49313000D01*
X28627000Y-35051136D01*
X27021677Y-33273814D01*
X27021677Y-26097703D01*
X26866490Y-25722123D01*
X26579389Y-25434520D01*
X26521677Y-25410555D01*
X26521677Y-22647703D01*
X26521677Y-20547703D01*
X26366490Y-20172123D01*
X26079389Y-19884520D01*
X25704080Y-19728678D01*
X25297703Y-19728323D01*
X24922123Y-19883510D01*
X24634520Y-20170611D01*
X24571677Y-20321953D01*
X24571677Y-13897703D01*
X24416490Y-13522123D01*
X24129389Y-13234520D01*
X23754080Y-13078678D01*
X23347703Y-13078323D01*
X22972123Y-13233510D01*
X22684520Y-13520611D01*
X22528678Y-13895920D01*
X22528323Y-14302297D01*
X22683510Y-14677877D01*
X22970611Y-14965480D01*
X23345920Y-15121322D01*
X23752297Y-15121677D01*
X24127877Y-14966490D01*
X24415480Y-14679389D01*
X24571322Y-14304080D01*
X24571677Y-13897703D01*
X24571677Y-20321953D01*
X24478678Y-20545920D01*
X24478323Y-20952297D01*
X24633510Y-21327877D01*
X24920611Y-21615480D01*
X25295920Y-21771322D01*
X25702297Y-21771677D01*
X26077877Y-21616490D01*
X26365480Y-21329389D01*
X26521322Y-20954080D01*
X26521677Y-20547703D01*
X26521677Y-22647703D01*
X26366490Y-22272123D01*
X26079389Y-21984520D01*
X25704080Y-21828678D01*
X25297703Y-21828323D01*
X24922123Y-21983510D01*
X24634520Y-22270611D01*
X24478678Y-22645920D01*
X24478323Y-23052297D01*
X24633510Y-23427877D01*
X24920611Y-23715480D01*
X25295920Y-23871322D01*
X25702297Y-23871677D01*
X26077877Y-23716490D01*
X26365480Y-23429389D01*
X26521322Y-23054080D01*
X26521677Y-22647703D01*
X26521677Y-25410555D01*
X26338014Y-25334292D01*
X26371322Y-25254080D01*
X26371677Y-24847703D01*
X26216490Y-24472123D01*
X25929389Y-24184520D01*
X25554080Y-24028678D01*
X25147703Y-24028323D01*
X24772123Y-24183510D01*
X24484520Y-24470611D01*
X24328678Y-24845920D01*
X24328323Y-25252297D01*
X24483510Y-25627877D01*
X24770611Y-25915480D01*
X25011985Y-26015707D01*
X24978678Y-26095920D01*
X24978323Y-26502297D01*
X25133510Y-26877877D01*
X25420611Y-27165480D01*
X25795920Y-27321322D01*
X26202297Y-27321677D01*
X26577877Y-27166490D01*
X26865480Y-26879389D01*
X27021322Y-26504080D01*
X27021677Y-26097703D01*
X27021677Y-33273814D01*
X23810305Y-29718367D01*
X24177877Y-29566490D01*
X24465480Y-29279389D01*
X24621322Y-28904080D01*
X24621677Y-28497703D01*
X24466490Y-28122123D01*
X24179389Y-27834520D01*
X23804080Y-27678678D01*
X23397703Y-27678323D01*
X23022123Y-27833510D01*
X22734520Y-28120611D01*
X22578678Y-28495920D01*
X22578323Y-28902297D01*
X22733510Y-29277877D01*
X22773000Y-29317436D01*
X22773000Y-29848522D01*
X27225287Y-34824608D01*
X26847400Y-34824279D01*
X26378431Y-35018053D01*
X26019314Y-35376544D01*
X25824721Y-35845174D01*
X25824279Y-36352600D01*
X26018053Y-36821569D01*
X26376544Y-37180686D01*
X26845174Y-37375279D01*
X27352600Y-37375721D01*
X27821569Y-37181947D01*
X27873000Y-37130605D01*
X27873000Y-49313000D01*
X27577800Y-49313000D01*
X27577800Y-43037088D01*
X27376116Y-42548974D01*
X27002990Y-42175197D01*
X26515229Y-41972661D01*
X25987088Y-41972200D01*
X25498974Y-42173884D01*
X25299980Y-42372531D01*
X25102990Y-42175197D01*
X24615229Y-41972661D01*
X24087088Y-41972200D01*
X23598974Y-42173884D01*
X23399980Y-42372531D01*
X23202990Y-42175197D01*
X22715229Y-41972661D01*
X22187088Y-41972200D01*
X21698974Y-42173884D01*
X21325197Y-42547010D01*
X21122661Y-43034771D01*
X21122200Y-43562912D01*
X21323884Y-44051026D01*
X21697010Y-44424803D01*
X21826697Y-44478654D01*
X21447703Y-44478323D01*
X21072123Y-44633510D01*
X20784520Y-44920611D01*
X20628678Y-45295920D01*
X20628323Y-45702297D01*
X20783510Y-46077877D01*
X21070611Y-46365480D01*
X21445920Y-46521322D01*
X21852297Y-46521677D01*
X22227877Y-46366490D01*
X22515480Y-46079389D01*
X22671322Y-45704080D01*
X22671677Y-45297703D01*
X22516490Y-44922123D01*
X22229389Y-44634520D01*
X22212152Y-44627362D01*
X22712912Y-44627800D01*
X23201026Y-44426116D01*
X23400019Y-44227468D01*
X23597010Y-44424803D01*
X24084771Y-44627339D01*
X24612912Y-44627800D01*
X25101026Y-44426116D01*
X25300019Y-44227468D01*
X25497010Y-44424803D01*
X25984771Y-44627339D01*
X26512912Y-44627800D01*
X27001026Y-44426116D01*
X27374803Y-44052990D01*
X27577339Y-43565229D01*
X27577800Y-43037088D01*
X27577800Y-49313000D01*
X20171677Y-49313000D01*
X20171677Y-45297703D01*
X20016490Y-44922123D01*
X19729389Y-44634520D01*
X19567256Y-44567196D01*
X19567256Y-37807495D01*
X19342870Y-37264440D01*
X18927746Y-36848591D01*
X18385082Y-36623257D01*
X17797495Y-36622744D01*
X17254440Y-36847130D01*
X17121677Y-36979661D01*
X17121677Y-15650203D01*
X16966490Y-15274623D01*
X16679389Y-14987020D01*
X16304080Y-14831178D01*
X15897703Y-14830823D01*
X15522123Y-14986010D01*
X15234520Y-15273111D01*
X15078678Y-15648420D01*
X15078323Y-16054797D01*
X15133201Y-16187613D01*
X15022123Y-16233510D01*
X14734520Y-16520611D01*
X14578678Y-16895920D01*
X14578323Y-17302297D01*
X14733510Y-17677877D01*
X15020611Y-17965480D01*
X15395920Y-18121322D01*
X15802297Y-18121677D01*
X16177877Y-17966490D01*
X16465480Y-17679389D01*
X16621322Y-17304080D01*
X16621677Y-16897703D01*
X16566798Y-16764886D01*
X16677877Y-16718990D01*
X16965480Y-16431889D01*
X17121322Y-16056580D01*
X17121677Y-15650203D01*
X17121677Y-36979661D01*
X17071677Y-37029574D01*
X17071677Y-27697703D01*
X16916490Y-27322123D01*
X16629389Y-27034520D01*
X16254080Y-26878678D01*
X15847703Y-26878323D01*
X15821597Y-26889109D01*
X15821677Y-26797703D01*
X15666490Y-26422123D01*
X15379389Y-26134520D01*
X15004080Y-25978678D01*
X14597703Y-25978323D01*
X14249607Y-26122153D01*
X13904080Y-25978678D01*
X13497703Y-25978323D01*
X13122123Y-26133510D01*
X12834520Y-26420611D01*
X12775721Y-26562214D01*
X12775721Y-10947400D01*
X12581947Y-10478431D01*
X12223456Y-10119314D01*
X11754826Y-9924721D01*
X11247400Y-9924279D01*
X10778431Y-10118053D01*
X10419314Y-10476544D01*
X10224721Y-10945174D01*
X10224279Y-11452600D01*
X10418053Y-11921569D01*
X10776544Y-12280686D01*
X11245174Y-12475279D01*
X11752600Y-12475721D01*
X12221569Y-12281947D01*
X12580686Y-11923456D01*
X12775279Y-11454826D01*
X12775721Y-10947400D01*
X12775721Y-26562214D01*
X12678678Y-26795920D01*
X12678323Y-27202297D01*
X12833510Y-27577877D01*
X13120611Y-27865480D01*
X13495920Y-28021322D01*
X13902297Y-28021677D01*
X14250392Y-27877846D01*
X14595920Y-28021322D01*
X15002297Y-28021677D01*
X15028402Y-28010890D01*
X15028323Y-28102297D01*
X15183510Y-28477877D01*
X15470611Y-28765480D01*
X15845920Y-28921322D01*
X16252297Y-28921677D01*
X16627877Y-28766490D01*
X16915480Y-28479389D01*
X17071322Y-28104080D01*
X17071677Y-27697703D01*
X17071677Y-37029574D01*
X16838591Y-37262254D01*
X16820233Y-37306463D01*
X16802870Y-37264440D01*
X16471677Y-36932668D01*
X16471677Y-35247703D01*
X16316490Y-34872123D01*
X16029389Y-34584520D01*
X15654080Y-34428678D01*
X15247703Y-34428323D01*
X14872123Y-34583510D01*
X14584520Y-34870611D01*
X14428678Y-35245920D01*
X14428323Y-35652297D01*
X14583510Y-36027877D01*
X14870611Y-36315480D01*
X15245920Y-36471322D01*
X15652297Y-36471677D01*
X16027877Y-36316490D01*
X16315480Y-36029389D01*
X16471322Y-35654080D01*
X16471677Y-35247703D01*
X16471677Y-36932668D01*
X16387746Y-36848591D01*
X15845082Y-36623257D01*
X15257495Y-36622744D01*
X14714440Y-36847130D01*
X14298591Y-37262254D01*
X14073257Y-37804918D01*
X14072744Y-38392505D01*
X14297130Y-38935560D01*
X14712254Y-39351409D01*
X14748583Y-39366494D01*
X14674440Y-39397130D01*
X14258591Y-39812254D01*
X14033257Y-40354918D01*
X14032744Y-40942505D01*
X14257130Y-41485560D01*
X14672254Y-41901409D01*
X15214918Y-42126743D01*
X15802505Y-42127256D01*
X16345560Y-41902870D01*
X16761409Y-41487746D01*
X16986743Y-40945082D01*
X16987256Y-40357495D01*
X16762870Y-39814440D01*
X16347746Y-39398591D01*
X16311416Y-39383505D01*
X16385560Y-39352870D01*
X16801409Y-38937746D01*
X16819766Y-38893536D01*
X16837130Y-38935560D01*
X17252254Y-39351409D01*
X17794918Y-39576743D01*
X18382505Y-39577256D01*
X18925560Y-39352870D01*
X19341409Y-38937746D01*
X19566743Y-38395082D01*
X19567256Y-37807495D01*
X19567256Y-44567196D01*
X19354080Y-44478678D01*
X18947703Y-44478323D01*
X18572123Y-44633510D01*
X18284520Y-44920611D01*
X18128678Y-45295920D01*
X18128323Y-45702297D01*
X18283510Y-46077877D01*
X18570611Y-46365480D01*
X18945920Y-46521322D01*
X19352297Y-46521677D01*
X19727877Y-46366490D01*
X20015480Y-46079389D01*
X20171322Y-45704080D01*
X20171677Y-45297703D01*
X20171677Y-49313000D01*
X17621677Y-49313000D01*
X17621677Y-45297703D01*
X17466490Y-44922123D01*
X17179389Y-44634520D01*
X16804080Y-44478678D01*
X16397703Y-44478323D01*
X16022123Y-44633510D01*
X15734520Y-44920611D01*
X15578678Y-45295920D01*
X15578323Y-45702297D01*
X15733510Y-46077877D01*
X16020611Y-46365480D01*
X16395920Y-46521322D01*
X16802297Y-46521677D01*
X17177877Y-46366490D01*
X17465480Y-46079389D01*
X17621322Y-45704080D01*
X17621677Y-45297703D01*
X17621677Y-49313000D01*
X9407078Y-49313000D01*
X9722561Y-49182645D01*
X10778936Y-48128112D01*
X11351347Y-46749593D01*
X11352650Y-45256955D01*
X10782645Y-43877439D01*
X9921677Y-43014967D01*
X9921677Y-28697703D01*
X9766490Y-28322123D01*
X9479389Y-28034520D01*
X9104080Y-27878678D01*
X8852234Y-27878457D01*
X8852234Y-11097250D01*
X8646838Y-10600154D01*
X8266846Y-10219499D01*
X7770109Y-10013235D01*
X7232250Y-10012766D01*
X6735154Y-10218162D01*
X6354499Y-10598154D01*
X6148235Y-11094891D01*
X6147766Y-11632750D01*
X6353162Y-12129846D01*
X6733154Y-12510501D01*
X7229891Y-12716765D01*
X7767750Y-12717234D01*
X8264846Y-12511838D01*
X8645501Y-12131846D01*
X8851765Y-11635109D01*
X8852234Y-11097250D01*
X8852234Y-27878457D01*
X8697703Y-27878323D01*
X8322123Y-28033510D01*
X8121677Y-28233606D01*
X8121677Y-25097703D01*
X7966490Y-24722123D01*
X7679389Y-24434520D01*
X7304080Y-24278678D01*
X6897703Y-24278323D01*
X6522123Y-24433510D01*
X6234520Y-24720611D01*
X6078678Y-25095920D01*
X6078404Y-25409540D01*
X6004080Y-25378678D01*
X5597703Y-25378323D01*
X5222123Y-25533510D01*
X4934520Y-25820611D01*
X4778678Y-26195920D01*
X4778323Y-26602297D01*
X4933510Y-26977877D01*
X5220611Y-27265480D01*
X5595920Y-27421322D01*
X6002297Y-27421677D01*
X6377877Y-27266490D01*
X6665480Y-26979389D01*
X6821322Y-26604080D01*
X6821595Y-26290459D01*
X6895920Y-26321322D01*
X7302297Y-26321677D01*
X7677877Y-26166490D01*
X7965480Y-25879389D01*
X8121322Y-25504080D01*
X8121677Y-25097703D01*
X8121677Y-28233606D01*
X8034520Y-28320611D01*
X7878678Y-28695920D01*
X7878323Y-29102297D01*
X8033510Y-29477877D01*
X8320611Y-29765480D01*
X8695920Y-29921322D01*
X9102297Y-29921677D01*
X9477877Y-29766490D01*
X9765480Y-29479389D01*
X9921322Y-29104080D01*
X9921677Y-28697703D01*
X9921677Y-43014967D01*
X9728112Y-42821064D01*
X8852234Y-42457367D01*
X8852234Y-38267250D01*
X8646838Y-37770154D01*
X8266846Y-37389499D01*
X7770109Y-37183235D01*
X7621677Y-37183105D01*
X7621677Y-28097703D01*
X7466490Y-27722123D01*
X7179389Y-27434520D01*
X6804080Y-27278678D01*
X6397703Y-27278323D01*
X6022123Y-27433510D01*
X5734520Y-27720611D01*
X5578678Y-28095920D01*
X5578323Y-28502297D01*
X5733510Y-28877877D01*
X6020611Y-29165480D01*
X6395920Y-29321322D01*
X6802297Y-29321677D01*
X7177877Y-29166490D01*
X7465480Y-28879389D01*
X7621322Y-28504080D01*
X7621677Y-28097703D01*
X7621677Y-37183105D01*
X7232250Y-37182766D01*
X6735154Y-37388162D01*
X6421677Y-37701093D01*
X6421677Y-30697703D01*
X6266490Y-30322123D01*
X5979389Y-30034520D01*
X5604080Y-29878678D01*
X5197703Y-29878323D01*
X4822123Y-30033510D01*
X4534520Y-30320611D01*
X4378678Y-30695920D01*
X4378323Y-31102297D01*
X4533510Y-31477877D01*
X4820611Y-31765480D01*
X5195920Y-31921322D01*
X5602297Y-31921677D01*
X5977877Y-31766490D01*
X6265480Y-31479389D01*
X6421322Y-31104080D01*
X6421677Y-30697703D01*
X6421677Y-37701093D01*
X6354499Y-37768154D01*
X6221677Y-38088023D01*
X6221677Y-35297703D01*
X6066490Y-34922123D01*
X5779389Y-34634520D01*
X5404080Y-34478678D01*
X4997703Y-34478323D01*
X4622123Y-34633510D01*
X4334520Y-34920611D01*
X4178678Y-35295920D01*
X4178323Y-35702297D01*
X4333510Y-36077877D01*
X4620611Y-36365480D01*
X4995920Y-36521322D01*
X5402297Y-36521677D01*
X5777877Y-36366490D01*
X6065480Y-36079389D01*
X6221322Y-35704080D01*
X6221677Y-35297703D01*
X6221677Y-38088023D01*
X6148235Y-38264891D01*
X6147766Y-38802750D01*
X6353162Y-39299846D01*
X6733154Y-39680501D01*
X7229891Y-39886765D01*
X7767750Y-39887234D01*
X8264846Y-39681838D01*
X8645501Y-39301846D01*
X8851765Y-38805109D01*
X8852234Y-38267250D01*
X8852234Y-42457367D01*
X8349593Y-42248653D01*
X6856955Y-42247350D01*
X5477439Y-42817355D01*
X4775721Y-43517849D01*
X4775721Y-38347400D01*
X4581947Y-37878431D01*
X4223456Y-37519314D01*
X4075721Y-37457968D01*
X4075721Y-11247400D01*
X3925721Y-10884372D01*
X3925721Y-8447400D01*
X3731947Y-7978431D01*
X3373456Y-7619314D01*
X2904826Y-7424721D01*
X2397400Y-7424279D01*
X1928431Y-7618053D01*
X1569314Y-7976544D01*
X1374721Y-8445174D01*
X1374279Y-8952600D01*
X1568053Y-9421569D01*
X1926544Y-9780686D01*
X2395174Y-9975279D01*
X2902600Y-9975721D01*
X3371569Y-9781947D01*
X3730686Y-9423456D01*
X3925279Y-8954826D01*
X3925721Y-8447400D01*
X3925721Y-10884372D01*
X3881947Y-10778431D01*
X3523456Y-10419314D01*
X3054826Y-10224721D01*
X2547400Y-10224279D01*
X2078431Y-10418053D01*
X1719314Y-10776544D01*
X1524721Y-11245174D01*
X1524279Y-11752600D01*
X1718053Y-12221569D01*
X2076544Y-12580686D01*
X2545174Y-12775279D01*
X3052600Y-12775721D01*
X3521569Y-12581947D01*
X3880686Y-12223456D01*
X4075279Y-11754826D01*
X4075721Y-11247400D01*
X4075721Y-37457968D01*
X3754826Y-37324721D01*
X3247400Y-37324279D01*
X2778431Y-37518053D01*
X2721677Y-37574708D01*
X2721677Y-29497703D01*
X2721677Y-26697703D01*
X2566490Y-26322123D01*
X2279389Y-26034520D01*
X1904080Y-25878678D01*
X1497703Y-25878323D01*
X1122123Y-26033510D01*
X834520Y-26320611D01*
X678678Y-26695920D01*
X678323Y-27102297D01*
X833510Y-27477877D01*
X1120611Y-27765480D01*
X1495920Y-27921322D01*
X1902297Y-27921677D01*
X2277877Y-27766490D01*
X2565480Y-27479389D01*
X2721322Y-27104080D01*
X2721677Y-26697703D01*
X2721677Y-29497703D01*
X2566490Y-29122123D01*
X2279389Y-28834520D01*
X1904080Y-28678678D01*
X1497703Y-28678323D01*
X1122123Y-28833510D01*
X834520Y-29120611D01*
X678678Y-29495920D01*
X678323Y-29902297D01*
X833510Y-30277877D01*
X1120611Y-30565480D01*
X1495920Y-30721322D01*
X1902297Y-30721677D01*
X2277877Y-30566490D01*
X2565480Y-30279389D01*
X2721322Y-29904080D01*
X2721677Y-29497703D01*
X2721677Y-37574708D01*
X2419314Y-37876544D01*
X2224721Y-38345174D01*
X2224279Y-38852600D01*
X2418053Y-39321569D01*
X2776544Y-39680686D01*
X3093982Y-39812498D01*
X2922123Y-39883510D01*
X2634520Y-40170611D01*
X2478678Y-40545920D01*
X2478323Y-40952297D01*
X2633510Y-41327877D01*
X2920611Y-41615480D01*
X3295920Y-41771322D01*
X3702297Y-41771677D01*
X4077877Y-41616490D01*
X4365480Y-41329389D01*
X4521322Y-40954080D01*
X4521677Y-40547703D01*
X4366490Y-40172123D01*
X4079389Y-39884520D01*
X3905776Y-39812429D01*
X4221569Y-39681947D01*
X4580686Y-39323456D01*
X4775279Y-38854826D01*
X4775721Y-38347400D01*
X4775721Y-43517849D01*
X4421064Y-43871888D01*
X3848653Y-45250407D01*
X3847350Y-46743045D01*
X4417355Y-48122561D01*
X5471888Y-49178936D01*
X5794750Y-49313000D01*
X3450000Y-49313000D01*
X3175721Y-49313000D01*
X3175721Y-42147400D01*
X2981947Y-41678431D01*
X2623456Y-41319314D01*
X2154826Y-41124721D01*
X1647400Y-41124279D01*
X1178431Y-41318053D01*
X819314Y-41676544D01*
X624721Y-42145174D01*
X624279Y-42652600D01*
X818053Y-43121569D01*
X1176544Y-43480686D01*
X1645174Y-43675279D01*
X2152600Y-43675721D01*
X2621569Y-43481947D01*
X2980686Y-43123456D01*
X3175279Y-42654826D01*
X3175721Y-42147400D01*
X3175721Y-49313000D01*
X3000000Y-49313000D01*
X587000Y-49313000D01*
X587000Y-587000D01*
X5792921Y-587000D01*
X5477439Y-717355D01*
X4421064Y-1771888D01*
X3848653Y-3150407D01*
X3847350Y-4643045D01*
X4417355Y-6022561D01*
X4679980Y-6285645D01*
X4322123Y-6433510D01*
X4034520Y-6720611D01*
X3878678Y-7095920D01*
X3878323Y-7502297D01*
X4033510Y-7877877D01*
X4320611Y-8165480D01*
X4695920Y-8321322D01*
X5102297Y-8321677D01*
X5477877Y-8166490D01*
X5765480Y-7879389D01*
X5921322Y-7504080D01*
X5921530Y-7265643D01*
X6850407Y-7651347D01*
X8343045Y-7652650D01*
X9722561Y-7082645D01*
X10778936Y-6028112D01*
X11351347Y-4649593D01*
X11352650Y-3156955D01*
X10782645Y-1777439D01*
X9728112Y-721064D01*
X9405249Y-587000D01*
X44192921Y-587000D01*
X43877439Y-717355D01*
X42821064Y-1771888D01*
X42248653Y-3150407D01*
X42247350Y-4643045D01*
X42817355Y-6022561D01*
X43871888Y-7078936D01*
X45250407Y-7651347D01*
X46743045Y-7652650D01*
X48122561Y-7082645D01*
X49178936Y-6028112D01*
X49313000Y-5705249D01*
X49313000Y-9563000D01*
X44200000Y-9563000D01*
X44143297Y-9574279D01*
X44085483Y-9574279D01*
X43894141Y-9612339D01*
X43894138Y-9612339D01*
X43894137Y-9612340D01*
X43795856Y-9653049D01*
X43682539Y-9699987D01*
X43682537Y-9699988D01*
X43682536Y-9699989D01*
X43520325Y-9808376D01*
X43439350Y-9889350D01*
X43358376Y-9970325D01*
X43249989Y-10132536D01*
X43249988Y-10132537D01*
X43249987Y-10132539D01*
X43183607Y-10292794D01*
X43162340Y-10344137D01*
X43162339Y-10344137D01*
X43162339Y-10344140D01*
X43124279Y-10535483D01*
X43124279Y-10593292D01*
X43124279Y-10593295D01*
X43113000Y-10650000D01*
X43113000Y-10700000D01*
X43124279Y-10756704D01*
X43124279Y-10756707D01*
X43124279Y-10814517D01*
X43162339Y-11005860D01*
X43162339Y-11005862D01*
X43162340Y-11005863D01*
X43183607Y-11057206D01*
X43249987Y-11217461D01*
X43249988Y-11217462D01*
X43249989Y-11217464D01*
X43358373Y-11379670D01*
X43358376Y-11379675D01*
X43439350Y-11460649D01*
X43520325Y-11541624D01*
X43520330Y-11541627D01*
X43682536Y-11650011D01*
X43682537Y-11650011D01*
X43682539Y-11650013D01*
X43795856Y-11696950D01*
X43894137Y-11737660D01*
X43894138Y-11737660D01*
X43894141Y-11737661D01*
X44085483Y-11775721D01*
X44143297Y-11775721D01*
X44200000Y-11787000D01*
X44213000Y-11787000D01*
X44213000Y-18473000D01*
X41921094Y-18473000D01*
X41804826Y-18424721D01*
X41297400Y-18424279D01*
X41179486Y-18473000D01*
X40775721Y-18473000D01*
X40775721Y-9347400D01*
X40581947Y-8878431D01*
X40223456Y-8519314D01*
X39754826Y-8324721D01*
X39247400Y-8324279D01*
X38778431Y-8518053D01*
X38419314Y-8876544D01*
X38224721Y-9345174D01*
X38224279Y-9852600D01*
X38418053Y-10321569D01*
X38776544Y-10680686D01*
X39245174Y-10875279D01*
X39752600Y-10875721D01*
X40221569Y-10681947D01*
X40580686Y-10323456D01*
X40775279Y-9854826D01*
X40775721Y-9347400D01*
X40775721Y-18473000D01*
X39452968Y-18473000D01*
X29252968Y-8173000D01*
X18047395Y-8173000D01*
X17473000Y-8747395D01*
X17473000Y-8894167D01*
X17402870Y-8724440D01*
X16987746Y-8308591D01*
X16445082Y-8083257D01*
X15857495Y-8082744D01*
X15314440Y-8307130D01*
X14898591Y-8722254D01*
X14673257Y-9264918D01*
X14672744Y-9852505D01*
X14897130Y-10395560D01*
X15312254Y-10811409D01*
X15356463Y-10829766D01*
X15314440Y-10847130D01*
X14898591Y-11262254D01*
X14673257Y-11804918D01*
X14672744Y-12392505D01*
X14897130Y-12935560D01*
X15312254Y-13351409D01*
X15854918Y-13576743D01*
X16442505Y-13577256D01*
X16985560Y-13352870D01*
X17401409Y-12937746D01*
X17473000Y-12765335D01*
X17473000Y-16427000D01*
X18088530Y-16427000D01*
X18233510Y-16777877D01*
X18520611Y-17065480D01*
X18895920Y-17221322D01*
X19302297Y-17221677D01*
X19677877Y-17066490D01*
X19965480Y-16779389D01*
X20121322Y-16404080D01*
X20121677Y-15997703D01*
X19966490Y-15622123D01*
X19679389Y-15334520D01*
X19304080Y-15178678D01*
X18897703Y-15178323D01*
X18522123Y-15333510D01*
X18234520Y-15620611D01*
X18227000Y-15638721D01*
X18227000Y-9052605D01*
X18352605Y-8927000D01*
X28947042Y-8927000D01*
X39373000Y-19452253D01*
X39373000Y-20646521D01*
X40541098Y-22027000D01*
X44213000Y-22027000D01*
X44213000Y-31613000D01*
X44200000Y-31613000D01*
X44143297Y-31624279D01*
X44085483Y-31624279D01*
X43894141Y-31662339D01*
X43894138Y-31662339D01*
X43894137Y-31662340D01*
X43795856Y-31703049D01*
X43682539Y-31749987D01*
X43682537Y-31749988D01*
X43682536Y-31749989D01*
X43520325Y-31858376D01*
X43439350Y-31939350D01*
X43358376Y-32020325D01*
X43249989Y-32182536D01*
X43249988Y-32182537D01*
X43249987Y-32182539D01*
X43183607Y-32342794D01*
X43162340Y-32394137D01*
X43162339Y-32394137D01*
X43162339Y-32394140D01*
X43124279Y-32585483D01*
X43124279Y-32643292D01*
X43124279Y-32643295D01*
X43113000Y-32700000D01*
X43113000Y-32750000D01*
X43124279Y-32806704D01*
X43124279Y-32806707D01*
X43124279Y-32864517D01*
X43162339Y-33055860D01*
X43162339Y-33055862D01*
X43162340Y-33055863D01*
X43183607Y-33107206D01*
X43249987Y-33267461D01*
X43249988Y-33267462D01*
X43249989Y-33267464D01*
X43358373Y-33429670D01*
X43358376Y-33429675D01*
X43439350Y-33510649D01*
X43520325Y-33591624D01*
X43520330Y-33591627D01*
X43682536Y-33700011D01*
X43682537Y-33700011D01*
X43682539Y-33700013D01*
X43795856Y-33746950D01*
X43894137Y-33787660D01*
X43894138Y-33787660D01*
X43894141Y-33787661D01*
X44085483Y-33825721D01*
X44143297Y-33825721D01*
X44200000Y-33837000D01*
X49313000Y-33837000D01*
X49313000Y-44192921D01*
M02*
