%FSLAX46Y46*%
G04 Gerber Fmt 4.6, Leading zero omitted, Abs format (unit mm)*
G04 Created by KiCad (PCBNEW (2014-08-05 BZR 5054)-product) date Sun 07 Dec 2014 10:24:09 PM PST*
%MOMM*%
G01*
G04 APERTURE LIST*
%ADD10C,0.100000*%
%ADD11C,0.099060*%
%ADD12C,0.127000*%
%ADD13C,0.150000*%
%ADD14C,0.002540*%
G04 APERTURE END LIST*
D10*
X34061905Y-2252381D02*
X34061905Y-1252381D01*
X34061905Y-1728571D02*
X33490476Y-1728571D01*
X33490476Y-2252381D02*
X33490476Y-1252381D01*
X32633333Y-2204762D02*
X32728571Y-2252381D01*
X32919048Y-2252381D01*
X33014286Y-2204762D01*
X33061905Y-2109524D01*
X33061905Y-1728571D01*
X33014286Y-1633333D01*
X32919048Y-1585714D01*
X32728571Y-1585714D01*
X32633333Y-1633333D01*
X32585714Y-1728571D01*
X32585714Y-1823810D01*
X33061905Y-1919048D01*
X32157143Y-2252381D02*
X32157143Y-1585714D01*
X32157143Y-1776190D02*
X32109524Y-1680952D01*
X32061905Y-1633333D01*
X31966667Y-1585714D01*
X31871428Y-1585714D01*
X31538095Y-2252381D02*
X31538095Y-1585714D01*
X31538095Y-1680952D02*
X31490476Y-1633333D01*
X31395238Y-1585714D01*
X31252380Y-1585714D01*
X31157142Y-1633333D01*
X31109523Y-1728571D01*
X31109523Y-2252381D01*
X31109523Y-1728571D02*
X31061904Y-1633333D01*
X30966666Y-1585714D01*
X30823809Y-1585714D01*
X30728571Y-1633333D01*
X30680952Y-1728571D01*
X30680952Y-2252381D01*
X29823809Y-2204762D02*
X29919047Y-2252381D01*
X30109524Y-2252381D01*
X30204762Y-2204762D01*
X30252381Y-2109524D01*
X30252381Y-1728571D01*
X30204762Y-1633333D01*
X30109524Y-1585714D01*
X29919047Y-1585714D01*
X29823809Y-1633333D01*
X29776190Y-1728571D01*
X29776190Y-1823810D01*
X30252381Y-1919048D01*
X29395238Y-2204762D02*
X29300000Y-2252381D01*
X29109524Y-2252381D01*
X29014285Y-2204762D01*
X28966666Y-2109524D01*
X28966666Y-2061905D01*
X29014285Y-1966667D01*
X29109524Y-1919048D01*
X29252381Y-1919048D01*
X29347619Y-1871429D01*
X29395238Y-1776190D01*
X29395238Y-1728571D01*
X29347619Y-1633333D01*
X29252381Y-1585714D01*
X29109524Y-1585714D01*
X29014285Y-1633333D01*
X28538095Y-1871429D02*
X27776190Y-1871429D01*
X26823809Y-2252381D02*
X27300000Y-2252381D01*
X27300000Y-1252381D01*
X26490476Y-2252381D02*
X26490476Y-1585714D01*
X26490476Y-1252381D02*
X26538095Y-1300000D01*
X26490476Y-1347619D01*
X26442857Y-1300000D01*
X26490476Y-1252381D01*
X26490476Y-1347619D01*
X26157143Y-1585714D02*
X25776191Y-1585714D01*
X26014286Y-1252381D02*
X26014286Y-2109524D01*
X25966667Y-2204762D01*
X25871429Y-2252381D01*
X25776191Y-2252381D01*
X25061904Y-2204762D02*
X25157142Y-2252381D01*
X25347619Y-2252381D01*
X25442857Y-2204762D01*
X25490476Y-2109524D01*
X25490476Y-1728571D01*
X25442857Y-1633333D01*
X25347619Y-1585714D01*
X25157142Y-1585714D01*
X25061904Y-1633333D01*
X25014285Y-1728571D01*
X25014285Y-1823810D01*
X25490476Y-1919048D01*
X23299999Y-2252381D02*
X23871428Y-2252381D01*
X23585714Y-2252381D02*
X23585714Y-1252381D01*
X23680952Y-1395238D01*
X23776190Y-1490476D01*
X23871428Y-1538095D01*
X22871428Y-2157143D02*
X22823809Y-2204762D01*
X22871428Y-2252381D01*
X22919047Y-2204762D01*
X22871428Y-2157143D01*
X22871428Y-2252381D01*
X22442857Y-1347619D02*
X22395238Y-1300000D01*
X22300000Y-1252381D01*
X22061904Y-1252381D01*
X21966666Y-1300000D01*
X21919047Y-1347619D01*
X21871428Y-1442857D01*
X21871428Y-1538095D01*
X21919047Y-1680952D01*
X22490476Y-2252381D01*
X21871428Y-2252381D01*
X20919047Y-2252381D02*
X21490476Y-2252381D01*
X21204762Y-2252381D02*
X21204762Y-1252381D01*
X21300000Y-1395238D01*
X21395238Y-1490476D01*
X21490476Y-1538095D01*
X33252381Y-2990476D02*
X33347619Y-2942857D01*
X33538095Y-2942857D01*
X33633333Y-2990476D01*
X33728571Y-3085714D01*
X33776190Y-3180952D01*
X33776190Y-3371429D01*
X33728571Y-3466667D01*
X33633333Y-3561905D01*
X33538095Y-3609524D01*
X33347619Y-3609524D01*
X33252381Y-3561905D01*
X33442857Y-2609524D02*
X33680952Y-2657143D01*
X33919048Y-2800000D01*
X34061905Y-3038095D01*
X34109524Y-3276190D01*
X34061905Y-3514286D01*
X33919048Y-3752381D01*
X33680952Y-3895238D01*
X33442857Y-3942857D01*
X33204762Y-3895238D01*
X32966667Y-3752381D01*
X32823810Y-3514286D01*
X32776190Y-3276190D01*
X32823810Y-3038095D01*
X32966667Y-2800000D01*
X33204762Y-2657143D01*
X33442857Y-2609524D01*
X31633333Y-2847619D02*
X31585714Y-2800000D01*
X31490476Y-2752381D01*
X31252380Y-2752381D01*
X31157142Y-2800000D01*
X31109523Y-2847619D01*
X31061904Y-2942857D01*
X31061904Y-3038095D01*
X31109523Y-3180952D01*
X31680952Y-3752381D01*
X31061904Y-3752381D01*
X30442857Y-2752381D02*
X30347618Y-2752381D01*
X30252380Y-2800000D01*
X30204761Y-2847619D01*
X30157142Y-2942857D01*
X30109523Y-3133333D01*
X30109523Y-3371429D01*
X30157142Y-3561905D01*
X30204761Y-3657143D01*
X30252380Y-3704762D01*
X30347618Y-3752381D01*
X30442857Y-3752381D01*
X30538095Y-3704762D01*
X30585714Y-3657143D01*
X30633333Y-3561905D01*
X30680952Y-3371429D01*
X30680952Y-3133333D01*
X30633333Y-2942857D01*
X30585714Y-2847619D01*
X30538095Y-2800000D01*
X30442857Y-2752381D01*
X29157142Y-3752381D02*
X29728571Y-3752381D01*
X29442857Y-3752381D02*
X29442857Y-2752381D01*
X29538095Y-2895238D01*
X29633333Y-2990476D01*
X29728571Y-3038095D01*
X28299999Y-3085714D02*
X28299999Y-3752381D01*
X28538095Y-2704762D02*
X28776190Y-3419048D01*
X28157142Y-3419048D01*
X27061904Y-3704762D02*
X26919047Y-3752381D01*
X26680951Y-3752381D01*
X26585713Y-3704762D01*
X26538094Y-3657143D01*
X26490475Y-3561905D01*
X26490475Y-3466667D01*
X26538094Y-3371429D01*
X26585713Y-3323810D01*
X26680951Y-3276190D01*
X26871428Y-3228571D01*
X26966666Y-3180952D01*
X27014285Y-3133333D01*
X27061904Y-3038095D01*
X27061904Y-2942857D01*
X27014285Y-2847619D01*
X26966666Y-2800000D01*
X26871428Y-2752381D01*
X26633332Y-2752381D01*
X26490475Y-2800000D01*
X25919047Y-3752381D02*
X26014285Y-3704762D01*
X26061904Y-3657143D01*
X26109523Y-3561905D01*
X26109523Y-3276190D01*
X26061904Y-3180952D01*
X26014285Y-3133333D01*
X25919047Y-3085714D01*
X25776189Y-3085714D01*
X25680951Y-3133333D01*
X25633332Y-3180952D01*
X25585713Y-3276190D01*
X25585713Y-3561905D01*
X25633332Y-3657143D01*
X25680951Y-3704762D01*
X25776189Y-3752381D01*
X25919047Y-3752381D01*
X25299999Y-3085714D02*
X24919047Y-3085714D01*
X25157142Y-3752381D02*
X25157142Y-2895238D01*
X25109523Y-2800000D01*
X25014285Y-2752381D01*
X24919047Y-2752381D01*
X24728570Y-3085714D02*
X24347618Y-3085714D01*
X24585713Y-2752381D02*
X24585713Y-3609524D01*
X24538094Y-3704762D01*
X24442856Y-3752381D01*
X24347618Y-3752381D01*
X23633331Y-3704762D02*
X23728569Y-3752381D01*
X23919046Y-3752381D01*
X24014284Y-3704762D01*
X24061903Y-3609524D01*
X24061903Y-3228571D01*
X24014284Y-3133333D01*
X23919046Y-3085714D01*
X23728569Y-3085714D01*
X23633331Y-3133333D01*
X23585712Y-3228571D01*
X23585712Y-3323810D01*
X24061903Y-3419048D01*
X23157141Y-3752381D02*
X23157141Y-3085714D01*
X23157141Y-3276190D02*
X23109522Y-3180952D01*
X23061903Y-3133333D01*
X22966665Y-3085714D01*
X22871426Y-3085714D01*
X22538093Y-3752381D02*
X22538093Y-2752381D01*
X22538093Y-3228571D02*
X21966664Y-3228571D01*
X21966664Y-3752381D02*
X21966664Y-2752381D01*
X21061902Y-3752381D02*
X21061902Y-3228571D01*
X21109521Y-3133333D01*
X21204759Y-3085714D01*
X21395236Y-3085714D01*
X21490474Y-3133333D01*
X21061902Y-3704762D02*
X21157140Y-3752381D01*
X21395236Y-3752381D01*
X21490474Y-3704762D01*
X21538093Y-3609524D01*
X21538093Y-3514286D01*
X21490474Y-3419048D01*
X21395236Y-3371429D01*
X21157140Y-3371429D01*
X21061902Y-3323810D01*
X20585712Y-3752381D02*
X20585712Y-3085714D01*
X20585712Y-3276190D02*
X20538093Y-3180952D01*
X20490474Y-3133333D01*
X20395236Y-3085714D01*
X20299997Y-3085714D01*
X19538092Y-3752381D02*
X19538092Y-2752381D01*
X19538092Y-3704762D02*
X19633330Y-3752381D01*
X19823807Y-3752381D01*
X19919045Y-3704762D01*
X19966664Y-3657143D01*
X20014283Y-3561905D01*
X20014283Y-3276190D01*
X19966664Y-3180952D01*
X19919045Y-3133333D01*
X19823807Y-3085714D01*
X19633330Y-3085714D01*
X19538092Y-3133333D01*
X19157140Y-3085714D02*
X18966664Y-3752381D01*
X18776187Y-3276190D01*
X18585711Y-3752381D01*
X18395235Y-3085714D01*
X17585711Y-3752381D02*
X17585711Y-3228571D01*
X17633330Y-3133333D01*
X17728568Y-3085714D01*
X17919045Y-3085714D01*
X18014283Y-3133333D01*
X17585711Y-3704762D02*
X17680949Y-3752381D01*
X17919045Y-3752381D01*
X18014283Y-3704762D01*
X18061902Y-3609524D01*
X18061902Y-3514286D01*
X18014283Y-3419048D01*
X17919045Y-3371429D01*
X17680949Y-3371429D01*
X17585711Y-3323810D01*
X17109521Y-3752381D02*
X17109521Y-3085714D01*
X17109521Y-3276190D02*
X17061902Y-3180952D01*
X17014283Y-3133333D01*
X16919045Y-3085714D01*
X16823806Y-3085714D01*
X16109520Y-3704762D02*
X16204758Y-3752381D01*
X16395235Y-3752381D01*
X16490473Y-3704762D01*
X16538092Y-3609524D01*
X16538092Y-3228571D01*
X16490473Y-3133333D01*
X16395235Y-3085714D01*
X16204758Y-3085714D01*
X16109520Y-3133333D01*
X16061901Y-3228571D01*
X16061901Y-3323810D01*
X16538092Y-3419048D01*
D11*
X25576000Y-23838000D02*
G75*
G03X25576000Y-23838000I-127000J0D01*
G74*
G01*
X26592000Y-23838000D02*
X25576000Y-23838000D01*
X25576000Y-23838000D02*
X25576000Y-25362000D01*
X25576000Y-25362000D02*
X26592000Y-25362000D01*
X27608000Y-25362000D02*
X28624000Y-25362000D01*
X28624000Y-25362000D02*
X28624000Y-23838000D01*
X28624000Y-23838000D02*
X27608000Y-23838000D01*
X21189000Y-17149000D02*
G75*
G03X21189000Y-17149000I-127000J0D01*
G74*
G01*
X21062000Y-18292000D02*
X21062000Y-17276000D01*
X21062000Y-17276000D02*
X19538000Y-17276000D01*
X19538000Y-17276000D02*
X19538000Y-18292000D01*
X19538000Y-19308000D02*
X19538000Y-20324000D01*
X19538000Y-20324000D02*
X21062000Y-20324000D01*
X21062000Y-20324000D02*
X21062000Y-19308000D01*
X16689000Y-17149000D02*
G75*
G03X16689000Y-17149000I-127000J0D01*
G74*
G01*
X16562000Y-18292000D02*
X16562000Y-17276000D01*
X16562000Y-17276000D02*
X15038000Y-17276000D01*
X15038000Y-17276000D02*
X15038000Y-18292000D01*
X15038000Y-19308000D02*
X15038000Y-20324000D01*
X15038000Y-20324000D02*
X16562000Y-20324000D01*
X16562000Y-20324000D02*
X16562000Y-19308000D01*
X15165000Y-27451000D02*
G75*
G03X15165000Y-27451000I-127000J0D01*
G74*
G01*
X15038000Y-26308000D02*
X15038000Y-27324000D01*
X15038000Y-27324000D02*
X16562000Y-27324000D01*
X16562000Y-27324000D02*
X16562000Y-26308000D01*
X16562000Y-25292000D02*
X16562000Y-24276000D01*
X16562000Y-24276000D02*
X15038000Y-24276000D01*
X15038000Y-24276000D02*
X15038000Y-25292000D01*
X25078000Y-25362000D02*
G75*
G03X25078000Y-25362000I-127000J0D01*
G74*
G01*
X23808000Y-25362000D02*
X24824000Y-25362000D01*
X24824000Y-25362000D02*
X24824000Y-23838000D01*
X24824000Y-23838000D02*
X23808000Y-23838000D01*
X22792000Y-23838000D02*
X21776000Y-23838000D01*
X21776000Y-23838000D02*
X21776000Y-25362000D01*
X21776000Y-25362000D02*
X22792000Y-25362000D01*
X19365000Y-16451000D02*
G75*
G03X19365000Y-16451000I-127000J0D01*
G74*
G01*
X19238000Y-15308000D02*
X19238000Y-16324000D01*
X19238000Y-16324000D02*
X20762000Y-16324000D01*
X20762000Y-16324000D02*
X20762000Y-15308000D01*
X20762000Y-14292000D02*
X20762000Y-13276000D01*
X20762000Y-13276000D02*
X19238000Y-13276000D01*
X19238000Y-13276000D02*
X19238000Y-14292000D01*
X14465000Y-16551000D02*
G75*
G03X14465000Y-16551000I-127000J0D01*
G74*
G01*
X14338000Y-15408000D02*
X14338000Y-16424000D01*
X14338000Y-16424000D02*
X15862000Y-16424000D01*
X15862000Y-16424000D02*
X15862000Y-15408000D01*
X15862000Y-14392000D02*
X15862000Y-13376000D01*
X15862000Y-13376000D02*
X14338000Y-13376000D01*
X14338000Y-13376000D02*
X14338000Y-14392000D01*
X17365000Y-27451000D02*
G75*
G03X17365000Y-27451000I-127000J0D01*
G74*
G01*
X17238000Y-26308000D02*
X17238000Y-27324000D01*
X17238000Y-27324000D02*
X18762000Y-27324000D01*
X18762000Y-27324000D02*
X18762000Y-26308000D01*
X18762000Y-25292000D02*
X18762000Y-24276000D01*
X18762000Y-24276000D02*
X17238000Y-24276000D01*
X17238000Y-24276000D02*
X17238000Y-25292000D01*
X25078000Y-23162000D02*
G75*
G03X25078000Y-23162000I-127000J0D01*
G74*
G01*
X23808000Y-23162000D02*
X24824000Y-23162000D01*
X24824000Y-23162000D02*
X24824000Y-21638000D01*
X24824000Y-21638000D02*
X23808000Y-21638000D01*
X22792000Y-21638000D02*
X21776000Y-21638000D01*
X21776000Y-21638000D02*
X21776000Y-23162000D01*
X21776000Y-23162000D02*
X22792000Y-23162000D01*
X25078000Y-20962000D02*
G75*
G03X25078000Y-20962000I-127000J0D01*
G74*
G01*
X23808000Y-20962000D02*
X24824000Y-20962000D01*
X24824000Y-20962000D02*
X24824000Y-19438000D01*
X24824000Y-19438000D02*
X23808000Y-19438000D01*
X22792000Y-19438000D02*
X21776000Y-19438000D01*
X21776000Y-19438000D02*
X21776000Y-20962000D01*
X21776000Y-20962000D02*
X22792000Y-20962000D01*
X18889000Y-17149000D02*
G75*
G03X18889000Y-17149000I-127000J0D01*
G74*
G01*
X18762000Y-18292000D02*
X18762000Y-17276000D01*
X18762000Y-17276000D02*
X17238000Y-17276000D01*
X17238000Y-17276000D02*
X17238000Y-18292000D01*
X17238000Y-19308000D02*
X17238000Y-20324000D01*
X17238000Y-20324000D02*
X18762000Y-20324000D01*
X18762000Y-20324000D02*
X18762000Y-19308000D01*
X25676000Y-21988000D02*
G75*
G03X25676000Y-21988000I-127000J0D01*
G74*
G01*
X26692000Y-21988000D02*
X25676000Y-21988000D01*
X25676000Y-21988000D02*
X25676000Y-23512000D01*
X25676000Y-23512000D02*
X26692000Y-23512000D01*
X27708000Y-23512000D02*
X28724000Y-23512000D01*
X28724000Y-23512000D02*
X28724000Y-21988000D01*
X28724000Y-21988000D02*
X27708000Y-21988000D01*
X25676000Y-20038000D02*
G75*
G03X25676000Y-20038000I-127000J0D01*
G74*
G01*
X26692000Y-20038000D02*
X25676000Y-20038000D01*
X25676000Y-20038000D02*
X25676000Y-21562000D01*
X25676000Y-21562000D02*
X26692000Y-21562000D01*
X27708000Y-21562000D02*
X28724000Y-21562000D01*
X28724000Y-21562000D02*
X28724000Y-20038000D01*
X28724000Y-20038000D02*
X27708000Y-20038000D01*
X16565000Y-16551000D02*
G75*
G03X16565000Y-16551000I-127000J0D01*
G74*
G01*
X16438000Y-15408000D02*
X16438000Y-16424000D01*
X16438000Y-16424000D02*
X17962000Y-16424000D01*
X17962000Y-16424000D02*
X17962000Y-15408000D01*
X17962000Y-14392000D02*
X17962000Y-13376000D01*
X17962000Y-13376000D02*
X16438000Y-13376000D01*
X16438000Y-13376000D02*
X16438000Y-14392000D01*
X26398382Y-25993751D02*
G75*
G03X26398382Y-25993751I-127000J0D01*
G74*
G01*
X27079605Y-26801974D02*
X26361185Y-26083554D01*
X26361185Y-26083554D02*
X25283554Y-27161185D01*
X25283554Y-27161185D02*
X26001974Y-27879605D01*
X26720395Y-28598026D02*
X27438815Y-29316446D01*
X27438815Y-29316446D02*
X28516446Y-28238815D01*
X28516446Y-28238815D02*
X27798026Y-27520395D01*
X24498382Y-27893751D02*
G75*
G03X24498382Y-27893751I-127000J0D01*
G74*
G01*
X25179605Y-28701974D02*
X24461185Y-27983554D01*
X24461185Y-27983554D02*
X23383554Y-29061185D01*
X23383554Y-29061185D02*
X24101974Y-29779605D01*
X24820395Y-30498026D02*
X25538815Y-31216446D01*
X25538815Y-31216446D02*
X26616446Y-30138815D01*
X26616446Y-30138815D02*
X25898026Y-29420395D01*
X16289000Y-29349000D02*
G75*
G03X16289000Y-29349000I-127000J0D01*
G74*
G01*
X16162000Y-30492000D02*
X16162000Y-29476000D01*
X16162000Y-29476000D02*
X14638000Y-29476000D01*
X14638000Y-29476000D02*
X14638000Y-30492000D01*
X14638000Y-31508000D02*
X14638000Y-32524000D01*
X14638000Y-32524000D02*
X16162000Y-32524000D01*
X16162000Y-32524000D02*
X16162000Y-31508000D01*
X12676000Y-28138000D02*
G75*
G03X12676000Y-28138000I-127000J0D01*
G74*
G01*
X13692000Y-28138000D02*
X12676000Y-28138000D01*
X12676000Y-28138000D02*
X12676000Y-29662000D01*
X12676000Y-29662000D02*
X13692000Y-29662000D01*
X14708000Y-29662000D02*
X15724000Y-29662000D01*
X15724000Y-29662000D02*
X15724000Y-28138000D01*
X15724000Y-28138000D02*
X14708000Y-28138000D01*
X2576000Y-24438000D02*
G75*
G03X2576000Y-24438000I-127000J0D01*
G74*
G01*
X3592000Y-24438000D02*
X2576000Y-24438000D01*
X2576000Y-24438000D02*
X2576000Y-25962000D01*
X2576000Y-25962000D02*
X3592000Y-25962000D01*
X4608000Y-25962000D02*
X5624000Y-25962000D01*
X5624000Y-25962000D02*
X5624000Y-24438000D01*
X5624000Y-24438000D02*
X4608000Y-24438000D01*
D12*
X4908000Y-29462000D02*
X5670000Y-28954000D01*
X3130000Y-29462000D02*
X5733500Y-29462000D01*
X5733500Y-29462000D02*
X5733500Y-27938000D01*
X5733500Y-27938000D02*
X3130000Y-27938000D01*
X3130000Y-27938000D02*
X3130000Y-29462000D01*
D11*
X12065000Y-27451000D02*
G75*
G03X12065000Y-27451000I-127000J0D01*
G74*
G01*
X11938000Y-26308000D02*
X11938000Y-27324000D01*
X11938000Y-27324000D02*
X13462000Y-27324000D01*
X13462000Y-27324000D02*
X13462000Y-26308000D01*
X13462000Y-25292000D02*
X13462000Y-24276000D01*
X13462000Y-24276000D02*
X11938000Y-24276000D01*
X11938000Y-24276000D02*
X11938000Y-25292000D01*
X18678000Y-29662000D02*
G75*
G03X18678000Y-29662000I-127000J0D01*
G74*
G01*
X17408000Y-29662000D02*
X18424000Y-29662000D01*
X18424000Y-29662000D02*
X18424000Y-28138000D01*
X18424000Y-28138000D02*
X17408000Y-28138000D01*
X16392000Y-28138000D02*
X15376000Y-28138000D01*
X15376000Y-28138000D02*
X15376000Y-29662000D01*
X15376000Y-29662000D02*
X16392000Y-29662000D01*
X14365000Y-7551000D02*
G75*
G03X14365000Y-7551000I-127000J0D01*
G74*
G01*
X14238000Y-6408000D02*
X14238000Y-7424000D01*
X14238000Y-7424000D02*
X15762000Y-7424000D01*
X15762000Y-7424000D02*
X15762000Y-6408000D01*
X15762000Y-5392000D02*
X15762000Y-4376000D01*
X15762000Y-4376000D02*
X14238000Y-4376000D01*
X14238000Y-4376000D02*
X14238000Y-5392000D01*
X12465000Y-7551000D02*
G75*
G03X12465000Y-7551000I-127000J0D01*
G74*
G01*
X12338000Y-6408000D02*
X12338000Y-7424000D01*
X12338000Y-7424000D02*
X13862000Y-7424000D01*
X13862000Y-7424000D02*
X13862000Y-6408000D01*
X13862000Y-5392000D02*
X13862000Y-4376000D01*
X13862000Y-4376000D02*
X12338000Y-4376000D01*
X12338000Y-4376000D02*
X12338000Y-5392000D01*
X37865000Y-8851000D02*
G75*
G03X37865000Y-8851000I-127000J0D01*
G74*
G01*
X37738000Y-7708000D02*
X37738000Y-8724000D01*
X37738000Y-8724000D02*
X39262000Y-8724000D01*
X39262000Y-8724000D02*
X39262000Y-7708000D01*
X39262000Y-6692000D02*
X39262000Y-5676000D01*
X39262000Y-5676000D02*
X37738000Y-5676000D01*
X37738000Y-5676000D02*
X37738000Y-6692000D01*
X33865000Y-8851000D02*
G75*
G03X33865000Y-8851000I-127000J0D01*
G74*
G01*
X33738000Y-7708000D02*
X33738000Y-8724000D01*
X33738000Y-8724000D02*
X35262000Y-8724000D01*
X35262000Y-8724000D02*
X35262000Y-7708000D01*
X35262000Y-6692000D02*
X35262000Y-5676000D01*
X35262000Y-5676000D02*
X33738000Y-5676000D01*
X33738000Y-5676000D02*
X33738000Y-6692000D01*
X39065000Y-40951000D02*
G75*
G03X39065000Y-40951000I-127000J0D01*
G74*
G01*
X38938000Y-39808000D02*
X38938000Y-40824000D01*
X38938000Y-40824000D02*
X40462000Y-40824000D01*
X40462000Y-40824000D02*
X40462000Y-39808000D01*
X40462000Y-38792000D02*
X40462000Y-37776000D01*
X40462000Y-37776000D02*
X38938000Y-37776000D01*
X38938000Y-37776000D02*
X38938000Y-38792000D01*
X39865000Y-8851000D02*
G75*
G03X39865000Y-8851000I-127000J0D01*
G74*
G01*
X39738000Y-7708000D02*
X39738000Y-8724000D01*
X39738000Y-8724000D02*
X41262000Y-8724000D01*
X41262000Y-8724000D02*
X41262000Y-7708000D01*
X41262000Y-6692000D02*
X41262000Y-5676000D01*
X41262000Y-5676000D02*
X39738000Y-5676000D01*
X39738000Y-5676000D02*
X39738000Y-6692000D01*
X35865000Y-8851000D02*
G75*
G03X35865000Y-8851000I-127000J0D01*
G74*
G01*
X35738000Y-7708000D02*
X35738000Y-8724000D01*
X35738000Y-8724000D02*
X37262000Y-8724000D01*
X37262000Y-8724000D02*
X37262000Y-7708000D01*
X37262000Y-6692000D02*
X37262000Y-5676000D01*
X37262000Y-5676000D02*
X35738000Y-5676000D01*
X35738000Y-5676000D02*
X35738000Y-6692000D01*
X40965000Y-40951000D02*
G75*
G03X40965000Y-40951000I-127000J0D01*
G74*
G01*
X40838000Y-39808000D02*
X40838000Y-40824000D01*
X40838000Y-40824000D02*
X42362000Y-40824000D01*
X42362000Y-40824000D02*
X42362000Y-39808000D01*
X42362000Y-38792000D02*
X42362000Y-37776000D01*
X42362000Y-37776000D02*
X40838000Y-37776000D01*
X40838000Y-37776000D02*
X40838000Y-38792000D01*
X11726000Y-8388000D02*
G75*
G03X11726000Y-8388000I-127000J0D01*
G74*
G01*
X12742000Y-8388000D02*
X11726000Y-8388000D01*
X11726000Y-8388000D02*
X11726000Y-9912000D01*
X11726000Y-9912000D02*
X12742000Y-9912000D01*
X13758000Y-9912000D02*
X14774000Y-9912000D01*
X14774000Y-9912000D02*
X14774000Y-8388000D01*
X14774000Y-8388000D02*
X13758000Y-8388000D01*
X39689000Y-11749000D02*
G75*
G03X39689000Y-11749000I-127000J0D01*
G74*
G01*
X39562000Y-12892000D02*
X39562000Y-11876000D01*
X39562000Y-11876000D02*
X38038000Y-11876000D01*
X38038000Y-11876000D02*
X38038000Y-12892000D01*
X38038000Y-13908000D02*
X38038000Y-14924000D01*
X38038000Y-14924000D02*
X39562000Y-14924000D01*
X39562000Y-14924000D02*
X39562000Y-13908000D01*
X37589000Y-11749000D02*
G75*
G03X37589000Y-11749000I-127000J0D01*
G74*
G01*
X37462000Y-12892000D02*
X37462000Y-11876000D01*
X37462000Y-11876000D02*
X35938000Y-11876000D01*
X35938000Y-11876000D02*
X35938000Y-12892000D01*
X35938000Y-13908000D02*
X35938000Y-14924000D01*
X35938000Y-14924000D02*
X37462000Y-14924000D01*
X37462000Y-14924000D02*
X37462000Y-13908000D01*
X40178000Y-20462000D02*
G75*
G03X40178000Y-20462000I-127000J0D01*
G74*
G01*
X38908000Y-20462000D02*
X39924000Y-20462000D01*
X39924000Y-20462000D02*
X39924000Y-18938000D01*
X39924000Y-18938000D02*
X38908000Y-18938000D01*
X37892000Y-18938000D02*
X36876000Y-18938000D01*
X36876000Y-18938000D02*
X36876000Y-20462000D01*
X36876000Y-20462000D02*
X37892000Y-20462000D01*
D13*
X7365000Y-27901000D02*
G75*
G03X7365000Y-27901000I-127000J0D01*
G74*
G01*
X7238000Y-26758000D02*
X7238000Y-27774000D01*
X7238000Y-27774000D02*
X8762000Y-27774000D01*
X8762000Y-27774000D02*
X8762000Y-26758000D01*
X8762000Y-25742000D02*
X8762000Y-24726000D01*
X8762000Y-24726000D02*
X7238000Y-24726000D01*
X7238000Y-24726000D02*
X7238000Y-25742000D01*
D14*
G36*
X15354520Y-3146620D02*
X15344360Y-3141540D01*
X15321500Y-3126300D01*
X15288480Y-3105980D01*
X15247840Y-3078040D01*
X15209740Y-3052640D01*
X15176720Y-3029780D01*
X15153860Y-3014540D01*
X15143700Y-3009460D01*
X15138620Y-3012000D01*
X15120840Y-3022160D01*
X15092900Y-3034860D01*
X15077660Y-3042480D01*
X15052260Y-3055180D01*
X15039560Y-3057720D01*
X15037020Y-3052640D01*
X15026860Y-3034860D01*
X15014160Y-3001840D01*
X14993840Y-2958660D01*
X14973520Y-2907860D01*
X14950660Y-2851980D01*
X14927800Y-2796100D01*
X14904940Y-2742760D01*
X14884620Y-2694500D01*
X14869380Y-2656400D01*
X14859220Y-2628460D01*
X14854140Y-2618300D01*
X14856680Y-2615760D01*
X14869380Y-2603060D01*
X14889700Y-2587820D01*
X14937960Y-2547180D01*
X14983680Y-2488760D01*
X15014160Y-2422720D01*
X15021780Y-2349060D01*
X15014160Y-2283020D01*
X14988760Y-2219520D01*
X14943040Y-2158560D01*
X14887160Y-2115380D01*
X14821120Y-2087440D01*
X14750000Y-2079820D01*
X14681420Y-2087440D01*
X14615380Y-2112840D01*
X14554420Y-2158560D01*
X14531560Y-2186500D01*
X14496000Y-2247460D01*
X14475680Y-2308420D01*
X14475680Y-2323660D01*
X14478220Y-2394780D01*
X14498540Y-2463360D01*
X14534100Y-2521780D01*
X14587440Y-2572580D01*
X14592520Y-2577660D01*
X14617920Y-2595440D01*
X14633160Y-2605600D01*
X14645860Y-2615760D01*
X14556960Y-2831660D01*
X14541720Y-2867220D01*
X14516320Y-2925640D01*
X14496000Y-2976440D01*
X14478220Y-3017080D01*
X14465520Y-3042480D01*
X14460440Y-3055180D01*
X14460440Y-3055180D01*
X14452820Y-3055180D01*
X14437580Y-3050100D01*
X14407100Y-3034860D01*
X14386780Y-3024700D01*
X14363920Y-3014540D01*
X14353760Y-3009460D01*
X14343600Y-3014540D01*
X14323280Y-3029780D01*
X14290260Y-3050100D01*
X14252160Y-3075500D01*
X14216600Y-3100900D01*
X14181040Y-3123760D01*
X14158180Y-3139000D01*
X14145480Y-3146620D01*
X14142940Y-3146620D01*
X14132780Y-3139000D01*
X14112460Y-3123760D01*
X14084520Y-3095820D01*
X14043880Y-3055180D01*
X14036260Y-3050100D01*
X14003240Y-3014540D01*
X13975300Y-2984060D01*
X13954980Y-2963740D01*
X13949900Y-2956120D01*
X13949900Y-2956120D01*
X13954980Y-2943420D01*
X13970220Y-2918020D01*
X13993080Y-2885000D01*
X14021020Y-2844360D01*
X14092140Y-2740220D01*
X14051500Y-2643700D01*
X14041340Y-2613220D01*
X14026100Y-2577660D01*
X14013400Y-2552260D01*
X14008320Y-2539560D01*
X13998160Y-2537020D01*
X13970220Y-2529400D01*
X13932120Y-2521780D01*
X13886400Y-2514160D01*
X13840680Y-2504000D01*
X13802580Y-2496380D01*
X13772100Y-2491300D01*
X13759400Y-2488760D01*
X13756860Y-2486220D01*
X13754320Y-2481140D01*
X13751780Y-2468440D01*
X13751780Y-2443040D01*
X13751780Y-2404940D01*
X13751780Y-2349060D01*
X13751780Y-2343980D01*
X13751780Y-2290640D01*
X13751780Y-2250000D01*
X13754320Y-2224600D01*
X13756860Y-2214440D01*
X13756860Y-2214440D01*
X13769560Y-2209360D01*
X13797500Y-2204280D01*
X13835600Y-2196660D01*
X13883860Y-2186500D01*
X13886400Y-2186500D01*
X13934660Y-2178880D01*
X13972760Y-2168720D01*
X14000700Y-2163640D01*
X14013400Y-2158560D01*
X14015940Y-2156020D01*
X14026100Y-2138240D01*
X14038800Y-2107760D01*
X14054040Y-2072200D01*
X14069280Y-2036640D01*
X14084520Y-2001080D01*
X14092140Y-1978220D01*
X14094680Y-1965520D01*
X14094680Y-1965520D01*
X14087060Y-1955360D01*
X14071820Y-1929960D01*
X14048960Y-1896940D01*
X14021020Y-1856300D01*
X14018480Y-1851220D01*
X13990540Y-1813120D01*
X13970220Y-1777560D01*
X13954980Y-1754700D01*
X13949900Y-1744540D01*
X13949900Y-1742000D01*
X13957520Y-1731840D01*
X13977840Y-1708980D01*
X14008320Y-1678500D01*
X14043880Y-1642940D01*
X14054040Y-1632780D01*
X14092140Y-1594680D01*
X14120080Y-1569280D01*
X14137860Y-1556580D01*
X14145480Y-1551500D01*
X14145480Y-1554040D01*
X14158180Y-1559120D01*
X14183580Y-1576900D01*
X14216600Y-1599760D01*
X14257240Y-1627700D01*
X14259780Y-1630240D01*
X14300420Y-1655640D01*
X14333440Y-1678500D01*
X14356300Y-1693740D01*
X14366460Y-1701360D01*
X14369000Y-1701360D01*
X14384240Y-1696280D01*
X14414720Y-1686120D01*
X14447740Y-1673420D01*
X14485840Y-1658180D01*
X14518860Y-1642940D01*
X14544260Y-1632780D01*
X14556960Y-1625160D01*
X14556960Y-1625160D01*
X14562040Y-1609920D01*
X14567120Y-1579440D01*
X14577280Y-1538800D01*
X14584900Y-1490540D01*
X14587440Y-1482920D01*
X14595060Y-1434660D01*
X14602680Y-1396560D01*
X14610300Y-1368620D01*
X14612840Y-1355920D01*
X14617920Y-1355920D01*
X14643320Y-1353380D01*
X14678880Y-1353380D01*
X14722060Y-1353380D01*
X14765240Y-1353380D01*
X14808420Y-1353380D01*
X14846520Y-1355920D01*
X14871920Y-1355920D01*
X14884620Y-1358460D01*
X14884620Y-1361000D01*
X14889700Y-1373700D01*
X14894780Y-1404180D01*
X14904940Y-1444820D01*
X14912560Y-1495620D01*
X14915100Y-1503240D01*
X14922720Y-1551500D01*
X14932880Y-1589600D01*
X14937960Y-1617540D01*
X14940500Y-1627700D01*
X14945580Y-1630240D01*
X14963360Y-1637860D01*
X14996380Y-1650560D01*
X15037020Y-1668340D01*
X15128460Y-1703900D01*
X15240220Y-1627700D01*
X15250380Y-1620080D01*
X15291020Y-1592140D01*
X15324040Y-1571820D01*
X15346900Y-1556580D01*
X15357060Y-1551500D01*
X15357060Y-1551500D01*
X15367220Y-1561660D01*
X15390080Y-1581980D01*
X15420560Y-1612460D01*
X15456120Y-1645480D01*
X15481520Y-1673420D01*
X15512000Y-1703900D01*
X15532320Y-1724220D01*
X15542480Y-1739460D01*
X15547560Y-1747080D01*
X15545020Y-1752160D01*
X15539940Y-1764860D01*
X15522160Y-1787720D01*
X15499300Y-1823280D01*
X15471360Y-1861380D01*
X15448500Y-1896940D01*
X15425640Y-1932500D01*
X15410400Y-1960440D01*
X15402780Y-1973140D01*
X15405320Y-1978220D01*
X15412940Y-2001080D01*
X15425640Y-2034100D01*
X15443420Y-2074740D01*
X15481520Y-2163640D01*
X15539940Y-2173800D01*
X15575500Y-2181420D01*
X15626300Y-2189040D01*
X15672020Y-2199200D01*
X15745680Y-2214440D01*
X15748220Y-2481140D01*
X15738060Y-2486220D01*
X15725360Y-2491300D01*
X15699960Y-2496380D01*
X15659320Y-2504000D01*
X15613600Y-2511620D01*
X15575500Y-2519240D01*
X15534860Y-2526860D01*
X15506920Y-2531940D01*
X15494220Y-2534480D01*
X15491680Y-2539560D01*
X15481520Y-2559880D01*
X15466280Y-2590360D01*
X15451040Y-2625920D01*
X15435800Y-2664020D01*
X15423100Y-2699580D01*
X15412940Y-2724980D01*
X15407860Y-2740220D01*
X15412940Y-2750380D01*
X15428180Y-2773240D01*
X15451040Y-2806260D01*
X15476440Y-2844360D01*
X15504380Y-2885000D01*
X15527240Y-2918020D01*
X15542480Y-2943420D01*
X15550100Y-2953580D01*
X15545020Y-2961200D01*
X15529780Y-2978980D01*
X15501840Y-3009460D01*
X15456120Y-3055180D01*
X15448500Y-3060260D01*
X15415480Y-3095820D01*
X15385000Y-3121220D01*
X15364680Y-3141540D01*
X15354520Y-3146620D01*
X15354520Y-3146620D01*
G37*
X15354520Y-3146620D02*
X15344360Y-3141540D01*
X15321500Y-3126300D01*
X15288480Y-3105980D01*
X15247840Y-3078040D01*
X15209740Y-3052640D01*
X15176720Y-3029780D01*
X15153860Y-3014540D01*
X15143700Y-3009460D01*
X15138620Y-3012000D01*
X15120840Y-3022160D01*
X15092900Y-3034860D01*
X15077660Y-3042480D01*
X15052260Y-3055180D01*
X15039560Y-3057720D01*
X15037020Y-3052640D01*
X15026860Y-3034860D01*
X15014160Y-3001840D01*
X14993840Y-2958660D01*
X14973520Y-2907860D01*
X14950660Y-2851980D01*
X14927800Y-2796100D01*
X14904940Y-2742760D01*
X14884620Y-2694500D01*
X14869380Y-2656400D01*
X14859220Y-2628460D01*
X14854140Y-2618300D01*
X14856680Y-2615760D01*
X14869380Y-2603060D01*
X14889700Y-2587820D01*
X14937960Y-2547180D01*
X14983680Y-2488760D01*
X15014160Y-2422720D01*
X15021780Y-2349060D01*
X15014160Y-2283020D01*
X14988760Y-2219520D01*
X14943040Y-2158560D01*
X14887160Y-2115380D01*
X14821120Y-2087440D01*
X14750000Y-2079820D01*
X14681420Y-2087440D01*
X14615380Y-2112840D01*
X14554420Y-2158560D01*
X14531560Y-2186500D01*
X14496000Y-2247460D01*
X14475680Y-2308420D01*
X14475680Y-2323660D01*
X14478220Y-2394780D01*
X14498540Y-2463360D01*
X14534100Y-2521780D01*
X14587440Y-2572580D01*
X14592520Y-2577660D01*
X14617920Y-2595440D01*
X14633160Y-2605600D01*
X14645860Y-2615760D01*
X14556960Y-2831660D01*
X14541720Y-2867220D01*
X14516320Y-2925640D01*
X14496000Y-2976440D01*
X14478220Y-3017080D01*
X14465520Y-3042480D01*
X14460440Y-3055180D01*
X14460440Y-3055180D01*
X14452820Y-3055180D01*
X14437580Y-3050100D01*
X14407100Y-3034860D01*
X14386780Y-3024700D01*
X14363920Y-3014540D01*
X14353760Y-3009460D01*
X14343600Y-3014540D01*
X14323280Y-3029780D01*
X14290260Y-3050100D01*
X14252160Y-3075500D01*
X14216600Y-3100900D01*
X14181040Y-3123760D01*
X14158180Y-3139000D01*
X14145480Y-3146620D01*
X14142940Y-3146620D01*
X14132780Y-3139000D01*
X14112460Y-3123760D01*
X14084520Y-3095820D01*
X14043880Y-3055180D01*
X14036260Y-3050100D01*
X14003240Y-3014540D01*
X13975300Y-2984060D01*
X13954980Y-2963740D01*
X13949900Y-2956120D01*
X13949900Y-2956120D01*
X13954980Y-2943420D01*
X13970220Y-2918020D01*
X13993080Y-2885000D01*
X14021020Y-2844360D01*
X14092140Y-2740220D01*
X14051500Y-2643700D01*
X14041340Y-2613220D01*
X14026100Y-2577660D01*
X14013400Y-2552260D01*
X14008320Y-2539560D01*
X13998160Y-2537020D01*
X13970220Y-2529400D01*
X13932120Y-2521780D01*
X13886400Y-2514160D01*
X13840680Y-2504000D01*
X13802580Y-2496380D01*
X13772100Y-2491300D01*
X13759400Y-2488760D01*
X13756860Y-2486220D01*
X13754320Y-2481140D01*
X13751780Y-2468440D01*
X13751780Y-2443040D01*
X13751780Y-2404940D01*
X13751780Y-2349060D01*
X13751780Y-2343980D01*
X13751780Y-2290640D01*
X13751780Y-2250000D01*
X13754320Y-2224600D01*
X13756860Y-2214440D01*
X13756860Y-2214440D01*
X13769560Y-2209360D01*
X13797500Y-2204280D01*
X13835600Y-2196660D01*
X13883860Y-2186500D01*
X13886400Y-2186500D01*
X13934660Y-2178880D01*
X13972760Y-2168720D01*
X14000700Y-2163640D01*
X14013400Y-2158560D01*
X14015940Y-2156020D01*
X14026100Y-2138240D01*
X14038800Y-2107760D01*
X14054040Y-2072200D01*
X14069280Y-2036640D01*
X14084520Y-2001080D01*
X14092140Y-1978220D01*
X14094680Y-1965520D01*
X14094680Y-1965520D01*
X14087060Y-1955360D01*
X14071820Y-1929960D01*
X14048960Y-1896940D01*
X14021020Y-1856300D01*
X14018480Y-1851220D01*
X13990540Y-1813120D01*
X13970220Y-1777560D01*
X13954980Y-1754700D01*
X13949900Y-1744540D01*
X13949900Y-1742000D01*
X13957520Y-1731840D01*
X13977840Y-1708980D01*
X14008320Y-1678500D01*
X14043880Y-1642940D01*
X14054040Y-1632780D01*
X14092140Y-1594680D01*
X14120080Y-1569280D01*
X14137860Y-1556580D01*
X14145480Y-1551500D01*
X14145480Y-1554040D01*
X14158180Y-1559120D01*
X14183580Y-1576900D01*
X14216600Y-1599760D01*
X14257240Y-1627700D01*
X14259780Y-1630240D01*
X14300420Y-1655640D01*
X14333440Y-1678500D01*
X14356300Y-1693740D01*
X14366460Y-1701360D01*
X14369000Y-1701360D01*
X14384240Y-1696280D01*
X14414720Y-1686120D01*
X14447740Y-1673420D01*
X14485840Y-1658180D01*
X14518860Y-1642940D01*
X14544260Y-1632780D01*
X14556960Y-1625160D01*
X14556960Y-1625160D01*
X14562040Y-1609920D01*
X14567120Y-1579440D01*
X14577280Y-1538800D01*
X14584900Y-1490540D01*
X14587440Y-1482920D01*
X14595060Y-1434660D01*
X14602680Y-1396560D01*
X14610300Y-1368620D01*
X14612840Y-1355920D01*
X14617920Y-1355920D01*
X14643320Y-1353380D01*
X14678880Y-1353380D01*
X14722060Y-1353380D01*
X14765240Y-1353380D01*
X14808420Y-1353380D01*
X14846520Y-1355920D01*
X14871920Y-1355920D01*
X14884620Y-1358460D01*
X14884620Y-1361000D01*
X14889700Y-1373700D01*
X14894780Y-1404180D01*
X14904940Y-1444820D01*
X14912560Y-1495620D01*
X14915100Y-1503240D01*
X14922720Y-1551500D01*
X14932880Y-1589600D01*
X14937960Y-1617540D01*
X14940500Y-1627700D01*
X14945580Y-1630240D01*
X14963360Y-1637860D01*
X14996380Y-1650560D01*
X15037020Y-1668340D01*
X15128460Y-1703900D01*
X15240220Y-1627700D01*
X15250380Y-1620080D01*
X15291020Y-1592140D01*
X15324040Y-1571820D01*
X15346900Y-1556580D01*
X15357060Y-1551500D01*
X15357060Y-1551500D01*
X15367220Y-1561660D01*
X15390080Y-1581980D01*
X15420560Y-1612460D01*
X15456120Y-1645480D01*
X15481520Y-1673420D01*
X15512000Y-1703900D01*
X15532320Y-1724220D01*
X15542480Y-1739460D01*
X15547560Y-1747080D01*
X15545020Y-1752160D01*
X15539940Y-1764860D01*
X15522160Y-1787720D01*
X15499300Y-1823280D01*
X15471360Y-1861380D01*
X15448500Y-1896940D01*
X15425640Y-1932500D01*
X15410400Y-1960440D01*
X15402780Y-1973140D01*
X15405320Y-1978220D01*
X15412940Y-2001080D01*
X15425640Y-2034100D01*
X15443420Y-2074740D01*
X15481520Y-2163640D01*
X15539940Y-2173800D01*
X15575500Y-2181420D01*
X15626300Y-2189040D01*
X15672020Y-2199200D01*
X15745680Y-2214440D01*
X15748220Y-2481140D01*
X15738060Y-2486220D01*
X15725360Y-2491300D01*
X15699960Y-2496380D01*
X15659320Y-2504000D01*
X15613600Y-2511620D01*
X15575500Y-2519240D01*
X15534860Y-2526860D01*
X15506920Y-2531940D01*
X15494220Y-2534480D01*
X15491680Y-2539560D01*
X15481520Y-2559880D01*
X15466280Y-2590360D01*
X15451040Y-2625920D01*
X15435800Y-2664020D01*
X15423100Y-2699580D01*
X15412940Y-2724980D01*
X15407860Y-2740220D01*
X15412940Y-2750380D01*
X15428180Y-2773240D01*
X15451040Y-2806260D01*
X15476440Y-2844360D01*
X15504380Y-2885000D01*
X15527240Y-2918020D01*
X15542480Y-2943420D01*
X15550100Y-2953580D01*
X15545020Y-2961200D01*
X15529780Y-2978980D01*
X15501840Y-3009460D01*
X15456120Y-3055180D01*
X15448500Y-3060260D01*
X15415480Y-3095820D01*
X15385000Y-3121220D01*
X15364680Y-3141540D01*
X15354520Y-3146620D01*
D10*
X29516666Y-24850000D02*
X29550000Y-24883333D01*
X29650000Y-24916667D01*
X29716666Y-24916667D01*
X29816666Y-24883333D01*
X29883333Y-24816667D01*
X29916666Y-24750000D01*
X29950000Y-24616667D01*
X29950000Y-24516667D01*
X29916666Y-24383333D01*
X29883333Y-24316667D01*
X29816666Y-24250000D01*
X29716666Y-24216667D01*
X29650000Y-24216667D01*
X29550000Y-24250000D01*
X29516666Y-24283333D01*
X28850000Y-24916667D02*
X29250000Y-24916667D01*
X29050000Y-24916667D02*
X29050000Y-24216667D01*
X29116666Y-24316667D01*
X29183333Y-24383333D01*
X29250000Y-24416667D01*
X22116666Y-17750000D02*
X22150000Y-17783333D01*
X22250000Y-17816667D01*
X22316666Y-17816667D01*
X22416666Y-17783333D01*
X22483333Y-17716667D01*
X22516666Y-17650000D01*
X22550000Y-17516667D01*
X22550000Y-17416667D01*
X22516666Y-17283333D01*
X22483333Y-17216667D01*
X22416666Y-17150000D01*
X22316666Y-17116667D01*
X22250000Y-17116667D01*
X22150000Y-17150000D01*
X22116666Y-17183333D01*
X21850000Y-17183333D02*
X21816666Y-17150000D01*
X21750000Y-17116667D01*
X21583333Y-17116667D01*
X21516666Y-17150000D01*
X21483333Y-17183333D01*
X21450000Y-17250000D01*
X21450000Y-17316667D01*
X21483333Y-17416667D01*
X21883333Y-17816667D01*
X21450000Y-17816667D01*
X14116666Y-19050000D02*
X14150000Y-19083333D01*
X14250000Y-19116667D01*
X14316666Y-19116667D01*
X14416666Y-19083333D01*
X14483333Y-19016667D01*
X14516666Y-18950000D01*
X14550000Y-18816667D01*
X14550000Y-18716667D01*
X14516666Y-18583333D01*
X14483333Y-18516667D01*
X14416666Y-18450000D01*
X14316666Y-18416667D01*
X14250000Y-18416667D01*
X14150000Y-18450000D01*
X14116666Y-18483333D01*
X13883333Y-18416667D02*
X13450000Y-18416667D01*
X13683333Y-18683333D01*
X13583333Y-18683333D01*
X13516666Y-18716667D01*
X13483333Y-18750000D01*
X13450000Y-18816667D01*
X13450000Y-18983333D01*
X13483333Y-19050000D01*
X13516666Y-19083333D01*
X13583333Y-19116667D01*
X13783333Y-19116667D01*
X13850000Y-19083333D01*
X13883333Y-19050000D01*
X15616666Y-23950000D02*
X15650000Y-23983333D01*
X15750000Y-24016667D01*
X15816666Y-24016667D01*
X15916666Y-23983333D01*
X15983333Y-23916667D01*
X16016666Y-23850000D01*
X16050000Y-23716667D01*
X16050000Y-23616667D01*
X16016666Y-23483333D01*
X15983333Y-23416667D01*
X15916666Y-23350000D01*
X15816666Y-23316667D01*
X15750000Y-23316667D01*
X15650000Y-23350000D01*
X15616666Y-23383333D01*
X15016666Y-23550000D02*
X15016666Y-24016667D01*
X15183333Y-23283333D02*
X15350000Y-23783333D01*
X14916666Y-23783333D01*
X21241666Y-24550000D02*
X21275000Y-24583333D01*
X21375000Y-24616667D01*
X21441666Y-24616667D01*
X21541666Y-24583333D01*
X21608333Y-24516667D01*
X21641666Y-24450000D01*
X21675000Y-24316667D01*
X21675000Y-24216667D01*
X21641666Y-24083333D01*
X21608333Y-24016667D01*
X21541666Y-23950000D01*
X21441666Y-23916667D01*
X21375000Y-23916667D01*
X21275000Y-23950000D01*
X21241666Y-23983333D01*
X20608333Y-23916667D02*
X20941666Y-23916667D01*
X20975000Y-24250000D01*
X20941666Y-24216667D01*
X20875000Y-24183333D01*
X20708333Y-24183333D01*
X20641666Y-24216667D01*
X20608333Y-24250000D01*
X20575000Y-24316667D01*
X20575000Y-24483333D01*
X20608333Y-24550000D01*
X20641666Y-24583333D01*
X20708333Y-24616667D01*
X20875000Y-24616667D01*
X20941666Y-24583333D01*
X20975000Y-24550000D01*
X21216666Y-12950000D02*
X21250000Y-12983333D01*
X21350000Y-13016667D01*
X21416666Y-13016667D01*
X21516666Y-12983333D01*
X21583333Y-12916667D01*
X21616666Y-12850000D01*
X21650000Y-12716667D01*
X21650000Y-12616667D01*
X21616666Y-12483333D01*
X21583333Y-12416667D01*
X21516666Y-12350000D01*
X21416666Y-12316667D01*
X21350000Y-12316667D01*
X21250000Y-12350000D01*
X21216666Y-12383333D01*
X20616666Y-12316667D02*
X20750000Y-12316667D01*
X20816666Y-12350000D01*
X20850000Y-12383333D01*
X20916666Y-12483333D01*
X20950000Y-12616667D01*
X20950000Y-12883333D01*
X20916666Y-12950000D01*
X20883333Y-12983333D01*
X20816666Y-13016667D01*
X20683333Y-13016667D01*
X20616666Y-12983333D01*
X20583333Y-12950000D01*
X20550000Y-12883333D01*
X20550000Y-12716667D01*
X20583333Y-12650000D01*
X20616666Y-12616667D01*
X20683333Y-12583333D01*
X20816666Y-12583333D01*
X20883333Y-12616667D01*
X20916666Y-12650000D01*
X20950000Y-12716667D01*
X13616666Y-15100000D02*
X13650000Y-15133333D01*
X13750000Y-15166667D01*
X13816666Y-15166667D01*
X13916666Y-15133333D01*
X13983333Y-15066667D01*
X14016666Y-15000000D01*
X14050000Y-14866667D01*
X14050000Y-14766667D01*
X14016666Y-14633333D01*
X13983333Y-14566667D01*
X13916666Y-14500000D01*
X13816666Y-14466667D01*
X13750000Y-14466667D01*
X13650000Y-14500000D01*
X13616666Y-14533333D01*
X13383333Y-14466667D02*
X12916666Y-14466667D01*
X13216666Y-15166667D01*
X18116666Y-23950000D02*
X18150000Y-23983333D01*
X18250000Y-24016667D01*
X18316666Y-24016667D01*
X18416666Y-23983333D01*
X18483333Y-23916667D01*
X18516666Y-23850000D01*
X18550000Y-23716667D01*
X18550000Y-23616667D01*
X18516666Y-23483333D01*
X18483333Y-23416667D01*
X18416666Y-23350000D01*
X18316666Y-23316667D01*
X18250000Y-23316667D01*
X18150000Y-23350000D01*
X18116666Y-23383333D01*
X17716666Y-23616667D02*
X17783333Y-23583333D01*
X17816666Y-23550000D01*
X17850000Y-23483333D01*
X17850000Y-23450000D01*
X17816666Y-23383333D01*
X17783333Y-23350000D01*
X17716666Y-23316667D01*
X17583333Y-23316667D01*
X17516666Y-23350000D01*
X17483333Y-23383333D01*
X17450000Y-23450000D01*
X17450000Y-23483333D01*
X17483333Y-23550000D01*
X17516666Y-23583333D01*
X17583333Y-23616667D01*
X17716666Y-23616667D01*
X17783333Y-23650000D01*
X17816666Y-23683333D01*
X17850000Y-23750000D01*
X17850000Y-23883333D01*
X17816666Y-23950000D01*
X17783333Y-23983333D01*
X17716666Y-24016667D01*
X17583333Y-24016667D01*
X17516666Y-23983333D01*
X17483333Y-23950000D01*
X17450000Y-23883333D01*
X17450000Y-23750000D01*
X17483333Y-23683333D01*
X17516666Y-23650000D01*
X17583333Y-23616667D01*
X21241666Y-22450000D02*
X21275000Y-22483333D01*
X21375000Y-22516667D01*
X21441666Y-22516667D01*
X21541666Y-22483333D01*
X21608333Y-22416667D01*
X21641666Y-22350000D01*
X21675000Y-22216667D01*
X21675000Y-22116667D01*
X21641666Y-21983333D01*
X21608333Y-21916667D01*
X21541666Y-21850000D01*
X21441666Y-21816667D01*
X21375000Y-21816667D01*
X21275000Y-21850000D01*
X21241666Y-21883333D01*
X20908333Y-22516667D02*
X20775000Y-22516667D01*
X20708333Y-22483333D01*
X20675000Y-22450000D01*
X20608333Y-22350000D01*
X20575000Y-22216667D01*
X20575000Y-21950000D01*
X20608333Y-21883333D01*
X20641666Y-21850000D01*
X20708333Y-21816667D01*
X20841666Y-21816667D01*
X20908333Y-21850000D01*
X20941666Y-21883333D01*
X20975000Y-21950000D01*
X20975000Y-22116667D01*
X20941666Y-22183333D01*
X20908333Y-22216667D01*
X20841666Y-22250000D01*
X20708333Y-22250000D01*
X20641666Y-22216667D01*
X20608333Y-22183333D01*
X20575000Y-22116667D01*
X24375000Y-19050000D02*
X24408334Y-19083333D01*
X24508334Y-19116667D01*
X24575000Y-19116667D01*
X24675000Y-19083333D01*
X24741667Y-19016667D01*
X24775000Y-18950000D01*
X24808334Y-18816667D01*
X24808334Y-18716667D01*
X24775000Y-18583333D01*
X24741667Y-18516667D01*
X24675000Y-18450000D01*
X24575000Y-18416667D01*
X24508334Y-18416667D01*
X24408334Y-18450000D01*
X24375000Y-18483333D01*
X23708334Y-19116667D02*
X24108334Y-19116667D01*
X23908334Y-19116667D02*
X23908334Y-18416667D01*
X23975000Y-18516667D01*
X24041667Y-18583333D01*
X24108334Y-18616667D01*
X23275000Y-18416667D02*
X23208333Y-18416667D01*
X23141667Y-18450000D01*
X23108333Y-18483333D01*
X23075000Y-18550000D01*
X23041667Y-18683333D01*
X23041667Y-18850000D01*
X23075000Y-18983333D01*
X23108333Y-19050000D01*
X23141667Y-19083333D01*
X23208333Y-19116667D01*
X23275000Y-19116667D01*
X23341667Y-19083333D01*
X23375000Y-19050000D01*
X23408333Y-18983333D01*
X23441667Y-18850000D01*
X23441667Y-18683333D01*
X23408333Y-18550000D01*
X23375000Y-18483333D01*
X23341667Y-18450000D01*
X23275000Y-18416667D01*
X18250000Y-21050000D02*
X18283334Y-21083333D01*
X18383334Y-21116667D01*
X18450000Y-21116667D01*
X18550000Y-21083333D01*
X18616667Y-21016667D01*
X18650000Y-20950000D01*
X18683334Y-20816667D01*
X18683334Y-20716667D01*
X18650000Y-20583333D01*
X18616667Y-20516667D01*
X18550000Y-20450000D01*
X18450000Y-20416667D01*
X18383334Y-20416667D01*
X18283334Y-20450000D01*
X18250000Y-20483333D01*
X17583334Y-21116667D02*
X17983334Y-21116667D01*
X17783334Y-21116667D02*
X17783334Y-20416667D01*
X17850000Y-20516667D01*
X17916667Y-20583333D01*
X17983334Y-20616667D01*
X16916667Y-21116667D02*
X17316667Y-21116667D01*
X17116667Y-21116667D02*
X17116667Y-20416667D01*
X17183333Y-20516667D01*
X17250000Y-20583333D01*
X17316667Y-20616667D01*
X30250000Y-22950000D02*
X30283334Y-22983333D01*
X30383334Y-23016667D01*
X30450000Y-23016667D01*
X30550000Y-22983333D01*
X30616667Y-22916667D01*
X30650000Y-22850000D01*
X30683334Y-22716667D01*
X30683334Y-22616667D01*
X30650000Y-22483333D01*
X30616667Y-22416667D01*
X30550000Y-22350000D01*
X30450000Y-22316667D01*
X30383334Y-22316667D01*
X30283334Y-22350000D01*
X30250000Y-22383333D01*
X29583334Y-23016667D02*
X29983334Y-23016667D01*
X29783334Y-23016667D02*
X29783334Y-22316667D01*
X29850000Y-22416667D01*
X29916667Y-22483333D01*
X29983334Y-22516667D01*
X29316667Y-22383333D02*
X29283333Y-22350000D01*
X29216667Y-22316667D01*
X29050000Y-22316667D01*
X28983333Y-22350000D01*
X28950000Y-22383333D01*
X28916667Y-22450000D01*
X28916667Y-22516667D01*
X28950000Y-22616667D01*
X29350000Y-23016667D01*
X28916667Y-23016667D01*
X27575000Y-19650000D02*
X27608334Y-19683333D01*
X27708334Y-19716667D01*
X27775000Y-19716667D01*
X27875000Y-19683333D01*
X27941667Y-19616667D01*
X27975000Y-19550000D01*
X28008334Y-19416667D01*
X28008334Y-19316667D01*
X27975000Y-19183333D01*
X27941667Y-19116667D01*
X27875000Y-19050000D01*
X27775000Y-19016667D01*
X27708334Y-19016667D01*
X27608334Y-19050000D01*
X27575000Y-19083333D01*
X26908334Y-19716667D02*
X27308334Y-19716667D01*
X27108334Y-19716667D02*
X27108334Y-19016667D01*
X27175000Y-19116667D01*
X27241667Y-19183333D01*
X27308334Y-19216667D01*
X26675000Y-19016667D02*
X26241667Y-19016667D01*
X26475000Y-19283333D01*
X26375000Y-19283333D01*
X26308333Y-19316667D01*
X26275000Y-19350000D01*
X26241667Y-19416667D01*
X26241667Y-19583333D01*
X26275000Y-19650000D01*
X26308333Y-19683333D01*
X26375000Y-19716667D01*
X26575000Y-19716667D01*
X26641667Y-19683333D01*
X26675000Y-19650000D01*
X18450000Y-12950000D02*
X18483334Y-12983333D01*
X18583334Y-13016667D01*
X18650000Y-13016667D01*
X18750000Y-12983333D01*
X18816667Y-12916667D01*
X18850000Y-12850000D01*
X18883334Y-12716667D01*
X18883334Y-12616667D01*
X18850000Y-12483333D01*
X18816667Y-12416667D01*
X18750000Y-12350000D01*
X18650000Y-12316667D01*
X18583334Y-12316667D01*
X18483334Y-12350000D01*
X18450000Y-12383333D01*
X17783334Y-13016667D02*
X18183334Y-13016667D01*
X17983334Y-13016667D02*
X17983334Y-12316667D01*
X18050000Y-12416667D01*
X18116667Y-12483333D01*
X18183334Y-12516667D01*
X17183333Y-12550000D02*
X17183333Y-13016667D01*
X17350000Y-12283333D02*
X17516667Y-12783333D01*
X17083333Y-12783333D01*
X28941420Y-30194975D02*
X28941421Y-30242115D01*
X28988561Y-30336397D01*
X29035701Y-30383537D01*
X29129982Y-30430677D01*
X29224263Y-30430677D01*
X29294974Y-30407107D01*
X29412825Y-30336397D01*
X29483536Y-30265686D01*
X29554246Y-30147834D01*
X29577816Y-30077124D01*
X29577816Y-29982843D01*
X29530676Y-29888562D01*
X29483536Y-29841422D01*
X29389255Y-29794281D01*
X29342114Y-29794281D01*
X29153553Y-29605719D02*
X29153552Y-29558579D01*
X29129982Y-29487869D01*
X29012131Y-29370017D01*
X28941420Y-29346447D01*
X28894280Y-29346447D01*
X28823570Y-29370017D01*
X28776429Y-29417158D01*
X28729288Y-29511439D01*
X28729288Y-30077124D01*
X28422876Y-29770711D01*
X28422875Y-29205025D02*
X28493586Y-29228595D01*
X28540726Y-29228595D01*
X28611438Y-29205025D01*
X28635008Y-29181455D01*
X28658578Y-29110744D01*
X28658578Y-29063604D01*
X28635007Y-28992893D01*
X28540726Y-28898613D01*
X28470016Y-28875042D01*
X28422876Y-28875042D01*
X28352165Y-28898613D01*
X28328595Y-28922183D01*
X28305024Y-28992893D01*
X28305024Y-29040033D01*
X28328594Y-29110745D01*
X28422875Y-29205025D01*
X28446446Y-29275736D01*
X28446446Y-29322876D01*
X28422876Y-29393587D01*
X28328595Y-29487868D01*
X28257884Y-29511438D01*
X28210744Y-29511438D01*
X28140032Y-29487868D01*
X28045752Y-29393587D01*
X28022182Y-29322876D01*
X28022182Y-29275736D01*
X28045752Y-29205025D01*
X28140033Y-29110745D01*
X28210744Y-29087174D01*
X28257884Y-29087174D01*
X28328594Y-29110745D01*
X27041421Y-31994975D02*
X27041422Y-32042115D01*
X27088562Y-32136397D01*
X27135702Y-32183537D01*
X27229983Y-32230677D01*
X27324264Y-32230677D01*
X27394975Y-32207107D01*
X27512826Y-32136397D01*
X27583537Y-32065686D01*
X27654247Y-31947834D01*
X27677817Y-31877124D01*
X27677817Y-31782843D01*
X27630677Y-31688562D01*
X27583537Y-31641422D01*
X27489256Y-31594281D01*
X27442115Y-31594281D01*
X27253554Y-31405719D02*
X27253553Y-31358579D01*
X27229983Y-31287869D01*
X27112132Y-31170017D01*
X27041421Y-31146447D01*
X26994281Y-31146447D01*
X26923571Y-31170017D01*
X26876430Y-31217158D01*
X26829289Y-31311439D01*
X26829289Y-31877124D01*
X26522877Y-31570711D01*
X26287174Y-31335009D02*
X26192893Y-31240728D01*
X26169323Y-31170017D01*
X26169323Y-31122877D01*
X26192893Y-31005025D01*
X26263604Y-30887175D01*
X26452166Y-30698613D01*
X26522877Y-30675042D01*
X26570017Y-30675042D01*
X26640727Y-30698613D01*
X26735008Y-30792893D01*
X26758579Y-30863604D01*
X26758579Y-30910744D01*
X26735009Y-30981455D01*
X26617157Y-31099307D01*
X26546447Y-31122876D01*
X26499306Y-31122877D01*
X26428595Y-31099306D01*
X26334315Y-31005025D01*
X26310744Y-30934315D01*
X26310745Y-30887174D01*
X26334315Y-30816464D01*
X17133333Y-31716667D02*
X17133333Y-32216667D01*
X17166667Y-32316667D01*
X17233333Y-32383333D01*
X17333333Y-32416667D01*
X17400000Y-32416667D01*
X16866667Y-31716667D02*
X16433334Y-31716667D01*
X16666667Y-31983333D01*
X16566667Y-31983333D01*
X16500000Y-32016667D01*
X16466667Y-32050000D01*
X16433334Y-32116667D01*
X16433334Y-32283333D01*
X16466667Y-32350000D01*
X16500000Y-32383333D01*
X16566667Y-32416667D01*
X16766667Y-32416667D01*
X16833334Y-32383333D01*
X16866667Y-32350000D01*
X12033333Y-28516667D02*
X12033333Y-29016667D01*
X12066667Y-29116667D01*
X12133333Y-29183333D01*
X12233333Y-29216667D01*
X12300000Y-29216667D01*
X11400000Y-28750000D02*
X11400000Y-29216667D01*
X11566667Y-28483333D02*
X11733334Y-28983333D01*
X11300000Y-28983333D01*
X5250000Y-23950000D02*
X5283334Y-23983333D01*
X5383334Y-24016667D01*
X5450000Y-24016667D01*
X5550000Y-23983333D01*
X5616667Y-23916667D01*
X5650000Y-23850000D01*
X5683334Y-23716667D01*
X5683334Y-23616667D01*
X5650000Y-23483333D01*
X5616667Y-23416667D01*
X5550000Y-23350000D01*
X5450000Y-23316667D01*
X5383334Y-23316667D01*
X5283334Y-23350000D01*
X5250000Y-23383333D01*
X5016667Y-23316667D02*
X4583334Y-23316667D01*
X4816667Y-23583333D01*
X4716667Y-23583333D01*
X4650000Y-23616667D01*
X4616667Y-23650000D01*
X4583334Y-23716667D01*
X4583334Y-23883333D01*
X4616667Y-23950000D01*
X4650000Y-23983333D01*
X4716667Y-24016667D01*
X4916667Y-24016667D01*
X4983334Y-23983333D01*
X5016667Y-23950000D01*
X4350000Y-23316667D02*
X3916667Y-23316667D01*
X4150000Y-23583333D01*
X4050000Y-23583333D01*
X3983333Y-23616667D01*
X3950000Y-23650000D01*
X3916667Y-23716667D01*
X3916667Y-23883333D01*
X3950000Y-23950000D01*
X3983333Y-23983333D01*
X4050000Y-24016667D01*
X4250000Y-24016667D01*
X4316667Y-23983333D01*
X4350000Y-23950000D01*
X7083333Y-29266667D02*
X7083333Y-29833333D01*
X7050000Y-29900000D01*
X7016667Y-29933333D01*
X6950000Y-29966667D01*
X6816667Y-29966667D01*
X6750000Y-29933333D01*
X6716667Y-29900000D01*
X6683333Y-29833333D01*
X6683333Y-29266667D01*
X6383334Y-29333333D02*
X6350000Y-29300000D01*
X6283334Y-29266667D01*
X6116667Y-29266667D01*
X6050000Y-29300000D01*
X6016667Y-29333333D01*
X5983334Y-29400000D01*
X5983334Y-29466667D01*
X6016667Y-29566667D01*
X6416667Y-29966667D01*
X5983334Y-29966667D01*
X12766666Y-24016667D02*
X13000000Y-23683333D01*
X13166666Y-24016667D02*
X13166666Y-23316667D01*
X12900000Y-23316667D01*
X12833333Y-23350000D01*
X12800000Y-23383333D01*
X12766666Y-23450000D01*
X12766666Y-23550000D01*
X12800000Y-23616667D01*
X12833333Y-23650000D01*
X12900000Y-23683333D01*
X13166666Y-23683333D01*
X12166666Y-23550000D02*
X12166666Y-24016667D01*
X12333333Y-23283333D02*
X12500000Y-23783333D01*
X12066666Y-23783333D01*
X19316666Y-29216667D02*
X19550000Y-28883333D01*
X19716666Y-29216667D02*
X19716666Y-28516667D01*
X19450000Y-28516667D01*
X19383333Y-28550000D01*
X19350000Y-28583333D01*
X19316666Y-28650000D01*
X19316666Y-28750000D01*
X19350000Y-28816667D01*
X19383333Y-28850000D01*
X19450000Y-28883333D01*
X19716666Y-28883333D01*
X18683333Y-28516667D02*
X19016666Y-28516667D01*
X19050000Y-28850000D01*
X19016666Y-28816667D01*
X18950000Y-28783333D01*
X18783333Y-28783333D01*
X18716666Y-28816667D01*
X18683333Y-28850000D01*
X18650000Y-28916667D01*
X18650000Y-29083333D01*
X18683333Y-29150000D01*
X18716666Y-29183333D01*
X18783333Y-29216667D01*
X18950000Y-29216667D01*
X19016666Y-29183333D01*
X19050000Y-29150000D01*
X17250000Y-6000000D02*
X17283334Y-6033333D01*
X17383334Y-6066667D01*
X17450000Y-6066667D01*
X17550000Y-6033333D01*
X17616667Y-5966667D01*
X17650000Y-5900000D01*
X17683334Y-5766667D01*
X17683334Y-5666667D01*
X17650000Y-5533333D01*
X17616667Y-5466667D01*
X17550000Y-5400000D01*
X17450000Y-5366667D01*
X17383334Y-5366667D01*
X17283334Y-5400000D01*
X17250000Y-5433333D01*
X16983334Y-5433333D02*
X16950000Y-5400000D01*
X16883334Y-5366667D01*
X16716667Y-5366667D01*
X16650000Y-5400000D01*
X16616667Y-5433333D01*
X16583334Y-5500000D01*
X16583334Y-5566667D01*
X16616667Y-5666667D01*
X17016667Y-6066667D01*
X16583334Y-6066667D01*
X15916667Y-6066667D02*
X16316667Y-6066667D01*
X16116667Y-6066667D02*
X16116667Y-5366667D01*
X16183333Y-5466667D01*
X16250000Y-5533333D01*
X16316667Y-5566667D01*
X13550000Y-4050000D02*
X13583334Y-4083333D01*
X13683334Y-4116667D01*
X13750000Y-4116667D01*
X13850000Y-4083333D01*
X13916667Y-4016667D01*
X13950000Y-3950000D01*
X13983334Y-3816667D01*
X13983334Y-3716667D01*
X13950000Y-3583333D01*
X13916667Y-3516667D01*
X13850000Y-3450000D01*
X13750000Y-3416667D01*
X13683334Y-3416667D01*
X13583334Y-3450000D01*
X13550000Y-3483333D01*
X13283334Y-3483333D02*
X13250000Y-3450000D01*
X13183334Y-3416667D01*
X13016667Y-3416667D01*
X12950000Y-3450000D01*
X12916667Y-3483333D01*
X12883334Y-3550000D01*
X12883334Y-3616667D01*
X12916667Y-3716667D01*
X13316667Y-4116667D01*
X12883334Y-4116667D01*
X12616667Y-3483333D02*
X12583333Y-3450000D01*
X12516667Y-3416667D01*
X12350000Y-3416667D01*
X12283333Y-3450000D01*
X12250000Y-3483333D01*
X12216667Y-3550000D01*
X12216667Y-3616667D01*
X12250000Y-3716667D01*
X12650000Y-4116667D01*
X12216667Y-4116667D01*
X38650000Y-5350000D02*
X38683334Y-5383333D01*
X38783334Y-5416667D01*
X38850000Y-5416667D01*
X38950000Y-5383333D01*
X39016667Y-5316667D01*
X39050000Y-5250000D01*
X39083334Y-5116667D01*
X39083334Y-5016667D01*
X39050000Y-4883333D01*
X39016667Y-4816667D01*
X38950000Y-4750000D01*
X38850000Y-4716667D01*
X38783334Y-4716667D01*
X38683334Y-4750000D01*
X38650000Y-4783333D01*
X38383334Y-4783333D02*
X38350000Y-4750000D01*
X38283334Y-4716667D01*
X38116667Y-4716667D01*
X38050000Y-4750000D01*
X38016667Y-4783333D01*
X37983334Y-4850000D01*
X37983334Y-4916667D01*
X38016667Y-5016667D01*
X38416667Y-5416667D01*
X37983334Y-5416667D01*
X37383333Y-4716667D02*
X37516667Y-4716667D01*
X37583333Y-4750000D01*
X37616667Y-4783333D01*
X37683333Y-4883333D01*
X37716667Y-5016667D01*
X37716667Y-5283333D01*
X37683333Y-5350000D01*
X37650000Y-5383333D01*
X37583333Y-5416667D01*
X37450000Y-5416667D01*
X37383333Y-5383333D01*
X37350000Y-5350000D01*
X37316667Y-5283333D01*
X37316667Y-5116667D01*
X37350000Y-5050000D01*
X37383333Y-5016667D01*
X37450000Y-4983333D01*
X37583333Y-4983333D01*
X37650000Y-5016667D01*
X37683333Y-5050000D01*
X37716667Y-5116667D01*
X34250000Y-5250000D02*
X34283334Y-5283333D01*
X34383334Y-5316667D01*
X34450000Y-5316667D01*
X34550000Y-5283333D01*
X34616667Y-5216667D01*
X34650000Y-5150000D01*
X34683334Y-5016667D01*
X34683334Y-4916667D01*
X34650000Y-4783333D01*
X34616667Y-4716667D01*
X34550000Y-4650000D01*
X34450000Y-4616667D01*
X34383334Y-4616667D01*
X34283334Y-4650000D01*
X34250000Y-4683333D01*
X33983334Y-4683333D02*
X33950000Y-4650000D01*
X33883334Y-4616667D01*
X33716667Y-4616667D01*
X33650000Y-4650000D01*
X33616667Y-4683333D01*
X33583334Y-4750000D01*
X33583334Y-4816667D01*
X33616667Y-4916667D01*
X34016667Y-5316667D01*
X33583334Y-5316667D01*
X33350000Y-4616667D02*
X32883333Y-4616667D01*
X33183333Y-5316667D01*
X39850000Y-36850000D02*
X39883334Y-36883333D01*
X39983334Y-36916667D01*
X40050000Y-36916667D01*
X40150000Y-36883333D01*
X40216667Y-36816667D01*
X40250000Y-36750000D01*
X40283334Y-36616667D01*
X40283334Y-36516667D01*
X40250000Y-36383333D01*
X40216667Y-36316667D01*
X40150000Y-36250000D01*
X40050000Y-36216667D01*
X39983334Y-36216667D01*
X39883334Y-36250000D01*
X39850000Y-36283333D01*
X39616667Y-36216667D02*
X39183334Y-36216667D01*
X39416667Y-36483333D01*
X39316667Y-36483333D01*
X39250000Y-36516667D01*
X39216667Y-36550000D01*
X39183334Y-36616667D01*
X39183334Y-36783333D01*
X39216667Y-36850000D01*
X39250000Y-36883333D01*
X39316667Y-36916667D01*
X39516667Y-36916667D01*
X39583334Y-36883333D01*
X39616667Y-36850000D01*
X38750000Y-36216667D02*
X38683333Y-36216667D01*
X38616667Y-36250000D01*
X38583333Y-36283333D01*
X38550000Y-36350000D01*
X38516667Y-36483333D01*
X38516667Y-36650000D01*
X38550000Y-36783333D01*
X38583333Y-36850000D01*
X38616667Y-36883333D01*
X38683333Y-36916667D01*
X38750000Y-36916667D01*
X38816667Y-36883333D01*
X38850000Y-36850000D01*
X38883333Y-36783333D01*
X38916667Y-36650000D01*
X38916667Y-36483333D01*
X38883333Y-36350000D01*
X38850000Y-36283333D01*
X38816667Y-36250000D01*
X38750000Y-36216667D01*
X42950000Y-8450000D02*
X42983334Y-8483333D01*
X43083334Y-8516667D01*
X43150000Y-8516667D01*
X43250000Y-8483333D01*
X43316667Y-8416667D01*
X43350000Y-8350000D01*
X43383334Y-8216667D01*
X43383334Y-8116667D01*
X43350000Y-7983333D01*
X43316667Y-7916667D01*
X43250000Y-7850000D01*
X43150000Y-7816667D01*
X43083334Y-7816667D01*
X42983334Y-7850000D01*
X42950000Y-7883333D01*
X42716667Y-7816667D02*
X42283334Y-7816667D01*
X42516667Y-8083333D01*
X42416667Y-8083333D01*
X42350000Y-8116667D01*
X42316667Y-8150000D01*
X42283334Y-8216667D01*
X42283334Y-8383333D01*
X42316667Y-8450000D01*
X42350000Y-8483333D01*
X42416667Y-8516667D01*
X42616667Y-8516667D01*
X42683334Y-8483333D01*
X42716667Y-8450000D01*
X41683333Y-8050000D02*
X41683333Y-8516667D01*
X41850000Y-7783333D02*
X42016667Y-8283333D01*
X41583333Y-8283333D01*
X37050000Y-9850000D02*
X37083334Y-9883333D01*
X37183334Y-9916667D01*
X37250000Y-9916667D01*
X37350000Y-9883333D01*
X37416667Y-9816667D01*
X37450000Y-9750000D01*
X37483334Y-9616667D01*
X37483334Y-9516667D01*
X37450000Y-9383333D01*
X37416667Y-9316667D01*
X37350000Y-9250000D01*
X37250000Y-9216667D01*
X37183334Y-9216667D01*
X37083334Y-9250000D01*
X37050000Y-9283333D01*
X36816667Y-9216667D02*
X36383334Y-9216667D01*
X36616667Y-9483333D01*
X36516667Y-9483333D01*
X36450000Y-9516667D01*
X36416667Y-9550000D01*
X36383334Y-9616667D01*
X36383334Y-9783333D01*
X36416667Y-9850000D01*
X36450000Y-9883333D01*
X36516667Y-9916667D01*
X36716667Y-9916667D01*
X36783334Y-9883333D01*
X36816667Y-9850000D01*
X35750000Y-9216667D02*
X36083333Y-9216667D01*
X36116667Y-9550000D01*
X36083333Y-9516667D01*
X36016667Y-9483333D01*
X35850000Y-9483333D01*
X35783333Y-9516667D01*
X35750000Y-9550000D01*
X35716667Y-9616667D01*
X35716667Y-9783333D01*
X35750000Y-9850000D01*
X35783333Y-9883333D01*
X35850000Y-9916667D01*
X36016667Y-9916667D01*
X36083333Y-9883333D01*
X36116667Y-9850000D01*
X42150000Y-36850000D02*
X42183334Y-36883333D01*
X42283334Y-36916667D01*
X42350000Y-36916667D01*
X42450000Y-36883333D01*
X42516667Y-36816667D01*
X42550000Y-36750000D01*
X42583334Y-36616667D01*
X42583334Y-36516667D01*
X42550000Y-36383333D01*
X42516667Y-36316667D01*
X42450000Y-36250000D01*
X42350000Y-36216667D01*
X42283334Y-36216667D01*
X42183334Y-36250000D01*
X42150000Y-36283333D01*
X41916667Y-36216667D02*
X41483334Y-36216667D01*
X41716667Y-36483333D01*
X41616667Y-36483333D01*
X41550000Y-36516667D01*
X41516667Y-36550000D01*
X41483334Y-36616667D01*
X41483334Y-36783333D01*
X41516667Y-36850000D01*
X41550000Y-36883333D01*
X41616667Y-36916667D01*
X41816667Y-36916667D01*
X41883334Y-36883333D01*
X41916667Y-36850000D01*
X40883333Y-36216667D02*
X41016667Y-36216667D01*
X41083333Y-36250000D01*
X41116667Y-36283333D01*
X41183333Y-36383333D01*
X41216667Y-36516667D01*
X41216667Y-36783333D01*
X41183333Y-36850000D01*
X41150000Y-36883333D01*
X41083333Y-36916667D01*
X40950000Y-36916667D01*
X40883333Y-36883333D01*
X40850000Y-36850000D01*
X40816667Y-36783333D01*
X40816667Y-36616667D01*
X40850000Y-36550000D01*
X40883333Y-36516667D01*
X40950000Y-36483333D01*
X41083333Y-36483333D01*
X41150000Y-36516667D01*
X41183333Y-36550000D01*
X41216667Y-36616667D01*
X13883333Y-10500000D02*
X14116666Y-10500000D01*
X14116666Y-10866667D02*
X14116666Y-10166667D01*
X13783333Y-10166667D01*
X13283333Y-10500000D02*
X13183333Y-10533333D01*
X13150000Y-10566667D01*
X13116666Y-10633333D01*
X13116666Y-10733333D01*
X13150000Y-10800000D01*
X13183333Y-10833333D01*
X13250000Y-10866667D01*
X13516666Y-10866667D01*
X13516666Y-10166667D01*
X13283333Y-10166667D01*
X13216666Y-10200000D01*
X13183333Y-10233333D01*
X13150000Y-10300000D01*
X13150000Y-10366667D01*
X13183333Y-10433333D01*
X13216666Y-10466667D01*
X13283333Y-10500000D01*
X13516666Y-10500000D01*
X12483333Y-10166667D02*
X12816666Y-10166667D01*
X12850000Y-10500000D01*
X12816666Y-10466667D01*
X12750000Y-10433333D01*
X12583333Y-10433333D01*
X12516666Y-10466667D01*
X12483333Y-10500000D01*
X12450000Y-10566667D01*
X12450000Y-10733333D01*
X12483333Y-10800000D01*
X12516666Y-10833333D01*
X12583333Y-10866667D01*
X12750000Y-10866667D01*
X12816666Y-10833333D01*
X12850000Y-10800000D01*
X39383333Y-15450000D02*
X39616666Y-15450000D01*
X39616666Y-15816667D02*
X39616666Y-15116667D01*
X39283333Y-15116667D01*
X38783333Y-15450000D02*
X38683333Y-15483333D01*
X38650000Y-15516667D01*
X38616666Y-15583333D01*
X38616666Y-15683333D01*
X38650000Y-15750000D01*
X38683333Y-15783333D01*
X38750000Y-15816667D01*
X39016666Y-15816667D01*
X39016666Y-15116667D01*
X38783333Y-15116667D01*
X38716666Y-15150000D01*
X38683333Y-15183333D01*
X38650000Y-15250000D01*
X38650000Y-15316667D01*
X38683333Y-15383333D01*
X38716666Y-15416667D01*
X38783333Y-15450000D01*
X39016666Y-15450000D01*
X38016666Y-15116667D02*
X38150000Y-15116667D01*
X38216666Y-15150000D01*
X38250000Y-15183333D01*
X38316666Y-15283333D01*
X38350000Y-15416667D01*
X38350000Y-15683333D01*
X38316666Y-15750000D01*
X38283333Y-15783333D01*
X38216666Y-15816667D01*
X38083333Y-15816667D01*
X38016666Y-15783333D01*
X37983333Y-15750000D01*
X37950000Y-15683333D01*
X37950000Y-15516667D01*
X37983333Y-15450000D01*
X38016666Y-15416667D01*
X38083333Y-15383333D01*
X38216666Y-15383333D01*
X38283333Y-15416667D01*
X38316666Y-15450000D01*
X38350000Y-15516667D01*
X37183333Y-15450000D02*
X37416666Y-15450000D01*
X37416666Y-15816667D02*
X37416666Y-15116667D01*
X37083333Y-15116667D01*
X36583333Y-15450000D02*
X36483333Y-15483333D01*
X36450000Y-15516667D01*
X36416666Y-15583333D01*
X36416666Y-15683333D01*
X36450000Y-15750000D01*
X36483333Y-15783333D01*
X36550000Y-15816667D01*
X36816666Y-15816667D01*
X36816666Y-15116667D01*
X36583333Y-15116667D01*
X36516666Y-15150000D01*
X36483333Y-15183333D01*
X36450000Y-15250000D01*
X36450000Y-15316667D01*
X36483333Y-15383333D01*
X36516666Y-15416667D01*
X36583333Y-15450000D01*
X36816666Y-15450000D01*
X36183333Y-15116667D02*
X35716666Y-15116667D01*
X36016666Y-15816667D01*
X36483333Y-19650000D02*
X36716666Y-19650000D01*
X36716666Y-20016667D02*
X36716666Y-19316667D01*
X36383333Y-19316667D01*
X35883333Y-19650000D02*
X35783333Y-19683333D01*
X35750000Y-19716667D01*
X35716666Y-19783333D01*
X35716666Y-19883333D01*
X35750000Y-19950000D01*
X35783333Y-19983333D01*
X35850000Y-20016667D01*
X36116666Y-20016667D01*
X36116666Y-19316667D01*
X35883333Y-19316667D01*
X35816666Y-19350000D01*
X35783333Y-19383333D01*
X35750000Y-19450000D01*
X35750000Y-19516667D01*
X35783333Y-19583333D01*
X35816666Y-19616667D01*
X35883333Y-19650000D01*
X36116666Y-19650000D01*
X35316666Y-19616667D02*
X35383333Y-19583333D01*
X35416666Y-19550000D01*
X35450000Y-19483333D01*
X35450000Y-19450000D01*
X35416666Y-19383333D01*
X35383333Y-19350000D01*
X35316666Y-19316667D01*
X35183333Y-19316667D01*
X35116666Y-19350000D01*
X35083333Y-19383333D01*
X35050000Y-19450000D01*
X35050000Y-19483333D01*
X35083333Y-19550000D01*
X35116666Y-19583333D01*
X35183333Y-19616667D01*
X35316666Y-19616667D01*
X35383333Y-19650000D01*
X35416666Y-19683333D01*
X35450000Y-19750000D01*
X35450000Y-19883333D01*
X35416666Y-19950000D01*
X35383333Y-19983333D01*
X35316666Y-20016667D01*
X35183333Y-20016667D01*
X35116666Y-19983333D01*
X35083333Y-19950000D01*
X35050000Y-19883333D01*
X35050000Y-19750000D01*
X35083333Y-19683333D01*
X35116666Y-19650000D01*
X35183333Y-19616667D01*
X8333333Y-23666667D02*
X8333333Y-24166667D01*
X8366667Y-24266667D01*
X8433333Y-24333333D01*
X8533333Y-24366667D01*
X8600000Y-24366667D01*
X7700000Y-23666667D02*
X7833334Y-23666667D01*
X7900000Y-23700000D01*
X7933334Y-23733333D01*
X8000000Y-23833333D01*
X8033334Y-23966667D01*
X8033334Y-24233333D01*
X8000000Y-24300000D01*
X7966667Y-24333333D01*
X7900000Y-24366667D01*
X7766667Y-24366667D01*
X7700000Y-24333333D01*
X7666667Y-24300000D01*
X7633334Y-24233333D01*
X7633334Y-24066667D01*
X7666667Y-24000000D01*
X7700000Y-23966667D01*
X7766667Y-23933333D01*
X7900000Y-23933333D01*
X7966667Y-23966667D01*
X8000000Y-24000000D01*
X8033334Y-24066667D01*
M02*
