%FSLAX46Y46*%
G04 Gerber Fmt 4.6, Leading zero omitted, Abs format (unit mm)*
G04 Created by KiCad (PCBNEW (2014-08-05 BZR 5054)-product) date Sun 07 Dec 2014 10:24:09 PM PST*
%MOMM*%
G01*
G04 APERTURE LIST*
%ADD10C,0.100000*%
%ADD11R,3.000000X0.700000*%
%ADD12R,0.889000X1.397000*%
%ADD13R,1.397000X0.889000*%
%ADD14C,1.501140*%
%ADD15R,0.701040X1.000760*%
%ADD16C,6.350000*%
%ADD17C,1.800000*%
%ADD18O,1.600000X3.800000*%
%ADD19C,3.000000*%
%ADD20C,5.000000*%
%ADD21C,1.397000*%
%ADD22C,0.889000*%
G04 APERTURE END LIST*
D10*
D11*
X42300000Y-31200000D03*
X42300000Y-30200000D03*
X42300000Y-29200000D03*
X42300000Y-28200000D03*
X42300000Y-27200000D03*
X42300000Y-26200000D03*
X42300000Y-25200000D03*
X42300000Y-24200000D03*
X42300000Y-23200000D03*
X42300000Y-22200000D03*
X42300000Y-21200000D03*
X42300000Y-18200000D03*
X42300000Y-17200000D03*
X42300000Y-16200000D03*
X42300000Y-15200000D03*
X42300000Y-14200000D03*
X42300000Y-13200000D03*
X42300000Y-12200000D03*
D12*
X26147500Y-24600000D03*
X28052500Y-24600000D03*
D13*
X20300000Y-17847500D03*
X20300000Y-19752500D03*
X15800000Y-17847500D03*
X15800000Y-19752500D03*
X15800000Y-26752500D03*
X15800000Y-24847500D03*
D12*
X24252500Y-24600000D03*
X22347500Y-24600000D03*
D13*
X20000000Y-15752500D03*
X20000000Y-13847500D03*
X15100000Y-15852500D03*
X15100000Y-13947500D03*
X18000000Y-26752500D03*
X18000000Y-24847500D03*
D12*
X24252500Y-22400000D03*
X22347500Y-22400000D03*
X24252500Y-20200000D03*
X22347500Y-20200000D03*
D13*
X18000000Y-17847500D03*
X18000000Y-19752500D03*
D12*
X26247500Y-22750000D03*
X28152500Y-22750000D03*
X26247500Y-20800000D03*
X28152500Y-20800000D03*
D13*
X17200000Y-15852500D03*
X17200000Y-13947500D03*
D10*
G36*
X25418258Y-27206086D02*
X26406086Y-26218258D01*
X27034704Y-26846876D01*
X26046876Y-27834704D01*
X25418258Y-27206086D01*
X25418258Y-27206086D01*
G37*
G36*
X26765296Y-28553124D02*
X27753124Y-27565296D01*
X28381742Y-28193914D01*
X27393914Y-29181742D01*
X26765296Y-28553124D01*
X26765296Y-28553124D01*
G37*
G36*
X23518258Y-29106086D02*
X24506086Y-28118258D01*
X25134704Y-28746876D01*
X24146876Y-29734704D01*
X23518258Y-29106086D01*
X23518258Y-29106086D01*
G37*
G36*
X24865296Y-30453124D02*
X25853124Y-29465296D01*
X26481742Y-30093914D01*
X25493914Y-31081742D01*
X24865296Y-30453124D01*
X24865296Y-30453124D01*
G37*
D13*
X15400000Y-30047500D03*
X15400000Y-31952500D03*
D12*
X13247500Y-28900000D03*
X15152500Y-28900000D03*
X3147500Y-25200000D03*
X5052500Y-25200000D03*
D14*
X28100000Y-42300000D03*
X35700000Y-42300000D03*
X31900000Y-42300000D03*
X39500000Y-42300000D03*
D15*
X5352500Y-27430000D03*
X4400000Y-27430000D03*
X3447500Y-27430000D03*
X3447500Y-29970000D03*
X4400000Y-29970000D03*
X5352500Y-29970000D03*
D16*
X7600000Y-46000000D03*
X7600000Y-3900000D03*
X46000000Y-3900000D03*
X46000000Y-46000000D03*
D13*
X12700000Y-26752500D03*
X12700000Y-24847500D03*
D12*
X17852500Y-28900000D03*
X15947500Y-28900000D03*
D13*
X15000000Y-6852500D03*
X15000000Y-4947500D03*
X13100000Y-6852500D03*
X13100000Y-4947500D03*
X38500000Y-8152500D03*
X38500000Y-6247500D03*
X34500000Y-8152500D03*
X34500000Y-6247500D03*
X39700000Y-40252500D03*
X39700000Y-38347500D03*
X40500000Y-8152500D03*
X40500000Y-6247500D03*
X36500000Y-8152500D03*
X36500000Y-6247500D03*
X41600000Y-40252500D03*
X41600000Y-38347500D03*
D12*
X12297500Y-9150000D03*
X14202500Y-9150000D03*
D13*
X38800000Y-12447500D03*
X38800000Y-14352500D03*
X36700000Y-12447500D03*
X36700000Y-14352500D03*
D12*
X39352500Y-19700000D03*
X37447500Y-19700000D03*
D13*
X8000000Y-27202500D03*
X8000000Y-25297500D03*
D17*
X18050000Y-40650000D03*
X15510000Y-40650000D03*
X15550000Y-38100000D03*
X18090000Y-38100000D03*
X16150000Y-12100000D03*
X16150000Y-9560000D03*
D18*
X25500000Y-47800000D03*
X22960000Y-47800000D03*
X20420000Y-47800000D03*
X17880000Y-47800000D03*
X15340000Y-47800000D03*
X12800000Y-47800000D03*
D14*
X22450000Y-43300000D03*
X24350000Y-43300000D03*
X26250000Y-43300000D03*
D18*
X40740000Y-47800000D03*
X38200000Y-47800000D03*
X35660000Y-47800000D03*
X33120000Y-47800000D03*
X30580000Y-47800000D03*
X28040000Y-47800000D03*
D19*
X2000000Y-2000000D03*
X47800000Y-41500000D03*
D14*
X26250000Y-41450000D03*
D20*
X19800000Y-22300000D03*
D21*
X30000000Y-34600000D03*
D22*
X25350000Y-25050000D03*
X25500000Y-22850000D03*
D21*
X33500000Y-34600000D03*
D22*
X25500000Y-20750000D03*
D21*
X37000000Y-36200000D03*
D22*
X19100000Y-16200000D03*
X23550000Y-14100000D03*
X4900000Y-7300000D03*
D21*
X39500000Y-9600000D03*
X27100000Y-36100000D03*
D22*
X16100000Y-15852500D03*
X15600000Y-17100000D03*
X14800000Y-27000000D03*
X5800000Y-26400000D03*
X16150000Y-14300000D03*
X1700000Y-28200000D03*
X6300000Y-24250000D03*
X1700000Y-34450000D03*
X35500000Y-5400000D03*
X41700000Y-37500000D03*
X39500000Y-5400000D03*
X1700000Y-14000000D03*
X1675000Y-20825000D03*
X1700000Y-31100000D03*
X39700000Y-35300000D03*
X22300000Y-36900000D03*
X40000000Y-22000000D03*
X40000000Y-25000000D03*
X40000000Y-28000000D03*
X40000000Y-31200000D03*
X29500000Y-21000000D03*
X16900000Y-19400000D03*
X19100000Y-19400000D03*
X21400000Y-19400000D03*
X22900000Y-19400000D03*
X16900000Y-25200000D03*
X19100000Y-25200000D03*
X21400000Y-25200000D03*
X22900000Y-25200000D03*
X22900000Y-23500000D03*
X22900000Y-21300000D03*
X16900000Y-21300000D03*
X16900000Y-23500000D03*
X26200000Y-28900000D03*
X19600000Y-12200000D03*
X28050000Y-25650000D03*
X23550000Y-9900000D03*
X9600000Y-20800000D03*
X9700000Y-31000000D03*
X9500000Y-26100000D03*
X14000000Y-45800000D03*
D21*
X41500000Y-10500000D03*
X29700000Y-42300000D03*
D22*
X26000000Y-26300000D03*
X23600000Y-28700000D03*
D21*
X3500000Y-38600000D03*
D22*
X16600000Y-45500000D03*
X19150000Y-45500000D03*
X21650000Y-45500000D03*
X7100000Y-25300000D03*
X8900000Y-28900000D03*
X15450000Y-35450000D03*
X5200000Y-35500000D03*
X13700000Y-27000000D03*
D21*
X1900000Y-42400000D03*
X2650000Y-8700000D03*
X41550000Y-19700000D03*
D22*
X16050000Y-27900000D03*
D21*
X2800000Y-11500000D03*
X11500000Y-11200000D03*
D22*
X1700000Y-26900000D03*
X6600000Y-28300000D03*
X1700000Y-29700000D03*
X5400000Y-30900000D03*
X3500000Y-40750000D03*
M02*
