%FSLAX46Y46*%
G04 Gerber Fmt 4.6, Leading zero omitted, Abs format (unit mm)*
G04 Created by KiCad (PCBNEW (2014-08-05 BZR 5054)-product) date Sun 07 Dec 2014 10:24:08 PM PST*
%MOMM*%
G01*
G04 APERTURE LIST*
%ADD10C,0.100000*%
%ADD11C,1.501140*%
%ADD12C,6.350000*%
%ADD13C,1.800000*%
%ADD14C,5.000000*%
%ADD15C,1.397000*%
%ADD16C,0.889000*%
%ADD17C,0.254000*%
G04 APERTURE END LIST*
D10*
D11*
X28100000Y-42300000D03*
X35700000Y-42300000D03*
X31900000Y-42300000D03*
X39500000Y-42300000D03*
D12*
X7600000Y-46000000D03*
X7600000Y-3900000D03*
X46000000Y-3900000D03*
X46000000Y-46000000D03*
D13*
X18050000Y-40650000D03*
X15510000Y-40650000D03*
X15550000Y-38100000D03*
X18090000Y-38100000D03*
X16150000Y-12100000D03*
X16150000Y-9560000D03*
D11*
X22450000Y-43300000D03*
X24350000Y-43300000D03*
X26250000Y-43300000D03*
X26250000Y-41450000D03*
D14*
X19800000Y-22300000D03*
D15*
X30000000Y-34600000D03*
D16*
X25350000Y-25050000D03*
X25500000Y-22850000D03*
D15*
X33500000Y-34600000D03*
D16*
X25500000Y-20750000D03*
D15*
X37000000Y-36200000D03*
D16*
X19100000Y-16200000D03*
X23550000Y-14100000D03*
X4900000Y-7300000D03*
D15*
X39500000Y-9600000D03*
X27100000Y-36100000D03*
D16*
X16100000Y-15852500D03*
X15600000Y-17100000D03*
X14800000Y-27000000D03*
X5800000Y-26400000D03*
X16150000Y-14300000D03*
X1700000Y-28200000D03*
X6300000Y-24250000D03*
X1700000Y-34450000D03*
X35500000Y-5400000D03*
X41700000Y-37500000D03*
X39500000Y-5400000D03*
X1700000Y-14000000D03*
X1675000Y-20825000D03*
X1700000Y-31100000D03*
X39700000Y-35300000D03*
X22300000Y-36900000D03*
X40000000Y-22000000D03*
X40000000Y-25000000D03*
X40000000Y-28000000D03*
X40000000Y-31200000D03*
X29500000Y-21000000D03*
X16900000Y-19400000D03*
X19100000Y-19400000D03*
X21400000Y-19400000D03*
X22900000Y-19400000D03*
X16900000Y-25200000D03*
X19100000Y-25200000D03*
X21400000Y-25200000D03*
X22900000Y-25200000D03*
X22900000Y-23500000D03*
X22900000Y-21300000D03*
X16900000Y-21300000D03*
X16900000Y-23500000D03*
X26200000Y-28900000D03*
X19600000Y-12200000D03*
X28050000Y-25650000D03*
X23550000Y-9900000D03*
X9600000Y-20800000D03*
X9700000Y-31000000D03*
X9500000Y-26100000D03*
X14000000Y-45800000D03*
D15*
X41500000Y-10500000D03*
X29700000Y-42300000D03*
D16*
X26000000Y-26300000D03*
X23600000Y-28700000D03*
D15*
X3500000Y-38600000D03*
D16*
X16600000Y-45500000D03*
X19150000Y-45500000D03*
X21650000Y-45500000D03*
X7100000Y-25300000D03*
X8900000Y-28900000D03*
X15450000Y-35450000D03*
X5200000Y-35500000D03*
X13700000Y-27000000D03*
D15*
X1900000Y-42400000D03*
X2650000Y-8700000D03*
X41550000Y-19700000D03*
D16*
X16050000Y-27900000D03*
D15*
X2800000Y-11500000D03*
X11500000Y-11200000D03*
D16*
X1700000Y-26900000D03*
X6600000Y-28300000D03*
X1700000Y-29700000D03*
X5400000Y-30900000D03*
X3500000Y-40750000D03*
D17*
G36*
X34873000Y-49313000D02*
X32127000Y-49313000D01*
X32127000Y-43627768D01*
X32162912Y-43627800D01*
X32651026Y-43426116D01*
X33024803Y-43052990D01*
X33227339Y-42565229D01*
X33227800Y-42037088D01*
X33026116Y-41548974D01*
X32652990Y-41175197D01*
X32165229Y-40972661D01*
X32127000Y-40972627D01*
X32127000Y-29681011D01*
X29774960Y-21991652D01*
X30077877Y-21866490D01*
X30365480Y-21579389D01*
X30521322Y-21204080D01*
X30521677Y-20797703D01*
X30366490Y-20422123D01*
X30079389Y-20134520D01*
X29704080Y-19978678D01*
X29297703Y-19978323D01*
X28922123Y-20133510D01*
X28634520Y-20420611D01*
X28478678Y-20795920D01*
X28478435Y-21073000D01*
X23911469Y-21073000D01*
X23766490Y-20722123D01*
X23479389Y-20434520D01*
X23275805Y-20349984D01*
X23477877Y-20266490D01*
X23765480Y-19979389D01*
X23921322Y-19604080D01*
X23921677Y-19197703D01*
X23768505Y-18827000D01*
X31812622Y-18827000D01*
X34873000Y-26823472D01*
X34873000Y-41249725D01*
X34575197Y-41547010D01*
X34372661Y-42034771D01*
X34372200Y-42562912D01*
X34573884Y-43051026D01*
X34873000Y-43350663D01*
X34873000Y-49313000D01*
X34873000Y-49313000D01*
G37*
X34873000Y-49313000D02*
X32127000Y-49313000D01*
X32127000Y-43627768D01*
X32162912Y-43627800D01*
X32651026Y-43426116D01*
X33024803Y-43052990D01*
X33227339Y-42565229D01*
X33227800Y-42037088D01*
X33026116Y-41548974D01*
X32652990Y-41175197D01*
X32165229Y-40972661D01*
X32127000Y-40972627D01*
X32127000Y-29681011D01*
X29774960Y-21991652D01*
X30077877Y-21866490D01*
X30365480Y-21579389D01*
X30521322Y-21204080D01*
X30521677Y-20797703D01*
X30366490Y-20422123D01*
X30079389Y-20134520D01*
X29704080Y-19978678D01*
X29297703Y-19978323D01*
X28922123Y-20133510D01*
X28634520Y-20420611D01*
X28478678Y-20795920D01*
X28478435Y-21073000D01*
X23911469Y-21073000D01*
X23766490Y-20722123D01*
X23479389Y-20434520D01*
X23275805Y-20349984D01*
X23477877Y-20266490D01*
X23765480Y-19979389D01*
X23921322Y-19604080D01*
X23921677Y-19197703D01*
X23768505Y-18827000D01*
X31812622Y-18827000D01*
X34873000Y-26823472D01*
X34873000Y-41249725D01*
X34575197Y-41547010D01*
X34372661Y-42034771D01*
X34372200Y-42562912D01*
X34573884Y-43051026D01*
X34873000Y-43350663D01*
X34873000Y-49313000D01*
G36*
X31373000Y-41081318D02*
X31148974Y-41173884D01*
X30775197Y-41547010D01*
X30767965Y-41564425D01*
X30423456Y-41219314D01*
X29954826Y-41024721D01*
X29447400Y-41024279D01*
X29071677Y-41179524D01*
X29071677Y-25447703D01*
X28916490Y-25072123D01*
X28629389Y-24784520D01*
X28254080Y-24628678D01*
X27847703Y-24628323D01*
X27472123Y-24783510D01*
X27184520Y-25070611D01*
X27028678Y-25445920D01*
X27028323Y-25852297D01*
X27183510Y-26227877D01*
X27470611Y-26515480D01*
X27845920Y-26671322D01*
X28252297Y-26671677D01*
X28627877Y-26516490D01*
X28915480Y-26229389D01*
X29071322Y-25854080D01*
X29071677Y-25447703D01*
X29071677Y-41179524D01*
X28978431Y-41218053D01*
X28937029Y-41259382D01*
X28852990Y-41175197D01*
X28627000Y-41081357D01*
X28627000Y-35051136D01*
X27221677Y-33495242D01*
X27221677Y-28697703D01*
X27066490Y-28322123D01*
X27021677Y-28277231D01*
X27021677Y-26097703D01*
X26866490Y-25722123D01*
X26579389Y-25434520D01*
X26204080Y-25278678D01*
X25797703Y-25278323D01*
X25422123Y-25433510D01*
X25134520Y-25720611D01*
X24978678Y-26095920D01*
X24978323Y-26502297D01*
X25133510Y-26877877D01*
X25420611Y-27165480D01*
X25795920Y-27321322D01*
X26202297Y-27321677D01*
X26577877Y-27166490D01*
X26865480Y-26879389D01*
X27021322Y-26504080D01*
X27021677Y-26097703D01*
X27021677Y-28277231D01*
X26779389Y-28034520D01*
X26404080Y-27878678D01*
X25997703Y-27878323D01*
X25622123Y-28033510D01*
X25334520Y-28320611D01*
X25178678Y-28695920D01*
X25178323Y-29102297D01*
X25333510Y-29477877D01*
X25620611Y-29765480D01*
X25995920Y-29921322D01*
X26402297Y-29921677D01*
X26777877Y-29766490D01*
X27065480Y-29479389D01*
X27221322Y-29104080D01*
X27221677Y-28697703D01*
X27221677Y-33495242D01*
X23810306Y-29718367D01*
X24177877Y-29566490D01*
X24465480Y-29279389D01*
X24621322Y-28904080D01*
X24621677Y-28497703D01*
X24466490Y-28122123D01*
X24179389Y-27834520D01*
X23804080Y-27678678D01*
X23397703Y-27678323D01*
X23027000Y-27831494D01*
X23027000Y-26221611D01*
X23102297Y-26221677D01*
X23477877Y-26066490D01*
X23765480Y-25779389D01*
X23921322Y-25404080D01*
X23921677Y-24997703D01*
X23766490Y-24622123D01*
X23494619Y-24349776D01*
X23765480Y-24079389D01*
X23921322Y-23704080D01*
X23921677Y-23297703D01*
X23766490Y-22922123D01*
X23479389Y-22634520D01*
X23104080Y-22478678D01*
X22876845Y-22478479D01*
X22876982Y-22321480D01*
X23102297Y-22321677D01*
X23477877Y-22166490D01*
X23765480Y-21879389D01*
X23787233Y-21827000D01*
X28806039Y-21827000D01*
X31373000Y-30218989D01*
X31373000Y-41081318D01*
X31373000Y-41081318D01*
G37*
X31373000Y-41081318D02*
X31148974Y-41173884D01*
X30775197Y-41547010D01*
X30767965Y-41564425D01*
X30423456Y-41219314D01*
X29954826Y-41024721D01*
X29447400Y-41024279D01*
X29071677Y-41179524D01*
X29071677Y-25447703D01*
X28916490Y-25072123D01*
X28629389Y-24784520D01*
X28254080Y-24628678D01*
X27847703Y-24628323D01*
X27472123Y-24783510D01*
X27184520Y-25070611D01*
X27028678Y-25445920D01*
X27028323Y-25852297D01*
X27183510Y-26227877D01*
X27470611Y-26515480D01*
X27845920Y-26671322D01*
X28252297Y-26671677D01*
X28627877Y-26516490D01*
X28915480Y-26229389D01*
X29071322Y-25854080D01*
X29071677Y-25447703D01*
X29071677Y-41179524D01*
X28978431Y-41218053D01*
X28937029Y-41259382D01*
X28852990Y-41175197D01*
X28627000Y-41081357D01*
X28627000Y-35051136D01*
X27221677Y-33495242D01*
X27221677Y-28697703D01*
X27066490Y-28322123D01*
X27021677Y-28277231D01*
X27021677Y-26097703D01*
X26866490Y-25722123D01*
X26579389Y-25434520D01*
X26204080Y-25278678D01*
X25797703Y-25278323D01*
X25422123Y-25433510D01*
X25134520Y-25720611D01*
X24978678Y-26095920D01*
X24978323Y-26502297D01*
X25133510Y-26877877D01*
X25420611Y-27165480D01*
X25795920Y-27321322D01*
X26202297Y-27321677D01*
X26577877Y-27166490D01*
X26865480Y-26879389D01*
X27021322Y-26504080D01*
X27021677Y-26097703D01*
X27021677Y-28277231D01*
X26779389Y-28034520D01*
X26404080Y-27878678D01*
X25997703Y-27878323D01*
X25622123Y-28033510D01*
X25334520Y-28320611D01*
X25178678Y-28695920D01*
X25178323Y-29102297D01*
X25333510Y-29477877D01*
X25620611Y-29765480D01*
X25995920Y-29921322D01*
X26402297Y-29921677D01*
X26777877Y-29766490D01*
X27065480Y-29479389D01*
X27221322Y-29104080D01*
X27221677Y-28697703D01*
X27221677Y-33495242D01*
X23810306Y-29718367D01*
X24177877Y-29566490D01*
X24465480Y-29279389D01*
X24621322Y-28904080D01*
X24621677Y-28497703D01*
X24466490Y-28122123D01*
X24179389Y-27834520D01*
X23804080Y-27678678D01*
X23397703Y-27678323D01*
X23027000Y-27831494D01*
X23027000Y-26221611D01*
X23102297Y-26221677D01*
X23477877Y-26066490D01*
X23765480Y-25779389D01*
X23921322Y-25404080D01*
X23921677Y-24997703D01*
X23766490Y-24622123D01*
X23494619Y-24349776D01*
X23765480Y-24079389D01*
X23921322Y-23704080D01*
X23921677Y-23297703D01*
X23766490Y-22922123D01*
X23479389Y-22634520D01*
X23104080Y-22478678D01*
X22876845Y-22478479D01*
X22876982Y-22321480D01*
X23102297Y-22321677D01*
X23477877Y-22166490D01*
X23765480Y-21879389D01*
X23787233Y-21827000D01*
X28806039Y-21827000D01*
X31373000Y-30218989D01*
X31373000Y-41081318D01*
G36*
X38373000Y-49313000D02*
X35627000Y-49313000D01*
X35627000Y-43627506D01*
X35962912Y-43627800D01*
X36451026Y-43426116D01*
X36824803Y-43052990D01*
X37027339Y-42565229D01*
X37027800Y-42037088D01*
X36826116Y-41548974D01*
X36452990Y-41175197D01*
X35965229Y-40972661D01*
X35627000Y-40972365D01*
X35627000Y-26476366D01*
X32387148Y-18073000D01*
X20621677Y-18073000D01*
X20621677Y-11997703D01*
X20466490Y-11622123D01*
X20179389Y-11334520D01*
X19804080Y-11178678D01*
X19397703Y-11178323D01*
X19022123Y-11333510D01*
X18734520Y-11620611D01*
X18578678Y-11995920D01*
X18578323Y-12402297D01*
X18733510Y-12777877D01*
X19020611Y-13065480D01*
X19395920Y-13221322D01*
X19802297Y-13221677D01*
X20177877Y-13066490D01*
X20465480Y-12779389D01*
X20621322Y-12404080D01*
X20621677Y-11997703D01*
X20621677Y-18073000D01*
X18927000Y-18073000D01*
X18927000Y-16947395D01*
X18227000Y-16247395D01*
X18227000Y-9052605D01*
X18352605Y-8927000D01*
X23229896Y-8927000D01*
X22972123Y-9033510D01*
X22684520Y-9320611D01*
X22528678Y-9695920D01*
X22528323Y-10102297D01*
X22683510Y-10477877D01*
X22970611Y-10765480D01*
X23345920Y-10921322D01*
X23752297Y-10921677D01*
X24127877Y-10766490D01*
X24415480Y-10479389D01*
X24571322Y-10104080D01*
X24571677Y-9697703D01*
X24416490Y-9322123D01*
X24129389Y-9034520D01*
X23870452Y-8927000D01*
X28947005Y-8927000D01*
X38373000Y-18452216D01*
X38373000Y-41552300D01*
X38172661Y-42034771D01*
X38172200Y-42562912D01*
X38373000Y-43048886D01*
X38373000Y-49313000D01*
X38373000Y-49313000D01*
G37*
X38373000Y-49313000D02*
X35627000Y-49313000D01*
X35627000Y-43627506D01*
X35962912Y-43627800D01*
X36451026Y-43426116D01*
X36824803Y-43052990D01*
X37027339Y-42565229D01*
X37027800Y-42037088D01*
X36826116Y-41548974D01*
X36452990Y-41175197D01*
X35965229Y-40972661D01*
X35627000Y-40972365D01*
X35627000Y-26476366D01*
X32387148Y-18073000D01*
X20621677Y-18073000D01*
X20621677Y-11997703D01*
X20466490Y-11622123D01*
X20179389Y-11334520D01*
X19804080Y-11178678D01*
X19397703Y-11178323D01*
X19022123Y-11333510D01*
X18734520Y-11620611D01*
X18578678Y-11995920D01*
X18578323Y-12402297D01*
X18733510Y-12777877D01*
X19020611Y-13065480D01*
X19395920Y-13221322D01*
X19802297Y-13221677D01*
X20177877Y-13066490D01*
X20465480Y-12779389D01*
X20621322Y-12404080D01*
X20621677Y-11997703D01*
X20621677Y-18073000D01*
X18927000Y-18073000D01*
X18927000Y-16947395D01*
X18227000Y-16247395D01*
X18227000Y-9052605D01*
X18352605Y-8927000D01*
X23229896Y-8927000D01*
X22972123Y-9033510D01*
X22684520Y-9320611D01*
X22528678Y-9695920D01*
X22528323Y-10102297D01*
X22683510Y-10477877D01*
X22970611Y-10765480D01*
X23345920Y-10921322D01*
X23752297Y-10921677D01*
X24127877Y-10766490D01*
X24415480Y-10479389D01*
X24571322Y-10104080D01*
X24571677Y-9697703D01*
X24416490Y-9322123D01*
X24129389Y-9034520D01*
X23870452Y-8927000D01*
X28947005Y-8927000D01*
X38373000Y-18452216D01*
X38373000Y-41552300D01*
X38172661Y-42034771D01*
X38172200Y-42562912D01*
X38373000Y-43048886D01*
X38373000Y-49313000D01*
G36*
X49313000Y-44192921D02*
X49182645Y-43877439D01*
X48128112Y-42821064D01*
X46749593Y-42248653D01*
X45256955Y-42247350D01*
X43877439Y-42817355D01*
X42821064Y-43871888D01*
X42721677Y-44111238D01*
X42721677Y-37297703D01*
X42566490Y-36922123D01*
X42279389Y-36634520D01*
X41904080Y-36478678D01*
X41497703Y-36478323D01*
X41122123Y-36633510D01*
X40834520Y-36920611D01*
X40678678Y-37295920D01*
X40678323Y-37702297D01*
X40833510Y-38077877D01*
X41120611Y-38365480D01*
X41495920Y-38521322D01*
X41902297Y-38521677D01*
X42277877Y-38366490D01*
X42565480Y-38079389D01*
X42721322Y-37704080D01*
X42721677Y-37297703D01*
X42721677Y-44111238D01*
X42248653Y-45250407D01*
X42247350Y-46743045D01*
X42817355Y-48122561D01*
X43871888Y-49178936D01*
X44194750Y-49313000D01*
X39127000Y-49313000D01*
X39127000Y-36168132D01*
X39495920Y-36321322D01*
X39902297Y-36321677D01*
X40277877Y-36166490D01*
X40565480Y-35879389D01*
X40721322Y-35504080D01*
X40721677Y-35097703D01*
X40566490Y-34722123D01*
X40279389Y-34434520D01*
X39904080Y-34278678D01*
X39497703Y-34278323D01*
X39127000Y-34431494D01*
X39127000Y-31762121D01*
X39133510Y-31777877D01*
X39420611Y-32065480D01*
X39795920Y-32221322D01*
X40202297Y-32221677D01*
X40577877Y-32066490D01*
X40865480Y-31779389D01*
X41021322Y-31404080D01*
X41021677Y-30997703D01*
X40866490Y-30622123D01*
X40579389Y-30334520D01*
X40204080Y-30178678D01*
X39797703Y-30178323D01*
X39422123Y-30333510D01*
X39134520Y-30620611D01*
X39127000Y-30638721D01*
X39127000Y-28562121D01*
X39133510Y-28577877D01*
X39420611Y-28865480D01*
X39795920Y-29021322D01*
X40202297Y-29021677D01*
X40577877Y-28866490D01*
X40865480Y-28579389D01*
X41021322Y-28204080D01*
X41021677Y-27797703D01*
X40866490Y-27422123D01*
X40579389Y-27134520D01*
X40204080Y-26978678D01*
X39797703Y-26978323D01*
X39422123Y-27133510D01*
X39134520Y-27420611D01*
X39127000Y-27438721D01*
X39127000Y-25562121D01*
X39133510Y-25577877D01*
X39420611Y-25865480D01*
X39795920Y-26021322D01*
X40202297Y-26021677D01*
X40577877Y-25866490D01*
X40865480Y-25579389D01*
X41021322Y-25204080D01*
X41021677Y-24797703D01*
X40866490Y-24422123D01*
X40579389Y-24134520D01*
X40204080Y-23978678D01*
X39797703Y-23978323D01*
X39422123Y-24133510D01*
X39134520Y-24420611D01*
X39127000Y-24438721D01*
X39127000Y-22562121D01*
X39133510Y-22577877D01*
X39420611Y-22865480D01*
X39795920Y-23021322D01*
X40202297Y-23021677D01*
X40577877Y-22866490D01*
X40865480Y-22579389D01*
X41021322Y-22204080D01*
X41021677Y-21797703D01*
X40866490Y-21422123D01*
X40579389Y-21134520D01*
X40204080Y-20978678D01*
X39797703Y-20978323D01*
X39422123Y-21133510D01*
X39134520Y-21420611D01*
X39127000Y-21438721D01*
X39127000Y-19227000D01*
X44213000Y-19227000D01*
X44213000Y-31613000D01*
X44200000Y-31613000D01*
X44143297Y-31624279D01*
X44085483Y-31624279D01*
X43894141Y-31662339D01*
X43894138Y-31662339D01*
X43894137Y-31662340D01*
X43795856Y-31703049D01*
X43682539Y-31749987D01*
X43682537Y-31749988D01*
X43682536Y-31749989D01*
X43520325Y-31858376D01*
X43439350Y-31939350D01*
X43358376Y-32020325D01*
X43249989Y-32182536D01*
X43249988Y-32182537D01*
X43249987Y-32182539D01*
X43183607Y-32342794D01*
X43162340Y-32394137D01*
X43162339Y-32394137D01*
X43162339Y-32394140D01*
X43124279Y-32585483D01*
X43124279Y-32643292D01*
X43124279Y-32643295D01*
X43113000Y-32700000D01*
X43113000Y-32750000D01*
X43124279Y-32806704D01*
X43124279Y-32806707D01*
X43124279Y-32864517D01*
X43162339Y-33055860D01*
X43162339Y-33055862D01*
X43162340Y-33055863D01*
X43183607Y-33107206D01*
X43249987Y-33267461D01*
X43249988Y-33267462D01*
X43249989Y-33267464D01*
X43358373Y-33429670D01*
X43358376Y-33429675D01*
X43439350Y-33510649D01*
X43520325Y-33591624D01*
X43520330Y-33591627D01*
X43682536Y-33700011D01*
X43682537Y-33700011D01*
X43682539Y-33700013D01*
X43795856Y-33746950D01*
X43894137Y-33787660D01*
X43894138Y-33787660D01*
X43894141Y-33787661D01*
X44085483Y-33825721D01*
X44143297Y-33825721D01*
X44200000Y-33837000D01*
X49313000Y-33837000D01*
X49313000Y-44192921D01*
X49313000Y-44192921D01*
G37*
X49313000Y-44192921D02*
X49182645Y-43877439D01*
X48128112Y-42821064D01*
X46749593Y-42248653D01*
X45256955Y-42247350D01*
X43877439Y-42817355D01*
X42821064Y-43871888D01*
X42721677Y-44111238D01*
X42721677Y-37297703D01*
X42566490Y-36922123D01*
X42279389Y-36634520D01*
X41904080Y-36478678D01*
X41497703Y-36478323D01*
X41122123Y-36633510D01*
X40834520Y-36920611D01*
X40678678Y-37295920D01*
X40678323Y-37702297D01*
X40833510Y-38077877D01*
X41120611Y-38365480D01*
X41495920Y-38521322D01*
X41902297Y-38521677D01*
X42277877Y-38366490D01*
X42565480Y-38079389D01*
X42721322Y-37704080D01*
X42721677Y-37297703D01*
X42721677Y-44111238D01*
X42248653Y-45250407D01*
X42247350Y-46743045D01*
X42817355Y-48122561D01*
X43871888Y-49178936D01*
X44194750Y-49313000D01*
X39127000Y-49313000D01*
X39127000Y-36168132D01*
X39495920Y-36321322D01*
X39902297Y-36321677D01*
X40277877Y-36166490D01*
X40565480Y-35879389D01*
X40721322Y-35504080D01*
X40721677Y-35097703D01*
X40566490Y-34722123D01*
X40279389Y-34434520D01*
X39904080Y-34278678D01*
X39497703Y-34278323D01*
X39127000Y-34431494D01*
X39127000Y-31762121D01*
X39133510Y-31777877D01*
X39420611Y-32065480D01*
X39795920Y-32221322D01*
X40202297Y-32221677D01*
X40577877Y-32066490D01*
X40865480Y-31779389D01*
X41021322Y-31404080D01*
X41021677Y-30997703D01*
X40866490Y-30622123D01*
X40579389Y-30334520D01*
X40204080Y-30178678D01*
X39797703Y-30178323D01*
X39422123Y-30333510D01*
X39134520Y-30620611D01*
X39127000Y-30638721D01*
X39127000Y-28562121D01*
X39133510Y-28577877D01*
X39420611Y-28865480D01*
X39795920Y-29021322D01*
X40202297Y-29021677D01*
X40577877Y-28866490D01*
X40865480Y-28579389D01*
X41021322Y-28204080D01*
X41021677Y-27797703D01*
X40866490Y-27422123D01*
X40579389Y-27134520D01*
X40204080Y-26978678D01*
X39797703Y-26978323D01*
X39422123Y-27133510D01*
X39134520Y-27420611D01*
X39127000Y-27438721D01*
X39127000Y-25562121D01*
X39133510Y-25577877D01*
X39420611Y-25865480D01*
X39795920Y-26021322D01*
X40202297Y-26021677D01*
X40577877Y-25866490D01*
X40865480Y-25579389D01*
X41021322Y-25204080D01*
X41021677Y-24797703D01*
X40866490Y-24422123D01*
X40579389Y-24134520D01*
X40204080Y-23978678D01*
X39797703Y-23978323D01*
X39422123Y-24133510D01*
X39134520Y-24420611D01*
X39127000Y-24438721D01*
X39127000Y-22562121D01*
X39133510Y-22577877D01*
X39420611Y-22865480D01*
X39795920Y-23021322D01*
X40202297Y-23021677D01*
X40577877Y-22866490D01*
X40865480Y-22579389D01*
X41021322Y-22204080D01*
X41021677Y-21797703D01*
X40866490Y-21422123D01*
X40579389Y-21134520D01*
X40204080Y-20978678D01*
X39797703Y-20978323D01*
X39422123Y-21133510D01*
X39134520Y-21420611D01*
X39127000Y-21438721D01*
X39127000Y-19227000D01*
X44213000Y-19227000D01*
X44213000Y-31613000D01*
X44200000Y-31613000D01*
X44143297Y-31624279D01*
X44085483Y-31624279D01*
X43894141Y-31662339D01*
X43894138Y-31662339D01*
X43894137Y-31662340D01*
X43795856Y-31703049D01*
X43682539Y-31749987D01*
X43682537Y-31749988D01*
X43682536Y-31749989D01*
X43520325Y-31858376D01*
X43439350Y-31939350D01*
X43358376Y-32020325D01*
X43249989Y-32182536D01*
X43249988Y-32182537D01*
X43249987Y-32182539D01*
X43183607Y-32342794D01*
X43162340Y-32394137D01*
X43162339Y-32394137D01*
X43162339Y-32394140D01*
X43124279Y-32585483D01*
X43124279Y-32643292D01*
X43124279Y-32643295D01*
X43113000Y-32700000D01*
X43113000Y-32750000D01*
X43124279Y-32806704D01*
X43124279Y-32806707D01*
X43124279Y-32864517D01*
X43162339Y-33055860D01*
X43162339Y-33055862D01*
X43162340Y-33055863D01*
X43183607Y-33107206D01*
X43249987Y-33267461D01*
X43249988Y-33267462D01*
X43249989Y-33267464D01*
X43358373Y-33429670D01*
X43358376Y-33429675D01*
X43439350Y-33510649D01*
X43520325Y-33591624D01*
X43520330Y-33591627D01*
X43682536Y-33700011D01*
X43682537Y-33700011D01*
X43682539Y-33700013D01*
X43795856Y-33746950D01*
X43894137Y-33787660D01*
X43894138Y-33787660D01*
X43894141Y-33787661D01*
X44085483Y-33825721D01*
X44143297Y-33825721D01*
X44200000Y-33837000D01*
X49313000Y-33837000D01*
X49313000Y-44192921D01*
G36*
X49313000Y-9563000D02*
X44200000Y-9563000D01*
X44143297Y-9574279D01*
X44085483Y-9574279D01*
X43894141Y-9612339D01*
X43894138Y-9612339D01*
X43894137Y-9612340D01*
X43795856Y-9653049D01*
X43682539Y-9699987D01*
X43682537Y-9699988D01*
X43682536Y-9699989D01*
X43520325Y-9808376D01*
X43439350Y-9889350D01*
X43358376Y-9970325D01*
X43249989Y-10132536D01*
X43249988Y-10132537D01*
X43249987Y-10132539D01*
X43183607Y-10292794D01*
X43162340Y-10344137D01*
X43162339Y-10344137D01*
X43162339Y-10344140D01*
X43124279Y-10535483D01*
X43124279Y-10593292D01*
X43124279Y-10593295D01*
X43113000Y-10650000D01*
X43113000Y-10700000D01*
X43124279Y-10756704D01*
X43124279Y-10756707D01*
X43124279Y-10814517D01*
X43162339Y-11005860D01*
X43162339Y-11005862D01*
X43162340Y-11005863D01*
X43183607Y-11057206D01*
X43249987Y-11217461D01*
X43249988Y-11217462D01*
X43249989Y-11217464D01*
X43358373Y-11379670D01*
X43358376Y-11379675D01*
X43439350Y-11460649D01*
X43520325Y-11541624D01*
X43520330Y-11541627D01*
X43682536Y-11650011D01*
X43682537Y-11650011D01*
X43682539Y-11650013D01*
X43795856Y-11696950D01*
X43894137Y-11737660D01*
X43894138Y-11737660D01*
X43894141Y-11737661D01*
X44085483Y-11775721D01*
X44143297Y-11775721D01*
X44200000Y-11787000D01*
X44213000Y-11787000D01*
X44213000Y-18473000D01*
X42775721Y-18473000D01*
X42775721Y-10247400D01*
X42581947Y-9778431D01*
X42223456Y-9419314D01*
X41754826Y-9224721D01*
X41247400Y-9224279D01*
X40778431Y-9418053D01*
X40521677Y-9674359D01*
X40521677Y-5197703D01*
X40366490Y-4822123D01*
X40079389Y-4534520D01*
X39704080Y-4378678D01*
X39297703Y-4378323D01*
X38922123Y-4533510D01*
X38634520Y-4820611D01*
X38478678Y-5195920D01*
X38478323Y-5602297D01*
X38633510Y-5977877D01*
X38920611Y-6265480D01*
X39295920Y-6421322D01*
X39702297Y-6421677D01*
X40077877Y-6266490D01*
X40365480Y-5979389D01*
X40521322Y-5604080D01*
X40521677Y-5197703D01*
X40521677Y-9674359D01*
X40419314Y-9776544D01*
X40224721Y-10245174D01*
X40224279Y-10752600D01*
X40418053Y-11221569D01*
X40776544Y-11580686D01*
X41245174Y-11775279D01*
X41752600Y-11775721D01*
X42221569Y-11581947D01*
X42580686Y-11223456D01*
X42775279Y-10754826D01*
X42775721Y-10247400D01*
X42775721Y-18473000D01*
X41921094Y-18473000D01*
X41804826Y-18424721D01*
X41297400Y-18424279D01*
X41179486Y-18473000D01*
X39452968Y-18473000D01*
X36521677Y-15512970D01*
X36521677Y-5197703D01*
X36366490Y-4822123D01*
X36079389Y-4534520D01*
X35704080Y-4378678D01*
X35297703Y-4378323D01*
X34922123Y-4533510D01*
X34634520Y-4820611D01*
X34478678Y-5195920D01*
X34478323Y-5602297D01*
X34633510Y-5977877D01*
X34920611Y-6265480D01*
X35295920Y-6421322D01*
X35702297Y-6421677D01*
X36077877Y-6266490D01*
X36365480Y-5979389D01*
X36521322Y-5604080D01*
X36521677Y-5197703D01*
X36521677Y-15512970D01*
X29252968Y-8173000D01*
X18047395Y-8173000D01*
X17473000Y-8747395D01*
X17473000Y-8894167D01*
X17402870Y-8724440D01*
X16987746Y-8308591D01*
X16445082Y-8083257D01*
X15857495Y-8082744D01*
X15314440Y-8307130D01*
X14898591Y-8722254D01*
X14673257Y-9264918D01*
X14672744Y-9852505D01*
X14897130Y-10395560D01*
X15312254Y-10811409D01*
X15356463Y-10829766D01*
X15314440Y-10847130D01*
X14898591Y-11262254D01*
X14673257Y-11804918D01*
X14672744Y-12392505D01*
X14897130Y-12935560D01*
X15312254Y-13351409D01*
X15553865Y-13451735D01*
X15284520Y-13720611D01*
X15128678Y-14095920D01*
X15128323Y-14502297D01*
X15283510Y-14877877D01*
X15570611Y-15165480D01*
X15945920Y-15321322D01*
X16352297Y-15321677D01*
X16727877Y-15166490D01*
X17015480Y-14879389D01*
X17171322Y-14504080D01*
X17171677Y-14097703D01*
X17016490Y-13722123D01*
X16746490Y-13451651D01*
X16985560Y-13352870D01*
X17401409Y-12937746D01*
X17473000Y-12765335D01*
X17473000Y-16552605D01*
X18173000Y-17252605D01*
X18173000Y-18827000D01*
X18231867Y-18827000D01*
X18078678Y-19195920D01*
X18078323Y-19602297D01*
X18106475Y-19670431D01*
X18059297Y-19689925D01*
X17362162Y-20385843D01*
X17275805Y-20349984D01*
X17477877Y-20266490D01*
X17765480Y-19979389D01*
X17921322Y-19604080D01*
X17921677Y-19197703D01*
X17766490Y-18822123D01*
X17479389Y-18534520D01*
X17104080Y-18378678D01*
X16697703Y-18378323D01*
X16322123Y-18533510D01*
X16034520Y-18820611D01*
X15878678Y-19195920D01*
X15878323Y-19602297D01*
X16033510Y-19977877D01*
X16320611Y-20265480D01*
X16524194Y-20350015D01*
X16322123Y-20433510D01*
X16034520Y-20720611D01*
X15878678Y-21095920D01*
X15878323Y-21502297D01*
X16033510Y-21877877D01*
X16320611Y-22165480D01*
X16695920Y-22321322D01*
X16722980Y-22321345D01*
X16722843Y-22478344D01*
X16697703Y-22478323D01*
X16322123Y-22633510D01*
X16034520Y-22920611D01*
X15878678Y-23295920D01*
X15878323Y-23702297D01*
X16033510Y-24077877D01*
X16305380Y-24350223D01*
X16034520Y-24620611D01*
X15878678Y-24995920D01*
X15878323Y-25402297D01*
X16033510Y-25777877D01*
X16320611Y-26065480D01*
X16695920Y-26221322D01*
X17102297Y-26221677D01*
X17477877Y-26066490D01*
X17765480Y-25779389D01*
X17921322Y-25404080D01*
X17921677Y-24997703D01*
X17766490Y-24622123D01*
X17494619Y-24349776D01*
X17496542Y-24347856D01*
X18054744Y-24907033D01*
X18106639Y-24928581D01*
X18078678Y-24995920D01*
X18078323Y-25402297D01*
X18233510Y-25777877D01*
X18520611Y-26065480D01*
X18895920Y-26221322D01*
X18973000Y-26221389D01*
X18973000Y-26527000D01*
X22273000Y-26527000D01*
X22273000Y-29348864D01*
X27873000Y-35548864D01*
X27873000Y-40972231D01*
X27837088Y-40972200D01*
X27539770Y-41095048D01*
X27376116Y-40698974D01*
X27002990Y-40325197D01*
X26515229Y-40122661D01*
X25987088Y-40122200D01*
X25498974Y-40323884D01*
X25125197Y-40697010D01*
X24922661Y-41184771D01*
X24922200Y-41712912D01*
X25120430Y-42192667D01*
X25102990Y-42175197D01*
X24615229Y-41972661D01*
X24087088Y-41972200D01*
X23598974Y-42173884D01*
X23399980Y-42372531D01*
X23321677Y-42294091D01*
X23321677Y-36697703D01*
X23166490Y-36322123D01*
X22879389Y-36034520D01*
X22504080Y-35878678D01*
X22097703Y-35878323D01*
X21722123Y-36033510D01*
X21434520Y-36320611D01*
X21278678Y-36695920D01*
X21278323Y-37102297D01*
X21433510Y-37477877D01*
X21720611Y-37765480D01*
X22095920Y-37921322D01*
X22502297Y-37921677D01*
X22877877Y-37766490D01*
X23165480Y-37479389D01*
X23321322Y-37104080D01*
X23321677Y-36697703D01*
X23321677Y-42294091D01*
X23202990Y-42175197D01*
X22715229Y-41972661D01*
X22187088Y-41972200D01*
X21698974Y-42173884D01*
X21325197Y-42547010D01*
X21122661Y-43034771D01*
X21122200Y-43562912D01*
X21323884Y-44051026D01*
X21697010Y-44424803D01*
X21826697Y-44478654D01*
X21447703Y-44478323D01*
X21072123Y-44633510D01*
X20784520Y-44920611D01*
X20628678Y-45295920D01*
X20628323Y-45702297D01*
X20783510Y-46077877D01*
X21070611Y-46365480D01*
X21445920Y-46521322D01*
X21852297Y-46521677D01*
X22227877Y-46366490D01*
X22515480Y-46079389D01*
X22671322Y-45704080D01*
X22671677Y-45297703D01*
X22516490Y-44922123D01*
X22229389Y-44634520D01*
X22212152Y-44627362D01*
X22712912Y-44627800D01*
X23201026Y-44426116D01*
X23400019Y-44227468D01*
X23597010Y-44424803D01*
X24084771Y-44627339D01*
X24612912Y-44627800D01*
X25101026Y-44426116D01*
X25300019Y-44227468D01*
X25497010Y-44424803D01*
X25984771Y-44627339D01*
X26512912Y-44627800D01*
X27001026Y-44426116D01*
X27374803Y-44052990D01*
X27577339Y-43565229D01*
X27577378Y-43520460D01*
X27834771Y-43627339D01*
X27873000Y-43627372D01*
X27873000Y-49313000D01*
X20171677Y-49313000D01*
X20171677Y-45297703D01*
X20016490Y-44922123D01*
X19729389Y-44634520D01*
X19567256Y-44567196D01*
X19567256Y-37807495D01*
X19342870Y-37264440D01*
X18927746Y-36848591D01*
X18385082Y-36623257D01*
X17797495Y-36622744D01*
X17254440Y-36847130D01*
X17071677Y-37029574D01*
X17071677Y-27697703D01*
X16916490Y-27322123D01*
X16629389Y-27034520D01*
X16254080Y-26878678D01*
X15847703Y-26878323D01*
X15472123Y-27033510D01*
X15184520Y-27320611D01*
X15028678Y-27695920D01*
X15028323Y-28102297D01*
X15183510Y-28477877D01*
X15470611Y-28765480D01*
X15845920Y-28921322D01*
X16252297Y-28921677D01*
X16627877Y-28766490D01*
X16915480Y-28479389D01*
X17071322Y-28104080D01*
X17071677Y-27697703D01*
X17071677Y-37029574D01*
X16838591Y-37262254D01*
X16820233Y-37306463D01*
X16802870Y-37264440D01*
X16471677Y-36932668D01*
X16471677Y-35247703D01*
X16316490Y-34872123D01*
X16029389Y-34584520D01*
X15654080Y-34428678D01*
X15247703Y-34428323D01*
X14872123Y-34583510D01*
X14721677Y-34733693D01*
X14721677Y-26797703D01*
X14566490Y-26422123D01*
X14279389Y-26134520D01*
X13904080Y-25978678D01*
X13497703Y-25978323D01*
X13122123Y-26133510D01*
X12834520Y-26420611D01*
X12775721Y-26562214D01*
X12775721Y-10947400D01*
X12581947Y-10478431D01*
X12223456Y-10119314D01*
X11754826Y-9924721D01*
X11247400Y-9924279D01*
X10778431Y-10118053D01*
X10419314Y-10476544D01*
X10224721Y-10945174D01*
X10224279Y-11452600D01*
X10418053Y-11921569D01*
X10776544Y-12280686D01*
X11245174Y-12475279D01*
X11752600Y-12475721D01*
X12221569Y-12281947D01*
X12580686Y-11923456D01*
X12775279Y-11454826D01*
X12775721Y-10947400D01*
X12775721Y-26562214D01*
X12678678Y-26795920D01*
X12678323Y-27202297D01*
X12833510Y-27577877D01*
X13120611Y-27865480D01*
X13495920Y-28021322D01*
X13902297Y-28021677D01*
X14277877Y-27866490D01*
X14565480Y-27579389D01*
X14721322Y-27204080D01*
X14721677Y-26797703D01*
X14721677Y-34733693D01*
X14584520Y-34870611D01*
X14428678Y-35245920D01*
X14428323Y-35652297D01*
X14583510Y-36027877D01*
X14870611Y-36315480D01*
X15245920Y-36471322D01*
X15652297Y-36471677D01*
X16027877Y-36316490D01*
X16315480Y-36029389D01*
X16471322Y-35654080D01*
X16471677Y-35247703D01*
X16471677Y-36932668D01*
X16387746Y-36848591D01*
X15845082Y-36623257D01*
X15257495Y-36622744D01*
X14714440Y-36847130D01*
X14298591Y-37262254D01*
X14073257Y-37804918D01*
X14072744Y-38392505D01*
X14297130Y-38935560D01*
X14712254Y-39351409D01*
X14748583Y-39366494D01*
X14674440Y-39397130D01*
X14258591Y-39812254D01*
X14033257Y-40354918D01*
X14032744Y-40942505D01*
X14257130Y-41485560D01*
X14672254Y-41901409D01*
X15214918Y-42126743D01*
X15802505Y-42127256D01*
X16345560Y-41902870D01*
X16761409Y-41487746D01*
X16779766Y-41443536D01*
X16797130Y-41485560D01*
X17212254Y-41901409D01*
X17754918Y-42126743D01*
X18342505Y-42127256D01*
X18885560Y-41902870D01*
X19301409Y-41487746D01*
X19526743Y-40945082D01*
X19527256Y-40357495D01*
X19302870Y-39814440D01*
X18887746Y-39398591D01*
X18851416Y-39383505D01*
X18925560Y-39352870D01*
X19341409Y-38937746D01*
X19566743Y-38395082D01*
X19567256Y-37807495D01*
X19567256Y-44567196D01*
X19354080Y-44478678D01*
X18947703Y-44478323D01*
X18572123Y-44633510D01*
X18284520Y-44920611D01*
X18128678Y-45295920D01*
X18128323Y-45702297D01*
X18283510Y-46077877D01*
X18570611Y-46365480D01*
X18945920Y-46521322D01*
X19352297Y-46521677D01*
X19727877Y-46366490D01*
X20015480Y-46079389D01*
X20171322Y-45704080D01*
X20171677Y-45297703D01*
X20171677Y-49313000D01*
X17621677Y-49313000D01*
X17621677Y-45297703D01*
X17466490Y-44922123D01*
X17179389Y-44634520D01*
X16804080Y-44478678D01*
X16397703Y-44478323D01*
X16022123Y-44633510D01*
X15734520Y-44920611D01*
X15578678Y-45295920D01*
X15578323Y-45702297D01*
X15733510Y-46077877D01*
X16020611Y-46365480D01*
X16395920Y-46521322D01*
X16802297Y-46521677D01*
X17177877Y-46366490D01*
X17465480Y-46079389D01*
X17621322Y-45704080D01*
X17621677Y-45297703D01*
X17621677Y-49313000D01*
X15021677Y-49313000D01*
X15021677Y-45597703D01*
X14866490Y-45222123D01*
X14579389Y-44934520D01*
X14204080Y-44778678D01*
X13797703Y-44778323D01*
X13422123Y-44933510D01*
X13134520Y-45220611D01*
X12978678Y-45595920D01*
X12978323Y-46002297D01*
X13133510Y-46377877D01*
X13420611Y-46665480D01*
X13795920Y-46821322D01*
X14202297Y-46821677D01*
X14577877Y-46666490D01*
X14865480Y-46379389D01*
X15021322Y-46004080D01*
X15021677Y-45597703D01*
X15021677Y-49313000D01*
X9407078Y-49313000D01*
X9722561Y-49182645D01*
X10778936Y-48128112D01*
X11351347Y-46749593D01*
X11352650Y-45256955D01*
X10782645Y-43877439D01*
X10721677Y-43816364D01*
X10721677Y-30797703D01*
X10621677Y-30555685D01*
X10621677Y-20597703D01*
X10466490Y-20222123D01*
X10179389Y-19934520D01*
X9804080Y-19778678D01*
X9397703Y-19778323D01*
X9022123Y-19933510D01*
X8852234Y-20103102D01*
X8852234Y-11097250D01*
X8646838Y-10600154D01*
X8266846Y-10219499D01*
X7770109Y-10013235D01*
X7232250Y-10012766D01*
X6735154Y-10218162D01*
X6354499Y-10598154D01*
X6148235Y-11094891D01*
X6147766Y-11632750D01*
X6353162Y-12129846D01*
X6733154Y-12510501D01*
X7229891Y-12716765D01*
X7767750Y-12717234D01*
X8264846Y-12511838D01*
X8645501Y-12131846D01*
X8851765Y-11635109D01*
X8852234Y-11097250D01*
X8852234Y-20103102D01*
X8734520Y-20220611D01*
X8578678Y-20595920D01*
X8578323Y-21002297D01*
X8733510Y-21377877D01*
X9020611Y-21665480D01*
X9395920Y-21821322D01*
X9802297Y-21821677D01*
X10177877Y-21666490D01*
X10465480Y-21379389D01*
X10621322Y-21004080D01*
X10621677Y-20597703D01*
X10621677Y-30555685D01*
X10566490Y-30422123D01*
X10521677Y-30377231D01*
X10521677Y-25897703D01*
X10366490Y-25522123D01*
X10079389Y-25234520D01*
X9704080Y-25078678D01*
X9297703Y-25078323D01*
X8922123Y-25233510D01*
X8634520Y-25520611D01*
X8478678Y-25895920D01*
X8478323Y-26302297D01*
X8633510Y-26677877D01*
X8920611Y-26965480D01*
X9295920Y-27121322D01*
X9702297Y-27121677D01*
X10077877Y-26966490D01*
X10365480Y-26679389D01*
X10521322Y-26304080D01*
X10521677Y-25897703D01*
X10521677Y-30377231D01*
X10279389Y-30134520D01*
X9921677Y-29985984D01*
X9921677Y-28697703D01*
X9766490Y-28322123D01*
X9479389Y-28034520D01*
X9104080Y-27878678D01*
X8697703Y-27878323D01*
X8322123Y-28033510D01*
X8121677Y-28233606D01*
X8121677Y-25097703D01*
X7966490Y-24722123D01*
X7679389Y-24434520D01*
X7321468Y-24285898D01*
X7321677Y-24047703D01*
X7166490Y-23672123D01*
X6879389Y-23384520D01*
X6504080Y-23228678D01*
X6097703Y-23228323D01*
X5722123Y-23383510D01*
X5434520Y-23670611D01*
X5278678Y-24045920D01*
X5278323Y-24452297D01*
X5433510Y-24827877D01*
X5720611Y-25115480D01*
X6078531Y-25264101D01*
X6078323Y-25502297D01*
X6233510Y-25877877D01*
X6520611Y-26165480D01*
X6895920Y-26321322D01*
X7302297Y-26321677D01*
X7677877Y-26166490D01*
X7965480Y-25879389D01*
X8121322Y-25504080D01*
X8121677Y-25097703D01*
X8121677Y-28233606D01*
X8034520Y-28320611D01*
X7878678Y-28695920D01*
X7878323Y-29102297D01*
X8033510Y-29477877D01*
X8320611Y-29765480D01*
X8695920Y-29921322D01*
X9102297Y-29921677D01*
X9477877Y-29766490D01*
X9765480Y-29479389D01*
X9921322Y-29104080D01*
X9921677Y-28697703D01*
X9921677Y-29985984D01*
X9904080Y-29978678D01*
X9497703Y-29978323D01*
X9122123Y-30133510D01*
X8834520Y-30420611D01*
X8678678Y-30795920D01*
X8678323Y-31202297D01*
X8833510Y-31577877D01*
X9120611Y-31865480D01*
X9495920Y-32021322D01*
X9902297Y-32021677D01*
X10277877Y-31866490D01*
X10565480Y-31579389D01*
X10721322Y-31204080D01*
X10721677Y-30797703D01*
X10721677Y-43816364D01*
X9728112Y-42821064D01*
X8852234Y-42457367D01*
X8852234Y-38267250D01*
X8646838Y-37770154D01*
X8266846Y-37389499D01*
X7770109Y-37183235D01*
X7621677Y-37183105D01*
X7621677Y-28097703D01*
X7466490Y-27722123D01*
X7179389Y-27434520D01*
X6804080Y-27278678D01*
X6397703Y-27278323D01*
X6022123Y-27433510D01*
X5734520Y-27720611D01*
X5578678Y-28095920D01*
X5578323Y-28502297D01*
X5733510Y-28877877D01*
X6020611Y-29165480D01*
X6395920Y-29321322D01*
X6802297Y-29321677D01*
X7177877Y-29166490D01*
X7465480Y-28879389D01*
X7621322Y-28504080D01*
X7621677Y-28097703D01*
X7621677Y-37183105D01*
X7232250Y-37182766D01*
X6735154Y-37388162D01*
X6421677Y-37701093D01*
X6421677Y-30697703D01*
X6266490Y-30322123D01*
X5979389Y-30034520D01*
X5604080Y-29878678D01*
X5197703Y-29878323D01*
X4822123Y-30033510D01*
X4534520Y-30320611D01*
X4378678Y-30695920D01*
X4378323Y-31102297D01*
X4533510Y-31477877D01*
X4820611Y-31765480D01*
X5195920Y-31921322D01*
X5602297Y-31921677D01*
X5977877Y-31766490D01*
X6265480Y-31479389D01*
X6421322Y-31104080D01*
X6421677Y-30697703D01*
X6421677Y-37701093D01*
X6354499Y-37768154D01*
X6221677Y-38088023D01*
X6221677Y-35297703D01*
X6066490Y-34922123D01*
X5779389Y-34634520D01*
X5404080Y-34478678D01*
X4997703Y-34478323D01*
X4622123Y-34633510D01*
X4334520Y-34920611D01*
X4178678Y-35295920D01*
X4178323Y-35702297D01*
X4333510Y-36077877D01*
X4620611Y-36365480D01*
X4995920Y-36521322D01*
X5402297Y-36521677D01*
X5777877Y-36366490D01*
X6065480Y-36079389D01*
X6221322Y-35704080D01*
X6221677Y-35297703D01*
X6221677Y-38088023D01*
X6148235Y-38264891D01*
X6147766Y-38802750D01*
X6353162Y-39299846D01*
X6733154Y-39680501D01*
X7229891Y-39886765D01*
X7767750Y-39887234D01*
X8264846Y-39681838D01*
X8645501Y-39301846D01*
X8851765Y-38805109D01*
X8852234Y-38267250D01*
X8852234Y-42457367D01*
X8349593Y-42248653D01*
X6856955Y-42247350D01*
X5477439Y-42817355D01*
X4421064Y-43871888D01*
X4027000Y-44820899D01*
X4027000Y-41637512D01*
X4077877Y-41616490D01*
X4365480Y-41329389D01*
X4521322Y-40954080D01*
X4521677Y-40547703D01*
X4366490Y-40172123D01*
X4079389Y-39884520D01*
X4027000Y-39862766D01*
X4027000Y-39762341D01*
X4221569Y-39681947D01*
X4580686Y-39323456D01*
X4775279Y-38854826D01*
X4775721Y-38347400D01*
X4581947Y-37878431D01*
X4223456Y-37519314D01*
X4027000Y-37437737D01*
X4027000Y-11871094D01*
X4075279Y-11754826D01*
X4075721Y-11247400D01*
X4027000Y-11129486D01*
X4027000Y-5077830D01*
X4417355Y-6022561D01*
X5471888Y-7078936D01*
X6850407Y-7651347D01*
X8343045Y-7652650D01*
X9722561Y-7082645D01*
X10778936Y-6028112D01*
X11351347Y-4649593D01*
X11352650Y-3156955D01*
X10782645Y-1777439D01*
X9728112Y-721064D01*
X9405249Y-587000D01*
X44192921Y-587000D01*
X43877439Y-717355D01*
X42821064Y-1771888D01*
X42248653Y-3150407D01*
X42247350Y-4643045D01*
X42817355Y-6022561D01*
X43871888Y-7078936D01*
X45250407Y-7651347D01*
X46743045Y-7652650D01*
X48122561Y-7082645D01*
X49178936Y-6028112D01*
X49313000Y-5705249D01*
X49313000Y-9563000D01*
X49313000Y-9563000D01*
G37*
X49313000Y-9563000D02*
X44200000Y-9563000D01*
X44143297Y-9574279D01*
X44085483Y-9574279D01*
X43894141Y-9612339D01*
X43894138Y-9612339D01*
X43894137Y-9612340D01*
X43795856Y-9653049D01*
X43682539Y-9699987D01*
X43682537Y-9699988D01*
X43682536Y-9699989D01*
X43520325Y-9808376D01*
X43439350Y-9889350D01*
X43358376Y-9970325D01*
X43249989Y-10132536D01*
X43249988Y-10132537D01*
X43249987Y-10132539D01*
X43183607Y-10292794D01*
X43162340Y-10344137D01*
X43162339Y-10344137D01*
X43162339Y-10344140D01*
X43124279Y-10535483D01*
X43124279Y-10593292D01*
X43124279Y-10593295D01*
X43113000Y-10650000D01*
X43113000Y-10700000D01*
X43124279Y-10756704D01*
X43124279Y-10756707D01*
X43124279Y-10814517D01*
X43162339Y-11005860D01*
X43162339Y-11005862D01*
X43162340Y-11005863D01*
X43183607Y-11057206D01*
X43249987Y-11217461D01*
X43249988Y-11217462D01*
X43249989Y-11217464D01*
X43358373Y-11379670D01*
X43358376Y-11379675D01*
X43439350Y-11460649D01*
X43520325Y-11541624D01*
X43520330Y-11541627D01*
X43682536Y-11650011D01*
X43682537Y-11650011D01*
X43682539Y-11650013D01*
X43795856Y-11696950D01*
X43894137Y-11737660D01*
X43894138Y-11737660D01*
X43894141Y-11737661D01*
X44085483Y-11775721D01*
X44143297Y-11775721D01*
X44200000Y-11787000D01*
X44213000Y-11787000D01*
X44213000Y-18473000D01*
X42775721Y-18473000D01*
X42775721Y-10247400D01*
X42581947Y-9778431D01*
X42223456Y-9419314D01*
X41754826Y-9224721D01*
X41247400Y-9224279D01*
X40778431Y-9418053D01*
X40521677Y-9674359D01*
X40521677Y-5197703D01*
X40366490Y-4822123D01*
X40079389Y-4534520D01*
X39704080Y-4378678D01*
X39297703Y-4378323D01*
X38922123Y-4533510D01*
X38634520Y-4820611D01*
X38478678Y-5195920D01*
X38478323Y-5602297D01*
X38633510Y-5977877D01*
X38920611Y-6265480D01*
X39295920Y-6421322D01*
X39702297Y-6421677D01*
X40077877Y-6266490D01*
X40365480Y-5979389D01*
X40521322Y-5604080D01*
X40521677Y-5197703D01*
X40521677Y-9674359D01*
X40419314Y-9776544D01*
X40224721Y-10245174D01*
X40224279Y-10752600D01*
X40418053Y-11221569D01*
X40776544Y-11580686D01*
X41245174Y-11775279D01*
X41752600Y-11775721D01*
X42221569Y-11581947D01*
X42580686Y-11223456D01*
X42775279Y-10754826D01*
X42775721Y-10247400D01*
X42775721Y-18473000D01*
X41921094Y-18473000D01*
X41804826Y-18424721D01*
X41297400Y-18424279D01*
X41179486Y-18473000D01*
X39452968Y-18473000D01*
X36521677Y-15512970D01*
X36521677Y-5197703D01*
X36366490Y-4822123D01*
X36079389Y-4534520D01*
X35704080Y-4378678D01*
X35297703Y-4378323D01*
X34922123Y-4533510D01*
X34634520Y-4820611D01*
X34478678Y-5195920D01*
X34478323Y-5602297D01*
X34633510Y-5977877D01*
X34920611Y-6265480D01*
X35295920Y-6421322D01*
X35702297Y-6421677D01*
X36077877Y-6266490D01*
X36365480Y-5979389D01*
X36521322Y-5604080D01*
X36521677Y-5197703D01*
X36521677Y-15512970D01*
X29252968Y-8173000D01*
X18047395Y-8173000D01*
X17473000Y-8747395D01*
X17473000Y-8894167D01*
X17402870Y-8724440D01*
X16987746Y-8308591D01*
X16445082Y-8083257D01*
X15857495Y-8082744D01*
X15314440Y-8307130D01*
X14898591Y-8722254D01*
X14673257Y-9264918D01*
X14672744Y-9852505D01*
X14897130Y-10395560D01*
X15312254Y-10811409D01*
X15356463Y-10829766D01*
X15314440Y-10847130D01*
X14898591Y-11262254D01*
X14673257Y-11804918D01*
X14672744Y-12392505D01*
X14897130Y-12935560D01*
X15312254Y-13351409D01*
X15553865Y-13451735D01*
X15284520Y-13720611D01*
X15128678Y-14095920D01*
X15128323Y-14502297D01*
X15283510Y-14877877D01*
X15570611Y-15165480D01*
X15945920Y-15321322D01*
X16352297Y-15321677D01*
X16727877Y-15166490D01*
X17015480Y-14879389D01*
X17171322Y-14504080D01*
X17171677Y-14097703D01*
X17016490Y-13722123D01*
X16746490Y-13451651D01*
X16985560Y-13352870D01*
X17401409Y-12937746D01*
X17473000Y-12765335D01*
X17473000Y-16552605D01*
X18173000Y-17252605D01*
X18173000Y-18827000D01*
X18231867Y-18827000D01*
X18078678Y-19195920D01*
X18078323Y-19602297D01*
X18106475Y-19670431D01*
X18059297Y-19689925D01*
X17362162Y-20385843D01*
X17275805Y-20349984D01*
X17477877Y-20266490D01*
X17765480Y-19979389D01*
X17921322Y-19604080D01*
X17921677Y-19197703D01*
X17766490Y-18822123D01*
X17479389Y-18534520D01*
X17104080Y-18378678D01*
X16697703Y-18378323D01*
X16322123Y-18533510D01*
X16034520Y-18820611D01*
X15878678Y-19195920D01*
X15878323Y-19602297D01*
X16033510Y-19977877D01*
X16320611Y-20265480D01*
X16524194Y-20350015D01*
X16322123Y-20433510D01*
X16034520Y-20720611D01*
X15878678Y-21095920D01*
X15878323Y-21502297D01*
X16033510Y-21877877D01*
X16320611Y-22165480D01*
X16695920Y-22321322D01*
X16722980Y-22321345D01*
X16722843Y-22478344D01*
X16697703Y-22478323D01*
X16322123Y-22633510D01*
X16034520Y-22920611D01*
X15878678Y-23295920D01*
X15878323Y-23702297D01*
X16033510Y-24077877D01*
X16305380Y-24350223D01*
X16034520Y-24620611D01*
X15878678Y-24995920D01*
X15878323Y-25402297D01*
X16033510Y-25777877D01*
X16320611Y-26065480D01*
X16695920Y-26221322D01*
X17102297Y-26221677D01*
X17477877Y-26066490D01*
X17765480Y-25779389D01*
X17921322Y-25404080D01*
X17921677Y-24997703D01*
X17766490Y-24622123D01*
X17494619Y-24349776D01*
X17496542Y-24347856D01*
X18054744Y-24907033D01*
X18106639Y-24928581D01*
X18078678Y-24995920D01*
X18078323Y-25402297D01*
X18233510Y-25777877D01*
X18520611Y-26065480D01*
X18895920Y-26221322D01*
X18973000Y-26221389D01*
X18973000Y-26527000D01*
X22273000Y-26527000D01*
X22273000Y-29348864D01*
X27873000Y-35548864D01*
X27873000Y-40972231D01*
X27837088Y-40972200D01*
X27539770Y-41095048D01*
X27376116Y-40698974D01*
X27002990Y-40325197D01*
X26515229Y-40122661D01*
X25987088Y-40122200D01*
X25498974Y-40323884D01*
X25125197Y-40697010D01*
X24922661Y-41184771D01*
X24922200Y-41712912D01*
X25120430Y-42192667D01*
X25102990Y-42175197D01*
X24615229Y-41972661D01*
X24087088Y-41972200D01*
X23598974Y-42173884D01*
X23399980Y-42372531D01*
X23321677Y-42294091D01*
X23321677Y-36697703D01*
X23166490Y-36322123D01*
X22879389Y-36034520D01*
X22504080Y-35878678D01*
X22097703Y-35878323D01*
X21722123Y-36033510D01*
X21434520Y-36320611D01*
X21278678Y-36695920D01*
X21278323Y-37102297D01*
X21433510Y-37477877D01*
X21720611Y-37765480D01*
X22095920Y-37921322D01*
X22502297Y-37921677D01*
X22877877Y-37766490D01*
X23165480Y-37479389D01*
X23321322Y-37104080D01*
X23321677Y-36697703D01*
X23321677Y-42294091D01*
X23202990Y-42175197D01*
X22715229Y-41972661D01*
X22187088Y-41972200D01*
X21698974Y-42173884D01*
X21325197Y-42547010D01*
X21122661Y-43034771D01*
X21122200Y-43562912D01*
X21323884Y-44051026D01*
X21697010Y-44424803D01*
X21826697Y-44478654D01*
X21447703Y-44478323D01*
X21072123Y-44633510D01*
X20784520Y-44920611D01*
X20628678Y-45295920D01*
X20628323Y-45702297D01*
X20783510Y-46077877D01*
X21070611Y-46365480D01*
X21445920Y-46521322D01*
X21852297Y-46521677D01*
X22227877Y-46366490D01*
X22515480Y-46079389D01*
X22671322Y-45704080D01*
X22671677Y-45297703D01*
X22516490Y-44922123D01*
X22229389Y-44634520D01*
X22212152Y-44627362D01*
X22712912Y-44627800D01*
X23201026Y-44426116D01*
X23400019Y-44227468D01*
X23597010Y-44424803D01*
X24084771Y-44627339D01*
X24612912Y-44627800D01*
X25101026Y-44426116D01*
X25300019Y-44227468D01*
X25497010Y-44424803D01*
X25984771Y-44627339D01*
X26512912Y-44627800D01*
X27001026Y-44426116D01*
X27374803Y-44052990D01*
X27577339Y-43565229D01*
X27577378Y-43520460D01*
X27834771Y-43627339D01*
X27873000Y-43627372D01*
X27873000Y-49313000D01*
X20171677Y-49313000D01*
X20171677Y-45297703D01*
X20016490Y-44922123D01*
X19729389Y-44634520D01*
X19567256Y-44567196D01*
X19567256Y-37807495D01*
X19342870Y-37264440D01*
X18927746Y-36848591D01*
X18385082Y-36623257D01*
X17797495Y-36622744D01*
X17254440Y-36847130D01*
X17071677Y-37029574D01*
X17071677Y-27697703D01*
X16916490Y-27322123D01*
X16629389Y-27034520D01*
X16254080Y-26878678D01*
X15847703Y-26878323D01*
X15472123Y-27033510D01*
X15184520Y-27320611D01*
X15028678Y-27695920D01*
X15028323Y-28102297D01*
X15183510Y-28477877D01*
X15470611Y-28765480D01*
X15845920Y-28921322D01*
X16252297Y-28921677D01*
X16627877Y-28766490D01*
X16915480Y-28479389D01*
X17071322Y-28104080D01*
X17071677Y-27697703D01*
X17071677Y-37029574D01*
X16838591Y-37262254D01*
X16820233Y-37306463D01*
X16802870Y-37264440D01*
X16471677Y-36932668D01*
X16471677Y-35247703D01*
X16316490Y-34872123D01*
X16029389Y-34584520D01*
X15654080Y-34428678D01*
X15247703Y-34428323D01*
X14872123Y-34583510D01*
X14721677Y-34733693D01*
X14721677Y-26797703D01*
X14566490Y-26422123D01*
X14279389Y-26134520D01*
X13904080Y-25978678D01*
X13497703Y-25978323D01*
X13122123Y-26133510D01*
X12834520Y-26420611D01*
X12775721Y-26562214D01*
X12775721Y-10947400D01*
X12581947Y-10478431D01*
X12223456Y-10119314D01*
X11754826Y-9924721D01*
X11247400Y-9924279D01*
X10778431Y-10118053D01*
X10419314Y-10476544D01*
X10224721Y-10945174D01*
X10224279Y-11452600D01*
X10418053Y-11921569D01*
X10776544Y-12280686D01*
X11245174Y-12475279D01*
X11752600Y-12475721D01*
X12221569Y-12281947D01*
X12580686Y-11923456D01*
X12775279Y-11454826D01*
X12775721Y-10947400D01*
X12775721Y-26562214D01*
X12678678Y-26795920D01*
X12678323Y-27202297D01*
X12833510Y-27577877D01*
X13120611Y-27865480D01*
X13495920Y-28021322D01*
X13902297Y-28021677D01*
X14277877Y-27866490D01*
X14565480Y-27579389D01*
X14721322Y-27204080D01*
X14721677Y-26797703D01*
X14721677Y-34733693D01*
X14584520Y-34870611D01*
X14428678Y-35245920D01*
X14428323Y-35652297D01*
X14583510Y-36027877D01*
X14870611Y-36315480D01*
X15245920Y-36471322D01*
X15652297Y-36471677D01*
X16027877Y-36316490D01*
X16315480Y-36029389D01*
X16471322Y-35654080D01*
X16471677Y-35247703D01*
X16471677Y-36932668D01*
X16387746Y-36848591D01*
X15845082Y-36623257D01*
X15257495Y-36622744D01*
X14714440Y-36847130D01*
X14298591Y-37262254D01*
X14073257Y-37804918D01*
X14072744Y-38392505D01*
X14297130Y-38935560D01*
X14712254Y-39351409D01*
X14748583Y-39366494D01*
X14674440Y-39397130D01*
X14258591Y-39812254D01*
X14033257Y-40354918D01*
X14032744Y-40942505D01*
X14257130Y-41485560D01*
X14672254Y-41901409D01*
X15214918Y-42126743D01*
X15802505Y-42127256D01*
X16345560Y-41902870D01*
X16761409Y-41487746D01*
X16779766Y-41443536D01*
X16797130Y-41485560D01*
X17212254Y-41901409D01*
X17754918Y-42126743D01*
X18342505Y-42127256D01*
X18885560Y-41902870D01*
X19301409Y-41487746D01*
X19526743Y-40945082D01*
X19527256Y-40357495D01*
X19302870Y-39814440D01*
X18887746Y-39398591D01*
X18851416Y-39383505D01*
X18925560Y-39352870D01*
X19341409Y-38937746D01*
X19566743Y-38395082D01*
X19567256Y-37807495D01*
X19567256Y-44567196D01*
X19354080Y-44478678D01*
X18947703Y-44478323D01*
X18572123Y-44633510D01*
X18284520Y-44920611D01*
X18128678Y-45295920D01*
X18128323Y-45702297D01*
X18283510Y-46077877D01*
X18570611Y-46365480D01*
X18945920Y-46521322D01*
X19352297Y-46521677D01*
X19727877Y-46366490D01*
X20015480Y-46079389D01*
X20171322Y-45704080D01*
X20171677Y-45297703D01*
X20171677Y-49313000D01*
X17621677Y-49313000D01*
X17621677Y-45297703D01*
X17466490Y-44922123D01*
X17179389Y-44634520D01*
X16804080Y-44478678D01*
X16397703Y-44478323D01*
X16022123Y-44633510D01*
X15734520Y-44920611D01*
X15578678Y-45295920D01*
X15578323Y-45702297D01*
X15733510Y-46077877D01*
X16020611Y-46365480D01*
X16395920Y-46521322D01*
X16802297Y-46521677D01*
X17177877Y-46366490D01*
X17465480Y-46079389D01*
X17621322Y-45704080D01*
X17621677Y-45297703D01*
X17621677Y-49313000D01*
X15021677Y-49313000D01*
X15021677Y-45597703D01*
X14866490Y-45222123D01*
X14579389Y-44934520D01*
X14204080Y-44778678D01*
X13797703Y-44778323D01*
X13422123Y-44933510D01*
X13134520Y-45220611D01*
X12978678Y-45595920D01*
X12978323Y-46002297D01*
X13133510Y-46377877D01*
X13420611Y-46665480D01*
X13795920Y-46821322D01*
X14202297Y-46821677D01*
X14577877Y-46666490D01*
X14865480Y-46379389D01*
X15021322Y-46004080D01*
X15021677Y-45597703D01*
X15021677Y-49313000D01*
X9407078Y-49313000D01*
X9722561Y-49182645D01*
X10778936Y-48128112D01*
X11351347Y-46749593D01*
X11352650Y-45256955D01*
X10782645Y-43877439D01*
X10721677Y-43816364D01*
X10721677Y-30797703D01*
X10621677Y-30555685D01*
X10621677Y-20597703D01*
X10466490Y-20222123D01*
X10179389Y-19934520D01*
X9804080Y-19778678D01*
X9397703Y-19778323D01*
X9022123Y-19933510D01*
X8852234Y-20103102D01*
X8852234Y-11097250D01*
X8646838Y-10600154D01*
X8266846Y-10219499D01*
X7770109Y-10013235D01*
X7232250Y-10012766D01*
X6735154Y-10218162D01*
X6354499Y-10598154D01*
X6148235Y-11094891D01*
X6147766Y-11632750D01*
X6353162Y-12129846D01*
X6733154Y-12510501D01*
X7229891Y-12716765D01*
X7767750Y-12717234D01*
X8264846Y-12511838D01*
X8645501Y-12131846D01*
X8851765Y-11635109D01*
X8852234Y-11097250D01*
X8852234Y-20103102D01*
X8734520Y-20220611D01*
X8578678Y-20595920D01*
X8578323Y-21002297D01*
X8733510Y-21377877D01*
X9020611Y-21665480D01*
X9395920Y-21821322D01*
X9802297Y-21821677D01*
X10177877Y-21666490D01*
X10465480Y-21379389D01*
X10621322Y-21004080D01*
X10621677Y-20597703D01*
X10621677Y-30555685D01*
X10566490Y-30422123D01*
X10521677Y-30377231D01*
X10521677Y-25897703D01*
X10366490Y-25522123D01*
X10079389Y-25234520D01*
X9704080Y-25078678D01*
X9297703Y-25078323D01*
X8922123Y-25233510D01*
X8634520Y-25520611D01*
X8478678Y-25895920D01*
X8478323Y-26302297D01*
X8633510Y-26677877D01*
X8920611Y-26965480D01*
X9295920Y-27121322D01*
X9702297Y-27121677D01*
X10077877Y-26966490D01*
X10365480Y-26679389D01*
X10521322Y-26304080D01*
X10521677Y-25897703D01*
X10521677Y-30377231D01*
X10279389Y-30134520D01*
X9921677Y-29985984D01*
X9921677Y-28697703D01*
X9766490Y-28322123D01*
X9479389Y-28034520D01*
X9104080Y-27878678D01*
X8697703Y-27878323D01*
X8322123Y-28033510D01*
X8121677Y-28233606D01*
X8121677Y-25097703D01*
X7966490Y-24722123D01*
X7679389Y-24434520D01*
X7321468Y-24285898D01*
X7321677Y-24047703D01*
X7166490Y-23672123D01*
X6879389Y-23384520D01*
X6504080Y-23228678D01*
X6097703Y-23228323D01*
X5722123Y-23383510D01*
X5434520Y-23670611D01*
X5278678Y-24045920D01*
X5278323Y-24452297D01*
X5433510Y-24827877D01*
X5720611Y-25115480D01*
X6078531Y-25264101D01*
X6078323Y-25502297D01*
X6233510Y-25877877D01*
X6520611Y-26165480D01*
X6895920Y-26321322D01*
X7302297Y-26321677D01*
X7677877Y-26166490D01*
X7965480Y-25879389D01*
X8121322Y-25504080D01*
X8121677Y-25097703D01*
X8121677Y-28233606D01*
X8034520Y-28320611D01*
X7878678Y-28695920D01*
X7878323Y-29102297D01*
X8033510Y-29477877D01*
X8320611Y-29765480D01*
X8695920Y-29921322D01*
X9102297Y-29921677D01*
X9477877Y-29766490D01*
X9765480Y-29479389D01*
X9921322Y-29104080D01*
X9921677Y-28697703D01*
X9921677Y-29985984D01*
X9904080Y-29978678D01*
X9497703Y-29978323D01*
X9122123Y-30133510D01*
X8834520Y-30420611D01*
X8678678Y-30795920D01*
X8678323Y-31202297D01*
X8833510Y-31577877D01*
X9120611Y-31865480D01*
X9495920Y-32021322D01*
X9902297Y-32021677D01*
X10277877Y-31866490D01*
X10565480Y-31579389D01*
X10721322Y-31204080D01*
X10721677Y-30797703D01*
X10721677Y-43816364D01*
X9728112Y-42821064D01*
X8852234Y-42457367D01*
X8852234Y-38267250D01*
X8646838Y-37770154D01*
X8266846Y-37389499D01*
X7770109Y-37183235D01*
X7621677Y-37183105D01*
X7621677Y-28097703D01*
X7466490Y-27722123D01*
X7179389Y-27434520D01*
X6804080Y-27278678D01*
X6397703Y-27278323D01*
X6022123Y-27433510D01*
X5734520Y-27720611D01*
X5578678Y-28095920D01*
X5578323Y-28502297D01*
X5733510Y-28877877D01*
X6020611Y-29165480D01*
X6395920Y-29321322D01*
X6802297Y-29321677D01*
X7177877Y-29166490D01*
X7465480Y-28879389D01*
X7621322Y-28504080D01*
X7621677Y-28097703D01*
X7621677Y-37183105D01*
X7232250Y-37182766D01*
X6735154Y-37388162D01*
X6421677Y-37701093D01*
X6421677Y-30697703D01*
X6266490Y-30322123D01*
X5979389Y-30034520D01*
X5604080Y-29878678D01*
X5197703Y-29878323D01*
X4822123Y-30033510D01*
X4534520Y-30320611D01*
X4378678Y-30695920D01*
X4378323Y-31102297D01*
X4533510Y-31477877D01*
X4820611Y-31765480D01*
X5195920Y-31921322D01*
X5602297Y-31921677D01*
X5977877Y-31766490D01*
X6265480Y-31479389D01*
X6421322Y-31104080D01*
X6421677Y-30697703D01*
X6421677Y-37701093D01*
X6354499Y-37768154D01*
X6221677Y-38088023D01*
X6221677Y-35297703D01*
X6066490Y-34922123D01*
X5779389Y-34634520D01*
X5404080Y-34478678D01*
X4997703Y-34478323D01*
X4622123Y-34633510D01*
X4334520Y-34920611D01*
X4178678Y-35295920D01*
X4178323Y-35702297D01*
X4333510Y-36077877D01*
X4620611Y-36365480D01*
X4995920Y-36521322D01*
X5402297Y-36521677D01*
X5777877Y-36366490D01*
X6065480Y-36079389D01*
X6221322Y-35704080D01*
X6221677Y-35297703D01*
X6221677Y-38088023D01*
X6148235Y-38264891D01*
X6147766Y-38802750D01*
X6353162Y-39299846D01*
X6733154Y-39680501D01*
X7229891Y-39886765D01*
X7767750Y-39887234D01*
X8264846Y-39681838D01*
X8645501Y-39301846D01*
X8851765Y-38805109D01*
X8852234Y-38267250D01*
X8852234Y-42457367D01*
X8349593Y-42248653D01*
X6856955Y-42247350D01*
X5477439Y-42817355D01*
X4421064Y-43871888D01*
X4027000Y-44820899D01*
X4027000Y-41637512D01*
X4077877Y-41616490D01*
X4365480Y-41329389D01*
X4521322Y-40954080D01*
X4521677Y-40547703D01*
X4366490Y-40172123D01*
X4079389Y-39884520D01*
X4027000Y-39862766D01*
X4027000Y-39762341D01*
X4221569Y-39681947D01*
X4580686Y-39323456D01*
X4775279Y-38854826D01*
X4775721Y-38347400D01*
X4581947Y-37878431D01*
X4223456Y-37519314D01*
X4027000Y-37437737D01*
X4027000Y-11871094D01*
X4075279Y-11754826D01*
X4075721Y-11247400D01*
X4027000Y-11129486D01*
X4027000Y-5077830D01*
X4417355Y-6022561D01*
X5471888Y-7078936D01*
X6850407Y-7651347D01*
X8343045Y-7652650D01*
X9722561Y-7082645D01*
X10778936Y-6028112D01*
X11351347Y-4649593D01*
X11352650Y-3156955D01*
X10782645Y-1777439D01*
X9728112Y-721064D01*
X9405249Y-587000D01*
X44192921Y-587000D01*
X43877439Y-717355D01*
X42821064Y-1771888D01*
X42248653Y-3150407D01*
X42247350Y-4643045D01*
X42817355Y-6022561D01*
X43871888Y-7078936D01*
X45250407Y-7651347D01*
X46743045Y-7652650D01*
X48122561Y-7082645D01*
X49178936Y-6028112D01*
X49313000Y-5705249D01*
X49313000Y-9563000D01*
G36*
X3273000Y-49313000D02*
X3000000Y-49313000D01*
X587000Y-49313000D01*
X587000Y-587000D01*
X3273000Y-587000D01*
X3273000Y-10315315D01*
X3054826Y-10224721D01*
X2547400Y-10224279D01*
X2078431Y-10418053D01*
X1719314Y-10776544D01*
X1524721Y-11245174D01*
X1524279Y-11752600D01*
X1718053Y-12221569D01*
X2076544Y-12580686D01*
X2545174Y-12775279D01*
X3052600Y-12775721D01*
X3273000Y-12684653D01*
X3273000Y-37324301D01*
X3247400Y-37324279D01*
X2778431Y-37518053D01*
X2721677Y-37574708D01*
X2721677Y-34247703D01*
X2721677Y-30897703D01*
X2566490Y-30522123D01*
X2444619Y-30400038D01*
X2565480Y-30279389D01*
X2721322Y-29904080D01*
X2721677Y-29497703D01*
X2566490Y-29122123D01*
X2394619Y-28949951D01*
X2565480Y-28779389D01*
X2721322Y-28404080D01*
X2721677Y-27997703D01*
X2566490Y-27622123D01*
X2494618Y-27550126D01*
X2565480Y-27479389D01*
X2721322Y-27104080D01*
X2721677Y-26697703D01*
X2721677Y-13797703D01*
X2566490Y-13422123D01*
X2279389Y-13134520D01*
X1904080Y-12978678D01*
X1497703Y-12978323D01*
X1122123Y-13133510D01*
X834520Y-13420611D01*
X678678Y-13795920D01*
X678323Y-14202297D01*
X833510Y-14577877D01*
X1120611Y-14865480D01*
X1495920Y-15021322D01*
X1902297Y-15021677D01*
X2277877Y-14866490D01*
X2565480Y-14579389D01*
X2721322Y-14204080D01*
X2721677Y-13797703D01*
X2721677Y-26697703D01*
X2696677Y-26637198D01*
X2696677Y-20622703D01*
X2541490Y-20247123D01*
X2254389Y-19959520D01*
X1879080Y-19803678D01*
X1472703Y-19803323D01*
X1097123Y-19958510D01*
X809520Y-20245611D01*
X653678Y-20620920D01*
X653323Y-21027297D01*
X808510Y-21402877D01*
X1095611Y-21690480D01*
X1470920Y-21846322D01*
X1877297Y-21846677D01*
X2252877Y-21691490D01*
X2540480Y-21404389D01*
X2696322Y-21029080D01*
X2696677Y-20622703D01*
X2696677Y-26637198D01*
X2566490Y-26322123D01*
X2279389Y-26034520D01*
X1904080Y-25878678D01*
X1497703Y-25878323D01*
X1122123Y-26033510D01*
X834520Y-26320611D01*
X678678Y-26695920D01*
X678323Y-27102297D01*
X833510Y-27477877D01*
X905381Y-27549873D01*
X834520Y-27620611D01*
X678678Y-27995920D01*
X678323Y-28402297D01*
X833510Y-28777877D01*
X1005380Y-28950048D01*
X834520Y-29120611D01*
X678678Y-29495920D01*
X678323Y-29902297D01*
X833510Y-30277877D01*
X955380Y-30399961D01*
X834520Y-30520611D01*
X678678Y-30895920D01*
X678323Y-31302297D01*
X833510Y-31677877D01*
X1120611Y-31965480D01*
X1495920Y-32121322D01*
X1902297Y-32121677D01*
X2277877Y-31966490D01*
X2565480Y-31679389D01*
X2721322Y-31304080D01*
X2721677Y-30897703D01*
X2721677Y-34247703D01*
X2566490Y-33872123D01*
X2279389Y-33584520D01*
X1904080Y-33428678D01*
X1497703Y-33428323D01*
X1122123Y-33583510D01*
X834520Y-33870611D01*
X678678Y-34245920D01*
X678323Y-34652297D01*
X833510Y-35027877D01*
X1120611Y-35315480D01*
X1495920Y-35471322D01*
X1902297Y-35471677D01*
X2277877Y-35316490D01*
X2565480Y-35029389D01*
X2721322Y-34654080D01*
X2721677Y-34247703D01*
X2721677Y-37574708D01*
X2419314Y-37876544D01*
X2224721Y-38345174D01*
X2224279Y-38852600D01*
X2418053Y-39321569D01*
X2776544Y-39680686D01*
X3093982Y-39812498D01*
X2922123Y-39883510D01*
X2634520Y-40170611D01*
X2478678Y-40545920D01*
X2478323Y-40952297D01*
X2633510Y-41327877D01*
X2920611Y-41615480D01*
X3273000Y-41761804D01*
X3273000Y-49313000D01*
X3273000Y-49313000D01*
G37*
X3273000Y-49313000D02*
X3000000Y-49313000D01*
X587000Y-49313000D01*
X587000Y-587000D01*
X3273000Y-587000D01*
X3273000Y-10315315D01*
X3054826Y-10224721D01*
X2547400Y-10224279D01*
X2078431Y-10418053D01*
X1719314Y-10776544D01*
X1524721Y-11245174D01*
X1524279Y-11752600D01*
X1718053Y-12221569D01*
X2076544Y-12580686D01*
X2545174Y-12775279D01*
X3052600Y-12775721D01*
X3273000Y-12684653D01*
X3273000Y-37324301D01*
X3247400Y-37324279D01*
X2778431Y-37518053D01*
X2721677Y-37574708D01*
X2721677Y-34247703D01*
X2721677Y-30897703D01*
X2566490Y-30522123D01*
X2444619Y-30400038D01*
X2565480Y-30279389D01*
X2721322Y-29904080D01*
X2721677Y-29497703D01*
X2566490Y-29122123D01*
X2394619Y-28949951D01*
X2565480Y-28779389D01*
X2721322Y-28404080D01*
X2721677Y-27997703D01*
X2566490Y-27622123D01*
X2494618Y-27550126D01*
X2565480Y-27479389D01*
X2721322Y-27104080D01*
X2721677Y-26697703D01*
X2721677Y-13797703D01*
X2566490Y-13422123D01*
X2279389Y-13134520D01*
X1904080Y-12978678D01*
X1497703Y-12978323D01*
X1122123Y-13133510D01*
X834520Y-13420611D01*
X678678Y-13795920D01*
X678323Y-14202297D01*
X833510Y-14577877D01*
X1120611Y-14865480D01*
X1495920Y-15021322D01*
X1902297Y-15021677D01*
X2277877Y-14866490D01*
X2565480Y-14579389D01*
X2721322Y-14204080D01*
X2721677Y-13797703D01*
X2721677Y-26697703D01*
X2696677Y-26637198D01*
X2696677Y-20622703D01*
X2541490Y-20247123D01*
X2254389Y-19959520D01*
X1879080Y-19803678D01*
X1472703Y-19803323D01*
X1097123Y-19958510D01*
X809520Y-20245611D01*
X653678Y-20620920D01*
X653323Y-21027297D01*
X808510Y-21402877D01*
X1095611Y-21690480D01*
X1470920Y-21846322D01*
X1877297Y-21846677D01*
X2252877Y-21691490D01*
X2540480Y-21404389D01*
X2696322Y-21029080D01*
X2696677Y-20622703D01*
X2696677Y-26637198D01*
X2566490Y-26322123D01*
X2279389Y-26034520D01*
X1904080Y-25878678D01*
X1497703Y-25878323D01*
X1122123Y-26033510D01*
X834520Y-26320611D01*
X678678Y-26695920D01*
X678323Y-27102297D01*
X833510Y-27477877D01*
X905381Y-27549873D01*
X834520Y-27620611D01*
X678678Y-27995920D01*
X678323Y-28402297D01*
X833510Y-28777877D01*
X1005380Y-28950048D01*
X834520Y-29120611D01*
X678678Y-29495920D01*
X678323Y-29902297D01*
X833510Y-30277877D01*
X955380Y-30399961D01*
X834520Y-30520611D01*
X678678Y-30895920D01*
X678323Y-31302297D01*
X833510Y-31677877D01*
X1120611Y-31965480D01*
X1495920Y-32121322D01*
X1902297Y-32121677D01*
X2277877Y-31966490D01*
X2565480Y-31679389D01*
X2721322Y-31304080D01*
X2721677Y-30897703D01*
X2721677Y-34247703D01*
X2566490Y-33872123D01*
X2279389Y-33584520D01*
X1904080Y-33428678D01*
X1497703Y-33428323D01*
X1122123Y-33583510D01*
X834520Y-33870611D01*
X678678Y-34245920D01*
X678323Y-34652297D01*
X833510Y-35027877D01*
X1120611Y-35315480D01*
X1495920Y-35471322D01*
X1902297Y-35471677D01*
X2277877Y-35316490D01*
X2565480Y-35029389D01*
X2721322Y-34654080D01*
X2721677Y-34247703D01*
X2721677Y-37574708D01*
X2419314Y-37876544D01*
X2224721Y-38345174D01*
X2224279Y-38852600D01*
X2418053Y-39321569D01*
X2776544Y-39680686D01*
X3093982Y-39812498D01*
X2922123Y-39883510D01*
X2634520Y-40170611D01*
X2478678Y-40545920D01*
X2478323Y-40952297D01*
X2633510Y-41327877D01*
X2920611Y-41615480D01*
X3273000Y-41761804D01*
X3273000Y-49313000D01*
M02*
