M48
;DRILL file {kicad (2014-08-05 BZR 5054)-product} date Sun 07 Dec 2014 10:24:14 PM PST
;FORMAT={-:-/ absolute / metric / decimal}
FMAT,2
METRIC,TZ
T1C0.635
T2C0.813
T3C0.813
T4C0.900
T5C1.550
T6C3.200
T7C3.900
%
G90
G05
M71
T1
X1.675Y-20.825
X1.7Y-14.
X1.7Y-26.9
X1.7Y-28.2
X1.7Y-29.7
X1.7Y-31.1
X1.7Y-34.45
X3.5Y-40.75
X4.9Y-7.3
X5.2Y-35.5
X5.4Y-30.9
X5.8Y-26.4
X6.3Y-24.25
X6.6Y-28.3
X7.1Y-25.3
X8.9Y-28.9
X9.5Y-26.1
X9.6Y-20.8
X9.7Y-31.
X13.7Y-27.
X14.Y-45.8
X14.8Y-27.
X15.45Y-35.45
X15.6Y-17.1
X16.05Y-27.9
X16.1Y-15.852
X16.15Y-14.3
X16.6Y-45.5
X16.9Y-19.4
X16.9Y-21.3
X16.9Y-23.5
X16.9Y-25.2
X19.1Y-16.2
X19.1Y-19.4
X19.1Y-25.2
X19.15Y-45.5
X19.6Y-12.2
X21.4Y-19.4
X21.4Y-25.2
X21.65Y-45.5
X22.3Y-36.9
X22.9Y-19.4
X22.9Y-21.3
X22.9Y-23.5
X22.9Y-25.2
X23.55Y-9.9
X23.55Y-14.1
X23.6Y-28.7
X25.35Y-25.05
X25.5Y-20.75
X25.5Y-22.85
X26.Y-26.3
X26.2Y-28.9
X28.05Y-25.65
X29.5Y-21.
X35.5Y-5.4
X39.5Y-5.4
X39.7Y-35.3
X40.Y-22.
X40.Y-25.
X40.Y-28.
X40.Y-31.2
X41.7Y-37.5
T2
X1.9Y-42.4
X2.65Y-8.7
X3.5Y-38.6
X29.7Y-42.3
X39.5Y-9.6
X41.5Y-10.5
X41.55Y-19.7
T3
X2.8Y-11.5
X11.5Y-11.2
X22.45Y-43.3
X24.35Y-43.3
X26.25Y-41.45
X26.25Y-43.3
X27.1Y-36.1
X28.1Y-42.3
X30.Y-34.6
X31.9Y-42.3
X33.5Y-34.6
X35.7Y-42.3
X37.Y-36.2
X39.5Y-42.3
T4
X15.51Y-40.65
X15.55Y-38.1
X16.15Y-9.56
X16.15Y-12.1
X18.05Y-40.65
X18.09Y-38.1
T5
X7.5Y-11.365
X7.5Y-38.535
T6
X19.8Y-22.3
T7
X7.6Y-3.9
X7.6Y-46.
X46.Y-3.9
X46.Y-46.
T0
M30
