M48
;DRILL file {Pcbnew (2014-01-02 BZR 4600)-product} date Sun 26 Jan 2014 10:05:15 PM PST
;FORMAT={-:-/ absolute / inch / decimal}
FMAT,2
INCH,TZ
T1C0.016
T2C0.025
T3C0.032
T4C0.032
T5C0.039
T6C0.061
%
G90
G05
M72
T1
X0.2244Y-0.7451
X0.253Y-0.7756
X0.2805Y-0.8051
X0.312Y-0.8287
X0.3307Y-1.0531
X0.3386Y-1.2087
X0.3415Y-0.8593
X0.3543Y-1.0197
X0.3602Y-0.9203
X0.3701Y-1.1831
X0.378Y-0.9833
X0.3799Y-1.1437
X0.6161Y-1.1555
X0.6575Y-1.1555
X0.6988Y-1.1555
X0.7402Y-1.1555
T2
X0.061Y-1.5965
X0.064Y-0.5472
X0.0659Y-0.81
X0.0669Y-0.935
X0.0669Y-1.0846
X0.0669Y-1.2146
X0.1063Y-1.4843
X0.1378Y-0.4616
X0.2126Y-1.3602
X0.3081Y-1.6102
X0.3543Y-0.1476
X0.374Y-1.0886
X0.378Y-0.812
X0.3789Y-1.2884
X0.4646Y-1.4843
X0.5512Y-0.5394
X0.5827Y-1.0531
X0.5846Y-1.5522
X0.6142Y-0.6634
X0.6654Y-0.7539
X0.6654Y-0.8287
X0.6654Y-0.9154
X0.6654Y-0.9823
X0.6874Y-0.585
X0.7057Y-1.6053
X0.752Y-0.628
X0.752Y-0.7539
X0.752Y-0.8287
X0.752Y-0.9154
X0.752Y-0.9823
X0.7717Y-0.4705
X0.8425Y-0.7539
X0.8425Y-0.8287
X0.8425Y-0.9154
X0.8425Y-0.9823
X0.9006Y-1.1555
X0.9016Y-0.7539
X0.9016Y-0.8287
X0.9016Y-0.9154
X0.9016Y-0.9823
X0.9213Y-0.124
X0.9213Y-0.2224
X0.9272Y-0.3799
X0.9272Y-0.5453
X0.9291Y-1.1201
X0.998Y-0.9764
X1.0039Y-0.8071
X1.0039Y-0.8898
X1.0236Y-1.0256
X1.0315Y-1.128
X1.1043Y-1.
X1.128Y-0.7549
X1.185Y-1.4193
X1.2205Y-1.1988
X1.2362Y-1.5374
X1.3209Y-0.1713
X1.3839Y-0.6988
X1.3957Y-1.2382
X1.4173Y-1.5571
X1.5866Y-1.4232
X1.6457Y-1.5433
X1.752Y-1.2776
T3
X0.5187Y-0.4193
X0.7165Y-1.3504
X0.9843Y-1.3642
X0.9843Y-1.5453
X1.1024Y-0.1132
X1.378Y-1.3209
T4
X0.1453Y-0.3219
X0.2453Y-0.3219
X0.3453Y-0.3219
X0.4453Y-0.3219
X0.8809Y-1.2801
X0.8809Y-1.3801
X0.8809Y-1.4801
X0.8809Y-1.5801
T5
X1.628Y-0.065
X1.628Y-0.2776
X1.628Y-0.4547
X1.628Y-0.6673
X1.6299Y-0.8996
X1.6299Y-1.1122
X1.7343Y-0.1713
X1.7343Y-0.561
X1.7362Y-1.0059
X1.8406Y-0.065
X1.8406Y-0.2776
X1.8406Y-0.4547
X1.8406Y-0.6673
X1.8425Y-0.8996
X1.8425Y-1.1122
T6
X0.2953Y-0.4376
X0.2953Y-1.5073
T0
M30
