%FSLAX34Y34*%
G04 Gerber Fmt 3.4, Leading zero omitted, Abs format*
G04 (created by PCBNEW (2014-01-02 BZR 4600)-product) date Sun 26 Jan 2014 10:04:54 PM PST*
%MOIN*%
G01*
G70*
G90*
G04 APERTURE LIST*
%ADD10C,0.005906*%
%ADD11R,0.025600X0.181100*%
%ADD12R,0.025600X0.141700*%
%ADD13O,0.025600X0.025600*%
%ADD14R,0.035000X0.055000*%
%ADD15R,0.055000X0.035000*%
%ADD16R,0.060000X0.080000*%
%ADD17R,0.055000X0.055000*%
%ADD18C,0.055000*%
%ADD19C,0.059100*%
%ADD20C,0.060000*%
%ADD21C,0.078700*%
G04 APERTURE END LIST*
G54D10*
G54D11*
X275Y-18779D03*
X669Y-18779D03*
X1062Y-18779D03*
X1456Y-18779D03*
X1850Y-18779D03*
X2243Y-18779D03*
X2637Y-18779D03*
X3031Y-18779D03*
X3424Y-18779D03*
X3818Y-18779D03*
X4212Y-18779D03*
X6180Y-18779D03*
X6574Y-18779D03*
X6968Y-18779D03*
G54D12*
X7361Y-18582D03*
G54D11*
X7755Y-18779D03*
X5393Y-18779D03*
X5787Y-18779D03*
G54D12*
X275Y-18582D03*
G54D11*
X669Y-18779D03*
X1062Y-18779D03*
X1456Y-18779D03*
X1850Y-18779D03*
X2243Y-18779D03*
X2637Y-18779D03*
X3031Y-18779D03*
X3424Y-18779D03*
X3818Y-18779D03*
X4212Y-18779D03*
X6180Y-18779D03*
X6574Y-18779D03*
X6968Y-18779D03*
X7361Y-18779D03*
X7755Y-18779D03*
X5393Y-18779D03*
X5787Y-18779D03*
G54D13*
X1456Y-19685D03*
X1850Y-19685D03*
X2243Y-19685D03*
X2637Y-19685D03*
X3031Y-19685D03*
X3424Y-19685D03*
X3818Y-19685D03*
X6180Y-19685D03*
X6574Y-19685D03*
X1062Y-19685D03*
X5787Y-19685D03*
X6968Y-19685D03*
X4212Y-19685D03*
X5393Y-19685D03*
X7361Y-19685D03*
X7755Y-19685D03*
X669Y-19685D03*
G54D14*
X10294Y-9586D03*
X11044Y-9586D03*
G54D15*
X7992Y-6928D03*
X7992Y-7678D03*
X6220Y-6928D03*
X6220Y-7678D03*
X6220Y-10434D03*
X6220Y-9684D03*
G54D14*
X9548Y-9586D03*
X8798Y-9586D03*
G54D15*
X7874Y-6103D03*
X7874Y-5353D03*
X5944Y-6142D03*
X5944Y-5392D03*
X7086Y-10434D03*
X7086Y-9684D03*
G54D14*
X9548Y-8720D03*
X8798Y-8720D03*
X9548Y-7854D03*
X8798Y-7854D03*
G54D15*
X7086Y-6928D03*
X7086Y-7678D03*
G54D14*
X10333Y-8858D03*
X11083Y-8858D03*
X10333Y-8090D03*
X11083Y-8090D03*
G54D15*
X6771Y-6142D03*
X6771Y-5392D03*
X14704Y-15670D03*
X14704Y-14920D03*
X10708Y-15670D03*
X10708Y-14920D03*
X15551Y-15670D03*
X15551Y-14920D03*
X11535Y-15670D03*
X11535Y-14920D03*
G54D16*
X15984Y-13523D03*
X14684Y-13523D03*
X11988Y-13523D03*
X10688Y-13523D03*
G54D10*
G36*
X10007Y-10612D02*
X10396Y-10223D01*
X10643Y-10471D01*
X10254Y-10860D01*
X10007Y-10612D01*
X10007Y-10612D01*
G37*
G36*
X10537Y-11142D02*
X10926Y-10754D01*
X11173Y-11001D01*
X10785Y-11390D01*
X10537Y-11142D01*
X10537Y-11142D01*
G37*
G36*
X9259Y-11360D02*
X9648Y-10971D01*
X9895Y-11219D01*
X9506Y-11608D01*
X9259Y-11360D01*
X9259Y-11360D01*
G37*
G36*
X9789Y-11890D02*
X10178Y-11502D01*
X10425Y-11749D01*
X10036Y-12138D01*
X9789Y-11890D01*
X9789Y-11890D01*
G37*
G54D14*
X15237Y-12381D03*
X14487Y-12381D03*
X16849Y-13366D03*
X17599Y-13366D03*
G54D15*
X16456Y-14349D03*
X16456Y-15099D03*
X12362Y-14290D03*
X12362Y-15040D03*
G54D14*
X7823Y-10679D03*
X8573Y-10679D03*
G54D17*
X8809Y-15801D03*
G54D18*
X8809Y-14801D03*
X8809Y-13801D03*
X8809Y-12801D03*
G54D17*
X1452Y-3218D03*
G54D18*
X2452Y-3218D03*
X3452Y-3218D03*
X4452Y-3218D03*
G54D19*
X5187Y-4192D03*
X9842Y-15452D03*
X9842Y-13641D03*
G54D20*
X1220Y-15994D03*
G54D19*
X7165Y-13503D03*
G54D20*
X6643Y-15078D03*
G54D19*
X11023Y-1131D03*
X13779Y-13208D03*
G54D21*
X17362Y-10059D03*
X18425Y-11122D03*
X18425Y-8996D03*
X16299Y-8996D03*
X16299Y-11122D03*
X17342Y-5610D03*
X18405Y-6673D03*
X18405Y-4547D03*
X16279Y-4547D03*
X16279Y-6673D03*
X17342Y-1712D03*
X18405Y-2775D03*
X18405Y-649D03*
X16279Y-649D03*
X16279Y-2775D03*
M02*
