%FSLAX34Y34*%
G04 Gerber Fmt 3.4, Leading zero omitted, Abs format*
G04 (created by PCBNEW (2014-01-02 BZR 4600)-product) date Sun 26 Jan 2014 10:04:54 PM PST*
%MOIN*%
G01*
G70*
G90*
G04 APERTURE LIST*
%ADD10C,0.005906*%
%ADD11R,0.055000X0.055000*%
%ADD12C,0.055000*%
%ADD13C,0.059100*%
%ADD14C,0.078700*%
%ADD15C,0.035000*%
%ADD16C,0.029528*%
%ADD17C,0.039370*%
%ADD18C,0.010000*%
G04 APERTURE END LIST*
G54D10*
G54D11*
X8809Y-15801D03*
G54D12*
X8809Y-14801D03*
X8809Y-13801D03*
X8809Y-12801D03*
G54D11*
X1452Y-3218D03*
G54D12*
X2452Y-3218D03*
X3452Y-3218D03*
X4452Y-3218D03*
G54D13*
X5187Y-4192D03*
X9842Y-15452D03*
X9842Y-13641D03*
X7165Y-13503D03*
X11023Y-1131D03*
X13779Y-13208D03*
G54D14*
X17362Y-10059D03*
X18425Y-11122D03*
X18425Y-8996D03*
X16299Y-8996D03*
X16299Y-11122D03*
X17342Y-5610D03*
X18405Y-6673D03*
X18405Y-4547D03*
X16279Y-4547D03*
X16279Y-6673D03*
X17342Y-1712D03*
X18405Y-2775D03*
X18405Y-649D03*
X16279Y-649D03*
X16279Y-2775D03*
G54D15*
X13956Y-12381D03*
X10039Y-8897D03*
X9980Y-9763D03*
X17519Y-12775D03*
X10039Y-8070D03*
X7519Y-6279D03*
X9271Y-5452D03*
X16456Y-15433D03*
X6874Y-5850D03*
X9212Y-1240D03*
X9212Y-2224D03*
X12362Y-15374D03*
X5826Y-10531D03*
X6141Y-6633D03*
X9271Y-3799D03*
X13208Y-1712D03*
X12204Y-11988D03*
X11279Y-7549D03*
X11043Y-10000D03*
X7716Y-4704D03*
X5511Y-5393D03*
X3543Y-1476D03*
X639Y-5472D03*
X3789Y-12883D03*
X2125Y-13602D03*
X3080Y-16102D03*
X7057Y-16053D03*
X5846Y-15521D03*
X3779Y-8120D03*
X659Y-8100D03*
X669Y-9350D03*
X3740Y-10885D03*
X669Y-10846D03*
X669Y-12145D03*
X610Y-15964D03*
X10314Y-11279D03*
X6653Y-9153D03*
X7519Y-9153D03*
X6653Y-8287D03*
X7519Y-8287D03*
X8425Y-8287D03*
X9015Y-8287D03*
X9015Y-9153D03*
X8425Y-9153D03*
X9015Y-9822D03*
X8425Y-9822D03*
X7519Y-9822D03*
X6653Y-9822D03*
X9015Y-7539D03*
X8425Y-7539D03*
X7519Y-7539D03*
X6653Y-7539D03*
X15866Y-14232D03*
X11850Y-14192D03*
X10236Y-10255D03*
X9291Y-11200D03*
X4645Y-14842D03*
X1062Y-14842D03*
G54D16*
X3385Y-12086D03*
X3700Y-11830D03*
X3799Y-11437D03*
X3307Y-10531D03*
X3543Y-10196D03*
X3779Y-9832D03*
X3602Y-9202D03*
X3415Y-8592D03*
X3120Y-8287D03*
X2805Y-8051D03*
X2529Y-7755D03*
X2244Y-7450D03*
G54D15*
X1377Y-4616D03*
X9005Y-11555D03*
G54D16*
X6988Y-11555D03*
X6161Y-11555D03*
X6574Y-11555D03*
X7401Y-11555D03*
G54D15*
X13838Y-6988D03*
X14173Y-15570D03*
G54D17*
X4645Y-14842D02*
X4645Y-14527D01*
X4645Y-14527D02*
X4370Y-14251D01*
X7165Y-13503D02*
X5393Y-13503D01*
X1653Y-14251D02*
X1062Y-14842D01*
X4645Y-14251D02*
X4370Y-14251D01*
X4370Y-14251D02*
X1653Y-14251D01*
X5393Y-13503D02*
X4645Y-14251D01*
G54D10*
G36*
X18926Y-13749D02*
X15916Y-13749D01*
X15916Y-11616D01*
X15947Y-11647D01*
X16175Y-11742D01*
X16422Y-11742D01*
X16650Y-11648D01*
X16825Y-11474D01*
X16919Y-11246D01*
X16919Y-10999D01*
X16825Y-10770D01*
X16651Y-10596D01*
X16423Y-10501D01*
X16176Y-10501D01*
X15948Y-10595D01*
X15916Y-10627D01*
X15916Y-9490D01*
X15947Y-9521D01*
X16175Y-9616D01*
X16422Y-9616D01*
X16650Y-9522D01*
X16825Y-9348D01*
X16919Y-9120D01*
X16919Y-8873D01*
X16825Y-8644D01*
X16651Y-8470D01*
X16423Y-8375D01*
X16176Y-8375D01*
X15948Y-8469D01*
X15916Y-8501D01*
X15916Y-8316D01*
X9813Y-8316D01*
X9813Y-7353D01*
X10925Y-7353D01*
X10877Y-7468D01*
X10877Y-7628D01*
X10938Y-7776D01*
X11051Y-7889D01*
X11199Y-7951D01*
X11359Y-7951D01*
X11507Y-7890D01*
X11620Y-7777D01*
X11681Y-7629D01*
X11681Y-7469D01*
X11633Y-7353D01*
X13668Y-7353D01*
X13758Y-7390D01*
X13918Y-7390D01*
X14008Y-7353D01*
X18926Y-7353D01*
X18926Y-8619D01*
X18777Y-8470D01*
X18549Y-8375D01*
X18302Y-8375D01*
X18074Y-8469D01*
X17899Y-8644D01*
X17804Y-8872D01*
X17804Y-9118D01*
X17898Y-9347D01*
X18073Y-9521D01*
X18301Y-9616D01*
X18548Y-9616D01*
X18776Y-9522D01*
X18926Y-9372D01*
X18926Y-10745D01*
X18777Y-10596D01*
X18549Y-10501D01*
X18302Y-10501D01*
X18074Y-10595D01*
X17982Y-10686D01*
X17982Y-9936D01*
X17888Y-9707D01*
X17714Y-9533D01*
X17486Y-9438D01*
X17239Y-9438D01*
X17011Y-9532D01*
X16836Y-9707D01*
X16741Y-9935D01*
X16741Y-10181D01*
X16835Y-10410D01*
X17010Y-10584D01*
X17238Y-10679D01*
X17485Y-10679D01*
X17713Y-10585D01*
X17888Y-10411D01*
X17982Y-10183D01*
X17982Y-9936D01*
X17982Y-10686D01*
X17899Y-10770D01*
X17804Y-10998D01*
X17804Y-11244D01*
X17898Y-11473D01*
X18073Y-11647D01*
X18301Y-11742D01*
X18548Y-11742D01*
X18776Y-11648D01*
X18926Y-11498D01*
X18926Y-13749D01*
X18926Y-13749D01*
G37*
G54D18*
X18926Y-13749D02*
X15916Y-13749D01*
X15916Y-11616D01*
X15947Y-11647D01*
X16175Y-11742D01*
X16422Y-11742D01*
X16650Y-11648D01*
X16825Y-11474D01*
X16919Y-11246D01*
X16919Y-10999D01*
X16825Y-10770D01*
X16651Y-10596D01*
X16423Y-10501D01*
X16176Y-10501D01*
X15948Y-10595D01*
X15916Y-10627D01*
X15916Y-9490D01*
X15947Y-9521D01*
X16175Y-9616D01*
X16422Y-9616D01*
X16650Y-9522D01*
X16825Y-9348D01*
X16919Y-9120D01*
X16919Y-8873D01*
X16825Y-8644D01*
X16651Y-8470D01*
X16423Y-8375D01*
X16176Y-8375D01*
X15948Y-8469D01*
X15916Y-8501D01*
X15916Y-8316D01*
X9813Y-8316D01*
X9813Y-7353D01*
X10925Y-7353D01*
X10877Y-7468D01*
X10877Y-7628D01*
X10938Y-7776D01*
X11051Y-7889D01*
X11199Y-7951D01*
X11359Y-7951D01*
X11507Y-7890D01*
X11620Y-7777D01*
X11681Y-7629D01*
X11681Y-7469D01*
X11633Y-7353D01*
X13668Y-7353D01*
X13758Y-7390D01*
X13918Y-7390D01*
X14008Y-7353D01*
X18926Y-7353D01*
X18926Y-8619D01*
X18777Y-8470D01*
X18549Y-8375D01*
X18302Y-8375D01*
X18074Y-8469D01*
X17899Y-8644D01*
X17804Y-8872D01*
X17804Y-9118D01*
X17898Y-9347D01*
X18073Y-9521D01*
X18301Y-9616D01*
X18548Y-9616D01*
X18776Y-9522D01*
X18926Y-9372D01*
X18926Y-10745D01*
X18777Y-10596D01*
X18549Y-10501D01*
X18302Y-10501D01*
X18074Y-10595D01*
X17982Y-10686D01*
X17982Y-9936D01*
X17888Y-9707D01*
X17714Y-9533D01*
X17486Y-9438D01*
X17239Y-9438D01*
X17011Y-9532D01*
X16836Y-9707D01*
X16741Y-9935D01*
X16741Y-10181D01*
X16835Y-10410D01*
X17010Y-10584D01*
X17238Y-10679D01*
X17485Y-10679D01*
X17713Y-10585D01*
X17888Y-10411D01*
X17982Y-10183D01*
X17982Y-9936D01*
X17982Y-10686D01*
X17899Y-10770D01*
X17804Y-10998D01*
X17804Y-11244D01*
X17898Y-11473D01*
X18073Y-11647D01*
X18301Y-11742D01*
X18548Y-11742D01*
X18776Y-11648D01*
X18926Y-11498D01*
X18926Y-13749D01*
G54D10*
G36*
X15579Y-12843D02*
X14153Y-12843D01*
X14075Y-12765D01*
X13883Y-12686D01*
X13676Y-12685D01*
X13567Y-12730D01*
X12606Y-12010D01*
X12606Y-11908D01*
X12545Y-11760D01*
X12432Y-11647D01*
X12285Y-11586D01*
X12125Y-11585D01*
X12070Y-11608D01*
X11445Y-11139D01*
X11445Y-9920D01*
X11384Y-9772D01*
X11271Y-9659D01*
X11123Y-9597D01*
X10963Y-9597D01*
X10815Y-9658D01*
X10702Y-9771D01*
X10641Y-9919D01*
X10641Y-10079D01*
X10702Y-10227D01*
X10815Y-10340D01*
X10962Y-10402D01*
X11122Y-10402D01*
X11270Y-10341D01*
X11384Y-10228D01*
X11445Y-10080D01*
X11445Y-9920D01*
X11445Y-11139D01*
X10574Y-10486D01*
X10576Y-10484D01*
X10638Y-10336D01*
X10638Y-10176D01*
X10577Y-10028D01*
X10464Y-9915D01*
X10316Y-9853D01*
X10156Y-9853D01*
X10008Y-9914D01*
X9924Y-9998D01*
X9813Y-9915D01*
X9813Y-8652D01*
X15579Y-8652D01*
X15579Y-12843D01*
X15579Y-12843D01*
G37*
G54D18*
X15579Y-12843D02*
X14153Y-12843D01*
X14075Y-12765D01*
X13883Y-12686D01*
X13676Y-12685D01*
X13567Y-12730D01*
X12606Y-12010D01*
X12606Y-11908D01*
X12545Y-11760D01*
X12432Y-11647D01*
X12285Y-11586D01*
X12125Y-11585D01*
X12070Y-11608D01*
X11445Y-11139D01*
X11445Y-9920D01*
X11384Y-9772D01*
X11271Y-9659D01*
X11123Y-9597D01*
X10963Y-9597D01*
X10815Y-9658D01*
X10702Y-9771D01*
X10641Y-9919D01*
X10641Y-10079D01*
X10702Y-10227D01*
X10815Y-10340D01*
X10962Y-10402D01*
X11122Y-10402D01*
X11270Y-10341D01*
X11384Y-10228D01*
X11445Y-10080D01*
X11445Y-9920D01*
X11445Y-11139D01*
X10574Y-10486D01*
X10576Y-10484D01*
X10638Y-10336D01*
X10638Y-10176D01*
X10577Y-10028D01*
X10464Y-9915D01*
X10316Y-9853D01*
X10156Y-9853D01*
X10008Y-9914D01*
X9924Y-9998D01*
X9813Y-9915D01*
X9813Y-8652D01*
X15579Y-8652D01*
X15579Y-12843D01*
G54D10*
G36*
X18926Y-16190D02*
X14575Y-16190D01*
X14575Y-15491D01*
X14514Y-15343D01*
X14401Y-15230D01*
X14253Y-15168D01*
X14093Y-15168D01*
X13945Y-15229D01*
X13832Y-15342D01*
X13771Y-15490D01*
X13770Y-15650D01*
X13832Y-15798D01*
X13945Y-15911D01*
X14092Y-15972D01*
X14252Y-15973D01*
X14400Y-15912D01*
X14513Y-15798D01*
X14575Y-15651D01*
X14575Y-15491D01*
X14575Y-16190D01*
X13553Y-16190D01*
X13553Y-14364D01*
X9623Y-11437D01*
X9632Y-11428D01*
X9693Y-11281D01*
X9693Y-11121D01*
X9632Y-10973D01*
X9519Y-10860D01*
X9417Y-10817D01*
X9417Y-9743D01*
X9356Y-9595D01*
X9249Y-9488D01*
X9356Y-9381D01*
X9417Y-9233D01*
X9417Y-9073D01*
X9417Y-8207D01*
X9356Y-8059D01*
X9243Y-7946D01*
X9163Y-7913D01*
X9243Y-7880D01*
X9356Y-7767D01*
X9417Y-7619D01*
X9417Y-7459D01*
X9356Y-7311D01*
X9243Y-7198D01*
X9096Y-7137D01*
X8936Y-7137D01*
X8788Y-7198D01*
X8720Y-7265D01*
X8653Y-7198D01*
X8505Y-7137D01*
X8345Y-7137D01*
X8197Y-7198D01*
X8084Y-7311D01*
X8023Y-7459D01*
X8022Y-7619D01*
X8084Y-7766D01*
X8197Y-7880D01*
X8277Y-7913D01*
X8197Y-7946D01*
X8084Y-8059D01*
X8023Y-8207D01*
X8022Y-8367D01*
X8084Y-8514D01*
X8197Y-8628D01*
X8344Y-8689D01*
X8504Y-8689D01*
X8652Y-8628D01*
X8720Y-8560D01*
X8787Y-8628D01*
X8935Y-8689D01*
X9095Y-8689D01*
X9243Y-8628D01*
X9356Y-8515D01*
X9417Y-8367D01*
X9417Y-8207D01*
X9417Y-9073D01*
X9356Y-8926D01*
X9243Y-8812D01*
X9096Y-8751D01*
X8936Y-8751D01*
X8788Y-8812D01*
X8720Y-8880D01*
X8653Y-8812D01*
X8505Y-8751D01*
X8345Y-8751D01*
X8197Y-8812D01*
X8084Y-8925D01*
X8023Y-9073D01*
X8022Y-9233D01*
X8084Y-9381D01*
X8191Y-9488D01*
X8084Y-9594D01*
X8023Y-9742D01*
X8022Y-9902D01*
X8084Y-10050D01*
X8197Y-10163D01*
X8344Y-10224D01*
X8504Y-10225D01*
X8652Y-10163D01*
X8720Y-10096D01*
X8787Y-10163D01*
X8935Y-10224D01*
X9095Y-10225D01*
X9243Y-10163D01*
X9356Y-10050D01*
X9417Y-9903D01*
X9417Y-9743D01*
X9417Y-10817D01*
X9371Y-10798D01*
X9211Y-10798D01*
X9063Y-10859D01*
X8971Y-10951D01*
X7818Y-10092D01*
X7860Y-10050D01*
X7921Y-9903D01*
X7921Y-9743D01*
X7860Y-9595D01*
X7753Y-9488D01*
X7860Y-9381D01*
X7921Y-9233D01*
X7921Y-9073D01*
X7860Y-8926D01*
X7747Y-8812D01*
X7600Y-8751D01*
X7440Y-8751D01*
X7333Y-8795D01*
X7333Y-8645D01*
X7439Y-8689D01*
X7599Y-8689D01*
X7747Y-8628D01*
X7860Y-8515D01*
X7921Y-8367D01*
X7921Y-8207D01*
X7860Y-8059D01*
X7747Y-7946D01*
X7667Y-7913D01*
X7747Y-7880D01*
X7860Y-7767D01*
X7921Y-7619D01*
X7921Y-7459D01*
X7860Y-7311D01*
X7747Y-7198D01*
X7600Y-7137D01*
X7440Y-7137D01*
X7333Y-7181D01*
X7333Y-5187D01*
X9477Y-5187D01*
X9477Y-10202D01*
X10006Y-10595D01*
X10008Y-10596D01*
X10009Y-10597D01*
X10386Y-10877D01*
X10235Y-10877D01*
X10087Y-10938D01*
X9974Y-11051D01*
X9912Y-11199D01*
X9912Y-11359D01*
X9973Y-11507D01*
X10086Y-11620D01*
X10234Y-11681D01*
X10394Y-11681D01*
X10542Y-11620D01*
X10655Y-11507D01*
X10717Y-11359D01*
X10717Y-11199D01*
X10671Y-11088D01*
X11802Y-11928D01*
X11802Y-12067D01*
X11863Y-12215D01*
X11976Y-12328D01*
X12124Y-12390D01*
X12284Y-12390D01*
X12374Y-12353D01*
X13287Y-13031D01*
X13256Y-13104D01*
X13256Y-13312D01*
X13336Y-13504D01*
X13483Y-13651D01*
X13675Y-13731D01*
X13883Y-13731D01*
X14075Y-13652D01*
X14222Y-13505D01*
X14302Y-13313D01*
X14302Y-13179D01*
X15579Y-13179D01*
X15579Y-13949D01*
X15525Y-14004D01*
X15464Y-14151D01*
X15463Y-14311D01*
X15525Y-14459D01*
X15638Y-14573D01*
X15785Y-14634D01*
X15945Y-14634D01*
X16093Y-14573D01*
X16206Y-14460D01*
X16268Y-14312D01*
X16268Y-14152D01*
X16240Y-14085D01*
X18926Y-14085D01*
X18926Y-16190D01*
X18926Y-16190D01*
G37*
G54D18*
X18926Y-16190D02*
X14575Y-16190D01*
X14575Y-15491D01*
X14514Y-15343D01*
X14401Y-15230D01*
X14253Y-15168D01*
X14093Y-15168D01*
X13945Y-15229D01*
X13832Y-15342D01*
X13771Y-15490D01*
X13770Y-15650D01*
X13832Y-15798D01*
X13945Y-15911D01*
X14092Y-15972D01*
X14252Y-15973D01*
X14400Y-15912D01*
X14513Y-15798D01*
X14575Y-15651D01*
X14575Y-15491D01*
X14575Y-16190D01*
X13553Y-16190D01*
X13553Y-14364D01*
X9623Y-11437D01*
X9632Y-11428D01*
X9693Y-11281D01*
X9693Y-11121D01*
X9632Y-10973D01*
X9519Y-10860D01*
X9417Y-10817D01*
X9417Y-9743D01*
X9356Y-9595D01*
X9249Y-9488D01*
X9356Y-9381D01*
X9417Y-9233D01*
X9417Y-9073D01*
X9417Y-8207D01*
X9356Y-8059D01*
X9243Y-7946D01*
X9163Y-7913D01*
X9243Y-7880D01*
X9356Y-7767D01*
X9417Y-7619D01*
X9417Y-7459D01*
X9356Y-7311D01*
X9243Y-7198D01*
X9096Y-7137D01*
X8936Y-7137D01*
X8788Y-7198D01*
X8720Y-7265D01*
X8653Y-7198D01*
X8505Y-7137D01*
X8345Y-7137D01*
X8197Y-7198D01*
X8084Y-7311D01*
X8023Y-7459D01*
X8022Y-7619D01*
X8084Y-7766D01*
X8197Y-7880D01*
X8277Y-7913D01*
X8197Y-7946D01*
X8084Y-8059D01*
X8023Y-8207D01*
X8022Y-8367D01*
X8084Y-8514D01*
X8197Y-8628D01*
X8344Y-8689D01*
X8504Y-8689D01*
X8652Y-8628D01*
X8720Y-8560D01*
X8787Y-8628D01*
X8935Y-8689D01*
X9095Y-8689D01*
X9243Y-8628D01*
X9356Y-8515D01*
X9417Y-8367D01*
X9417Y-8207D01*
X9417Y-9073D01*
X9356Y-8926D01*
X9243Y-8812D01*
X9096Y-8751D01*
X8936Y-8751D01*
X8788Y-8812D01*
X8720Y-8880D01*
X8653Y-8812D01*
X8505Y-8751D01*
X8345Y-8751D01*
X8197Y-8812D01*
X8084Y-8925D01*
X8023Y-9073D01*
X8022Y-9233D01*
X8084Y-9381D01*
X8191Y-9488D01*
X8084Y-9594D01*
X8023Y-9742D01*
X8022Y-9902D01*
X8084Y-10050D01*
X8197Y-10163D01*
X8344Y-10224D01*
X8504Y-10225D01*
X8652Y-10163D01*
X8720Y-10096D01*
X8787Y-10163D01*
X8935Y-10224D01*
X9095Y-10225D01*
X9243Y-10163D01*
X9356Y-10050D01*
X9417Y-9903D01*
X9417Y-9743D01*
X9417Y-10817D01*
X9371Y-10798D01*
X9211Y-10798D01*
X9063Y-10859D01*
X8971Y-10951D01*
X7818Y-10092D01*
X7860Y-10050D01*
X7921Y-9903D01*
X7921Y-9743D01*
X7860Y-9595D01*
X7753Y-9488D01*
X7860Y-9381D01*
X7921Y-9233D01*
X7921Y-9073D01*
X7860Y-8926D01*
X7747Y-8812D01*
X7600Y-8751D01*
X7440Y-8751D01*
X7333Y-8795D01*
X7333Y-8645D01*
X7439Y-8689D01*
X7599Y-8689D01*
X7747Y-8628D01*
X7860Y-8515D01*
X7921Y-8367D01*
X7921Y-8207D01*
X7860Y-8059D01*
X7747Y-7946D01*
X7667Y-7913D01*
X7747Y-7880D01*
X7860Y-7767D01*
X7921Y-7619D01*
X7921Y-7459D01*
X7860Y-7311D01*
X7747Y-7198D01*
X7600Y-7137D01*
X7440Y-7137D01*
X7333Y-7181D01*
X7333Y-5187D01*
X9477Y-5187D01*
X9477Y-10202D01*
X10006Y-10595D01*
X10008Y-10596D01*
X10009Y-10597D01*
X10386Y-10877D01*
X10235Y-10877D01*
X10087Y-10938D01*
X9974Y-11051D01*
X9912Y-11199D01*
X9912Y-11359D01*
X9973Y-11507D01*
X10086Y-11620D01*
X10234Y-11681D01*
X10394Y-11681D01*
X10542Y-11620D01*
X10655Y-11507D01*
X10717Y-11359D01*
X10717Y-11199D01*
X10671Y-11088D01*
X11802Y-11928D01*
X11802Y-12067D01*
X11863Y-12215D01*
X11976Y-12328D01*
X12124Y-12390D01*
X12284Y-12390D01*
X12374Y-12353D01*
X13287Y-13031D01*
X13256Y-13104D01*
X13256Y-13312D01*
X13336Y-13504D01*
X13483Y-13651D01*
X13675Y-13731D01*
X13883Y-13731D01*
X14075Y-13652D01*
X14222Y-13505D01*
X14302Y-13313D01*
X14302Y-13179D01*
X15579Y-13179D01*
X15579Y-13949D01*
X15525Y-14004D01*
X15464Y-14151D01*
X15463Y-14311D01*
X15525Y-14459D01*
X15638Y-14573D01*
X15785Y-14634D01*
X15945Y-14634D01*
X16093Y-14573D01*
X16206Y-14460D01*
X16268Y-14312D01*
X16268Y-14152D01*
X16240Y-14085D01*
X18926Y-14085D01*
X18926Y-16190D01*
G54D10*
G36*
X13217Y-16190D02*
X12252Y-16190D01*
X12252Y-14113D01*
X12191Y-13965D01*
X12078Y-13852D01*
X11930Y-13790D01*
X11770Y-13790D01*
X11622Y-13851D01*
X11509Y-13964D01*
X11448Y-14112D01*
X11448Y-14272D01*
X11509Y-14420D01*
X11622Y-14533D01*
X11770Y-14595D01*
X11930Y-14595D01*
X12077Y-14534D01*
X12191Y-14421D01*
X12252Y-14273D01*
X12252Y-14113D01*
X12252Y-16190D01*
X10365Y-16190D01*
X10365Y-15349D01*
X10365Y-13538D01*
X10285Y-13346D01*
X10138Y-13198D01*
X9946Y-13119D01*
X9739Y-13118D01*
X9546Y-13198D01*
X9399Y-13345D01*
X9319Y-13537D01*
X9319Y-13745D01*
X9399Y-13937D01*
X9546Y-14084D01*
X9738Y-14164D01*
X9946Y-14164D01*
X10138Y-14085D01*
X10285Y-13938D01*
X10365Y-13746D01*
X10365Y-13538D01*
X10365Y-15349D01*
X10285Y-15157D01*
X10138Y-15009D01*
X9946Y-14930D01*
X9739Y-14930D01*
X9546Y-15009D01*
X9399Y-15156D01*
X9319Y-15348D01*
X9319Y-15556D01*
X9399Y-15748D01*
X9546Y-15895D01*
X9738Y-15975D01*
X9946Y-15975D01*
X10138Y-15896D01*
X10285Y-15749D01*
X10365Y-15557D01*
X10365Y-15349D01*
X10365Y-16190D01*
X9282Y-16190D01*
X9311Y-16121D01*
X9311Y-16030D01*
X9311Y-15480D01*
X9276Y-15397D01*
X9212Y-15333D01*
X9129Y-15299D01*
X9038Y-15299D01*
X8919Y-15299D01*
X9093Y-15227D01*
X9234Y-15086D01*
X9311Y-14901D01*
X9311Y-14701D01*
X9235Y-14517D01*
X9093Y-14375D01*
X8914Y-14301D01*
X9093Y-14227D01*
X9234Y-14086D01*
X9311Y-13901D01*
X9311Y-13701D01*
X9235Y-13517D01*
X9093Y-13375D01*
X8914Y-13301D01*
X9093Y-13227D01*
X9234Y-13086D01*
X9311Y-12901D01*
X9311Y-12701D01*
X9235Y-12517D01*
X9093Y-12375D01*
X8909Y-12299D01*
X8709Y-12298D01*
X8524Y-12375D01*
X8383Y-12516D01*
X8306Y-12700D01*
X8306Y-12900D01*
X8383Y-13085D01*
X8524Y-13226D01*
X8703Y-13301D01*
X8524Y-13375D01*
X8383Y-13516D01*
X8306Y-13700D01*
X8306Y-13900D01*
X8383Y-14085D01*
X8524Y-14226D01*
X8703Y-14301D01*
X8524Y-14375D01*
X8383Y-14516D01*
X8306Y-14700D01*
X8306Y-14900D01*
X8383Y-15085D01*
X8524Y-15226D01*
X8698Y-15299D01*
X8488Y-15299D01*
X8405Y-15333D01*
X8341Y-15397D01*
X8306Y-15480D01*
X8306Y-15571D01*
X8306Y-16121D01*
X8335Y-16190D01*
X7776Y-16190D01*
X7776Y-11480D01*
X7719Y-11343D01*
X7614Y-11237D01*
X7476Y-11180D01*
X7327Y-11180D01*
X7194Y-11235D01*
X7063Y-11180D01*
X6913Y-11180D01*
X6781Y-11235D01*
X6649Y-11180D01*
X6500Y-11180D01*
X6367Y-11235D01*
X6236Y-11180D01*
X6087Y-11180D01*
X5949Y-11237D01*
X5914Y-11272D01*
X5914Y-5314D01*
X5852Y-5166D01*
X5739Y-5052D01*
X5709Y-5040D01*
X5709Y-4089D01*
X5630Y-3897D01*
X5483Y-3750D01*
X5291Y-3670D01*
X5083Y-3670D01*
X4955Y-3723D01*
X4955Y-3119D01*
X4878Y-2934D01*
X4737Y-2793D01*
X4553Y-2716D01*
X4353Y-2716D01*
X4168Y-2792D01*
X4027Y-2933D01*
X3952Y-3113D01*
X3945Y-3096D01*
X3945Y-1396D01*
X3884Y-1248D01*
X3771Y-1135D01*
X3623Y-1074D01*
X3463Y-1074D01*
X3315Y-1135D01*
X3202Y-1248D01*
X3141Y-1396D01*
X3141Y-1556D01*
X3202Y-1703D01*
X3315Y-1817D01*
X3462Y-1878D01*
X3622Y-1878D01*
X3770Y-1817D01*
X3884Y-1704D01*
X3945Y-1556D01*
X3945Y-1396D01*
X3945Y-3096D01*
X3878Y-2934D01*
X3737Y-2793D01*
X3553Y-2716D01*
X3353Y-2716D01*
X3168Y-2792D01*
X3027Y-2933D01*
X2952Y-3113D01*
X2878Y-2934D01*
X2737Y-2793D01*
X2553Y-2716D01*
X2353Y-2716D01*
X2168Y-2792D01*
X2027Y-2933D01*
X1954Y-3107D01*
X1954Y-2898D01*
X1920Y-2814D01*
X1856Y-2750D01*
X1772Y-2716D01*
X1682Y-2716D01*
X1132Y-2716D01*
X1049Y-2750D01*
X985Y-2814D01*
X950Y-2898D01*
X950Y-2988D01*
X950Y-3538D01*
X985Y-3622D01*
X1049Y-3686D01*
X1132Y-3720D01*
X1222Y-3720D01*
X1772Y-3720D01*
X1856Y-3686D01*
X1920Y-3622D01*
X1954Y-3538D01*
X1954Y-3448D01*
X1954Y-3328D01*
X2026Y-3502D01*
X2167Y-3643D01*
X2352Y-3720D01*
X2552Y-3720D01*
X2736Y-3644D01*
X2878Y-3503D01*
X2952Y-3323D01*
X3026Y-3502D01*
X3167Y-3643D01*
X3352Y-3720D01*
X3552Y-3720D01*
X3736Y-3644D01*
X3878Y-3503D01*
X3952Y-3323D01*
X4026Y-3502D01*
X4167Y-3643D01*
X4352Y-3720D01*
X4552Y-3720D01*
X4736Y-3644D01*
X4878Y-3503D01*
X4954Y-3318D01*
X4955Y-3119D01*
X4955Y-3723D01*
X4891Y-3749D01*
X4744Y-3896D01*
X4664Y-4088D01*
X4664Y-4296D01*
X4743Y-4488D01*
X4890Y-4635D01*
X5082Y-4715D01*
X5290Y-4715D01*
X5482Y-4636D01*
X5629Y-4489D01*
X5709Y-4297D01*
X5709Y-4089D01*
X5709Y-5040D01*
X5592Y-4991D01*
X5432Y-4991D01*
X5284Y-5052D01*
X5171Y-5165D01*
X5109Y-5313D01*
X5109Y-5473D01*
X5170Y-5621D01*
X5283Y-5734D01*
X5431Y-5795D01*
X5591Y-5795D01*
X5739Y-5734D01*
X5852Y-5621D01*
X5913Y-5474D01*
X5914Y-5314D01*
X5914Y-11272D01*
X5843Y-11342D01*
X5786Y-11480D01*
X5786Y-11629D01*
X5843Y-11767D01*
X5948Y-11872D01*
X6086Y-11929D01*
X6235Y-11929D01*
X6368Y-11875D01*
X6499Y-11929D01*
X6649Y-11929D01*
X6781Y-11875D01*
X6913Y-11929D01*
X7062Y-11929D01*
X7195Y-11875D01*
X7326Y-11929D01*
X7475Y-11929D01*
X7613Y-11873D01*
X7719Y-11767D01*
X7776Y-11629D01*
X7776Y-11480D01*
X7776Y-16190D01*
X7688Y-16190D01*
X7688Y-13400D01*
X7608Y-13208D01*
X7461Y-13061D01*
X7269Y-12981D01*
X7061Y-12981D01*
X6869Y-13060D01*
X6850Y-13079D01*
X5393Y-13079D01*
X5231Y-13112D01*
X5093Y-13204D01*
X4470Y-13827D01*
X4370Y-13827D01*
X4191Y-13827D01*
X4191Y-12804D01*
X4181Y-12780D01*
X4181Y-8040D01*
X4120Y-7892D01*
X4007Y-7779D01*
X3859Y-7717D01*
X3699Y-7717D01*
X3552Y-7778D01*
X3485Y-7845D01*
X3485Y-4270D01*
X3404Y-4074D01*
X3254Y-3924D01*
X3059Y-3843D01*
X2847Y-3843D01*
X2651Y-3924D01*
X2501Y-4074D01*
X2420Y-4269D01*
X2420Y-4481D01*
X2501Y-4677D01*
X2650Y-4826D01*
X2846Y-4908D01*
X3058Y-4908D01*
X3253Y-4827D01*
X3403Y-4677D01*
X3484Y-4482D01*
X3485Y-4270D01*
X3485Y-7845D01*
X3438Y-7891D01*
X3384Y-8022D01*
X3332Y-7969D01*
X3194Y-7912D01*
X3153Y-7912D01*
X3123Y-7839D01*
X3017Y-7733D01*
X2904Y-7686D01*
X2904Y-7681D01*
X2847Y-7543D01*
X2742Y-7438D01*
X2618Y-7387D01*
X2618Y-7376D01*
X2562Y-7238D01*
X2456Y-7133D01*
X2318Y-7076D01*
X2169Y-7075D01*
X2032Y-7132D01*
X1926Y-7238D01*
X1869Y-7375D01*
X1869Y-7525D01*
X1926Y-7662D01*
X2031Y-7768D01*
X2154Y-7819D01*
X2154Y-7830D01*
X2211Y-7967D01*
X2316Y-8073D01*
X2430Y-8120D01*
X2430Y-8125D01*
X2487Y-8263D01*
X2592Y-8368D01*
X2730Y-8425D01*
X2771Y-8425D01*
X2802Y-8499D01*
X2907Y-8604D01*
X3040Y-8660D01*
X3040Y-8666D01*
X3097Y-8804D01*
X3202Y-8910D01*
X3317Y-8957D01*
X3284Y-8990D01*
X3227Y-9127D01*
X3227Y-9276D01*
X3284Y-9414D01*
X3389Y-9520D01*
X3511Y-9570D01*
X3461Y-9620D01*
X3404Y-9757D01*
X3404Y-9848D01*
X3331Y-9878D01*
X3225Y-9984D01*
X3168Y-10121D01*
X3168Y-10183D01*
X3095Y-10213D01*
X2989Y-10318D01*
X2932Y-10456D01*
X2932Y-10605D01*
X2989Y-10743D01*
X3094Y-10849D01*
X3232Y-10906D01*
X3337Y-10906D01*
X3337Y-10965D01*
X3399Y-11113D01*
X3495Y-11210D01*
X3481Y-11224D01*
X3424Y-11362D01*
X3424Y-11511D01*
X3443Y-11557D01*
X3383Y-11618D01*
X3344Y-11711D01*
X3311Y-11711D01*
X3173Y-11768D01*
X3068Y-11874D01*
X3011Y-12011D01*
X3010Y-12160D01*
X3067Y-12298D01*
X3173Y-12404D01*
X3310Y-12461D01*
X3460Y-12461D01*
X3597Y-12404D01*
X3703Y-12299D01*
X3742Y-12205D01*
X3775Y-12205D01*
X3912Y-12148D01*
X4018Y-12043D01*
X4075Y-11905D01*
X4075Y-11756D01*
X4056Y-11709D01*
X4116Y-11649D01*
X4173Y-11511D01*
X4174Y-11362D01*
X4117Y-11224D01*
X4043Y-11151D01*
X4080Y-11113D01*
X4142Y-10966D01*
X4142Y-10806D01*
X4081Y-10658D01*
X3968Y-10545D01*
X3820Y-10483D01*
X3786Y-10483D01*
X3860Y-10409D01*
X3918Y-10271D01*
X3918Y-10180D01*
X3991Y-10150D01*
X4097Y-10045D01*
X4154Y-9907D01*
X4154Y-9758D01*
X4097Y-9620D01*
X3992Y-9515D01*
X3870Y-9464D01*
X3919Y-9415D01*
X3977Y-9277D01*
X3977Y-9128D01*
X3920Y-8990D01*
X3814Y-8885D01*
X3700Y-8837D01*
X3732Y-8805D01*
X3790Y-8667D01*
X3790Y-8522D01*
X3859Y-8522D01*
X4007Y-8461D01*
X4120Y-8348D01*
X4181Y-8200D01*
X4181Y-8040D01*
X4181Y-12780D01*
X4130Y-12656D01*
X4017Y-12543D01*
X3869Y-12481D01*
X3709Y-12481D01*
X3561Y-12542D01*
X3448Y-12655D01*
X3387Y-12803D01*
X3387Y-12963D01*
X3448Y-13111D01*
X3561Y-13224D01*
X3709Y-13285D01*
X3869Y-13286D01*
X4016Y-13224D01*
X4130Y-13111D01*
X4191Y-12964D01*
X4191Y-12804D01*
X4191Y-13827D01*
X2467Y-13827D01*
X2528Y-13682D01*
X2528Y-13522D01*
X2467Y-13374D01*
X2354Y-13261D01*
X2206Y-13200D01*
X2046Y-13200D01*
X1898Y-13261D01*
X1785Y-13374D01*
X1780Y-13386D01*
X1780Y-4536D01*
X1719Y-4388D01*
X1606Y-4275D01*
X1458Y-4214D01*
X1298Y-4213D01*
X1150Y-4275D01*
X1037Y-4388D01*
X975Y-4535D01*
X975Y-4695D01*
X1036Y-4843D01*
X1149Y-4956D01*
X1297Y-5018D01*
X1457Y-5018D01*
X1605Y-4957D01*
X1718Y-4844D01*
X1780Y-4696D01*
X1780Y-4536D01*
X1780Y-13386D01*
X1723Y-13522D01*
X1723Y-13682D01*
X1784Y-13827D01*
X1653Y-13827D01*
X1491Y-13860D01*
X1353Y-13952D01*
X763Y-14542D01*
X671Y-14680D01*
X638Y-14842D01*
X671Y-15004D01*
X763Y-15142D01*
X900Y-15234D01*
X1062Y-15266D01*
X1225Y-15234D01*
X1362Y-15142D01*
X1829Y-14675D01*
X2596Y-14675D01*
X2501Y-14770D01*
X2420Y-14966D01*
X2420Y-15178D01*
X2501Y-15373D01*
X2650Y-15523D01*
X2846Y-15605D01*
X3058Y-15605D01*
X3253Y-15524D01*
X3403Y-15374D01*
X3484Y-15179D01*
X3485Y-14967D01*
X3404Y-14771D01*
X3308Y-14675D01*
X4194Y-14675D01*
X4221Y-14703D01*
X4221Y-14842D01*
X4253Y-15004D01*
X4345Y-15142D01*
X4483Y-15234D01*
X4645Y-15266D01*
X4807Y-15234D01*
X4945Y-15142D01*
X5037Y-15004D01*
X5069Y-14842D01*
X5069Y-14527D01*
X5053Y-14444D01*
X5569Y-13927D01*
X6850Y-13927D01*
X6868Y-13946D01*
X7060Y-14026D01*
X7268Y-14026D01*
X7461Y-13947D01*
X7608Y-13800D01*
X7687Y-13608D01*
X7688Y-13400D01*
X7688Y-16190D01*
X7435Y-16190D01*
X7459Y-16133D01*
X7459Y-15973D01*
X7398Y-15825D01*
X7285Y-15712D01*
X7137Y-15651D01*
X6977Y-15650D01*
X6829Y-15712D01*
X6716Y-15825D01*
X6654Y-15972D01*
X6654Y-16132D01*
X6678Y-16190D01*
X6248Y-16190D01*
X6248Y-15442D01*
X6187Y-15294D01*
X6074Y-15180D01*
X5926Y-15119D01*
X5766Y-15119D01*
X5618Y-15180D01*
X5505Y-15293D01*
X5444Y-15441D01*
X5444Y-15601D01*
X5505Y-15749D01*
X5618Y-15862D01*
X5766Y-15923D01*
X5926Y-15923D01*
X6073Y-15862D01*
X6187Y-15749D01*
X6248Y-15602D01*
X6248Y-15442D01*
X6248Y-16190D01*
X3479Y-16190D01*
X3482Y-16182D01*
X3482Y-16022D01*
X3421Y-15874D01*
X3308Y-15761D01*
X3161Y-15700D01*
X3001Y-15700D01*
X2853Y-15761D01*
X2739Y-15874D01*
X2678Y-16022D01*
X2678Y-16182D01*
X2681Y-16190D01*
X952Y-16190D01*
X1012Y-16044D01*
X1012Y-15884D01*
X951Y-15737D01*
X838Y-15623D01*
X690Y-15562D01*
X530Y-15562D01*
X382Y-15623D01*
X296Y-15709D01*
X296Y-12295D01*
X328Y-12373D01*
X441Y-12486D01*
X588Y-12547D01*
X748Y-12547D01*
X896Y-12486D01*
X1010Y-12373D01*
X1071Y-12226D01*
X1071Y-12066D01*
X1010Y-11918D01*
X897Y-11804D01*
X749Y-11743D01*
X589Y-11743D01*
X441Y-11804D01*
X328Y-11917D01*
X296Y-11995D01*
X296Y-10996D01*
X328Y-11073D01*
X441Y-11187D01*
X588Y-11248D01*
X748Y-11248D01*
X896Y-11187D01*
X1010Y-11074D01*
X1071Y-10926D01*
X1071Y-10766D01*
X1010Y-10618D01*
X897Y-10505D01*
X749Y-10444D01*
X589Y-10444D01*
X441Y-10505D01*
X328Y-10618D01*
X296Y-10696D01*
X296Y-9500D01*
X328Y-9577D01*
X441Y-9691D01*
X588Y-9752D01*
X748Y-9752D01*
X896Y-9691D01*
X1010Y-9578D01*
X1071Y-9430D01*
X1071Y-9270D01*
X1010Y-9122D01*
X897Y-9009D01*
X749Y-8948D01*
X589Y-8948D01*
X441Y-9009D01*
X328Y-9122D01*
X296Y-9200D01*
X296Y-8274D01*
X318Y-8327D01*
X431Y-8441D01*
X579Y-8502D01*
X739Y-8502D01*
X886Y-8441D01*
X1000Y-8328D01*
X1061Y-8180D01*
X1061Y-8020D01*
X1000Y-7872D01*
X887Y-7759D01*
X739Y-7698D01*
X579Y-7698D01*
X431Y-7759D01*
X318Y-7872D01*
X296Y-7926D01*
X296Y-5693D01*
X298Y-5699D01*
X411Y-5813D01*
X559Y-5874D01*
X719Y-5874D01*
X867Y-5813D01*
X980Y-5700D01*
X1041Y-5552D01*
X1041Y-5392D01*
X980Y-5244D01*
X867Y-5131D01*
X720Y-5070D01*
X560Y-5070D01*
X412Y-5131D01*
X299Y-5244D01*
X296Y-5251D01*
X296Y-286D01*
X9477Y-286D01*
X9477Y-3449D01*
X9352Y-3397D01*
X9192Y-3396D01*
X9044Y-3458D01*
X8930Y-3571D01*
X8869Y-3718D01*
X8869Y-3878D01*
X8930Y-4026D01*
X9043Y-4139D01*
X9191Y-4201D01*
X9351Y-4201D01*
X9477Y-4149D01*
X9477Y-4851D01*
X8091Y-4851D01*
X8118Y-4785D01*
X8118Y-4625D01*
X8057Y-4477D01*
X7944Y-4363D01*
X7796Y-4302D01*
X7636Y-4302D01*
X7489Y-4363D01*
X7375Y-4476D01*
X7314Y-4624D01*
X7314Y-4784D01*
X7342Y-4851D01*
X6997Y-4851D01*
X6997Y-7318D01*
X6994Y-7311D01*
X6881Y-7198D01*
X6733Y-7137D01*
X6573Y-7137D01*
X6426Y-7198D01*
X6312Y-7311D01*
X6251Y-7459D01*
X6251Y-7619D01*
X6312Y-7766D01*
X6425Y-7880D01*
X6505Y-7913D01*
X6426Y-7946D01*
X6312Y-8059D01*
X6251Y-8207D01*
X6251Y-8367D01*
X6312Y-8514D01*
X6425Y-8628D01*
X6573Y-8689D01*
X6733Y-8689D01*
X6881Y-8628D01*
X6994Y-8515D01*
X6997Y-8508D01*
X6997Y-8932D01*
X6994Y-8926D01*
X6881Y-8812D01*
X6733Y-8751D01*
X6573Y-8751D01*
X6426Y-8812D01*
X6312Y-8925D01*
X6251Y-9073D01*
X6251Y-9233D01*
X6312Y-9381D01*
X6419Y-9488D01*
X6312Y-9594D01*
X6251Y-9742D01*
X6251Y-9902D01*
X6312Y-10050D01*
X6425Y-10163D01*
X6573Y-10224D01*
X6733Y-10225D01*
X6881Y-10163D01*
X6994Y-10050D01*
X6997Y-10043D01*
X6997Y-10424D01*
X7542Y-10424D01*
X8703Y-11288D01*
X8665Y-11327D01*
X8603Y-11474D01*
X8603Y-11634D01*
X8664Y-11782D01*
X8777Y-11895D01*
X8925Y-11957D01*
X9085Y-11957D01*
X9233Y-11896D01*
X9346Y-11783D01*
X9351Y-11771D01*
X13217Y-14651D01*
X13217Y-16190D01*
X13217Y-16190D01*
G37*
G54D18*
X13217Y-16190D02*
X12252Y-16190D01*
X12252Y-14113D01*
X12191Y-13965D01*
X12078Y-13852D01*
X11930Y-13790D01*
X11770Y-13790D01*
X11622Y-13851D01*
X11509Y-13964D01*
X11448Y-14112D01*
X11448Y-14272D01*
X11509Y-14420D01*
X11622Y-14533D01*
X11770Y-14595D01*
X11930Y-14595D01*
X12077Y-14534D01*
X12191Y-14421D01*
X12252Y-14273D01*
X12252Y-14113D01*
X12252Y-16190D01*
X10365Y-16190D01*
X10365Y-15349D01*
X10365Y-13538D01*
X10285Y-13346D01*
X10138Y-13198D01*
X9946Y-13119D01*
X9739Y-13118D01*
X9546Y-13198D01*
X9399Y-13345D01*
X9319Y-13537D01*
X9319Y-13745D01*
X9399Y-13937D01*
X9546Y-14084D01*
X9738Y-14164D01*
X9946Y-14164D01*
X10138Y-14085D01*
X10285Y-13938D01*
X10365Y-13746D01*
X10365Y-13538D01*
X10365Y-15349D01*
X10285Y-15157D01*
X10138Y-15009D01*
X9946Y-14930D01*
X9739Y-14930D01*
X9546Y-15009D01*
X9399Y-15156D01*
X9319Y-15348D01*
X9319Y-15556D01*
X9399Y-15748D01*
X9546Y-15895D01*
X9738Y-15975D01*
X9946Y-15975D01*
X10138Y-15896D01*
X10285Y-15749D01*
X10365Y-15557D01*
X10365Y-15349D01*
X10365Y-16190D01*
X9282Y-16190D01*
X9311Y-16121D01*
X9311Y-16030D01*
X9311Y-15480D01*
X9276Y-15397D01*
X9212Y-15333D01*
X9129Y-15299D01*
X9038Y-15299D01*
X8919Y-15299D01*
X9093Y-15227D01*
X9234Y-15086D01*
X9311Y-14901D01*
X9311Y-14701D01*
X9235Y-14517D01*
X9093Y-14375D01*
X8914Y-14301D01*
X9093Y-14227D01*
X9234Y-14086D01*
X9311Y-13901D01*
X9311Y-13701D01*
X9235Y-13517D01*
X9093Y-13375D01*
X8914Y-13301D01*
X9093Y-13227D01*
X9234Y-13086D01*
X9311Y-12901D01*
X9311Y-12701D01*
X9235Y-12517D01*
X9093Y-12375D01*
X8909Y-12299D01*
X8709Y-12298D01*
X8524Y-12375D01*
X8383Y-12516D01*
X8306Y-12700D01*
X8306Y-12900D01*
X8383Y-13085D01*
X8524Y-13226D01*
X8703Y-13301D01*
X8524Y-13375D01*
X8383Y-13516D01*
X8306Y-13700D01*
X8306Y-13900D01*
X8383Y-14085D01*
X8524Y-14226D01*
X8703Y-14301D01*
X8524Y-14375D01*
X8383Y-14516D01*
X8306Y-14700D01*
X8306Y-14900D01*
X8383Y-15085D01*
X8524Y-15226D01*
X8698Y-15299D01*
X8488Y-15299D01*
X8405Y-15333D01*
X8341Y-15397D01*
X8306Y-15480D01*
X8306Y-15571D01*
X8306Y-16121D01*
X8335Y-16190D01*
X7776Y-16190D01*
X7776Y-11480D01*
X7719Y-11343D01*
X7614Y-11237D01*
X7476Y-11180D01*
X7327Y-11180D01*
X7194Y-11235D01*
X7063Y-11180D01*
X6913Y-11180D01*
X6781Y-11235D01*
X6649Y-11180D01*
X6500Y-11180D01*
X6367Y-11235D01*
X6236Y-11180D01*
X6087Y-11180D01*
X5949Y-11237D01*
X5914Y-11272D01*
X5914Y-5314D01*
X5852Y-5166D01*
X5739Y-5052D01*
X5709Y-5040D01*
X5709Y-4089D01*
X5630Y-3897D01*
X5483Y-3750D01*
X5291Y-3670D01*
X5083Y-3670D01*
X4955Y-3723D01*
X4955Y-3119D01*
X4878Y-2934D01*
X4737Y-2793D01*
X4553Y-2716D01*
X4353Y-2716D01*
X4168Y-2792D01*
X4027Y-2933D01*
X3952Y-3113D01*
X3945Y-3096D01*
X3945Y-1396D01*
X3884Y-1248D01*
X3771Y-1135D01*
X3623Y-1074D01*
X3463Y-1074D01*
X3315Y-1135D01*
X3202Y-1248D01*
X3141Y-1396D01*
X3141Y-1556D01*
X3202Y-1703D01*
X3315Y-1817D01*
X3462Y-1878D01*
X3622Y-1878D01*
X3770Y-1817D01*
X3884Y-1704D01*
X3945Y-1556D01*
X3945Y-1396D01*
X3945Y-3096D01*
X3878Y-2934D01*
X3737Y-2793D01*
X3553Y-2716D01*
X3353Y-2716D01*
X3168Y-2792D01*
X3027Y-2933D01*
X2952Y-3113D01*
X2878Y-2934D01*
X2737Y-2793D01*
X2553Y-2716D01*
X2353Y-2716D01*
X2168Y-2792D01*
X2027Y-2933D01*
X1954Y-3107D01*
X1954Y-2898D01*
X1920Y-2814D01*
X1856Y-2750D01*
X1772Y-2716D01*
X1682Y-2716D01*
X1132Y-2716D01*
X1049Y-2750D01*
X985Y-2814D01*
X950Y-2898D01*
X950Y-2988D01*
X950Y-3538D01*
X985Y-3622D01*
X1049Y-3686D01*
X1132Y-3720D01*
X1222Y-3720D01*
X1772Y-3720D01*
X1856Y-3686D01*
X1920Y-3622D01*
X1954Y-3538D01*
X1954Y-3448D01*
X1954Y-3328D01*
X2026Y-3502D01*
X2167Y-3643D01*
X2352Y-3720D01*
X2552Y-3720D01*
X2736Y-3644D01*
X2878Y-3503D01*
X2952Y-3323D01*
X3026Y-3502D01*
X3167Y-3643D01*
X3352Y-3720D01*
X3552Y-3720D01*
X3736Y-3644D01*
X3878Y-3503D01*
X3952Y-3323D01*
X4026Y-3502D01*
X4167Y-3643D01*
X4352Y-3720D01*
X4552Y-3720D01*
X4736Y-3644D01*
X4878Y-3503D01*
X4954Y-3318D01*
X4955Y-3119D01*
X4955Y-3723D01*
X4891Y-3749D01*
X4744Y-3896D01*
X4664Y-4088D01*
X4664Y-4296D01*
X4743Y-4488D01*
X4890Y-4635D01*
X5082Y-4715D01*
X5290Y-4715D01*
X5482Y-4636D01*
X5629Y-4489D01*
X5709Y-4297D01*
X5709Y-4089D01*
X5709Y-5040D01*
X5592Y-4991D01*
X5432Y-4991D01*
X5284Y-5052D01*
X5171Y-5165D01*
X5109Y-5313D01*
X5109Y-5473D01*
X5170Y-5621D01*
X5283Y-5734D01*
X5431Y-5795D01*
X5591Y-5795D01*
X5739Y-5734D01*
X5852Y-5621D01*
X5913Y-5474D01*
X5914Y-5314D01*
X5914Y-11272D01*
X5843Y-11342D01*
X5786Y-11480D01*
X5786Y-11629D01*
X5843Y-11767D01*
X5948Y-11872D01*
X6086Y-11929D01*
X6235Y-11929D01*
X6368Y-11875D01*
X6499Y-11929D01*
X6649Y-11929D01*
X6781Y-11875D01*
X6913Y-11929D01*
X7062Y-11929D01*
X7195Y-11875D01*
X7326Y-11929D01*
X7475Y-11929D01*
X7613Y-11873D01*
X7719Y-11767D01*
X7776Y-11629D01*
X7776Y-11480D01*
X7776Y-16190D01*
X7688Y-16190D01*
X7688Y-13400D01*
X7608Y-13208D01*
X7461Y-13061D01*
X7269Y-12981D01*
X7061Y-12981D01*
X6869Y-13060D01*
X6850Y-13079D01*
X5393Y-13079D01*
X5231Y-13112D01*
X5093Y-13204D01*
X4470Y-13827D01*
X4370Y-13827D01*
X4191Y-13827D01*
X4191Y-12804D01*
X4181Y-12780D01*
X4181Y-8040D01*
X4120Y-7892D01*
X4007Y-7779D01*
X3859Y-7717D01*
X3699Y-7717D01*
X3552Y-7778D01*
X3485Y-7845D01*
X3485Y-4270D01*
X3404Y-4074D01*
X3254Y-3924D01*
X3059Y-3843D01*
X2847Y-3843D01*
X2651Y-3924D01*
X2501Y-4074D01*
X2420Y-4269D01*
X2420Y-4481D01*
X2501Y-4677D01*
X2650Y-4826D01*
X2846Y-4908D01*
X3058Y-4908D01*
X3253Y-4827D01*
X3403Y-4677D01*
X3484Y-4482D01*
X3485Y-4270D01*
X3485Y-7845D01*
X3438Y-7891D01*
X3384Y-8022D01*
X3332Y-7969D01*
X3194Y-7912D01*
X3153Y-7912D01*
X3123Y-7839D01*
X3017Y-7733D01*
X2904Y-7686D01*
X2904Y-7681D01*
X2847Y-7543D01*
X2742Y-7438D01*
X2618Y-7387D01*
X2618Y-7376D01*
X2562Y-7238D01*
X2456Y-7133D01*
X2318Y-7076D01*
X2169Y-7075D01*
X2032Y-7132D01*
X1926Y-7238D01*
X1869Y-7375D01*
X1869Y-7525D01*
X1926Y-7662D01*
X2031Y-7768D01*
X2154Y-7819D01*
X2154Y-7830D01*
X2211Y-7967D01*
X2316Y-8073D01*
X2430Y-8120D01*
X2430Y-8125D01*
X2487Y-8263D01*
X2592Y-8368D01*
X2730Y-8425D01*
X2771Y-8425D01*
X2802Y-8499D01*
X2907Y-8604D01*
X3040Y-8660D01*
X3040Y-8666D01*
X3097Y-8804D01*
X3202Y-8910D01*
X3317Y-8957D01*
X3284Y-8990D01*
X3227Y-9127D01*
X3227Y-9276D01*
X3284Y-9414D01*
X3389Y-9520D01*
X3511Y-9570D01*
X3461Y-9620D01*
X3404Y-9757D01*
X3404Y-9848D01*
X3331Y-9878D01*
X3225Y-9984D01*
X3168Y-10121D01*
X3168Y-10183D01*
X3095Y-10213D01*
X2989Y-10318D01*
X2932Y-10456D01*
X2932Y-10605D01*
X2989Y-10743D01*
X3094Y-10849D01*
X3232Y-10906D01*
X3337Y-10906D01*
X3337Y-10965D01*
X3399Y-11113D01*
X3495Y-11210D01*
X3481Y-11224D01*
X3424Y-11362D01*
X3424Y-11511D01*
X3443Y-11557D01*
X3383Y-11618D01*
X3344Y-11711D01*
X3311Y-11711D01*
X3173Y-11768D01*
X3068Y-11874D01*
X3011Y-12011D01*
X3010Y-12160D01*
X3067Y-12298D01*
X3173Y-12404D01*
X3310Y-12461D01*
X3460Y-12461D01*
X3597Y-12404D01*
X3703Y-12299D01*
X3742Y-12205D01*
X3775Y-12205D01*
X3912Y-12148D01*
X4018Y-12043D01*
X4075Y-11905D01*
X4075Y-11756D01*
X4056Y-11709D01*
X4116Y-11649D01*
X4173Y-11511D01*
X4174Y-11362D01*
X4117Y-11224D01*
X4043Y-11151D01*
X4080Y-11113D01*
X4142Y-10966D01*
X4142Y-10806D01*
X4081Y-10658D01*
X3968Y-10545D01*
X3820Y-10483D01*
X3786Y-10483D01*
X3860Y-10409D01*
X3918Y-10271D01*
X3918Y-10180D01*
X3991Y-10150D01*
X4097Y-10045D01*
X4154Y-9907D01*
X4154Y-9758D01*
X4097Y-9620D01*
X3992Y-9515D01*
X3870Y-9464D01*
X3919Y-9415D01*
X3977Y-9277D01*
X3977Y-9128D01*
X3920Y-8990D01*
X3814Y-8885D01*
X3700Y-8837D01*
X3732Y-8805D01*
X3790Y-8667D01*
X3790Y-8522D01*
X3859Y-8522D01*
X4007Y-8461D01*
X4120Y-8348D01*
X4181Y-8200D01*
X4181Y-8040D01*
X4181Y-12780D01*
X4130Y-12656D01*
X4017Y-12543D01*
X3869Y-12481D01*
X3709Y-12481D01*
X3561Y-12542D01*
X3448Y-12655D01*
X3387Y-12803D01*
X3387Y-12963D01*
X3448Y-13111D01*
X3561Y-13224D01*
X3709Y-13285D01*
X3869Y-13286D01*
X4016Y-13224D01*
X4130Y-13111D01*
X4191Y-12964D01*
X4191Y-12804D01*
X4191Y-13827D01*
X2467Y-13827D01*
X2528Y-13682D01*
X2528Y-13522D01*
X2467Y-13374D01*
X2354Y-13261D01*
X2206Y-13200D01*
X2046Y-13200D01*
X1898Y-13261D01*
X1785Y-13374D01*
X1780Y-13386D01*
X1780Y-4536D01*
X1719Y-4388D01*
X1606Y-4275D01*
X1458Y-4214D01*
X1298Y-4213D01*
X1150Y-4275D01*
X1037Y-4388D01*
X975Y-4535D01*
X975Y-4695D01*
X1036Y-4843D01*
X1149Y-4956D01*
X1297Y-5018D01*
X1457Y-5018D01*
X1605Y-4957D01*
X1718Y-4844D01*
X1780Y-4696D01*
X1780Y-4536D01*
X1780Y-13386D01*
X1723Y-13522D01*
X1723Y-13682D01*
X1784Y-13827D01*
X1653Y-13827D01*
X1491Y-13860D01*
X1353Y-13952D01*
X763Y-14542D01*
X671Y-14680D01*
X638Y-14842D01*
X671Y-15004D01*
X763Y-15142D01*
X900Y-15234D01*
X1062Y-15266D01*
X1225Y-15234D01*
X1362Y-15142D01*
X1829Y-14675D01*
X2596Y-14675D01*
X2501Y-14770D01*
X2420Y-14966D01*
X2420Y-15178D01*
X2501Y-15373D01*
X2650Y-15523D01*
X2846Y-15605D01*
X3058Y-15605D01*
X3253Y-15524D01*
X3403Y-15374D01*
X3484Y-15179D01*
X3485Y-14967D01*
X3404Y-14771D01*
X3308Y-14675D01*
X4194Y-14675D01*
X4221Y-14703D01*
X4221Y-14842D01*
X4253Y-15004D01*
X4345Y-15142D01*
X4483Y-15234D01*
X4645Y-15266D01*
X4807Y-15234D01*
X4945Y-15142D01*
X5037Y-15004D01*
X5069Y-14842D01*
X5069Y-14527D01*
X5053Y-14444D01*
X5569Y-13927D01*
X6850Y-13927D01*
X6868Y-13946D01*
X7060Y-14026D01*
X7268Y-14026D01*
X7461Y-13947D01*
X7608Y-13800D01*
X7687Y-13608D01*
X7688Y-13400D01*
X7688Y-16190D01*
X7435Y-16190D01*
X7459Y-16133D01*
X7459Y-15973D01*
X7398Y-15825D01*
X7285Y-15712D01*
X7137Y-15651D01*
X6977Y-15650D01*
X6829Y-15712D01*
X6716Y-15825D01*
X6654Y-15972D01*
X6654Y-16132D01*
X6678Y-16190D01*
X6248Y-16190D01*
X6248Y-15442D01*
X6187Y-15294D01*
X6074Y-15180D01*
X5926Y-15119D01*
X5766Y-15119D01*
X5618Y-15180D01*
X5505Y-15293D01*
X5444Y-15441D01*
X5444Y-15601D01*
X5505Y-15749D01*
X5618Y-15862D01*
X5766Y-15923D01*
X5926Y-15923D01*
X6073Y-15862D01*
X6187Y-15749D01*
X6248Y-15602D01*
X6248Y-15442D01*
X6248Y-16190D01*
X3479Y-16190D01*
X3482Y-16182D01*
X3482Y-16022D01*
X3421Y-15874D01*
X3308Y-15761D01*
X3161Y-15700D01*
X3001Y-15700D01*
X2853Y-15761D01*
X2739Y-15874D01*
X2678Y-16022D01*
X2678Y-16182D01*
X2681Y-16190D01*
X952Y-16190D01*
X1012Y-16044D01*
X1012Y-15884D01*
X951Y-15737D01*
X838Y-15623D01*
X690Y-15562D01*
X530Y-15562D01*
X382Y-15623D01*
X296Y-15709D01*
X296Y-12295D01*
X328Y-12373D01*
X441Y-12486D01*
X588Y-12547D01*
X748Y-12547D01*
X896Y-12486D01*
X1010Y-12373D01*
X1071Y-12226D01*
X1071Y-12066D01*
X1010Y-11918D01*
X897Y-11804D01*
X749Y-11743D01*
X589Y-11743D01*
X441Y-11804D01*
X328Y-11917D01*
X296Y-11995D01*
X296Y-10996D01*
X328Y-11073D01*
X441Y-11187D01*
X588Y-11248D01*
X748Y-11248D01*
X896Y-11187D01*
X1010Y-11074D01*
X1071Y-10926D01*
X1071Y-10766D01*
X1010Y-10618D01*
X897Y-10505D01*
X749Y-10444D01*
X589Y-10444D01*
X441Y-10505D01*
X328Y-10618D01*
X296Y-10696D01*
X296Y-9500D01*
X328Y-9577D01*
X441Y-9691D01*
X588Y-9752D01*
X748Y-9752D01*
X896Y-9691D01*
X1010Y-9578D01*
X1071Y-9430D01*
X1071Y-9270D01*
X1010Y-9122D01*
X897Y-9009D01*
X749Y-8948D01*
X589Y-8948D01*
X441Y-9009D01*
X328Y-9122D01*
X296Y-9200D01*
X296Y-8274D01*
X318Y-8327D01*
X431Y-8441D01*
X579Y-8502D01*
X739Y-8502D01*
X886Y-8441D01*
X1000Y-8328D01*
X1061Y-8180D01*
X1061Y-8020D01*
X1000Y-7872D01*
X887Y-7759D01*
X739Y-7698D01*
X579Y-7698D01*
X431Y-7759D01*
X318Y-7872D01*
X296Y-7926D01*
X296Y-5693D01*
X298Y-5699D01*
X411Y-5813D01*
X559Y-5874D01*
X719Y-5874D01*
X867Y-5813D01*
X980Y-5700D01*
X1041Y-5552D01*
X1041Y-5392D01*
X980Y-5244D01*
X867Y-5131D01*
X720Y-5070D01*
X560Y-5070D01*
X412Y-5131D01*
X299Y-5244D01*
X296Y-5251D01*
X296Y-286D01*
X9477Y-286D01*
X9477Y-3449D01*
X9352Y-3397D01*
X9192Y-3396D01*
X9044Y-3458D01*
X8930Y-3571D01*
X8869Y-3718D01*
X8869Y-3878D01*
X8930Y-4026D01*
X9043Y-4139D01*
X9191Y-4201D01*
X9351Y-4201D01*
X9477Y-4149D01*
X9477Y-4851D01*
X8091Y-4851D01*
X8118Y-4785D01*
X8118Y-4625D01*
X8057Y-4477D01*
X7944Y-4363D01*
X7796Y-4302D01*
X7636Y-4302D01*
X7489Y-4363D01*
X7375Y-4476D01*
X7314Y-4624D01*
X7314Y-4784D01*
X7342Y-4851D01*
X6997Y-4851D01*
X6997Y-7318D01*
X6994Y-7311D01*
X6881Y-7198D01*
X6733Y-7137D01*
X6573Y-7137D01*
X6426Y-7198D01*
X6312Y-7311D01*
X6251Y-7459D01*
X6251Y-7619D01*
X6312Y-7766D01*
X6425Y-7880D01*
X6505Y-7913D01*
X6426Y-7946D01*
X6312Y-8059D01*
X6251Y-8207D01*
X6251Y-8367D01*
X6312Y-8514D01*
X6425Y-8628D01*
X6573Y-8689D01*
X6733Y-8689D01*
X6881Y-8628D01*
X6994Y-8515D01*
X6997Y-8508D01*
X6997Y-8932D01*
X6994Y-8926D01*
X6881Y-8812D01*
X6733Y-8751D01*
X6573Y-8751D01*
X6426Y-8812D01*
X6312Y-8925D01*
X6251Y-9073D01*
X6251Y-9233D01*
X6312Y-9381D01*
X6419Y-9488D01*
X6312Y-9594D01*
X6251Y-9742D01*
X6251Y-9902D01*
X6312Y-10050D01*
X6425Y-10163D01*
X6573Y-10224D01*
X6733Y-10225D01*
X6881Y-10163D01*
X6994Y-10050D01*
X6997Y-10043D01*
X6997Y-10424D01*
X7542Y-10424D01*
X8703Y-11288D01*
X8665Y-11327D01*
X8603Y-11474D01*
X8603Y-11634D01*
X8664Y-11782D01*
X8777Y-11895D01*
X8925Y-11957D01*
X9085Y-11957D01*
X9233Y-11896D01*
X9346Y-11783D01*
X9351Y-11771D01*
X13217Y-14651D01*
X13217Y-16190D01*
G54D10*
G36*
X18926Y-6316D02*
X18757Y-6147D01*
X18529Y-6052D01*
X18282Y-6052D01*
X18054Y-6146D01*
X17963Y-6237D01*
X17963Y-5487D01*
X17869Y-5259D01*
X17694Y-5084D01*
X17466Y-4989D01*
X17219Y-4989D01*
X16991Y-5083D01*
X16900Y-5174D01*
X16900Y-4424D01*
X16900Y-2652D01*
X16806Y-2424D01*
X16631Y-2249D01*
X16403Y-2155D01*
X16156Y-2154D01*
X15928Y-2249D01*
X15753Y-2423D01*
X15658Y-2651D01*
X15658Y-2898D01*
X15753Y-3126D01*
X15927Y-3301D01*
X16155Y-3396D01*
X16402Y-3396D01*
X16630Y-3302D01*
X16805Y-3127D01*
X16900Y-2899D01*
X16900Y-2652D01*
X16900Y-4424D01*
X16806Y-4196D01*
X16631Y-4021D01*
X16403Y-3926D01*
X16156Y-3926D01*
X15928Y-4020D01*
X15753Y-4195D01*
X15658Y-4423D01*
X15658Y-4670D01*
X15753Y-4898D01*
X15927Y-5073D01*
X16155Y-5167D01*
X16402Y-5168D01*
X16630Y-5073D01*
X16805Y-4899D01*
X16900Y-4671D01*
X16900Y-4424D01*
X16900Y-5174D01*
X16816Y-5258D01*
X16721Y-5486D01*
X16721Y-5733D01*
X16816Y-5961D01*
X16990Y-6136D01*
X17218Y-6230D01*
X17465Y-6231D01*
X17693Y-6136D01*
X17868Y-5962D01*
X17963Y-5734D01*
X17963Y-5487D01*
X17963Y-6237D01*
X17879Y-6321D01*
X17784Y-6549D01*
X17784Y-6796D01*
X17875Y-7016D01*
X16808Y-7016D01*
X16900Y-6797D01*
X16900Y-6550D01*
X16806Y-6322D01*
X16631Y-6147D01*
X16403Y-6052D01*
X16156Y-6052D01*
X15928Y-6146D01*
X15753Y-6321D01*
X15658Y-6549D01*
X15658Y-6796D01*
X15749Y-7016D01*
X13610Y-7016D01*
X13610Y-1632D01*
X13549Y-1485D01*
X13436Y-1371D01*
X13289Y-1310D01*
X13129Y-1310D01*
X12981Y-1371D01*
X12867Y-1484D01*
X12806Y-1632D01*
X12806Y-1792D01*
X12867Y-1940D01*
X12980Y-2053D01*
X13128Y-2114D01*
X13288Y-2114D01*
X13436Y-2053D01*
X13549Y-1940D01*
X13610Y-1792D01*
X13610Y-1632D01*
X13610Y-7016D01*
X11569Y-7016D01*
X11569Y-1044D01*
X11494Y-841D01*
X11471Y-807D01*
X11371Y-785D01*
X11370Y-787D01*
X11370Y-783D01*
X11347Y-683D01*
X11151Y-593D01*
X10935Y-585D01*
X10733Y-661D01*
X10699Y-683D01*
X10677Y-783D01*
X11023Y-1130D01*
X11370Y-783D01*
X11370Y-787D01*
X11025Y-1131D01*
X11371Y-1478D01*
X11471Y-1455D01*
X11561Y-1259D01*
X11569Y-1044D01*
X11569Y-7016D01*
X11370Y-7016D01*
X11370Y-1480D01*
X11023Y-1133D01*
X11021Y-1135D01*
X11021Y-1131D01*
X10675Y-785D01*
X10575Y-807D01*
X10485Y-1003D01*
X10477Y-1219D01*
X10552Y-1421D01*
X10575Y-1455D01*
X10675Y-1478D01*
X11021Y-1131D01*
X11021Y-1135D01*
X10677Y-1480D01*
X10699Y-1579D01*
X10895Y-1669D01*
X11111Y-1677D01*
X11313Y-1602D01*
X11347Y-1579D01*
X11370Y-1480D01*
X11370Y-7016D01*
X9813Y-7016D01*
X9813Y-286D01*
X15765Y-286D01*
X15753Y-297D01*
X15658Y-525D01*
X15658Y-772D01*
X15753Y-1000D01*
X15927Y-1175D01*
X16155Y-1270D01*
X16402Y-1270D01*
X16630Y-1176D01*
X16805Y-1001D01*
X16900Y-773D01*
X16900Y-526D01*
X16806Y-298D01*
X16793Y-286D01*
X17891Y-286D01*
X17879Y-297D01*
X17784Y-525D01*
X17784Y-772D01*
X17879Y-1000D01*
X18053Y-1175D01*
X18281Y-1270D01*
X18528Y-1270D01*
X18756Y-1176D01*
X18926Y-1006D01*
X18926Y-2418D01*
X18757Y-2249D01*
X18529Y-2155D01*
X18282Y-2154D01*
X18054Y-2249D01*
X17963Y-2340D01*
X17963Y-1589D01*
X17869Y-1361D01*
X17694Y-1186D01*
X17466Y-1092D01*
X17219Y-1091D01*
X16991Y-1186D01*
X16816Y-1360D01*
X16721Y-1588D01*
X16721Y-1835D01*
X16816Y-2063D01*
X16990Y-2238D01*
X17218Y-2333D01*
X17465Y-2333D01*
X17693Y-2239D01*
X17868Y-2064D01*
X17963Y-1836D01*
X17963Y-1589D01*
X17963Y-2340D01*
X17879Y-2423D01*
X17784Y-2651D01*
X17784Y-2898D01*
X17879Y-3126D01*
X18053Y-3301D01*
X18281Y-3396D01*
X18528Y-3396D01*
X18756Y-3302D01*
X18926Y-3132D01*
X18926Y-4190D01*
X18757Y-4021D01*
X18529Y-3926D01*
X18282Y-3926D01*
X18054Y-4020D01*
X17879Y-4195D01*
X17784Y-4423D01*
X17784Y-4670D01*
X17879Y-4898D01*
X18053Y-5073D01*
X18281Y-5167D01*
X18528Y-5168D01*
X18756Y-5073D01*
X18926Y-4904D01*
X18926Y-6316D01*
X18926Y-6316D01*
G37*
G54D18*
X18926Y-6316D02*
X18757Y-6147D01*
X18529Y-6052D01*
X18282Y-6052D01*
X18054Y-6146D01*
X17963Y-6237D01*
X17963Y-5487D01*
X17869Y-5259D01*
X17694Y-5084D01*
X17466Y-4989D01*
X17219Y-4989D01*
X16991Y-5083D01*
X16900Y-5174D01*
X16900Y-4424D01*
X16900Y-2652D01*
X16806Y-2424D01*
X16631Y-2249D01*
X16403Y-2155D01*
X16156Y-2154D01*
X15928Y-2249D01*
X15753Y-2423D01*
X15658Y-2651D01*
X15658Y-2898D01*
X15753Y-3126D01*
X15927Y-3301D01*
X16155Y-3396D01*
X16402Y-3396D01*
X16630Y-3302D01*
X16805Y-3127D01*
X16900Y-2899D01*
X16900Y-2652D01*
X16900Y-4424D01*
X16806Y-4196D01*
X16631Y-4021D01*
X16403Y-3926D01*
X16156Y-3926D01*
X15928Y-4020D01*
X15753Y-4195D01*
X15658Y-4423D01*
X15658Y-4670D01*
X15753Y-4898D01*
X15927Y-5073D01*
X16155Y-5167D01*
X16402Y-5168D01*
X16630Y-5073D01*
X16805Y-4899D01*
X16900Y-4671D01*
X16900Y-4424D01*
X16900Y-5174D01*
X16816Y-5258D01*
X16721Y-5486D01*
X16721Y-5733D01*
X16816Y-5961D01*
X16990Y-6136D01*
X17218Y-6230D01*
X17465Y-6231D01*
X17693Y-6136D01*
X17868Y-5962D01*
X17963Y-5734D01*
X17963Y-5487D01*
X17963Y-6237D01*
X17879Y-6321D01*
X17784Y-6549D01*
X17784Y-6796D01*
X17875Y-7016D01*
X16808Y-7016D01*
X16900Y-6797D01*
X16900Y-6550D01*
X16806Y-6322D01*
X16631Y-6147D01*
X16403Y-6052D01*
X16156Y-6052D01*
X15928Y-6146D01*
X15753Y-6321D01*
X15658Y-6549D01*
X15658Y-6796D01*
X15749Y-7016D01*
X13610Y-7016D01*
X13610Y-1632D01*
X13549Y-1485D01*
X13436Y-1371D01*
X13289Y-1310D01*
X13129Y-1310D01*
X12981Y-1371D01*
X12867Y-1484D01*
X12806Y-1632D01*
X12806Y-1792D01*
X12867Y-1940D01*
X12980Y-2053D01*
X13128Y-2114D01*
X13288Y-2114D01*
X13436Y-2053D01*
X13549Y-1940D01*
X13610Y-1792D01*
X13610Y-1632D01*
X13610Y-7016D01*
X11569Y-7016D01*
X11569Y-1044D01*
X11494Y-841D01*
X11471Y-807D01*
X11371Y-785D01*
X11370Y-787D01*
X11370Y-783D01*
X11347Y-683D01*
X11151Y-593D01*
X10935Y-585D01*
X10733Y-661D01*
X10699Y-683D01*
X10677Y-783D01*
X11023Y-1130D01*
X11370Y-783D01*
X11370Y-787D01*
X11025Y-1131D01*
X11371Y-1478D01*
X11471Y-1455D01*
X11561Y-1259D01*
X11569Y-1044D01*
X11569Y-7016D01*
X11370Y-7016D01*
X11370Y-1480D01*
X11023Y-1133D01*
X11021Y-1135D01*
X11021Y-1131D01*
X10675Y-785D01*
X10575Y-807D01*
X10485Y-1003D01*
X10477Y-1219D01*
X10552Y-1421D01*
X10575Y-1455D01*
X10675Y-1478D01*
X11021Y-1131D01*
X11021Y-1135D01*
X10677Y-1480D01*
X10699Y-1579D01*
X10895Y-1669D01*
X11111Y-1677D01*
X11313Y-1602D01*
X11347Y-1579D01*
X11370Y-1480D01*
X11370Y-7016D01*
X9813Y-7016D01*
X9813Y-286D01*
X15765Y-286D01*
X15753Y-297D01*
X15658Y-525D01*
X15658Y-772D01*
X15753Y-1000D01*
X15927Y-1175D01*
X16155Y-1270D01*
X16402Y-1270D01*
X16630Y-1176D01*
X16805Y-1001D01*
X16900Y-773D01*
X16900Y-526D01*
X16806Y-298D01*
X16793Y-286D01*
X17891Y-286D01*
X17879Y-297D01*
X17784Y-525D01*
X17784Y-772D01*
X17879Y-1000D01*
X18053Y-1175D01*
X18281Y-1270D01*
X18528Y-1270D01*
X18756Y-1176D01*
X18926Y-1006D01*
X18926Y-2418D01*
X18757Y-2249D01*
X18529Y-2155D01*
X18282Y-2154D01*
X18054Y-2249D01*
X17963Y-2340D01*
X17963Y-1589D01*
X17869Y-1361D01*
X17694Y-1186D01*
X17466Y-1092D01*
X17219Y-1091D01*
X16991Y-1186D01*
X16816Y-1360D01*
X16721Y-1588D01*
X16721Y-1835D01*
X16816Y-2063D01*
X16990Y-2238D01*
X17218Y-2333D01*
X17465Y-2333D01*
X17693Y-2239D01*
X17868Y-2064D01*
X17963Y-1836D01*
X17963Y-1589D01*
X17963Y-2340D01*
X17879Y-2423D01*
X17784Y-2651D01*
X17784Y-2898D01*
X17879Y-3126D01*
X18053Y-3301D01*
X18281Y-3396D01*
X18528Y-3396D01*
X18756Y-3302D01*
X18926Y-3132D01*
X18926Y-4190D01*
X18757Y-4021D01*
X18529Y-3926D01*
X18282Y-3926D01*
X18054Y-4020D01*
X17879Y-4195D01*
X17784Y-4423D01*
X17784Y-4670D01*
X17879Y-4898D01*
X18053Y-5073D01*
X18281Y-5167D01*
X18528Y-5168D01*
X18756Y-5073D01*
X18926Y-4904D01*
X18926Y-6316D01*
M02*
