%FSLAX34Y34*%
G04 Gerber Fmt 3.4, Leading zero omitted, Abs format*
G04 (created by PCBNEW (2014-01-02 BZR 4600)-product) date Sun 26 Jan 2014 10:04:54 PM PST*
%MOIN*%
G01*
G70*
G90*
G04 APERTURE LIST*
%ADD10C,0.005906*%
%ADD11C,0.006000*%
%ADD12C,0.003900*%
%ADD13C,0.005000*%
%ADD14C,0.002500*%
%ADD15C,0.008000*%
%ADD16C,0.012000*%
%ADD17C,0.009843*%
%ADD18C,0.003000*%
%ADD19C,0.004300*%
G04 APERTURE END LIST*
G54D10*
X6141Y-6870D02*
X5984Y-7027D01*
G54D11*
X9565Y-7011D02*
X9565Y-6911D01*
X9465Y-10451D02*
X9565Y-10451D01*
X6025Y-10351D02*
X6025Y-10451D01*
X6025Y-10451D02*
X6125Y-10451D01*
X9565Y-10451D02*
X9565Y-10351D01*
X9565Y-6911D02*
X9465Y-6911D01*
G54D12*
X13652Y-11688D02*
G75*
G03X13652Y-11688I-50J0D01*
G74*
G01*
X13152Y-11688D02*
X13552Y-11688D01*
X13552Y-11688D02*
X13552Y-12288D01*
X13552Y-12288D02*
X13152Y-12288D01*
X12752Y-12288D02*
X12352Y-12288D01*
X12352Y-12288D02*
X12352Y-11688D01*
X12352Y-11688D02*
X12752Y-11688D01*
G54D13*
X14393Y-7463D02*
X14293Y-7463D01*
X14293Y-7463D02*
X14293Y-8363D01*
X14293Y-8363D02*
X14393Y-8363D01*
X14393Y-7463D02*
X14393Y-8363D01*
X14393Y-8363D02*
X15043Y-8363D01*
X15743Y-7463D02*
X16393Y-7463D01*
X16393Y-7463D02*
X16393Y-8363D01*
X16393Y-8363D02*
X15743Y-8363D01*
X15043Y-7463D02*
X14393Y-7463D01*
G54D12*
X10305Y-8311D02*
G75*
G03X10305Y-8311I-50J0D01*
G74*
G01*
X10705Y-8311D02*
X10305Y-8311D01*
X10305Y-8311D02*
X10305Y-7711D01*
X10305Y-7711D02*
X10705Y-7711D01*
X11105Y-7711D02*
X11505Y-7711D01*
X11505Y-7711D02*
X11505Y-8311D01*
X11505Y-8311D02*
X11105Y-8311D01*
X10179Y-10174D02*
G75*
G03X10179Y-10174I-50J0D01*
G74*
G01*
X9811Y-10492D02*
X10094Y-10210D01*
X10094Y-10210D02*
X10518Y-10634D01*
X10518Y-10634D02*
X10235Y-10917D01*
X9952Y-11200D02*
X9669Y-11482D01*
X9669Y-11482D02*
X9245Y-11058D01*
X9245Y-11058D02*
X9528Y-10775D01*
G54D13*
X11773Y-11363D02*
X11136Y-10726D01*
X11136Y-10726D02*
X10677Y-11186D01*
X10818Y-12317D02*
X10359Y-12777D01*
X10359Y-12777D02*
X9722Y-12140D01*
X9722Y-12140D02*
X10182Y-11681D01*
X11313Y-11822D02*
X11773Y-11363D01*
G54D12*
X11994Y-7243D02*
G75*
G03X11994Y-7243I-50J0D01*
G74*
G01*
X11944Y-7693D02*
X11944Y-7293D01*
X11944Y-7293D02*
X12544Y-7293D01*
X12544Y-7293D02*
X12544Y-7693D01*
X12544Y-8093D02*
X12544Y-8493D01*
X12544Y-8493D02*
X11944Y-8493D01*
X11944Y-8493D02*
X11944Y-8093D01*
X14813Y-12425D02*
G75*
G03X14813Y-12425I-50J0D01*
G74*
G01*
X15213Y-12425D02*
X14813Y-12425D01*
X14813Y-12425D02*
X14813Y-11825D01*
X14813Y-11825D02*
X15213Y-11825D01*
X15613Y-11825D02*
X16013Y-11825D01*
X16013Y-11825D02*
X16013Y-12425D01*
X16013Y-12425D02*
X15613Y-12425D01*
X17141Y-12933D02*
G75*
G03X17141Y-12933I-50J0D01*
G74*
G01*
X17091Y-12483D02*
X17091Y-12883D01*
X17091Y-12883D02*
X16491Y-12883D01*
X16491Y-12883D02*
X16491Y-12483D01*
X16491Y-12083D02*
X16491Y-11683D01*
X16491Y-11683D02*
X17091Y-11683D01*
X17091Y-11683D02*
X17091Y-12083D01*
G54D13*
X17795Y-12362D02*
X17795Y-11810D01*
X17638Y-12362D02*
X18346Y-12362D01*
X18346Y-12362D02*
X18346Y-11810D01*
X18346Y-11810D02*
X17638Y-11810D01*
X17638Y-11810D02*
X17638Y-12362D01*
G54D10*
X10196Y-5944D02*
X10196Y-3267D01*
X10196Y-3267D02*
X7244Y-3267D01*
X7244Y-3267D02*
X7244Y-5944D01*
X7244Y-5944D02*
X10196Y-5944D01*
X10196Y-5944D02*
X10196Y-5905D01*
X10196Y-5905D02*
X10196Y-5944D01*
X5501Y-3149D02*
X10226Y-3149D01*
X10226Y-3149D02*
X10226Y-354D01*
X10226Y-354D02*
X5501Y-354D01*
X5501Y-354D02*
X5501Y-3149D01*
G54D12*
X11605Y-8440D02*
G75*
G03X11605Y-8440I-50J0D01*
G74*
G01*
X11105Y-8440D02*
X11505Y-8440D01*
X11505Y-8440D02*
X11505Y-9040D01*
X11505Y-9040D02*
X11105Y-9040D01*
X10705Y-9040D02*
X10305Y-9040D01*
X10305Y-9040D02*
X10305Y-8440D01*
X10305Y-8440D02*
X10705Y-8440D01*
X5030Y-1904D02*
G75*
G03X5030Y-1904I-50J0D01*
G74*
G01*
X4530Y-1904D02*
X4930Y-1904D01*
X4930Y-1904D02*
X4930Y-2504D01*
X4930Y-2504D02*
X4530Y-2504D01*
X4130Y-2504D02*
X3730Y-2504D01*
X3730Y-2504D02*
X3730Y-1904D01*
X3730Y-1904D02*
X4130Y-1904D01*
X5030Y-1166D02*
G75*
G03X5030Y-1166I-50J0D01*
G74*
G01*
X4530Y-1166D02*
X4930Y-1166D01*
X4930Y-1166D02*
X4930Y-1766D01*
X4930Y-1766D02*
X4530Y-1766D01*
X4130Y-1766D02*
X3730Y-1766D01*
X3730Y-1766D02*
X3730Y-1166D01*
X3730Y-1166D02*
X4130Y-1166D01*
X5030Y-428D02*
G75*
G03X5030Y-428I-50J0D01*
G74*
G01*
X4530Y-428D02*
X4930Y-428D01*
X4930Y-428D02*
X4930Y-1028D01*
X4930Y-1028D02*
X4530Y-1028D01*
X4130Y-1028D02*
X3730Y-1028D01*
X3730Y-1028D02*
X3730Y-428D01*
X3730Y-428D02*
X4130Y-428D01*
X12801Y-7243D02*
G75*
G03X12801Y-7243I-50J0D01*
G74*
G01*
X12751Y-7693D02*
X12751Y-7293D01*
X12751Y-7293D02*
X13351Y-7293D01*
X13351Y-7293D02*
X13351Y-7693D01*
X13351Y-8093D02*
X13351Y-8493D01*
X13351Y-8493D02*
X12751Y-8493D01*
X12751Y-8493D02*
X12751Y-8093D01*
G54D13*
X14809Y-3196D02*
X12559Y-3196D01*
X12559Y-196D02*
X14809Y-196D01*
X12559Y-3196D02*
X12559Y-3071D01*
X12559Y-2321D02*
X12559Y-2071D01*
X12559Y-1321D02*
X12559Y-1071D01*
X12559Y-321D02*
X12559Y-196D01*
X14809Y-3196D02*
X14809Y-3071D01*
X14809Y-2321D02*
X14809Y-2071D01*
X14809Y-1321D02*
X14809Y-1071D01*
X14809Y-321D02*
X14809Y-196D01*
G54D14*
X14235Y-2946D02*
G75*
G03X14235Y-2946I-176J0D01*
G74*
G01*
G54D13*
X14809Y-6543D02*
X12559Y-6543D01*
X12559Y-3543D02*
X14809Y-3543D01*
X12559Y-6543D02*
X12559Y-6418D01*
X12559Y-5668D02*
X12559Y-5418D01*
X12559Y-4668D02*
X12559Y-4418D01*
X12559Y-3668D02*
X12559Y-3543D01*
X14809Y-6543D02*
X14809Y-6418D01*
X14809Y-5668D02*
X14809Y-5418D01*
X14809Y-4668D02*
X14809Y-4418D01*
X14809Y-3668D02*
X14809Y-3543D01*
G54D14*
X14235Y-6293D02*
G75*
G03X14235Y-6293I-176J0D01*
G74*
G01*
G54D15*
X15423Y-13147D02*
X14223Y-13147D01*
X14223Y-13147D02*
X14223Y-15947D01*
X14223Y-15947D02*
X15423Y-15947D01*
X16623Y-13147D02*
X16923Y-13147D01*
X16923Y-13147D02*
X17823Y-13747D01*
X17823Y-13747D02*
X17823Y-15347D01*
X17823Y-15347D02*
X16923Y-15947D01*
X16923Y-15947D02*
X16623Y-15947D01*
X11407Y-13147D02*
X10207Y-13147D01*
X10207Y-13147D02*
X10207Y-15947D01*
X10207Y-15947D02*
X11407Y-15947D01*
X12607Y-13147D02*
X12907Y-13147D01*
X12907Y-13147D02*
X13807Y-13747D01*
X13807Y-13747D02*
X13807Y-15347D01*
X13807Y-15347D02*
X12907Y-15947D01*
X12907Y-15947D02*
X12607Y-15947D01*
G54D12*
X18751Y-7613D02*
G75*
G03X18751Y-7613I-50J0D01*
G74*
G01*
X18251Y-7613D02*
X18651Y-7613D01*
X18651Y-7613D02*
X18651Y-8213D01*
X18651Y-8213D02*
X18251Y-8213D01*
X17851Y-8213D02*
X17451Y-8213D01*
X17451Y-8213D02*
X17451Y-7613D01*
X17451Y-7613D02*
X17851Y-7613D01*
G54D16*
X8309Y-16301D02*
X8309Y-16301D01*
X9309Y-16301D02*
X8309Y-16301D01*
X8309Y-16301D02*
X8309Y-16301D01*
X8309Y-16301D02*
X8309Y-12301D01*
X8309Y-12301D02*
X9309Y-12301D01*
X9309Y-12301D02*
X9309Y-16301D01*
X9309Y-15301D02*
X8309Y-15301D01*
G54D13*
X834Y-15545D02*
X834Y-3903D01*
X834Y-3903D02*
X4283Y-3903D01*
X4283Y-3903D02*
X5070Y-4690D01*
X5070Y-4690D02*
X5070Y-14757D01*
X5070Y-14757D02*
X4283Y-15545D01*
X4283Y-15545D02*
X834Y-15545D01*
G54D16*
X952Y-2718D02*
X952Y-2718D01*
X952Y-3718D02*
X952Y-2718D01*
X952Y-2718D02*
X952Y-2718D01*
X952Y-2718D02*
X4952Y-2718D01*
X4952Y-2718D02*
X4952Y-3718D01*
X4952Y-3718D02*
X952Y-3718D01*
X1952Y-3718D02*
X1952Y-2718D01*
G54D13*
X15301Y-11582D02*
X13051Y-11582D01*
X13051Y-8582D02*
X15301Y-8582D01*
X13051Y-11582D02*
X13051Y-11457D01*
X13051Y-10707D02*
X13051Y-10457D01*
X13051Y-9707D02*
X13051Y-9457D01*
X13051Y-8707D02*
X13051Y-8582D01*
X15301Y-11582D02*
X15301Y-11457D01*
X15301Y-10707D02*
X15301Y-10457D01*
X15301Y-9707D02*
X15301Y-9457D01*
X15301Y-8707D02*
X15301Y-8582D01*
G54D14*
X14727Y-11332D02*
G75*
G03X14727Y-11332I-176J0D01*
G74*
G01*
G54D17*
X17913Y-8838D02*
X16811Y-8838D01*
X16811Y-11318D02*
X17913Y-11318D01*
X16141Y-10610D02*
X16141Y-9507D01*
X18582Y-9507D02*
X18582Y-10610D01*
X17893Y-4389D02*
X16791Y-4389D01*
X16791Y-6870D02*
X17893Y-6870D01*
X16122Y-6161D02*
X16122Y-5059D01*
X18562Y-5059D02*
X18562Y-6161D01*
X17893Y-492D02*
X16791Y-492D01*
X16791Y-2972D02*
X17893Y-2972D01*
X16122Y-2263D02*
X16122Y-1161D01*
X18562Y-1161D02*
X18562Y-2263D01*
G54D10*
X9709Y-6497D02*
X9709Y-6815D01*
X9728Y-6853D01*
X9747Y-6871D01*
X9784Y-6890D01*
X9859Y-6890D01*
X9897Y-6871D01*
X9916Y-6853D01*
X9934Y-6815D01*
X9934Y-6497D01*
X10328Y-6890D02*
X10103Y-6890D01*
X10216Y-6890D02*
X10216Y-6497D01*
X10178Y-6553D01*
X10141Y-6590D01*
X10103Y-6609D01*
G54D18*
X5385Y-6950D02*
X5385Y-7064D01*
X5272Y-7018D02*
X5385Y-7064D01*
X5498Y-7018D01*
X5317Y-7154D02*
X5385Y-7064D01*
X5453Y-7154D01*
G54D10*
X3517Y-16144D02*
X3498Y-16163D01*
X3442Y-16182D01*
X3405Y-16182D01*
X3348Y-16163D01*
X3311Y-16125D01*
X3292Y-16088D01*
X3273Y-16013D01*
X3273Y-15957D01*
X3292Y-15882D01*
X3311Y-15844D01*
X3348Y-15807D01*
X3405Y-15788D01*
X3442Y-15788D01*
X3498Y-15807D01*
X3517Y-15825D01*
X3686Y-16182D02*
X3686Y-15788D01*
X3911Y-16182D01*
X3911Y-15788D01*
X4079Y-15825D02*
X4098Y-15807D01*
X4136Y-15788D01*
X4229Y-15788D01*
X4267Y-15807D01*
X4286Y-15825D01*
X4304Y-15863D01*
X4304Y-15900D01*
X4286Y-15957D01*
X4061Y-16182D01*
X4304Y-16182D01*
G54D19*
X11930Y-12452D02*
X11921Y-12461D01*
X11892Y-12471D01*
X11874Y-12471D01*
X11846Y-12461D01*
X11827Y-12442D01*
X11817Y-12424D01*
X11808Y-12386D01*
X11808Y-12358D01*
X11817Y-12320D01*
X11827Y-12302D01*
X11846Y-12283D01*
X11874Y-12274D01*
X11892Y-12274D01*
X11921Y-12283D01*
X11930Y-12292D01*
X12005Y-12292D02*
X12014Y-12283D01*
X12033Y-12274D01*
X12080Y-12274D01*
X12099Y-12283D01*
X12108Y-12292D01*
X12118Y-12311D01*
X12118Y-12330D01*
X12108Y-12358D01*
X11996Y-12471D01*
X12118Y-12471D01*
X12305Y-12471D02*
X12193Y-12471D01*
X12249Y-12471D02*
X12249Y-12274D01*
X12230Y-12302D01*
X12211Y-12320D01*
X12193Y-12330D01*
G54D13*
X15171Y-7331D02*
X15157Y-7345D01*
X15114Y-7360D01*
X15085Y-7360D01*
X15042Y-7345D01*
X15014Y-7317D01*
X14999Y-7288D01*
X14985Y-7231D01*
X14985Y-7188D01*
X14999Y-7131D01*
X15014Y-7102D01*
X15042Y-7074D01*
X15085Y-7060D01*
X15114Y-7060D01*
X15157Y-7074D01*
X15171Y-7088D01*
X15285Y-7088D02*
X15299Y-7074D01*
X15328Y-7060D01*
X15399Y-7060D01*
X15428Y-7074D01*
X15442Y-7088D01*
X15457Y-7117D01*
X15457Y-7145D01*
X15442Y-7188D01*
X15271Y-7360D01*
X15457Y-7360D01*
X15571Y-7088D02*
X15585Y-7074D01*
X15614Y-7060D01*
X15685Y-7060D01*
X15714Y-7074D01*
X15728Y-7088D01*
X15742Y-7117D01*
X15742Y-7145D01*
X15728Y-7188D01*
X15557Y-7360D01*
X15742Y-7360D01*
G54D19*
X10591Y-7570D02*
X10582Y-7579D01*
X10554Y-7589D01*
X10535Y-7589D01*
X10507Y-7579D01*
X10488Y-7560D01*
X10479Y-7542D01*
X10469Y-7504D01*
X10469Y-7476D01*
X10479Y-7439D01*
X10488Y-7420D01*
X10507Y-7401D01*
X10535Y-7392D01*
X10554Y-7392D01*
X10582Y-7401D01*
X10591Y-7410D01*
X10666Y-7410D02*
X10676Y-7401D01*
X10695Y-7392D01*
X10741Y-7392D01*
X10760Y-7401D01*
X10770Y-7410D01*
X10779Y-7429D01*
X10779Y-7448D01*
X10770Y-7476D01*
X10657Y-7589D01*
X10779Y-7589D01*
X10845Y-7392D02*
X10967Y-7392D01*
X10901Y-7467D01*
X10929Y-7467D01*
X10948Y-7476D01*
X10957Y-7485D01*
X10967Y-7504D01*
X10967Y-7551D01*
X10957Y-7570D01*
X10948Y-7579D01*
X10929Y-7589D01*
X10873Y-7589D01*
X10854Y-7579D01*
X10845Y-7570D01*
X10993Y-10552D02*
X10993Y-10565D01*
X10980Y-10592D01*
X10967Y-10605D01*
X10940Y-10619D01*
X10914Y-10619D01*
X10894Y-10612D01*
X10860Y-10592D01*
X10841Y-10572D01*
X10821Y-10539D01*
X10814Y-10519D01*
X10814Y-10492D01*
X10827Y-10466D01*
X10841Y-10453D01*
X10867Y-10439D01*
X10880Y-10439D01*
X10933Y-10386D02*
X10933Y-10373D01*
X10940Y-10353D01*
X10973Y-10320D01*
X10993Y-10313D01*
X11006Y-10313D01*
X11026Y-10320D01*
X11040Y-10333D01*
X11053Y-10360D01*
X11053Y-10519D01*
X11139Y-10433D01*
X11166Y-10221D02*
X11258Y-10313D01*
X11079Y-10201D02*
X11146Y-10333D01*
X11232Y-10247D01*
G54D13*
X11209Y-12436D02*
X11209Y-12456D01*
X11188Y-12497D01*
X11168Y-12517D01*
X11128Y-12537D01*
X11087Y-12537D01*
X11057Y-12527D01*
X11007Y-12497D01*
X10976Y-12466D01*
X10946Y-12416D01*
X10936Y-12386D01*
X10936Y-12345D01*
X10956Y-12305D01*
X10976Y-12285D01*
X11017Y-12264D01*
X11037Y-12264D01*
X11118Y-12184D02*
X11118Y-12163D01*
X11128Y-12133D01*
X11178Y-12082D01*
X11209Y-12072D01*
X11229Y-12072D01*
X11259Y-12082D01*
X11279Y-12103D01*
X11299Y-12143D01*
X11299Y-12386D01*
X11431Y-12254D01*
X11411Y-11850D02*
X11310Y-11951D01*
X11401Y-12062D01*
X11401Y-12042D01*
X11411Y-12012D01*
X11461Y-11961D01*
X11491Y-11951D01*
X11512Y-11951D01*
X11542Y-11961D01*
X11592Y-12012D01*
X11603Y-12042D01*
X11603Y-12062D01*
X11592Y-12093D01*
X11542Y-12143D01*
X11512Y-12153D01*
X11491Y-12153D01*
G54D19*
X12127Y-7137D02*
X12117Y-7146D01*
X12089Y-7156D01*
X12071Y-7156D01*
X12042Y-7146D01*
X12024Y-7127D01*
X12014Y-7109D01*
X12005Y-7071D01*
X12005Y-7043D01*
X12014Y-7005D01*
X12024Y-6987D01*
X12042Y-6968D01*
X12071Y-6959D01*
X12089Y-6959D01*
X12117Y-6968D01*
X12127Y-6977D01*
X12202Y-6977D02*
X12211Y-6968D01*
X12230Y-6959D01*
X12277Y-6959D01*
X12296Y-6968D01*
X12305Y-6977D01*
X12314Y-6996D01*
X12314Y-7015D01*
X12305Y-7043D01*
X12192Y-7156D01*
X12314Y-7156D01*
X12483Y-6959D02*
X12446Y-6959D01*
X12427Y-6968D01*
X12418Y-6977D01*
X12399Y-7005D01*
X12389Y-7043D01*
X12389Y-7118D01*
X12399Y-7137D01*
X12408Y-7146D01*
X12427Y-7156D01*
X12465Y-7156D01*
X12483Y-7146D01*
X12493Y-7137D01*
X12502Y-7118D01*
X12502Y-7071D01*
X12493Y-7052D01*
X12483Y-7043D01*
X12465Y-7034D01*
X12427Y-7034D01*
X12408Y-7043D01*
X12399Y-7052D01*
X12389Y-7071D01*
X14332Y-11901D02*
X14322Y-11910D01*
X14294Y-11919D01*
X14275Y-11919D01*
X14247Y-11910D01*
X14228Y-11891D01*
X14219Y-11872D01*
X14210Y-11835D01*
X14210Y-11807D01*
X14219Y-11769D01*
X14228Y-11750D01*
X14247Y-11732D01*
X14275Y-11722D01*
X14294Y-11722D01*
X14322Y-11732D01*
X14332Y-11741D01*
X14407Y-11741D02*
X14416Y-11732D01*
X14435Y-11722D01*
X14482Y-11722D01*
X14500Y-11732D01*
X14510Y-11741D01*
X14519Y-11760D01*
X14519Y-11779D01*
X14510Y-11807D01*
X14397Y-11919D01*
X14519Y-11919D01*
X14585Y-11722D02*
X14716Y-11722D01*
X14632Y-11919D01*
X17284Y-11664D02*
X17275Y-11674D01*
X17247Y-11683D01*
X17228Y-11683D01*
X17200Y-11674D01*
X17181Y-11655D01*
X17172Y-11636D01*
X17162Y-11599D01*
X17162Y-11571D01*
X17172Y-11533D01*
X17181Y-11514D01*
X17200Y-11495D01*
X17228Y-11486D01*
X17247Y-11486D01*
X17275Y-11495D01*
X17284Y-11505D01*
X17350Y-11486D02*
X17472Y-11486D01*
X17406Y-11561D01*
X17434Y-11561D01*
X17453Y-11571D01*
X17463Y-11580D01*
X17472Y-11599D01*
X17472Y-11646D01*
X17463Y-11664D01*
X17453Y-11674D01*
X17434Y-11683D01*
X17378Y-11683D01*
X17359Y-11674D01*
X17350Y-11664D01*
X17594Y-11486D02*
X17613Y-11486D01*
X17631Y-11495D01*
X17641Y-11505D01*
X17650Y-11524D01*
X17660Y-11561D01*
X17660Y-11608D01*
X17650Y-11646D01*
X17641Y-11664D01*
X17631Y-11674D01*
X17613Y-11683D01*
X17594Y-11683D01*
X17575Y-11674D01*
X17566Y-11664D01*
X17556Y-11646D01*
X17547Y-11608D01*
X17547Y-11561D01*
X17556Y-11524D01*
X17566Y-11505D01*
X17575Y-11495D01*
X17594Y-11486D01*
G54D12*
X17876Y-12590D02*
X17876Y-12433D01*
X17913Y-12433D01*
X17936Y-12441D01*
X17951Y-12456D01*
X17958Y-12471D01*
X17965Y-12500D01*
X17965Y-12523D01*
X17958Y-12553D01*
X17951Y-12568D01*
X17936Y-12583D01*
X17913Y-12590D01*
X17876Y-12590D01*
X18115Y-12590D02*
X18025Y-12590D01*
X18070Y-12590D02*
X18070Y-12433D01*
X18055Y-12456D01*
X18040Y-12471D01*
X18025Y-12478D01*
G54D10*
X10358Y-4685D02*
X10358Y-4292D01*
X10508Y-4292D01*
X10546Y-4311D01*
X10564Y-4329D01*
X10583Y-4367D01*
X10583Y-4423D01*
X10564Y-4461D01*
X10546Y-4479D01*
X10508Y-4498D01*
X10358Y-4498D01*
X10958Y-4685D02*
X10733Y-4685D01*
X10845Y-4685D02*
X10845Y-4292D01*
X10808Y-4348D01*
X10770Y-4386D01*
X10733Y-4404D01*
X11314Y-4292D02*
X11127Y-4292D01*
X11108Y-4479D01*
X11127Y-4461D01*
X11164Y-4442D01*
X11258Y-4442D01*
X11295Y-4461D01*
X11314Y-4479D01*
X11333Y-4517D01*
X11333Y-4610D01*
X11314Y-4648D01*
X11295Y-4667D01*
X11258Y-4685D01*
X11164Y-4685D01*
X11127Y-4667D01*
X11108Y-4648D01*
X10358Y-2559D02*
X10358Y-2166D01*
X10508Y-2166D01*
X10546Y-2185D01*
X10564Y-2203D01*
X10583Y-2241D01*
X10583Y-2297D01*
X10564Y-2335D01*
X10546Y-2353D01*
X10508Y-2372D01*
X10358Y-2372D01*
X10958Y-2559D02*
X10733Y-2559D01*
X10845Y-2559D02*
X10845Y-2166D01*
X10808Y-2222D01*
X10770Y-2260D01*
X10733Y-2278D01*
X11295Y-2166D02*
X11220Y-2166D01*
X11183Y-2185D01*
X11164Y-2203D01*
X11127Y-2260D01*
X11108Y-2335D01*
X11108Y-2485D01*
X11127Y-2522D01*
X11145Y-2541D01*
X11183Y-2559D01*
X11258Y-2559D01*
X11295Y-2541D01*
X11314Y-2522D01*
X11333Y-2485D01*
X11333Y-2391D01*
X11314Y-2353D01*
X11295Y-2335D01*
X11258Y-2316D01*
X11183Y-2316D01*
X11145Y-2335D01*
X11127Y-2353D01*
X11108Y-2391D01*
G54D19*
X11709Y-8888D02*
X11643Y-8794D01*
X11596Y-8888D02*
X11596Y-8691D01*
X11671Y-8691D01*
X11690Y-8700D01*
X11699Y-8710D01*
X11709Y-8728D01*
X11709Y-8756D01*
X11699Y-8775D01*
X11690Y-8785D01*
X11671Y-8794D01*
X11596Y-8794D01*
X11784Y-8710D02*
X11793Y-8700D01*
X11812Y-8691D01*
X11859Y-8691D01*
X11878Y-8700D01*
X11887Y-8710D01*
X11896Y-8728D01*
X11896Y-8747D01*
X11887Y-8775D01*
X11774Y-8888D01*
X11896Y-8888D01*
X3441Y-2274D02*
X3375Y-2180D01*
X3329Y-2274D02*
X3329Y-2077D01*
X3404Y-2077D01*
X3422Y-2086D01*
X3432Y-2095D01*
X3441Y-2114D01*
X3441Y-2142D01*
X3432Y-2161D01*
X3422Y-2170D01*
X3404Y-2180D01*
X3329Y-2180D01*
X3507Y-2077D02*
X3629Y-2077D01*
X3563Y-2152D01*
X3591Y-2152D01*
X3610Y-2161D01*
X3619Y-2170D01*
X3629Y-2189D01*
X3629Y-2236D01*
X3619Y-2255D01*
X3610Y-2264D01*
X3591Y-2274D01*
X3535Y-2274D01*
X3516Y-2264D01*
X3507Y-2255D01*
X3126Y-1565D02*
X3060Y-1471D01*
X3014Y-1565D02*
X3014Y-1368D01*
X3089Y-1368D01*
X3107Y-1377D01*
X3117Y-1387D01*
X3126Y-1406D01*
X3126Y-1434D01*
X3117Y-1452D01*
X3107Y-1462D01*
X3089Y-1471D01*
X3014Y-1471D01*
X3295Y-1434D02*
X3295Y-1565D01*
X3248Y-1359D02*
X3201Y-1499D01*
X3323Y-1499D01*
X3402Y-817D02*
X3336Y-723D01*
X3289Y-817D02*
X3289Y-620D01*
X3364Y-620D01*
X3383Y-629D01*
X3392Y-639D01*
X3402Y-657D01*
X3402Y-686D01*
X3392Y-704D01*
X3383Y-714D01*
X3364Y-723D01*
X3289Y-723D01*
X3580Y-620D02*
X3486Y-620D01*
X3477Y-714D01*
X3486Y-704D01*
X3505Y-695D01*
X3552Y-695D01*
X3571Y-704D01*
X3580Y-714D01*
X3589Y-733D01*
X3589Y-779D01*
X3580Y-798D01*
X3571Y-808D01*
X3552Y-817D01*
X3505Y-817D01*
X3486Y-808D01*
X3477Y-798D01*
X13008Y-7156D02*
X12942Y-7062D01*
X12895Y-7156D02*
X12895Y-6959D01*
X12970Y-6959D01*
X12989Y-6968D01*
X12999Y-6977D01*
X13008Y-6996D01*
X13008Y-7024D01*
X12999Y-7043D01*
X12989Y-7052D01*
X12970Y-7062D01*
X12895Y-7062D01*
X13177Y-6959D02*
X13139Y-6959D01*
X13121Y-6968D01*
X13111Y-6977D01*
X13092Y-7005D01*
X13083Y-7043D01*
X13083Y-7118D01*
X13092Y-7137D01*
X13102Y-7146D01*
X13121Y-7156D01*
X13158Y-7156D01*
X13177Y-7146D01*
X13186Y-7137D01*
X13196Y-7118D01*
X13196Y-7071D01*
X13186Y-7052D01*
X13177Y-7043D01*
X13158Y-7034D01*
X13121Y-7034D01*
X13102Y-7043D01*
X13092Y-7052D01*
X13083Y-7071D01*
G54D10*
X17662Y-15591D02*
X17662Y-15910D01*
X17681Y-15947D01*
X17700Y-15966D01*
X17737Y-15985D01*
X17812Y-15985D01*
X17850Y-15966D01*
X17868Y-15947D01*
X17887Y-15910D01*
X17887Y-15591D01*
X18056Y-15628D02*
X18075Y-15610D01*
X18112Y-15591D01*
X18206Y-15591D01*
X18243Y-15610D01*
X18262Y-15628D01*
X18281Y-15666D01*
X18281Y-15703D01*
X18262Y-15760D01*
X18037Y-15985D01*
X18281Y-15985D01*
X13410Y-15709D02*
X13410Y-16028D01*
X13429Y-16065D01*
X13448Y-16084D01*
X13485Y-16103D01*
X13560Y-16103D01*
X13598Y-16084D01*
X13616Y-16065D01*
X13635Y-16028D01*
X13635Y-15709D01*
X13785Y-15709D02*
X14029Y-15709D01*
X13898Y-15859D01*
X13954Y-15859D01*
X13991Y-15878D01*
X14010Y-15897D01*
X14029Y-15934D01*
X14029Y-16028D01*
X14010Y-16065D01*
X13991Y-16084D01*
X13954Y-16103D01*
X13841Y-16103D01*
X13804Y-16084D01*
X13785Y-16065D01*
G54D19*
X18008Y-7471D02*
X17942Y-7377D01*
X17895Y-7471D02*
X17895Y-7274D01*
X17970Y-7274D01*
X17989Y-7283D01*
X17999Y-7292D01*
X18008Y-7311D01*
X18008Y-7339D01*
X17999Y-7358D01*
X17989Y-7367D01*
X17970Y-7377D01*
X17895Y-7377D01*
X18074Y-7274D02*
X18205Y-7274D01*
X18121Y-7471D01*
G54D10*
X7208Y-14607D02*
X7208Y-14213D01*
X7358Y-14213D01*
X7396Y-14232D01*
X7415Y-14251D01*
X7433Y-14288D01*
X7433Y-14344D01*
X7415Y-14382D01*
X7396Y-14401D01*
X7358Y-14419D01*
X7208Y-14419D01*
X7808Y-14607D02*
X7583Y-14607D01*
X7696Y-14607D02*
X7696Y-14213D01*
X7658Y-14269D01*
X7621Y-14307D01*
X7583Y-14326D01*
X7940Y-14213D02*
X8202Y-14213D01*
X8033Y-14607D01*
X5544Y-6511D02*
X5562Y-6530D01*
X5581Y-6586D01*
X5581Y-6624D01*
X5562Y-6680D01*
X5525Y-6718D01*
X5487Y-6736D01*
X5412Y-6755D01*
X5356Y-6755D01*
X5281Y-6736D01*
X5244Y-6718D01*
X5206Y-6680D01*
X5187Y-6624D01*
X5187Y-6586D01*
X5206Y-6530D01*
X5225Y-6511D01*
X5581Y-6343D02*
X5187Y-6343D01*
X5581Y-6118D01*
X5187Y-6118D01*
X5581Y-5724D02*
X5581Y-5949D01*
X5581Y-5837D02*
X5187Y-5837D01*
X5244Y-5874D01*
X5281Y-5912D01*
X5300Y-5949D01*
X2120Y-2559D02*
X2120Y-2166D01*
X2270Y-2166D01*
X2308Y-2185D01*
X2327Y-2203D01*
X2345Y-2241D01*
X2345Y-2297D01*
X2327Y-2335D01*
X2308Y-2353D01*
X2270Y-2372D01*
X2120Y-2372D01*
X2720Y-2559D02*
X2495Y-2559D01*
X2608Y-2559D02*
X2608Y-2166D01*
X2570Y-2222D01*
X2533Y-2260D01*
X2495Y-2278D01*
X1884Y-16182D02*
X1884Y-15788D01*
X2034Y-15788D01*
X2072Y-15807D01*
X2090Y-15825D01*
X2109Y-15863D01*
X2109Y-15919D01*
X2090Y-15957D01*
X2072Y-15975D01*
X2034Y-15994D01*
X1884Y-15994D01*
X2240Y-15788D02*
X2484Y-15788D01*
X2353Y-15938D01*
X2409Y-15938D01*
X2447Y-15957D01*
X2465Y-15975D01*
X2484Y-16013D01*
X2484Y-16107D01*
X2465Y-16144D01*
X2447Y-16163D01*
X2409Y-16182D01*
X2297Y-16182D01*
X2259Y-16163D01*
X2240Y-16144D01*
X5664Y-13859D02*
X5664Y-13465D01*
X5814Y-13465D01*
X5851Y-13484D01*
X5870Y-13502D01*
X5889Y-13540D01*
X5889Y-13596D01*
X5870Y-13634D01*
X5851Y-13652D01*
X5814Y-13671D01*
X5664Y-13671D01*
X6245Y-13465D02*
X6057Y-13465D01*
X6039Y-13652D01*
X6057Y-13634D01*
X6095Y-13615D01*
X6189Y-13615D01*
X6226Y-13634D01*
X6245Y-13652D01*
X6264Y-13690D01*
X6264Y-13784D01*
X6245Y-13821D01*
X6226Y-13840D01*
X6189Y-13859D01*
X6095Y-13859D01*
X6057Y-13840D01*
X6039Y-13821D01*
X5231Y-3701D02*
X5231Y-3308D01*
X5381Y-3308D01*
X5418Y-3326D01*
X5437Y-3345D01*
X5456Y-3383D01*
X5456Y-3439D01*
X5437Y-3476D01*
X5418Y-3495D01*
X5381Y-3514D01*
X5231Y-3514D01*
X5681Y-3476D02*
X5643Y-3458D01*
X5624Y-3439D01*
X5606Y-3401D01*
X5606Y-3383D01*
X5624Y-3345D01*
X5643Y-3326D01*
X5681Y-3308D01*
X5755Y-3308D01*
X5793Y-3326D01*
X5812Y-3345D01*
X5830Y-3383D01*
X5830Y-3401D01*
X5812Y-3439D01*
X5793Y-3458D01*
X5755Y-3476D01*
X5681Y-3476D01*
X5643Y-3495D01*
X5624Y-3514D01*
X5606Y-3551D01*
X5606Y-3626D01*
X5624Y-3664D01*
X5643Y-3682D01*
X5681Y-3701D01*
X5755Y-3701D01*
X5793Y-3682D01*
X5812Y-3664D01*
X5830Y-3626D01*
X5830Y-3551D01*
X5812Y-3514D01*
X5793Y-3495D01*
X5755Y-3476D01*
X1136Y-1772D02*
X1136Y-1378D01*
X1286Y-1378D01*
X1324Y-1397D01*
X1342Y-1416D01*
X1361Y-1453D01*
X1361Y-1510D01*
X1342Y-1547D01*
X1324Y-1566D01*
X1286Y-1585D01*
X1136Y-1585D01*
X1549Y-1772D02*
X1624Y-1772D01*
X1661Y-1753D01*
X1680Y-1735D01*
X1717Y-1678D01*
X1736Y-1603D01*
X1736Y-1453D01*
X1717Y-1416D01*
X1699Y-1397D01*
X1661Y-1378D01*
X1586Y-1378D01*
X1549Y-1397D01*
X1530Y-1416D01*
X1511Y-1453D01*
X1511Y-1547D01*
X1530Y-1585D01*
X1549Y-1603D01*
X1586Y-1622D01*
X1661Y-1622D01*
X1699Y-1603D01*
X1717Y-1585D01*
X1736Y-1547D01*
X4571Y-15985D02*
X4571Y-15591D01*
X4721Y-15591D01*
X4758Y-15610D01*
X4777Y-15628D01*
X4796Y-15666D01*
X4796Y-15722D01*
X4777Y-15760D01*
X4758Y-15778D01*
X4721Y-15797D01*
X4571Y-15797D01*
X5171Y-15985D02*
X4946Y-15985D01*
X5058Y-15985D02*
X5058Y-15591D01*
X5021Y-15647D01*
X4983Y-15685D01*
X4946Y-15703D01*
X5414Y-15591D02*
X5452Y-15591D01*
X5489Y-15610D01*
X5508Y-15628D01*
X5527Y-15666D01*
X5546Y-15741D01*
X5546Y-15835D01*
X5527Y-15910D01*
X5508Y-15947D01*
X5489Y-15966D01*
X5452Y-15985D01*
X5414Y-15985D01*
X5377Y-15966D01*
X5358Y-15947D01*
X5339Y-15910D01*
X5321Y-15835D01*
X5321Y-15741D01*
X5339Y-15666D01*
X5358Y-15628D01*
X5377Y-15610D01*
X5414Y-15591D01*
X9413Y-16260D02*
X9413Y-15867D01*
X9563Y-15867D01*
X9601Y-15885D01*
X9619Y-15904D01*
X9638Y-15942D01*
X9638Y-15998D01*
X9619Y-16035D01*
X9601Y-16054D01*
X9563Y-16073D01*
X9413Y-16073D01*
X10013Y-16260D02*
X9788Y-16260D01*
X9901Y-16260D02*
X9901Y-15867D01*
X9863Y-15923D01*
X9826Y-15960D01*
X9788Y-15979D01*
X10144Y-15867D02*
X10388Y-15867D01*
X10257Y-16017D01*
X10313Y-16017D01*
X10351Y-16035D01*
X10369Y-16054D01*
X10388Y-16092D01*
X10388Y-16185D01*
X10369Y-16223D01*
X10351Y-16242D01*
X10313Y-16260D01*
X10201Y-16260D01*
X10163Y-16242D01*
X10144Y-16223D01*
X9374Y-13189D02*
X9374Y-12796D01*
X9524Y-12796D01*
X9561Y-12814D01*
X9580Y-12833D01*
X9599Y-12871D01*
X9599Y-12927D01*
X9580Y-12964D01*
X9561Y-12983D01*
X9524Y-13002D01*
X9374Y-13002D01*
X9749Y-12833D02*
X9767Y-12814D01*
X9805Y-12796D01*
X9899Y-12796D01*
X9936Y-12814D01*
X9955Y-12833D01*
X9974Y-12871D01*
X9974Y-12908D01*
X9955Y-12964D01*
X9730Y-13189D01*
X9974Y-13189D01*
X10217Y-12796D02*
X10255Y-12796D01*
X10292Y-12814D01*
X10311Y-12833D01*
X10330Y-12871D01*
X10349Y-12946D01*
X10349Y-13039D01*
X10330Y-13114D01*
X10311Y-13152D01*
X10292Y-13171D01*
X10255Y-13189D01*
X10217Y-13189D01*
X10180Y-13171D01*
X10161Y-13152D01*
X10142Y-13114D01*
X10124Y-13039D01*
X10124Y-12946D01*
X10142Y-12871D01*
X10161Y-12833D01*
X10180Y-12814D01*
X10217Y-12796D01*
X6145Y-4252D02*
X6145Y-3859D01*
X6295Y-3859D01*
X6333Y-3877D01*
X6352Y-3896D01*
X6370Y-3934D01*
X6370Y-3990D01*
X6352Y-4027D01*
X6333Y-4046D01*
X6295Y-4065D01*
X6145Y-4065D01*
X6520Y-3896D02*
X6539Y-3877D01*
X6577Y-3859D01*
X6670Y-3859D01*
X6708Y-3877D01*
X6727Y-3896D01*
X6745Y-3934D01*
X6745Y-3971D01*
X6727Y-4027D01*
X6502Y-4252D01*
X6745Y-4252D01*
X6895Y-3896D02*
X6914Y-3877D01*
X6952Y-3859D01*
X7045Y-3859D01*
X7083Y-3877D01*
X7102Y-3896D01*
X7120Y-3934D01*
X7120Y-3971D01*
X7102Y-4027D01*
X6877Y-4252D01*
X7120Y-4252D01*
X6342Y-11260D02*
X6342Y-10867D01*
X6492Y-10867D01*
X6530Y-10885D01*
X6549Y-10904D01*
X6567Y-10942D01*
X6567Y-10998D01*
X6549Y-11035D01*
X6530Y-11054D01*
X6492Y-11073D01*
X6342Y-11073D01*
X6942Y-11260D02*
X6717Y-11260D01*
X6830Y-11260D02*
X6830Y-10867D01*
X6792Y-10923D01*
X6755Y-10960D01*
X6717Y-10979D01*
X7167Y-11035D02*
X7130Y-11017D01*
X7111Y-10998D01*
X7092Y-10960D01*
X7092Y-10942D01*
X7111Y-10904D01*
X7130Y-10885D01*
X7167Y-10867D01*
X7242Y-10867D01*
X7280Y-10885D01*
X7298Y-10904D01*
X7317Y-10942D01*
X7317Y-10960D01*
X7298Y-10998D01*
X7280Y-11017D01*
X7242Y-11035D01*
X7167Y-11035D01*
X7130Y-11054D01*
X7111Y-11073D01*
X7092Y-11110D01*
X7092Y-11185D01*
X7111Y-11223D01*
X7130Y-11242D01*
X7167Y-11260D01*
X7242Y-11260D01*
X7280Y-11242D01*
X7298Y-11223D01*
X7317Y-11185D01*
X7317Y-11110D01*
X7298Y-11073D01*
X7280Y-11054D01*
X7242Y-11035D01*
X6884Y-13032D02*
X6884Y-12638D01*
X7034Y-12638D01*
X7072Y-12657D01*
X7090Y-12676D01*
X7109Y-12713D01*
X7109Y-12769D01*
X7090Y-12807D01*
X7072Y-12826D01*
X7034Y-12844D01*
X6884Y-12844D01*
X7447Y-12638D02*
X7372Y-12638D01*
X7334Y-12657D01*
X7315Y-12676D01*
X7278Y-12732D01*
X7259Y-12807D01*
X7259Y-12957D01*
X7278Y-12994D01*
X7297Y-13013D01*
X7334Y-13032D01*
X7409Y-13032D01*
X7447Y-13013D01*
X7465Y-12994D01*
X7484Y-12957D01*
X7484Y-12863D01*
X7465Y-12826D01*
X7447Y-12807D01*
X7409Y-12788D01*
X7334Y-12788D01*
X7297Y-12807D01*
X7278Y-12826D01*
X7259Y-12863D01*
X10516Y-630D02*
X10516Y-237D01*
X10666Y-237D01*
X10703Y-255D01*
X10722Y-274D01*
X10741Y-312D01*
X10741Y-368D01*
X10722Y-405D01*
X10703Y-424D01*
X10666Y-443D01*
X10516Y-443D01*
X11115Y-630D02*
X10890Y-630D01*
X11003Y-630D02*
X11003Y-237D01*
X10965Y-293D01*
X10928Y-330D01*
X10890Y-349D01*
X11453Y-368D02*
X11453Y-630D01*
X11359Y-218D02*
X11265Y-499D01*
X11509Y-499D01*
X12563Y-12953D02*
X12563Y-12559D01*
X12713Y-12559D01*
X12750Y-12578D01*
X12769Y-12597D01*
X12788Y-12634D01*
X12788Y-12691D01*
X12769Y-12728D01*
X12750Y-12747D01*
X12713Y-12766D01*
X12563Y-12766D01*
X13163Y-12953D02*
X12938Y-12953D01*
X13050Y-12953D02*
X13050Y-12559D01*
X13013Y-12616D01*
X12975Y-12653D01*
X12938Y-12672D01*
X13350Y-12953D02*
X13425Y-12953D01*
X13463Y-12934D01*
X13481Y-12916D01*
X13519Y-12859D01*
X13538Y-12784D01*
X13538Y-12634D01*
X13519Y-12597D01*
X13500Y-12578D01*
X13463Y-12559D01*
X13388Y-12559D01*
X13350Y-12578D01*
X13331Y-12597D01*
X13313Y-12634D01*
X13313Y-12728D01*
X13331Y-12766D01*
X13350Y-12784D01*
X13388Y-12803D01*
X13463Y-12803D01*
X13500Y-12784D01*
X13519Y-12766D01*
X13538Y-12728D01*
X16460Y-8544D02*
X16460Y-8150D01*
X16610Y-8150D01*
X16648Y-8169D01*
X16667Y-8188D01*
X16685Y-8225D01*
X16685Y-8281D01*
X16667Y-8319D01*
X16648Y-8338D01*
X16610Y-8356D01*
X16460Y-8356D01*
X16835Y-8188D02*
X16854Y-8169D01*
X16892Y-8150D01*
X16985Y-8150D01*
X17023Y-8169D01*
X17042Y-8188D01*
X17060Y-8225D01*
X17060Y-8263D01*
X17042Y-8319D01*
X16817Y-8544D01*
X17060Y-8544D01*
X17417Y-8150D02*
X17229Y-8150D01*
X17210Y-8338D01*
X17229Y-8319D01*
X17267Y-8300D01*
X17360Y-8300D01*
X17398Y-8319D01*
X17417Y-8338D01*
X17435Y-8375D01*
X17435Y-8469D01*
X17417Y-8506D01*
X17398Y-8525D01*
X17360Y-8544D01*
X17267Y-8544D01*
X17229Y-8525D01*
X17210Y-8506D01*
X16854Y-4134D02*
X16854Y-3741D01*
X17004Y-3741D01*
X17042Y-3759D01*
X17060Y-3778D01*
X17079Y-3816D01*
X17079Y-3872D01*
X17060Y-3909D01*
X17042Y-3928D01*
X17004Y-3947D01*
X16854Y-3947D01*
X17229Y-3778D02*
X17248Y-3759D01*
X17285Y-3741D01*
X17379Y-3741D01*
X17417Y-3759D01*
X17435Y-3778D01*
X17454Y-3816D01*
X17454Y-3853D01*
X17435Y-3909D01*
X17210Y-4134D01*
X17454Y-4134D01*
X17791Y-3872D02*
X17791Y-4134D01*
X17698Y-3722D02*
X17604Y-4003D01*
X17848Y-4003D01*
X16854Y-3583D02*
X16854Y-3189D01*
X17004Y-3189D01*
X17042Y-3208D01*
X17060Y-3227D01*
X17079Y-3264D01*
X17079Y-3321D01*
X17060Y-3358D01*
X17042Y-3377D01*
X17004Y-3396D01*
X16854Y-3396D01*
X17229Y-3227D02*
X17248Y-3208D01*
X17285Y-3189D01*
X17379Y-3189D01*
X17417Y-3208D01*
X17435Y-3227D01*
X17454Y-3264D01*
X17454Y-3302D01*
X17435Y-3358D01*
X17210Y-3583D01*
X17454Y-3583D01*
X17585Y-3189D02*
X17829Y-3189D01*
X17698Y-3339D01*
X17754Y-3339D01*
X17791Y-3358D01*
X17810Y-3377D01*
X17829Y-3414D01*
X17829Y-3508D01*
X17810Y-3546D01*
X17791Y-3564D01*
X17754Y-3583D01*
X17642Y-3583D01*
X17604Y-3564D01*
X17585Y-3546D01*
M02*
