%FSLAX34Y34*%
G04 Gerber Fmt 3.4, Leading zero omitted, Abs format*
G04 (created by PCBNEW (2014-01-02 BZR 4600)-product) date Sun 26 Jan 2014 10:04:54 PM PST*
%MOIN*%
G01*
G70*
G90*
G04 APERTURE LIST*
%ADD10C,0.005906*%
%ADD11C,0.007874*%
%ADD12C,0.003900*%
%ADD13C,0.005000*%
%ADD14C,0.004300*%
G04 APERTURE END LIST*
G54D10*
G54D11*
X8355Y-789D02*
X8299Y-808D01*
X8205Y-808D01*
X8167Y-789D01*
X8149Y-770D01*
X8130Y-733D01*
X8130Y-695D01*
X8149Y-658D01*
X8167Y-639D01*
X8205Y-620D01*
X8280Y-601D01*
X8317Y-583D01*
X8336Y-564D01*
X8355Y-526D01*
X8355Y-489D01*
X8336Y-451D01*
X8317Y-433D01*
X8280Y-414D01*
X8186Y-414D01*
X8130Y-433D01*
X7961Y-808D02*
X7961Y-414D01*
X7867Y-414D01*
X7811Y-433D01*
X7774Y-470D01*
X7755Y-508D01*
X7736Y-583D01*
X7736Y-639D01*
X7755Y-714D01*
X7774Y-751D01*
X7811Y-789D01*
X7867Y-808D01*
X7961Y-808D01*
X7342Y-808D02*
X7474Y-620D01*
X7567Y-808D02*
X7567Y-414D01*
X7417Y-414D01*
X7380Y-433D01*
X7361Y-451D01*
X7342Y-489D01*
X7342Y-545D01*
X7361Y-583D01*
X7380Y-601D01*
X7417Y-620D01*
X7567Y-620D01*
X6649Y-808D02*
X6780Y-620D01*
X6874Y-808D02*
X6874Y-414D01*
X6724Y-414D01*
X6686Y-433D01*
X6668Y-451D01*
X6649Y-489D01*
X6649Y-545D01*
X6668Y-583D01*
X6686Y-601D01*
X6724Y-620D01*
X6874Y-620D01*
X6330Y-789D02*
X6368Y-808D01*
X6443Y-808D01*
X6480Y-789D01*
X6499Y-751D01*
X6499Y-601D01*
X6480Y-564D01*
X6443Y-545D01*
X6368Y-545D01*
X6330Y-564D01*
X6311Y-601D01*
X6311Y-639D01*
X6499Y-676D01*
X6180Y-545D02*
X6086Y-808D01*
X5993Y-545D01*
X5468Y-414D02*
X5430Y-414D01*
X5393Y-433D01*
X5374Y-451D01*
X5355Y-489D01*
X5336Y-564D01*
X5336Y-658D01*
X5355Y-733D01*
X5374Y-770D01*
X5393Y-789D01*
X5430Y-808D01*
X5468Y-808D01*
X5505Y-789D01*
X5524Y-770D01*
X5543Y-733D01*
X5561Y-658D01*
X5561Y-564D01*
X5543Y-489D01*
X5524Y-451D01*
X5505Y-433D01*
X5468Y-414D01*
X5168Y-770D02*
X5149Y-789D01*
X5168Y-808D01*
X5187Y-789D01*
X5168Y-770D01*
X5168Y-808D01*
X4962Y-808D02*
X4887Y-808D01*
X4849Y-789D01*
X4830Y-770D01*
X4793Y-714D01*
X4774Y-639D01*
X4774Y-489D01*
X4793Y-451D01*
X4812Y-433D01*
X4849Y-414D01*
X4924Y-414D01*
X4962Y-433D01*
X4980Y-451D01*
X4999Y-489D01*
X4999Y-583D01*
X4980Y-620D01*
X4962Y-639D01*
X4924Y-658D01*
X4849Y-658D01*
X4812Y-639D01*
X4793Y-620D01*
X4774Y-583D01*
X8533Y-1400D02*
X8552Y-1419D01*
X8608Y-1437D01*
X8645Y-1437D01*
X8702Y-1419D01*
X8739Y-1381D01*
X8758Y-1344D01*
X8777Y-1269D01*
X8777Y-1212D01*
X8758Y-1137D01*
X8739Y-1100D01*
X8702Y-1062D01*
X8645Y-1044D01*
X8608Y-1044D01*
X8552Y-1062D01*
X8533Y-1081D01*
X8308Y-1437D02*
X8345Y-1419D01*
X8364Y-1400D01*
X8383Y-1362D01*
X8383Y-1250D01*
X8364Y-1212D01*
X8345Y-1194D01*
X8308Y-1175D01*
X8252Y-1175D01*
X8214Y-1194D01*
X8196Y-1212D01*
X8177Y-1250D01*
X8177Y-1362D01*
X8196Y-1400D01*
X8214Y-1419D01*
X8252Y-1437D01*
X8308Y-1437D01*
X8008Y-1175D02*
X8008Y-1569D01*
X8008Y-1194D02*
X7971Y-1175D01*
X7896Y-1175D01*
X7858Y-1194D01*
X7839Y-1212D01*
X7821Y-1250D01*
X7821Y-1362D01*
X7839Y-1400D01*
X7858Y-1419D01*
X7896Y-1437D01*
X7971Y-1437D01*
X8008Y-1419D01*
X7689Y-1175D02*
X7596Y-1437D01*
X7502Y-1175D02*
X7596Y-1437D01*
X7633Y-1531D01*
X7652Y-1550D01*
X7689Y-1569D01*
X7352Y-1437D02*
X7352Y-1175D01*
X7352Y-1250D02*
X7333Y-1212D01*
X7314Y-1194D01*
X7277Y-1175D01*
X7239Y-1175D01*
X7108Y-1437D02*
X7108Y-1175D01*
X7108Y-1044D02*
X7127Y-1062D01*
X7108Y-1081D01*
X7089Y-1062D01*
X7108Y-1044D01*
X7108Y-1081D01*
X6752Y-1175D02*
X6752Y-1494D01*
X6771Y-1531D01*
X6789Y-1550D01*
X6827Y-1569D01*
X6883Y-1569D01*
X6921Y-1550D01*
X6752Y-1419D02*
X6789Y-1437D01*
X6864Y-1437D01*
X6902Y-1419D01*
X6921Y-1400D01*
X6939Y-1362D01*
X6939Y-1250D01*
X6921Y-1212D01*
X6902Y-1194D01*
X6864Y-1175D01*
X6789Y-1175D01*
X6752Y-1194D01*
X6564Y-1437D02*
X6564Y-1044D01*
X6396Y-1437D02*
X6396Y-1231D01*
X6414Y-1194D01*
X6452Y-1175D01*
X6508Y-1175D01*
X6546Y-1194D01*
X6564Y-1212D01*
X6264Y-1175D02*
X6115Y-1175D01*
X6208Y-1044D02*
X6208Y-1381D01*
X6190Y-1419D01*
X6152Y-1437D01*
X6115Y-1437D01*
X5702Y-1081D02*
X5683Y-1062D01*
X5646Y-1044D01*
X5552Y-1044D01*
X5515Y-1062D01*
X5496Y-1081D01*
X5477Y-1119D01*
X5477Y-1156D01*
X5496Y-1212D01*
X5721Y-1437D01*
X5477Y-1437D01*
X5233Y-1044D02*
X5196Y-1044D01*
X5158Y-1062D01*
X5140Y-1081D01*
X5121Y-1119D01*
X5102Y-1194D01*
X5102Y-1287D01*
X5121Y-1362D01*
X5140Y-1400D01*
X5158Y-1419D01*
X5196Y-1437D01*
X5233Y-1437D01*
X5271Y-1419D01*
X5290Y-1400D01*
X5308Y-1362D01*
X5327Y-1287D01*
X5327Y-1194D01*
X5308Y-1119D01*
X5290Y-1081D01*
X5271Y-1062D01*
X5233Y-1044D01*
X4727Y-1437D02*
X4952Y-1437D01*
X4840Y-1437D02*
X4840Y-1044D01*
X4877Y-1100D01*
X4915Y-1137D01*
X4952Y-1156D01*
X4390Y-1175D02*
X4390Y-1437D01*
X4483Y-1025D02*
X4577Y-1306D01*
X4333Y-1306D01*
X8730Y-2049D02*
X8674Y-2067D01*
X8580Y-2067D01*
X8542Y-2049D01*
X8524Y-2030D01*
X8505Y-1992D01*
X8505Y-1955D01*
X8524Y-1917D01*
X8542Y-1899D01*
X8580Y-1880D01*
X8655Y-1861D01*
X8692Y-1842D01*
X8711Y-1824D01*
X8730Y-1786D01*
X8730Y-1749D01*
X8711Y-1711D01*
X8692Y-1692D01*
X8655Y-1674D01*
X8561Y-1674D01*
X8505Y-1692D01*
X8280Y-2067D02*
X8317Y-2049D01*
X8336Y-2030D01*
X8355Y-1992D01*
X8355Y-1880D01*
X8336Y-1842D01*
X8317Y-1824D01*
X8280Y-1805D01*
X8224Y-1805D01*
X8186Y-1824D01*
X8167Y-1842D01*
X8149Y-1880D01*
X8149Y-1992D01*
X8167Y-2030D01*
X8186Y-2049D01*
X8224Y-2067D01*
X8280Y-2067D01*
X8036Y-1805D02*
X7886Y-1805D01*
X7980Y-2067D02*
X7980Y-1730D01*
X7961Y-1692D01*
X7924Y-1674D01*
X7886Y-1674D01*
X7811Y-1805D02*
X7661Y-1805D01*
X7755Y-1674D02*
X7755Y-2011D01*
X7736Y-2049D01*
X7699Y-2067D01*
X7661Y-2067D01*
X7380Y-2049D02*
X7417Y-2067D01*
X7492Y-2067D01*
X7530Y-2049D01*
X7549Y-2011D01*
X7549Y-1861D01*
X7530Y-1824D01*
X7492Y-1805D01*
X7417Y-1805D01*
X7380Y-1824D01*
X7361Y-1861D01*
X7361Y-1899D01*
X7549Y-1936D01*
X7193Y-2067D02*
X7193Y-1805D01*
X7193Y-1880D02*
X7174Y-1842D01*
X7155Y-1824D01*
X7118Y-1805D01*
X7080Y-1805D01*
X6949Y-2067D02*
X6949Y-1674D01*
X6949Y-1861D02*
X6724Y-1861D01*
X6724Y-2067D02*
X6724Y-1674D01*
X6368Y-2067D02*
X6368Y-1861D01*
X6386Y-1824D01*
X6424Y-1805D01*
X6499Y-1805D01*
X6536Y-1824D01*
X6368Y-2049D02*
X6405Y-2067D01*
X6499Y-2067D01*
X6536Y-2049D01*
X6555Y-2011D01*
X6555Y-1974D01*
X6536Y-1936D01*
X6499Y-1917D01*
X6405Y-1917D01*
X6368Y-1899D01*
X6180Y-2067D02*
X6180Y-1805D01*
X6180Y-1880D02*
X6161Y-1842D01*
X6143Y-1824D01*
X6105Y-1805D01*
X6068Y-1805D01*
X5768Y-2067D02*
X5768Y-1674D01*
X5768Y-2049D02*
X5805Y-2067D01*
X5880Y-2067D01*
X5918Y-2049D01*
X5936Y-2030D01*
X5955Y-1992D01*
X5955Y-1880D01*
X5936Y-1842D01*
X5918Y-1824D01*
X5880Y-1805D01*
X5805Y-1805D01*
X5768Y-1824D01*
X5618Y-1805D02*
X5543Y-2067D01*
X5468Y-1880D01*
X5393Y-2067D01*
X5318Y-1805D01*
X4999Y-2067D02*
X4999Y-1861D01*
X5018Y-1824D01*
X5055Y-1805D01*
X5130Y-1805D01*
X5168Y-1824D01*
X4999Y-2049D02*
X5037Y-2067D01*
X5130Y-2067D01*
X5168Y-2049D01*
X5187Y-2011D01*
X5187Y-1974D01*
X5168Y-1936D01*
X5130Y-1917D01*
X5037Y-1917D01*
X4999Y-1899D01*
X4812Y-2067D02*
X4812Y-1805D01*
X4812Y-1880D02*
X4793Y-1842D01*
X4774Y-1824D01*
X4737Y-1805D01*
X4699Y-1805D01*
X4418Y-2049D02*
X4455Y-2067D01*
X4530Y-2067D01*
X4568Y-2049D01*
X4587Y-2011D01*
X4587Y-1861D01*
X4568Y-1824D01*
X4530Y-1805D01*
X4455Y-1805D01*
X4418Y-1824D01*
X4399Y-1861D01*
X4399Y-1899D01*
X4587Y-1936D01*
G54D12*
X10069Y-9286D02*
G75*
G03X10069Y-9286I-50J0D01*
G74*
G01*
X10469Y-9286D02*
X10069Y-9286D01*
X10069Y-9286D02*
X10069Y-9886D01*
X10069Y-9886D02*
X10469Y-9886D01*
X10869Y-9886D02*
X11269Y-9886D01*
X11269Y-9886D02*
X11269Y-9286D01*
X11269Y-9286D02*
X10869Y-9286D01*
X8342Y-6653D02*
G75*
G03X8342Y-6653I-50J0D01*
G74*
G01*
X8292Y-7103D02*
X8292Y-6703D01*
X8292Y-6703D02*
X7692Y-6703D01*
X7692Y-6703D02*
X7692Y-7103D01*
X7692Y-7503D02*
X7692Y-7903D01*
X7692Y-7903D02*
X8292Y-7903D01*
X8292Y-7903D02*
X8292Y-7503D01*
X6570Y-6653D02*
G75*
G03X6570Y-6653I-50J0D01*
G74*
G01*
X6520Y-7103D02*
X6520Y-6703D01*
X6520Y-6703D02*
X5920Y-6703D01*
X5920Y-6703D02*
X5920Y-7103D01*
X5920Y-7503D02*
X5920Y-7903D01*
X5920Y-7903D02*
X6520Y-7903D01*
X6520Y-7903D02*
X6520Y-7503D01*
X5970Y-10709D02*
G75*
G03X5970Y-10709I-50J0D01*
G74*
G01*
X5920Y-10259D02*
X5920Y-10659D01*
X5920Y-10659D02*
X6520Y-10659D01*
X6520Y-10659D02*
X6520Y-10259D01*
X6520Y-9859D02*
X6520Y-9459D01*
X6520Y-9459D02*
X5920Y-9459D01*
X5920Y-9459D02*
X5920Y-9859D01*
X9873Y-9886D02*
G75*
G03X9873Y-9886I-50J0D01*
G74*
G01*
X9373Y-9886D02*
X9773Y-9886D01*
X9773Y-9886D02*
X9773Y-9286D01*
X9773Y-9286D02*
X9373Y-9286D01*
X8973Y-9286D02*
X8573Y-9286D01*
X8573Y-9286D02*
X8573Y-9886D01*
X8573Y-9886D02*
X8973Y-9886D01*
X7624Y-6378D02*
G75*
G03X7624Y-6378I-50J0D01*
G74*
G01*
X7574Y-5928D02*
X7574Y-6328D01*
X7574Y-6328D02*
X8174Y-6328D01*
X8174Y-6328D02*
X8174Y-5928D01*
X8174Y-5528D02*
X8174Y-5128D01*
X8174Y-5128D02*
X7574Y-5128D01*
X7574Y-5128D02*
X7574Y-5528D01*
X5694Y-6417D02*
G75*
G03X5694Y-6417I-50J0D01*
G74*
G01*
X5644Y-5967D02*
X5644Y-6367D01*
X5644Y-6367D02*
X6244Y-6367D01*
X6244Y-6367D02*
X6244Y-5967D01*
X6244Y-5567D02*
X6244Y-5167D01*
X6244Y-5167D02*
X5644Y-5167D01*
X5644Y-5167D02*
X5644Y-5567D01*
X6836Y-10709D02*
G75*
G03X6836Y-10709I-50J0D01*
G74*
G01*
X6786Y-10259D02*
X6786Y-10659D01*
X6786Y-10659D02*
X7386Y-10659D01*
X7386Y-10659D02*
X7386Y-10259D01*
X7386Y-9859D02*
X7386Y-9459D01*
X7386Y-9459D02*
X6786Y-9459D01*
X6786Y-9459D02*
X6786Y-9859D01*
X9873Y-9020D02*
G75*
G03X9873Y-9020I-50J0D01*
G74*
G01*
X9373Y-9020D02*
X9773Y-9020D01*
X9773Y-9020D02*
X9773Y-8420D01*
X9773Y-8420D02*
X9373Y-8420D01*
X8973Y-8420D02*
X8573Y-8420D01*
X8573Y-8420D02*
X8573Y-9020D01*
X8573Y-9020D02*
X8973Y-9020D01*
X9873Y-8154D02*
G75*
G03X9873Y-8154I-50J0D01*
G74*
G01*
X9373Y-8154D02*
X9773Y-8154D01*
X9773Y-8154D02*
X9773Y-7554D01*
X9773Y-7554D02*
X9373Y-7554D01*
X8973Y-7554D02*
X8573Y-7554D01*
X8573Y-7554D02*
X8573Y-8154D01*
X8573Y-8154D02*
X8973Y-8154D01*
X7436Y-6653D02*
G75*
G03X7436Y-6653I-50J0D01*
G74*
G01*
X7386Y-7103D02*
X7386Y-6703D01*
X7386Y-6703D02*
X6786Y-6703D01*
X6786Y-6703D02*
X6786Y-7103D01*
X6786Y-7503D02*
X6786Y-7903D01*
X6786Y-7903D02*
X7386Y-7903D01*
X7386Y-7903D02*
X7386Y-7503D01*
X10108Y-8558D02*
G75*
G03X10108Y-8558I-50J0D01*
G74*
G01*
X10508Y-8558D02*
X10108Y-8558D01*
X10108Y-8558D02*
X10108Y-9158D01*
X10108Y-9158D02*
X10508Y-9158D01*
X10908Y-9158D02*
X11308Y-9158D01*
X11308Y-9158D02*
X11308Y-8558D01*
X11308Y-8558D02*
X10908Y-8558D01*
X10108Y-7790D02*
G75*
G03X10108Y-7790I-50J0D01*
G74*
G01*
X10508Y-7790D02*
X10108Y-7790D01*
X10108Y-7790D02*
X10108Y-8390D01*
X10108Y-8390D02*
X10508Y-8390D01*
X10908Y-8390D02*
X11308Y-8390D01*
X11308Y-8390D02*
X11308Y-7790D01*
X11308Y-7790D02*
X10908Y-7790D01*
X6521Y-6417D02*
G75*
G03X6521Y-6417I-50J0D01*
G74*
G01*
X6471Y-5967D02*
X6471Y-6367D01*
X6471Y-6367D02*
X7071Y-6367D01*
X7071Y-6367D02*
X7071Y-5967D01*
X7071Y-5567D02*
X7071Y-5167D01*
X7071Y-5167D02*
X6471Y-5167D01*
X6471Y-5167D02*
X6471Y-5567D01*
X14454Y-15945D02*
G75*
G03X14454Y-15945I-50J0D01*
G74*
G01*
X14404Y-15495D02*
X14404Y-15895D01*
X14404Y-15895D02*
X15004Y-15895D01*
X15004Y-15895D02*
X15004Y-15495D01*
X15004Y-15095D02*
X15004Y-14695D01*
X15004Y-14695D02*
X14404Y-14695D01*
X14404Y-14695D02*
X14404Y-15095D01*
X10458Y-15945D02*
G75*
G03X10458Y-15945I-50J0D01*
G74*
G01*
X10408Y-15495D02*
X10408Y-15895D01*
X10408Y-15895D02*
X11008Y-15895D01*
X11008Y-15895D02*
X11008Y-15495D01*
X11008Y-15095D02*
X11008Y-14695D01*
X11008Y-14695D02*
X10408Y-14695D01*
X10408Y-14695D02*
X10408Y-15095D01*
X15301Y-15945D02*
G75*
G03X15301Y-15945I-50J0D01*
G74*
G01*
X15251Y-15495D02*
X15251Y-15895D01*
X15251Y-15895D02*
X15851Y-15895D01*
X15851Y-15895D02*
X15851Y-15495D01*
X15851Y-15095D02*
X15851Y-14695D01*
X15851Y-14695D02*
X15251Y-14695D01*
X15251Y-14695D02*
X15251Y-15095D01*
X11285Y-15945D02*
G75*
G03X11285Y-15945I-50J0D01*
G74*
G01*
X11235Y-15495D02*
X11235Y-15895D01*
X11235Y-15895D02*
X11835Y-15895D01*
X11835Y-15895D02*
X11835Y-15495D01*
X11835Y-15095D02*
X11835Y-14695D01*
X11835Y-14695D02*
X11235Y-14695D01*
X11235Y-14695D02*
X11235Y-15095D01*
G54D13*
X16334Y-13073D02*
X16434Y-13073D01*
X16434Y-13073D02*
X16434Y-13973D01*
X16434Y-13973D02*
X16334Y-13973D01*
X16334Y-13073D02*
X16334Y-13973D01*
X16334Y-13973D02*
X15684Y-13973D01*
X14984Y-13073D02*
X14334Y-13073D01*
X14334Y-13073D02*
X14334Y-13973D01*
X14334Y-13973D02*
X14984Y-13973D01*
X15684Y-13073D02*
X16334Y-13073D01*
X12338Y-13073D02*
X12438Y-13073D01*
X12438Y-13073D02*
X12438Y-13973D01*
X12438Y-13973D02*
X12338Y-13973D01*
X12338Y-13073D02*
X12338Y-13973D01*
X12338Y-13973D02*
X11688Y-13973D01*
X10988Y-13073D02*
X10338Y-13073D01*
X10338Y-13073D02*
X10338Y-13973D01*
X10338Y-13973D02*
X10988Y-13973D01*
X11688Y-13073D02*
X12338Y-13073D01*
G54D12*
X10393Y-10135D02*
G75*
G03X10393Y-10135I-50J0D01*
G74*
G01*
X10661Y-10453D02*
X10378Y-10170D01*
X10378Y-10170D02*
X9954Y-10594D01*
X9954Y-10594D02*
X10236Y-10877D01*
X10519Y-11160D02*
X10802Y-11443D01*
X10802Y-11443D02*
X11226Y-11019D01*
X11226Y-11019D02*
X10944Y-10736D01*
X9645Y-10883D02*
G75*
G03X9645Y-10883I-50J0D01*
G74*
G01*
X9913Y-11201D02*
X9630Y-10918D01*
X9630Y-10918D02*
X9206Y-11342D01*
X9206Y-11342D02*
X9488Y-11625D01*
X9771Y-11908D02*
X10054Y-12191D01*
X10054Y-12191D02*
X10478Y-11767D01*
X10478Y-11767D02*
X10196Y-11484D01*
X15562Y-12681D02*
G75*
G03X15562Y-12681I-50J0D01*
G74*
G01*
X15062Y-12681D02*
X15462Y-12681D01*
X15462Y-12681D02*
X15462Y-12081D01*
X15462Y-12081D02*
X15062Y-12081D01*
X14662Y-12081D02*
X14262Y-12081D01*
X14262Y-12081D02*
X14262Y-12681D01*
X14262Y-12681D02*
X14662Y-12681D01*
X16624Y-13066D02*
G75*
G03X16624Y-13066I-50J0D01*
G74*
G01*
X17024Y-13066D02*
X16624Y-13066D01*
X16624Y-13066D02*
X16624Y-13666D01*
X16624Y-13666D02*
X17024Y-13666D01*
X17424Y-13666D02*
X17824Y-13666D01*
X17824Y-13666D02*
X17824Y-13066D01*
X17824Y-13066D02*
X17424Y-13066D01*
X16806Y-14074D02*
G75*
G03X16806Y-14074I-50J0D01*
G74*
G01*
X16756Y-14524D02*
X16756Y-14124D01*
X16756Y-14124D02*
X16156Y-14124D01*
X16156Y-14124D02*
X16156Y-14524D01*
X16156Y-14924D02*
X16156Y-15324D01*
X16156Y-15324D02*
X16756Y-15324D01*
X16756Y-15324D02*
X16756Y-14924D01*
X12712Y-14015D02*
G75*
G03X12712Y-14015I-50J0D01*
G74*
G01*
X12662Y-14465D02*
X12662Y-14065D01*
X12662Y-14065D02*
X12062Y-14065D01*
X12062Y-14065D02*
X12062Y-14465D01*
X12062Y-14865D02*
X12062Y-15265D01*
X12062Y-15265D02*
X12662Y-15265D01*
X12662Y-15265D02*
X12662Y-14865D01*
X7598Y-10379D02*
G75*
G03X7598Y-10379I-50J0D01*
G74*
G01*
X7998Y-10379D02*
X7598Y-10379D01*
X7598Y-10379D02*
X7598Y-10979D01*
X7598Y-10979D02*
X7998Y-10979D01*
X8398Y-10979D02*
X8798Y-10979D01*
X8798Y-10979D02*
X8798Y-10379D01*
X8798Y-10379D02*
X8398Y-10379D01*
G54D14*
X11499Y-9656D02*
X11508Y-9666D01*
X11536Y-9675D01*
X11555Y-9675D01*
X11583Y-9666D01*
X11602Y-9647D01*
X11611Y-9628D01*
X11621Y-9591D01*
X11621Y-9563D01*
X11611Y-9525D01*
X11602Y-9506D01*
X11583Y-9488D01*
X11555Y-9478D01*
X11536Y-9478D01*
X11508Y-9488D01*
X11499Y-9497D01*
X11311Y-9675D02*
X11424Y-9675D01*
X11368Y-9675D02*
X11368Y-9478D01*
X11386Y-9506D01*
X11405Y-9525D01*
X11424Y-9535D01*
X8623Y-6758D02*
X8632Y-6749D01*
X8642Y-6720D01*
X8642Y-6702D01*
X8632Y-6674D01*
X8614Y-6655D01*
X8595Y-6645D01*
X8557Y-6636D01*
X8529Y-6636D01*
X8492Y-6645D01*
X8473Y-6655D01*
X8454Y-6674D01*
X8445Y-6702D01*
X8445Y-6720D01*
X8454Y-6749D01*
X8464Y-6758D01*
X8464Y-6833D02*
X8454Y-6842D01*
X8445Y-6861D01*
X8445Y-6908D01*
X8454Y-6927D01*
X8464Y-6936D01*
X8482Y-6946D01*
X8501Y-6946D01*
X8529Y-6936D01*
X8642Y-6824D01*
X8642Y-6946D01*
X5749Y-7230D02*
X5758Y-7221D01*
X5768Y-7193D01*
X5768Y-7174D01*
X5758Y-7146D01*
X5740Y-7127D01*
X5721Y-7118D01*
X5683Y-7108D01*
X5655Y-7108D01*
X5618Y-7118D01*
X5599Y-7127D01*
X5580Y-7146D01*
X5571Y-7174D01*
X5571Y-7193D01*
X5580Y-7221D01*
X5590Y-7230D01*
X5571Y-7296D02*
X5571Y-7418D01*
X5646Y-7352D01*
X5646Y-7381D01*
X5655Y-7399D01*
X5665Y-7409D01*
X5683Y-7418D01*
X5730Y-7418D01*
X5749Y-7409D01*
X5758Y-7399D01*
X5768Y-7381D01*
X5768Y-7324D01*
X5758Y-7305D01*
X5749Y-7296D01*
X5749Y-9908D02*
X5758Y-9898D01*
X5768Y-9870D01*
X5768Y-9851D01*
X5758Y-9823D01*
X5740Y-9804D01*
X5721Y-9795D01*
X5683Y-9786D01*
X5655Y-9786D01*
X5618Y-9795D01*
X5599Y-9804D01*
X5580Y-9823D01*
X5571Y-9851D01*
X5571Y-9870D01*
X5580Y-9898D01*
X5590Y-9908D01*
X5636Y-10076D02*
X5768Y-10076D01*
X5561Y-10030D02*
X5702Y-9983D01*
X5702Y-10105D01*
X8349Y-9538D02*
X8359Y-9548D01*
X8387Y-9557D01*
X8406Y-9557D01*
X8434Y-9548D01*
X8452Y-9529D01*
X8462Y-9510D01*
X8471Y-9473D01*
X8471Y-9445D01*
X8462Y-9407D01*
X8452Y-9388D01*
X8434Y-9370D01*
X8406Y-9360D01*
X8387Y-9360D01*
X8359Y-9370D01*
X8349Y-9379D01*
X8171Y-9360D02*
X8265Y-9360D01*
X8274Y-9454D01*
X8265Y-9445D01*
X8246Y-9435D01*
X8199Y-9435D01*
X8180Y-9445D01*
X8171Y-9454D01*
X8162Y-9473D01*
X8162Y-9520D01*
X8171Y-9538D01*
X8180Y-9548D01*
X8199Y-9557D01*
X8246Y-9557D01*
X8265Y-9548D01*
X8274Y-9538D01*
X8426Y-5656D02*
X8436Y-5646D01*
X8445Y-5618D01*
X8445Y-5599D01*
X8436Y-5571D01*
X8417Y-5552D01*
X8398Y-5543D01*
X8360Y-5534D01*
X8332Y-5534D01*
X8295Y-5543D01*
X8276Y-5552D01*
X8257Y-5571D01*
X8248Y-5599D01*
X8248Y-5618D01*
X8257Y-5646D01*
X8267Y-5656D01*
X8248Y-5825D02*
X8248Y-5787D01*
X8257Y-5768D01*
X8267Y-5759D01*
X8295Y-5740D01*
X8332Y-5731D01*
X8407Y-5731D01*
X8426Y-5740D01*
X8436Y-5749D01*
X8445Y-5768D01*
X8445Y-5806D01*
X8436Y-5825D01*
X8426Y-5834D01*
X8407Y-5843D01*
X8360Y-5843D01*
X8342Y-5834D01*
X8332Y-5825D01*
X8323Y-5806D01*
X8323Y-5768D01*
X8332Y-5749D01*
X8342Y-5740D01*
X8360Y-5731D01*
X5395Y-5734D02*
X5404Y-5725D01*
X5413Y-5697D01*
X5413Y-5678D01*
X5404Y-5650D01*
X5385Y-5631D01*
X5367Y-5622D01*
X5329Y-5612D01*
X5301Y-5612D01*
X5263Y-5622D01*
X5245Y-5631D01*
X5226Y-5650D01*
X5216Y-5678D01*
X5216Y-5697D01*
X5226Y-5725D01*
X5235Y-5734D01*
X5216Y-5800D02*
X5216Y-5931D01*
X5413Y-5847D01*
X7166Y-9160D02*
X7176Y-9150D01*
X7185Y-9122D01*
X7185Y-9103D01*
X7176Y-9075D01*
X7157Y-9056D01*
X7138Y-9047D01*
X7101Y-9038D01*
X7073Y-9038D01*
X7035Y-9047D01*
X7016Y-9056D01*
X6997Y-9075D01*
X6988Y-9103D01*
X6988Y-9122D01*
X6997Y-9150D01*
X7007Y-9160D01*
X7073Y-9272D02*
X7063Y-9253D01*
X7054Y-9244D01*
X7035Y-9235D01*
X7026Y-9235D01*
X7007Y-9244D01*
X6997Y-9253D01*
X6988Y-9272D01*
X6988Y-9310D01*
X6997Y-9328D01*
X7007Y-9338D01*
X7026Y-9347D01*
X7035Y-9347D01*
X7054Y-9338D01*
X7063Y-9328D01*
X7073Y-9310D01*
X7073Y-9272D01*
X7082Y-9253D01*
X7091Y-9244D01*
X7110Y-9235D01*
X7148Y-9235D01*
X7166Y-9244D01*
X7176Y-9253D01*
X7185Y-9272D01*
X7185Y-9310D01*
X7176Y-9328D01*
X7166Y-9338D01*
X7148Y-9347D01*
X7110Y-9347D01*
X7091Y-9338D01*
X7082Y-9328D01*
X7073Y-9310D01*
X8349Y-8712D02*
X8359Y-8721D01*
X8387Y-8730D01*
X8406Y-8730D01*
X8434Y-8721D01*
X8452Y-8702D01*
X8462Y-8683D01*
X8471Y-8646D01*
X8471Y-8618D01*
X8462Y-8580D01*
X8452Y-8561D01*
X8434Y-8543D01*
X8406Y-8533D01*
X8387Y-8533D01*
X8359Y-8543D01*
X8349Y-8552D01*
X8255Y-8730D02*
X8218Y-8730D01*
X8199Y-8721D01*
X8190Y-8712D01*
X8171Y-8683D01*
X8162Y-8646D01*
X8162Y-8571D01*
X8171Y-8552D01*
X8180Y-8543D01*
X8199Y-8533D01*
X8237Y-8533D01*
X8255Y-8543D01*
X8265Y-8552D01*
X8274Y-8571D01*
X8274Y-8618D01*
X8265Y-8637D01*
X8255Y-8646D01*
X8237Y-8655D01*
X8199Y-8655D01*
X8180Y-8646D01*
X8171Y-8637D01*
X8162Y-8618D01*
X9545Y-7373D02*
X9555Y-7382D01*
X9583Y-7392D01*
X9602Y-7392D01*
X9630Y-7382D01*
X9649Y-7364D01*
X9658Y-7345D01*
X9667Y-7307D01*
X9667Y-7279D01*
X9658Y-7242D01*
X9649Y-7223D01*
X9630Y-7204D01*
X9602Y-7195D01*
X9583Y-7195D01*
X9555Y-7204D01*
X9545Y-7214D01*
X9358Y-7392D02*
X9470Y-7392D01*
X9414Y-7392D02*
X9414Y-7195D01*
X9433Y-7223D01*
X9452Y-7242D01*
X9470Y-7251D01*
X9236Y-7195D02*
X9217Y-7195D01*
X9198Y-7204D01*
X9189Y-7214D01*
X9180Y-7232D01*
X9170Y-7270D01*
X9170Y-7317D01*
X9180Y-7354D01*
X9189Y-7373D01*
X9198Y-7382D01*
X9217Y-7392D01*
X9236Y-7392D01*
X9255Y-7382D01*
X9264Y-7373D01*
X9273Y-7354D01*
X9283Y-7317D01*
X9283Y-7270D01*
X9273Y-7232D01*
X9264Y-7214D01*
X9255Y-7204D01*
X9236Y-7195D01*
X7048Y-8082D02*
X7058Y-8072D01*
X7067Y-8044D01*
X7067Y-8025D01*
X7058Y-7997D01*
X7039Y-7978D01*
X7020Y-7969D01*
X6983Y-7960D01*
X6954Y-7960D01*
X6917Y-7969D01*
X6898Y-7978D01*
X6879Y-7997D01*
X6870Y-8025D01*
X6870Y-8044D01*
X6879Y-8072D01*
X6889Y-8082D01*
X7067Y-8269D02*
X7067Y-8157D01*
X7067Y-8213D02*
X6870Y-8213D01*
X6898Y-8194D01*
X6917Y-8175D01*
X6926Y-8157D01*
X7067Y-8457D02*
X7067Y-8344D01*
X7067Y-8400D02*
X6870Y-8400D01*
X6898Y-8382D01*
X6917Y-8363D01*
X6926Y-8344D01*
X11790Y-8908D02*
X11799Y-8918D01*
X11827Y-8927D01*
X11846Y-8927D01*
X11874Y-8918D01*
X11893Y-8899D01*
X11902Y-8880D01*
X11911Y-8843D01*
X11911Y-8815D01*
X11902Y-8777D01*
X11893Y-8758D01*
X11874Y-8740D01*
X11846Y-8730D01*
X11827Y-8730D01*
X11799Y-8740D01*
X11790Y-8749D01*
X11602Y-8927D02*
X11714Y-8927D01*
X11658Y-8927D02*
X11658Y-8730D01*
X11677Y-8758D01*
X11696Y-8777D01*
X11714Y-8786D01*
X11527Y-8749D02*
X11517Y-8740D01*
X11499Y-8730D01*
X11452Y-8730D01*
X11433Y-8740D01*
X11424Y-8749D01*
X11414Y-8768D01*
X11414Y-8786D01*
X11424Y-8815D01*
X11536Y-8927D01*
X11414Y-8927D01*
X10805Y-7609D02*
X10815Y-7619D01*
X10843Y-7628D01*
X10862Y-7628D01*
X10890Y-7619D01*
X10908Y-7600D01*
X10918Y-7581D01*
X10927Y-7544D01*
X10927Y-7515D01*
X10918Y-7478D01*
X10908Y-7459D01*
X10890Y-7440D01*
X10862Y-7431D01*
X10843Y-7431D01*
X10815Y-7440D01*
X10805Y-7450D01*
X10618Y-7628D02*
X10730Y-7628D01*
X10674Y-7628D02*
X10674Y-7431D01*
X10693Y-7459D01*
X10711Y-7478D01*
X10730Y-7487D01*
X10552Y-7431D02*
X10430Y-7431D01*
X10496Y-7506D01*
X10468Y-7506D01*
X10449Y-7515D01*
X10439Y-7525D01*
X10430Y-7544D01*
X10430Y-7590D01*
X10439Y-7609D01*
X10449Y-7619D01*
X10468Y-7628D01*
X10524Y-7628D01*
X10543Y-7619D01*
X10552Y-7609D01*
X7403Y-5601D02*
X7412Y-5592D01*
X7421Y-5564D01*
X7421Y-5545D01*
X7412Y-5517D01*
X7393Y-5498D01*
X7374Y-5489D01*
X7337Y-5479D01*
X7309Y-5479D01*
X7271Y-5489D01*
X7252Y-5498D01*
X7234Y-5517D01*
X7224Y-5545D01*
X7224Y-5564D01*
X7234Y-5592D01*
X7243Y-5601D01*
X7421Y-5789D02*
X7421Y-5676D01*
X7421Y-5733D02*
X7224Y-5733D01*
X7252Y-5714D01*
X7271Y-5695D01*
X7281Y-5676D01*
X7290Y-5958D02*
X7421Y-5958D01*
X7215Y-5911D02*
X7356Y-5864D01*
X7356Y-5986D01*
X14253Y-14893D02*
X14262Y-14883D01*
X14272Y-14855D01*
X14272Y-14836D01*
X14262Y-14808D01*
X14244Y-14789D01*
X14225Y-14780D01*
X14187Y-14771D01*
X14159Y-14771D01*
X14122Y-14780D01*
X14103Y-14789D01*
X14084Y-14808D01*
X14075Y-14836D01*
X14075Y-14855D01*
X14084Y-14883D01*
X14093Y-14893D01*
X14272Y-15080D02*
X14272Y-14968D01*
X14272Y-15024D02*
X14075Y-15024D01*
X14103Y-15005D01*
X14122Y-14986D01*
X14131Y-14968D01*
X14075Y-15258D02*
X14075Y-15165D01*
X14168Y-15155D01*
X14159Y-15165D01*
X14150Y-15183D01*
X14150Y-15230D01*
X14159Y-15249D01*
X14168Y-15258D01*
X14187Y-15268D01*
X14234Y-15268D01*
X14253Y-15258D01*
X14262Y-15249D01*
X14272Y-15230D01*
X14272Y-15183D01*
X14262Y-15165D01*
X14253Y-15155D01*
X10237Y-14735D02*
X10247Y-14726D01*
X10256Y-14698D01*
X10256Y-14679D01*
X10247Y-14651D01*
X10228Y-14632D01*
X10209Y-14622D01*
X10172Y-14613D01*
X10143Y-14613D01*
X10106Y-14622D01*
X10087Y-14632D01*
X10068Y-14651D01*
X10059Y-14679D01*
X10059Y-14698D01*
X10068Y-14726D01*
X10078Y-14735D01*
X10256Y-14923D02*
X10256Y-14810D01*
X10256Y-14866D02*
X10059Y-14866D01*
X10087Y-14848D01*
X10106Y-14829D01*
X10115Y-14810D01*
X10059Y-15092D02*
X10059Y-15054D01*
X10068Y-15035D01*
X10078Y-15026D01*
X10106Y-15007D01*
X10143Y-14998D01*
X10218Y-14998D01*
X10237Y-15007D01*
X10247Y-15016D01*
X10256Y-15035D01*
X10256Y-15073D01*
X10247Y-15092D01*
X10237Y-15101D01*
X10218Y-15110D01*
X10172Y-15110D01*
X10153Y-15101D01*
X10143Y-15092D01*
X10134Y-15073D01*
X10134Y-15035D01*
X10143Y-15016D01*
X10153Y-15007D01*
X10172Y-14998D01*
X16143Y-15601D02*
X16152Y-15592D01*
X16161Y-15564D01*
X16161Y-15545D01*
X16152Y-15517D01*
X16133Y-15498D01*
X16115Y-15489D01*
X16077Y-15479D01*
X16049Y-15479D01*
X16011Y-15489D01*
X15993Y-15498D01*
X15974Y-15517D01*
X15964Y-15545D01*
X15964Y-15564D01*
X15974Y-15592D01*
X15983Y-15601D01*
X16161Y-15789D02*
X16161Y-15676D01*
X16161Y-15733D02*
X15964Y-15733D01*
X15993Y-15714D01*
X16011Y-15695D01*
X16021Y-15676D01*
X15964Y-15854D02*
X15964Y-15986D01*
X16161Y-15901D01*
X12127Y-15601D02*
X12136Y-15592D01*
X12146Y-15564D01*
X12146Y-15545D01*
X12136Y-15517D01*
X12118Y-15498D01*
X12099Y-15489D01*
X12061Y-15479D01*
X12033Y-15479D01*
X11996Y-15489D01*
X11977Y-15498D01*
X11958Y-15517D01*
X11949Y-15545D01*
X11949Y-15564D01*
X11958Y-15592D01*
X11967Y-15601D01*
X12146Y-15789D02*
X12146Y-15676D01*
X12146Y-15733D02*
X11949Y-15733D01*
X11977Y-15714D01*
X11996Y-15695D01*
X12005Y-15676D01*
X12033Y-15901D02*
X12024Y-15883D01*
X12014Y-15873D01*
X11996Y-15864D01*
X11986Y-15864D01*
X11967Y-15873D01*
X11958Y-15883D01*
X11949Y-15901D01*
X11949Y-15939D01*
X11958Y-15958D01*
X11967Y-15967D01*
X11986Y-15976D01*
X11996Y-15976D01*
X12014Y-15967D01*
X12024Y-15958D01*
X12033Y-15939D01*
X12033Y-15901D01*
X12043Y-15883D01*
X12052Y-15873D01*
X12071Y-15864D01*
X12108Y-15864D01*
X12127Y-15873D01*
X12136Y-15883D01*
X12146Y-15901D01*
X12146Y-15939D01*
X12136Y-15958D01*
X12127Y-15967D01*
X12108Y-15976D01*
X12071Y-15976D01*
X12052Y-15967D01*
X12043Y-15958D01*
X12033Y-15939D01*
G54D13*
X15438Y-14378D02*
X15453Y-14393D01*
X15496Y-14407D01*
X15524Y-14407D01*
X15567Y-14393D01*
X15596Y-14364D01*
X15610Y-14335D01*
X15624Y-14278D01*
X15624Y-14235D01*
X15610Y-14178D01*
X15596Y-14150D01*
X15567Y-14121D01*
X15524Y-14107D01*
X15496Y-14107D01*
X15453Y-14121D01*
X15438Y-14135D01*
X15153Y-14407D02*
X15324Y-14407D01*
X15238Y-14407D02*
X15238Y-14107D01*
X15267Y-14150D01*
X15296Y-14178D01*
X15324Y-14193D01*
X15010Y-14407D02*
X14953Y-14407D01*
X14924Y-14393D01*
X14910Y-14378D01*
X14881Y-14335D01*
X14867Y-14278D01*
X14867Y-14164D01*
X14881Y-14135D01*
X14896Y-14121D01*
X14924Y-14107D01*
X14981Y-14107D01*
X15010Y-14121D01*
X15024Y-14135D01*
X15038Y-14164D01*
X15038Y-14235D01*
X15024Y-14264D01*
X15010Y-14278D01*
X14981Y-14293D01*
X14924Y-14293D01*
X14896Y-14278D01*
X14881Y-14264D01*
X14867Y-14235D01*
X11423Y-12922D02*
X11437Y-12936D01*
X11480Y-12950D01*
X11508Y-12950D01*
X11551Y-12936D01*
X11580Y-12907D01*
X11594Y-12879D01*
X11608Y-12822D01*
X11608Y-12779D01*
X11594Y-12722D01*
X11580Y-12693D01*
X11551Y-12664D01*
X11508Y-12650D01*
X11480Y-12650D01*
X11437Y-12664D01*
X11423Y-12679D01*
X11308Y-12679D02*
X11294Y-12664D01*
X11266Y-12650D01*
X11194Y-12650D01*
X11166Y-12664D01*
X11151Y-12679D01*
X11137Y-12707D01*
X11137Y-12736D01*
X11151Y-12779D01*
X11323Y-12950D01*
X11137Y-12950D01*
X10951Y-12650D02*
X10923Y-12650D01*
X10894Y-12664D01*
X10880Y-12679D01*
X10866Y-12707D01*
X10851Y-12764D01*
X10851Y-12836D01*
X10866Y-12893D01*
X10880Y-12922D01*
X10894Y-12936D01*
X10923Y-12950D01*
X10951Y-12950D01*
X10980Y-12936D01*
X10994Y-12922D01*
X11008Y-12893D01*
X11023Y-12836D01*
X11023Y-12764D01*
X11008Y-12707D01*
X10994Y-12679D01*
X10980Y-12664D01*
X10951Y-12650D01*
G54D14*
X10955Y-10592D02*
X10955Y-10605D01*
X10968Y-10631D01*
X10981Y-10645D01*
X11008Y-10658D01*
X11034Y-10658D01*
X11054Y-10651D01*
X11087Y-10631D01*
X11107Y-10611D01*
X11127Y-10578D01*
X11134Y-10558D01*
X11134Y-10532D01*
X11120Y-10505D01*
X11107Y-10492D01*
X11081Y-10479D01*
X11067Y-10479D01*
X11014Y-10426D02*
X11014Y-10412D01*
X11008Y-10393D01*
X10975Y-10359D01*
X10955Y-10353D01*
X10941Y-10353D01*
X10921Y-10359D01*
X10908Y-10373D01*
X10895Y-10399D01*
X10895Y-10558D01*
X10809Y-10472D01*
X10809Y-10313D02*
X10829Y-10320D01*
X10842Y-10320D01*
X10862Y-10313D01*
X10868Y-10306D01*
X10875Y-10286D01*
X10875Y-10273D01*
X10868Y-10253D01*
X10842Y-10227D01*
X10822Y-10220D01*
X10809Y-10220D01*
X10789Y-10227D01*
X10782Y-10233D01*
X10776Y-10253D01*
X10776Y-10267D01*
X10782Y-10286D01*
X10809Y-10313D01*
X10815Y-10333D01*
X10815Y-10346D01*
X10809Y-10366D01*
X10782Y-10393D01*
X10762Y-10399D01*
X10749Y-10399D01*
X10729Y-10393D01*
X10703Y-10366D01*
X10696Y-10346D01*
X10696Y-10333D01*
X10703Y-10313D01*
X10729Y-10286D01*
X10749Y-10280D01*
X10762Y-10280D01*
X10782Y-10286D01*
X9498Y-12088D02*
X9498Y-12101D01*
X9511Y-12127D01*
X9524Y-12141D01*
X9551Y-12154D01*
X9578Y-12154D01*
X9597Y-12147D01*
X9631Y-12127D01*
X9651Y-12108D01*
X9670Y-12074D01*
X9677Y-12054D01*
X9677Y-12028D01*
X9664Y-12001D01*
X9651Y-11988D01*
X9624Y-11975D01*
X9611Y-11975D01*
X9558Y-11922D02*
X9558Y-11909D01*
X9551Y-11889D01*
X9518Y-11855D01*
X9498Y-11849D01*
X9485Y-11849D01*
X9465Y-11855D01*
X9452Y-11869D01*
X9438Y-11895D01*
X9438Y-12054D01*
X9352Y-11968D01*
X9286Y-11902D02*
X9259Y-11875D01*
X9253Y-11855D01*
X9253Y-11842D01*
X9259Y-11809D01*
X9279Y-11776D01*
X9332Y-11723D01*
X9352Y-11716D01*
X9365Y-11716D01*
X9385Y-11723D01*
X9412Y-11749D01*
X9418Y-11769D01*
X9418Y-11782D01*
X9412Y-11802D01*
X9379Y-11836D01*
X9359Y-11842D01*
X9345Y-11842D01*
X9325Y-11836D01*
X9299Y-11809D01*
X9292Y-11789D01*
X9292Y-11776D01*
X9299Y-11756D01*
X14924Y-11919D02*
X15018Y-11919D01*
X15018Y-11722D01*
X14755Y-11919D02*
X14868Y-11919D01*
X14811Y-11919D02*
X14811Y-11722D01*
X14830Y-11750D01*
X14849Y-11769D01*
X14868Y-11779D01*
X17089Y-12904D02*
X17183Y-12904D01*
X17183Y-12707D01*
X17033Y-12725D02*
X17024Y-12716D01*
X17005Y-12707D01*
X16958Y-12707D01*
X16939Y-12716D01*
X16930Y-12725D01*
X16921Y-12744D01*
X16921Y-12763D01*
X16930Y-12791D01*
X17043Y-12904D01*
X16921Y-12904D01*
X17106Y-14671D02*
X17106Y-14578D01*
X16909Y-14578D01*
X16909Y-14718D02*
X16909Y-14840D01*
X16984Y-14775D01*
X16984Y-14803D01*
X16994Y-14821D01*
X17003Y-14831D01*
X17022Y-14840D01*
X17069Y-14840D01*
X17088Y-14831D01*
X17097Y-14821D01*
X17106Y-14803D01*
X17106Y-14746D01*
X17097Y-14728D01*
X17088Y-14718D01*
X12972Y-14632D02*
X12972Y-14538D01*
X12775Y-14538D01*
X12841Y-14782D02*
X12972Y-14782D01*
X12766Y-14735D02*
X12907Y-14688D01*
X12907Y-14810D01*
X8192Y-10226D02*
X8257Y-10133D01*
X8304Y-10226D02*
X8304Y-10029D01*
X8229Y-10029D01*
X8211Y-10039D01*
X8201Y-10048D01*
X8192Y-10067D01*
X8192Y-10095D01*
X8201Y-10114D01*
X8211Y-10123D01*
X8229Y-10133D01*
X8304Y-10133D01*
X8004Y-10226D02*
X8117Y-10226D01*
X8060Y-10226D02*
X8060Y-10029D01*
X8079Y-10058D01*
X8098Y-10076D01*
X8117Y-10086D01*
G54D10*
X15221Y-3032D02*
X15446Y-3032D01*
X15334Y-3426D02*
X15334Y-3032D01*
X15559Y-3069D02*
X15577Y-3051D01*
X15615Y-3032D01*
X15709Y-3032D01*
X15746Y-3051D01*
X15765Y-3069D01*
X15784Y-3107D01*
X15784Y-3144D01*
X15765Y-3201D01*
X15540Y-3426D01*
X15784Y-3426D01*
X15103Y-6575D02*
X15328Y-6575D01*
X15216Y-6969D02*
X15216Y-6575D01*
X15422Y-6575D02*
X15666Y-6575D01*
X15534Y-6725D01*
X15591Y-6725D01*
X15628Y-6744D01*
X15647Y-6763D01*
X15666Y-6800D01*
X15666Y-6894D01*
X15647Y-6931D01*
X15628Y-6950D01*
X15591Y-6969D01*
X15478Y-6969D01*
X15441Y-6950D01*
X15422Y-6931D01*
X1402Y-15552D02*
X1402Y-15158D01*
X1252Y-15158D01*
X1215Y-15177D01*
X1196Y-15195D01*
X1177Y-15233D01*
X1177Y-15289D01*
X1196Y-15327D01*
X1215Y-15345D01*
X1252Y-15364D01*
X1402Y-15364D01*
X1027Y-15195D02*
X1009Y-15177D01*
X971Y-15158D01*
X877Y-15158D01*
X840Y-15177D01*
X821Y-15195D01*
X802Y-15233D01*
X802Y-15270D01*
X821Y-15327D01*
X1046Y-15552D01*
X802Y-15552D01*
X6757Y-14607D02*
X6757Y-14213D01*
X6607Y-14213D01*
X6569Y-14232D01*
X6550Y-14251D01*
X6532Y-14288D01*
X6532Y-14344D01*
X6550Y-14382D01*
X6569Y-14401D01*
X6607Y-14419D01*
X6757Y-14419D01*
X6194Y-14344D02*
X6194Y-14607D01*
X6288Y-14194D02*
X6382Y-14476D01*
X6138Y-14476D01*
X11757Y-10079D02*
X11982Y-10079D01*
X11869Y-10473D02*
X11869Y-10079D01*
X12319Y-10473D02*
X12094Y-10473D01*
X12207Y-10473D02*
X12207Y-10079D01*
X12169Y-10135D01*
X12132Y-10173D01*
X12094Y-10192D01*
M02*
