%FSLAX34Y34*%
G04 Gerber Fmt 3.4, Leading zero omitted, Abs format*
G04 (created by PCBNEW (2014-01-02 BZR 4600)-product) date Sun 26 Jan 2014 10:04:54 PM PST*
%MOIN*%
G01*
G70*
G90*
G04 APERTURE LIST*
%ADD10C,0.005906*%
%ADD11R,0.036000X0.012000*%
%ADD12R,0.012000X0.036000*%
%ADD13R,0.285000X0.285000*%
%ADD14C,0.025600*%
%ADD15R,0.025600X0.181100*%
%ADD16R,0.025600X0.141700*%
%ADD17R,0.035000X0.055000*%
%ADD18R,0.060000X0.080000*%
%ADD19R,0.055000X0.035000*%
%ADD20R,0.039400X0.023600*%
%ADD21R,0.061024X0.076772*%
%ADD22R,0.096063X0.044094*%
%ADD23R,0.100000X0.065000*%
%ADD24R,0.080000X0.144000*%
%ADD25R,0.080000X0.040000*%
%ADD26R,0.055000X0.055000*%
%ADD27C,0.055000*%
%ADD28R,0.078740X0.015748*%
%ADD29C,0.060000*%
%ADD30C,0.059100*%
%ADD31C,0.078700*%
%ADD32C,0.035000*%
%ADD33C,0.029528*%
%ADD34C,0.009843*%
%ADD35C,0.010000*%
%ADD36C,0.011811*%
%ADD37C,0.039370*%
G04 APERTURE END LIST*
G54D10*
G54D11*
X6045Y-7201D03*
X6045Y-7401D03*
X6045Y-7601D03*
X6045Y-7791D03*
X6045Y-7991D03*
X6045Y-8191D03*
X6045Y-8381D03*
X6045Y-8581D03*
X6045Y-8781D03*
X6045Y-8981D03*
X6045Y-9171D03*
X6045Y-9371D03*
X6045Y-9571D03*
X6045Y-9761D03*
X6045Y-9961D03*
X6045Y-10161D03*
G54D12*
X6315Y-10431D03*
X6515Y-10431D03*
X6715Y-10431D03*
X6905Y-10431D03*
X7105Y-10431D03*
X7305Y-10431D03*
X7495Y-10431D03*
X7695Y-10431D03*
X7895Y-10431D03*
X8095Y-10431D03*
X8285Y-10431D03*
X8485Y-10431D03*
X8685Y-10431D03*
X8875Y-10431D03*
X9075Y-10431D03*
X9275Y-10431D03*
G54D11*
X9545Y-10161D03*
X9545Y-9961D03*
X9545Y-9761D03*
X9545Y-9571D03*
X9545Y-9371D03*
X9545Y-9171D03*
X9545Y-8981D03*
X9545Y-8781D03*
X9545Y-8581D03*
X9545Y-8381D03*
X9545Y-8191D03*
X9545Y-7991D03*
X9545Y-7791D03*
X9545Y-7601D03*
X9545Y-7401D03*
X9545Y-7201D03*
G54D12*
X9275Y-6931D03*
X9075Y-6931D03*
X8875Y-6931D03*
X8685Y-6931D03*
X8485Y-6931D03*
X8285Y-6931D03*
X8095Y-6931D03*
X7895Y-6931D03*
X7695Y-6931D03*
X7495Y-6931D03*
X7305Y-6931D03*
X7105Y-6931D03*
X6905Y-6931D03*
X6715Y-6931D03*
X6515Y-6931D03*
X6315Y-6931D03*
G54D13*
X7795Y-8681D03*
G54D14*
X7755Y-19685D03*
G54D15*
X275Y-18779D03*
X669Y-18779D03*
X1062Y-18779D03*
X1456Y-18779D03*
X1850Y-18779D03*
X2243Y-18779D03*
X2637Y-18779D03*
X3031Y-18779D03*
X3424Y-18779D03*
X3818Y-18779D03*
X4212Y-18779D03*
X6180Y-18779D03*
X6574Y-18779D03*
X6968Y-18779D03*
G54D16*
X7361Y-18582D03*
G54D15*
X7755Y-18779D03*
X5393Y-18779D03*
X5787Y-18779D03*
G54D14*
X1062Y-19685D03*
X1456Y-19685D03*
X1850Y-19685D03*
X2243Y-19685D03*
X2637Y-19685D03*
X3031Y-19685D03*
X3424Y-19685D03*
X3818Y-19685D03*
X4212Y-19685D03*
X275Y-19685D03*
X5393Y-19685D03*
X5787Y-19685D03*
X6180Y-19685D03*
X6574Y-19685D03*
X6968Y-19685D03*
X669Y-19685D03*
G54D17*
X13327Y-11988D03*
X12577Y-11988D03*
G54D18*
X14743Y-7913D03*
X16043Y-7913D03*
G54D17*
X10530Y-8011D03*
X11280Y-8011D03*
G54D10*
G36*
X10076Y-10263D02*
X10465Y-10652D01*
X10217Y-10899D01*
X9828Y-10510D01*
X10076Y-10263D01*
X10076Y-10263D01*
G37*
G36*
X9546Y-10793D02*
X9934Y-11182D01*
X9687Y-11429D01*
X9298Y-11040D01*
X9546Y-10793D01*
X9546Y-10793D01*
G37*
G36*
X11136Y-10797D02*
X11702Y-11363D01*
X11278Y-11787D01*
X10712Y-11221D01*
X11136Y-10797D01*
X11136Y-10797D01*
G37*
G36*
X10217Y-11716D02*
X10783Y-12282D01*
X10359Y-12706D01*
X9793Y-12140D01*
X10217Y-11716D01*
X10217Y-11716D01*
G37*
G54D19*
X12244Y-7518D03*
X12244Y-8268D03*
G54D17*
X15038Y-12125D03*
X15788Y-12125D03*
G54D19*
X16791Y-12658D03*
X16791Y-11908D03*
G54D20*
X17559Y-12086D03*
X18425Y-12086D03*
G54D21*
X9700Y-3779D03*
X7700Y-3779D03*
X7700Y-5433D03*
X9700Y-5433D03*
G54D22*
X9559Y-2732D03*
X6169Y-2732D03*
X9559Y-1732D03*
X6169Y-1732D03*
X9559Y-732D03*
X6169Y-732D03*
G54D17*
X11280Y-8740D03*
X10530Y-8740D03*
X4705Y-2204D03*
X3955Y-2204D03*
X4705Y-1466D03*
X3955Y-1466D03*
X4705Y-728D03*
X3955Y-728D03*
G54D19*
X13051Y-7518D03*
X13051Y-8268D03*
G54D23*
X14559Y-2696D03*
X14559Y-1696D03*
X14559Y-696D03*
X12559Y-696D03*
X12559Y-1696D03*
X12559Y-2696D03*
X14559Y-6043D03*
X14559Y-5043D03*
X14559Y-4043D03*
X12559Y-4043D03*
X12559Y-5043D03*
X12559Y-6043D03*
G54D24*
X17323Y-14547D03*
G54D25*
X14723Y-14547D03*
X14723Y-15447D03*
X14723Y-13647D03*
G54D24*
X13307Y-14547D03*
G54D25*
X10707Y-14547D03*
X10707Y-15447D03*
X10707Y-13647D03*
G54D17*
X18426Y-7913D03*
X17676Y-7913D03*
G54D26*
X8809Y-15801D03*
G54D27*
X8809Y-14801D03*
X8809Y-13801D03*
X8809Y-12801D03*
G54D28*
X1377Y-4849D03*
X4527Y-4849D03*
X1377Y-5099D03*
X4527Y-5099D03*
X1377Y-5349D03*
X4527Y-5349D03*
X1377Y-5599D03*
X4527Y-5599D03*
X1377Y-5849D03*
X4527Y-5849D03*
X1377Y-6099D03*
X4527Y-6099D03*
X1377Y-6349D03*
X4527Y-6349D03*
X1377Y-6599D03*
X4527Y-6599D03*
X1377Y-6849D03*
X4527Y-6849D03*
X1377Y-7099D03*
X4527Y-7099D03*
X1377Y-7349D03*
X4527Y-7349D03*
X1377Y-7599D03*
X4527Y-7599D03*
X1377Y-7849D03*
X4527Y-7849D03*
X1377Y-8099D03*
X4527Y-8099D03*
X1377Y-8349D03*
X4527Y-8349D03*
X1377Y-8599D03*
X4527Y-8599D03*
X1377Y-8849D03*
X4527Y-8849D03*
X1377Y-9099D03*
X4527Y-9099D03*
X1377Y-9349D03*
X4527Y-9349D03*
X1377Y-9599D03*
X4527Y-9599D03*
X1377Y-9849D03*
X4527Y-9849D03*
X1377Y-10099D03*
X4527Y-10099D03*
X1377Y-10349D03*
X4527Y-10349D03*
X1377Y-10599D03*
X4527Y-10599D03*
X1377Y-10849D03*
X4527Y-10849D03*
X1377Y-11099D03*
X4527Y-11099D03*
X1377Y-11349D03*
X4527Y-11349D03*
X1377Y-11599D03*
X4527Y-11599D03*
X1377Y-11849D03*
X4527Y-11849D03*
X1377Y-12099D03*
X4527Y-12099D03*
X1377Y-12349D03*
X4527Y-12349D03*
X1377Y-12599D03*
X4527Y-12599D03*
X1377Y-12849D03*
X4527Y-12849D03*
X1377Y-13099D03*
X4527Y-13099D03*
X1377Y-13349D03*
X4527Y-13349D03*
X1377Y-13599D03*
X4527Y-13599D03*
X1377Y-13849D03*
X4527Y-13849D03*
X1377Y-14099D03*
X4527Y-14099D03*
X1377Y-14349D03*
X4527Y-14349D03*
X1377Y-14599D03*
X4527Y-14599D03*
G54D26*
X1452Y-3218D03*
G54D27*
X2452Y-3218D03*
X3452Y-3218D03*
X4452Y-3218D03*
G54D29*
X1437Y-15984D03*
X5669Y-14389D03*
G54D30*
X5187Y-4192D03*
G54D29*
X1427Y-2244D03*
X5334Y-15098D03*
G54D30*
X9842Y-15452D03*
X9842Y-13641D03*
G54D29*
X6564Y-4704D03*
X5905Y-11092D03*
G54D30*
X7165Y-13503D03*
X11023Y-1131D03*
X13779Y-13208D03*
G54D23*
X15051Y-11082D03*
X15051Y-10082D03*
X15051Y-9082D03*
X13051Y-9082D03*
X13051Y-10082D03*
X13051Y-11082D03*
G54D31*
X17362Y-10059D03*
X18425Y-11122D03*
X18425Y-8996D03*
X16299Y-8996D03*
X16299Y-11122D03*
X17342Y-5610D03*
X18405Y-6673D03*
X18405Y-4547D03*
X16279Y-4547D03*
X16279Y-6673D03*
X17342Y-1712D03*
X18405Y-2775D03*
X18405Y-649D03*
X16279Y-649D03*
X16279Y-2775D03*
G54D32*
X13956Y-12381D03*
X10039Y-8897D03*
X9980Y-9763D03*
X17519Y-12775D03*
X10039Y-8070D03*
X7519Y-6279D03*
X9271Y-5452D03*
X16456Y-15433D03*
X6874Y-5850D03*
X9212Y-1240D03*
X9212Y-2224D03*
X12362Y-15374D03*
X5826Y-10531D03*
X6141Y-6633D03*
X9271Y-3799D03*
X13208Y-1712D03*
X12204Y-11988D03*
X11279Y-7549D03*
X11043Y-10000D03*
X7716Y-4704D03*
X5511Y-5393D03*
X3543Y-1476D03*
X639Y-5472D03*
X3789Y-12883D03*
X2125Y-13602D03*
X3080Y-16102D03*
X7057Y-16053D03*
X5846Y-15521D03*
X3779Y-8120D03*
X659Y-8100D03*
X669Y-9350D03*
X3740Y-10885D03*
X669Y-10846D03*
X669Y-12145D03*
X610Y-15964D03*
X10314Y-11279D03*
X6653Y-9153D03*
X7519Y-9153D03*
X6653Y-8287D03*
X7519Y-8287D03*
X8425Y-8287D03*
X9015Y-8287D03*
X9015Y-9153D03*
X8425Y-9153D03*
X9015Y-9822D03*
X8425Y-9822D03*
X7519Y-9822D03*
X6653Y-9822D03*
X9015Y-7539D03*
X8425Y-7539D03*
X7519Y-7539D03*
X6653Y-7539D03*
X15866Y-14232D03*
X11850Y-14192D03*
X10236Y-10255D03*
X9291Y-11200D03*
X4645Y-14842D03*
X1062Y-14842D03*
G54D33*
X3385Y-12086D03*
X3700Y-11830D03*
X3799Y-11437D03*
X3307Y-10531D03*
X3543Y-10196D03*
X3779Y-9832D03*
X3602Y-9202D03*
X3415Y-8592D03*
X3120Y-8287D03*
X2805Y-8051D03*
X2529Y-7755D03*
X2244Y-7450D03*
G54D32*
X1377Y-4616D03*
X9005Y-11555D03*
G54D33*
X6988Y-11555D03*
X6161Y-11555D03*
X6574Y-11555D03*
X7401Y-11555D03*
G54D32*
X13838Y-6988D03*
X14173Y-15570D03*
G54D34*
X9545Y-9761D02*
X9977Y-9761D01*
X9977Y-9761D02*
X9980Y-9763D01*
X9545Y-8781D02*
X9903Y-8781D01*
X9903Y-8781D02*
X10039Y-8897D01*
X9977Y-9761D02*
X9980Y-9763D01*
X9545Y-8191D02*
X9919Y-8191D01*
X9919Y-8191D02*
X10039Y-8070D01*
X7495Y-6931D02*
X7495Y-6303D01*
X7495Y-6303D02*
X7519Y-6279D01*
G54D35*
X7495Y-6303D02*
X7519Y-6279D01*
G54D34*
X9700Y-5433D02*
X9291Y-5433D01*
X9291Y-5433D02*
X9271Y-5452D01*
X7105Y-6081D02*
X6874Y-5850D01*
X7105Y-6931D02*
X7105Y-6081D01*
X9212Y-1240D02*
X9212Y-1078D01*
X9559Y-1586D02*
X9212Y-1240D01*
X9559Y-1732D02*
X9559Y-1586D01*
X9212Y-1078D02*
X9559Y-732D01*
X9212Y-2224D02*
X9212Y-2078D01*
X9559Y-2570D02*
X9212Y-2224D01*
X9559Y-2732D02*
X9559Y-2570D01*
X9212Y-2078D02*
X9559Y-1732D01*
G54D35*
X6315Y-10431D02*
X5927Y-10431D01*
X5927Y-10431D02*
X5826Y-10531D01*
X6315Y-6931D02*
X6315Y-6807D01*
X6315Y-6807D02*
X6141Y-6633D01*
G54D34*
X9545Y-9571D02*
X8685Y-9571D01*
X8685Y-9571D02*
X7795Y-8681D01*
X7305Y-6931D02*
X7305Y-8191D01*
X7305Y-8191D02*
X7795Y-8681D01*
X8095Y-6931D02*
X8095Y-8381D01*
X8095Y-8381D02*
X7795Y-8681D01*
X9545Y-8981D02*
X8095Y-8981D01*
X8095Y-8981D02*
X7795Y-8681D01*
X9545Y-9961D02*
X9075Y-9961D01*
X9075Y-9961D02*
X7795Y-8681D01*
X9700Y-3779D02*
X9291Y-3779D01*
X9291Y-3779D02*
X9271Y-3799D01*
X7716Y-4704D02*
X7716Y-3795D01*
X7716Y-3795D02*
X7700Y-3779D01*
G54D36*
X12559Y-1696D02*
X13192Y-1696D01*
X13192Y-1696D02*
X13208Y-1712D01*
X14559Y-696D02*
X16232Y-696D01*
X16232Y-696D02*
X16279Y-649D01*
X16279Y-4547D02*
X15984Y-4547D01*
X15480Y-4043D02*
X14559Y-4043D01*
X15984Y-4547D02*
X15480Y-4043D01*
X17676Y-7913D02*
X17676Y-7402D01*
X17676Y-7402D02*
X18405Y-6673D01*
G54D34*
X12244Y-8268D02*
X11537Y-8268D01*
X11537Y-8268D02*
X11280Y-8011D01*
X12577Y-11988D02*
X12204Y-11988D01*
G54D37*
X13779Y-13208D02*
X14285Y-13208D01*
X14285Y-13208D02*
X14723Y-13647D01*
X10707Y-13647D02*
X9848Y-13647D01*
X9848Y-13647D02*
X9842Y-13641D01*
X16043Y-7913D02*
X16043Y-6909D01*
X16043Y-6909D02*
X16279Y-6673D01*
G54D34*
X11280Y-8011D02*
X11280Y-7550D01*
X11280Y-7550D02*
X11279Y-7549D01*
X11280Y-8011D02*
X11280Y-8740D01*
X7700Y-4688D02*
X7716Y-4704D01*
X3955Y-1466D02*
X3553Y-1466D01*
X3553Y-1466D02*
X3543Y-1476D01*
X3955Y-1466D02*
X3955Y-728D01*
X3955Y-2204D02*
X3955Y-1466D01*
X1377Y-5349D02*
X762Y-5349D01*
X762Y-5349D02*
X639Y-5472D01*
X3963Y-12099D02*
X3789Y-12273D01*
X3789Y-12273D02*
X3789Y-12883D01*
X3963Y-12099D02*
X4527Y-12099D01*
X2123Y-13599D02*
X1377Y-13599D01*
X2123Y-13599D02*
X2125Y-13602D01*
X3031Y-18779D02*
X3031Y-16151D01*
X3031Y-16151D02*
X3080Y-16102D01*
X6968Y-18779D02*
X6968Y-16141D01*
X6968Y-16141D02*
X7057Y-16053D01*
X4527Y-8099D02*
X3800Y-8099D01*
X3800Y-8099D02*
X3779Y-8120D01*
X1377Y-8099D02*
X660Y-8099D01*
X660Y-8099D02*
X659Y-8100D01*
X1377Y-9349D02*
X670Y-9349D01*
X670Y-9349D02*
X669Y-9350D01*
X4527Y-10599D02*
X4026Y-10599D01*
X4026Y-10599D02*
X3740Y-10885D01*
X1377Y-10849D02*
X672Y-10849D01*
X672Y-10849D02*
X669Y-10846D01*
X1377Y-12099D02*
X715Y-12099D01*
X715Y-12099D02*
X669Y-12145D01*
X1062Y-18779D02*
X1062Y-17165D01*
X610Y-16712D02*
X610Y-15964D01*
X1062Y-17165D02*
X610Y-16712D01*
G54D35*
X6515Y-10431D02*
X6515Y-9961D01*
X6515Y-9961D02*
X7795Y-8681D01*
X9075Y-10431D02*
X9075Y-9961D01*
X9075Y-9961D02*
X7795Y-8681D01*
X9075Y-9961D02*
X7795Y-8681D01*
X8095Y-8981D02*
X7795Y-8681D01*
X9545Y-7991D02*
X8485Y-7991D01*
X8485Y-7991D02*
X7795Y-8681D01*
X9545Y-7201D02*
X9545Y-7401D01*
X9545Y-7401D02*
X9526Y-7381D01*
X9526Y-7381D02*
X9094Y-7381D01*
X9094Y-7381D02*
X7795Y-8681D01*
X8095Y-8381D02*
X7795Y-8681D01*
X7305Y-8191D02*
X7795Y-8681D01*
X6515Y-6931D02*
X6515Y-7401D01*
X6515Y-7401D02*
X7795Y-8681D01*
X6653Y-9153D02*
X7125Y-8681D01*
X7125Y-8681D02*
X7795Y-8681D01*
X7519Y-9153D02*
X7795Y-8877D01*
X7795Y-8877D02*
X7795Y-8681D01*
X6653Y-8287D02*
X7047Y-8681D01*
X7047Y-8681D02*
X7795Y-8681D01*
X7519Y-8287D02*
X7795Y-8562D01*
X7795Y-8562D02*
X7795Y-8681D01*
X8425Y-8287D02*
X8031Y-8681D01*
X8031Y-8681D02*
X7795Y-8681D01*
X9015Y-8287D02*
X8622Y-8681D01*
X8622Y-8681D02*
X7795Y-8681D01*
X9015Y-9153D02*
X8543Y-8681D01*
X8543Y-8681D02*
X7795Y-8681D01*
X7952Y-8681D02*
X7795Y-8681D01*
X8425Y-9153D02*
X7952Y-8681D01*
X9015Y-9822D02*
X7874Y-8681D01*
X7874Y-8681D02*
X7795Y-8681D01*
X7795Y-9192D02*
X7795Y-8681D01*
X8425Y-9822D02*
X7795Y-9192D01*
X7795Y-9547D02*
X7795Y-8681D01*
X7519Y-9822D02*
X7795Y-9547D01*
X6653Y-9822D02*
X7795Y-8681D01*
X9015Y-7539D02*
X7874Y-8681D01*
X7874Y-8681D02*
X7795Y-8681D01*
X7795Y-8169D02*
X7795Y-8681D01*
X8425Y-7539D02*
X7795Y-8169D01*
X7795Y-7814D02*
X7795Y-8681D01*
X7519Y-7539D02*
X7795Y-7814D01*
X6653Y-7539D02*
X7795Y-8681D01*
G54D37*
X14723Y-14547D02*
X15551Y-14547D01*
X15551Y-14547D02*
X15866Y-14232D01*
X10707Y-14547D02*
X11496Y-14547D01*
X11496Y-14547D02*
X11850Y-14192D01*
G54D34*
X13327Y-11988D02*
X13523Y-11988D01*
X13507Y-10082D02*
X13051Y-10082D01*
X13956Y-10531D02*
X13507Y-10082D01*
X13956Y-11555D02*
X13956Y-10531D01*
X13523Y-11988D02*
X13956Y-11555D01*
X9545Y-8381D02*
X10200Y-8381D01*
X10200Y-8381D02*
X10530Y-8051D01*
G54D35*
X10236Y-10255D02*
X10236Y-10320D01*
X10236Y-10320D02*
X11207Y-11292D01*
X10236Y-10255D02*
X10236Y-10492D01*
X10236Y-10492D02*
X10147Y-10581D01*
X9545Y-10161D02*
X10141Y-10161D01*
X10141Y-10161D02*
X10236Y-10255D01*
X9291Y-11200D02*
X9291Y-11214D01*
X9291Y-11214D02*
X10288Y-12211D01*
X9291Y-11200D02*
X9527Y-11200D01*
X9527Y-11200D02*
X9616Y-11111D01*
X9275Y-10431D02*
X9275Y-11184D01*
X9275Y-11184D02*
X9291Y-11200D01*
G54D37*
X13051Y-7518D02*
X13051Y-6988D01*
X13232Y-5043D02*
X12559Y-5043D01*
X13523Y-5334D02*
X13232Y-5043D01*
X13523Y-6515D02*
X13523Y-5334D01*
X13051Y-6988D02*
X13523Y-6515D01*
X12244Y-7518D02*
X13051Y-7518D01*
G54D36*
X15051Y-11082D02*
X15051Y-12113D01*
X15051Y-12113D02*
X15038Y-12125D01*
X15788Y-12125D02*
X15788Y-12126D01*
X16319Y-12658D02*
X16791Y-12658D01*
X15788Y-12126D02*
X16319Y-12658D01*
X16791Y-12658D02*
X16947Y-12658D01*
X17519Y-12086D02*
X17559Y-12086D01*
X16947Y-12658D02*
X17519Y-12086D01*
X17362Y-10059D02*
X17362Y-11337D01*
X17362Y-11337D02*
X16791Y-11908D01*
G54D34*
X4527Y-14724D02*
X4645Y-14842D01*
X4527Y-14599D02*
X4527Y-14724D01*
X1306Y-14599D02*
X1062Y-14842D01*
X1306Y-14599D02*
X1377Y-14599D01*
X7361Y-14743D02*
X7460Y-14842D01*
X5967Y-13349D02*
X7361Y-14743D01*
X4527Y-13349D02*
X5967Y-13349D01*
X7361Y-16762D02*
X7361Y-18582D01*
X7460Y-16663D02*
X7361Y-16762D01*
X7460Y-14842D02*
X7460Y-16663D01*
X688Y-14763D02*
X688Y-15295D01*
X745Y-13349D02*
X688Y-13405D01*
X688Y-13405D02*
X688Y-14763D01*
X1377Y-13349D02*
X745Y-13349D01*
X2243Y-16042D02*
X2243Y-18779D01*
X1653Y-15452D02*
X2243Y-16042D01*
X846Y-15452D02*
X1653Y-15452D01*
X688Y-15295D02*
X846Y-15452D01*
X7755Y-18779D02*
X7755Y-14862D01*
X5993Y-13099D02*
X7755Y-14862D01*
X5993Y-13099D02*
X4527Y-13099D01*
X492Y-14763D02*
X492Y-15393D01*
X699Y-13099D02*
X492Y-13307D01*
X492Y-13307D02*
X492Y-14763D01*
X1377Y-13099D02*
X699Y-13099D01*
X1456Y-17204D02*
X1456Y-18779D01*
X944Y-16692D02*
X1456Y-17204D01*
X944Y-15846D02*
X944Y-16692D01*
X492Y-15393D02*
X944Y-15846D01*
X5551Y-12854D02*
X4532Y-12854D01*
X8011Y-12854D02*
X5551Y-12854D01*
X8685Y-12180D02*
X8011Y-12854D01*
X8685Y-10431D02*
X8685Y-12180D01*
X4532Y-12854D02*
X4527Y-12849D01*
X295Y-14763D02*
X295Y-16850D01*
X674Y-12849D02*
X295Y-13228D01*
X295Y-13228D02*
X295Y-14763D01*
X1377Y-12849D02*
X674Y-12849D01*
X669Y-17224D02*
X669Y-18779D01*
X295Y-16850D02*
X669Y-17224D01*
X5551Y-12657D02*
X5423Y-12657D01*
X7933Y-12657D02*
X5551Y-12657D01*
X8485Y-12105D02*
X7933Y-12657D01*
X8485Y-10431D02*
X8485Y-12105D01*
X5365Y-12599D02*
X4527Y-12599D01*
X5423Y-12657D02*
X5365Y-12599D01*
X2007Y-14744D02*
X2007Y-15531D01*
X1949Y-12599D02*
X2500Y-13149D01*
X2500Y-13149D02*
X2500Y-13740D01*
X2500Y-13740D02*
X2007Y-14232D01*
X2007Y-14232D02*
X2007Y-14744D01*
X1377Y-12599D02*
X1949Y-12599D01*
X2637Y-16161D02*
X2637Y-18779D01*
X2007Y-15531D02*
X2637Y-16161D01*
X5551Y-12460D02*
X5433Y-12342D01*
X7854Y-12460D02*
X5551Y-12460D01*
X8285Y-12029D02*
X7854Y-12460D01*
X8285Y-10431D02*
X8285Y-12029D01*
X4534Y-12342D02*
X4527Y-12349D01*
X5433Y-12342D02*
X4534Y-12342D01*
X3405Y-15866D02*
X3405Y-18760D01*
X2204Y-15374D02*
X2618Y-15787D01*
X2618Y-15787D02*
X3326Y-15787D01*
X3326Y-15787D02*
X3405Y-15866D01*
X1377Y-12349D02*
X1975Y-12349D01*
X2204Y-14330D02*
X2204Y-14744D01*
X2696Y-13838D02*
X2204Y-14330D01*
X2696Y-13070D02*
X2696Y-13838D01*
X1975Y-12349D02*
X2696Y-13070D01*
X2204Y-14744D02*
X2204Y-15374D01*
X3405Y-18760D02*
X3424Y-18779D01*
X4527Y-11849D02*
X5432Y-11849D01*
X5432Y-11849D02*
X5846Y-12263D01*
X8095Y-10431D02*
X8095Y-11944D01*
X8095Y-11944D02*
X7775Y-12263D01*
X7775Y-12263D02*
X5846Y-12263D01*
X1377Y-11849D02*
X1888Y-11849D01*
X3818Y-15826D02*
X3818Y-18779D01*
X3818Y-18779D02*
X3818Y-18779D01*
X2421Y-14744D02*
X2421Y-15295D01*
X2893Y-13917D02*
X2421Y-14389D01*
X2421Y-14389D02*
X2421Y-14744D01*
X2716Y-15590D02*
X3582Y-15590D01*
X2421Y-15295D02*
X2716Y-15590D01*
X3582Y-15590D02*
X3818Y-15826D01*
X2893Y-12854D02*
X2893Y-13917D01*
X1888Y-11849D02*
X2893Y-12854D01*
X4527Y-11599D02*
X5457Y-11599D01*
X5457Y-11599D02*
X5925Y-12066D01*
X7895Y-10431D02*
X7895Y-11868D01*
X7895Y-11868D02*
X7696Y-12066D01*
X7696Y-12066D02*
X5925Y-12066D01*
X4212Y-15925D02*
X4212Y-15580D01*
X4212Y-18779D02*
X4212Y-15925D01*
X1914Y-11599D02*
X3090Y-12775D01*
X3090Y-12775D02*
X3090Y-13917D01*
X1914Y-11599D02*
X1377Y-11599D01*
X3090Y-14458D02*
X3090Y-13917D01*
X4212Y-15580D02*
X3090Y-14458D01*
X4527Y-11349D02*
X5512Y-11349D01*
X5512Y-11349D02*
X6033Y-11870D01*
X7695Y-10431D02*
X7695Y-11792D01*
X7695Y-11792D02*
X7618Y-11870D01*
X7618Y-11870D02*
X6033Y-11870D01*
X3720Y-14822D02*
X3287Y-14389D01*
X3720Y-14822D02*
X4724Y-15826D01*
X4724Y-15826D02*
X5236Y-15826D01*
X5236Y-15826D02*
X5393Y-15984D01*
X5393Y-18779D02*
X5393Y-15984D01*
X1939Y-11349D02*
X3287Y-12696D01*
X3287Y-12696D02*
X3287Y-13917D01*
X1939Y-11349D02*
X1377Y-11349D01*
X3287Y-14389D02*
X3287Y-13917D01*
X5905Y-11092D02*
X6348Y-11092D01*
X4527Y-11099D02*
X5898Y-11099D01*
X5898Y-11099D02*
X5905Y-11092D01*
X6715Y-10725D02*
X6456Y-10984D01*
X6348Y-11092D02*
X6456Y-10984D01*
X6715Y-10725D02*
X6715Y-10431D01*
X6341Y-11099D02*
X6348Y-11092D01*
X4527Y-14349D02*
X4999Y-14349D01*
X5157Y-14921D02*
X5334Y-15098D01*
X5157Y-14507D02*
X5157Y-14921D01*
X4999Y-14349D02*
X5157Y-14507D01*
X3917Y-14744D02*
X3484Y-14311D01*
X3917Y-14744D02*
X4803Y-15629D01*
X5413Y-15629D02*
X4803Y-15629D01*
X1965Y-11099D02*
X3484Y-12618D01*
X3484Y-12618D02*
X3484Y-13917D01*
X1965Y-11099D02*
X1377Y-11099D01*
X3484Y-14311D02*
X3484Y-13917D01*
X5413Y-15629D02*
X5787Y-16003D01*
X5787Y-18779D02*
X5787Y-18779D01*
X5787Y-16003D02*
X5787Y-18779D01*
X5413Y-15629D02*
X5433Y-15629D01*
X4527Y-10849D02*
X4987Y-10849D01*
X5675Y-10161D02*
X6045Y-10161D01*
X4987Y-10849D02*
X5675Y-10161D01*
X1898Y-10599D02*
X3385Y-12086D01*
X1377Y-10599D02*
X1898Y-10599D01*
X4527Y-10349D02*
X5142Y-10349D01*
X5531Y-9961D02*
X6045Y-9961D01*
X5142Y-10349D02*
X5531Y-9961D01*
X2219Y-10349D02*
X3700Y-11830D01*
X2219Y-10349D02*
X1377Y-10349D01*
X4527Y-10099D02*
X5117Y-10099D01*
X5455Y-9761D02*
X6045Y-9761D01*
X5117Y-10099D02*
X5455Y-9761D01*
X2461Y-10099D02*
X3799Y-11437D01*
X2461Y-10099D02*
X1377Y-10099D01*
X4527Y-9849D02*
X5101Y-9849D01*
X5379Y-9571D02*
X6045Y-9571D01*
X5101Y-9849D02*
X5379Y-9571D01*
X1377Y-9849D02*
X2625Y-9849D01*
X2625Y-9849D02*
X3307Y-10531D01*
X4527Y-9599D02*
X5085Y-9599D01*
X5313Y-9371D02*
X6045Y-9371D01*
X5085Y-9599D02*
X5313Y-9371D01*
X2945Y-9599D02*
X3543Y-10196D01*
X1377Y-9599D02*
X2945Y-9599D01*
X4527Y-9349D02*
X5069Y-9349D01*
X5248Y-9171D02*
X6045Y-9171D01*
X5069Y-9349D02*
X5248Y-9171D01*
X4527Y-9099D02*
X5044Y-9099D01*
X5162Y-8981D02*
X6045Y-8981D01*
X5044Y-9099D02*
X5162Y-8981D01*
X1377Y-9099D02*
X3046Y-9099D01*
X3046Y-9099D02*
X3779Y-9832D01*
X4527Y-8849D02*
X5038Y-8849D01*
X5106Y-8781D02*
X6045Y-8781D01*
X5038Y-8849D02*
X5106Y-8781D01*
X3249Y-8849D02*
X3602Y-9202D01*
X3249Y-8849D02*
X1377Y-8849D01*
X4527Y-8599D02*
X5042Y-8599D01*
X5060Y-8581D02*
X6045Y-8581D01*
X5042Y-8599D02*
X5060Y-8581D01*
X4527Y-14099D02*
X5378Y-14099D01*
X5378Y-14099D02*
X5669Y-14389D01*
X3408Y-8599D02*
X3415Y-8592D01*
X1377Y-8599D02*
X3408Y-8599D01*
X4527Y-8349D02*
X5367Y-8349D01*
X5398Y-8381D02*
X6045Y-8381D01*
X5367Y-8349D02*
X5398Y-8381D01*
X3058Y-8349D02*
X3120Y-8287D01*
X3058Y-8349D02*
X1377Y-8349D01*
X4527Y-7849D02*
X5132Y-7849D01*
X5474Y-8191D02*
X6045Y-8191D01*
X5132Y-7849D02*
X5474Y-8191D01*
X1377Y-7849D02*
X1914Y-7849D01*
X2116Y-8051D02*
X2805Y-8051D01*
X1914Y-7849D02*
X2116Y-8051D01*
X4527Y-7599D02*
X5148Y-7599D01*
X5540Y-7991D02*
X6045Y-7991D01*
X5148Y-7599D02*
X5540Y-7991D01*
X1959Y-7599D02*
X2116Y-7755D01*
X2116Y-7755D02*
X2529Y-7755D01*
X1959Y-7599D02*
X1377Y-7599D01*
X4527Y-7349D02*
X5164Y-7349D01*
X5606Y-7791D02*
X6045Y-7791D01*
X5164Y-7349D02*
X5606Y-7791D01*
X2142Y-7349D02*
X2244Y-7450D01*
X1377Y-7349D02*
X2142Y-7349D01*
X4527Y-7099D02*
X5180Y-7099D01*
X5681Y-7601D02*
X6045Y-7601D01*
X5180Y-7099D02*
X5681Y-7601D01*
X1377Y-7099D02*
X3225Y-7099D01*
X3562Y-3328D02*
X3452Y-3218D01*
X3562Y-6761D02*
X3562Y-3328D01*
X3225Y-7099D02*
X3562Y-6761D01*
X4527Y-6849D02*
X5205Y-6849D01*
X5757Y-7401D02*
X6045Y-7401D01*
X5205Y-6849D02*
X5757Y-7401D01*
X1377Y-6849D02*
X2205Y-6849D01*
X2411Y-3259D02*
X2452Y-3218D01*
X2411Y-6643D02*
X2411Y-3259D01*
X2205Y-6849D02*
X2411Y-6643D01*
X4527Y-6599D02*
X5221Y-6599D01*
X5823Y-7201D02*
X6045Y-7201D01*
X5221Y-6599D02*
X5823Y-7201D01*
X1377Y-6599D02*
X2002Y-6599D01*
X2106Y-3872D02*
X1452Y-3218D01*
X2106Y-6496D02*
X2106Y-3872D01*
X2002Y-6599D02*
X2106Y-6496D01*
X4527Y-6349D02*
X3967Y-6349D01*
X3868Y-3803D02*
X4452Y-3218D01*
X3868Y-6250D02*
X3868Y-3803D01*
X3967Y-6349D02*
X3868Y-6250D01*
X4527Y-13849D02*
X5876Y-13849D01*
X6200Y-18759D02*
X6180Y-18779D01*
X6200Y-14173D02*
X6200Y-18759D01*
X5876Y-13849D02*
X6200Y-14173D01*
X1377Y-5099D02*
X768Y-5099D01*
X944Y-2244D02*
X1427Y-2244D01*
X649Y-2539D02*
X944Y-2244D01*
X649Y-4980D02*
X649Y-2539D01*
X768Y-5099D02*
X649Y-4980D01*
X1377Y-4849D02*
X1377Y-4616D01*
X4527Y-4849D02*
X4530Y-4849D01*
X4530Y-4849D02*
X5187Y-4192D01*
X6574Y-18779D02*
X6574Y-14251D01*
X5922Y-13599D02*
X6574Y-14251D01*
X5922Y-13599D02*
X4527Y-13599D01*
X1437Y-15984D02*
X1870Y-16417D01*
X1870Y-18760D02*
X1850Y-18779D01*
X1870Y-16417D02*
X1870Y-18760D01*
G54D36*
X18425Y-8996D02*
X18425Y-7914D01*
X18425Y-7914D02*
X18426Y-7913D01*
X18425Y-12086D02*
X18425Y-11122D01*
X18425Y-11122D02*
X18425Y-11122D01*
G54D37*
X15051Y-9082D02*
X16212Y-9082D01*
X16212Y-9082D02*
X16299Y-8996D01*
G54D34*
X7854Y-6417D02*
X7854Y-5586D01*
G54D35*
X7695Y-6931D02*
X7695Y-6576D01*
G54D34*
X7695Y-6576D02*
X7854Y-6417D01*
X7854Y-5586D02*
X7700Y-5433D01*
X7854Y-5724D02*
X7700Y-5570D01*
X6715Y-6931D02*
X6715Y-6553D01*
X5862Y-3039D02*
X6169Y-2732D01*
X5862Y-5700D02*
X5862Y-3039D01*
X6715Y-6553D02*
X5862Y-5700D01*
X6169Y-2732D02*
X5753Y-2732D01*
X5226Y-2204D02*
X4705Y-2204D01*
X5753Y-2732D02*
X5226Y-2204D01*
X6169Y-1732D02*
X5501Y-1732D01*
X5236Y-1466D02*
X4705Y-1466D01*
X5501Y-1732D02*
X5236Y-1466D01*
X8285Y-2381D02*
X8285Y-2379D01*
X7637Y-1732D02*
X6169Y-1732D01*
X8285Y-2379D02*
X7637Y-1732D01*
X8285Y-6931D02*
X8285Y-2381D01*
X8285Y-2381D02*
X8285Y-2364D01*
X8285Y-2364D02*
X8287Y-2362D01*
X6169Y-732D02*
X4709Y-732D01*
X4709Y-732D02*
X4705Y-728D01*
X8485Y-6931D02*
X8485Y-5973D01*
X7179Y-732D02*
X6169Y-732D01*
X8572Y-2125D02*
X7179Y-732D01*
X8572Y-5885D02*
X8572Y-2125D01*
X8485Y-5973D02*
X8572Y-5885D01*
X6905Y-6931D02*
X6905Y-6381D01*
X6433Y-4836D02*
X6564Y-4704D01*
X6433Y-5909D02*
X6433Y-4836D01*
X6905Y-6381D02*
X6433Y-5909D01*
G54D36*
X14559Y-2696D02*
X15098Y-2696D01*
X16082Y-1712D02*
X17342Y-1712D01*
X15098Y-2696D02*
X16082Y-1712D01*
X14559Y-6043D02*
X15334Y-6043D01*
X15767Y-5610D02*
X17342Y-5610D01*
X15334Y-6043D02*
X15767Y-5610D01*
G54D34*
X8875Y-10431D02*
X8875Y-11424D01*
X8875Y-11424D02*
X9005Y-11555D01*
X9545Y-8581D02*
X10332Y-8581D01*
X10332Y-8581D02*
X10530Y-8779D01*
G54D36*
X11771Y-2125D02*
X11771Y-1240D01*
G54D34*
X8685Y-6393D02*
X8976Y-6102D01*
X8976Y-6102D02*
X10216Y-6102D01*
X8685Y-6931D02*
X8685Y-6393D01*
X10354Y-5984D02*
X10354Y-3543D01*
X10236Y-6102D02*
X10354Y-5984D01*
X10216Y-6102D02*
X10236Y-6102D01*
X10354Y-3543D02*
X11771Y-2125D01*
G54D36*
X12314Y-696D02*
X12559Y-696D01*
X11771Y-1240D02*
X12314Y-696D01*
G54D34*
X10551Y-3622D02*
X11751Y-2421D01*
X12283Y-2421D02*
X12559Y-2696D01*
X11751Y-2421D02*
X12283Y-2421D01*
X10236Y-6299D02*
X10314Y-6299D01*
X8875Y-6479D02*
X9055Y-6299D01*
X9055Y-6299D02*
X10236Y-6299D01*
X8875Y-6931D02*
X8875Y-6479D01*
X10551Y-6062D02*
X10551Y-3622D01*
X10314Y-6299D02*
X10551Y-6062D01*
G54D36*
X11811Y-5452D02*
X11811Y-4547D01*
G54D34*
X10236Y-6535D02*
X10728Y-6535D01*
X9075Y-6613D02*
X9153Y-6535D01*
X9153Y-6535D02*
X10236Y-6535D01*
X9075Y-6931D02*
X9075Y-6613D01*
X10728Y-6535D02*
X11161Y-6102D01*
X11811Y-5452D02*
X11161Y-6102D01*
G54D36*
X12314Y-4043D02*
X12559Y-4043D01*
X11811Y-4547D02*
X12314Y-4043D01*
G54D34*
X10767Y-6771D02*
X11771Y-5767D01*
X9545Y-7601D02*
X9938Y-7601D01*
G54D36*
X10767Y-6771D02*
X9938Y-7601D01*
G54D34*
X12283Y-5767D02*
X12559Y-6043D01*
X11771Y-5767D02*
X12283Y-5767D01*
X9842Y-9429D02*
X11181Y-9429D01*
X9545Y-9371D02*
X9784Y-9371D01*
X9784Y-9371D02*
X9842Y-9429D01*
G54D36*
X12834Y-11082D02*
X11279Y-9527D01*
X12834Y-11082D02*
X13051Y-11082D01*
G54D34*
X11181Y-9429D02*
X11279Y-9527D01*
X11299Y-9232D02*
X11633Y-9232D01*
X9860Y-9171D02*
X9921Y-9232D01*
X9921Y-9232D02*
X11299Y-9232D01*
X9545Y-9171D02*
X9860Y-9171D01*
G54D36*
X12901Y-9082D02*
X12559Y-8740D01*
X12559Y-8740D02*
X12125Y-8740D01*
X12125Y-8740D02*
X11653Y-9212D01*
X12901Y-9082D02*
X13051Y-9082D01*
G54D34*
X11633Y-9232D02*
X11653Y-9212D01*
X7305Y-10431D02*
X7305Y-11238D01*
X7305Y-11238D02*
X6988Y-11555D01*
X6905Y-10811D02*
X6161Y-11555D01*
X6905Y-10811D02*
X6905Y-10431D01*
X7105Y-11024D02*
X7105Y-10431D01*
X7105Y-11024D02*
X6574Y-11555D01*
X7495Y-11461D02*
X7495Y-10431D01*
X7495Y-11461D02*
X7401Y-11555D01*
G54D37*
X11968Y-15885D02*
X14074Y-15885D01*
X14074Y-15885D02*
X14094Y-15866D01*
X13838Y-6988D02*
X13838Y-7913D01*
X13838Y-7913D02*
X14743Y-7913D01*
X13051Y-8268D02*
X13483Y-8268D01*
X13483Y-8268D02*
X13838Y-7913D01*
X14094Y-15866D02*
X14094Y-15649D01*
X14094Y-15649D02*
X14173Y-15570D01*
X10707Y-15447D02*
X11529Y-15447D01*
X14304Y-15866D02*
X14723Y-15447D01*
X14094Y-15866D02*
X14304Y-15866D01*
X11529Y-15447D02*
X11968Y-15885D01*
X11968Y-15885D02*
X11948Y-15866D01*
X10707Y-15447D02*
X9848Y-15447D01*
X9848Y-15447D02*
X9842Y-15452D01*
M02*
