%FSLAX34Y34*%
G04 Gerber Fmt 3.4, Leading zero omitted, Abs format*
G04 (created by PCBNEW (2014-01-02 BZR 4600)-product) date Sun 26 Jan 2014 10:04:54 PM PST*
%MOIN*%
G01*
G70*
G90*
G04 APERTURE LIST*
%ADD10C,0.005906*%
%ADD11R,0.055000X0.055000*%
%ADD12C,0.055000*%
%ADD13C,0.059100*%
%ADD14C,0.078700*%
%ADD15C,0.035000*%
%ADD16C,0.029528*%
%ADD17C,0.010000*%
G04 APERTURE END LIST*
G54D10*
G54D11*
X8809Y-15801D03*
G54D12*
X8809Y-14801D03*
X8809Y-13801D03*
X8809Y-12801D03*
G54D11*
X1452Y-3218D03*
G54D12*
X2452Y-3218D03*
X3452Y-3218D03*
X4452Y-3218D03*
G54D13*
X5187Y-4192D03*
X9842Y-15452D03*
X9842Y-13641D03*
X7165Y-13503D03*
X11023Y-1131D03*
X13779Y-13208D03*
G54D14*
X17362Y-10059D03*
X18425Y-11122D03*
X18425Y-8996D03*
X16299Y-8996D03*
X16299Y-11122D03*
X17342Y-5610D03*
X18405Y-6673D03*
X18405Y-4547D03*
X16279Y-4547D03*
X16279Y-6673D03*
X17342Y-1712D03*
X18405Y-2775D03*
X18405Y-649D03*
X16279Y-649D03*
X16279Y-2775D03*
G54D15*
X13956Y-12381D03*
X10039Y-8897D03*
X9980Y-9763D03*
X17519Y-12775D03*
X10039Y-8070D03*
X7519Y-6279D03*
X9271Y-5452D03*
X16456Y-15433D03*
X6874Y-5850D03*
X9212Y-1240D03*
X9212Y-2224D03*
X12362Y-15374D03*
X5826Y-10531D03*
X6141Y-6633D03*
X9271Y-3799D03*
X13208Y-1712D03*
X12204Y-11988D03*
X11279Y-7549D03*
X11043Y-10000D03*
X7716Y-4704D03*
X5511Y-5393D03*
X3543Y-1476D03*
X639Y-5472D03*
X3789Y-12883D03*
X2125Y-13602D03*
X3080Y-16102D03*
X7057Y-16053D03*
X5846Y-15521D03*
X3779Y-8120D03*
X659Y-8100D03*
X669Y-9350D03*
X3740Y-10885D03*
X669Y-10846D03*
X669Y-12145D03*
X610Y-15964D03*
X10314Y-11279D03*
X6653Y-9153D03*
X7519Y-9153D03*
X6653Y-8287D03*
X7519Y-8287D03*
X8425Y-8287D03*
X9015Y-8287D03*
X9015Y-9153D03*
X8425Y-9153D03*
X9015Y-9822D03*
X8425Y-9822D03*
X7519Y-9822D03*
X6653Y-9822D03*
X9015Y-7539D03*
X8425Y-7539D03*
X7519Y-7539D03*
X6653Y-7539D03*
X15866Y-14232D03*
X11850Y-14192D03*
X10236Y-10255D03*
X9291Y-11200D03*
X4645Y-14842D03*
X1062Y-14842D03*
G54D16*
X3385Y-12086D03*
X3700Y-11830D03*
X3799Y-11437D03*
X3307Y-10531D03*
X3543Y-10196D03*
X3779Y-9832D03*
X3602Y-9202D03*
X3415Y-8592D03*
X3120Y-8287D03*
X2805Y-8051D03*
X2529Y-7755D03*
X2244Y-7450D03*
G54D15*
X1377Y-4616D03*
X9005Y-11555D03*
G54D16*
X6988Y-11555D03*
X6161Y-11555D03*
X6574Y-11555D03*
X7401Y-11555D03*
G54D15*
X13838Y-6988D03*
X14173Y-15570D03*
G54D10*
G36*
X18926Y-16190D02*
X17921Y-16190D01*
X17921Y-12695D01*
X17860Y-12548D01*
X17747Y-12434D01*
X17600Y-12373D01*
X17440Y-12373D01*
X17292Y-12434D01*
X17178Y-12547D01*
X17117Y-12695D01*
X17117Y-12855D01*
X17178Y-13003D01*
X17291Y-13116D01*
X17439Y-13177D01*
X17599Y-13177D01*
X17747Y-13116D01*
X17860Y-13003D01*
X17921Y-12855D01*
X17921Y-12695D01*
X17921Y-16190D01*
X16919Y-16190D01*
X16919Y-10999D01*
X16825Y-10770D01*
X16651Y-10596D01*
X16423Y-10501D01*
X16176Y-10501D01*
X15948Y-10595D01*
X15773Y-10770D01*
X15678Y-10998D01*
X15678Y-11244D01*
X15772Y-11473D01*
X15947Y-11647D01*
X16175Y-11742D01*
X16422Y-11742D01*
X16650Y-11648D01*
X16825Y-11474D01*
X16919Y-11246D01*
X16919Y-10999D01*
X16919Y-16190D01*
X16858Y-16190D01*
X16858Y-15353D01*
X16797Y-15205D01*
X16684Y-15092D01*
X16537Y-15030D01*
X16377Y-15030D01*
X16268Y-15075D01*
X16268Y-14152D01*
X16207Y-14004D01*
X16094Y-13891D01*
X15946Y-13830D01*
X15786Y-13830D01*
X15638Y-13891D01*
X15525Y-14004D01*
X15464Y-14151D01*
X15463Y-14311D01*
X15525Y-14459D01*
X15638Y-14573D01*
X15785Y-14634D01*
X15945Y-14634D01*
X16093Y-14573D01*
X16206Y-14460D01*
X16268Y-14312D01*
X16268Y-14152D01*
X16268Y-15075D01*
X16229Y-15091D01*
X16115Y-15204D01*
X16054Y-15352D01*
X16054Y-15512D01*
X16115Y-15660D01*
X16228Y-15773D01*
X16376Y-15835D01*
X16536Y-15835D01*
X16684Y-15774D01*
X16797Y-15661D01*
X16858Y-15513D01*
X16858Y-15353D01*
X16858Y-16190D01*
X14575Y-16190D01*
X14575Y-15491D01*
X14514Y-15343D01*
X14401Y-15230D01*
X14358Y-15212D01*
X14358Y-12302D01*
X14297Y-12154D01*
X14240Y-12097D01*
X14240Y-6908D01*
X14179Y-6760D01*
X14066Y-6647D01*
X13918Y-6586D01*
X13758Y-6585D01*
X13611Y-6647D01*
X13497Y-6760D01*
X13436Y-6907D01*
X13436Y-7067D01*
X13497Y-7215D01*
X13610Y-7328D01*
X13758Y-7390D01*
X13918Y-7390D01*
X14066Y-7329D01*
X14179Y-7216D01*
X14240Y-7068D01*
X14240Y-6908D01*
X14240Y-12097D01*
X14184Y-12041D01*
X14037Y-11979D01*
X13877Y-11979D01*
X13729Y-12040D01*
X13615Y-12153D01*
X13554Y-12301D01*
X13554Y-12461D01*
X13615Y-12609D01*
X13674Y-12668D01*
X13489Y-12737D01*
X13455Y-12760D01*
X13432Y-12860D01*
X13779Y-13206D01*
X14126Y-12860D01*
X14103Y-12760D01*
X14098Y-12758D01*
X14184Y-12723D01*
X14297Y-12609D01*
X14358Y-12462D01*
X14358Y-12302D01*
X14358Y-15212D01*
X14325Y-15198D01*
X14325Y-13120D01*
X14250Y-12918D01*
X14227Y-12884D01*
X14127Y-12862D01*
X13781Y-13208D01*
X14127Y-13555D01*
X14227Y-13532D01*
X14317Y-13336D01*
X14325Y-13120D01*
X14325Y-15198D01*
X14253Y-15168D01*
X14126Y-15168D01*
X14126Y-13556D01*
X13779Y-13210D01*
X13777Y-13212D01*
X13777Y-13208D01*
X13431Y-12862D01*
X13331Y-12884D01*
X13241Y-13080D01*
X13233Y-13296D01*
X13308Y-13498D01*
X13331Y-13532D01*
X13431Y-13555D01*
X13777Y-13208D01*
X13777Y-13212D01*
X13432Y-13556D01*
X13455Y-13656D01*
X13651Y-13746D01*
X13867Y-13754D01*
X14069Y-13679D01*
X14103Y-13656D01*
X14126Y-13556D01*
X14126Y-15168D01*
X14093Y-15168D01*
X13945Y-15229D01*
X13832Y-15342D01*
X13771Y-15490D01*
X13770Y-15650D01*
X13832Y-15798D01*
X13945Y-15911D01*
X14092Y-15972D01*
X14252Y-15973D01*
X14400Y-15912D01*
X14513Y-15798D01*
X14575Y-15651D01*
X14575Y-15491D01*
X14575Y-16190D01*
X12764Y-16190D01*
X12764Y-15294D01*
X12703Y-15146D01*
X12590Y-15033D01*
X12442Y-14971D01*
X12282Y-14971D01*
X12252Y-14984D01*
X12252Y-14113D01*
X12191Y-13965D01*
X12078Y-13852D01*
X11930Y-13790D01*
X11770Y-13790D01*
X11622Y-13851D01*
X11546Y-13928D01*
X11546Y-1028D01*
X11466Y-836D01*
X11320Y-689D01*
X11128Y-609D01*
X10920Y-609D01*
X10727Y-688D01*
X10580Y-835D01*
X10501Y-1027D01*
X10500Y-1235D01*
X10580Y-1427D01*
X10727Y-1574D01*
X10919Y-1654D01*
X11127Y-1654D01*
X11319Y-1575D01*
X11466Y-1428D01*
X11546Y-1236D01*
X11546Y-1028D01*
X11546Y-13928D01*
X11509Y-13964D01*
X11448Y-14112D01*
X11448Y-14272D01*
X11509Y-14420D01*
X11622Y-14533D01*
X11770Y-14595D01*
X11930Y-14595D01*
X12077Y-14534D01*
X12191Y-14421D01*
X12252Y-14273D01*
X12252Y-14113D01*
X12252Y-14984D01*
X12134Y-15032D01*
X12021Y-15145D01*
X11960Y-15293D01*
X11959Y-15453D01*
X12021Y-15601D01*
X12134Y-15714D01*
X12281Y-15776D01*
X12441Y-15776D01*
X12589Y-15715D01*
X12702Y-15602D01*
X12764Y-15454D01*
X12764Y-15294D01*
X12764Y-16190D01*
X11270Y-16190D01*
X11270Y-12754D01*
X10638Y-12122D01*
X10638Y-10176D01*
X10577Y-10028D01*
X10464Y-9915D01*
X10441Y-9905D01*
X10441Y-8817D01*
X10441Y-7991D01*
X10380Y-7843D01*
X10267Y-7730D01*
X10119Y-7668D01*
X9959Y-7668D01*
X9811Y-7729D01*
X9698Y-7842D01*
X9673Y-7902D01*
X9673Y-5373D01*
X9614Y-5230D01*
X9614Y-2144D01*
X9614Y-1160D01*
X9553Y-1012D01*
X9440Y-899D01*
X9292Y-838D01*
X9132Y-837D01*
X8985Y-899D01*
X8871Y-1012D01*
X8810Y-1159D01*
X8810Y-1319D01*
X8871Y-1467D01*
X8984Y-1580D01*
X9132Y-1642D01*
X9292Y-1642D01*
X9440Y-1581D01*
X9553Y-1468D01*
X9614Y-1320D01*
X9614Y-1160D01*
X9614Y-2144D01*
X9553Y-1996D01*
X9440Y-1883D01*
X9292Y-1822D01*
X9132Y-1822D01*
X8985Y-1883D01*
X8871Y-1996D01*
X8810Y-2144D01*
X8810Y-2304D01*
X8871Y-2451D01*
X8984Y-2565D01*
X9132Y-2626D01*
X9292Y-2626D01*
X9440Y-2565D01*
X9553Y-2452D01*
X9614Y-2304D01*
X9614Y-2144D01*
X9614Y-5230D01*
X9612Y-5225D01*
X9499Y-5112D01*
X9352Y-5050D01*
X9192Y-5050D01*
X9044Y-5111D01*
X8930Y-5224D01*
X8869Y-5372D01*
X8869Y-5532D01*
X8930Y-5680D01*
X9043Y-5793D01*
X9191Y-5854D01*
X9351Y-5854D01*
X9499Y-5793D01*
X9612Y-5680D01*
X9673Y-5533D01*
X9673Y-5373D01*
X9673Y-7902D01*
X9637Y-7990D01*
X9637Y-8150D01*
X9698Y-8298D01*
X9811Y-8411D01*
X9959Y-8472D01*
X10119Y-8473D01*
X10266Y-8412D01*
X10380Y-8298D01*
X10441Y-8151D01*
X10441Y-7991D01*
X10441Y-8817D01*
X10380Y-8670D01*
X10267Y-8556D01*
X10119Y-8495D01*
X9959Y-8495D01*
X9811Y-8556D01*
X9698Y-8669D01*
X9637Y-8817D01*
X9637Y-8977D01*
X9698Y-9125D01*
X9811Y-9238D01*
X9959Y-9299D01*
X10119Y-9299D01*
X10266Y-9238D01*
X10380Y-9125D01*
X10441Y-8977D01*
X10441Y-8817D01*
X10441Y-9905D01*
X10369Y-9875D01*
X10382Y-9844D01*
X10382Y-9684D01*
X10321Y-9536D01*
X10208Y-9423D01*
X10060Y-9361D01*
X9900Y-9361D01*
X9752Y-9422D01*
X9639Y-9535D01*
X9578Y-9683D01*
X9578Y-9843D01*
X9639Y-9991D01*
X9752Y-10104D01*
X9847Y-10143D01*
X9834Y-10175D01*
X9833Y-10335D01*
X9895Y-10483D01*
X10008Y-10596D01*
X10155Y-10658D01*
X10315Y-10658D01*
X10463Y-10597D01*
X10576Y-10484D01*
X10638Y-10336D01*
X10638Y-10176D01*
X10638Y-12122D01*
X9693Y-11177D01*
X9693Y-11121D01*
X9632Y-10973D01*
X9519Y-10860D01*
X9371Y-10798D01*
X9314Y-10798D01*
X9259Y-10744D01*
X9074Y-10855D01*
X9063Y-10859D01*
X9058Y-10864D01*
X8777Y-11033D01*
X8889Y-11144D01*
X8889Y-11168D01*
X8778Y-11213D01*
X8665Y-11327D01*
X8603Y-11474D01*
X8603Y-11634D01*
X8664Y-11782D01*
X8777Y-11895D01*
X8925Y-11957D01*
X9085Y-11957D01*
X9233Y-11896D01*
X9346Y-11783D01*
X9399Y-11655D01*
X10776Y-13032D01*
X10776Y-16190D01*
X10388Y-16190D01*
X10388Y-13554D01*
X10313Y-13351D01*
X10290Y-13317D01*
X10190Y-13295D01*
X10189Y-13296D01*
X10189Y-13293D01*
X10166Y-13193D01*
X9970Y-13103D01*
X9754Y-13095D01*
X9552Y-13170D01*
X9518Y-13193D01*
X9495Y-13293D01*
X9842Y-13640D01*
X10189Y-13293D01*
X10189Y-13296D01*
X9844Y-13641D01*
X10190Y-13988D01*
X10290Y-13965D01*
X10380Y-13769D01*
X10388Y-13554D01*
X10388Y-16190D01*
X10365Y-16190D01*
X10365Y-15349D01*
X10285Y-15157D01*
X10189Y-15060D01*
X10189Y-13989D01*
X9842Y-13643D01*
X9495Y-13989D01*
X9518Y-14089D01*
X9714Y-14179D01*
X9930Y-14187D01*
X10132Y-14112D01*
X10166Y-14089D01*
X10189Y-13989D01*
X10189Y-15060D01*
X10138Y-15009D01*
X9946Y-14930D01*
X9739Y-14930D01*
X9546Y-15009D01*
X9399Y-15156D01*
X9319Y-15348D01*
X9319Y-15556D01*
X9399Y-15748D01*
X9546Y-15895D01*
X9738Y-15975D01*
X9946Y-15975D01*
X10138Y-15896D01*
X10285Y-15749D01*
X10365Y-15557D01*
X10365Y-15349D01*
X10365Y-16190D01*
X9282Y-16190D01*
X9311Y-16121D01*
X9311Y-16030D01*
X9311Y-15480D01*
X9276Y-15397D01*
X9212Y-15333D01*
X9129Y-15299D01*
X9038Y-15299D01*
X8919Y-15299D01*
X9093Y-15227D01*
X9234Y-15086D01*
X9311Y-14901D01*
X9311Y-14701D01*
X9235Y-14517D01*
X9093Y-14375D01*
X8914Y-14301D01*
X9093Y-14227D01*
X9234Y-14086D01*
X9311Y-13901D01*
X9311Y-13769D01*
X9371Y-13931D01*
X9394Y-13965D01*
X9494Y-13988D01*
X9840Y-13641D01*
X9494Y-13295D01*
X9394Y-13317D01*
X9304Y-13513D01*
X9298Y-13671D01*
X9235Y-13517D01*
X9093Y-13375D01*
X8914Y-13301D01*
X9093Y-13227D01*
X9234Y-13086D01*
X9311Y-12901D01*
X9311Y-12701D01*
X9235Y-12517D01*
X9093Y-12375D01*
X8909Y-12299D01*
X8709Y-12298D01*
X8524Y-12375D01*
X8383Y-12516D01*
X8306Y-12700D01*
X8306Y-12900D01*
X8383Y-13085D01*
X8524Y-13226D01*
X8703Y-13301D01*
X8524Y-13375D01*
X8383Y-13516D01*
X8306Y-13700D01*
X8306Y-13900D01*
X8383Y-14085D01*
X8524Y-14226D01*
X8703Y-14301D01*
X8524Y-14375D01*
X8383Y-14516D01*
X8306Y-14700D01*
X8306Y-14900D01*
X8383Y-15085D01*
X8524Y-15226D01*
X8698Y-15299D01*
X8488Y-15299D01*
X8405Y-15333D01*
X8341Y-15397D01*
X8306Y-15480D01*
X8306Y-15571D01*
X8306Y-16121D01*
X8335Y-16190D01*
X7776Y-16190D01*
X7776Y-11480D01*
X7719Y-11343D01*
X7614Y-11237D01*
X7476Y-11180D01*
X7327Y-11180D01*
X7194Y-11235D01*
X7063Y-11180D01*
X6913Y-11180D01*
X6781Y-11235D01*
X6649Y-11180D01*
X6543Y-11180D01*
X6543Y-6554D01*
X6482Y-6406D01*
X6369Y-6293D01*
X6222Y-6231D01*
X6062Y-6231D01*
X5914Y-6292D01*
X5800Y-6405D01*
X5739Y-6553D01*
X5739Y-6713D01*
X5800Y-6861D01*
X5913Y-6974D01*
X6061Y-7035D01*
X6221Y-7036D01*
X6369Y-6974D01*
X6482Y-6861D01*
X6543Y-6714D01*
X6543Y-6554D01*
X6543Y-11180D01*
X6500Y-11180D01*
X6367Y-11235D01*
X6236Y-11180D01*
X6229Y-11180D01*
X6229Y-10451D01*
X6167Y-10303D01*
X6054Y-10190D01*
X5907Y-10129D01*
X5747Y-10129D01*
X5709Y-10144D01*
X5709Y-4089D01*
X5630Y-3897D01*
X5483Y-3750D01*
X5291Y-3670D01*
X5083Y-3670D01*
X4955Y-3723D01*
X4955Y-3119D01*
X4878Y-2934D01*
X4737Y-2793D01*
X4553Y-2716D01*
X4353Y-2716D01*
X4168Y-2792D01*
X4027Y-2933D01*
X3952Y-3113D01*
X3878Y-2934D01*
X3737Y-2793D01*
X3553Y-2716D01*
X3353Y-2716D01*
X3168Y-2792D01*
X3027Y-2933D01*
X2952Y-3113D01*
X2878Y-2934D01*
X2737Y-2793D01*
X2553Y-2716D01*
X2353Y-2716D01*
X2168Y-2792D01*
X2027Y-2933D01*
X1954Y-3107D01*
X1954Y-2898D01*
X1920Y-2814D01*
X1856Y-2750D01*
X1772Y-2716D01*
X1682Y-2716D01*
X1132Y-2716D01*
X1049Y-2750D01*
X985Y-2814D01*
X950Y-2898D01*
X950Y-2988D01*
X950Y-3538D01*
X985Y-3622D01*
X1049Y-3686D01*
X1132Y-3720D01*
X1222Y-3720D01*
X1772Y-3720D01*
X1856Y-3686D01*
X1920Y-3622D01*
X1954Y-3538D01*
X1954Y-3448D01*
X1954Y-3328D01*
X2026Y-3502D01*
X2167Y-3643D01*
X2352Y-3720D01*
X2552Y-3720D01*
X2736Y-3644D01*
X2878Y-3503D01*
X2952Y-3323D01*
X3026Y-3502D01*
X3167Y-3643D01*
X3352Y-3720D01*
X3552Y-3720D01*
X3736Y-3644D01*
X3878Y-3503D01*
X3952Y-3323D01*
X4026Y-3502D01*
X4167Y-3643D01*
X4352Y-3720D01*
X4552Y-3720D01*
X4736Y-3644D01*
X4878Y-3503D01*
X4954Y-3318D01*
X4955Y-3119D01*
X4955Y-3723D01*
X4891Y-3749D01*
X4744Y-3896D01*
X4664Y-4088D01*
X4664Y-4296D01*
X4743Y-4488D01*
X4890Y-4635D01*
X5082Y-4715D01*
X5290Y-4715D01*
X5482Y-4636D01*
X5629Y-4489D01*
X5709Y-4297D01*
X5709Y-4089D01*
X5709Y-10144D01*
X5599Y-10190D01*
X5486Y-10303D01*
X5424Y-10451D01*
X5424Y-10611D01*
X5485Y-10759D01*
X5598Y-10872D01*
X5746Y-10933D01*
X5906Y-10933D01*
X6054Y-10872D01*
X6167Y-10759D01*
X6228Y-10611D01*
X6229Y-10451D01*
X6229Y-11180D01*
X6087Y-11180D01*
X5949Y-11237D01*
X5843Y-11342D01*
X5786Y-11480D01*
X5786Y-11629D01*
X5843Y-11767D01*
X5948Y-11872D01*
X6086Y-11929D01*
X6235Y-11929D01*
X6368Y-11875D01*
X6499Y-11929D01*
X6649Y-11929D01*
X6781Y-11875D01*
X6913Y-11929D01*
X7062Y-11929D01*
X7195Y-11875D01*
X7326Y-11929D01*
X7475Y-11929D01*
X7613Y-11873D01*
X7719Y-11767D01*
X7776Y-11629D01*
X7776Y-11480D01*
X7776Y-16190D01*
X7688Y-16190D01*
X7688Y-13400D01*
X7608Y-13208D01*
X7461Y-13061D01*
X7269Y-12981D01*
X7061Y-12981D01*
X6869Y-13060D01*
X6722Y-13207D01*
X6642Y-13399D01*
X6642Y-13607D01*
X6722Y-13799D01*
X6868Y-13946D01*
X7060Y-14026D01*
X7268Y-14026D01*
X7461Y-13947D01*
X7608Y-13800D01*
X7687Y-13608D01*
X7688Y-13400D01*
X7688Y-16190D01*
X5047Y-16190D01*
X5047Y-14762D01*
X4986Y-14615D01*
X4873Y-14501D01*
X4726Y-14440D01*
X4566Y-14440D01*
X4418Y-14501D01*
X4304Y-14614D01*
X4243Y-14762D01*
X4243Y-14922D01*
X4304Y-15070D01*
X4417Y-15183D01*
X4565Y-15244D01*
X4725Y-15244D01*
X4873Y-15183D01*
X4986Y-15070D01*
X5047Y-14922D01*
X5047Y-14762D01*
X5047Y-16190D01*
X4174Y-16190D01*
X4174Y-11362D01*
X4154Y-11315D01*
X4154Y-9758D01*
X4097Y-9620D01*
X3992Y-9515D01*
X3870Y-9464D01*
X3919Y-9415D01*
X3977Y-9277D01*
X3977Y-9128D01*
X3920Y-8990D01*
X3814Y-8885D01*
X3700Y-8837D01*
X3732Y-8805D01*
X3790Y-8667D01*
X3790Y-8518D01*
X3733Y-8380D01*
X3627Y-8274D01*
X3494Y-8219D01*
X3494Y-8213D01*
X3485Y-8189D01*
X3485Y-4270D01*
X3404Y-4074D01*
X3254Y-3924D01*
X3059Y-3843D01*
X2847Y-3843D01*
X2651Y-3924D01*
X2501Y-4074D01*
X2420Y-4269D01*
X2420Y-4481D01*
X2501Y-4677D01*
X2650Y-4826D01*
X2846Y-4908D01*
X3058Y-4908D01*
X3253Y-4827D01*
X3403Y-4677D01*
X3484Y-4482D01*
X3485Y-4270D01*
X3485Y-8189D01*
X3438Y-8075D01*
X3332Y-7969D01*
X3194Y-7912D01*
X3153Y-7912D01*
X3123Y-7839D01*
X3017Y-7733D01*
X2904Y-7686D01*
X2904Y-7681D01*
X2847Y-7543D01*
X2742Y-7438D01*
X2618Y-7387D01*
X2618Y-7376D01*
X2562Y-7238D01*
X2456Y-7133D01*
X2318Y-7076D01*
X2169Y-7075D01*
X2032Y-7132D01*
X1926Y-7238D01*
X1869Y-7375D01*
X1869Y-7525D01*
X1926Y-7662D01*
X2031Y-7768D01*
X2154Y-7819D01*
X2154Y-7830D01*
X2211Y-7967D01*
X2316Y-8073D01*
X2430Y-8120D01*
X2430Y-8125D01*
X2487Y-8263D01*
X2592Y-8368D01*
X2730Y-8425D01*
X2771Y-8425D01*
X2802Y-8499D01*
X2907Y-8604D01*
X3040Y-8660D01*
X3040Y-8666D01*
X3097Y-8804D01*
X3202Y-8910D01*
X3317Y-8957D01*
X3284Y-8990D01*
X3227Y-9127D01*
X3227Y-9276D01*
X3284Y-9414D01*
X3389Y-9520D01*
X3511Y-9570D01*
X3461Y-9620D01*
X3404Y-9757D01*
X3404Y-9848D01*
X3331Y-9878D01*
X3225Y-9984D01*
X3168Y-10121D01*
X3168Y-10183D01*
X3095Y-10213D01*
X2989Y-10318D01*
X2932Y-10456D01*
X2932Y-10605D01*
X2989Y-10743D01*
X3094Y-10849D01*
X3232Y-10906D01*
X3381Y-10906D01*
X3519Y-10849D01*
X3624Y-10744D01*
X3681Y-10606D01*
X3681Y-10545D01*
X3755Y-10514D01*
X3860Y-10409D01*
X3918Y-10271D01*
X3918Y-10180D01*
X3991Y-10150D01*
X4097Y-10045D01*
X4154Y-9907D01*
X4154Y-9758D01*
X4154Y-11315D01*
X4117Y-11224D01*
X4011Y-11119D01*
X3874Y-11062D01*
X3724Y-11062D01*
X3587Y-11119D01*
X3481Y-11224D01*
X3424Y-11362D01*
X3424Y-11511D01*
X3443Y-11557D01*
X3383Y-11618D01*
X3344Y-11711D01*
X3311Y-11711D01*
X3173Y-11768D01*
X3068Y-11874D01*
X3011Y-12011D01*
X3010Y-12160D01*
X3067Y-12298D01*
X3173Y-12404D01*
X3310Y-12461D01*
X3460Y-12461D01*
X3597Y-12404D01*
X3703Y-12299D01*
X3742Y-12205D01*
X3775Y-12205D01*
X3912Y-12148D01*
X4018Y-12043D01*
X4075Y-11905D01*
X4075Y-11756D01*
X4056Y-11709D01*
X4116Y-11649D01*
X4173Y-11511D01*
X4174Y-11362D01*
X4174Y-16190D01*
X3485Y-16190D01*
X3485Y-14967D01*
X3404Y-14771D01*
X3254Y-14621D01*
X3059Y-14540D01*
X2847Y-14540D01*
X2651Y-14621D01*
X2501Y-14770D01*
X2420Y-14966D01*
X2420Y-15178D01*
X2501Y-15373D01*
X2650Y-15523D01*
X2846Y-15605D01*
X3058Y-15605D01*
X3253Y-15524D01*
X3403Y-15374D01*
X3484Y-15179D01*
X3485Y-14967D01*
X3485Y-16190D01*
X1780Y-16190D01*
X1780Y-4536D01*
X1719Y-4388D01*
X1606Y-4275D01*
X1458Y-4214D01*
X1298Y-4213D01*
X1150Y-4275D01*
X1037Y-4388D01*
X975Y-4535D01*
X975Y-4695D01*
X1036Y-4843D01*
X1149Y-4956D01*
X1297Y-5018D01*
X1457Y-5018D01*
X1605Y-4957D01*
X1718Y-4844D01*
X1780Y-4696D01*
X1780Y-4536D01*
X1780Y-16190D01*
X1465Y-16190D01*
X1465Y-14762D01*
X1404Y-14615D01*
X1291Y-14501D01*
X1143Y-14440D01*
X983Y-14440D01*
X835Y-14501D01*
X722Y-14614D01*
X660Y-14762D01*
X660Y-14922D01*
X721Y-15070D01*
X834Y-15183D01*
X982Y-15244D01*
X1142Y-15244D01*
X1290Y-15183D01*
X1403Y-15070D01*
X1465Y-14922D01*
X1465Y-14762D01*
X1465Y-16190D01*
X296Y-16190D01*
X296Y-286D01*
X6682Y-286D01*
X6682Y-5494D01*
X6646Y-5509D01*
X6533Y-5622D01*
X6471Y-5770D01*
X6471Y-5930D01*
X6532Y-6077D01*
X6645Y-6191D01*
X6793Y-6252D01*
X6953Y-6252D01*
X7101Y-6191D01*
X7121Y-6172D01*
X7128Y-6172D01*
X7117Y-6199D01*
X7117Y-6359D01*
X7178Y-6507D01*
X7291Y-6620D01*
X7439Y-6681D01*
X7599Y-6681D01*
X7747Y-6620D01*
X7860Y-6507D01*
X7921Y-6359D01*
X7921Y-6199D01*
X7860Y-6052D01*
X7747Y-5938D01*
X7600Y-5877D01*
X7440Y-5877D01*
X7292Y-5938D01*
X7259Y-5971D01*
X7276Y-5930D01*
X7276Y-5770D01*
X7215Y-5622D01*
X7175Y-5583D01*
X7175Y-286D01*
X15741Y-286D01*
X15644Y-498D01*
X15634Y-752D01*
X15723Y-991D01*
X15750Y-1032D01*
X15860Y-1066D01*
X16277Y-649D01*
X16272Y-644D01*
X16273Y-642D01*
X16279Y-647D01*
X16285Y-642D01*
X16286Y-644D01*
X16281Y-649D01*
X16698Y-1066D01*
X16808Y-1032D01*
X16914Y-800D01*
X16924Y-546D01*
X16835Y-307D01*
X16821Y-286D01*
X17867Y-286D01*
X17770Y-498D01*
X17760Y-752D01*
X17849Y-991D01*
X17876Y-1032D01*
X17986Y-1066D01*
X18403Y-649D01*
X18398Y-644D01*
X18399Y-642D01*
X18405Y-647D01*
X18411Y-642D01*
X18412Y-644D01*
X18407Y-649D01*
X18824Y-1066D01*
X18926Y-1034D01*
X18926Y-2390D01*
X18824Y-2358D01*
X18822Y-2360D01*
X18822Y-2356D01*
X18822Y-1068D01*
X18405Y-651D01*
X17988Y-1068D01*
X18022Y-1178D01*
X18254Y-1284D01*
X18508Y-1294D01*
X18747Y-1205D01*
X18788Y-1178D01*
X18822Y-1068D01*
X18822Y-2356D01*
X18788Y-2246D01*
X18556Y-2140D01*
X18302Y-2130D01*
X18063Y-2219D01*
X18022Y-2246D01*
X17988Y-2356D01*
X18405Y-2773D01*
X18822Y-2356D01*
X18822Y-2360D01*
X18407Y-2775D01*
X18824Y-3192D01*
X18926Y-3160D01*
X18926Y-4161D01*
X18824Y-4130D01*
X18822Y-4131D01*
X18822Y-4128D01*
X18822Y-3194D01*
X18405Y-2777D01*
X18403Y-2778D01*
X18403Y-2775D01*
X17986Y-2358D01*
X17963Y-2365D01*
X17963Y-1589D01*
X17869Y-1361D01*
X17694Y-1186D01*
X17466Y-1092D01*
X17219Y-1091D01*
X16991Y-1186D01*
X16816Y-1360D01*
X16721Y-1588D01*
X16721Y-1835D01*
X16816Y-2063D01*
X16990Y-2238D01*
X17218Y-2333D01*
X17465Y-2333D01*
X17693Y-2239D01*
X17868Y-2064D01*
X17963Y-1836D01*
X17963Y-1589D01*
X17963Y-2365D01*
X17876Y-2392D01*
X17770Y-2624D01*
X17760Y-2878D01*
X17849Y-3117D01*
X17876Y-3158D01*
X17986Y-3192D01*
X18403Y-2775D01*
X18403Y-2778D01*
X17988Y-3194D01*
X18022Y-3304D01*
X18254Y-3410D01*
X18508Y-3420D01*
X18747Y-3331D01*
X18788Y-3304D01*
X18822Y-3194D01*
X18822Y-4128D01*
X18788Y-4018D01*
X18556Y-3912D01*
X18302Y-3902D01*
X18063Y-3991D01*
X18022Y-4018D01*
X17988Y-4128D01*
X18405Y-4545D01*
X18822Y-4128D01*
X18822Y-4131D01*
X18407Y-4547D01*
X18824Y-4964D01*
X18926Y-4932D01*
X18926Y-6287D01*
X18824Y-6256D01*
X18822Y-6257D01*
X18822Y-6254D01*
X18822Y-4966D01*
X18405Y-4548D01*
X18403Y-4550D01*
X18403Y-4547D01*
X17986Y-4130D01*
X17876Y-4164D01*
X17770Y-4395D01*
X17760Y-4650D01*
X17849Y-4889D01*
X17876Y-4930D01*
X17986Y-4964D01*
X18403Y-4547D01*
X18403Y-4550D01*
X17988Y-4966D01*
X18022Y-5076D01*
X18254Y-5182D01*
X18508Y-5191D01*
X18747Y-5103D01*
X18788Y-5076D01*
X18822Y-4966D01*
X18822Y-6254D01*
X18788Y-6144D01*
X18556Y-6038D01*
X18302Y-6028D01*
X18063Y-6117D01*
X18022Y-6144D01*
X17988Y-6254D01*
X18405Y-6671D01*
X18822Y-6254D01*
X18822Y-6257D01*
X18407Y-6673D01*
X18824Y-7090D01*
X18926Y-7058D01*
X18926Y-8619D01*
X18822Y-8515D01*
X18822Y-7092D01*
X18405Y-6674D01*
X18403Y-6676D01*
X18403Y-6673D01*
X17986Y-6256D01*
X17963Y-6263D01*
X17963Y-5487D01*
X17869Y-5259D01*
X17694Y-5084D01*
X17466Y-4989D01*
X17219Y-4989D01*
X16991Y-5083D01*
X16924Y-5150D01*
X16924Y-4443D01*
X16924Y-2672D01*
X16835Y-2433D01*
X16808Y-2392D01*
X16698Y-2358D01*
X16696Y-2360D01*
X16696Y-2356D01*
X16696Y-1068D01*
X16279Y-651D01*
X15862Y-1068D01*
X15896Y-1178D01*
X16128Y-1284D01*
X16382Y-1294D01*
X16621Y-1205D01*
X16662Y-1178D01*
X16696Y-1068D01*
X16696Y-2356D01*
X16662Y-2246D01*
X16430Y-2140D01*
X16176Y-2130D01*
X15937Y-2219D01*
X15896Y-2246D01*
X15862Y-2356D01*
X16279Y-2773D01*
X16696Y-2356D01*
X16696Y-2360D01*
X16281Y-2775D01*
X16698Y-3192D01*
X16808Y-3158D01*
X16914Y-2926D01*
X16924Y-2672D01*
X16924Y-4443D01*
X16835Y-4205D01*
X16808Y-4164D01*
X16698Y-4130D01*
X16696Y-4131D01*
X16696Y-4128D01*
X16696Y-3194D01*
X16279Y-2777D01*
X16277Y-2778D01*
X16277Y-2775D01*
X15860Y-2358D01*
X15750Y-2392D01*
X15644Y-2624D01*
X15634Y-2878D01*
X15723Y-3117D01*
X15750Y-3158D01*
X15860Y-3192D01*
X16277Y-2775D01*
X16277Y-2778D01*
X15862Y-3194D01*
X15896Y-3304D01*
X16128Y-3410D01*
X16382Y-3420D01*
X16621Y-3331D01*
X16662Y-3304D01*
X16696Y-3194D01*
X16696Y-4128D01*
X16662Y-4018D01*
X16430Y-3912D01*
X16176Y-3902D01*
X15937Y-3991D01*
X15896Y-4018D01*
X15862Y-4128D01*
X16279Y-4545D01*
X16696Y-4128D01*
X16696Y-4131D01*
X16281Y-4547D01*
X16698Y-4964D01*
X16808Y-4930D01*
X16914Y-4698D01*
X16924Y-4443D01*
X16924Y-5150D01*
X16816Y-5258D01*
X16721Y-5486D01*
X16721Y-5733D01*
X16816Y-5961D01*
X16990Y-6136D01*
X17218Y-6230D01*
X17465Y-6231D01*
X17693Y-6136D01*
X17868Y-5962D01*
X17963Y-5734D01*
X17963Y-5487D01*
X17963Y-6263D01*
X17876Y-6290D01*
X17770Y-6521D01*
X17760Y-6776D01*
X17849Y-7015D01*
X17876Y-7056D01*
X17986Y-7090D01*
X18403Y-6673D01*
X18403Y-6676D01*
X17988Y-7092D01*
X18022Y-7202D01*
X18254Y-7308D01*
X18508Y-7317D01*
X18747Y-7229D01*
X18788Y-7202D01*
X18822Y-7092D01*
X18822Y-8515D01*
X18777Y-8470D01*
X18549Y-8375D01*
X18302Y-8375D01*
X18074Y-8469D01*
X17899Y-8644D01*
X17804Y-8872D01*
X17804Y-9118D01*
X17898Y-9347D01*
X18073Y-9521D01*
X18301Y-9616D01*
X18548Y-9616D01*
X18776Y-9522D01*
X18926Y-9372D01*
X18926Y-10745D01*
X18777Y-10596D01*
X18549Y-10501D01*
X18302Y-10501D01*
X18074Y-10595D01*
X17982Y-10686D01*
X17982Y-9936D01*
X17888Y-9707D01*
X17714Y-9533D01*
X17486Y-9438D01*
X17239Y-9438D01*
X17011Y-9532D01*
X16924Y-9619D01*
X16924Y-6569D01*
X16835Y-6331D01*
X16808Y-6290D01*
X16698Y-6256D01*
X16696Y-6257D01*
X16696Y-6254D01*
X16696Y-4966D01*
X16279Y-4548D01*
X16277Y-4550D01*
X16277Y-4547D01*
X15860Y-4130D01*
X15750Y-4164D01*
X15644Y-4395D01*
X15634Y-4650D01*
X15723Y-4889D01*
X15750Y-4930D01*
X15860Y-4964D01*
X16277Y-4547D01*
X16277Y-4550D01*
X15862Y-4966D01*
X15896Y-5076D01*
X16128Y-5182D01*
X16382Y-5191D01*
X16621Y-5103D01*
X16662Y-5076D01*
X16696Y-4966D01*
X16696Y-6254D01*
X16662Y-6144D01*
X16430Y-6038D01*
X16176Y-6028D01*
X15937Y-6117D01*
X15896Y-6144D01*
X15862Y-6254D01*
X16279Y-6671D01*
X16696Y-6254D01*
X16696Y-6257D01*
X16281Y-6673D01*
X16698Y-7090D01*
X16808Y-7056D01*
X16914Y-6824D01*
X16924Y-6569D01*
X16924Y-9619D01*
X16919Y-9623D01*
X16919Y-8873D01*
X16825Y-8644D01*
X16696Y-8515D01*
X16696Y-7092D01*
X16279Y-6674D01*
X16277Y-6676D01*
X16277Y-6673D01*
X15860Y-6256D01*
X15750Y-6290D01*
X15644Y-6521D01*
X15634Y-6776D01*
X15723Y-7015D01*
X15750Y-7056D01*
X15860Y-7090D01*
X16277Y-6673D01*
X16277Y-6676D01*
X15862Y-7092D01*
X15896Y-7202D01*
X16128Y-7308D01*
X16382Y-7317D01*
X16621Y-7229D01*
X16662Y-7202D01*
X16696Y-7092D01*
X16696Y-8515D01*
X16651Y-8470D01*
X16423Y-8375D01*
X16176Y-8375D01*
X15948Y-8469D01*
X15773Y-8644D01*
X15678Y-8872D01*
X15678Y-9118D01*
X15772Y-9347D01*
X15947Y-9521D01*
X16175Y-9616D01*
X16422Y-9616D01*
X16650Y-9522D01*
X16825Y-9348D01*
X16919Y-9120D01*
X16919Y-8873D01*
X16919Y-9623D01*
X16836Y-9707D01*
X16741Y-9935D01*
X16741Y-10181D01*
X16835Y-10410D01*
X17010Y-10584D01*
X17238Y-10679D01*
X17485Y-10679D01*
X17713Y-10585D01*
X17888Y-10411D01*
X17982Y-10183D01*
X17982Y-9936D01*
X17982Y-10686D01*
X17899Y-10770D01*
X17804Y-10998D01*
X17804Y-11244D01*
X17898Y-11473D01*
X18073Y-11647D01*
X18301Y-11742D01*
X18548Y-11742D01*
X18776Y-11648D01*
X18926Y-11498D01*
X18926Y-16190D01*
X18926Y-16190D01*
G37*
G54D17*
X18926Y-16190D02*
X17921Y-16190D01*
X17921Y-12695D01*
X17860Y-12548D01*
X17747Y-12434D01*
X17600Y-12373D01*
X17440Y-12373D01*
X17292Y-12434D01*
X17178Y-12547D01*
X17117Y-12695D01*
X17117Y-12855D01*
X17178Y-13003D01*
X17291Y-13116D01*
X17439Y-13177D01*
X17599Y-13177D01*
X17747Y-13116D01*
X17860Y-13003D01*
X17921Y-12855D01*
X17921Y-12695D01*
X17921Y-16190D01*
X16919Y-16190D01*
X16919Y-10999D01*
X16825Y-10770D01*
X16651Y-10596D01*
X16423Y-10501D01*
X16176Y-10501D01*
X15948Y-10595D01*
X15773Y-10770D01*
X15678Y-10998D01*
X15678Y-11244D01*
X15772Y-11473D01*
X15947Y-11647D01*
X16175Y-11742D01*
X16422Y-11742D01*
X16650Y-11648D01*
X16825Y-11474D01*
X16919Y-11246D01*
X16919Y-10999D01*
X16919Y-16190D01*
X16858Y-16190D01*
X16858Y-15353D01*
X16797Y-15205D01*
X16684Y-15092D01*
X16537Y-15030D01*
X16377Y-15030D01*
X16268Y-15075D01*
X16268Y-14152D01*
X16207Y-14004D01*
X16094Y-13891D01*
X15946Y-13830D01*
X15786Y-13830D01*
X15638Y-13891D01*
X15525Y-14004D01*
X15464Y-14151D01*
X15463Y-14311D01*
X15525Y-14459D01*
X15638Y-14573D01*
X15785Y-14634D01*
X15945Y-14634D01*
X16093Y-14573D01*
X16206Y-14460D01*
X16268Y-14312D01*
X16268Y-14152D01*
X16268Y-15075D01*
X16229Y-15091D01*
X16115Y-15204D01*
X16054Y-15352D01*
X16054Y-15512D01*
X16115Y-15660D01*
X16228Y-15773D01*
X16376Y-15835D01*
X16536Y-15835D01*
X16684Y-15774D01*
X16797Y-15661D01*
X16858Y-15513D01*
X16858Y-15353D01*
X16858Y-16190D01*
X14575Y-16190D01*
X14575Y-15491D01*
X14514Y-15343D01*
X14401Y-15230D01*
X14358Y-15212D01*
X14358Y-12302D01*
X14297Y-12154D01*
X14240Y-12097D01*
X14240Y-6908D01*
X14179Y-6760D01*
X14066Y-6647D01*
X13918Y-6586D01*
X13758Y-6585D01*
X13611Y-6647D01*
X13497Y-6760D01*
X13436Y-6907D01*
X13436Y-7067D01*
X13497Y-7215D01*
X13610Y-7328D01*
X13758Y-7390D01*
X13918Y-7390D01*
X14066Y-7329D01*
X14179Y-7216D01*
X14240Y-7068D01*
X14240Y-6908D01*
X14240Y-12097D01*
X14184Y-12041D01*
X14037Y-11979D01*
X13877Y-11979D01*
X13729Y-12040D01*
X13615Y-12153D01*
X13554Y-12301D01*
X13554Y-12461D01*
X13615Y-12609D01*
X13674Y-12668D01*
X13489Y-12737D01*
X13455Y-12760D01*
X13432Y-12860D01*
X13779Y-13206D01*
X14126Y-12860D01*
X14103Y-12760D01*
X14098Y-12758D01*
X14184Y-12723D01*
X14297Y-12609D01*
X14358Y-12462D01*
X14358Y-12302D01*
X14358Y-15212D01*
X14325Y-15198D01*
X14325Y-13120D01*
X14250Y-12918D01*
X14227Y-12884D01*
X14127Y-12862D01*
X13781Y-13208D01*
X14127Y-13555D01*
X14227Y-13532D01*
X14317Y-13336D01*
X14325Y-13120D01*
X14325Y-15198D01*
X14253Y-15168D01*
X14126Y-15168D01*
X14126Y-13556D01*
X13779Y-13210D01*
X13777Y-13212D01*
X13777Y-13208D01*
X13431Y-12862D01*
X13331Y-12884D01*
X13241Y-13080D01*
X13233Y-13296D01*
X13308Y-13498D01*
X13331Y-13532D01*
X13431Y-13555D01*
X13777Y-13208D01*
X13777Y-13212D01*
X13432Y-13556D01*
X13455Y-13656D01*
X13651Y-13746D01*
X13867Y-13754D01*
X14069Y-13679D01*
X14103Y-13656D01*
X14126Y-13556D01*
X14126Y-15168D01*
X14093Y-15168D01*
X13945Y-15229D01*
X13832Y-15342D01*
X13771Y-15490D01*
X13770Y-15650D01*
X13832Y-15798D01*
X13945Y-15911D01*
X14092Y-15972D01*
X14252Y-15973D01*
X14400Y-15912D01*
X14513Y-15798D01*
X14575Y-15651D01*
X14575Y-15491D01*
X14575Y-16190D01*
X12764Y-16190D01*
X12764Y-15294D01*
X12703Y-15146D01*
X12590Y-15033D01*
X12442Y-14971D01*
X12282Y-14971D01*
X12252Y-14984D01*
X12252Y-14113D01*
X12191Y-13965D01*
X12078Y-13852D01*
X11930Y-13790D01*
X11770Y-13790D01*
X11622Y-13851D01*
X11546Y-13928D01*
X11546Y-1028D01*
X11466Y-836D01*
X11320Y-689D01*
X11128Y-609D01*
X10920Y-609D01*
X10727Y-688D01*
X10580Y-835D01*
X10501Y-1027D01*
X10500Y-1235D01*
X10580Y-1427D01*
X10727Y-1574D01*
X10919Y-1654D01*
X11127Y-1654D01*
X11319Y-1575D01*
X11466Y-1428D01*
X11546Y-1236D01*
X11546Y-1028D01*
X11546Y-13928D01*
X11509Y-13964D01*
X11448Y-14112D01*
X11448Y-14272D01*
X11509Y-14420D01*
X11622Y-14533D01*
X11770Y-14595D01*
X11930Y-14595D01*
X12077Y-14534D01*
X12191Y-14421D01*
X12252Y-14273D01*
X12252Y-14113D01*
X12252Y-14984D01*
X12134Y-15032D01*
X12021Y-15145D01*
X11960Y-15293D01*
X11959Y-15453D01*
X12021Y-15601D01*
X12134Y-15714D01*
X12281Y-15776D01*
X12441Y-15776D01*
X12589Y-15715D01*
X12702Y-15602D01*
X12764Y-15454D01*
X12764Y-15294D01*
X12764Y-16190D01*
X11270Y-16190D01*
X11270Y-12754D01*
X10638Y-12122D01*
X10638Y-10176D01*
X10577Y-10028D01*
X10464Y-9915D01*
X10441Y-9905D01*
X10441Y-8817D01*
X10441Y-7991D01*
X10380Y-7843D01*
X10267Y-7730D01*
X10119Y-7668D01*
X9959Y-7668D01*
X9811Y-7729D01*
X9698Y-7842D01*
X9673Y-7902D01*
X9673Y-5373D01*
X9614Y-5230D01*
X9614Y-2144D01*
X9614Y-1160D01*
X9553Y-1012D01*
X9440Y-899D01*
X9292Y-838D01*
X9132Y-837D01*
X8985Y-899D01*
X8871Y-1012D01*
X8810Y-1159D01*
X8810Y-1319D01*
X8871Y-1467D01*
X8984Y-1580D01*
X9132Y-1642D01*
X9292Y-1642D01*
X9440Y-1581D01*
X9553Y-1468D01*
X9614Y-1320D01*
X9614Y-1160D01*
X9614Y-2144D01*
X9553Y-1996D01*
X9440Y-1883D01*
X9292Y-1822D01*
X9132Y-1822D01*
X8985Y-1883D01*
X8871Y-1996D01*
X8810Y-2144D01*
X8810Y-2304D01*
X8871Y-2451D01*
X8984Y-2565D01*
X9132Y-2626D01*
X9292Y-2626D01*
X9440Y-2565D01*
X9553Y-2452D01*
X9614Y-2304D01*
X9614Y-2144D01*
X9614Y-5230D01*
X9612Y-5225D01*
X9499Y-5112D01*
X9352Y-5050D01*
X9192Y-5050D01*
X9044Y-5111D01*
X8930Y-5224D01*
X8869Y-5372D01*
X8869Y-5532D01*
X8930Y-5680D01*
X9043Y-5793D01*
X9191Y-5854D01*
X9351Y-5854D01*
X9499Y-5793D01*
X9612Y-5680D01*
X9673Y-5533D01*
X9673Y-5373D01*
X9673Y-7902D01*
X9637Y-7990D01*
X9637Y-8150D01*
X9698Y-8298D01*
X9811Y-8411D01*
X9959Y-8472D01*
X10119Y-8473D01*
X10266Y-8412D01*
X10380Y-8298D01*
X10441Y-8151D01*
X10441Y-7991D01*
X10441Y-8817D01*
X10380Y-8670D01*
X10267Y-8556D01*
X10119Y-8495D01*
X9959Y-8495D01*
X9811Y-8556D01*
X9698Y-8669D01*
X9637Y-8817D01*
X9637Y-8977D01*
X9698Y-9125D01*
X9811Y-9238D01*
X9959Y-9299D01*
X10119Y-9299D01*
X10266Y-9238D01*
X10380Y-9125D01*
X10441Y-8977D01*
X10441Y-8817D01*
X10441Y-9905D01*
X10369Y-9875D01*
X10382Y-9844D01*
X10382Y-9684D01*
X10321Y-9536D01*
X10208Y-9423D01*
X10060Y-9361D01*
X9900Y-9361D01*
X9752Y-9422D01*
X9639Y-9535D01*
X9578Y-9683D01*
X9578Y-9843D01*
X9639Y-9991D01*
X9752Y-10104D01*
X9847Y-10143D01*
X9834Y-10175D01*
X9833Y-10335D01*
X9895Y-10483D01*
X10008Y-10596D01*
X10155Y-10658D01*
X10315Y-10658D01*
X10463Y-10597D01*
X10576Y-10484D01*
X10638Y-10336D01*
X10638Y-10176D01*
X10638Y-12122D01*
X9693Y-11177D01*
X9693Y-11121D01*
X9632Y-10973D01*
X9519Y-10860D01*
X9371Y-10798D01*
X9314Y-10798D01*
X9259Y-10744D01*
X9074Y-10855D01*
X9063Y-10859D01*
X9058Y-10864D01*
X8777Y-11033D01*
X8889Y-11144D01*
X8889Y-11168D01*
X8778Y-11213D01*
X8665Y-11327D01*
X8603Y-11474D01*
X8603Y-11634D01*
X8664Y-11782D01*
X8777Y-11895D01*
X8925Y-11957D01*
X9085Y-11957D01*
X9233Y-11896D01*
X9346Y-11783D01*
X9399Y-11655D01*
X10776Y-13032D01*
X10776Y-16190D01*
X10388Y-16190D01*
X10388Y-13554D01*
X10313Y-13351D01*
X10290Y-13317D01*
X10190Y-13295D01*
X10189Y-13296D01*
X10189Y-13293D01*
X10166Y-13193D01*
X9970Y-13103D01*
X9754Y-13095D01*
X9552Y-13170D01*
X9518Y-13193D01*
X9495Y-13293D01*
X9842Y-13640D01*
X10189Y-13293D01*
X10189Y-13296D01*
X9844Y-13641D01*
X10190Y-13988D01*
X10290Y-13965D01*
X10380Y-13769D01*
X10388Y-13554D01*
X10388Y-16190D01*
X10365Y-16190D01*
X10365Y-15349D01*
X10285Y-15157D01*
X10189Y-15060D01*
X10189Y-13989D01*
X9842Y-13643D01*
X9495Y-13989D01*
X9518Y-14089D01*
X9714Y-14179D01*
X9930Y-14187D01*
X10132Y-14112D01*
X10166Y-14089D01*
X10189Y-13989D01*
X10189Y-15060D01*
X10138Y-15009D01*
X9946Y-14930D01*
X9739Y-14930D01*
X9546Y-15009D01*
X9399Y-15156D01*
X9319Y-15348D01*
X9319Y-15556D01*
X9399Y-15748D01*
X9546Y-15895D01*
X9738Y-15975D01*
X9946Y-15975D01*
X10138Y-15896D01*
X10285Y-15749D01*
X10365Y-15557D01*
X10365Y-15349D01*
X10365Y-16190D01*
X9282Y-16190D01*
X9311Y-16121D01*
X9311Y-16030D01*
X9311Y-15480D01*
X9276Y-15397D01*
X9212Y-15333D01*
X9129Y-15299D01*
X9038Y-15299D01*
X8919Y-15299D01*
X9093Y-15227D01*
X9234Y-15086D01*
X9311Y-14901D01*
X9311Y-14701D01*
X9235Y-14517D01*
X9093Y-14375D01*
X8914Y-14301D01*
X9093Y-14227D01*
X9234Y-14086D01*
X9311Y-13901D01*
X9311Y-13769D01*
X9371Y-13931D01*
X9394Y-13965D01*
X9494Y-13988D01*
X9840Y-13641D01*
X9494Y-13295D01*
X9394Y-13317D01*
X9304Y-13513D01*
X9298Y-13671D01*
X9235Y-13517D01*
X9093Y-13375D01*
X8914Y-13301D01*
X9093Y-13227D01*
X9234Y-13086D01*
X9311Y-12901D01*
X9311Y-12701D01*
X9235Y-12517D01*
X9093Y-12375D01*
X8909Y-12299D01*
X8709Y-12298D01*
X8524Y-12375D01*
X8383Y-12516D01*
X8306Y-12700D01*
X8306Y-12900D01*
X8383Y-13085D01*
X8524Y-13226D01*
X8703Y-13301D01*
X8524Y-13375D01*
X8383Y-13516D01*
X8306Y-13700D01*
X8306Y-13900D01*
X8383Y-14085D01*
X8524Y-14226D01*
X8703Y-14301D01*
X8524Y-14375D01*
X8383Y-14516D01*
X8306Y-14700D01*
X8306Y-14900D01*
X8383Y-15085D01*
X8524Y-15226D01*
X8698Y-15299D01*
X8488Y-15299D01*
X8405Y-15333D01*
X8341Y-15397D01*
X8306Y-15480D01*
X8306Y-15571D01*
X8306Y-16121D01*
X8335Y-16190D01*
X7776Y-16190D01*
X7776Y-11480D01*
X7719Y-11343D01*
X7614Y-11237D01*
X7476Y-11180D01*
X7327Y-11180D01*
X7194Y-11235D01*
X7063Y-11180D01*
X6913Y-11180D01*
X6781Y-11235D01*
X6649Y-11180D01*
X6543Y-11180D01*
X6543Y-6554D01*
X6482Y-6406D01*
X6369Y-6293D01*
X6222Y-6231D01*
X6062Y-6231D01*
X5914Y-6292D01*
X5800Y-6405D01*
X5739Y-6553D01*
X5739Y-6713D01*
X5800Y-6861D01*
X5913Y-6974D01*
X6061Y-7035D01*
X6221Y-7036D01*
X6369Y-6974D01*
X6482Y-6861D01*
X6543Y-6714D01*
X6543Y-6554D01*
X6543Y-11180D01*
X6500Y-11180D01*
X6367Y-11235D01*
X6236Y-11180D01*
X6229Y-11180D01*
X6229Y-10451D01*
X6167Y-10303D01*
X6054Y-10190D01*
X5907Y-10129D01*
X5747Y-10129D01*
X5709Y-10144D01*
X5709Y-4089D01*
X5630Y-3897D01*
X5483Y-3750D01*
X5291Y-3670D01*
X5083Y-3670D01*
X4955Y-3723D01*
X4955Y-3119D01*
X4878Y-2934D01*
X4737Y-2793D01*
X4553Y-2716D01*
X4353Y-2716D01*
X4168Y-2792D01*
X4027Y-2933D01*
X3952Y-3113D01*
X3878Y-2934D01*
X3737Y-2793D01*
X3553Y-2716D01*
X3353Y-2716D01*
X3168Y-2792D01*
X3027Y-2933D01*
X2952Y-3113D01*
X2878Y-2934D01*
X2737Y-2793D01*
X2553Y-2716D01*
X2353Y-2716D01*
X2168Y-2792D01*
X2027Y-2933D01*
X1954Y-3107D01*
X1954Y-2898D01*
X1920Y-2814D01*
X1856Y-2750D01*
X1772Y-2716D01*
X1682Y-2716D01*
X1132Y-2716D01*
X1049Y-2750D01*
X985Y-2814D01*
X950Y-2898D01*
X950Y-2988D01*
X950Y-3538D01*
X985Y-3622D01*
X1049Y-3686D01*
X1132Y-3720D01*
X1222Y-3720D01*
X1772Y-3720D01*
X1856Y-3686D01*
X1920Y-3622D01*
X1954Y-3538D01*
X1954Y-3448D01*
X1954Y-3328D01*
X2026Y-3502D01*
X2167Y-3643D01*
X2352Y-3720D01*
X2552Y-3720D01*
X2736Y-3644D01*
X2878Y-3503D01*
X2952Y-3323D01*
X3026Y-3502D01*
X3167Y-3643D01*
X3352Y-3720D01*
X3552Y-3720D01*
X3736Y-3644D01*
X3878Y-3503D01*
X3952Y-3323D01*
X4026Y-3502D01*
X4167Y-3643D01*
X4352Y-3720D01*
X4552Y-3720D01*
X4736Y-3644D01*
X4878Y-3503D01*
X4954Y-3318D01*
X4955Y-3119D01*
X4955Y-3723D01*
X4891Y-3749D01*
X4744Y-3896D01*
X4664Y-4088D01*
X4664Y-4296D01*
X4743Y-4488D01*
X4890Y-4635D01*
X5082Y-4715D01*
X5290Y-4715D01*
X5482Y-4636D01*
X5629Y-4489D01*
X5709Y-4297D01*
X5709Y-4089D01*
X5709Y-10144D01*
X5599Y-10190D01*
X5486Y-10303D01*
X5424Y-10451D01*
X5424Y-10611D01*
X5485Y-10759D01*
X5598Y-10872D01*
X5746Y-10933D01*
X5906Y-10933D01*
X6054Y-10872D01*
X6167Y-10759D01*
X6228Y-10611D01*
X6229Y-10451D01*
X6229Y-11180D01*
X6087Y-11180D01*
X5949Y-11237D01*
X5843Y-11342D01*
X5786Y-11480D01*
X5786Y-11629D01*
X5843Y-11767D01*
X5948Y-11872D01*
X6086Y-11929D01*
X6235Y-11929D01*
X6368Y-11875D01*
X6499Y-11929D01*
X6649Y-11929D01*
X6781Y-11875D01*
X6913Y-11929D01*
X7062Y-11929D01*
X7195Y-11875D01*
X7326Y-11929D01*
X7475Y-11929D01*
X7613Y-11873D01*
X7719Y-11767D01*
X7776Y-11629D01*
X7776Y-11480D01*
X7776Y-16190D01*
X7688Y-16190D01*
X7688Y-13400D01*
X7608Y-13208D01*
X7461Y-13061D01*
X7269Y-12981D01*
X7061Y-12981D01*
X6869Y-13060D01*
X6722Y-13207D01*
X6642Y-13399D01*
X6642Y-13607D01*
X6722Y-13799D01*
X6868Y-13946D01*
X7060Y-14026D01*
X7268Y-14026D01*
X7461Y-13947D01*
X7608Y-13800D01*
X7687Y-13608D01*
X7688Y-13400D01*
X7688Y-16190D01*
X5047Y-16190D01*
X5047Y-14762D01*
X4986Y-14615D01*
X4873Y-14501D01*
X4726Y-14440D01*
X4566Y-14440D01*
X4418Y-14501D01*
X4304Y-14614D01*
X4243Y-14762D01*
X4243Y-14922D01*
X4304Y-15070D01*
X4417Y-15183D01*
X4565Y-15244D01*
X4725Y-15244D01*
X4873Y-15183D01*
X4986Y-15070D01*
X5047Y-14922D01*
X5047Y-14762D01*
X5047Y-16190D01*
X4174Y-16190D01*
X4174Y-11362D01*
X4154Y-11315D01*
X4154Y-9758D01*
X4097Y-9620D01*
X3992Y-9515D01*
X3870Y-9464D01*
X3919Y-9415D01*
X3977Y-9277D01*
X3977Y-9128D01*
X3920Y-8990D01*
X3814Y-8885D01*
X3700Y-8837D01*
X3732Y-8805D01*
X3790Y-8667D01*
X3790Y-8518D01*
X3733Y-8380D01*
X3627Y-8274D01*
X3494Y-8219D01*
X3494Y-8213D01*
X3485Y-8189D01*
X3485Y-4270D01*
X3404Y-4074D01*
X3254Y-3924D01*
X3059Y-3843D01*
X2847Y-3843D01*
X2651Y-3924D01*
X2501Y-4074D01*
X2420Y-4269D01*
X2420Y-4481D01*
X2501Y-4677D01*
X2650Y-4826D01*
X2846Y-4908D01*
X3058Y-4908D01*
X3253Y-4827D01*
X3403Y-4677D01*
X3484Y-4482D01*
X3485Y-4270D01*
X3485Y-8189D01*
X3438Y-8075D01*
X3332Y-7969D01*
X3194Y-7912D01*
X3153Y-7912D01*
X3123Y-7839D01*
X3017Y-7733D01*
X2904Y-7686D01*
X2904Y-7681D01*
X2847Y-7543D01*
X2742Y-7438D01*
X2618Y-7387D01*
X2618Y-7376D01*
X2562Y-7238D01*
X2456Y-7133D01*
X2318Y-7076D01*
X2169Y-7075D01*
X2032Y-7132D01*
X1926Y-7238D01*
X1869Y-7375D01*
X1869Y-7525D01*
X1926Y-7662D01*
X2031Y-7768D01*
X2154Y-7819D01*
X2154Y-7830D01*
X2211Y-7967D01*
X2316Y-8073D01*
X2430Y-8120D01*
X2430Y-8125D01*
X2487Y-8263D01*
X2592Y-8368D01*
X2730Y-8425D01*
X2771Y-8425D01*
X2802Y-8499D01*
X2907Y-8604D01*
X3040Y-8660D01*
X3040Y-8666D01*
X3097Y-8804D01*
X3202Y-8910D01*
X3317Y-8957D01*
X3284Y-8990D01*
X3227Y-9127D01*
X3227Y-9276D01*
X3284Y-9414D01*
X3389Y-9520D01*
X3511Y-9570D01*
X3461Y-9620D01*
X3404Y-9757D01*
X3404Y-9848D01*
X3331Y-9878D01*
X3225Y-9984D01*
X3168Y-10121D01*
X3168Y-10183D01*
X3095Y-10213D01*
X2989Y-10318D01*
X2932Y-10456D01*
X2932Y-10605D01*
X2989Y-10743D01*
X3094Y-10849D01*
X3232Y-10906D01*
X3381Y-10906D01*
X3519Y-10849D01*
X3624Y-10744D01*
X3681Y-10606D01*
X3681Y-10545D01*
X3755Y-10514D01*
X3860Y-10409D01*
X3918Y-10271D01*
X3918Y-10180D01*
X3991Y-10150D01*
X4097Y-10045D01*
X4154Y-9907D01*
X4154Y-9758D01*
X4154Y-11315D01*
X4117Y-11224D01*
X4011Y-11119D01*
X3874Y-11062D01*
X3724Y-11062D01*
X3587Y-11119D01*
X3481Y-11224D01*
X3424Y-11362D01*
X3424Y-11511D01*
X3443Y-11557D01*
X3383Y-11618D01*
X3344Y-11711D01*
X3311Y-11711D01*
X3173Y-11768D01*
X3068Y-11874D01*
X3011Y-12011D01*
X3010Y-12160D01*
X3067Y-12298D01*
X3173Y-12404D01*
X3310Y-12461D01*
X3460Y-12461D01*
X3597Y-12404D01*
X3703Y-12299D01*
X3742Y-12205D01*
X3775Y-12205D01*
X3912Y-12148D01*
X4018Y-12043D01*
X4075Y-11905D01*
X4075Y-11756D01*
X4056Y-11709D01*
X4116Y-11649D01*
X4173Y-11511D01*
X4174Y-11362D01*
X4174Y-16190D01*
X3485Y-16190D01*
X3485Y-14967D01*
X3404Y-14771D01*
X3254Y-14621D01*
X3059Y-14540D01*
X2847Y-14540D01*
X2651Y-14621D01*
X2501Y-14770D01*
X2420Y-14966D01*
X2420Y-15178D01*
X2501Y-15373D01*
X2650Y-15523D01*
X2846Y-15605D01*
X3058Y-15605D01*
X3253Y-15524D01*
X3403Y-15374D01*
X3484Y-15179D01*
X3485Y-14967D01*
X3485Y-16190D01*
X1780Y-16190D01*
X1780Y-4536D01*
X1719Y-4388D01*
X1606Y-4275D01*
X1458Y-4214D01*
X1298Y-4213D01*
X1150Y-4275D01*
X1037Y-4388D01*
X975Y-4535D01*
X975Y-4695D01*
X1036Y-4843D01*
X1149Y-4956D01*
X1297Y-5018D01*
X1457Y-5018D01*
X1605Y-4957D01*
X1718Y-4844D01*
X1780Y-4696D01*
X1780Y-4536D01*
X1780Y-16190D01*
X1465Y-16190D01*
X1465Y-14762D01*
X1404Y-14615D01*
X1291Y-14501D01*
X1143Y-14440D01*
X983Y-14440D01*
X835Y-14501D01*
X722Y-14614D01*
X660Y-14762D01*
X660Y-14922D01*
X721Y-15070D01*
X834Y-15183D01*
X982Y-15244D01*
X1142Y-15244D01*
X1290Y-15183D01*
X1403Y-15070D01*
X1465Y-14922D01*
X1465Y-14762D01*
X1465Y-16190D01*
X296Y-16190D01*
X296Y-286D01*
X6682Y-286D01*
X6682Y-5494D01*
X6646Y-5509D01*
X6533Y-5622D01*
X6471Y-5770D01*
X6471Y-5930D01*
X6532Y-6077D01*
X6645Y-6191D01*
X6793Y-6252D01*
X6953Y-6252D01*
X7101Y-6191D01*
X7121Y-6172D01*
X7128Y-6172D01*
X7117Y-6199D01*
X7117Y-6359D01*
X7178Y-6507D01*
X7291Y-6620D01*
X7439Y-6681D01*
X7599Y-6681D01*
X7747Y-6620D01*
X7860Y-6507D01*
X7921Y-6359D01*
X7921Y-6199D01*
X7860Y-6052D01*
X7747Y-5938D01*
X7600Y-5877D01*
X7440Y-5877D01*
X7292Y-5938D01*
X7259Y-5971D01*
X7276Y-5930D01*
X7276Y-5770D01*
X7215Y-5622D01*
X7175Y-5583D01*
X7175Y-286D01*
X15741Y-286D01*
X15644Y-498D01*
X15634Y-752D01*
X15723Y-991D01*
X15750Y-1032D01*
X15860Y-1066D01*
X16277Y-649D01*
X16272Y-644D01*
X16273Y-642D01*
X16279Y-647D01*
X16285Y-642D01*
X16286Y-644D01*
X16281Y-649D01*
X16698Y-1066D01*
X16808Y-1032D01*
X16914Y-800D01*
X16924Y-546D01*
X16835Y-307D01*
X16821Y-286D01*
X17867Y-286D01*
X17770Y-498D01*
X17760Y-752D01*
X17849Y-991D01*
X17876Y-1032D01*
X17986Y-1066D01*
X18403Y-649D01*
X18398Y-644D01*
X18399Y-642D01*
X18405Y-647D01*
X18411Y-642D01*
X18412Y-644D01*
X18407Y-649D01*
X18824Y-1066D01*
X18926Y-1034D01*
X18926Y-2390D01*
X18824Y-2358D01*
X18822Y-2360D01*
X18822Y-2356D01*
X18822Y-1068D01*
X18405Y-651D01*
X17988Y-1068D01*
X18022Y-1178D01*
X18254Y-1284D01*
X18508Y-1294D01*
X18747Y-1205D01*
X18788Y-1178D01*
X18822Y-1068D01*
X18822Y-2356D01*
X18788Y-2246D01*
X18556Y-2140D01*
X18302Y-2130D01*
X18063Y-2219D01*
X18022Y-2246D01*
X17988Y-2356D01*
X18405Y-2773D01*
X18822Y-2356D01*
X18822Y-2360D01*
X18407Y-2775D01*
X18824Y-3192D01*
X18926Y-3160D01*
X18926Y-4161D01*
X18824Y-4130D01*
X18822Y-4131D01*
X18822Y-4128D01*
X18822Y-3194D01*
X18405Y-2777D01*
X18403Y-2778D01*
X18403Y-2775D01*
X17986Y-2358D01*
X17963Y-2365D01*
X17963Y-1589D01*
X17869Y-1361D01*
X17694Y-1186D01*
X17466Y-1092D01*
X17219Y-1091D01*
X16991Y-1186D01*
X16816Y-1360D01*
X16721Y-1588D01*
X16721Y-1835D01*
X16816Y-2063D01*
X16990Y-2238D01*
X17218Y-2333D01*
X17465Y-2333D01*
X17693Y-2239D01*
X17868Y-2064D01*
X17963Y-1836D01*
X17963Y-1589D01*
X17963Y-2365D01*
X17876Y-2392D01*
X17770Y-2624D01*
X17760Y-2878D01*
X17849Y-3117D01*
X17876Y-3158D01*
X17986Y-3192D01*
X18403Y-2775D01*
X18403Y-2778D01*
X17988Y-3194D01*
X18022Y-3304D01*
X18254Y-3410D01*
X18508Y-3420D01*
X18747Y-3331D01*
X18788Y-3304D01*
X18822Y-3194D01*
X18822Y-4128D01*
X18788Y-4018D01*
X18556Y-3912D01*
X18302Y-3902D01*
X18063Y-3991D01*
X18022Y-4018D01*
X17988Y-4128D01*
X18405Y-4545D01*
X18822Y-4128D01*
X18822Y-4131D01*
X18407Y-4547D01*
X18824Y-4964D01*
X18926Y-4932D01*
X18926Y-6287D01*
X18824Y-6256D01*
X18822Y-6257D01*
X18822Y-6254D01*
X18822Y-4966D01*
X18405Y-4548D01*
X18403Y-4550D01*
X18403Y-4547D01*
X17986Y-4130D01*
X17876Y-4164D01*
X17770Y-4395D01*
X17760Y-4650D01*
X17849Y-4889D01*
X17876Y-4930D01*
X17986Y-4964D01*
X18403Y-4547D01*
X18403Y-4550D01*
X17988Y-4966D01*
X18022Y-5076D01*
X18254Y-5182D01*
X18508Y-5191D01*
X18747Y-5103D01*
X18788Y-5076D01*
X18822Y-4966D01*
X18822Y-6254D01*
X18788Y-6144D01*
X18556Y-6038D01*
X18302Y-6028D01*
X18063Y-6117D01*
X18022Y-6144D01*
X17988Y-6254D01*
X18405Y-6671D01*
X18822Y-6254D01*
X18822Y-6257D01*
X18407Y-6673D01*
X18824Y-7090D01*
X18926Y-7058D01*
X18926Y-8619D01*
X18822Y-8515D01*
X18822Y-7092D01*
X18405Y-6674D01*
X18403Y-6676D01*
X18403Y-6673D01*
X17986Y-6256D01*
X17963Y-6263D01*
X17963Y-5487D01*
X17869Y-5259D01*
X17694Y-5084D01*
X17466Y-4989D01*
X17219Y-4989D01*
X16991Y-5083D01*
X16924Y-5150D01*
X16924Y-4443D01*
X16924Y-2672D01*
X16835Y-2433D01*
X16808Y-2392D01*
X16698Y-2358D01*
X16696Y-2360D01*
X16696Y-2356D01*
X16696Y-1068D01*
X16279Y-651D01*
X15862Y-1068D01*
X15896Y-1178D01*
X16128Y-1284D01*
X16382Y-1294D01*
X16621Y-1205D01*
X16662Y-1178D01*
X16696Y-1068D01*
X16696Y-2356D01*
X16662Y-2246D01*
X16430Y-2140D01*
X16176Y-2130D01*
X15937Y-2219D01*
X15896Y-2246D01*
X15862Y-2356D01*
X16279Y-2773D01*
X16696Y-2356D01*
X16696Y-2360D01*
X16281Y-2775D01*
X16698Y-3192D01*
X16808Y-3158D01*
X16914Y-2926D01*
X16924Y-2672D01*
X16924Y-4443D01*
X16835Y-4205D01*
X16808Y-4164D01*
X16698Y-4130D01*
X16696Y-4131D01*
X16696Y-4128D01*
X16696Y-3194D01*
X16279Y-2777D01*
X16277Y-2778D01*
X16277Y-2775D01*
X15860Y-2358D01*
X15750Y-2392D01*
X15644Y-2624D01*
X15634Y-2878D01*
X15723Y-3117D01*
X15750Y-3158D01*
X15860Y-3192D01*
X16277Y-2775D01*
X16277Y-2778D01*
X15862Y-3194D01*
X15896Y-3304D01*
X16128Y-3410D01*
X16382Y-3420D01*
X16621Y-3331D01*
X16662Y-3304D01*
X16696Y-3194D01*
X16696Y-4128D01*
X16662Y-4018D01*
X16430Y-3912D01*
X16176Y-3902D01*
X15937Y-3991D01*
X15896Y-4018D01*
X15862Y-4128D01*
X16279Y-4545D01*
X16696Y-4128D01*
X16696Y-4131D01*
X16281Y-4547D01*
X16698Y-4964D01*
X16808Y-4930D01*
X16914Y-4698D01*
X16924Y-4443D01*
X16924Y-5150D01*
X16816Y-5258D01*
X16721Y-5486D01*
X16721Y-5733D01*
X16816Y-5961D01*
X16990Y-6136D01*
X17218Y-6230D01*
X17465Y-6231D01*
X17693Y-6136D01*
X17868Y-5962D01*
X17963Y-5734D01*
X17963Y-5487D01*
X17963Y-6263D01*
X17876Y-6290D01*
X17770Y-6521D01*
X17760Y-6776D01*
X17849Y-7015D01*
X17876Y-7056D01*
X17986Y-7090D01*
X18403Y-6673D01*
X18403Y-6676D01*
X17988Y-7092D01*
X18022Y-7202D01*
X18254Y-7308D01*
X18508Y-7317D01*
X18747Y-7229D01*
X18788Y-7202D01*
X18822Y-7092D01*
X18822Y-8515D01*
X18777Y-8470D01*
X18549Y-8375D01*
X18302Y-8375D01*
X18074Y-8469D01*
X17899Y-8644D01*
X17804Y-8872D01*
X17804Y-9118D01*
X17898Y-9347D01*
X18073Y-9521D01*
X18301Y-9616D01*
X18548Y-9616D01*
X18776Y-9522D01*
X18926Y-9372D01*
X18926Y-10745D01*
X18777Y-10596D01*
X18549Y-10501D01*
X18302Y-10501D01*
X18074Y-10595D01*
X17982Y-10686D01*
X17982Y-9936D01*
X17888Y-9707D01*
X17714Y-9533D01*
X17486Y-9438D01*
X17239Y-9438D01*
X17011Y-9532D01*
X16924Y-9619D01*
X16924Y-6569D01*
X16835Y-6331D01*
X16808Y-6290D01*
X16698Y-6256D01*
X16696Y-6257D01*
X16696Y-6254D01*
X16696Y-4966D01*
X16279Y-4548D01*
X16277Y-4550D01*
X16277Y-4547D01*
X15860Y-4130D01*
X15750Y-4164D01*
X15644Y-4395D01*
X15634Y-4650D01*
X15723Y-4889D01*
X15750Y-4930D01*
X15860Y-4964D01*
X16277Y-4547D01*
X16277Y-4550D01*
X15862Y-4966D01*
X15896Y-5076D01*
X16128Y-5182D01*
X16382Y-5191D01*
X16621Y-5103D01*
X16662Y-5076D01*
X16696Y-4966D01*
X16696Y-6254D01*
X16662Y-6144D01*
X16430Y-6038D01*
X16176Y-6028D01*
X15937Y-6117D01*
X15896Y-6144D01*
X15862Y-6254D01*
X16279Y-6671D01*
X16696Y-6254D01*
X16696Y-6257D01*
X16281Y-6673D01*
X16698Y-7090D01*
X16808Y-7056D01*
X16914Y-6824D01*
X16924Y-6569D01*
X16924Y-9619D01*
X16919Y-9623D01*
X16919Y-8873D01*
X16825Y-8644D01*
X16696Y-8515D01*
X16696Y-7092D01*
X16279Y-6674D01*
X16277Y-6676D01*
X16277Y-6673D01*
X15860Y-6256D01*
X15750Y-6290D01*
X15644Y-6521D01*
X15634Y-6776D01*
X15723Y-7015D01*
X15750Y-7056D01*
X15860Y-7090D01*
X16277Y-6673D01*
X16277Y-6676D01*
X15862Y-7092D01*
X15896Y-7202D01*
X16128Y-7308D01*
X16382Y-7317D01*
X16621Y-7229D01*
X16662Y-7202D01*
X16696Y-7092D01*
X16696Y-8515D01*
X16651Y-8470D01*
X16423Y-8375D01*
X16176Y-8375D01*
X15948Y-8469D01*
X15773Y-8644D01*
X15678Y-8872D01*
X15678Y-9118D01*
X15772Y-9347D01*
X15947Y-9521D01*
X16175Y-9616D01*
X16422Y-9616D01*
X16650Y-9522D01*
X16825Y-9348D01*
X16919Y-9120D01*
X16919Y-8873D01*
X16919Y-9623D01*
X16836Y-9707D01*
X16741Y-9935D01*
X16741Y-10181D01*
X16835Y-10410D01*
X17010Y-10584D01*
X17238Y-10679D01*
X17485Y-10679D01*
X17713Y-10585D01*
X17888Y-10411D01*
X17982Y-10183D01*
X17982Y-9936D01*
X17982Y-10686D01*
X17899Y-10770D01*
X17804Y-10998D01*
X17804Y-11244D01*
X17898Y-11473D01*
X18073Y-11647D01*
X18301Y-11742D01*
X18548Y-11742D01*
X18776Y-11648D01*
X18926Y-11498D01*
X18926Y-16190D01*
M02*
