%FSLAX34Y34*%
G04 Gerber Fmt 3.4, Leading zero omitted, Abs format*
G04 (created by PCBNEW (2014-01-02 BZR 4600)-product) date Sun 26 Jan 2014 10:04:54 PM PST*
%MOIN*%
G01*
G70*
G90*
G04 APERTURE LIST*
%ADD10C,0.005906*%
%ADD11R,0.036000X0.012000*%
%ADD12R,0.012000X0.036000*%
%ADD13R,0.285000X0.285000*%
%ADD14C,0.025600*%
%ADD15R,0.035000X0.055000*%
%ADD16R,0.060000X0.080000*%
%ADD17R,0.055000X0.035000*%
%ADD18R,0.039400X0.023600*%
%ADD19R,0.061024X0.076772*%
%ADD20R,0.096063X0.044094*%
%ADD21R,0.100000X0.065000*%
%ADD22R,0.080000X0.144000*%
%ADD23R,0.080000X0.040000*%
%ADD24R,0.055000X0.055000*%
%ADD25C,0.055000*%
%ADD26R,0.078740X0.015748*%
%ADD27C,0.060000*%
%ADD28C,0.059100*%
%ADD29C,0.078700*%
G04 APERTURE END LIST*
G54D10*
G54D11*
X6045Y-7201D03*
X6045Y-7401D03*
X6045Y-7601D03*
X6045Y-7791D03*
X6045Y-7991D03*
X6045Y-8191D03*
X6045Y-8381D03*
X6045Y-8581D03*
X6045Y-8781D03*
X6045Y-8981D03*
X6045Y-9171D03*
X6045Y-9371D03*
X6045Y-9571D03*
X6045Y-9761D03*
X6045Y-9961D03*
X6045Y-10161D03*
G54D12*
X6315Y-10431D03*
X6515Y-10431D03*
X6715Y-10431D03*
X6905Y-10431D03*
X7105Y-10431D03*
X7305Y-10431D03*
X7495Y-10431D03*
X7695Y-10431D03*
X7895Y-10431D03*
X8095Y-10431D03*
X8285Y-10431D03*
X8485Y-10431D03*
X8685Y-10431D03*
X8875Y-10431D03*
X9075Y-10431D03*
X9275Y-10431D03*
G54D11*
X9545Y-10161D03*
X9545Y-9961D03*
X9545Y-9761D03*
X9545Y-9571D03*
X9545Y-9371D03*
X9545Y-9171D03*
X9545Y-8981D03*
X9545Y-8781D03*
X9545Y-8581D03*
X9545Y-8381D03*
X9545Y-8191D03*
X9545Y-7991D03*
X9545Y-7791D03*
X9545Y-7601D03*
X9545Y-7401D03*
X9545Y-7201D03*
G54D12*
X9275Y-6931D03*
X9075Y-6931D03*
X8875Y-6931D03*
X8685Y-6931D03*
X8485Y-6931D03*
X8285Y-6931D03*
X8095Y-6931D03*
X7895Y-6931D03*
X7695Y-6931D03*
X7495Y-6931D03*
X7305Y-6931D03*
X7105Y-6931D03*
X6905Y-6931D03*
X6715Y-6931D03*
X6515Y-6931D03*
X6315Y-6931D03*
G54D13*
X7795Y-8681D03*
G54D14*
X7755Y-19685D03*
X1062Y-19685D03*
X1456Y-19685D03*
X1850Y-19685D03*
X2243Y-19685D03*
X2637Y-19685D03*
X3031Y-19685D03*
X3424Y-19685D03*
X3818Y-19685D03*
X4212Y-19685D03*
X275Y-19685D03*
X5393Y-19685D03*
X5787Y-19685D03*
X6180Y-19685D03*
X6574Y-19685D03*
X6968Y-19685D03*
X669Y-19685D03*
G54D15*
X13327Y-11988D03*
X12577Y-11988D03*
G54D16*
X14743Y-7913D03*
X16043Y-7913D03*
G54D15*
X10530Y-8011D03*
X11280Y-8011D03*
G54D10*
G36*
X10076Y-10263D02*
X10465Y-10652D01*
X10217Y-10899D01*
X9828Y-10510D01*
X10076Y-10263D01*
X10076Y-10263D01*
G37*
G36*
X9546Y-10793D02*
X9934Y-11182D01*
X9687Y-11429D01*
X9298Y-11040D01*
X9546Y-10793D01*
X9546Y-10793D01*
G37*
G36*
X11136Y-10797D02*
X11702Y-11363D01*
X11278Y-11787D01*
X10712Y-11221D01*
X11136Y-10797D01*
X11136Y-10797D01*
G37*
G36*
X10217Y-11716D02*
X10783Y-12282D01*
X10359Y-12706D01*
X9793Y-12140D01*
X10217Y-11716D01*
X10217Y-11716D01*
G37*
G54D17*
X12244Y-7518D03*
X12244Y-8268D03*
G54D15*
X15038Y-12125D03*
X15788Y-12125D03*
G54D17*
X16791Y-12658D03*
X16791Y-11908D03*
G54D18*
X17559Y-12086D03*
X18425Y-12086D03*
G54D19*
X9700Y-3779D03*
X7700Y-3779D03*
X7700Y-5433D03*
X9700Y-5433D03*
G54D20*
X9559Y-2732D03*
X6169Y-2732D03*
X9559Y-1732D03*
X6169Y-1732D03*
X9559Y-732D03*
X6169Y-732D03*
G54D15*
X11280Y-8740D03*
X10530Y-8740D03*
X4705Y-2204D03*
X3955Y-2204D03*
X4705Y-1466D03*
X3955Y-1466D03*
X4705Y-728D03*
X3955Y-728D03*
G54D17*
X13051Y-7518D03*
X13051Y-8268D03*
G54D21*
X14559Y-2696D03*
X14559Y-1696D03*
X14559Y-696D03*
X12559Y-696D03*
X12559Y-1696D03*
X12559Y-2696D03*
X14559Y-6043D03*
X14559Y-5043D03*
X14559Y-4043D03*
X12559Y-4043D03*
X12559Y-5043D03*
X12559Y-6043D03*
G54D22*
X17323Y-14547D03*
G54D23*
X14723Y-14547D03*
X14723Y-15447D03*
X14723Y-13647D03*
G54D22*
X13307Y-14547D03*
G54D23*
X10707Y-14547D03*
X10707Y-15447D03*
X10707Y-13647D03*
G54D15*
X18426Y-7913D03*
X17676Y-7913D03*
G54D24*
X8809Y-15801D03*
G54D25*
X8809Y-14801D03*
X8809Y-13801D03*
X8809Y-12801D03*
G54D26*
X1377Y-4849D03*
X4527Y-4849D03*
X1377Y-5099D03*
X4527Y-5099D03*
X1377Y-5349D03*
X4527Y-5349D03*
X1377Y-5599D03*
X4527Y-5599D03*
X1377Y-5849D03*
X4527Y-5849D03*
X1377Y-6099D03*
X4527Y-6099D03*
X1377Y-6349D03*
X4527Y-6349D03*
X1377Y-6599D03*
X4527Y-6599D03*
X1377Y-6849D03*
X4527Y-6849D03*
X1377Y-7099D03*
X4527Y-7099D03*
X1377Y-7349D03*
X4527Y-7349D03*
X1377Y-7599D03*
X4527Y-7599D03*
X1377Y-7849D03*
X4527Y-7849D03*
X1377Y-8099D03*
X4527Y-8099D03*
X1377Y-8349D03*
X4527Y-8349D03*
X1377Y-8599D03*
X4527Y-8599D03*
X1377Y-8849D03*
X4527Y-8849D03*
X1377Y-9099D03*
X4527Y-9099D03*
X1377Y-9349D03*
X4527Y-9349D03*
X1377Y-9599D03*
X4527Y-9599D03*
X1377Y-9849D03*
X4527Y-9849D03*
X1377Y-10099D03*
X4527Y-10099D03*
X1377Y-10349D03*
X4527Y-10349D03*
X1377Y-10599D03*
X4527Y-10599D03*
X1377Y-10849D03*
X4527Y-10849D03*
X1377Y-11099D03*
X4527Y-11099D03*
X1377Y-11349D03*
X4527Y-11349D03*
X1377Y-11599D03*
X4527Y-11599D03*
X1377Y-11849D03*
X4527Y-11849D03*
X1377Y-12099D03*
X4527Y-12099D03*
X1377Y-12349D03*
X4527Y-12349D03*
X1377Y-12599D03*
X4527Y-12599D03*
X1377Y-12849D03*
X4527Y-12849D03*
X1377Y-13099D03*
X4527Y-13099D03*
X1377Y-13349D03*
X4527Y-13349D03*
X1377Y-13599D03*
X4527Y-13599D03*
X1377Y-13849D03*
X4527Y-13849D03*
X1377Y-14099D03*
X4527Y-14099D03*
X1377Y-14349D03*
X4527Y-14349D03*
X1377Y-14599D03*
X4527Y-14599D03*
G54D24*
X1452Y-3218D03*
G54D25*
X2452Y-3218D03*
X3452Y-3218D03*
X4452Y-3218D03*
G54D27*
X1437Y-15984D03*
X5669Y-14389D03*
G54D28*
X5187Y-4192D03*
G54D27*
X1427Y-2244D03*
X5334Y-15098D03*
G54D28*
X9842Y-15452D03*
X9842Y-13641D03*
G54D27*
X6564Y-4704D03*
X5905Y-11092D03*
G54D28*
X7165Y-13503D03*
X11023Y-1131D03*
X13779Y-13208D03*
G54D21*
X15051Y-11082D03*
X15051Y-10082D03*
X15051Y-9082D03*
X13051Y-9082D03*
X13051Y-10082D03*
X13051Y-11082D03*
G54D29*
X17362Y-10059D03*
X18425Y-11122D03*
X18425Y-8996D03*
X16299Y-8996D03*
X16299Y-11122D03*
X17342Y-5610D03*
X18405Y-6673D03*
X18405Y-4547D03*
X16279Y-4547D03*
X16279Y-6673D03*
X17342Y-1712D03*
X18405Y-2775D03*
X18405Y-649D03*
X16279Y-649D03*
X16279Y-2775D03*
M02*
