%FSLAX34Y34*%
G04 Gerber Fmt 3.4, Leading zero omitted, Abs format*
G04 (created by PCBNEW (2014-01-02 BZR 4600)-product) date Mon 03 Feb 2014 08:03:22 PM PST*
%MOIN*%
G01*
G70*
G90*
G04 APERTURE LIST*
%ADD10C,0.005906*%
%ADD11C,0.003937*%
G04 APERTURE END LIST*
G54D10*
G54D11*
X1151Y-807D02*
G75*
G03X1151Y-807I-393J0D01*
G74*
G01*
X167Y-807D02*
X1348Y-807D01*
X757Y-216D02*
X757Y-1397D01*
X19212Y0D02*
X19212Y-196D01*
X10078Y0D02*
X19212Y0D01*
X0Y-196D02*
X0Y0D01*
X19212Y-16476D02*
X19212Y-15167D01*
X8395Y-16476D02*
X19212Y-16476D01*
X19212Y-12490D02*
X19212Y-15167D01*
X19212Y-196D02*
X19212Y-12490D01*
X0Y0D02*
X10078Y0D01*
X0Y-8937D02*
X0Y-196D01*
X0Y-19724D02*
X0Y-8937D01*
X4094Y-20078D02*
X354Y-20078D01*
X4448Y-19724D02*
X4448Y-16889D01*
X5157Y-16889D02*
X5157Y-19724D01*
X4803Y-16535D02*
G75*
G03X4448Y-16889I0J-354D01*
G74*
G01*
X5157Y-16889D02*
G75*
G03X4803Y-16535I-354J0D01*
G74*
G01*
X7677Y-20078D02*
X5511Y-20078D01*
X8031Y-16840D02*
X8031Y-19724D01*
X8395Y-16476D02*
G75*
G03X8031Y-16840I0J-364D01*
G74*
G01*
X7677Y-20078D02*
G75*
G03X8031Y-19724I0J354D01*
G74*
G01*
X5157Y-19724D02*
G75*
G03X5511Y-20078I354J0D01*
G74*
G01*
X4094Y-20078D02*
G75*
G03X4448Y-19724I0J354D01*
G74*
G01*
X0Y-19724D02*
G75*
G03X354Y-20078I354J0D01*
G74*
G01*
M02*
