G04 #@! TF.FileFunction,Profile,NP*
%FSLAX46Y46*%
G04 Gerber Fmt 4.6, Leading zero omitted, Abs format (unit mm)*
G04 Created by KiCad (PCBNEW 0.201509182047+6202~30~ubuntu14.04.1-product) date Sun 20 Sep 2015 06:38:23 PM PDT*
%MOMM*%
G01*
G04 APERTURE LIST*
%ADD10C,0.100000*%
%ADD11C,0.020000*%
G04 APERTURE END LIST*
D10*
D11*
X99400000Y-72400000D02*
X99400000Y-82100000D01*
X99400000Y-106100000D02*
X99400000Y-122300000D01*
X140900000Y-72400000D02*
X99400000Y-72400000D01*
X140900000Y-122300000D02*
X99400000Y-122300000D01*
X140900000Y-72400000D02*
X140900000Y-122300000D01*
X99400000Y-105100000D02*
X99400000Y-106100000D01*
X99400000Y-83050000D02*
X99400000Y-82100000D01*
X98450000Y-104200000D02*
G75*
G02X99400000Y-105150000I0J-950000D01*
G01*
X91000000Y-103850000D02*
X91350000Y-104200000D01*
X91350000Y-104200000D02*
X98450000Y-104200000D01*
X91000000Y-93400000D02*
X91000000Y-103850000D01*
X99400000Y-83050000D02*
G75*
G02X98450000Y-84000000I-950000J0D01*
G01*
X91000000Y-84350000D02*
X91350000Y-84000000D01*
X91350000Y-84000000D02*
X98450000Y-84000000D01*
X98450000Y-91150000D02*
X91350000Y-91150000D01*
X91350000Y-91150000D02*
X91000000Y-90800000D01*
X91000000Y-90800000D02*
X91000000Y-84350000D01*
X91350000Y-93050000D02*
X98450000Y-93050000D01*
X91350000Y-93050000D02*
X91000000Y-93400000D01*
X99400000Y-92100000D02*
G75*
G02X98450000Y-93050000I-950000J0D01*
G01*
X98450000Y-91150000D02*
G75*
G02X99400000Y-92100000I0J-950000D01*
G01*
M02*
