G04 #@! TF.FileFunction,Copper,L2,Bot,Signal*
%FSLAX46Y46*%
G04 Gerber Fmt 4.6, Leading zero omitted, Abs format (unit mm)*
G04 Created by KiCad (PCBNEW 0.201509221857+6208~30~ubuntu14.04.1-product) date Thu 24 Sep 2015 08:06:42 PM PDT*
%MOMM*%
G01*
G04 APERTURE LIST*
%ADD10C,0.100000*%
%ADD11C,1.800000*%
%ADD12R,5.000000X3.960000*%
%ADD13C,1.900000*%
%ADD14C,6.350000*%
%ADD15R,4.200000X0.700000*%
%ADD16R,1.000000X1.250000*%
%ADD17R,1.250000X1.000000*%
%ADD18R,1.800000X1.800000*%
%ADD19C,2.100000*%
%ADD20C,0.889000*%
%ADD21C,0.250000*%
%ADD22C,0.400000*%
%ADD23C,1.000000*%
%ADD24C,1.200000*%
%ADD25C,0.254000*%
G04 APERTURE END LIST*
D10*
D11*
X48750000Y-42789000D03*
X48750000Y-32629000D03*
D12*
X47243000Y-34089000D03*
X47243000Y-41329000D03*
D11*
X48750000Y-40249000D03*
X48750000Y-35169000D03*
X48750000Y-37709000D03*
X48750000Y-30089000D03*
X48750000Y-19929000D03*
D12*
X47243000Y-21389000D03*
X47243000Y-28629000D03*
D11*
X48750000Y-27549000D03*
X48750000Y-22469000D03*
X48750000Y-25009000D03*
X48750000Y-17389000D03*
X48750000Y-7229000D03*
D12*
X47243000Y-8689000D03*
X47243000Y-15929000D03*
D11*
X48750000Y-14849000D03*
X48750000Y-9769000D03*
X48750000Y-12309000D03*
X40150000Y-34400000D03*
X37150000Y-37400000D03*
X30050000Y-32850000D03*
X33050000Y-35850000D03*
X39350000Y-20700000D03*
X42350000Y-17700000D03*
X32292000Y-19303000D03*
X35292000Y-22303000D03*
X25292000Y-23553000D03*
X28292000Y-20553000D03*
D13*
X21064000Y-43678000D03*
X23604000Y-43678000D03*
X26144000Y-43678000D03*
X28684000Y-43678000D03*
D14*
X44550000Y-46000000D03*
X44550000Y-3900000D03*
D15*
X3550000Y-31200000D03*
X3550000Y-30200000D03*
X3550000Y-29200000D03*
X3550000Y-28200000D03*
X3550000Y-27200000D03*
X3550000Y-26200000D03*
X3550000Y-25200000D03*
X3550000Y-24200000D03*
X3550000Y-23200000D03*
X3550000Y-22200000D03*
X3550000Y-21200000D03*
X3550000Y-18200000D03*
X3550000Y-17200000D03*
X3550000Y-16200000D03*
X3550000Y-15200000D03*
X3550000Y-14200000D03*
X3550000Y-13200000D03*
X3550000Y-12200000D03*
D16*
X26792000Y-24053000D03*
X28792000Y-24053000D03*
D17*
X31042000Y-20303000D03*
X31042000Y-22303000D03*
D16*
X35292000Y-23553000D03*
X33292000Y-23553000D03*
X41300000Y-17600000D03*
X39300000Y-17600000D03*
D17*
X25300000Y-19850000D03*
X25300000Y-21850000D03*
X26800000Y-20350000D03*
X26800000Y-22350000D03*
D16*
X16050000Y-26600000D03*
X18050000Y-26600000D03*
X13450000Y-34700000D03*
X15450000Y-34700000D03*
D17*
X29150000Y-34900000D03*
X29150000Y-36900000D03*
D16*
X33150000Y-37400000D03*
X31150000Y-37400000D03*
D17*
X36150000Y-36150000D03*
X36150000Y-34150000D03*
D16*
X32650000Y-34650000D03*
X30650000Y-34650000D03*
D17*
X38650000Y-36900000D03*
X38650000Y-34900000D03*
X16050000Y-24350000D03*
X16050000Y-22350000D03*
D16*
X14050000Y-18850000D03*
X16050000Y-18850000D03*
X14050000Y-20600000D03*
X16050000Y-20600000D03*
X35300000Y-25350000D03*
X33300000Y-25350000D03*
X39800000Y-24350000D03*
X37800000Y-24350000D03*
D17*
X43550000Y-24350000D03*
X43550000Y-26350000D03*
X41550000Y-22350000D03*
X41550000Y-24350000D03*
X41550000Y-20850000D03*
X41550000Y-18850000D03*
X43550000Y-22350000D03*
X43550000Y-20350000D03*
D18*
X29250000Y-2600000D03*
D11*
X29250000Y-5140000D03*
X29250000Y-7680000D03*
X29250000Y-10220000D03*
X29250000Y-12760000D03*
X29250000Y-15300000D03*
X31790000Y-2600000D03*
X31790000Y-5140000D03*
X31790000Y-7680000D03*
X31790000Y-10220000D03*
X31790000Y-12760000D03*
X31790000Y-15300000D03*
X21064000Y-41138000D03*
X23604000Y-41138000D03*
X26144000Y-41138000D03*
X28684000Y-41138000D03*
D13*
X28684000Y-46218000D03*
X26144000Y-46218000D03*
X23604000Y-46218000D03*
X21064000Y-46218000D03*
D11*
X12006000Y-31806000D03*
D19*
X12006000Y-34600000D03*
D11*
X12006000Y-37394000D03*
X17594000Y-37394000D03*
X17594000Y-31806000D03*
X13506000Y-23056000D03*
D19*
X13506000Y-25850000D03*
D11*
X13506000Y-28644000D03*
X19094000Y-28644000D03*
X19094000Y-23056000D03*
D20*
X29850000Y-18900000D03*
X10550000Y-28500000D03*
X6850000Y-22200000D03*
X6850000Y-25200000D03*
X31042000Y-24053000D03*
X21150000Y-21700000D03*
X37150000Y-32100000D03*
X30150000Y-37400000D03*
X25350000Y-38100000D03*
X23050000Y-36400000D03*
X28550000Y-27600000D03*
X28550000Y-30500000D03*
X23550000Y-22300000D03*
X25050000Y-27000000D03*
X25050000Y-35900000D03*
X25050000Y-33000000D03*
X25050000Y-30100000D03*
X10050000Y-2300000D03*
X13450000Y-2300000D03*
X16850000Y-2300000D03*
X16850000Y-14900000D03*
X22650000Y-24600000D03*
X22350000Y-28600000D03*
X26250000Y-27500000D03*
X26250000Y-30400000D03*
X26250000Y-33300000D03*
X36800000Y-25350000D03*
X21750000Y-12300000D03*
D21*
X31042000Y-22303000D02*
X30353000Y-22303000D01*
X29850000Y-21800000D02*
X29850000Y-18900000D01*
X30353000Y-22303000D02*
X29850000Y-21800000D01*
D22*
X6600000Y-31200000D02*
X7050000Y-31200000D01*
X3550000Y-31200000D02*
X6600000Y-31200000D01*
X7050000Y-31200000D02*
X7550000Y-30700000D01*
D23*
X31042000Y-22303000D02*
X31042000Y-24053000D01*
X28792000Y-24053000D02*
X32792000Y-24053000D01*
X32792000Y-24053000D02*
X33292000Y-23553000D01*
X33292000Y-23553000D02*
X33292000Y-25342000D01*
X33292000Y-25342000D02*
X33300000Y-25350000D01*
D22*
X36150000Y-34150000D02*
X36150000Y-33100000D01*
X36150000Y-33100000D02*
X37150000Y-32100000D01*
X29150000Y-36900000D02*
X29650000Y-36900000D01*
X29650000Y-36900000D02*
X30150000Y-37400000D01*
X31150000Y-37400000D02*
X30150000Y-37400000D01*
X17594000Y-37394000D02*
X17594000Y-36844000D01*
X17594000Y-36844000D02*
X15450000Y-34700000D01*
X19094000Y-28644000D02*
X19094000Y-27644000D01*
X19094000Y-27644000D02*
X18050000Y-26600000D01*
X3550000Y-25200000D02*
X6650000Y-25200000D01*
X3550000Y-29200000D02*
X6600000Y-29200000D01*
X3550000Y-28200000D02*
X6650000Y-28200000D01*
X3550000Y-27200000D02*
X6650000Y-27200000D01*
X3550000Y-26200000D02*
X6650000Y-26200000D01*
X3550000Y-24200000D02*
X6600000Y-24200000D01*
X6600000Y-24200000D02*
X6650000Y-24150000D01*
X3550000Y-23200000D02*
X6700000Y-23200000D01*
X3550000Y-22200000D02*
X6700000Y-22200000D01*
X3550000Y-30200000D02*
X6600000Y-30200000D01*
D23*
X25292000Y-23553000D02*
X26292000Y-23553000D01*
X26292000Y-23553000D02*
X26792000Y-24053000D01*
D24*
X26800000Y-22350000D02*
X26495000Y-22350000D01*
X26495000Y-22350000D02*
X25292000Y-23553000D01*
X25300000Y-21850000D02*
X25300000Y-23545000D01*
X25300000Y-23545000D02*
X25292000Y-23553000D01*
X25300000Y-19850000D02*
X26300000Y-19850000D01*
X26300000Y-19850000D02*
X26800000Y-20350000D01*
X26800000Y-20350000D02*
X28089000Y-20350000D01*
X28089000Y-20350000D02*
X28292000Y-20553000D01*
X31042000Y-20303000D02*
X31292000Y-20303000D01*
X31292000Y-20303000D02*
X32292000Y-19303000D01*
X35292000Y-23553000D02*
X35292000Y-22303000D01*
D22*
X16050000Y-22350000D02*
X16050000Y-20600000D01*
X16050000Y-20600000D02*
X16050000Y-18850000D01*
X13506000Y-25850000D02*
X16050000Y-25850000D01*
X16050000Y-24350000D02*
X16050000Y-25850000D01*
X16050000Y-25850000D02*
X16050000Y-26600000D01*
X12006000Y-34600000D02*
X13350000Y-34600000D01*
X13350000Y-34600000D02*
X13450000Y-34700000D01*
X12256000Y-34850000D02*
X12006000Y-34600000D01*
D23*
X30150000Y-33150000D02*
X30150000Y-34150000D01*
X30150000Y-34150000D02*
X30650000Y-34650000D01*
X30150000Y-33150000D02*
X30150000Y-33900000D01*
X30150000Y-33900000D02*
X29150000Y-34900000D01*
D22*
X30150000Y-33900000D02*
X29150000Y-34900000D01*
X30150000Y-34150000D02*
X30650000Y-34650000D01*
D23*
X33150000Y-37400000D02*
X33150000Y-36150000D01*
X33150000Y-36150000D02*
X33150000Y-35150000D01*
X33150000Y-35150000D02*
X32650000Y-34650000D01*
X40150000Y-34400000D02*
X39150000Y-34400000D01*
X39150000Y-34400000D02*
X38650000Y-34900000D01*
D22*
X33150000Y-35150000D02*
X32650000Y-34650000D01*
D23*
X36150000Y-36150000D02*
X36150000Y-36400000D01*
X36150000Y-36400000D02*
X37150000Y-37400000D01*
X38650000Y-36900000D02*
X37650000Y-36900000D01*
X37650000Y-36900000D02*
X37150000Y-37400000D01*
D22*
X3550000Y-17200000D02*
X6150000Y-17200000D01*
X6150000Y-17200000D02*
X6550000Y-16800000D01*
X3550000Y-16200000D02*
X5950000Y-16200000D01*
D23*
X11450000Y-20600000D02*
X14050000Y-20600000D01*
X11450000Y-20600000D02*
X7650000Y-16800000D01*
X6550000Y-16800000D02*
X7650000Y-16800000D01*
D22*
X5950000Y-16200000D02*
X6550000Y-16800000D01*
X14050000Y-18850000D02*
X14050000Y-18000000D01*
X18750000Y-17500000D02*
X23550000Y-22300000D01*
X14550000Y-17500000D02*
X18750000Y-17500000D01*
X14050000Y-18000000D02*
X14550000Y-17500000D01*
X3550000Y-14200000D02*
X6050000Y-14200000D01*
X6050000Y-14200000D02*
X6550000Y-14700000D01*
X3550000Y-15200000D02*
X6050000Y-15200000D01*
D23*
X12100000Y-18850000D02*
X7950000Y-14700000D01*
X7950000Y-14700000D02*
X6550000Y-14700000D01*
X12100000Y-18850000D02*
X14050000Y-18850000D01*
D22*
X6050000Y-15200000D02*
X6550000Y-14700000D01*
X23550000Y-22300000D02*
X23550000Y-24200000D01*
X23550000Y-24200000D02*
X25050000Y-25700000D01*
X25050000Y-25700000D02*
X25050000Y-27000000D01*
X25050000Y-30100000D02*
X25050000Y-27000000D01*
X25050000Y-30100000D02*
X25050000Y-33000000D01*
X25050000Y-33000000D02*
X25050000Y-35900000D01*
X31790000Y-2600000D02*
X31790000Y-840000D01*
X31790000Y-840000D02*
X31750000Y-800000D01*
X13450000Y-2300000D02*
X10050000Y-2300000D01*
X16850000Y-14900000D02*
X16850000Y-2300000D01*
X3550000Y-12200000D02*
X6050000Y-12200000D01*
X6050000Y-12200000D02*
X6550000Y-12700000D01*
X3550000Y-13200000D02*
X6050000Y-13200000D01*
D23*
X6550000Y-12700000D02*
X8950000Y-12700000D01*
D22*
X6050000Y-13200000D02*
X6550000Y-12700000D01*
D21*
X20850000Y-30100000D02*
X20850000Y-38100000D01*
X22350000Y-28600000D02*
X20850000Y-30100000D01*
X19450000Y-42064000D02*
X21064000Y-43678000D01*
X19450000Y-39500000D02*
X19450000Y-42064000D01*
X20850000Y-38100000D02*
X19450000Y-39500000D01*
X22650000Y-24600000D02*
X22650000Y-28300000D01*
X22650000Y-28300000D02*
X22350000Y-28600000D01*
X27750000Y-31800000D02*
X27750000Y-37800000D01*
X26250000Y-28500000D02*
X27350000Y-29600000D01*
X27350000Y-29600000D02*
X27350000Y-31400000D01*
X27350000Y-31400000D02*
X27750000Y-31800000D01*
X26250000Y-27500000D02*
X26250000Y-28500000D01*
X30350000Y-42012000D02*
X28684000Y-43678000D01*
X30350000Y-39700000D02*
X30350000Y-42012000D01*
X29850000Y-39200000D02*
X30350000Y-39700000D01*
X29150000Y-39200000D02*
X29850000Y-39200000D01*
X27750000Y-37800000D02*
X29150000Y-39200000D01*
X27150000Y-36600000D02*
X27150000Y-39350000D01*
X26250000Y-30400000D02*
X26250000Y-32100000D01*
X27150000Y-33000000D02*
X27150000Y-35900000D01*
X26250000Y-32100000D02*
X27150000Y-33000000D01*
X27150000Y-35900000D02*
X27150000Y-36600000D01*
X27414000Y-42408000D02*
X27414000Y-39614000D01*
X27414000Y-42408000D02*
X26144000Y-43678000D01*
X27150000Y-39350000D02*
X27414000Y-39614000D01*
X22334000Y-39816000D02*
X23604000Y-38546000D01*
X26250000Y-35900000D02*
X23604000Y-38546000D01*
X26250000Y-33300000D02*
X26250000Y-35900000D01*
X23604000Y-43678000D02*
X22334000Y-42408000D01*
X22334000Y-42408000D02*
X22334000Y-39816000D01*
D22*
X35300000Y-25350000D02*
X36800000Y-25350000D01*
X36800000Y-25350000D02*
X37800000Y-24350000D01*
X41550000Y-24350000D02*
X39800000Y-24350000D01*
X43550000Y-24350000D02*
X41550000Y-24350000D01*
X41550000Y-22350000D02*
X43550000Y-22350000D01*
X41550000Y-20850000D02*
X41550000Y-22350000D01*
D24*
X41550000Y-18850000D02*
X41550000Y-18500000D01*
X41550000Y-18500000D02*
X42350000Y-17700000D01*
X42350000Y-17700000D02*
X41400000Y-17700000D01*
X41400000Y-17700000D02*
X41300000Y-17600000D01*
D22*
X31790000Y-16260000D02*
X31790000Y-15300000D01*
X31150000Y-16900000D02*
X31790000Y-16260000D01*
X26350000Y-16900000D02*
X31150000Y-16900000D01*
X21750000Y-12300000D02*
X26350000Y-16900000D01*
D25*
G36*
X35123000Y-17673000D02*
X31461693Y-17673000D01*
X31469541Y-17671439D01*
X31740434Y-17490434D01*
X32380434Y-16850434D01*
X32503679Y-16665985D01*
X32658371Y-16602068D01*
X33090551Y-16170643D01*
X33324733Y-15606670D01*
X33325265Y-14996009D01*
X33092068Y-14431629D01*
X32690818Y-14029677D01*
X33090551Y-13630643D01*
X33324733Y-13066670D01*
X33325265Y-12456009D01*
X33092068Y-11891629D01*
X32690818Y-11489677D01*
X33090551Y-11090643D01*
X33324733Y-10526670D01*
X33325265Y-9916009D01*
X33092068Y-9351629D01*
X32660643Y-8919449D01*
X32639806Y-8910797D01*
X32690554Y-8760159D01*
X31790000Y-7859605D01*
X30889446Y-8760159D01*
X30940035Y-8910327D01*
X30921629Y-8917932D01*
X30519677Y-9319182D01*
X30150818Y-8949677D01*
X30550551Y-8550643D01*
X30559203Y-8529806D01*
X30709841Y-8580554D01*
X31610395Y-7680000D01*
X31969605Y-7680000D01*
X32870159Y-8580554D01*
X33126643Y-8494148D01*
X33336458Y-7920664D01*
X33310839Y-7310540D01*
X33126643Y-6865852D01*
X32870159Y-6779446D01*
X31969605Y-7680000D01*
X31610395Y-7680000D01*
X30709841Y-6779446D01*
X30559673Y-6830035D01*
X30552068Y-6811629D01*
X30150818Y-6409677D01*
X30340667Y-6220159D01*
X30889446Y-6220159D01*
X30953401Y-6410000D01*
X30889446Y-6599841D01*
X31790000Y-7500395D01*
X32690554Y-6599841D01*
X32626599Y-6410000D01*
X32690554Y-6220159D01*
X31790000Y-5319605D01*
X30889446Y-6220159D01*
X30340667Y-6220159D01*
X30550551Y-6010643D01*
X30559203Y-5989806D01*
X30709841Y-6040554D01*
X31610395Y-5140000D01*
X31969605Y-5140000D01*
X32870159Y-6040554D01*
X33126643Y-5954148D01*
X33336458Y-5380664D01*
X33310839Y-4770540D01*
X33126643Y-4325852D01*
X32870159Y-4239446D01*
X31969605Y-5140000D01*
X31610395Y-5140000D01*
X30709841Y-4239446D01*
X30559673Y-4290035D01*
X30552068Y-4271629D01*
X30384120Y-4103387D01*
X30385317Y-4103162D01*
X30601441Y-3964090D01*
X30740598Y-3760426D01*
X30774890Y-3794718D01*
X30889447Y-3680161D01*
X30953401Y-3870000D01*
X30889446Y-4059841D01*
X31790000Y-4960395D01*
X32690554Y-4059841D01*
X32626599Y-3870000D01*
X32690554Y-3680159D01*
X31790000Y-2779605D01*
X31775858Y-2793748D01*
X31596253Y-2614143D01*
X31610395Y-2600000D01*
X31969605Y-2600000D01*
X32870159Y-3500554D01*
X33126643Y-3414148D01*
X33336458Y-2840664D01*
X33310839Y-2230540D01*
X33126643Y-1785852D01*
X32870159Y-1699446D01*
X31969605Y-2600000D01*
X31610395Y-2600000D01*
X31596253Y-2585858D01*
X31775858Y-2406253D01*
X31790000Y-2420395D01*
X32690554Y-1519841D01*
X32604148Y-1263357D01*
X32030664Y-1053542D01*
X31420540Y-1079161D01*
X30975852Y-1263357D01*
X30889447Y-1519839D01*
X30774890Y-1405282D01*
X30738412Y-1441760D01*
X30614090Y-1248559D01*
X30401890Y-1103569D01*
X30150000Y-1052560D01*
X28350000Y-1052560D01*
X28114683Y-1096838D01*
X27898559Y-1235910D01*
X27753569Y-1448110D01*
X27702560Y-1700000D01*
X27702560Y-3500000D01*
X27746838Y-3735317D01*
X27885910Y-3951441D01*
X28098110Y-4096431D01*
X28118534Y-4100567D01*
X27949449Y-4269357D01*
X27715267Y-4833330D01*
X27714735Y-5443991D01*
X27947932Y-6008371D01*
X28349182Y-6410323D01*
X27949449Y-6809357D01*
X27715267Y-7373330D01*
X27714735Y-7983991D01*
X27947932Y-8548371D01*
X28349182Y-8950323D01*
X27949449Y-9349357D01*
X27715267Y-9913330D01*
X27714735Y-10523991D01*
X27947932Y-11088371D01*
X28349182Y-11490323D01*
X27949449Y-11889357D01*
X27715267Y-12453330D01*
X27714735Y-13063991D01*
X27947932Y-13628371D01*
X28349182Y-14030323D01*
X27949449Y-14429357D01*
X27715267Y-14993330D01*
X27714735Y-15603991D01*
X27905220Y-16065000D01*
X26695868Y-16065000D01*
X22829589Y-12198721D01*
X22829687Y-12086216D01*
X22665689Y-11689311D01*
X22362286Y-11385378D01*
X21965668Y-11220687D01*
X21536216Y-11220313D01*
X21139311Y-11384311D01*
X20835378Y-11687714D01*
X20670687Y-12084332D01*
X20670313Y-12513784D01*
X20834311Y-12910689D01*
X21137714Y-13214622D01*
X21534332Y-13379313D01*
X21648544Y-13379412D01*
X25759566Y-17490434D01*
X26030459Y-17671439D01*
X26038307Y-17673000D01*
X20103868Y-17673000D01*
X19340434Y-16909566D01*
X19326117Y-16900000D01*
X19069541Y-16728561D01*
X18750000Y-16665000D01*
X14550000Y-16665000D01*
X14230460Y-16728560D01*
X13959566Y-16909566D01*
X13459566Y-17409566D01*
X13318169Y-17621182D01*
X13314683Y-17621838D01*
X13235175Y-17673000D01*
X12528132Y-17673000D01*
X8752566Y-13897434D01*
X8577000Y-13780124D01*
X8577000Y-11811142D01*
X8619071Y-11769071D01*
X8708048Y-11680095D01*
X8913983Y-11371893D01*
X8945833Y-11295000D01*
X9010293Y-11139382D01*
X9082607Y-10775833D01*
X9082607Y-10712305D01*
X9095000Y-10650000D01*
X9095000Y-645000D01*
X35123000Y-645000D01*
X35123000Y-17673000D01*
X35123000Y-17673000D01*
G37*
X35123000Y-17673000D02*
X31461693Y-17673000D01*
X31469541Y-17671439D01*
X31740434Y-17490434D01*
X32380434Y-16850434D01*
X32503679Y-16665985D01*
X32658371Y-16602068D01*
X33090551Y-16170643D01*
X33324733Y-15606670D01*
X33325265Y-14996009D01*
X33092068Y-14431629D01*
X32690818Y-14029677D01*
X33090551Y-13630643D01*
X33324733Y-13066670D01*
X33325265Y-12456009D01*
X33092068Y-11891629D01*
X32690818Y-11489677D01*
X33090551Y-11090643D01*
X33324733Y-10526670D01*
X33325265Y-9916009D01*
X33092068Y-9351629D01*
X32660643Y-8919449D01*
X32639806Y-8910797D01*
X32690554Y-8760159D01*
X31790000Y-7859605D01*
X30889446Y-8760159D01*
X30940035Y-8910327D01*
X30921629Y-8917932D01*
X30519677Y-9319182D01*
X30150818Y-8949677D01*
X30550551Y-8550643D01*
X30559203Y-8529806D01*
X30709841Y-8580554D01*
X31610395Y-7680000D01*
X31969605Y-7680000D01*
X32870159Y-8580554D01*
X33126643Y-8494148D01*
X33336458Y-7920664D01*
X33310839Y-7310540D01*
X33126643Y-6865852D01*
X32870159Y-6779446D01*
X31969605Y-7680000D01*
X31610395Y-7680000D01*
X30709841Y-6779446D01*
X30559673Y-6830035D01*
X30552068Y-6811629D01*
X30150818Y-6409677D01*
X30340667Y-6220159D01*
X30889446Y-6220159D01*
X30953401Y-6410000D01*
X30889446Y-6599841D01*
X31790000Y-7500395D01*
X32690554Y-6599841D01*
X32626599Y-6410000D01*
X32690554Y-6220159D01*
X31790000Y-5319605D01*
X30889446Y-6220159D01*
X30340667Y-6220159D01*
X30550551Y-6010643D01*
X30559203Y-5989806D01*
X30709841Y-6040554D01*
X31610395Y-5140000D01*
X31969605Y-5140000D01*
X32870159Y-6040554D01*
X33126643Y-5954148D01*
X33336458Y-5380664D01*
X33310839Y-4770540D01*
X33126643Y-4325852D01*
X32870159Y-4239446D01*
X31969605Y-5140000D01*
X31610395Y-5140000D01*
X30709841Y-4239446D01*
X30559673Y-4290035D01*
X30552068Y-4271629D01*
X30384120Y-4103387D01*
X30385317Y-4103162D01*
X30601441Y-3964090D01*
X30740598Y-3760426D01*
X30774890Y-3794718D01*
X30889447Y-3680161D01*
X30953401Y-3870000D01*
X30889446Y-4059841D01*
X31790000Y-4960395D01*
X32690554Y-4059841D01*
X32626599Y-3870000D01*
X32690554Y-3680159D01*
X31790000Y-2779605D01*
X31775858Y-2793748D01*
X31596253Y-2614143D01*
X31610395Y-2600000D01*
X31969605Y-2600000D01*
X32870159Y-3500554D01*
X33126643Y-3414148D01*
X33336458Y-2840664D01*
X33310839Y-2230540D01*
X33126643Y-1785852D01*
X32870159Y-1699446D01*
X31969605Y-2600000D01*
X31610395Y-2600000D01*
X31596253Y-2585858D01*
X31775858Y-2406253D01*
X31790000Y-2420395D01*
X32690554Y-1519841D01*
X32604148Y-1263357D01*
X32030664Y-1053542D01*
X31420540Y-1079161D01*
X30975852Y-1263357D01*
X30889447Y-1519839D01*
X30774890Y-1405282D01*
X30738412Y-1441760D01*
X30614090Y-1248559D01*
X30401890Y-1103569D01*
X30150000Y-1052560D01*
X28350000Y-1052560D01*
X28114683Y-1096838D01*
X27898559Y-1235910D01*
X27753569Y-1448110D01*
X27702560Y-1700000D01*
X27702560Y-3500000D01*
X27746838Y-3735317D01*
X27885910Y-3951441D01*
X28098110Y-4096431D01*
X28118534Y-4100567D01*
X27949449Y-4269357D01*
X27715267Y-4833330D01*
X27714735Y-5443991D01*
X27947932Y-6008371D01*
X28349182Y-6410323D01*
X27949449Y-6809357D01*
X27715267Y-7373330D01*
X27714735Y-7983991D01*
X27947932Y-8548371D01*
X28349182Y-8950323D01*
X27949449Y-9349357D01*
X27715267Y-9913330D01*
X27714735Y-10523991D01*
X27947932Y-11088371D01*
X28349182Y-11490323D01*
X27949449Y-11889357D01*
X27715267Y-12453330D01*
X27714735Y-13063991D01*
X27947932Y-13628371D01*
X28349182Y-14030323D01*
X27949449Y-14429357D01*
X27715267Y-14993330D01*
X27714735Y-15603991D01*
X27905220Y-16065000D01*
X26695868Y-16065000D01*
X22829589Y-12198721D01*
X22829687Y-12086216D01*
X22665689Y-11689311D01*
X22362286Y-11385378D01*
X21965668Y-11220687D01*
X21536216Y-11220313D01*
X21139311Y-11384311D01*
X20835378Y-11687714D01*
X20670687Y-12084332D01*
X20670313Y-12513784D01*
X20834311Y-12910689D01*
X21137714Y-13214622D01*
X21534332Y-13379313D01*
X21648544Y-13379412D01*
X25759566Y-17490434D01*
X26030459Y-17671439D01*
X26038307Y-17673000D01*
X20103868Y-17673000D01*
X19340434Y-16909566D01*
X19326117Y-16900000D01*
X19069541Y-16728561D01*
X18750000Y-16665000D01*
X14550000Y-16665000D01*
X14230460Y-16728560D01*
X13959566Y-16909566D01*
X13459566Y-17409566D01*
X13318169Y-17621182D01*
X13314683Y-17621838D01*
X13235175Y-17673000D01*
X12528132Y-17673000D01*
X8752566Y-13897434D01*
X8577000Y-13780124D01*
X8577000Y-11811142D01*
X8619071Y-11769071D01*
X8708048Y-11680095D01*
X8913983Y-11371893D01*
X8945833Y-11295000D01*
X9010293Y-11139382D01*
X9082607Y-10775833D01*
X9082607Y-10712305D01*
X9095000Y-10650000D01*
X9095000Y-645000D01*
X35123000Y-645000D01*
X35123000Y-17673000D01*
G36*
X42394628Y-668156D02*
X41321923Y-1738991D01*
X40740663Y-3138819D01*
X40739340Y-4654531D01*
X41318156Y-6055372D01*
X42388991Y-7128077D01*
X43788819Y-7709337D01*
X44108000Y-7709616D01*
X44108000Y-8403250D01*
X44266750Y-8562000D01*
X47116000Y-8562000D01*
X47116000Y-8542000D01*
X47370000Y-8542000D01*
X47370000Y-8562000D01*
X47390000Y-8562000D01*
X47390000Y-8816000D01*
X47370000Y-8816000D01*
X47370000Y-9073359D01*
X47203542Y-9528336D01*
X47229161Y-10138460D01*
X47370000Y-10478475D01*
X47370000Y-11145250D01*
X47528750Y-11304000D01*
X47584041Y-11304000D01*
X47449449Y-11438357D01*
X47215267Y-12002330D01*
X47214735Y-12612991D01*
X47447932Y-13177371D01*
X47584322Y-13314000D01*
X47528750Y-13314000D01*
X47370000Y-13472750D01*
X47370000Y-14153359D01*
X47203542Y-14608336D01*
X47229161Y-15218460D01*
X47370000Y-15558475D01*
X47370000Y-15802000D01*
X47390000Y-15802000D01*
X47390000Y-16056000D01*
X47370000Y-16056000D01*
X47370000Y-16693359D01*
X47203542Y-17148336D01*
X47229161Y-17758460D01*
X47370000Y-18098475D01*
X47370000Y-18385250D01*
X47528750Y-18544000D01*
X47695172Y-18544000D01*
X47734890Y-18583718D01*
X47774608Y-18544000D01*
X47874659Y-18544000D01*
X47913401Y-18659000D01*
X47874659Y-18774000D01*
X47774608Y-18774000D01*
X47734890Y-18734282D01*
X47695172Y-18774000D01*
X47528750Y-18774000D01*
X47370000Y-18932750D01*
X47370000Y-19233359D01*
X47203542Y-19688336D01*
X47229161Y-20298460D01*
X47370000Y-20638475D01*
X47370000Y-21262000D01*
X47390000Y-21262000D01*
X47390000Y-21516000D01*
X47370000Y-21516000D01*
X47370000Y-21773359D01*
X47203542Y-22228336D01*
X47229161Y-22838460D01*
X47370000Y-23178475D01*
X47370000Y-23845250D01*
X47528750Y-24004000D01*
X47584041Y-24004000D01*
X47449449Y-24138357D01*
X47215267Y-24702330D01*
X47214735Y-25312991D01*
X47447932Y-25877371D01*
X47584322Y-26014000D01*
X47528750Y-26014000D01*
X47370000Y-26172750D01*
X47370000Y-26853359D01*
X47203542Y-27308336D01*
X47229161Y-27918460D01*
X47370000Y-28258475D01*
X47370000Y-28502000D01*
X47390000Y-28502000D01*
X47390000Y-28756000D01*
X47370000Y-28756000D01*
X47370000Y-29393359D01*
X47203542Y-29848336D01*
X47229161Y-30458460D01*
X47370000Y-30798475D01*
X47370000Y-31085250D01*
X47528750Y-31244000D01*
X47695172Y-31244000D01*
X47734890Y-31283718D01*
X47774608Y-31244000D01*
X47874659Y-31244000D01*
X47913401Y-31359000D01*
X47874659Y-31474000D01*
X47774608Y-31474000D01*
X47734890Y-31434282D01*
X47695172Y-31474000D01*
X47528750Y-31474000D01*
X47370000Y-31632750D01*
X47370000Y-31933359D01*
X47203542Y-32388336D01*
X47229161Y-32998460D01*
X47370000Y-33338475D01*
X47370000Y-33962000D01*
X47390000Y-33962000D01*
X47390000Y-34216000D01*
X47370000Y-34216000D01*
X47370000Y-34473359D01*
X47203542Y-34928336D01*
X47229161Y-35538460D01*
X47370000Y-35878475D01*
X47370000Y-36545250D01*
X47528750Y-36704000D01*
X47584041Y-36704000D01*
X47449449Y-36838357D01*
X47215267Y-37402330D01*
X47214735Y-38012991D01*
X47447932Y-38577371D01*
X47584322Y-38714000D01*
X47528750Y-38714000D01*
X47370000Y-38872750D01*
X47370000Y-39553359D01*
X47203542Y-40008336D01*
X47229161Y-40618460D01*
X47370000Y-40958475D01*
X47370000Y-41202000D01*
X47390000Y-41202000D01*
X47390000Y-41456000D01*
X47370000Y-41456000D01*
X47370000Y-41476000D01*
X47116000Y-41476000D01*
X47116000Y-41456000D01*
X44266750Y-41456000D01*
X44108000Y-41614750D01*
X44108000Y-42189613D01*
X43795469Y-42189340D01*
X42394628Y-42768156D01*
X41321923Y-43838991D01*
X40740663Y-45238819D01*
X40739340Y-46754531D01*
X41318156Y-48155372D01*
X42388991Y-49228077D01*
X42453829Y-49255000D01*
X9095000Y-49255000D01*
X9095000Y-47334350D01*
X20127255Y-47334350D01*
X20219792Y-47596019D01*
X20811398Y-47814188D01*
X21441461Y-47789352D01*
X21908208Y-47596019D01*
X22000745Y-47334350D01*
X22667255Y-47334350D01*
X22759792Y-47596019D01*
X23351398Y-47814188D01*
X23981461Y-47789352D01*
X24448208Y-47596019D01*
X24540745Y-47334350D01*
X25207255Y-47334350D01*
X25299792Y-47596019D01*
X25891398Y-47814188D01*
X26521461Y-47789352D01*
X26988208Y-47596019D01*
X27080745Y-47334350D01*
X27747255Y-47334350D01*
X27839792Y-47596019D01*
X28431398Y-47814188D01*
X29061461Y-47789352D01*
X29528208Y-47596019D01*
X29620745Y-47334350D01*
X28684000Y-46397605D01*
X27747255Y-47334350D01*
X27080745Y-47334350D01*
X26144000Y-46397605D01*
X25207255Y-47334350D01*
X24540745Y-47334350D01*
X23604000Y-46397605D01*
X22667255Y-47334350D01*
X22000745Y-47334350D01*
X21064000Y-46397605D01*
X20127255Y-47334350D01*
X9095000Y-47334350D01*
X9095000Y-45965398D01*
X19467812Y-45965398D01*
X19492648Y-46595461D01*
X19685981Y-47062208D01*
X19947650Y-47154745D01*
X20884395Y-46218000D01*
X21243605Y-46218000D01*
X22180350Y-47154745D01*
X22334000Y-47100408D01*
X22487650Y-47154745D01*
X23424395Y-46218000D01*
X23783605Y-46218000D01*
X24720350Y-47154745D01*
X24874000Y-47100408D01*
X25027650Y-47154745D01*
X25964395Y-46218000D01*
X26323605Y-46218000D01*
X27260350Y-47154745D01*
X27414000Y-47100408D01*
X27567650Y-47154745D01*
X28504395Y-46218000D01*
X28863605Y-46218000D01*
X29800350Y-47154745D01*
X30062019Y-47062208D01*
X30280188Y-46470602D01*
X30255352Y-45840539D01*
X30062019Y-45373792D01*
X29800350Y-45281255D01*
X28863605Y-46218000D01*
X28504395Y-46218000D01*
X27567650Y-45281255D01*
X27414000Y-45335592D01*
X27260350Y-45281255D01*
X26323605Y-46218000D01*
X25964395Y-46218000D01*
X25027650Y-45281255D01*
X24874000Y-45335592D01*
X24720350Y-45281255D01*
X23783605Y-46218000D01*
X23424395Y-46218000D01*
X22487650Y-45281255D01*
X22334000Y-45335592D01*
X22180350Y-45281255D01*
X21243605Y-46218000D01*
X20884395Y-46218000D01*
X19947650Y-45281255D01*
X19685981Y-45373792D01*
X19467812Y-45965398D01*
X9095000Y-45965398D01*
X9095000Y-34933697D01*
X10320708Y-34933697D01*
X10576694Y-35553229D01*
X11050278Y-36027640D01*
X11171453Y-36077956D01*
X11137629Y-36091932D01*
X10705449Y-36523357D01*
X10471267Y-37087330D01*
X10470735Y-37697991D01*
X10703932Y-38262371D01*
X11135357Y-38694551D01*
X11699330Y-38928733D01*
X12309991Y-38929265D01*
X12874371Y-38696068D01*
X13096668Y-38474159D01*
X16693446Y-38474159D01*
X16779852Y-38730643D01*
X17353336Y-38940458D01*
X17963460Y-38914839D01*
X18408148Y-38730643D01*
X18494554Y-38474159D01*
X17594000Y-37573605D01*
X16693446Y-38474159D01*
X13096668Y-38474159D01*
X13306551Y-38264643D01*
X13540733Y-37700670D01*
X13541209Y-37153336D01*
X16047542Y-37153336D01*
X16073161Y-37763460D01*
X16257357Y-38208148D01*
X16513841Y-38294554D01*
X17414395Y-37394000D01*
X17773605Y-37394000D01*
X18674159Y-38294554D01*
X18930643Y-38208148D01*
X19140458Y-37634664D01*
X19114839Y-37024540D01*
X18930643Y-36579852D01*
X18674159Y-36493446D01*
X17773605Y-37394000D01*
X17414395Y-37394000D01*
X16513841Y-36493446D01*
X16257357Y-36579852D01*
X16047542Y-37153336D01*
X13541209Y-37153336D01*
X13541265Y-37090009D01*
X13308068Y-36525629D01*
X13096650Y-36313841D01*
X16693446Y-36313841D01*
X17594000Y-37214395D01*
X18494554Y-36313841D01*
X18408148Y-36057357D01*
X17834664Y-35847542D01*
X17224540Y-35873161D01*
X16779852Y-36057357D01*
X16693446Y-36313841D01*
X13096650Y-36313841D01*
X12876643Y-36093449D01*
X12840407Y-36078402D01*
X12959229Y-36029306D01*
X13016194Y-35972440D01*
X13950000Y-35972440D01*
X14185317Y-35928162D01*
X14401441Y-35789090D01*
X14447969Y-35720994D01*
X14590302Y-35863327D01*
X14823691Y-35960000D01*
X15164250Y-35960000D01*
X15323000Y-35801250D01*
X15323000Y-34827000D01*
X15577000Y-34827000D01*
X15577000Y-35801250D01*
X15735750Y-35960000D01*
X16076309Y-35960000D01*
X16309698Y-35863327D01*
X16488327Y-35684699D01*
X16585000Y-35451310D01*
X16585000Y-34985750D01*
X16426250Y-34827000D01*
X15577000Y-34827000D01*
X15323000Y-34827000D01*
X15303000Y-34827000D01*
X15303000Y-34573000D01*
X15323000Y-34573000D01*
X15323000Y-33598750D01*
X15577000Y-33598750D01*
X15577000Y-34573000D01*
X16426250Y-34573000D01*
X16585000Y-34414250D01*
X16585000Y-33948690D01*
X16488327Y-33715301D01*
X16309698Y-33536673D01*
X16076309Y-33440000D01*
X15735750Y-33440000D01*
X15577000Y-33598750D01*
X15323000Y-33598750D01*
X15164250Y-33440000D01*
X14823691Y-33440000D01*
X14590302Y-33536673D01*
X14449064Y-33677910D01*
X14414090Y-33623559D01*
X14201890Y-33478569D01*
X13950000Y-33427560D01*
X13216477Y-33427560D01*
X12961722Y-33172360D01*
X12840547Y-33122044D01*
X12874371Y-33108068D01*
X13306551Y-32676643D01*
X13540733Y-32112670D01*
X13540735Y-32109991D01*
X16058735Y-32109991D01*
X16291932Y-32674371D01*
X16723357Y-33106551D01*
X17287330Y-33340733D01*
X17897991Y-33341265D01*
X18462371Y-33108068D01*
X18894551Y-32676643D01*
X19128733Y-32112670D01*
X19129265Y-31502009D01*
X18896068Y-30937629D01*
X18464643Y-30505449D01*
X17900670Y-30271267D01*
X17290009Y-30270735D01*
X16725629Y-30503932D01*
X16293449Y-30935357D01*
X16059267Y-31499330D01*
X16058735Y-32109991D01*
X13540735Y-32109991D01*
X13541265Y-31502009D01*
X13308068Y-30937629D01*
X12876643Y-30505449D01*
X12312670Y-30271267D01*
X11702009Y-30270735D01*
X11137629Y-30503932D01*
X10705449Y-30935357D01*
X10471267Y-31499330D01*
X10470735Y-32109991D01*
X10703932Y-32674371D01*
X11135357Y-33106551D01*
X11171593Y-33121598D01*
X11052771Y-33170694D01*
X10578360Y-33644278D01*
X10321293Y-34263362D01*
X10320708Y-34933697D01*
X9095000Y-34933697D01*
X9095000Y-32700000D01*
X9082607Y-32637696D01*
X9082607Y-32624167D01*
X9010293Y-32260618D01*
X8913984Y-32028109D01*
X8913983Y-32028108D01*
X8913983Y-32028107D01*
X8708048Y-31719905D01*
X8619071Y-31630929D01*
X8530095Y-31541952D01*
X8221893Y-31336017D01*
X8221891Y-31336016D01*
X7989381Y-31239707D01*
X7625833Y-31167393D01*
X7562305Y-31167393D01*
X7500000Y-31155000D01*
X6477000Y-31155000D01*
X6477000Y-21295000D01*
X7500000Y-21295000D01*
X7562305Y-21282607D01*
X7625833Y-21282607D01*
X7989381Y-21210293D01*
X8221891Y-21113984D01*
X8221893Y-21113983D01*
X8530095Y-20908048D01*
X8619071Y-20819071D01*
X8708048Y-20730095D01*
X8913983Y-20421893D01*
X8955106Y-20322614D01*
X9010293Y-20189382D01*
X9080632Y-19835764D01*
X10647434Y-21402567D01*
X11015655Y-21648604D01*
X11450000Y-21735000D01*
X12683448Y-21735000D01*
X12637629Y-21753932D01*
X12205449Y-22185357D01*
X11971267Y-22749330D01*
X11970735Y-23359991D01*
X12203932Y-23924371D01*
X12635357Y-24356551D01*
X12671593Y-24371598D01*
X12552771Y-24420694D01*
X12078360Y-24894278D01*
X11821293Y-25513362D01*
X11820708Y-26183697D01*
X12076694Y-26803229D01*
X12550278Y-27277640D01*
X12671453Y-27327956D01*
X12637629Y-27341932D01*
X12205449Y-27773357D01*
X11971267Y-28337330D01*
X11970735Y-28947991D01*
X12203932Y-29512371D01*
X12635357Y-29944551D01*
X13199330Y-30178733D01*
X13809991Y-30179265D01*
X14374371Y-29946068D01*
X14806551Y-29514643D01*
X15040733Y-28950670D01*
X15041265Y-28340009D01*
X14808068Y-27775629D01*
X14376643Y-27343449D01*
X14340407Y-27328402D01*
X14459229Y-27279306D01*
X14902560Y-26836748D01*
X14902560Y-27225000D01*
X14946838Y-27460317D01*
X15085910Y-27676441D01*
X15298110Y-27821431D01*
X15550000Y-27872440D01*
X16550000Y-27872440D01*
X16785317Y-27828162D01*
X17001441Y-27689090D01*
X17047969Y-27620994D01*
X17190302Y-27763327D01*
X17423691Y-27860000D01*
X17746327Y-27860000D01*
X17547542Y-28403336D01*
X17573161Y-29013460D01*
X17757357Y-29458148D01*
X18013841Y-29544554D01*
X18914395Y-28644000D01*
X18130395Y-27860000D01*
X18177002Y-27860000D01*
X18177002Y-27701252D01*
X18335750Y-27860000D01*
X18489605Y-27860000D01*
X19094000Y-28464395D01*
X19994554Y-27563841D01*
X19908148Y-27307357D01*
X19334664Y-27097542D01*
X19185000Y-27103826D01*
X19185000Y-26885750D01*
X19026250Y-26727000D01*
X18177000Y-26727000D01*
X18177000Y-26747000D01*
X17923000Y-26747000D01*
X17923000Y-26727000D01*
X17903000Y-26727000D01*
X17903000Y-26473000D01*
X17923000Y-26473000D01*
X17923000Y-25498750D01*
X18177000Y-25498750D01*
X18177000Y-26473000D01*
X19026250Y-26473000D01*
X19185000Y-26314250D01*
X19185000Y-25848690D01*
X19088327Y-25615301D01*
X18909698Y-25436673D01*
X18676309Y-25340000D01*
X18335750Y-25340000D01*
X18177000Y-25498750D01*
X17923000Y-25498750D01*
X17764250Y-25340000D01*
X17423691Y-25340000D01*
X17190302Y-25436673D01*
X17049064Y-25577910D01*
X17014090Y-25523559D01*
X16910700Y-25452916D01*
X17126441Y-25314090D01*
X17271431Y-25101890D01*
X17322440Y-24850000D01*
X17322440Y-23850000D01*
X17278162Y-23614683D01*
X17139090Y-23398559D01*
X17082644Y-23359991D01*
X17558735Y-23359991D01*
X17791932Y-23924371D01*
X18223357Y-24356551D01*
X18787330Y-24590733D01*
X19397991Y-24591265D01*
X19962371Y-24358068D01*
X20394551Y-23926643D01*
X20628733Y-23362670D01*
X20629265Y-22752009D01*
X20396068Y-22187629D01*
X19964643Y-21755449D01*
X19400670Y-21521267D01*
X18790009Y-21520735D01*
X18225629Y-21753932D01*
X17793449Y-22185357D01*
X17559267Y-22749330D01*
X17558735Y-23359991D01*
X17082644Y-23359991D01*
X17069289Y-23350866D01*
X17126441Y-23314090D01*
X17271431Y-23101890D01*
X17322440Y-22850000D01*
X17322440Y-21850000D01*
X17278162Y-21614683D01*
X17156739Y-21425987D01*
X17197440Y-21225000D01*
X17197440Y-19975000D01*
X17153162Y-19739683D01*
X17145658Y-19728021D01*
X17146431Y-19726890D01*
X17197440Y-19475000D01*
X17197440Y-18527000D01*
X18596132Y-18527000D01*
X22470411Y-22401279D01*
X22470313Y-22513784D01*
X22634311Y-22910689D01*
X22715000Y-22991519D01*
X22715000Y-23520556D01*
X22436216Y-23520313D01*
X22039311Y-23684311D01*
X21735378Y-23987714D01*
X21570687Y-24384332D01*
X21570313Y-24813784D01*
X21734311Y-25210689D01*
X21890000Y-25366650D01*
X21890000Y-27622047D01*
X21739311Y-27684311D01*
X21435378Y-27987714D01*
X21270687Y-28384332D01*
X21270495Y-28604703D01*
X20438485Y-29436713D01*
X20640458Y-28884664D01*
X20614839Y-28274540D01*
X20430643Y-27829852D01*
X20174159Y-27743446D01*
X19273605Y-28644000D01*
X19287748Y-28658143D01*
X19108143Y-28837748D01*
X19094000Y-28823605D01*
X18193446Y-29724159D01*
X18279852Y-29980643D01*
X18853336Y-30190458D01*
X19463460Y-30164839D01*
X19908148Y-29980643D01*
X19994553Y-29724161D01*
X20109110Y-29838718D01*
X20166347Y-29781481D01*
X20147852Y-29809161D01*
X20090000Y-30100000D01*
X20090000Y-37785198D01*
X18912599Y-38962599D01*
X18747852Y-39209161D01*
X18690000Y-39500000D01*
X18690000Y-42064000D01*
X18747852Y-42354839D01*
X18912599Y-42601401D01*
X19535980Y-43224782D01*
X19479276Y-43361341D01*
X19478725Y-43991893D01*
X19719519Y-44574657D01*
X20158211Y-45014116D01*
X20127255Y-45101650D01*
X21064000Y-46038395D01*
X22000745Y-45101650D01*
X21969593Y-45013561D01*
X22334261Y-44649529D01*
X22698211Y-45014116D01*
X22667255Y-45101650D01*
X23604000Y-46038395D01*
X24540745Y-45101650D01*
X24509593Y-45013561D01*
X24874261Y-44649529D01*
X25238211Y-45014116D01*
X25207255Y-45101650D01*
X26144000Y-46038395D01*
X27080745Y-45101650D01*
X27049593Y-45013561D01*
X27414261Y-44649529D01*
X27778211Y-45014116D01*
X27747255Y-45101650D01*
X28684000Y-46038395D01*
X29620745Y-45101650D01*
X29589593Y-45013561D01*
X30026914Y-44577003D01*
X30268724Y-43994659D01*
X30269275Y-43364107D01*
X30211798Y-43225004D01*
X30887401Y-42549401D01*
X31052148Y-42302839D01*
X31110000Y-42012000D01*
X31110000Y-39700000D01*
X31052148Y-39409161D01*
X30927553Y-39222690D01*
X44108000Y-39222690D01*
X44108000Y-41043250D01*
X44266750Y-41202000D01*
X47116000Y-41202000D01*
X47116000Y-38872750D01*
X46957250Y-38714000D01*
X44616691Y-38714000D01*
X44383302Y-38810673D01*
X44204673Y-38989301D01*
X44108000Y-39222690D01*
X30927553Y-39222690D01*
X30887401Y-39162599D01*
X30387401Y-38662599D01*
X30140839Y-38497852D01*
X29850000Y-38440000D01*
X29464802Y-38440000D01*
X28962026Y-37937224D01*
X29023000Y-37876250D01*
X29023000Y-37027000D01*
X29003000Y-37027000D01*
X29003000Y-36773000D01*
X29023000Y-36773000D01*
X29023000Y-36753000D01*
X29277000Y-36753000D01*
X29277000Y-36773000D01*
X29297000Y-36773000D01*
X29297000Y-37027000D01*
X29277000Y-37027000D01*
X29277000Y-37876250D01*
X29435750Y-38035000D01*
X29901310Y-38035000D01*
X30015000Y-37987908D01*
X30015000Y-38151310D01*
X30111673Y-38384699D01*
X30290302Y-38563327D01*
X30523691Y-38660000D01*
X30864250Y-38660000D01*
X31023000Y-38501250D01*
X31023000Y-37527000D01*
X31003000Y-37527000D01*
X31003000Y-37273000D01*
X31023000Y-37273000D01*
X31023000Y-36298750D01*
X30864250Y-36140000D01*
X30523691Y-36140000D01*
X30379383Y-36199775D01*
X30313327Y-36040302D01*
X30195466Y-35922440D01*
X31150000Y-35922440D01*
X31385317Y-35878162D01*
X31515048Y-35794682D01*
X31514747Y-36140000D01*
X31435750Y-36140000D01*
X31277000Y-36298750D01*
X31277000Y-37273000D01*
X31297000Y-37273000D01*
X31297000Y-37527000D01*
X31277000Y-37527000D01*
X31277000Y-38501250D01*
X31435750Y-38660000D01*
X31776309Y-38660000D01*
X32009698Y-38563327D01*
X32150936Y-38422090D01*
X32185910Y-38476441D01*
X32398110Y-38621431D01*
X32650000Y-38672440D01*
X33650000Y-38672440D01*
X33885317Y-38628162D01*
X34101441Y-38489090D01*
X34246431Y-38276890D01*
X34297440Y-38025000D01*
X34297440Y-36775000D01*
X34297228Y-36773873D01*
X34350551Y-36720643D01*
X34584733Y-36156670D01*
X34585174Y-35650000D01*
X34877560Y-35650000D01*
X34877560Y-36650000D01*
X34921838Y-36885317D01*
X35060910Y-37101441D01*
X35273110Y-37246431D01*
X35421310Y-37276442D01*
X35614939Y-37470071D01*
X35614735Y-37703991D01*
X35847932Y-38268371D01*
X36279357Y-38700551D01*
X36843330Y-38934733D01*
X37453991Y-38935265D01*
X38018371Y-38702068D01*
X38450551Y-38270643D01*
X38543233Y-38047440D01*
X39275000Y-38047440D01*
X39510317Y-38003162D01*
X39726441Y-37864090D01*
X39871431Y-37651890D01*
X39922440Y-37400000D01*
X39922440Y-36400000D01*
X39878162Y-36164683D01*
X39739090Y-35948559D01*
X39669289Y-35900866D01*
X39705561Y-35877526D01*
X39843330Y-35934733D01*
X40453991Y-35935265D01*
X41018371Y-35702068D01*
X41450551Y-35270643D01*
X41684733Y-34706670D01*
X41685022Y-34374750D01*
X44108000Y-34374750D01*
X44108000Y-36195310D01*
X44204673Y-36428699D01*
X44383302Y-36607327D01*
X44616691Y-36704000D01*
X46957250Y-36704000D01*
X47116000Y-36545250D01*
X47116000Y-34216000D01*
X44266750Y-34216000D01*
X44108000Y-34374750D01*
X41685022Y-34374750D01*
X41685265Y-34096009D01*
X41452068Y-33531629D01*
X41020643Y-33099449D01*
X40456670Y-32865267D01*
X39846009Y-32864735D01*
X39281629Y-33097932D01*
X39105377Y-33273876D01*
X38715654Y-33351397D01*
X38372837Y-33580460D01*
X38347434Y-33597434D01*
X38192308Y-33752560D01*
X38025000Y-33752560D01*
X37789683Y-33796838D01*
X37573559Y-33935910D01*
X37428569Y-34148110D01*
X37377560Y-34400000D01*
X37377560Y-34403310D01*
X37251250Y-34277000D01*
X36277000Y-34277000D01*
X36277000Y-34297000D01*
X36023000Y-34297000D01*
X36023000Y-34277000D01*
X35048750Y-34277000D01*
X34890000Y-34435750D01*
X34890000Y-34776309D01*
X34986673Y-35009698D01*
X35127910Y-35150936D01*
X35073559Y-35185910D01*
X34928569Y-35398110D01*
X34877560Y-35650000D01*
X34585174Y-35650000D01*
X34585265Y-35546009D01*
X34352068Y-34981629D01*
X34226485Y-34855826D01*
X34198603Y-34715654D01*
X33952566Y-34347434D01*
X33797440Y-34192308D01*
X33797440Y-34025000D01*
X33753162Y-33789683D01*
X33614090Y-33573559D01*
X33541106Y-33523691D01*
X34890000Y-33523691D01*
X34890000Y-33864250D01*
X35048750Y-34023000D01*
X36023000Y-34023000D01*
X36023000Y-33173750D01*
X36277000Y-33173750D01*
X36277000Y-34023000D01*
X37251250Y-34023000D01*
X37410000Y-33864250D01*
X37410000Y-33523691D01*
X37313327Y-33290302D01*
X37134699Y-33111673D01*
X36901310Y-33015000D01*
X36435750Y-33015000D01*
X36277000Y-33173750D01*
X36023000Y-33173750D01*
X35864250Y-33015000D01*
X35398690Y-33015000D01*
X35165301Y-33111673D01*
X34986673Y-33290302D01*
X34890000Y-33523691D01*
X33541106Y-33523691D01*
X33401890Y-33428569D01*
X33150000Y-33377560D01*
X32150000Y-33377560D01*
X31914683Y-33421838D01*
X31698559Y-33560910D01*
X31650866Y-33630711D01*
X31614090Y-33573559D01*
X31456373Y-33465796D01*
X31584733Y-33156670D01*
X31585265Y-32546009D01*
X31352507Y-31982690D01*
X44108000Y-31982690D01*
X44108000Y-33803250D01*
X44266750Y-33962000D01*
X47116000Y-33962000D01*
X47116000Y-31632750D01*
X46957250Y-31474000D01*
X44616691Y-31474000D01*
X44383302Y-31570673D01*
X44204673Y-31749301D01*
X44108000Y-31982690D01*
X31352507Y-31982690D01*
X31352068Y-31981629D01*
X30920643Y-31549449D01*
X30356670Y-31315267D01*
X29746009Y-31314735D01*
X29181629Y-31547932D01*
X28749449Y-31979357D01*
X28515267Y-32543330D01*
X28514735Y-33153991D01*
X28741665Y-33703203D01*
X28692308Y-33752560D01*
X28525000Y-33752560D01*
X28510000Y-33755382D01*
X28510000Y-31800000D01*
X28452148Y-31509161D01*
X28452148Y-31509160D01*
X28287401Y-31262599D01*
X28110000Y-31085198D01*
X28110000Y-29600000D01*
X28052148Y-29309161D01*
X27887401Y-29062599D01*
X27739552Y-28914750D01*
X44108000Y-28914750D01*
X44108000Y-30735310D01*
X44204673Y-30968699D01*
X44383302Y-31147327D01*
X44616691Y-31244000D01*
X46957250Y-31244000D01*
X47116000Y-31085250D01*
X47116000Y-28756000D01*
X44266750Y-28756000D01*
X44108000Y-28914750D01*
X27739552Y-28914750D01*
X27050756Y-28225954D01*
X27164622Y-28112286D01*
X27329313Y-27715668D01*
X27329687Y-27286216D01*
X27165689Y-26889311D01*
X26912571Y-26635750D01*
X42290000Y-26635750D01*
X42290000Y-26976309D01*
X42386673Y-27209698D01*
X42565301Y-27388327D01*
X42798690Y-27485000D01*
X43264250Y-27485000D01*
X43423000Y-27326250D01*
X43423000Y-26477000D01*
X42448750Y-26477000D01*
X42290000Y-26635750D01*
X26912571Y-26635750D01*
X26862286Y-26585378D01*
X26465668Y-26420687D01*
X26036216Y-26420313D01*
X25986916Y-26440683D01*
X25965689Y-26389311D01*
X25885000Y-26308481D01*
X25885000Y-25700000D01*
X25872220Y-25635750D01*
X32165000Y-25635750D01*
X32165000Y-26101310D01*
X32261673Y-26334699D01*
X32440302Y-26513327D01*
X32673691Y-26610000D01*
X33014250Y-26610000D01*
X33173000Y-26451250D01*
X33173000Y-25477000D01*
X32323750Y-25477000D01*
X32165000Y-25635750D01*
X25872220Y-25635750D01*
X25821439Y-25380459D01*
X25640434Y-25109566D01*
X25612367Y-25081499D01*
X25758268Y-25021214D01*
X25827910Y-25129441D01*
X26040110Y-25274431D01*
X26292000Y-25325440D01*
X27292000Y-25325440D01*
X27527317Y-25281162D01*
X27743441Y-25142090D01*
X27789969Y-25073994D01*
X27932302Y-25216327D01*
X28165691Y-25313000D01*
X28506250Y-25313000D01*
X28665000Y-25154250D01*
X28665000Y-24180000D01*
X28919000Y-24180000D01*
X28919000Y-25154250D01*
X29077750Y-25313000D01*
X29418309Y-25313000D01*
X29651698Y-25216327D01*
X29830327Y-25037699D01*
X29927000Y-24804310D01*
X29927000Y-24338750D01*
X29768250Y-24180000D01*
X28919000Y-24180000D01*
X28665000Y-24180000D01*
X28645000Y-24180000D01*
X28645000Y-23926000D01*
X28665000Y-23926000D01*
X28665000Y-22951750D01*
X28919000Y-22951750D01*
X28919000Y-23926000D01*
X29768250Y-23926000D01*
X29855500Y-23838750D01*
X32157000Y-23838750D01*
X32157000Y-24304310D01*
X32221968Y-24461157D01*
X32165000Y-24598690D01*
X32165000Y-25064250D01*
X32323750Y-25223000D01*
X33173000Y-25223000D01*
X33173000Y-24248750D01*
X33165000Y-24240750D01*
X33165000Y-23680000D01*
X32315750Y-23680000D01*
X32157000Y-23838750D01*
X29855500Y-23838750D01*
X29927000Y-23767250D01*
X29927000Y-23301690D01*
X29830327Y-23068301D01*
X29651698Y-22889673D01*
X29418309Y-22793000D01*
X29077750Y-22793000D01*
X28919000Y-22951750D01*
X28665000Y-22951750D01*
X28506250Y-22793000D01*
X28165691Y-22793000D01*
X28072440Y-22831626D01*
X28072440Y-22588750D01*
X29782000Y-22588750D01*
X29782000Y-22929309D01*
X29878673Y-23162698D01*
X30057301Y-23341327D01*
X30290690Y-23438000D01*
X30756250Y-23438000D01*
X30915000Y-23279250D01*
X30915000Y-22430000D01*
X31169000Y-22430000D01*
X31169000Y-23279250D01*
X31327750Y-23438000D01*
X31793310Y-23438000D01*
X32026699Y-23341327D01*
X32157000Y-23211025D01*
X32157000Y-23267250D01*
X32315750Y-23426000D01*
X33165000Y-23426000D01*
X33165000Y-22451750D01*
X33419000Y-22451750D01*
X33419000Y-23426000D01*
X33439000Y-23426000D01*
X33439000Y-23680000D01*
X33419000Y-23680000D01*
X33419000Y-24654250D01*
X33427000Y-24662250D01*
X33427000Y-25223000D01*
X33447000Y-25223000D01*
X33447000Y-25477000D01*
X33427000Y-25477000D01*
X33427000Y-26451250D01*
X33585750Y-26610000D01*
X33926309Y-26610000D01*
X34159698Y-26513327D01*
X34300936Y-26372090D01*
X34335910Y-26426441D01*
X34548110Y-26571431D01*
X34800000Y-26622440D01*
X35800000Y-26622440D01*
X36035317Y-26578162D01*
X36251441Y-26439090D01*
X36330218Y-26323795D01*
X36584332Y-26429313D01*
X37013784Y-26429687D01*
X37410689Y-26265689D01*
X37714622Y-25962286D01*
X37855739Y-25622440D01*
X38300000Y-25622440D01*
X38535317Y-25578162D01*
X38751441Y-25439090D01*
X38799134Y-25369289D01*
X38835910Y-25426441D01*
X39048110Y-25571431D01*
X39300000Y-25622440D01*
X40300000Y-25622440D01*
X40535317Y-25578162D01*
X40724013Y-25456739D01*
X40925000Y-25497440D01*
X42175000Y-25497440D01*
X42410317Y-25453162D01*
X42448171Y-25428804D01*
X42386673Y-25490302D01*
X42290000Y-25723691D01*
X42290000Y-26064250D01*
X42448750Y-26223000D01*
X43423000Y-26223000D01*
X43423000Y-26203000D01*
X43677000Y-26203000D01*
X43677000Y-26223000D01*
X43697000Y-26223000D01*
X43697000Y-26477000D01*
X43677000Y-26477000D01*
X43677000Y-27326250D01*
X43835750Y-27485000D01*
X44108000Y-27485000D01*
X44108000Y-28343250D01*
X44266750Y-28502000D01*
X47116000Y-28502000D01*
X47116000Y-26172750D01*
X46957250Y-26014000D01*
X44810000Y-26014000D01*
X44810000Y-25723691D01*
X44713327Y-25490302D01*
X44572090Y-25349064D01*
X44626441Y-25314090D01*
X44771431Y-25101890D01*
X44822440Y-24850000D01*
X44822440Y-24004000D01*
X46957250Y-24004000D01*
X47116000Y-23845250D01*
X47116000Y-21516000D01*
X47096000Y-21516000D01*
X47096000Y-21262000D01*
X47116000Y-21262000D01*
X47116000Y-18932750D01*
X46957250Y-18774000D01*
X44616691Y-18774000D01*
X44383302Y-18870673D01*
X44204673Y-19049301D01*
X44136038Y-19215000D01*
X43835750Y-19215000D01*
X43677000Y-19373750D01*
X43677000Y-20223000D01*
X43697000Y-20223000D01*
X43697000Y-20477000D01*
X43677000Y-20477000D01*
X43677000Y-20497000D01*
X43423000Y-20497000D01*
X43423000Y-20477000D01*
X43403000Y-20477000D01*
X43403000Y-20223000D01*
X43423000Y-20223000D01*
X43423000Y-19373750D01*
X43264250Y-19215000D01*
X42822440Y-19215000D01*
X42822440Y-19165663D01*
X43218371Y-19002068D01*
X43650551Y-18570643D01*
X43884733Y-18006670D01*
X43885265Y-17396009D01*
X43652068Y-16831629D01*
X43220643Y-16399449D01*
X42775839Y-16214750D01*
X44108000Y-16214750D01*
X44108000Y-18035310D01*
X44204673Y-18268699D01*
X44383302Y-18447327D01*
X44616691Y-18544000D01*
X46957250Y-18544000D01*
X47116000Y-18385250D01*
X47116000Y-16056000D01*
X44266750Y-16056000D01*
X44108000Y-16214750D01*
X42775839Y-16214750D01*
X42656670Y-16165267D01*
X42046009Y-16164735D01*
X41651942Y-16327560D01*
X40800000Y-16327560D01*
X40564683Y-16371838D01*
X40348559Y-16510910D01*
X40302031Y-16579006D01*
X40159698Y-16436673D01*
X39926309Y-16340000D01*
X39585750Y-16340000D01*
X39427000Y-16498750D01*
X39427000Y-17473000D01*
X39447000Y-17473000D01*
X39447000Y-17727000D01*
X39427000Y-17727000D01*
X39427000Y-18701250D01*
X39585750Y-18860000D01*
X39926309Y-18860000D01*
X40159698Y-18763327D01*
X40277560Y-18645466D01*
X40277560Y-19350000D01*
X40302246Y-19481195D01*
X40220643Y-19399449D01*
X39656670Y-19165267D01*
X39046009Y-19164735D01*
X38481629Y-19397932D01*
X38049449Y-19829357D01*
X37815267Y-20393330D01*
X37814735Y-21003991D01*
X38047932Y-21568371D01*
X38479357Y-22000551D01*
X39043330Y-22234733D01*
X39653991Y-22235265D01*
X40218371Y-22002068D01*
X40277560Y-21942982D01*
X40277560Y-22850000D01*
X40321186Y-23081850D01*
X40300000Y-23077560D01*
X39300000Y-23077560D01*
X39064683Y-23121838D01*
X38848559Y-23260910D01*
X38800866Y-23330711D01*
X38764090Y-23273559D01*
X38551890Y-23128569D01*
X38300000Y-23077560D01*
X37300000Y-23077560D01*
X37064683Y-23121838D01*
X36848559Y-23260910D01*
X36703569Y-23473110D01*
X36652560Y-23725000D01*
X36652560Y-24270371D01*
X36586216Y-24270313D01*
X36405636Y-24344927D01*
X36439440Y-24178000D01*
X36439440Y-23993193D01*
X36527000Y-23553000D01*
X36527000Y-23239079D01*
X36592551Y-23173643D01*
X36826733Y-22609670D01*
X36827265Y-21999009D01*
X36594068Y-21434629D01*
X36162643Y-21002449D01*
X35598670Y-20768267D01*
X34988009Y-20767735D01*
X34423629Y-21000932D01*
X33991449Y-21432357D01*
X33757267Y-21996330D01*
X33757009Y-22293000D01*
X33577750Y-22293000D01*
X33419000Y-22451750D01*
X33165000Y-22451750D01*
X33006250Y-22293000D01*
X32665691Y-22293000D01*
X32432302Y-22389673D01*
X32267612Y-22554362D01*
X32143250Y-22430000D01*
X31169000Y-22430000D01*
X30915000Y-22430000D01*
X29940750Y-22430000D01*
X29782000Y-22588750D01*
X28072440Y-22588750D01*
X28072440Y-22087809D01*
X28595991Y-22088265D01*
X29160371Y-21855068D01*
X29592551Y-21423643D01*
X29794727Y-20936750D01*
X29813838Y-21038317D01*
X29952910Y-21254441D01*
X30021006Y-21300969D01*
X29878673Y-21443302D01*
X29782000Y-21676691D01*
X29782000Y-22017250D01*
X29940750Y-22176000D01*
X30915000Y-22176000D01*
X30915000Y-22156000D01*
X31169000Y-22156000D01*
X31169000Y-22176000D01*
X32143250Y-22176000D01*
X32302000Y-22017250D01*
X32302000Y-21676691D01*
X32205327Y-21443302D01*
X32064090Y-21302064D01*
X32118441Y-21267090D01*
X32213311Y-21128243D01*
X32503370Y-20838184D01*
X32595991Y-20838265D01*
X33160371Y-20605068D01*
X33592551Y-20173643D01*
X33826733Y-19609670D01*
X33827265Y-18999009D01*
X33632235Y-18527000D01*
X35850000Y-18527000D01*
X35899410Y-18516994D01*
X35941035Y-18488553D01*
X35968315Y-18446159D01*
X35977000Y-18400000D01*
X35977000Y-17885750D01*
X38165000Y-17885750D01*
X38165000Y-18351310D01*
X38261673Y-18584699D01*
X38440302Y-18763327D01*
X38673691Y-18860000D01*
X39014250Y-18860000D01*
X39173000Y-18701250D01*
X39173000Y-17727000D01*
X38323750Y-17727000D01*
X38165000Y-17885750D01*
X35977000Y-17885750D01*
X35977000Y-16848690D01*
X38165000Y-16848690D01*
X38165000Y-17314250D01*
X38323750Y-17473000D01*
X39173000Y-17473000D01*
X39173000Y-16498750D01*
X39014250Y-16340000D01*
X38673691Y-16340000D01*
X38440302Y-16436673D01*
X38261673Y-16615301D01*
X38165000Y-16848690D01*
X35977000Y-16848690D01*
X35977000Y-13822690D01*
X44108000Y-13822690D01*
X44108000Y-15643250D01*
X44266750Y-15802000D01*
X47116000Y-15802000D01*
X47116000Y-13472750D01*
X46957250Y-13314000D01*
X44616691Y-13314000D01*
X44383302Y-13410673D01*
X44204673Y-13589301D01*
X44108000Y-13822690D01*
X35977000Y-13822690D01*
X35977000Y-8974750D01*
X44108000Y-8974750D01*
X44108000Y-10795310D01*
X44204673Y-11028699D01*
X44383302Y-11207327D01*
X44616691Y-11304000D01*
X46957250Y-11304000D01*
X47116000Y-11145250D01*
X47116000Y-8816000D01*
X44266750Y-8816000D01*
X44108000Y-8974750D01*
X35977000Y-8974750D01*
X35977000Y-645000D01*
X42450670Y-645000D01*
X42394628Y-668156D01*
X42394628Y-668156D01*
G37*
X42394628Y-668156D02*
X41321923Y-1738991D01*
X40740663Y-3138819D01*
X40739340Y-4654531D01*
X41318156Y-6055372D01*
X42388991Y-7128077D01*
X43788819Y-7709337D01*
X44108000Y-7709616D01*
X44108000Y-8403250D01*
X44266750Y-8562000D01*
X47116000Y-8562000D01*
X47116000Y-8542000D01*
X47370000Y-8542000D01*
X47370000Y-8562000D01*
X47390000Y-8562000D01*
X47390000Y-8816000D01*
X47370000Y-8816000D01*
X47370000Y-9073359D01*
X47203542Y-9528336D01*
X47229161Y-10138460D01*
X47370000Y-10478475D01*
X47370000Y-11145250D01*
X47528750Y-11304000D01*
X47584041Y-11304000D01*
X47449449Y-11438357D01*
X47215267Y-12002330D01*
X47214735Y-12612991D01*
X47447932Y-13177371D01*
X47584322Y-13314000D01*
X47528750Y-13314000D01*
X47370000Y-13472750D01*
X47370000Y-14153359D01*
X47203542Y-14608336D01*
X47229161Y-15218460D01*
X47370000Y-15558475D01*
X47370000Y-15802000D01*
X47390000Y-15802000D01*
X47390000Y-16056000D01*
X47370000Y-16056000D01*
X47370000Y-16693359D01*
X47203542Y-17148336D01*
X47229161Y-17758460D01*
X47370000Y-18098475D01*
X47370000Y-18385250D01*
X47528750Y-18544000D01*
X47695172Y-18544000D01*
X47734890Y-18583718D01*
X47774608Y-18544000D01*
X47874659Y-18544000D01*
X47913401Y-18659000D01*
X47874659Y-18774000D01*
X47774608Y-18774000D01*
X47734890Y-18734282D01*
X47695172Y-18774000D01*
X47528750Y-18774000D01*
X47370000Y-18932750D01*
X47370000Y-19233359D01*
X47203542Y-19688336D01*
X47229161Y-20298460D01*
X47370000Y-20638475D01*
X47370000Y-21262000D01*
X47390000Y-21262000D01*
X47390000Y-21516000D01*
X47370000Y-21516000D01*
X47370000Y-21773359D01*
X47203542Y-22228336D01*
X47229161Y-22838460D01*
X47370000Y-23178475D01*
X47370000Y-23845250D01*
X47528750Y-24004000D01*
X47584041Y-24004000D01*
X47449449Y-24138357D01*
X47215267Y-24702330D01*
X47214735Y-25312991D01*
X47447932Y-25877371D01*
X47584322Y-26014000D01*
X47528750Y-26014000D01*
X47370000Y-26172750D01*
X47370000Y-26853359D01*
X47203542Y-27308336D01*
X47229161Y-27918460D01*
X47370000Y-28258475D01*
X47370000Y-28502000D01*
X47390000Y-28502000D01*
X47390000Y-28756000D01*
X47370000Y-28756000D01*
X47370000Y-29393359D01*
X47203542Y-29848336D01*
X47229161Y-30458460D01*
X47370000Y-30798475D01*
X47370000Y-31085250D01*
X47528750Y-31244000D01*
X47695172Y-31244000D01*
X47734890Y-31283718D01*
X47774608Y-31244000D01*
X47874659Y-31244000D01*
X47913401Y-31359000D01*
X47874659Y-31474000D01*
X47774608Y-31474000D01*
X47734890Y-31434282D01*
X47695172Y-31474000D01*
X47528750Y-31474000D01*
X47370000Y-31632750D01*
X47370000Y-31933359D01*
X47203542Y-32388336D01*
X47229161Y-32998460D01*
X47370000Y-33338475D01*
X47370000Y-33962000D01*
X47390000Y-33962000D01*
X47390000Y-34216000D01*
X47370000Y-34216000D01*
X47370000Y-34473359D01*
X47203542Y-34928336D01*
X47229161Y-35538460D01*
X47370000Y-35878475D01*
X47370000Y-36545250D01*
X47528750Y-36704000D01*
X47584041Y-36704000D01*
X47449449Y-36838357D01*
X47215267Y-37402330D01*
X47214735Y-38012991D01*
X47447932Y-38577371D01*
X47584322Y-38714000D01*
X47528750Y-38714000D01*
X47370000Y-38872750D01*
X47370000Y-39553359D01*
X47203542Y-40008336D01*
X47229161Y-40618460D01*
X47370000Y-40958475D01*
X47370000Y-41202000D01*
X47390000Y-41202000D01*
X47390000Y-41456000D01*
X47370000Y-41456000D01*
X47370000Y-41476000D01*
X47116000Y-41476000D01*
X47116000Y-41456000D01*
X44266750Y-41456000D01*
X44108000Y-41614750D01*
X44108000Y-42189613D01*
X43795469Y-42189340D01*
X42394628Y-42768156D01*
X41321923Y-43838991D01*
X40740663Y-45238819D01*
X40739340Y-46754531D01*
X41318156Y-48155372D01*
X42388991Y-49228077D01*
X42453829Y-49255000D01*
X9095000Y-49255000D01*
X9095000Y-47334350D01*
X20127255Y-47334350D01*
X20219792Y-47596019D01*
X20811398Y-47814188D01*
X21441461Y-47789352D01*
X21908208Y-47596019D01*
X22000745Y-47334350D01*
X22667255Y-47334350D01*
X22759792Y-47596019D01*
X23351398Y-47814188D01*
X23981461Y-47789352D01*
X24448208Y-47596019D01*
X24540745Y-47334350D01*
X25207255Y-47334350D01*
X25299792Y-47596019D01*
X25891398Y-47814188D01*
X26521461Y-47789352D01*
X26988208Y-47596019D01*
X27080745Y-47334350D01*
X27747255Y-47334350D01*
X27839792Y-47596019D01*
X28431398Y-47814188D01*
X29061461Y-47789352D01*
X29528208Y-47596019D01*
X29620745Y-47334350D01*
X28684000Y-46397605D01*
X27747255Y-47334350D01*
X27080745Y-47334350D01*
X26144000Y-46397605D01*
X25207255Y-47334350D01*
X24540745Y-47334350D01*
X23604000Y-46397605D01*
X22667255Y-47334350D01*
X22000745Y-47334350D01*
X21064000Y-46397605D01*
X20127255Y-47334350D01*
X9095000Y-47334350D01*
X9095000Y-45965398D01*
X19467812Y-45965398D01*
X19492648Y-46595461D01*
X19685981Y-47062208D01*
X19947650Y-47154745D01*
X20884395Y-46218000D01*
X21243605Y-46218000D01*
X22180350Y-47154745D01*
X22334000Y-47100408D01*
X22487650Y-47154745D01*
X23424395Y-46218000D01*
X23783605Y-46218000D01*
X24720350Y-47154745D01*
X24874000Y-47100408D01*
X25027650Y-47154745D01*
X25964395Y-46218000D01*
X26323605Y-46218000D01*
X27260350Y-47154745D01*
X27414000Y-47100408D01*
X27567650Y-47154745D01*
X28504395Y-46218000D01*
X28863605Y-46218000D01*
X29800350Y-47154745D01*
X30062019Y-47062208D01*
X30280188Y-46470602D01*
X30255352Y-45840539D01*
X30062019Y-45373792D01*
X29800350Y-45281255D01*
X28863605Y-46218000D01*
X28504395Y-46218000D01*
X27567650Y-45281255D01*
X27414000Y-45335592D01*
X27260350Y-45281255D01*
X26323605Y-46218000D01*
X25964395Y-46218000D01*
X25027650Y-45281255D01*
X24874000Y-45335592D01*
X24720350Y-45281255D01*
X23783605Y-46218000D01*
X23424395Y-46218000D01*
X22487650Y-45281255D01*
X22334000Y-45335592D01*
X22180350Y-45281255D01*
X21243605Y-46218000D01*
X20884395Y-46218000D01*
X19947650Y-45281255D01*
X19685981Y-45373792D01*
X19467812Y-45965398D01*
X9095000Y-45965398D01*
X9095000Y-34933697D01*
X10320708Y-34933697D01*
X10576694Y-35553229D01*
X11050278Y-36027640D01*
X11171453Y-36077956D01*
X11137629Y-36091932D01*
X10705449Y-36523357D01*
X10471267Y-37087330D01*
X10470735Y-37697991D01*
X10703932Y-38262371D01*
X11135357Y-38694551D01*
X11699330Y-38928733D01*
X12309991Y-38929265D01*
X12874371Y-38696068D01*
X13096668Y-38474159D01*
X16693446Y-38474159D01*
X16779852Y-38730643D01*
X17353336Y-38940458D01*
X17963460Y-38914839D01*
X18408148Y-38730643D01*
X18494554Y-38474159D01*
X17594000Y-37573605D01*
X16693446Y-38474159D01*
X13096668Y-38474159D01*
X13306551Y-38264643D01*
X13540733Y-37700670D01*
X13541209Y-37153336D01*
X16047542Y-37153336D01*
X16073161Y-37763460D01*
X16257357Y-38208148D01*
X16513841Y-38294554D01*
X17414395Y-37394000D01*
X17773605Y-37394000D01*
X18674159Y-38294554D01*
X18930643Y-38208148D01*
X19140458Y-37634664D01*
X19114839Y-37024540D01*
X18930643Y-36579852D01*
X18674159Y-36493446D01*
X17773605Y-37394000D01*
X17414395Y-37394000D01*
X16513841Y-36493446D01*
X16257357Y-36579852D01*
X16047542Y-37153336D01*
X13541209Y-37153336D01*
X13541265Y-37090009D01*
X13308068Y-36525629D01*
X13096650Y-36313841D01*
X16693446Y-36313841D01*
X17594000Y-37214395D01*
X18494554Y-36313841D01*
X18408148Y-36057357D01*
X17834664Y-35847542D01*
X17224540Y-35873161D01*
X16779852Y-36057357D01*
X16693446Y-36313841D01*
X13096650Y-36313841D01*
X12876643Y-36093449D01*
X12840407Y-36078402D01*
X12959229Y-36029306D01*
X13016194Y-35972440D01*
X13950000Y-35972440D01*
X14185317Y-35928162D01*
X14401441Y-35789090D01*
X14447969Y-35720994D01*
X14590302Y-35863327D01*
X14823691Y-35960000D01*
X15164250Y-35960000D01*
X15323000Y-35801250D01*
X15323000Y-34827000D01*
X15577000Y-34827000D01*
X15577000Y-35801250D01*
X15735750Y-35960000D01*
X16076309Y-35960000D01*
X16309698Y-35863327D01*
X16488327Y-35684699D01*
X16585000Y-35451310D01*
X16585000Y-34985750D01*
X16426250Y-34827000D01*
X15577000Y-34827000D01*
X15323000Y-34827000D01*
X15303000Y-34827000D01*
X15303000Y-34573000D01*
X15323000Y-34573000D01*
X15323000Y-33598750D01*
X15577000Y-33598750D01*
X15577000Y-34573000D01*
X16426250Y-34573000D01*
X16585000Y-34414250D01*
X16585000Y-33948690D01*
X16488327Y-33715301D01*
X16309698Y-33536673D01*
X16076309Y-33440000D01*
X15735750Y-33440000D01*
X15577000Y-33598750D01*
X15323000Y-33598750D01*
X15164250Y-33440000D01*
X14823691Y-33440000D01*
X14590302Y-33536673D01*
X14449064Y-33677910D01*
X14414090Y-33623559D01*
X14201890Y-33478569D01*
X13950000Y-33427560D01*
X13216477Y-33427560D01*
X12961722Y-33172360D01*
X12840547Y-33122044D01*
X12874371Y-33108068D01*
X13306551Y-32676643D01*
X13540733Y-32112670D01*
X13540735Y-32109991D01*
X16058735Y-32109991D01*
X16291932Y-32674371D01*
X16723357Y-33106551D01*
X17287330Y-33340733D01*
X17897991Y-33341265D01*
X18462371Y-33108068D01*
X18894551Y-32676643D01*
X19128733Y-32112670D01*
X19129265Y-31502009D01*
X18896068Y-30937629D01*
X18464643Y-30505449D01*
X17900670Y-30271267D01*
X17290009Y-30270735D01*
X16725629Y-30503932D01*
X16293449Y-30935357D01*
X16059267Y-31499330D01*
X16058735Y-32109991D01*
X13540735Y-32109991D01*
X13541265Y-31502009D01*
X13308068Y-30937629D01*
X12876643Y-30505449D01*
X12312670Y-30271267D01*
X11702009Y-30270735D01*
X11137629Y-30503932D01*
X10705449Y-30935357D01*
X10471267Y-31499330D01*
X10470735Y-32109991D01*
X10703932Y-32674371D01*
X11135357Y-33106551D01*
X11171593Y-33121598D01*
X11052771Y-33170694D01*
X10578360Y-33644278D01*
X10321293Y-34263362D01*
X10320708Y-34933697D01*
X9095000Y-34933697D01*
X9095000Y-32700000D01*
X9082607Y-32637696D01*
X9082607Y-32624167D01*
X9010293Y-32260618D01*
X8913984Y-32028109D01*
X8913983Y-32028108D01*
X8913983Y-32028107D01*
X8708048Y-31719905D01*
X8619071Y-31630929D01*
X8530095Y-31541952D01*
X8221893Y-31336017D01*
X8221891Y-31336016D01*
X7989381Y-31239707D01*
X7625833Y-31167393D01*
X7562305Y-31167393D01*
X7500000Y-31155000D01*
X6477000Y-31155000D01*
X6477000Y-21295000D01*
X7500000Y-21295000D01*
X7562305Y-21282607D01*
X7625833Y-21282607D01*
X7989381Y-21210293D01*
X8221891Y-21113984D01*
X8221893Y-21113983D01*
X8530095Y-20908048D01*
X8619071Y-20819071D01*
X8708048Y-20730095D01*
X8913983Y-20421893D01*
X8955106Y-20322614D01*
X9010293Y-20189382D01*
X9080632Y-19835764D01*
X10647434Y-21402567D01*
X11015655Y-21648604D01*
X11450000Y-21735000D01*
X12683448Y-21735000D01*
X12637629Y-21753932D01*
X12205449Y-22185357D01*
X11971267Y-22749330D01*
X11970735Y-23359991D01*
X12203932Y-23924371D01*
X12635357Y-24356551D01*
X12671593Y-24371598D01*
X12552771Y-24420694D01*
X12078360Y-24894278D01*
X11821293Y-25513362D01*
X11820708Y-26183697D01*
X12076694Y-26803229D01*
X12550278Y-27277640D01*
X12671453Y-27327956D01*
X12637629Y-27341932D01*
X12205449Y-27773357D01*
X11971267Y-28337330D01*
X11970735Y-28947991D01*
X12203932Y-29512371D01*
X12635357Y-29944551D01*
X13199330Y-30178733D01*
X13809991Y-30179265D01*
X14374371Y-29946068D01*
X14806551Y-29514643D01*
X15040733Y-28950670D01*
X15041265Y-28340009D01*
X14808068Y-27775629D01*
X14376643Y-27343449D01*
X14340407Y-27328402D01*
X14459229Y-27279306D01*
X14902560Y-26836748D01*
X14902560Y-27225000D01*
X14946838Y-27460317D01*
X15085910Y-27676441D01*
X15298110Y-27821431D01*
X15550000Y-27872440D01*
X16550000Y-27872440D01*
X16785317Y-27828162D01*
X17001441Y-27689090D01*
X17047969Y-27620994D01*
X17190302Y-27763327D01*
X17423691Y-27860000D01*
X17746327Y-27860000D01*
X17547542Y-28403336D01*
X17573161Y-29013460D01*
X17757357Y-29458148D01*
X18013841Y-29544554D01*
X18914395Y-28644000D01*
X18130395Y-27860000D01*
X18177002Y-27860000D01*
X18177002Y-27701252D01*
X18335750Y-27860000D01*
X18489605Y-27860000D01*
X19094000Y-28464395D01*
X19994554Y-27563841D01*
X19908148Y-27307357D01*
X19334664Y-27097542D01*
X19185000Y-27103826D01*
X19185000Y-26885750D01*
X19026250Y-26727000D01*
X18177000Y-26727000D01*
X18177000Y-26747000D01*
X17923000Y-26747000D01*
X17923000Y-26727000D01*
X17903000Y-26727000D01*
X17903000Y-26473000D01*
X17923000Y-26473000D01*
X17923000Y-25498750D01*
X18177000Y-25498750D01*
X18177000Y-26473000D01*
X19026250Y-26473000D01*
X19185000Y-26314250D01*
X19185000Y-25848690D01*
X19088327Y-25615301D01*
X18909698Y-25436673D01*
X18676309Y-25340000D01*
X18335750Y-25340000D01*
X18177000Y-25498750D01*
X17923000Y-25498750D01*
X17764250Y-25340000D01*
X17423691Y-25340000D01*
X17190302Y-25436673D01*
X17049064Y-25577910D01*
X17014090Y-25523559D01*
X16910700Y-25452916D01*
X17126441Y-25314090D01*
X17271431Y-25101890D01*
X17322440Y-24850000D01*
X17322440Y-23850000D01*
X17278162Y-23614683D01*
X17139090Y-23398559D01*
X17082644Y-23359991D01*
X17558735Y-23359991D01*
X17791932Y-23924371D01*
X18223357Y-24356551D01*
X18787330Y-24590733D01*
X19397991Y-24591265D01*
X19962371Y-24358068D01*
X20394551Y-23926643D01*
X20628733Y-23362670D01*
X20629265Y-22752009D01*
X20396068Y-22187629D01*
X19964643Y-21755449D01*
X19400670Y-21521267D01*
X18790009Y-21520735D01*
X18225629Y-21753932D01*
X17793449Y-22185357D01*
X17559267Y-22749330D01*
X17558735Y-23359991D01*
X17082644Y-23359991D01*
X17069289Y-23350866D01*
X17126441Y-23314090D01*
X17271431Y-23101890D01*
X17322440Y-22850000D01*
X17322440Y-21850000D01*
X17278162Y-21614683D01*
X17156739Y-21425987D01*
X17197440Y-21225000D01*
X17197440Y-19975000D01*
X17153162Y-19739683D01*
X17145658Y-19728021D01*
X17146431Y-19726890D01*
X17197440Y-19475000D01*
X17197440Y-18527000D01*
X18596132Y-18527000D01*
X22470411Y-22401279D01*
X22470313Y-22513784D01*
X22634311Y-22910689D01*
X22715000Y-22991519D01*
X22715000Y-23520556D01*
X22436216Y-23520313D01*
X22039311Y-23684311D01*
X21735378Y-23987714D01*
X21570687Y-24384332D01*
X21570313Y-24813784D01*
X21734311Y-25210689D01*
X21890000Y-25366650D01*
X21890000Y-27622047D01*
X21739311Y-27684311D01*
X21435378Y-27987714D01*
X21270687Y-28384332D01*
X21270495Y-28604703D01*
X20438485Y-29436713D01*
X20640458Y-28884664D01*
X20614839Y-28274540D01*
X20430643Y-27829852D01*
X20174159Y-27743446D01*
X19273605Y-28644000D01*
X19287748Y-28658143D01*
X19108143Y-28837748D01*
X19094000Y-28823605D01*
X18193446Y-29724159D01*
X18279852Y-29980643D01*
X18853336Y-30190458D01*
X19463460Y-30164839D01*
X19908148Y-29980643D01*
X19994553Y-29724161D01*
X20109110Y-29838718D01*
X20166347Y-29781481D01*
X20147852Y-29809161D01*
X20090000Y-30100000D01*
X20090000Y-37785198D01*
X18912599Y-38962599D01*
X18747852Y-39209161D01*
X18690000Y-39500000D01*
X18690000Y-42064000D01*
X18747852Y-42354839D01*
X18912599Y-42601401D01*
X19535980Y-43224782D01*
X19479276Y-43361341D01*
X19478725Y-43991893D01*
X19719519Y-44574657D01*
X20158211Y-45014116D01*
X20127255Y-45101650D01*
X21064000Y-46038395D01*
X22000745Y-45101650D01*
X21969593Y-45013561D01*
X22334261Y-44649529D01*
X22698211Y-45014116D01*
X22667255Y-45101650D01*
X23604000Y-46038395D01*
X24540745Y-45101650D01*
X24509593Y-45013561D01*
X24874261Y-44649529D01*
X25238211Y-45014116D01*
X25207255Y-45101650D01*
X26144000Y-46038395D01*
X27080745Y-45101650D01*
X27049593Y-45013561D01*
X27414261Y-44649529D01*
X27778211Y-45014116D01*
X27747255Y-45101650D01*
X28684000Y-46038395D01*
X29620745Y-45101650D01*
X29589593Y-45013561D01*
X30026914Y-44577003D01*
X30268724Y-43994659D01*
X30269275Y-43364107D01*
X30211798Y-43225004D01*
X30887401Y-42549401D01*
X31052148Y-42302839D01*
X31110000Y-42012000D01*
X31110000Y-39700000D01*
X31052148Y-39409161D01*
X30927553Y-39222690D01*
X44108000Y-39222690D01*
X44108000Y-41043250D01*
X44266750Y-41202000D01*
X47116000Y-41202000D01*
X47116000Y-38872750D01*
X46957250Y-38714000D01*
X44616691Y-38714000D01*
X44383302Y-38810673D01*
X44204673Y-38989301D01*
X44108000Y-39222690D01*
X30927553Y-39222690D01*
X30887401Y-39162599D01*
X30387401Y-38662599D01*
X30140839Y-38497852D01*
X29850000Y-38440000D01*
X29464802Y-38440000D01*
X28962026Y-37937224D01*
X29023000Y-37876250D01*
X29023000Y-37027000D01*
X29003000Y-37027000D01*
X29003000Y-36773000D01*
X29023000Y-36773000D01*
X29023000Y-36753000D01*
X29277000Y-36753000D01*
X29277000Y-36773000D01*
X29297000Y-36773000D01*
X29297000Y-37027000D01*
X29277000Y-37027000D01*
X29277000Y-37876250D01*
X29435750Y-38035000D01*
X29901310Y-38035000D01*
X30015000Y-37987908D01*
X30015000Y-38151310D01*
X30111673Y-38384699D01*
X30290302Y-38563327D01*
X30523691Y-38660000D01*
X30864250Y-38660000D01*
X31023000Y-38501250D01*
X31023000Y-37527000D01*
X31003000Y-37527000D01*
X31003000Y-37273000D01*
X31023000Y-37273000D01*
X31023000Y-36298750D01*
X30864250Y-36140000D01*
X30523691Y-36140000D01*
X30379383Y-36199775D01*
X30313327Y-36040302D01*
X30195466Y-35922440D01*
X31150000Y-35922440D01*
X31385317Y-35878162D01*
X31515048Y-35794682D01*
X31514747Y-36140000D01*
X31435750Y-36140000D01*
X31277000Y-36298750D01*
X31277000Y-37273000D01*
X31297000Y-37273000D01*
X31297000Y-37527000D01*
X31277000Y-37527000D01*
X31277000Y-38501250D01*
X31435750Y-38660000D01*
X31776309Y-38660000D01*
X32009698Y-38563327D01*
X32150936Y-38422090D01*
X32185910Y-38476441D01*
X32398110Y-38621431D01*
X32650000Y-38672440D01*
X33650000Y-38672440D01*
X33885317Y-38628162D01*
X34101441Y-38489090D01*
X34246431Y-38276890D01*
X34297440Y-38025000D01*
X34297440Y-36775000D01*
X34297228Y-36773873D01*
X34350551Y-36720643D01*
X34584733Y-36156670D01*
X34585174Y-35650000D01*
X34877560Y-35650000D01*
X34877560Y-36650000D01*
X34921838Y-36885317D01*
X35060910Y-37101441D01*
X35273110Y-37246431D01*
X35421310Y-37276442D01*
X35614939Y-37470071D01*
X35614735Y-37703991D01*
X35847932Y-38268371D01*
X36279357Y-38700551D01*
X36843330Y-38934733D01*
X37453991Y-38935265D01*
X38018371Y-38702068D01*
X38450551Y-38270643D01*
X38543233Y-38047440D01*
X39275000Y-38047440D01*
X39510317Y-38003162D01*
X39726441Y-37864090D01*
X39871431Y-37651890D01*
X39922440Y-37400000D01*
X39922440Y-36400000D01*
X39878162Y-36164683D01*
X39739090Y-35948559D01*
X39669289Y-35900866D01*
X39705561Y-35877526D01*
X39843330Y-35934733D01*
X40453991Y-35935265D01*
X41018371Y-35702068D01*
X41450551Y-35270643D01*
X41684733Y-34706670D01*
X41685022Y-34374750D01*
X44108000Y-34374750D01*
X44108000Y-36195310D01*
X44204673Y-36428699D01*
X44383302Y-36607327D01*
X44616691Y-36704000D01*
X46957250Y-36704000D01*
X47116000Y-36545250D01*
X47116000Y-34216000D01*
X44266750Y-34216000D01*
X44108000Y-34374750D01*
X41685022Y-34374750D01*
X41685265Y-34096009D01*
X41452068Y-33531629D01*
X41020643Y-33099449D01*
X40456670Y-32865267D01*
X39846009Y-32864735D01*
X39281629Y-33097932D01*
X39105377Y-33273876D01*
X38715654Y-33351397D01*
X38372837Y-33580460D01*
X38347434Y-33597434D01*
X38192308Y-33752560D01*
X38025000Y-33752560D01*
X37789683Y-33796838D01*
X37573559Y-33935910D01*
X37428569Y-34148110D01*
X37377560Y-34400000D01*
X37377560Y-34403310D01*
X37251250Y-34277000D01*
X36277000Y-34277000D01*
X36277000Y-34297000D01*
X36023000Y-34297000D01*
X36023000Y-34277000D01*
X35048750Y-34277000D01*
X34890000Y-34435750D01*
X34890000Y-34776309D01*
X34986673Y-35009698D01*
X35127910Y-35150936D01*
X35073559Y-35185910D01*
X34928569Y-35398110D01*
X34877560Y-35650000D01*
X34585174Y-35650000D01*
X34585265Y-35546009D01*
X34352068Y-34981629D01*
X34226485Y-34855826D01*
X34198603Y-34715654D01*
X33952566Y-34347434D01*
X33797440Y-34192308D01*
X33797440Y-34025000D01*
X33753162Y-33789683D01*
X33614090Y-33573559D01*
X33541106Y-33523691D01*
X34890000Y-33523691D01*
X34890000Y-33864250D01*
X35048750Y-34023000D01*
X36023000Y-34023000D01*
X36023000Y-33173750D01*
X36277000Y-33173750D01*
X36277000Y-34023000D01*
X37251250Y-34023000D01*
X37410000Y-33864250D01*
X37410000Y-33523691D01*
X37313327Y-33290302D01*
X37134699Y-33111673D01*
X36901310Y-33015000D01*
X36435750Y-33015000D01*
X36277000Y-33173750D01*
X36023000Y-33173750D01*
X35864250Y-33015000D01*
X35398690Y-33015000D01*
X35165301Y-33111673D01*
X34986673Y-33290302D01*
X34890000Y-33523691D01*
X33541106Y-33523691D01*
X33401890Y-33428569D01*
X33150000Y-33377560D01*
X32150000Y-33377560D01*
X31914683Y-33421838D01*
X31698559Y-33560910D01*
X31650866Y-33630711D01*
X31614090Y-33573559D01*
X31456373Y-33465796D01*
X31584733Y-33156670D01*
X31585265Y-32546009D01*
X31352507Y-31982690D01*
X44108000Y-31982690D01*
X44108000Y-33803250D01*
X44266750Y-33962000D01*
X47116000Y-33962000D01*
X47116000Y-31632750D01*
X46957250Y-31474000D01*
X44616691Y-31474000D01*
X44383302Y-31570673D01*
X44204673Y-31749301D01*
X44108000Y-31982690D01*
X31352507Y-31982690D01*
X31352068Y-31981629D01*
X30920643Y-31549449D01*
X30356670Y-31315267D01*
X29746009Y-31314735D01*
X29181629Y-31547932D01*
X28749449Y-31979357D01*
X28515267Y-32543330D01*
X28514735Y-33153991D01*
X28741665Y-33703203D01*
X28692308Y-33752560D01*
X28525000Y-33752560D01*
X28510000Y-33755382D01*
X28510000Y-31800000D01*
X28452148Y-31509161D01*
X28452148Y-31509160D01*
X28287401Y-31262599D01*
X28110000Y-31085198D01*
X28110000Y-29600000D01*
X28052148Y-29309161D01*
X27887401Y-29062599D01*
X27739552Y-28914750D01*
X44108000Y-28914750D01*
X44108000Y-30735310D01*
X44204673Y-30968699D01*
X44383302Y-31147327D01*
X44616691Y-31244000D01*
X46957250Y-31244000D01*
X47116000Y-31085250D01*
X47116000Y-28756000D01*
X44266750Y-28756000D01*
X44108000Y-28914750D01*
X27739552Y-28914750D01*
X27050756Y-28225954D01*
X27164622Y-28112286D01*
X27329313Y-27715668D01*
X27329687Y-27286216D01*
X27165689Y-26889311D01*
X26912571Y-26635750D01*
X42290000Y-26635750D01*
X42290000Y-26976309D01*
X42386673Y-27209698D01*
X42565301Y-27388327D01*
X42798690Y-27485000D01*
X43264250Y-27485000D01*
X43423000Y-27326250D01*
X43423000Y-26477000D01*
X42448750Y-26477000D01*
X42290000Y-26635750D01*
X26912571Y-26635750D01*
X26862286Y-26585378D01*
X26465668Y-26420687D01*
X26036216Y-26420313D01*
X25986916Y-26440683D01*
X25965689Y-26389311D01*
X25885000Y-26308481D01*
X25885000Y-25700000D01*
X25872220Y-25635750D01*
X32165000Y-25635750D01*
X32165000Y-26101310D01*
X32261673Y-26334699D01*
X32440302Y-26513327D01*
X32673691Y-26610000D01*
X33014250Y-26610000D01*
X33173000Y-26451250D01*
X33173000Y-25477000D01*
X32323750Y-25477000D01*
X32165000Y-25635750D01*
X25872220Y-25635750D01*
X25821439Y-25380459D01*
X25640434Y-25109566D01*
X25612367Y-25081499D01*
X25758268Y-25021214D01*
X25827910Y-25129441D01*
X26040110Y-25274431D01*
X26292000Y-25325440D01*
X27292000Y-25325440D01*
X27527317Y-25281162D01*
X27743441Y-25142090D01*
X27789969Y-25073994D01*
X27932302Y-25216327D01*
X28165691Y-25313000D01*
X28506250Y-25313000D01*
X28665000Y-25154250D01*
X28665000Y-24180000D01*
X28919000Y-24180000D01*
X28919000Y-25154250D01*
X29077750Y-25313000D01*
X29418309Y-25313000D01*
X29651698Y-25216327D01*
X29830327Y-25037699D01*
X29927000Y-24804310D01*
X29927000Y-24338750D01*
X29768250Y-24180000D01*
X28919000Y-24180000D01*
X28665000Y-24180000D01*
X28645000Y-24180000D01*
X28645000Y-23926000D01*
X28665000Y-23926000D01*
X28665000Y-22951750D01*
X28919000Y-22951750D01*
X28919000Y-23926000D01*
X29768250Y-23926000D01*
X29855500Y-23838750D01*
X32157000Y-23838750D01*
X32157000Y-24304310D01*
X32221968Y-24461157D01*
X32165000Y-24598690D01*
X32165000Y-25064250D01*
X32323750Y-25223000D01*
X33173000Y-25223000D01*
X33173000Y-24248750D01*
X33165000Y-24240750D01*
X33165000Y-23680000D01*
X32315750Y-23680000D01*
X32157000Y-23838750D01*
X29855500Y-23838750D01*
X29927000Y-23767250D01*
X29927000Y-23301690D01*
X29830327Y-23068301D01*
X29651698Y-22889673D01*
X29418309Y-22793000D01*
X29077750Y-22793000D01*
X28919000Y-22951750D01*
X28665000Y-22951750D01*
X28506250Y-22793000D01*
X28165691Y-22793000D01*
X28072440Y-22831626D01*
X28072440Y-22588750D01*
X29782000Y-22588750D01*
X29782000Y-22929309D01*
X29878673Y-23162698D01*
X30057301Y-23341327D01*
X30290690Y-23438000D01*
X30756250Y-23438000D01*
X30915000Y-23279250D01*
X30915000Y-22430000D01*
X31169000Y-22430000D01*
X31169000Y-23279250D01*
X31327750Y-23438000D01*
X31793310Y-23438000D01*
X32026699Y-23341327D01*
X32157000Y-23211025D01*
X32157000Y-23267250D01*
X32315750Y-23426000D01*
X33165000Y-23426000D01*
X33165000Y-22451750D01*
X33419000Y-22451750D01*
X33419000Y-23426000D01*
X33439000Y-23426000D01*
X33439000Y-23680000D01*
X33419000Y-23680000D01*
X33419000Y-24654250D01*
X33427000Y-24662250D01*
X33427000Y-25223000D01*
X33447000Y-25223000D01*
X33447000Y-25477000D01*
X33427000Y-25477000D01*
X33427000Y-26451250D01*
X33585750Y-26610000D01*
X33926309Y-26610000D01*
X34159698Y-26513327D01*
X34300936Y-26372090D01*
X34335910Y-26426441D01*
X34548110Y-26571431D01*
X34800000Y-26622440D01*
X35800000Y-26622440D01*
X36035317Y-26578162D01*
X36251441Y-26439090D01*
X36330218Y-26323795D01*
X36584332Y-26429313D01*
X37013784Y-26429687D01*
X37410689Y-26265689D01*
X37714622Y-25962286D01*
X37855739Y-25622440D01*
X38300000Y-25622440D01*
X38535317Y-25578162D01*
X38751441Y-25439090D01*
X38799134Y-25369289D01*
X38835910Y-25426441D01*
X39048110Y-25571431D01*
X39300000Y-25622440D01*
X40300000Y-25622440D01*
X40535317Y-25578162D01*
X40724013Y-25456739D01*
X40925000Y-25497440D01*
X42175000Y-25497440D01*
X42410317Y-25453162D01*
X42448171Y-25428804D01*
X42386673Y-25490302D01*
X42290000Y-25723691D01*
X42290000Y-26064250D01*
X42448750Y-26223000D01*
X43423000Y-26223000D01*
X43423000Y-26203000D01*
X43677000Y-26203000D01*
X43677000Y-26223000D01*
X43697000Y-26223000D01*
X43697000Y-26477000D01*
X43677000Y-26477000D01*
X43677000Y-27326250D01*
X43835750Y-27485000D01*
X44108000Y-27485000D01*
X44108000Y-28343250D01*
X44266750Y-28502000D01*
X47116000Y-28502000D01*
X47116000Y-26172750D01*
X46957250Y-26014000D01*
X44810000Y-26014000D01*
X44810000Y-25723691D01*
X44713327Y-25490302D01*
X44572090Y-25349064D01*
X44626441Y-25314090D01*
X44771431Y-25101890D01*
X44822440Y-24850000D01*
X44822440Y-24004000D01*
X46957250Y-24004000D01*
X47116000Y-23845250D01*
X47116000Y-21516000D01*
X47096000Y-21516000D01*
X47096000Y-21262000D01*
X47116000Y-21262000D01*
X47116000Y-18932750D01*
X46957250Y-18774000D01*
X44616691Y-18774000D01*
X44383302Y-18870673D01*
X44204673Y-19049301D01*
X44136038Y-19215000D01*
X43835750Y-19215000D01*
X43677000Y-19373750D01*
X43677000Y-20223000D01*
X43697000Y-20223000D01*
X43697000Y-20477000D01*
X43677000Y-20477000D01*
X43677000Y-20497000D01*
X43423000Y-20497000D01*
X43423000Y-20477000D01*
X43403000Y-20477000D01*
X43403000Y-20223000D01*
X43423000Y-20223000D01*
X43423000Y-19373750D01*
X43264250Y-19215000D01*
X42822440Y-19215000D01*
X42822440Y-19165663D01*
X43218371Y-19002068D01*
X43650551Y-18570643D01*
X43884733Y-18006670D01*
X43885265Y-17396009D01*
X43652068Y-16831629D01*
X43220643Y-16399449D01*
X42775839Y-16214750D01*
X44108000Y-16214750D01*
X44108000Y-18035310D01*
X44204673Y-18268699D01*
X44383302Y-18447327D01*
X44616691Y-18544000D01*
X46957250Y-18544000D01*
X47116000Y-18385250D01*
X47116000Y-16056000D01*
X44266750Y-16056000D01*
X44108000Y-16214750D01*
X42775839Y-16214750D01*
X42656670Y-16165267D01*
X42046009Y-16164735D01*
X41651942Y-16327560D01*
X40800000Y-16327560D01*
X40564683Y-16371838D01*
X40348559Y-16510910D01*
X40302031Y-16579006D01*
X40159698Y-16436673D01*
X39926309Y-16340000D01*
X39585750Y-16340000D01*
X39427000Y-16498750D01*
X39427000Y-17473000D01*
X39447000Y-17473000D01*
X39447000Y-17727000D01*
X39427000Y-17727000D01*
X39427000Y-18701250D01*
X39585750Y-18860000D01*
X39926309Y-18860000D01*
X40159698Y-18763327D01*
X40277560Y-18645466D01*
X40277560Y-19350000D01*
X40302246Y-19481195D01*
X40220643Y-19399449D01*
X39656670Y-19165267D01*
X39046009Y-19164735D01*
X38481629Y-19397932D01*
X38049449Y-19829357D01*
X37815267Y-20393330D01*
X37814735Y-21003991D01*
X38047932Y-21568371D01*
X38479357Y-22000551D01*
X39043330Y-22234733D01*
X39653991Y-22235265D01*
X40218371Y-22002068D01*
X40277560Y-21942982D01*
X40277560Y-22850000D01*
X40321186Y-23081850D01*
X40300000Y-23077560D01*
X39300000Y-23077560D01*
X39064683Y-23121838D01*
X38848559Y-23260910D01*
X38800866Y-23330711D01*
X38764090Y-23273559D01*
X38551890Y-23128569D01*
X38300000Y-23077560D01*
X37300000Y-23077560D01*
X37064683Y-23121838D01*
X36848559Y-23260910D01*
X36703569Y-23473110D01*
X36652560Y-23725000D01*
X36652560Y-24270371D01*
X36586216Y-24270313D01*
X36405636Y-24344927D01*
X36439440Y-24178000D01*
X36439440Y-23993193D01*
X36527000Y-23553000D01*
X36527000Y-23239079D01*
X36592551Y-23173643D01*
X36826733Y-22609670D01*
X36827265Y-21999009D01*
X36594068Y-21434629D01*
X36162643Y-21002449D01*
X35598670Y-20768267D01*
X34988009Y-20767735D01*
X34423629Y-21000932D01*
X33991449Y-21432357D01*
X33757267Y-21996330D01*
X33757009Y-22293000D01*
X33577750Y-22293000D01*
X33419000Y-22451750D01*
X33165000Y-22451750D01*
X33006250Y-22293000D01*
X32665691Y-22293000D01*
X32432302Y-22389673D01*
X32267612Y-22554362D01*
X32143250Y-22430000D01*
X31169000Y-22430000D01*
X30915000Y-22430000D01*
X29940750Y-22430000D01*
X29782000Y-22588750D01*
X28072440Y-22588750D01*
X28072440Y-22087809D01*
X28595991Y-22088265D01*
X29160371Y-21855068D01*
X29592551Y-21423643D01*
X29794727Y-20936750D01*
X29813838Y-21038317D01*
X29952910Y-21254441D01*
X30021006Y-21300969D01*
X29878673Y-21443302D01*
X29782000Y-21676691D01*
X29782000Y-22017250D01*
X29940750Y-22176000D01*
X30915000Y-22176000D01*
X30915000Y-22156000D01*
X31169000Y-22156000D01*
X31169000Y-22176000D01*
X32143250Y-22176000D01*
X32302000Y-22017250D01*
X32302000Y-21676691D01*
X32205327Y-21443302D01*
X32064090Y-21302064D01*
X32118441Y-21267090D01*
X32213311Y-21128243D01*
X32503370Y-20838184D01*
X32595991Y-20838265D01*
X33160371Y-20605068D01*
X33592551Y-20173643D01*
X33826733Y-19609670D01*
X33827265Y-18999009D01*
X33632235Y-18527000D01*
X35850000Y-18527000D01*
X35899410Y-18516994D01*
X35941035Y-18488553D01*
X35968315Y-18446159D01*
X35977000Y-18400000D01*
X35977000Y-17885750D01*
X38165000Y-17885750D01*
X38165000Y-18351310D01*
X38261673Y-18584699D01*
X38440302Y-18763327D01*
X38673691Y-18860000D01*
X39014250Y-18860000D01*
X39173000Y-18701250D01*
X39173000Y-17727000D01*
X38323750Y-17727000D01*
X38165000Y-17885750D01*
X35977000Y-17885750D01*
X35977000Y-16848690D01*
X38165000Y-16848690D01*
X38165000Y-17314250D01*
X38323750Y-17473000D01*
X39173000Y-17473000D01*
X39173000Y-16498750D01*
X39014250Y-16340000D01*
X38673691Y-16340000D01*
X38440302Y-16436673D01*
X38261673Y-16615301D01*
X38165000Y-16848690D01*
X35977000Y-16848690D01*
X35977000Y-13822690D01*
X44108000Y-13822690D01*
X44108000Y-15643250D01*
X44266750Y-15802000D01*
X47116000Y-15802000D01*
X47116000Y-13472750D01*
X46957250Y-13314000D01*
X44616691Y-13314000D01*
X44383302Y-13410673D01*
X44204673Y-13589301D01*
X44108000Y-13822690D01*
X35977000Y-13822690D01*
X35977000Y-8974750D01*
X44108000Y-8974750D01*
X44108000Y-10795310D01*
X44204673Y-11028699D01*
X44383302Y-11207327D01*
X44616691Y-11304000D01*
X46957250Y-11304000D01*
X47116000Y-11145250D01*
X47116000Y-8816000D01*
X44266750Y-8816000D01*
X44108000Y-8974750D01*
X35977000Y-8974750D01*
X35977000Y-645000D01*
X42450670Y-645000D01*
X42394628Y-668156D01*
G36*
X26390000Y-39350000D02*
X26440377Y-39603258D01*
X25840009Y-39602735D01*
X25275629Y-39835932D01*
X24873677Y-40237182D01*
X24474643Y-39837449D01*
X23910670Y-39603267D01*
X23621787Y-39603015D01*
X26390000Y-36834802D01*
X26390000Y-39350000D01*
X26390000Y-39350000D01*
G37*
X26390000Y-39350000D02*
X26440377Y-39603258D01*
X25840009Y-39602735D01*
X25275629Y-39835932D01*
X24873677Y-40237182D01*
X24474643Y-39837449D01*
X23910670Y-39603267D01*
X23621787Y-39603015D01*
X26390000Y-36834802D01*
X26390000Y-39350000D01*
G36*
X24215000Y-26045868D02*
X24215000Y-26308231D01*
X24135378Y-26387714D01*
X23970687Y-26784332D01*
X23970313Y-27213784D01*
X24134311Y-27610689D01*
X24215000Y-27691519D01*
X24215000Y-29408231D01*
X24135378Y-29487714D01*
X23970687Y-29884332D01*
X23970313Y-30313784D01*
X24134311Y-30710689D01*
X24215000Y-30791519D01*
X24215000Y-32308231D01*
X24135378Y-32387714D01*
X23970687Y-32784332D01*
X23970313Y-33213784D01*
X24134311Y-33610689D01*
X24215000Y-33691519D01*
X24215000Y-35208231D01*
X24135378Y-35287714D01*
X23970687Y-35684332D01*
X23970313Y-36113784D01*
X24134311Y-36510689D01*
X24349222Y-36725976D01*
X21796599Y-39278599D01*
X21631852Y-39525161D01*
X21597574Y-39697486D01*
X21370670Y-39603267D01*
X20760009Y-39602735D01*
X20210000Y-39829994D01*
X20210000Y-39814802D01*
X21387401Y-38637401D01*
X21552148Y-38390839D01*
X21610000Y-38100000D01*
X21610000Y-30414802D01*
X22345305Y-29679497D01*
X22563784Y-29679687D01*
X22960689Y-29515689D01*
X23264622Y-29212286D01*
X23429313Y-28815668D01*
X23429687Y-28386216D01*
X23404821Y-28326036D01*
X23410000Y-28300000D01*
X23410000Y-25366638D01*
X23472940Y-25303808D01*
X24215000Y-26045868D01*
X24215000Y-26045868D01*
G37*
X24215000Y-26045868D02*
X24215000Y-26308231D01*
X24135378Y-26387714D01*
X23970687Y-26784332D01*
X23970313Y-27213784D01*
X24134311Y-27610689D01*
X24215000Y-27691519D01*
X24215000Y-29408231D01*
X24135378Y-29487714D01*
X23970687Y-29884332D01*
X23970313Y-30313784D01*
X24134311Y-30710689D01*
X24215000Y-30791519D01*
X24215000Y-32308231D01*
X24135378Y-32387714D01*
X23970687Y-32784332D01*
X23970313Y-33213784D01*
X24134311Y-33610689D01*
X24215000Y-33691519D01*
X24215000Y-35208231D01*
X24135378Y-35287714D01*
X23970687Y-35684332D01*
X23970313Y-36113784D01*
X24134311Y-36510689D01*
X24349222Y-36725976D01*
X21796599Y-39278599D01*
X21631852Y-39525161D01*
X21597574Y-39697486D01*
X21370670Y-39603267D01*
X20760009Y-39602735D01*
X20210000Y-39829994D01*
X20210000Y-39814802D01*
X21387401Y-38637401D01*
X21552148Y-38390839D01*
X21610000Y-38100000D01*
X21610000Y-30414802D01*
X22345305Y-29679497D01*
X22563784Y-29679687D01*
X22960689Y-29515689D01*
X23264622Y-29212286D01*
X23429313Y-28815668D01*
X23429687Y-28386216D01*
X23404821Y-28326036D01*
X23410000Y-28300000D01*
X23410000Y-25366638D01*
X23472940Y-25303808D01*
X24215000Y-26045868D01*
G36*
X30757267Y-18996330D02*
X30757184Y-19091262D01*
X30715501Y-19132945D01*
X30601807Y-19155560D01*
X30417000Y-19155560D01*
X30181683Y-19199838D01*
X29965559Y-19338910D01*
X29820569Y-19551110D01*
X29769560Y-19803000D01*
X29769560Y-20109352D01*
X29594068Y-19684629D01*
X29162643Y-19252449D01*
X28598670Y-19018267D01*
X27988009Y-19017735D01*
X27752610Y-19115000D01*
X27311554Y-19115000D01*
X27173277Y-18976723D01*
X26772614Y-18709009D01*
X26300000Y-18615000D01*
X25300000Y-18615000D01*
X24859807Y-18702560D01*
X24675000Y-18702560D01*
X24439683Y-18746838D01*
X24223559Y-18885910D01*
X24078569Y-19098110D01*
X24027560Y-19350000D01*
X24027560Y-20350000D01*
X24071838Y-20585317D01*
X24210910Y-20801441D01*
X24280711Y-20849134D01*
X24223559Y-20885910D01*
X24078569Y-21098110D01*
X24031402Y-21331030D01*
X23765668Y-21220687D01*
X23651456Y-21220588D01*
X20957868Y-18527000D01*
X30952150Y-18527000D01*
X30757267Y-18996330D01*
X30757267Y-18996330D01*
G37*
X30757267Y-18996330D02*
X30757184Y-19091262D01*
X30715501Y-19132945D01*
X30601807Y-19155560D01*
X30417000Y-19155560D01*
X30181683Y-19199838D01*
X29965559Y-19338910D01*
X29820569Y-19551110D01*
X29769560Y-19803000D01*
X29769560Y-20109352D01*
X29594068Y-19684629D01*
X29162643Y-19252449D01*
X28598670Y-19018267D01*
X27988009Y-19017735D01*
X27752610Y-19115000D01*
X27311554Y-19115000D01*
X27173277Y-18976723D01*
X26772614Y-18709009D01*
X26300000Y-18615000D01*
X25300000Y-18615000D01*
X24859807Y-18702560D01*
X24675000Y-18702560D01*
X24439683Y-18746838D01*
X24223559Y-18885910D01*
X24078569Y-19098110D01*
X24027560Y-19350000D01*
X24027560Y-20350000D01*
X24071838Y-20585317D01*
X24210910Y-20801441D01*
X24280711Y-20849134D01*
X24223559Y-20885910D01*
X24078569Y-21098110D01*
X24031402Y-21331030D01*
X23765668Y-21220687D01*
X23651456Y-21220588D01*
X20957868Y-18527000D01*
X30952150Y-18527000D01*
X30757267Y-18996330D01*
M02*
