M48
;DRILL file {KiCad 0.201509221857+6208~30~ubuntu14.04.1-product} date Thu 24 Sep 2015 08:07:28 PM PDT
;FORMAT={-:-/ absolute / metric / decimal}
FMAT,2
METRIC,TZ
T1C0.635
T2C0.900
T3C1.100
T4C1.200
T5C3.900
%
G90
G05
M71
T1
X6.85Y-22.2
X6.85Y-25.2
X10.05Y-2.3
X10.55Y-28.5
X13.45Y-2.3
X16.85Y-2.3
X16.85Y-14.9
X21.15Y-21.7
X21.75Y-12.3
X22.35Y-28.6
X22.65Y-24.6
X23.05Y-36.4
X23.55Y-22.3
X25.05Y-27.
X25.05Y-30.1
X25.05Y-33.
X25.05Y-35.9
X25.35Y-38.1
X26.25Y-27.5
X26.25Y-30.4
X26.25Y-33.3
X28.55Y-27.6
X28.55Y-30.5
X29.85Y-18.9
X30.15Y-37.4
X31.042Y-24.053
X36.8Y-25.35
X37.15Y-32.1
T2
X12.006Y-31.806
X12.006Y-37.394
X13.506Y-23.056
X13.506Y-28.644
X17.594Y-31.806
X17.594Y-37.394
X19.094Y-23.056
X19.094Y-28.644
X21.064Y-41.138
X23.604Y-41.138
X25.292Y-23.553
X26.144Y-41.138
X28.292Y-20.553
X28.684Y-41.138
X29.25Y-2.6
X29.25Y-5.14
X29.25Y-7.68
X29.25Y-10.22
X29.25Y-12.76
X29.25Y-15.3
X30.05Y-32.85
X31.79Y-2.6
X31.79Y-5.14
X31.79Y-7.68
X31.79Y-10.22
X31.79Y-12.76
X31.79Y-15.3
X32.292Y-19.303
X33.05Y-35.85
X35.292Y-22.303
X37.15Y-37.4
X39.35Y-20.7
X40.15Y-34.4
X42.35Y-17.7
T3
X21.064Y-43.678
X21.064Y-46.218
X23.604Y-43.678
X23.604Y-46.218
X26.144Y-43.678
X26.144Y-46.218
X28.684Y-43.678
X28.684Y-46.218
X48.75Y-7.229
X48.75Y-9.769
X48.75Y-12.309
X48.75Y-14.849
X48.75Y-17.389
X48.75Y-19.929
X48.75Y-22.469
X48.75Y-25.009
X48.75Y-27.549
X48.75Y-30.089
X48.75Y-32.629
X48.75Y-35.169
X48.75Y-37.709
X48.75Y-40.249
X48.75Y-42.789
T4
X12.006Y-34.6
X13.506Y-25.85
T5
X44.55Y-3.9
X44.55Y-46.
T0
M30
