G04 #@! TF.FileFunction,Legend,Top*
%FSLAX46Y46*%
G04 Gerber Fmt 4.6, Leading zero omitted, Abs format (unit mm)*
G04 Created by KiCad (PCBNEW 0.201509221857+6208~30~ubuntu14.04.1-product) date Thu 24 Sep 2015 08:06:42 PM PDT*
%MOMM*%
G01*
G04 APERTURE LIST*
%ADD10C,0.100000*%
%ADD11C,0.200000*%
%ADD12C,0.002540*%
G04 APERTURE END LIST*
D10*
X37333333Y-17349999D02*
X37300000Y-17416665D01*
X37300000Y-17549999D01*
X37333333Y-17616665D01*
X37400000Y-17683332D01*
X37466667Y-17716665D01*
X37600000Y-17716665D01*
X37666667Y-17683332D01*
X37733333Y-17616665D01*
X37766667Y-17549999D01*
X37766667Y-17416665D01*
X37733333Y-17349999D01*
X37066667Y-17483332D02*
X37100000Y-17649999D01*
X37200000Y-17816665D01*
X37366667Y-17916665D01*
X37533333Y-17949999D01*
X37700000Y-17916665D01*
X37866667Y-17816665D01*
X37966667Y-17649999D01*
X38000000Y-17483332D01*
X37966667Y-17316665D01*
X37866667Y-17149999D01*
X37700000Y-17049999D01*
X37533333Y-17016665D01*
X37366667Y-17049999D01*
X37200000Y-17149999D01*
X37100000Y-17316665D01*
X37066667Y-17483332D01*
X37233333Y-16749999D02*
X37200000Y-16716665D01*
X37166667Y-16649999D01*
X37166667Y-16483332D01*
X37200000Y-16416665D01*
X37233333Y-16383332D01*
X37300000Y-16349999D01*
X37366667Y-16349999D01*
X37466667Y-16383332D01*
X37866667Y-16783332D01*
X37866667Y-16349999D01*
X37166667Y-15916665D02*
X37166667Y-15849998D01*
X37200000Y-15783332D01*
X37233333Y-15749998D01*
X37300000Y-15716665D01*
X37433333Y-15683332D01*
X37600000Y-15683332D01*
X37733333Y-15716665D01*
X37800000Y-15749998D01*
X37833333Y-15783332D01*
X37866667Y-15849998D01*
X37866667Y-15916665D01*
X37833333Y-15983332D01*
X37800000Y-16016665D01*
X37733333Y-16049998D01*
X37600000Y-16083332D01*
X37433333Y-16083332D01*
X37300000Y-16049998D01*
X37233333Y-16016665D01*
X37200000Y-15983332D01*
X37166667Y-15916665D01*
X37866667Y-15016665D02*
X37866667Y-15416665D01*
X37866667Y-15216665D02*
X37166667Y-15216665D01*
X37266667Y-15283331D01*
X37333333Y-15349998D01*
X37366667Y-15416665D01*
X37166667Y-14383331D02*
X37166667Y-14716664D01*
X37500000Y-14749998D01*
X37466667Y-14716664D01*
X37433333Y-14649998D01*
X37433333Y-14483331D01*
X37466667Y-14416664D01*
X37500000Y-14383331D01*
X37566667Y-14349998D01*
X37733333Y-14349998D01*
X37800000Y-14383331D01*
X37833333Y-14416664D01*
X37866667Y-14483331D01*
X37866667Y-14649998D01*
X37833333Y-14716664D01*
X37800000Y-14749998D01*
X37833333Y-13549998D02*
X37866667Y-13449998D01*
X37866667Y-13283331D01*
X37833333Y-13216664D01*
X37800000Y-13183331D01*
X37733333Y-13149998D01*
X37666667Y-13149998D01*
X37600000Y-13183331D01*
X37566667Y-13216664D01*
X37533333Y-13283331D01*
X37500000Y-13416664D01*
X37466667Y-13483331D01*
X37433333Y-13516664D01*
X37366667Y-13549998D01*
X37300000Y-13549998D01*
X37233333Y-13516664D01*
X37200000Y-13483331D01*
X37166667Y-13416664D01*
X37166667Y-13249998D01*
X37200000Y-13149998D01*
X37866667Y-12749997D02*
X37833333Y-12816664D01*
X37800000Y-12849997D01*
X37733333Y-12883331D01*
X37533333Y-12883331D01*
X37466667Y-12849997D01*
X37433333Y-12816664D01*
X37400000Y-12749997D01*
X37400000Y-12649997D01*
X37433333Y-12583331D01*
X37466667Y-12549997D01*
X37533333Y-12516664D01*
X37733333Y-12516664D01*
X37800000Y-12549997D01*
X37833333Y-12583331D01*
X37866667Y-12649997D01*
X37866667Y-12749997D01*
X37400000Y-12316664D02*
X37400000Y-12049998D01*
X37866667Y-12216664D02*
X37266667Y-12216664D01*
X37200000Y-12183331D01*
X37166667Y-12116664D01*
X37166667Y-12049998D01*
X37400000Y-11916664D02*
X37400000Y-11649998D01*
X37166667Y-11816664D02*
X37766667Y-11816664D01*
X37833333Y-11783331D01*
X37866667Y-11716664D01*
X37866667Y-11649998D01*
X37833333Y-11149998D02*
X37866667Y-11216664D01*
X37866667Y-11349998D01*
X37833333Y-11416664D01*
X37766667Y-11449998D01*
X37500000Y-11449998D01*
X37433333Y-11416664D01*
X37400000Y-11349998D01*
X37400000Y-11216664D01*
X37433333Y-11149998D01*
X37500000Y-11116664D01*
X37566667Y-11116664D01*
X37633333Y-11449998D01*
X37866667Y-10816664D02*
X37400000Y-10816664D01*
X37533333Y-10816664D02*
X37466667Y-10783331D01*
X37433333Y-10749998D01*
X37400000Y-10683331D01*
X37400000Y-10616664D01*
X37866667Y-10383331D02*
X37166667Y-10383331D01*
X37500000Y-10383331D02*
X37500000Y-9983331D01*
X37866667Y-9983331D02*
X37166667Y-9983331D01*
X37866667Y-9349998D02*
X37500000Y-9349998D01*
X37433333Y-9383332D01*
X37400000Y-9449998D01*
X37400000Y-9583332D01*
X37433333Y-9649998D01*
X37833333Y-9349998D02*
X37866667Y-9416665D01*
X37866667Y-9583332D01*
X37833333Y-9649998D01*
X37766667Y-9683332D01*
X37700000Y-9683332D01*
X37633333Y-9649998D01*
X37600000Y-9583332D01*
X37600000Y-9416665D01*
X37566667Y-9349998D01*
X37866667Y-9016665D02*
X37400000Y-9016665D01*
X37533333Y-9016665D02*
X37466667Y-8983332D01*
X37433333Y-8949999D01*
X37400000Y-8883332D01*
X37400000Y-8816665D01*
X37866667Y-8283332D02*
X37166667Y-8283332D01*
X37833333Y-8283332D02*
X37866667Y-8349999D01*
X37866667Y-8483332D01*
X37833333Y-8549999D01*
X37800000Y-8583332D01*
X37733333Y-8616666D01*
X37533333Y-8616666D01*
X37466667Y-8583332D01*
X37433333Y-8549999D01*
X37400000Y-8483332D01*
X37400000Y-8349999D01*
X37433333Y-8283332D01*
X37400000Y-8016666D02*
X37866667Y-7883333D01*
X37533333Y-7749999D01*
X37866667Y-7616666D01*
X37400000Y-7483333D01*
X37866667Y-6916666D02*
X37500000Y-6916666D01*
X37433333Y-6950000D01*
X37400000Y-7016666D01*
X37400000Y-7150000D01*
X37433333Y-7216666D01*
X37833333Y-6916666D02*
X37866667Y-6983333D01*
X37866667Y-7150000D01*
X37833333Y-7216666D01*
X37766667Y-7250000D01*
X37700000Y-7250000D01*
X37633333Y-7216666D01*
X37600000Y-7150000D01*
X37600000Y-6983333D01*
X37566667Y-6916666D01*
X37866667Y-6583333D02*
X37400000Y-6583333D01*
X37533333Y-6583333D02*
X37466667Y-6550000D01*
X37433333Y-6516667D01*
X37400000Y-6450000D01*
X37400000Y-6383333D01*
X37833333Y-5883334D02*
X37866667Y-5950000D01*
X37866667Y-6083334D01*
X37833333Y-6150000D01*
X37766667Y-6183334D01*
X37500000Y-6183334D01*
X37433333Y-6150000D01*
X37400000Y-6083334D01*
X37400000Y-5950000D01*
X37433333Y-5883334D01*
X37500000Y-5850000D01*
X37566667Y-5850000D01*
X37633333Y-6183334D01*
X36566667Y-17833333D02*
X35866667Y-17833333D01*
X36200000Y-17833333D02*
X36200000Y-17433333D01*
X36566667Y-17433333D02*
X35866667Y-17433333D01*
X36533333Y-16833334D02*
X36566667Y-16900000D01*
X36566667Y-17033334D01*
X36533333Y-17100000D01*
X36466667Y-17133334D01*
X36200000Y-17133334D01*
X36133333Y-17100000D01*
X36100000Y-17033334D01*
X36100000Y-16900000D01*
X36133333Y-16833334D01*
X36200000Y-16800000D01*
X36266667Y-16800000D01*
X36333333Y-17133334D01*
X36566667Y-16500000D02*
X36100000Y-16500000D01*
X36233333Y-16500000D02*
X36166667Y-16466667D01*
X36133333Y-16433334D01*
X36100000Y-16366667D01*
X36100000Y-16300000D01*
X36566667Y-16066667D02*
X36100000Y-16066667D01*
X36166667Y-16066667D02*
X36133333Y-16033334D01*
X36100000Y-15966667D01*
X36100000Y-15866667D01*
X36133333Y-15800001D01*
X36200000Y-15766667D01*
X36566667Y-15766667D01*
X36200000Y-15766667D02*
X36133333Y-15733334D01*
X36100000Y-15666667D01*
X36100000Y-15566667D01*
X36133333Y-15500001D01*
X36200000Y-15466667D01*
X36566667Y-15466667D01*
X36533333Y-14866668D02*
X36566667Y-14933334D01*
X36566667Y-15066668D01*
X36533333Y-15133334D01*
X36466667Y-15166668D01*
X36200000Y-15166668D01*
X36133333Y-15133334D01*
X36100000Y-15066668D01*
X36100000Y-14933334D01*
X36133333Y-14866668D01*
X36200000Y-14833334D01*
X36266667Y-14833334D01*
X36333333Y-15166668D01*
X36533333Y-14566668D02*
X36566667Y-14500001D01*
X36566667Y-14366668D01*
X36533333Y-14300001D01*
X36466667Y-14266668D01*
X36433333Y-14266668D01*
X36366667Y-14300001D01*
X36333333Y-14366668D01*
X36333333Y-14466668D01*
X36300000Y-14533334D01*
X36233333Y-14566668D01*
X36200000Y-14566668D01*
X36133333Y-14533334D01*
X36100000Y-14466668D01*
X36100000Y-14366668D01*
X36133333Y-14300001D01*
X36300000Y-13966667D02*
X36300000Y-13433334D01*
X36566667Y-12766667D02*
X36566667Y-13100000D01*
X35866667Y-13100000D01*
X36566667Y-12533333D02*
X36100000Y-12533333D01*
X35866667Y-12533333D02*
X35900000Y-12566667D01*
X35933333Y-12533333D01*
X35900000Y-12500000D01*
X35866667Y-12533333D01*
X35933333Y-12533333D01*
X36100000Y-12300000D02*
X36100000Y-12033334D01*
X35866667Y-12200000D02*
X36466667Y-12200000D01*
X36533333Y-12166667D01*
X36566667Y-12100000D01*
X36566667Y-12033334D01*
X36533333Y-11533334D02*
X36566667Y-11600000D01*
X36566667Y-11733334D01*
X36533333Y-11800000D01*
X36466667Y-11833334D01*
X36200000Y-11833334D01*
X36133333Y-11800000D01*
X36100000Y-11733334D01*
X36100000Y-11600000D01*
X36133333Y-11533334D01*
X36200000Y-11500000D01*
X36266667Y-11500000D01*
X36333333Y-11833334D01*
X36200000Y-10433334D02*
X36233333Y-10333334D01*
X36266667Y-10300001D01*
X36333333Y-10266667D01*
X36433333Y-10266667D01*
X36500000Y-10300001D01*
X36533333Y-10333334D01*
X36566667Y-10400001D01*
X36566667Y-10666667D01*
X35866667Y-10666667D01*
X35866667Y-10433334D01*
X35900000Y-10366667D01*
X35933333Y-10333334D01*
X36000000Y-10300001D01*
X36066667Y-10300001D01*
X36133333Y-10333334D01*
X36166667Y-10366667D01*
X36200000Y-10433334D01*
X36200000Y-10666667D01*
X36566667Y-9666667D02*
X36200000Y-9666667D01*
X36133333Y-9700001D01*
X36100000Y-9766667D01*
X36100000Y-9900001D01*
X36133333Y-9966667D01*
X36533333Y-9666667D02*
X36566667Y-9733334D01*
X36566667Y-9900001D01*
X36533333Y-9966667D01*
X36466667Y-10000001D01*
X36400000Y-10000001D01*
X36333333Y-9966667D01*
X36300000Y-9900001D01*
X36300000Y-9733334D01*
X36266667Y-9666667D01*
X36533333Y-9366668D02*
X36566667Y-9300001D01*
X36566667Y-9166668D01*
X36533333Y-9100001D01*
X36466667Y-9066668D01*
X36433333Y-9066668D01*
X36366667Y-9100001D01*
X36333333Y-9166668D01*
X36333333Y-9266668D01*
X36300000Y-9333334D01*
X36233333Y-9366668D01*
X36200000Y-9366668D01*
X36133333Y-9333334D01*
X36100000Y-9266668D01*
X36100000Y-9166668D01*
X36133333Y-9100001D01*
X36566667Y-8766667D02*
X36100000Y-8766667D01*
X35866667Y-8766667D02*
X35900000Y-8800001D01*
X35933333Y-8766667D01*
X35900000Y-8733334D01*
X35866667Y-8766667D01*
X35933333Y-8766667D01*
X36533333Y-8133334D02*
X36566667Y-8200001D01*
X36566667Y-8333334D01*
X36533333Y-8400001D01*
X36500000Y-8433334D01*
X36433333Y-8466668D01*
X36233333Y-8466668D01*
X36166667Y-8433334D01*
X36133333Y-8400001D01*
X36100000Y-8333334D01*
X36100000Y-8200001D01*
X36133333Y-8133334D01*
X36200000Y-7066668D02*
X36200000Y-7300001D01*
X36566667Y-7300001D02*
X35866667Y-7300001D01*
X35866667Y-6966668D01*
X36566667Y-6700001D02*
X36100000Y-6700001D01*
X36233333Y-6700001D02*
X36166667Y-6666668D01*
X36133333Y-6633335D01*
X36100000Y-6566668D01*
X36100000Y-6500001D01*
X36566667Y-6166668D02*
X36533333Y-6233335D01*
X36500000Y-6266668D01*
X36433333Y-6300002D01*
X36233333Y-6300002D01*
X36166667Y-6266668D01*
X36133333Y-6233335D01*
X36100000Y-6166668D01*
X36100000Y-6066668D01*
X36133333Y-6000002D01*
X36166667Y-5966668D01*
X36233333Y-5933335D01*
X36433333Y-5933335D01*
X36500000Y-5966668D01*
X36533333Y-6000002D01*
X36566667Y-6066668D01*
X36566667Y-6166668D01*
X36100000Y-5633335D02*
X36566667Y-5633335D01*
X36166667Y-5633335D02*
X36133333Y-5600002D01*
X36100000Y-5533335D01*
X36100000Y-5433335D01*
X36133333Y-5366669D01*
X36200000Y-5333335D01*
X36566667Y-5333335D01*
X36100000Y-5100002D02*
X36100000Y-4833336D01*
X35866667Y-5000002D02*
X36466667Y-5000002D01*
X36533333Y-4966669D01*
X36566667Y-4900002D01*
X36566667Y-4833336D01*
X36533333Y-4333336D02*
X36566667Y-4400002D01*
X36566667Y-4533336D01*
X36533333Y-4600002D01*
X36466667Y-4633336D01*
X36200000Y-4633336D01*
X36133333Y-4600002D01*
X36100000Y-4533336D01*
X36100000Y-4400002D01*
X36133333Y-4333336D01*
X36200000Y-4300002D01*
X36266667Y-4300002D01*
X36333333Y-4633336D01*
X36100000Y-4000002D02*
X36566667Y-4000002D01*
X36166667Y-4000002D02*
X36133333Y-3966669D01*
X36100000Y-3900002D01*
X36100000Y-3800002D01*
X36133333Y-3733336D01*
X36200000Y-3700002D01*
X36566667Y-3700002D01*
X36566667Y-3066669D02*
X35866667Y-3066669D01*
X36533333Y-3066669D02*
X36566667Y-3133336D01*
X36566667Y-3266669D01*
X36533333Y-3333336D01*
X36500000Y-3366669D01*
X36433333Y-3400003D01*
X36233333Y-3400003D01*
X36166667Y-3366669D01*
X36133333Y-3333336D01*
X36100000Y-3266669D01*
X36100000Y-3133336D01*
X36133333Y-3066669D01*
X36566667Y-1833337D02*
X36566667Y-2233337D01*
X36566667Y-2033337D02*
X35866667Y-2033337D01*
X35966667Y-2100003D01*
X36033333Y-2166670D01*
X36066667Y-2233337D01*
X36500000Y-1533336D02*
X36533333Y-1500003D01*
X36566667Y-1533336D01*
X36533333Y-1566670D01*
X36500000Y-1533336D01*
X36566667Y-1533336D01*
X35933333Y-1233337D02*
X35900000Y-1200003D01*
X35866667Y-1133337D01*
X35866667Y-966670D01*
X35900000Y-900003D01*
X35933333Y-866670D01*
X36000000Y-833337D01*
X36066667Y-833337D01*
X36166667Y-866670D01*
X36566667Y-1266670D01*
X36566667Y-833337D01*
D11*
X13950000Y-3920000D02*
X12950000Y-4920000D01*
X12950000Y-4920000D02*
X12950000Y-15680000D01*
X12950000Y-15680000D02*
X25350000Y-15680000D01*
X25350000Y-15680000D02*
X25350000Y-3920000D01*
X25350000Y-3920000D02*
X13950000Y-3920000D01*
D10*
X44559000Y-31867000D02*
X44559000Y-31613000D01*
X44559000Y-31613000D02*
X49893000Y-31613000D01*
X44559000Y-43551000D02*
X44559000Y-43805000D01*
X44559000Y-43805000D02*
X49893000Y-43805000D01*
X44559000Y-31867000D02*
X44559000Y-43551000D01*
X44559000Y-19167000D02*
X44559000Y-18913000D01*
X44559000Y-18913000D02*
X49893000Y-18913000D01*
X44559000Y-30851000D02*
X44559000Y-31105000D01*
X44559000Y-31105000D02*
X49893000Y-31105000D01*
X44559000Y-19167000D02*
X44559000Y-30851000D01*
X44559000Y-6467000D02*
X44559000Y-6213000D01*
X44559000Y-6213000D02*
X49893000Y-6213000D01*
X44559000Y-18151000D02*
X44559000Y-18405000D01*
X44559000Y-18405000D02*
X49893000Y-18405000D01*
X44559000Y-6467000D02*
X44559000Y-18151000D01*
X36364000Y-38186000D02*
X36364000Y-39456000D01*
X36364000Y-39456000D02*
X40936000Y-39456000D01*
X40936000Y-39456000D02*
X40936000Y-35138000D01*
X40936000Y-33614000D02*
X40936000Y-32344000D01*
X40936000Y-32344000D02*
X36364000Y-32344000D01*
X36364000Y-32344000D02*
X36364000Y-36662000D01*
X33836000Y-36636000D02*
X35106000Y-36636000D01*
X35106000Y-36636000D02*
X35106000Y-32064000D01*
X35106000Y-32064000D02*
X30788000Y-32064000D01*
X29264000Y-32064000D02*
X27994000Y-32064000D01*
X27994000Y-32064000D02*
X27994000Y-36636000D01*
X27994000Y-36636000D02*
X32312000Y-36636000D01*
X43136000Y-16914000D02*
X43136000Y-15644000D01*
X43136000Y-15644000D02*
X38564000Y-15644000D01*
X38564000Y-15644000D02*
X38564000Y-19962000D01*
X38564000Y-21486000D02*
X38564000Y-22756000D01*
X38564000Y-22756000D02*
X43136000Y-22756000D01*
X43136000Y-22756000D02*
X43136000Y-18438000D01*
X36078000Y-23089000D02*
X37348000Y-23089000D01*
X37348000Y-23089000D02*
X37348000Y-18517000D01*
X37348000Y-18517000D02*
X33030000Y-18517000D01*
X31506000Y-18517000D02*
X30236000Y-18517000D01*
X30236000Y-18517000D02*
X30236000Y-23089000D01*
X30236000Y-23089000D02*
X34554000Y-23089000D01*
X29078000Y-19767000D02*
X29078000Y-18497000D01*
X29078000Y-18497000D02*
X24506000Y-18497000D01*
X24506000Y-18497000D02*
X24506000Y-22815000D01*
X24506000Y-24339000D02*
X24506000Y-25609000D01*
X24506000Y-25609000D02*
X29078000Y-25609000D01*
X29078000Y-25609000D02*
X29078000Y-21291000D01*
X22501040Y-36350380D02*
X21098960Y-36350380D01*
X22501040Y-36749160D02*
X22501040Y-34950840D01*
X22501040Y-34950840D02*
X21098960Y-34950840D01*
X21098960Y-34950840D02*
X21098960Y-36749160D01*
X21098960Y-36749160D02*
X22501040Y-36749160D01*
X19794000Y-42408000D02*
X29954000Y-42408000D01*
X29954000Y-42408000D02*
X29954000Y-44948000D01*
X29954000Y-44948000D02*
X19794000Y-44948000D01*
X19794000Y-43678000D02*
X19794000Y-44948000D01*
X19794000Y-42408000D02*
X19794000Y-43678000D01*
X20300000Y-33950000D02*
X21300000Y-33950000D01*
X21300000Y-32250000D02*
X20300000Y-32250000D01*
X22350000Y-31950000D02*
X23350000Y-31950000D01*
X23350000Y-30250000D02*
X22350000Y-30250000D01*
X10800000Y-23400000D02*
X10800000Y-22400000D01*
X9100000Y-22400000D02*
X9100000Y-23400000D01*
X43154000Y-11586000D02*
X42154000Y-11586000D01*
X42154000Y-13286000D02*
X43154000Y-13286000D01*
X42800000Y-24250000D02*
X41800000Y-24250000D01*
X41800000Y-25950000D02*
X42800000Y-25950000D01*
X43250000Y-36750000D02*
X42250000Y-36750000D01*
X42250000Y-38450000D02*
X43250000Y-38450000D01*
X27853000Y-1330000D02*
X33187000Y-1330000D01*
X33187000Y-16570000D02*
X27853000Y-16570000D01*
X27853000Y-1330000D02*
X27853000Y-16570000D01*
X33187000Y-16570000D02*
X33187000Y-1330000D01*
X19794000Y-39868000D02*
X29954000Y-39868000D01*
X29954000Y-39868000D02*
X29954000Y-42408000D01*
X29954000Y-42408000D02*
X19794000Y-42408000D01*
X19794000Y-41138000D02*
X19794000Y-42408000D01*
X19794000Y-39868000D02*
X19794000Y-41138000D01*
X29954000Y-47488000D02*
X19794000Y-47488000D01*
X19794000Y-47488000D02*
X19794000Y-44948000D01*
X19794000Y-44948000D02*
X29954000Y-44948000D01*
X29954000Y-46218000D02*
X29954000Y-44948000D01*
X29954000Y-47488000D02*
X29954000Y-46218000D01*
X22887500Y-24691500D02*
X21681000Y-24691500D01*
X22252500Y-22278500D02*
X21681000Y-22850000D01*
X21681000Y-24691500D02*
X21681000Y-22278500D01*
X21681000Y-22278500D02*
X22887500Y-22278500D01*
X22887500Y-22278500D02*
X22887500Y-24691500D01*
X22008500Y-27387500D02*
X22008500Y-26181000D01*
X24421500Y-26752500D02*
X23850000Y-26181000D01*
X22008500Y-26181000D02*
X24421500Y-26181000D01*
X24421500Y-26181000D02*
X24421500Y-27387500D01*
X24421500Y-27387500D02*
X22008500Y-27387500D01*
X25662500Y-27658500D02*
X26869000Y-27658500D01*
X26297500Y-30071500D02*
X26869000Y-29500000D01*
X26869000Y-27658500D02*
X26869000Y-30071500D01*
X26869000Y-30071500D02*
X25662500Y-30071500D01*
X25662500Y-30071500D02*
X25662500Y-27658500D01*
X25662500Y-30558500D02*
X26869000Y-30558500D01*
X26297500Y-32971500D02*
X26869000Y-32400000D01*
X26869000Y-30558500D02*
X26869000Y-32971500D01*
X26869000Y-32971500D02*
X25662500Y-32971500D01*
X25662500Y-32971500D02*
X25662500Y-30558500D01*
X25662500Y-33458500D02*
X26869000Y-33458500D01*
X26297500Y-35871500D02*
X26869000Y-35300000D01*
X26869000Y-33458500D02*
X26869000Y-35871500D01*
X26869000Y-35871500D02*
X25662500Y-35871500D01*
X25662500Y-35871500D02*
X25662500Y-33458500D01*
X18991000Y-30790000D02*
X10736000Y-30790000D01*
X10736000Y-38410000D02*
X18991000Y-38410000D01*
X10736000Y-38410000D02*
X10736000Y-30790000D01*
X18991000Y-38410000D02*
X18991000Y-30790000D01*
X20491000Y-22040000D02*
X12236000Y-22040000D01*
X12236000Y-29660000D02*
X20491000Y-29660000D01*
X12236000Y-29660000D02*
X12236000Y-22040000D01*
X20491000Y-29660000D02*
X20491000Y-22040000D01*
D12*
G36*
X40446620Y-9004520D02*
X40441540Y-8994360D01*
X40426300Y-8971500D01*
X40405980Y-8938480D01*
X40378040Y-8897840D01*
X40352640Y-8859740D01*
X40329780Y-8826720D01*
X40314540Y-8803860D01*
X40309460Y-8793700D01*
X40312000Y-8788620D01*
X40322160Y-8770840D01*
X40334860Y-8742900D01*
X40342480Y-8727660D01*
X40355180Y-8702260D01*
X40357720Y-8689560D01*
X40352640Y-8687020D01*
X40334860Y-8676860D01*
X40301840Y-8664160D01*
X40258660Y-8643840D01*
X40207860Y-8623520D01*
X40151980Y-8600660D01*
X40096100Y-8577800D01*
X40042760Y-8554940D01*
X39994500Y-8534620D01*
X39956400Y-8519380D01*
X39928460Y-8509220D01*
X39918300Y-8504140D01*
X39915760Y-8506680D01*
X39903060Y-8519380D01*
X39887820Y-8539700D01*
X39847180Y-8587960D01*
X39788760Y-8633680D01*
X39722720Y-8664160D01*
X39649060Y-8671780D01*
X39583020Y-8664160D01*
X39519520Y-8638760D01*
X39458560Y-8593040D01*
X39415380Y-8537160D01*
X39387440Y-8471120D01*
X39379820Y-8400000D01*
X39387440Y-8331420D01*
X39412840Y-8265380D01*
X39458560Y-8204420D01*
X39486500Y-8181560D01*
X39547460Y-8146000D01*
X39608420Y-8125680D01*
X39623660Y-8125680D01*
X39694780Y-8128220D01*
X39763360Y-8148540D01*
X39821780Y-8184100D01*
X39872580Y-8237440D01*
X39877660Y-8242520D01*
X39895440Y-8267920D01*
X39905600Y-8283160D01*
X39915760Y-8295860D01*
X40131660Y-8206960D01*
X40167220Y-8191720D01*
X40225640Y-8166320D01*
X40276440Y-8146000D01*
X40317080Y-8128220D01*
X40342480Y-8115520D01*
X40355180Y-8110440D01*
X40355180Y-8110440D01*
X40355180Y-8102820D01*
X40350100Y-8087580D01*
X40334860Y-8057100D01*
X40324700Y-8036780D01*
X40314540Y-8013920D01*
X40309460Y-8003760D01*
X40314540Y-7993600D01*
X40329780Y-7973280D01*
X40350100Y-7940260D01*
X40375500Y-7902160D01*
X40400900Y-7866600D01*
X40423760Y-7831040D01*
X40439000Y-7808180D01*
X40446620Y-7795480D01*
X40446620Y-7792940D01*
X40439000Y-7782780D01*
X40423760Y-7762460D01*
X40395820Y-7734520D01*
X40355180Y-7693880D01*
X40350100Y-7686260D01*
X40314540Y-7653240D01*
X40284060Y-7625300D01*
X40263740Y-7604980D01*
X40256120Y-7599900D01*
X40256120Y-7599900D01*
X40243420Y-7604980D01*
X40218020Y-7620220D01*
X40185000Y-7643080D01*
X40144360Y-7671020D01*
X40040220Y-7742140D01*
X39943700Y-7701500D01*
X39913220Y-7691340D01*
X39877660Y-7676100D01*
X39852260Y-7663400D01*
X39839560Y-7658320D01*
X39837020Y-7648160D01*
X39829400Y-7620220D01*
X39821780Y-7582120D01*
X39814160Y-7536400D01*
X39804000Y-7490680D01*
X39796380Y-7452580D01*
X39791300Y-7422100D01*
X39788760Y-7409400D01*
X39786220Y-7406860D01*
X39781140Y-7404320D01*
X39768440Y-7401780D01*
X39743040Y-7401780D01*
X39704940Y-7401780D01*
X39649060Y-7401780D01*
X39643980Y-7401780D01*
X39590640Y-7401780D01*
X39550000Y-7401780D01*
X39524600Y-7404320D01*
X39514440Y-7406860D01*
X39514440Y-7406860D01*
X39509360Y-7419560D01*
X39504280Y-7447500D01*
X39496660Y-7485600D01*
X39486500Y-7533860D01*
X39486500Y-7536400D01*
X39478880Y-7584660D01*
X39468720Y-7622760D01*
X39463640Y-7650700D01*
X39458560Y-7663400D01*
X39456020Y-7665940D01*
X39438240Y-7676100D01*
X39407760Y-7688800D01*
X39372200Y-7704040D01*
X39336640Y-7719280D01*
X39301080Y-7734520D01*
X39278220Y-7742140D01*
X39265520Y-7744680D01*
X39265520Y-7744680D01*
X39255360Y-7737060D01*
X39229960Y-7721820D01*
X39196940Y-7698960D01*
X39156300Y-7671020D01*
X39151220Y-7668480D01*
X39113120Y-7640540D01*
X39077560Y-7620220D01*
X39054700Y-7604980D01*
X39044540Y-7599900D01*
X39042000Y-7599900D01*
X39031840Y-7607520D01*
X39008980Y-7627840D01*
X38978500Y-7658320D01*
X38942940Y-7693880D01*
X38932780Y-7704040D01*
X38894680Y-7742140D01*
X38869280Y-7770080D01*
X38856580Y-7787860D01*
X38851500Y-7795480D01*
X38854040Y-7795480D01*
X38859120Y-7808180D01*
X38876900Y-7833580D01*
X38899760Y-7866600D01*
X38927700Y-7907240D01*
X38930240Y-7909780D01*
X38955640Y-7950420D01*
X38978500Y-7983440D01*
X38993740Y-8006300D01*
X39001360Y-8016460D01*
X39001360Y-8019000D01*
X38996280Y-8034240D01*
X38986120Y-8064720D01*
X38973420Y-8097740D01*
X38958180Y-8135840D01*
X38942940Y-8168860D01*
X38932780Y-8194260D01*
X38925160Y-8206960D01*
X38925160Y-8206960D01*
X38909920Y-8212040D01*
X38879440Y-8217120D01*
X38838800Y-8227280D01*
X38790540Y-8234900D01*
X38782920Y-8237440D01*
X38734660Y-8245060D01*
X38696560Y-8252680D01*
X38668620Y-8260300D01*
X38655920Y-8262840D01*
X38655920Y-8267920D01*
X38653380Y-8293320D01*
X38653380Y-8328880D01*
X38653380Y-8372060D01*
X38653380Y-8415240D01*
X38653380Y-8458420D01*
X38655920Y-8496520D01*
X38655920Y-8521920D01*
X38658460Y-8534620D01*
X38661000Y-8534620D01*
X38673700Y-8539700D01*
X38704180Y-8544780D01*
X38744820Y-8554940D01*
X38795620Y-8562560D01*
X38803240Y-8565100D01*
X38851500Y-8572720D01*
X38889600Y-8582880D01*
X38917540Y-8587960D01*
X38927700Y-8590500D01*
X38930240Y-8595580D01*
X38937860Y-8613360D01*
X38950560Y-8646380D01*
X38968340Y-8687020D01*
X39003900Y-8778460D01*
X38927700Y-8890220D01*
X38920080Y-8900380D01*
X38892140Y-8941020D01*
X38871820Y-8974040D01*
X38856580Y-8996900D01*
X38851500Y-9007060D01*
X38851500Y-9007060D01*
X38861660Y-9017220D01*
X38881980Y-9040080D01*
X38912460Y-9070560D01*
X38945480Y-9106120D01*
X38973420Y-9131520D01*
X39003900Y-9162000D01*
X39024220Y-9182320D01*
X39039460Y-9192480D01*
X39047080Y-9197560D01*
X39052160Y-9195020D01*
X39064860Y-9189940D01*
X39087720Y-9172160D01*
X39123280Y-9149300D01*
X39161380Y-9121360D01*
X39196940Y-9098500D01*
X39232500Y-9075640D01*
X39260440Y-9060400D01*
X39273140Y-9052780D01*
X39278220Y-9055320D01*
X39301080Y-9062940D01*
X39334100Y-9075640D01*
X39374740Y-9093420D01*
X39463640Y-9131520D01*
X39473800Y-9189940D01*
X39481420Y-9225500D01*
X39489040Y-9276300D01*
X39499200Y-9322020D01*
X39514440Y-9395680D01*
X39781140Y-9398220D01*
X39786220Y-9388060D01*
X39791300Y-9375360D01*
X39796380Y-9349960D01*
X39804000Y-9309320D01*
X39811620Y-9263600D01*
X39819240Y-9225500D01*
X39826860Y-9184860D01*
X39831940Y-9156920D01*
X39834480Y-9144220D01*
X39839560Y-9141680D01*
X39859880Y-9131520D01*
X39890360Y-9116280D01*
X39925920Y-9101040D01*
X39964020Y-9085800D01*
X39999580Y-9073100D01*
X40024980Y-9062940D01*
X40040220Y-9057860D01*
X40050380Y-9062940D01*
X40073240Y-9078180D01*
X40106260Y-9101040D01*
X40144360Y-9126440D01*
X40185000Y-9154380D01*
X40218020Y-9177240D01*
X40243420Y-9192480D01*
X40253580Y-9200100D01*
X40261200Y-9195020D01*
X40278980Y-9179780D01*
X40309460Y-9151840D01*
X40355180Y-9106120D01*
X40360260Y-9098500D01*
X40395820Y-9065480D01*
X40421220Y-9035000D01*
X40441540Y-9014680D01*
X40446620Y-9004520D01*
X40446620Y-9004520D01*
G37*
X40446620Y-9004520D02*
X40441540Y-8994360D01*
X40426300Y-8971500D01*
X40405980Y-8938480D01*
X40378040Y-8897840D01*
X40352640Y-8859740D01*
X40329780Y-8826720D01*
X40314540Y-8803860D01*
X40309460Y-8793700D01*
X40312000Y-8788620D01*
X40322160Y-8770840D01*
X40334860Y-8742900D01*
X40342480Y-8727660D01*
X40355180Y-8702260D01*
X40357720Y-8689560D01*
X40352640Y-8687020D01*
X40334860Y-8676860D01*
X40301840Y-8664160D01*
X40258660Y-8643840D01*
X40207860Y-8623520D01*
X40151980Y-8600660D01*
X40096100Y-8577800D01*
X40042760Y-8554940D01*
X39994500Y-8534620D01*
X39956400Y-8519380D01*
X39928460Y-8509220D01*
X39918300Y-8504140D01*
X39915760Y-8506680D01*
X39903060Y-8519380D01*
X39887820Y-8539700D01*
X39847180Y-8587960D01*
X39788760Y-8633680D01*
X39722720Y-8664160D01*
X39649060Y-8671780D01*
X39583020Y-8664160D01*
X39519520Y-8638760D01*
X39458560Y-8593040D01*
X39415380Y-8537160D01*
X39387440Y-8471120D01*
X39379820Y-8400000D01*
X39387440Y-8331420D01*
X39412840Y-8265380D01*
X39458560Y-8204420D01*
X39486500Y-8181560D01*
X39547460Y-8146000D01*
X39608420Y-8125680D01*
X39623660Y-8125680D01*
X39694780Y-8128220D01*
X39763360Y-8148540D01*
X39821780Y-8184100D01*
X39872580Y-8237440D01*
X39877660Y-8242520D01*
X39895440Y-8267920D01*
X39905600Y-8283160D01*
X39915760Y-8295860D01*
X40131660Y-8206960D01*
X40167220Y-8191720D01*
X40225640Y-8166320D01*
X40276440Y-8146000D01*
X40317080Y-8128220D01*
X40342480Y-8115520D01*
X40355180Y-8110440D01*
X40355180Y-8110440D01*
X40355180Y-8102820D01*
X40350100Y-8087580D01*
X40334860Y-8057100D01*
X40324700Y-8036780D01*
X40314540Y-8013920D01*
X40309460Y-8003760D01*
X40314540Y-7993600D01*
X40329780Y-7973280D01*
X40350100Y-7940260D01*
X40375500Y-7902160D01*
X40400900Y-7866600D01*
X40423760Y-7831040D01*
X40439000Y-7808180D01*
X40446620Y-7795480D01*
X40446620Y-7792940D01*
X40439000Y-7782780D01*
X40423760Y-7762460D01*
X40395820Y-7734520D01*
X40355180Y-7693880D01*
X40350100Y-7686260D01*
X40314540Y-7653240D01*
X40284060Y-7625300D01*
X40263740Y-7604980D01*
X40256120Y-7599900D01*
X40256120Y-7599900D01*
X40243420Y-7604980D01*
X40218020Y-7620220D01*
X40185000Y-7643080D01*
X40144360Y-7671020D01*
X40040220Y-7742140D01*
X39943700Y-7701500D01*
X39913220Y-7691340D01*
X39877660Y-7676100D01*
X39852260Y-7663400D01*
X39839560Y-7658320D01*
X39837020Y-7648160D01*
X39829400Y-7620220D01*
X39821780Y-7582120D01*
X39814160Y-7536400D01*
X39804000Y-7490680D01*
X39796380Y-7452580D01*
X39791300Y-7422100D01*
X39788760Y-7409400D01*
X39786220Y-7406860D01*
X39781140Y-7404320D01*
X39768440Y-7401780D01*
X39743040Y-7401780D01*
X39704940Y-7401780D01*
X39649060Y-7401780D01*
X39643980Y-7401780D01*
X39590640Y-7401780D01*
X39550000Y-7401780D01*
X39524600Y-7404320D01*
X39514440Y-7406860D01*
X39514440Y-7406860D01*
X39509360Y-7419560D01*
X39504280Y-7447500D01*
X39496660Y-7485600D01*
X39486500Y-7533860D01*
X39486500Y-7536400D01*
X39478880Y-7584660D01*
X39468720Y-7622760D01*
X39463640Y-7650700D01*
X39458560Y-7663400D01*
X39456020Y-7665940D01*
X39438240Y-7676100D01*
X39407760Y-7688800D01*
X39372200Y-7704040D01*
X39336640Y-7719280D01*
X39301080Y-7734520D01*
X39278220Y-7742140D01*
X39265520Y-7744680D01*
X39265520Y-7744680D01*
X39255360Y-7737060D01*
X39229960Y-7721820D01*
X39196940Y-7698960D01*
X39156300Y-7671020D01*
X39151220Y-7668480D01*
X39113120Y-7640540D01*
X39077560Y-7620220D01*
X39054700Y-7604980D01*
X39044540Y-7599900D01*
X39042000Y-7599900D01*
X39031840Y-7607520D01*
X39008980Y-7627840D01*
X38978500Y-7658320D01*
X38942940Y-7693880D01*
X38932780Y-7704040D01*
X38894680Y-7742140D01*
X38869280Y-7770080D01*
X38856580Y-7787860D01*
X38851500Y-7795480D01*
X38854040Y-7795480D01*
X38859120Y-7808180D01*
X38876900Y-7833580D01*
X38899760Y-7866600D01*
X38927700Y-7907240D01*
X38930240Y-7909780D01*
X38955640Y-7950420D01*
X38978500Y-7983440D01*
X38993740Y-8006300D01*
X39001360Y-8016460D01*
X39001360Y-8019000D01*
X38996280Y-8034240D01*
X38986120Y-8064720D01*
X38973420Y-8097740D01*
X38958180Y-8135840D01*
X38942940Y-8168860D01*
X38932780Y-8194260D01*
X38925160Y-8206960D01*
X38925160Y-8206960D01*
X38909920Y-8212040D01*
X38879440Y-8217120D01*
X38838800Y-8227280D01*
X38790540Y-8234900D01*
X38782920Y-8237440D01*
X38734660Y-8245060D01*
X38696560Y-8252680D01*
X38668620Y-8260300D01*
X38655920Y-8262840D01*
X38655920Y-8267920D01*
X38653380Y-8293320D01*
X38653380Y-8328880D01*
X38653380Y-8372060D01*
X38653380Y-8415240D01*
X38653380Y-8458420D01*
X38655920Y-8496520D01*
X38655920Y-8521920D01*
X38658460Y-8534620D01*
X38661000Y-8534620D01*
X38673700Y-8539700D01*
X38704180Y-8544780D01*
X38744820Y-8554940D01*
X38795620Y-8562560D01*
X38803240Y-8565100D01*
X38851500Y-8572720D01*
X38889600Y-8582880D01*
X38917540Y-8587960D01*
X38927700Y-8590500D01*
X38930240Y-8595580D01*
X38937860Y-8613360D01*
X38950560Y-8646380D01*
X38968340Y-8687020D01*
X39003900Y-8778460D01*
X38927700Y-8890220D01*
X38920080Y-8900380D01*
X38892140Y-8941020D01*
X38871820Y-8974040D01*
X38856580Y-8996900D01*
X38851500Y-9007060D01*
X38851500Y-9007060D01*
X38861660Y-9017220D01*
X38881980Y-9040080D01*
X38912460Y-9070560D01*
X38945480Y-9106120D01*
X38973420Y-9131520D01*
X39003900Y-9162000D01*
X39024220Y-9182320D01*
X39039460Y-9192480D01*
X39047080Y-9197560D01*
X39052160Y-9195020D01*
X39064860Y-9189940D01*
X39087720Y-9172160D01*
X39123280Y-9149300D01*
X39161380Y-9121360D01*
X39196940Y-9098500D01*
X39232500Y-9075640D01*
X39260440Y-9060400D01*
X39273140Y-9052780D01*
X39278220Y-9055320D01*
X39301080Y-9062940D01*
X39334100Y-9075640D01*
X39374740Y-9093420D01*
X39463640Y-9131520D01*
X39473800Y-9189940D01*
X39481420Y-9225500D01*
X39489040Y-9276300D01*
X39499200Y-9322020D01*
X39514440Y-9395680D01*
X39781140Y-9398220D01*
X39786220Y-9388060D01*
X39791300Y-9375360D01*
X39796380Y-9349960D01*
X39804000Y-9309320D01*
X39811620Y-9263600D01*
X39819240Y-9225500D01*
X39826860Y-9184860D01*
X39831940Y-9156920D01*
X39834480Y-9144220D01*
X39839560Y-9141680D01*
X39859880Y-9131520D01*
X39890360Y-9116280D01*
X39925920Y-9101040D01*
X39964020Y-9085800D01*
X39999580Y-9073100D01*
X40024980Y-9062940D01*
X40040220Y-9057860D01*
X40050380Y-9062940D01*
X40073240Y-9078180D01*
X40106260Y-9101040D01*
X40144360Y-9126440D01*
X40185000Y-9154380D01*
X40218020Y-9177240D01*
X40243420Y-9192480D01*
X40253580Y-9200100D01*
X40261200Y-9195020D01*
X40278980Y-9179780D01*
X40309460Y-9151840D01*
X40355180Y-9106120D01*
X40360260Y-9098500D01*
X40395820Y-9065480D01*
X40421220Y-9035000D01*
X40441540Y-9014680D01*
X40446620Y-9004520D01*
D10*
X18616667Y-2816667D02*
X18616667Y-3383333D01*
X18650000Y-3450000D01*
X18683333Y-3483333D01*
X18750000Y-3516667D01*
X18883333Y-3516667D01*
X18950000Y-3483333D01*
X18983333Y-3450000D01*
X19016667Y-3383333D01*
X19016667Y-2816667D01*
X19650000Y-2816667D02*
X19516666Y-2816667D01*
X19450000Y-2850000D01*
X19416666Y-2883333D01*
X19350000Y-2983333D01*
X19316666Y-3116667D01*
X19316666Y-3383333D01*
X19350000Y-3450000D01*
X19383333Y-3483333D01*
X19450000Y-3516667D01*
X19583333Y-3516667D01*
X19650000Y-3483333D01*
X19683333Y-3450000D01*
X19716666Y-3383333D01*
X19716666Y-3216667D01*
X19683333Y-3150000D01*
X19650000Y-3116667D01*
X19583333Y-3083333D01*
X19450000Y-3083333D01*
X19383333Y-3116667D01*
X19350000Y-3150000D01*
X19316666Y-3216667D01*
X43233334Y-32316667D02*
X43233334Y-31616667D01*
X43500000Y-31616667D01*
X43566667Y-31650000D01*
X43600000Y-31683333D01*
X43633334Y-31750000D01*
X43633334Y-31850000D01*
X43600000Y-31916667D01*
X43566667Y-31950000D01*
X43500000Y-31983333D01*
X43233334Y-31983333D01*
X43866667Y-31616667D02*
X44300000Y-31616667D01*
X44066667Y-31883333D01*
X44166667Y-31883333D01*
X44233334Y-31916667D01*
X44266667Y-31950000D01*
X44300000Y-32016667D01*
X44300000Y-32183333D01*
X44266667Y-32250000D01*
X44233334Y-32283333D01*
X44166667Y-32316667D01*
X43966667Y-32316667D01*
X43900000Y-32283333D01*
X43866667Y-32250000D01*
X43233334Y-30016667D02*
X43233334Y-29316667D01*
X43500000Y-29316667D01*
X43566667Y-29350000D01*
X43600000Y-29383333D01*
X43633334Y-29450000D01*
X43633334Y-29550000D01*
X43600000Y-29616667D01*
X43566667Y-29650000D01*
X43500000Y-29683333D01*
X43233334Y-29683333D01*
X43900000Y-29383333D02*
X43933334Y-29350000D01*
X44000000Y-29316667D01*
X44166667Y-29316667D01*
X44233334Y-29350000D01*
X44266667Y-29383333D01*
X44300000Y-29450000D01*
X44300000Y-29516667D01*
X44266667Y-29616667D01*
X43866667Y-30016667D01*
X44300000Y-30016667D01*
X43333334Y-8616667D02*
X43333334Y-7916667D01*
X43600000Y-7916667D01*
X43666667Y-7950000D01*
X43700000Y-7983333D01*
X43733334Y-8050000D01*
X43733334Y-8150000D01*
X43700000Y-8216667D01*
X43666667Y-8250000D01*
X43600000Y-8283333D01*
X43333334Y-8283333D01*
X44400000Y-8616667D02*
X44000000Y-8616667D01*
X44200000Y-8616667D02*
X44200000Y-7916667D01*
X44133334Y-8016667D01*
X44066667Y-8083333D01*
X44000000Y-8116667D01*
X40233333Y-32116667D02*
X39900000Y-32116667D01*
X39900000Y-31416667D01*
X40800000Y-31416667D02*
X40466667Y-31416667D01*
X40433333Y-31750000D01*
X40466667Y-31716667D01*
X40533333Y-31683333D01*
X40700000Y-31683333D01*
X40766667Y-31716667D01*
X40800000Y-31750000D01*
X40833333Y-31816667D01*
X40833333Y-31983333D01*
X40800000Y-32050000D01*
X40766667Y-32083333D01*
X40700000Y-32116667D01*
X40533333Y-32116667D01*
X40466667Y-32083333D01*
X40433333Y-32050000D01*
X34433333Y-31816667D02*
X34100000Y-31816667D01*
X34100000Y-31116667D01*
X34966667Y-31350000D02*
X34966667Y-31816667D01*
X34800000Y-31083333D02*
X34633333Y-31583333D01*
X35066667Y-31583333D01*
X39033333Y-15316667D02*
X38700000Y-15316667D01*
X38700000Y-14616667D01*
X39200000Y-14616667D02*
X39633333Y-14616667D01*
X39400000Y-14883333D01*
X39500000Y-14883333D01*
X39566667Y-14916667D01*
X39600000Y-14950000D01*
X39633333Y-15016667D01*
X39633333Y-15183333D01*
X39600000Y-15250000D01*
X39566667Y-15283333D01*
X39500000Y-15316667D01*
X39300000Y-15316667D01*
X39233333Y-15283333D01*
X39200000Y-15250000D01*
X30633333Y-18116667D02*
X30300000Y-18116667D01*
X30300000Y-17416667D01*
X30833333Y-17483333D02*
X30866667Y-17450000D01*
X30933333Y-17416667D01*
X31100000Y-17416667D01*
X31166667Y-17450000D01*
X31200000Y-17483333D01*
X31233333Y-17550000D01*
X31233333Y-17616667D01*
X31200000Y-17716667D01*
X30800000Y-18116667D01*
X31233333Y-18116667D01*
X25033333Y-18116667D02*
X24700000Y-18116667D01*
X24700000Y-17416667D01*
X25633333Y-18116667D02*
X25233333Y-18116667D01*
X25433333Y-18116667D02*
X25433333Y-17416667D01*
X25366667Y-17516667D01*
X25300000Y-17583333D01*
X25233333Y-17616667D01*
X19833334Y-36116667D02*
X19833334Y-35416667D01*
X20000000Y-35416667D01*
X20100000Y-35450000D01*
X20166667Y-35516667D01*
X20200000Y-35583333D01*
X20233334Y-35716667D01*
X20233334Y-35816667D01*
X20200000Y-35950000D01*
X20166667Y-36016667D01*
X20100000Y-36083333D01*
X20000000Y-36116667D01*
X19833334Y-36116667D01*
X20900000Y-36116667D02*
X20500000Y-36116667D01*
X20700000Y-36116667D02*
X20700000Y-35416667D01*
X20633334Y-35516667D01*
X20566667Y-35583333D01*
X20500000Y-35616667D01*
X18166667Y-43850000D02*
X18133333Y-43883333D01*
X18033333Y-43916667D01*
X17966667Y-43916667D01*
X17866667Y-43883333D01*
X17800000Y-43816667D01*
X17766667Y-43750000D01*
X17733333Y-43616667D01*
X17733333Y-43516667D01*
X17766667Y-43383333D01*
X17800000Y-43316667D01*
X17866667Y-43250000D01*
X17966667Y-43216667D01*
X18033333Y-43216667D01*
X18133333Y-43250000D01*
X18166667Y-43283333D01*
X18466667Y-43916667D02*
X18466667Y-43216667D01*
X18866667Y-43916667D01*
X18866667Y-43216667D01*
X19133333Y-43216667D02*
X19566666Y-43216667D01*
X19333333Y-43483333D01*
X19433333Y-43483333D01*
X19500000Y-43516667D01*
X19533333Y-43550000D01*
X19566666Y-43616667D01*
X19566666Y-43783333D01*
X19533333Y-43850000D01*
X19500000Y-43883333D01*
X19433333Y-43916667D01*
X19233333Y-43916667D01*
X19166666Y-43883333D01*
X19133333Y-43850000D01*
X20333334Y-31950000D02*
X20300000Y-31983333D01*
X20200000Y-32016667D01*
X20133334Y-32016667D01*
X20033334Y-31983333D01*
X19966667Y-31916667D01*
X19933334Y-31850000D01*
X19900000Y-31716667D01*
X19900000Y-31616667D01*
X19933334Y-31483333D01*
X19966667Y-31416667D01*
X20033334Y-31350000D01*
X20133334Y-31316667D01*
X20200000Y-31316667D01*
X20300000Y-31350000D01*
X20333334Y-31383333D01*
X20666667Y-32016667D02*
X20800000Y-32016667D01*
X20866667Y-31983333D01*
X20900000Y-31950000D01*
X20966667Y-31850000D01*
X21000000Y-31716667D01*
X21000000Y-31450000D01*
X20966667Y-31383333D01*
X20933334Y-31350000D01*
X20866667Y-31316667D01*
X20733334Y-31316667D01*
X20666667Y-31350000D01*
X20633334Y-31383333D01*
X20600000Y-31450000D01*
X20600000Y-31616667D01*
X20633334Y-31683333D01*
X20666667Y-31716667D01*
X20733334Y-31750000D01*
X20866667Y-31750000D01*
X20933334Y-31716667D01*
X20966667Y-31683333D01*
X21000000Y-31616667D01*
X22100000Y-30050000D02*
X22066666Y-30083333D01*
X21966666Y-30116667D01*
X21900000Y-30116667D01*
X21800000Y-30083333D01*
X21733333Y-30016667D01*
X21700000Y-29950000D01*
X21666666Y-29816667D01*
X21666666Y-29716667D01*
X21700000Y-29583333D01*
X21733333Y-29516667D01*
X21800000Y-29450000D01*
X21900000Y-29416667D01*
X21966666Y-29416667D01*
X22066666Y-29450000D01*
X22100000Y-29483333D01*
X22766666Y-30116667D02*
X22366666Y-30116667D01*
X22566666Y-30116667D02*
X22566666Y-29416667D01*
X22500000Y-29516667D01*
X22433333Y-29583333D01*
X22366666Y-29616667D01*
X23200000Y-29416667D02*
X23266667Y-29416667D01*
X23333333Y-29450000D01*
X23366667Y-29483333D01*
X23400000Y-29550000D01*
X23433333Y-29683333D01*
X23433333Y-29850000D01*
X23400000Y-29983333D01*
X23366667Y-30050000D01*
X23333333Y-30083333D01*
X23266667Y-30116667D01*
X23200000Y-30116667D01*
X23133333Y-30083333D01*
X23100000Y-30050000D01*
X23066667Y-29983333D01*
X23033333Y-29850000D01*
X23033333Y-29683333D01*
X23066667Y-29550000D01*
X23100000Y-29483333D01*
X23133333Y-29450000D01*
X23200000Y-29416667D01*
X7833334Y-23216667D02*
X7833334Y-22516667D01*
X8100000Y-22516667D01*
X8166667Y-22550000D01*
X8200000Y-22583333D01*
X8233334Y-22650000D01*
X8233334Y-22750000D01*
X8200000Y-22816667D01*
X8166667Y-22850000D01*
X8100000Y-22883333D01*
X7833334Y-22883333D01*
X8833334Y-22750000D02*
X8833334Y-23216667D01*
X8666667Y-22483333D02*
X8500000Y-22983333D01*
X8933334Y-22983333D01*
X42000000Y-11250000D02*
X41966666Y-11283333D01*
X41866666Y-11316667D01*
X41800000Y-11316667D01*
X41700000Y-11283333D01*
X41633333Y-11216667D01*
X41600000Y-11150000D01*
X41566666Y-11016667D01*
X41566666Y-10916667D01*
X41600000Y-10783333D01*
X41633333Y-10716667D01*
X41700000Y-10650000D01*
X41800000Y-10616667D01*
X41866666Y-10616667D01*
X41966666Y-10650000D01*
X42000000Y-10683333D01*
X42666666Y-11316667D02*
X42266666Y-11316667D01*
X42466666Y-11316667D02*
X42466666Y-10616667D01*
X42400000Y-10716667D01*
X42333333Y-10783333D01*
X42266666Y-10816667D01*
X43266667Y-10616667D02*
X43133333Y-10616667D01*
X43066667Y-10650000D01*
X43033333Y-10683333D01*
X42966667Y-10783333D01*
X42933333Y-10916667D01*
X42933333Y-11183333D01*
X42966667Y-11250000D01*
X43000000Y-11283333D01*
X43066667Y-11316667D01*
X43200000Y-11316667D01*
X43266667Y-11283333D01*
X43300000Y-11250000D01*
X43333333Y-11183333D01*
X43333333Y-11016667D01*
X43300000Y-10950000D01*
X43266667Y-10916667D01*
X43200000Y-10883333D01*
X43066667Y-10883333D01*
X43000000Y-10916667D01*
X42966667Y-10950000D01*
X42933333Y-11016667D01*
X41700000Y-26850000D02*
X41666666Y-26883333D01*
X41566666Y-26916667D01*
X41500000Y-26916667D01*
X41400000Y-26883333D01*
X41333333Y-26816667D01*
X41300000Y-26750000D01*
X41266666Y-26616667D01*
X41266666Y-26516667D01*
X41300000Y-26383333D01*
X41333333Y-26316667D01*
X41400000Y-26250000D01*
X41500000Y-26216667D01*
X41566666Y-26216667D01*
X41666666Y-26250000D01*
X41700000Y-26283333D01*
X42366666Y-26916667D02*
X41966666Y-26916667D01*
X42166666Y-26916667D02*
X42166666Y-26216667D01*
X42100000Y-26316667D01*
X42033333Y-26383333D01*
X41966666Y-26416667D01*
X42600000Y-26216667D02*
X43066667Y-26216667D01*
X42766667Y-26916667D01*
X42200000Y-36450000D02*
X42166666Y-36483333D01*
X42066666Y-36516667D01*
X42000000Y-36516667D01*
X41900000Y-36483333D01*
X41833333Y-36416667D01*
X41800000Y-36350000D01*
X41766666Y-36216667D01*
X41766666Y-36116667D01*
X41800000Y-35983333D01*
X41833333Y-35916667D01*
X41900000Y-35850000D01*
X42000000Y-35816667D01*
X42066666Y-35816667D01*
X42166666Y-35850000D01*
X42200000Y-35883333D01*
X42866666Y-36516667D02*
X42466666Y-36516667D01*
X42666666Y-36516667D02*
X42666666Y-35816667D01*
X42600000Y-35916667D01*
X42533333Y-35983333D01*
X42466666Y-36016667D01*
X43266667Y-36116667D02*
X43200000Y-36083333D01*
X43166667Y-36050000D01*
X43133333Y-35983333D01*
X43133333Y-35950000D01*
X43166667Y-35883333D01*
X43200000Y-35850000D01*
X43266667Y-35816667D01*
X43400000Y-35816667D01*
X43466667Y-35850000D01*
X43500000Y-35883333D01*
X43533333Y-35950000D01*
X43533333Y-35983333D01*
X43500000Y-36050000D01*
X43466667Y-36083333D01*
X43400000Y-36116667D01*
X43266667Y-36116667D01*
X43200000Y-36150000D01*
X43166667Y-36183333D01*
X43133333Y-36250000D01*
X43133333Y-36383333D01*
X43166667Y-36450000D01*
X43200000Y-36483333D01*
X43266667Y-36516667D01*
X43400000Y-36516667D01*
X43466667Y-36483333D01*
X43500000Y-36450000D01*
X43533333Y-36383333D01*
X43533333Y-36250000D01*
X43500000Y-36183333D01*
X43466667Y-36150000D01*
X43400000Y-36116667D01*
X26166667Y-1950000D02*
X26133333Y-1983333D01*
X26033333Y-2016667D01*
X25966667Y-2016667D01*
X25866667Y-1983333D01*
X25800000Y-1916667D01*
X25766667Y-1850000D01*
X25733333Y-1716667D01*
X25733333Y-1616667D01*
X25766667Y-1483333D01*
X25800000Y-1416667D01*
X25866667Y-1350000D01*
X25966667Y-1316667D01*
X26033333Y-1316667D01*
X26133333Y-1350000D01*
X26166667Y-1383333D01*
X26466667Y-2016667D02*
X26466667Y-1316667D01*
X26866667Y-2016667D01*
X26866667Y-1316667D01*
X27166666Y-1383333D02*
X27200000Y-1350000D01*
X27266666Y-1316667D01*
X27433333Y-1316667D01*
X27500000Y-1350000D01*
X27533333Y-1383333D01*
X27566666Y-1450000D01*
X27566666Y-1516667D01*
X27533333Y-1616667D01*
X27133333Y-2016667D01*
X27566666Y-2016667D01*
X17833334Y-41416667D02*
X17833334Y-40716667D01*
X18100000Y-40716667D01*
X18166667Y-40750000D01*
X18200000Y-40783333D01*
X18233334Y-40850000D01*
X18233334Y-40950000D01*
X18200000Y-41016667D01*
X18166667Y-41050000D01*
X18100000Y-41083333D01*
X17833334Y-41083333D01*
X18866667Y-40716667D02*
X18533334Y-40716667D01*
X18500000Y-41050000D01*
X18533334Y-41016667D01*
X18600000Y-40983333D01*
X18766667Y-40983333D01*
X18833334Y-41016667D01*
X18866667Y-41050000D01*
X18900000Y-41116667D01*
X18900000Y-41283333D01*
X18866667Y-41350000D01*
X18833334Y-41383333D01*
X18766667Y-41416667D01*
X18600000Y-41416667D01*
X18533334Y-41383333D01*
X18500000Y-41350000D01*
X17833334Y-46516667D02*
X17833334Y-45816667D01*
X18100000Y-45816667D01*
X18166667Y-45850000D01*
X18200000Y-45883333D01*
X18233334Y-45950000D01*
X18233334Y-46050000D01*
X18200000Y-46116667D01*
X18166667Y-46150000D01*
X18100000Y-46183333D01*
X17833334Y-46183333D01*
X18833334Y-45816667D02*
X18700000Y-45816667D01*
X18633334Y-45850000D01*
X18600000Y-45883333D01*
X18533334Y-45983333D01*
X18500000Y-46116667D01*
X18500000Y-46383333D01*
X18533334Y-46450000D01*
X18566667Y-46483333D01*
X18633334Y-46516667D01*
X18766667Y-46516667D01*
X18833334Y-46483333D01*
X18866667Y-46450000D01*
X18900000Y-46383333D01*
X18900000Y-46216667D01*
X18866667Y-46150000D01*
X18833334Y-46116667D01*
X18766667Y-46083333D01*
X18633334Y-46083333D01*
X18566667Y-46116667D01*
X18533334Y-46150000D01*
X18500000Y-46216667D01*
X22316667Y-21216667D02*
X22316667Y-21783333D01*
X22350000Y-21850000D01*
X22383333Y-21883333D01*
X22450000Y-21916667D01*
X22583333Y-21916667D01*
X22650000Y-21883333D01*
X22683333Y-21850000D01*
X22716667Y-21783333D01*
X22716667Y-21216667D01*
X23383333Y-21216667D02*
X23050000Y-21216667D01*
X23016666Y-21550000D01*
X23050000Y-21516667D01*
X23116666Y-21483333D01*
X23283333Y-21483333D01*
X23350000Y-21516667D01*
X23383333Y-21550000D01*
X23416666Y-21616667D01*
X23416666Y-21783333D01*
X23383333Y-21850000D01*
X23350000Y-21883333D01*
X23283333Y-21916667D01*
X23116666Y-21916667D01*
X23050000Y-21883333D01*
X23016666Y-21850000D01*
X20716667Y-25716667D02*
X20716667Y-26283333D01*
X20750000Y-26350000D01*
X20783333Y-26383333D01*
X20850000Y-26416667D01*
X20983333Y-26416667D01*
X21050000Y-26383333D01*
X21083333Y-26350000D01*
X21116667Y-26283333D01*
X21116667Y-25716667D01*
X21816666Y-26416667D02*
X21416666Y-26416667D01*
X21616666Y-26416667D02*
X21616666Y-25716667D01*
X21550000Y-25816667D01*
X21483333Y-25883333D01*
X21416666Y-25916667D01*
X26916667Y-26716667D02*
X26916667Y-27283333D01*
X26950000Y-27350000D01*
X26983333Y-27383333D01*
X27050000Y-27416667D01*
X27183333Y-27416667D01*
X27250000Y-27383333D01*
X27283333Y-27350000D01*
X27316667Y-27283333D01*
X27316667Y-26716667D01*
X27616666Y-26783333D02*
X27650000Y-26750000D01*
X27716666Y-26716667D01*
X27883333Y-26716667D01*
X27950000Y-26750000D01*
X27983333Y-26783333D01*
X28016666Y-26850000D01*
X28016666Y-26916667D01*
X27983333Y-27016667D01*
X27583333Y-27416667D01*
X28016666Y-27416667D01*
X23416667Y-32316667D02*
X23416667Y-32883333D01*
X23450000Y-32950000D01*
X23483333Y-32983333D01*
X23550000Y-33016667D01*
X23683333Y-33016667D01*
X23750000Y-32983333D01*
X23783333Y-32950000D01*
X23816667Y-32883333D01*
X23816667Y-32316667D01*
X24083333Y-32316667D02*
X24516666Y-32316667D01*
X24283333Y-32583333D01*
X24383333Y-32583333D01*
X24450000Y-32616667D01*
X24483333Y-32650000D01*
X24516666Y-32716667D01*
X24516666Y-32883333D01*
X24483333Y-32950000D01*
X24450000Y-32983333D01*
X24383333Y-33016667D01*
X24183333Y-33016667D01*
X24116666Y-32983333D01*
X24083333Y-32950000D01*
X23416667Y-34916667D02*
X23416667Y-35483333D01*
X23450000Y-35550000D01*
X23483333Y-35583333D01*
X23550000Y-35616667D01*
X23683333Y-35616667D01*
X23750000Y-35583333D01*
X23783333Y-35550000D01*
X23816667Y-35483333D01*
X23816667Y-34916667D01*
X24450000Y-35150000D02*
X24450000Y-35616667D01*
X24283333Y-34883333D02*
X24116666Y-35383333D01*
X24550000Y-35383333D01*
X10716667Y-29816667D02*
X11116667Y-29816667D01*
X10916667Y-30516667D02*
X10916667Y-29816667D01*
X11316666Y-29883333D02*
X11350000Y-29850000D01*
X11416666Y-29816667D01*
X11583333Y-29816667D01*
X11650000Y-29850000D01*
X11683333Y-29883333D01*
X11716666Y-29950000D01*
X11716666Y-30016667D01*
X11683333Y-30116667D01*
X11283333Y-30516667D01*
X11716666Y-30516667D01*
X12216667Y-21016667D02*
X12616667Y-21016667D01*
X12416667Y-21716667D02*
X12416667Y-21016667D01*
X13216666Y-21716667D02*
X12816666Y-21716667D01*
X13016666Y-21716667D02*
X13016666Y-21016667D01*
X12950000Y-21116667D01*
X12883333Y-21183333D01*
X12816666Y-21216667D01*
M02*
