G04 #@! TF.FileFunction,Copper,L2,Bot,Signal*
%FSLAX46Y46*%
G04 Gerber Fmt 4.6, Leading zero omitted, Abs format (unit mm)*
G04 Created by KiCad (PCBNEW 0.201509182047+6202~30~ubuntu14.04.1-product) date Sun 20 Sep 2015 06:38:23 PM PDT*
%MOMM*%
G01*
G04 APERTURE LIST*
%ADD10C,0.100000*%
%ADD11C,1.800000*%
%ADD12R,5.000000X3.960000*%
%ADD13C,1.900000*%
%ADD14C,6.350000*%
%ADD15R,4.200000X0.700000*%
%ADD16R,1.000000X1.250000*%
%ADD17R,1.250000X1.000000*%
%ADD18R,1.800000X1.800000*%
%ADD19C,2.100000*%
%ADD20C,0.889000*%
%ADD21C,0.250000*%
%ADD22C,0.400000*%
%ADD23C,1.000000*%
%ADD24C,1.200000*%
%ADD25C,0.254000*%
G04 APERTURE END LIST*
D10*
D11*
X139700000Y-115189000D03*
X139700000Y-105029000D03*
D12*
X138193000Y-106489000D03*
X138193000Y-113729000D03*
D11*
X139700000Y-112649000D03*
X139700000Y-107569000D03*
X139700000Y-110109000D03*
X139700000Y-102489000D03*
X139700000Y-92329000D03*
D12*
X138193000Y-93789000D03*
X138193000Y-101029000D03*
D11*
X139700000Y-99949000D03*
X139700000Y-94869000D03*
X139700000Y-97409000D03*
X139700000Y-89789000D03*
X139700000Y-79629000D03*
D12*
X138193000Y-81089000D03*
X138193000Y-88329000D03*
D11*
X139700000Y-87249000D03*
X139700000Y-82169000D03*
X139700000Y-84709000D03*
X131100000Y-106800000D03*
X128100000Y-109800000D03*
X121000000Y-105250000D03*
X124000000Y-108250000D03*
X130300000Y-93100000D03*
X133300000Y-90100000D03*
X123242000Y-91703000D03*
X126242000Y-94703000D03*
X116242000Y-95953000D03*
X119242000Y-92953000D03*
D13*
X112014000Y-116078000D03*
X114554000Y-116078000D03*
X117094000Y-116078000D03*
X119634000Y-116078000D03*
D14*
X135500000Y-118400000D03*
X135500000Y-76300000D03*
D15*
X94500000Y-103600000D03*
X94500000Y-102600000D03*
X94500000Y-101600000D03*
X94500000Y-100600000D03*
X94500000Y-99600000D03*
X94500000Y-98600000D03*
X94500000Y-97600000D03*
X94500000Y-96600000D03*
X94500000Y-95600000D03*
X94500000Y-94600000D03*
X94500000Y-93600000D03*
X94500000Y-90600000D03*
X94500000Y-89600000D03*
X94500000Y-88600000D03*
X94500000Y-87600000D03*
X94500000Y-86600000D03*
X94500000Y-85600000D03*
X94500000Y-84600000D03*
D16*
X117742000Y-96453000D03*
X119742000Y-96453000D03*
D17*
X121992000Y-92703000D03*
X121992000Y-94703000D03*
D16*
X126242000Y-95953000D03*
X124242000Y-95953000D03*
X132250000Y-90000000D03*
X130250000Y-90000000D03*
D17*
X116250000Y-92250000D03*
X116250000Y-94250000D03*
X117750000Y-92750000D03*
X117750000Y-94750000D03*
D16*
X107000000Y-99000000D03*
X109000000Y-99000000D03*
X104400000Y-107100000D03*
X106400000Y-107100000D03*
D17*
X120100000Y-107300000D03*
X120100000Y-109300000D03*
D16*
X124100000Y-109800000D03*
X122100000Y-109800000D03*
D17*
X127100000Y-108550000D03*
X127100000Y-106550000D03*
D16*
X123600000Y-107050000D03*
X121600000Y-107050000D03*
D17*
X129600000Y-109300000D03*
X129600000Y-107300000D03*
X107000000Y-96750000D03*
X107000000Y-94750000D03*
D16*
X105000000Y-91250000D03*
X107000000Y-91250000D03*
X105000000Y-93000000D03*
X107000000Y-93000000D03*
X126250000Y-97750000D03*
X124250000Y-97750000D03*
X130750000Y-96750000D03*
X128750000Y-96750000D03*
D17*
X134500000Y-96750000D03*
X134500000Y-98750000D03*
X132500000Y-94750000D03*
X132500000Y-96750000D03*
X132500000Y-93250000D03*
X132500000Y-91250000D03*
X134500000Y-94750000D03*
X134500000Y-92750000D03*
D18*
X120200000Y-75000000D03*
D11*
X120200000Y-77540000D03*
X120200000Y-80080000D03*
X120200000Y-82620000D03*
X120200000Y-85160000D03*
X120200000Y-87700000D03*
X122740000Y-75000000D03*
X122740000Y-77540000D03*
X122740000Y-80080000D03*
X122740000Y-82620000D03*
X122740000Y-85160000D03*
X122740000Y-87700000D03*
X112014000Y-113538000D03*
X114554000Y-113538000D03*
X117094000Y-113538000D03*
X119634000Y-113538000D03*
D13*
X119634000Y-118618000D03*
X117094000Y-118618000D03*
X114554000Y-118618000D03*
X112014000Y-118618000D03*
D11*
X102956000Y-104206000D03*
D19*
X102956000Y-107000000D03*
D11*
X102956000Y-109794000D03*
X108544000Y-109794000D03*
X108544000Y-104206000D03*
X104456000Y-95456000D03*
D19*
X104456000Y-98250000D03*
D11*
X104456000Y-101044000D03*
X110044000Y-101044000D03*
X110044000Y-95456000D03*
D20*
X120800000Y-91300000D03*
X101500000Y-100900000D03*
X97800000Y-94600000D03*
X97800000Y-97600000D03*
X121992000Y-96453000D03*
X112100000Y-94100000D03*
X128100000Y-104500000D03*
X121100000Y-109800000D03*
X116300000Y-110500000D03*
X114000000Y-108800000D03*
X119500000Y-100000000D03*
X119500000Y-102900000D03*
X114500000Y-94700000D03*
X116000000Y-99400000D03*
X116000000Y-108300000D03*
X116000000Y-105400000D03*
X116000000Y-102500000D03*
X101000000Y-74700000D03*
X104400000Y-74700000D03*
X107800000Y-74700000D03*
X107800000Y-87300000D03*
X113600000Y-97000000D03*
X113300000Y-101000000D03*
X117200000Y-99900000D03*
X117200000Y-102800000D03*
X117200000Y-105700000D03*
X127750000Y-97750000D03*
X112700000Y-84700000D03*
D21*
X121992000Y-94703000D02*
X121303000Y-94703000D01*
X120800000Y-94200000D02*
X120800000Y-91300000D01*
X121303000Y-94703000D02*
X120800000Y-94200000D01*
D22*
X97550000Y-103600000D02*
X98000000Y-103600000D01*
X94500000Y-103600000D02*
X97550000Y-103600000D01*
X98000000Y-103600000D02*
X98500000Y-103100000D01*
D23*
X121992000Y-94703000D02*
X121992000Y-96453000D01*
X119742000Y-96453000D02*
X123742000Y-96453000D01*
X123742000Y-96453000D02*
X124242000Y-95953000D01*
X124242000Y-95953000D02*
X124242000Y-97742000D01*
X124242000Y-97742000D02*
X124250000Y-97750000D01*
D22*
X127100000Y-106550000D02*
X127100000Y-105500000D01*
X127100000Y-105500000D02*
X128100000Y-104500000D01*
X120100000Y-109300000D02*
X120600000Y-109300000D01*
X120600000Y-109300000D02*
X121100000Y-109800000D01*
X122100000Y-109800000D02*
X121100000Y-109800000D01*
X108544000Y-109794000D02*
X108544000Y-109244000D01*
X108544000Y-109244000D02*
X106400000Y-107100000D01*
X110044000Y-101044000D02*
X110044000Y-100044000D01*
X110044000Y-100044000D02*
X109000000Y-99000000D01*
X94500000Y-97600000D02*
X97600000Y-97600000D01*
X94500000Y-101600000D02*
X97550000Y-101600000D01*
X94500000Y-100600000D02*
X97600000Y-100600000D01*
X94500000Y-99600000D02*
X97600000Y-99600000D01*
X94500000Y-98600000D02*
X97600000Y-98600000D01*
X94500000Y-96600000D02*
X97550000Y-96600000D01*
X97550000Y-96600000D02*
X97600000Y-96550000D01*
X94500000Y-95600000D02*
X97650000Y-95600000D01*
X94500000Y-94600000D02*
X97650000Y-94600000D01*
X94500000Y-102600000D02*
X97550000Y-102600000D01*
D23*
X116242000Y-95953000D02*
X117242000Y-95953000D01*
X117242000Y-95953000D02*
X117742000Y-96453000D01*
D24*
X117750000Y-94750000D02*
X117445000Y-94750000D01*
X117445000Y-94750000D02*
X116242000Y-95953000D01*
X116250000Y-94250000D02*
X116250000Y-95945000D01*
X116250000Y-95945000D02*
X116242000Y-95953000D01*
X116250000Y-92250000D02*
X117250000Y-92250000D01*
X117250000Y-92250000D02*
X117750000Y-92750000D01*
X117750000Y-92750000D02*
X119039000Y-92750000D01*
X119039000Y-92750000D02*
X119242000Y-92953000D01*
X121992000Y-92703000D02*
X122242000Y-92703000D01*
X122242000Y-92703000D02*
X123242000Y-91703000D01*
X126242000Y-95953000D02*
X126242000Y-94703000D01*
D22*
X107000000Y-94750000D02*
X107000000Y-93000000D01*
X107000000Y-93000000D02*
X107000000Y-91250000D01*
X104456000Y-98250000D02*
X107000000Y-98250000D01*
X107000000Y-96750000D02*
X107000000Y-98250000D01*
X107000000Y-98250000D02*
X107000000Y-99000000D01*
X102956000Y-107000000D02*
X104300000Y-107000000D01*
X104300000Y-107000000D02*
X104400000Y-107100000D01*
X103206000Y-107250000D02*
X102956000Y-107000000D01*
D23*
X121100000Y-105550000D02*
X121100000Y-106550000D01*
X121100000Y-106550000D02*
X121600000Y-107050000D01*
X121100000Y-105550000D02*
X121100000Y-106300000D01*
X121100000Y-106300000D02*
X120100000Y-107300000D01*
D22*
X121100000Y-106300000D02*
X120100000Y-107300000D01*
X121100000Y-106550000D02*
X121600000Y-107050000D01*
D23*
X124100000Y-109800000D02*
X124100000Y-108550000D01*
X124100000Y-108550000D02*
X124100000Y-107550000D01*
X124100000Y-107550000D02*
X123600000Y-107050000D01*
X131100000Y-106800000D02*
X130100000Y-106800000D01*
X130100000Y-106800000D02*
X129600000Y-107300000D01*
D22*
X124100000Y-107550000D02*
X123600000Y-107050000D01*
D23*
X127100000Y-108550000D02*
X127100000Y-108800000D01*
X127100000Y-108800000D02*
X128100000Y-109800000D01*
X129600000Y-109300000D02*
X128600000Y-109300000D01*
X128600000Y-109300000D02*
X128100000Y-109800000D01*
D22*
X94500000Y-89600000D02*
X97100000Y-89600000D01*
X97100000Y-89600000D02*
X97500000Y-89200000D01*
X94500000Y-88600000D02*
X96900000Y-88600000D01*
D23*
X102400000Y-93000000D02*
X105000000Y-93000000D01*
X102400000Y-93000000D02*
X98600000Y-89200000D01*
X97500000Y-89200000D02*
X98600000Y-89200000D01*
D22*
X96900000Y-88600000D02*
X97500000Y-89200000D01*
X105000000Y-91250000D02*
X105000000Y-90400000D01*
X109700000Y-89900000D02*
X114500000Y-94700000D01*
X105500000Y-89900000D02*
X109700000Y-89900000D01*
X105000000Y-90400000D02*
X105500000Y-89900000D01*
X94500000Y-86600000D02*
X97000000Y-86600000D01*
X97000000Y-86600000D02*
X97500000Y-87100000D01*
X94500000Y-87600000D02*
X97000000Y-87600000D01*
D23*
X103050000Y-91250000D02*
X98900000Y-87100000D01*
X98900000Y-87100000D02*
X97500000Y-87100000D01*
X103050000Y-91250000D02*
X105000000Y-91250000D01*
D22*
X97000000Y-87600000D02*
X97500000Y-87100000D01*
X114500000Y-94700000D02*
X114500000Y-96600000D01*
X114500000Y-96600000D02*
X116000000Y-98100000D01*
X116000000Y-98100000D02*
X116000000Y-99400000D01*
X116000000Y-102500000D02*
X116000000Y-99400000D01*
X116000000Y-102500000D02*
X116000000Y-105400000D01*
X116000000Y-105400000D02*
X116000000Y-108300000D01*
X122740000Y-75000000D02*
X122740000Y-73240000D01*
X122740000Y-73240000D02*
X122700000Y-73200000D01*
X104400000Y-74700000D02*
X101000000Y-74700000D01*
X107800000Y-87300000D02*
X107800000Y-74700000D01*
X94500000Y-84600000D02*
X97000000Y-84600000D01*
X97000000Y-84600000D02*
X97500000Y-85100000D01*
X94500000Y-85600000D02*
X97000000Y-85600000D01*
D23*
X97500000Y-85100000D02*
X99900000Y-85100000D01*
D22*
X97000000Y-85600000D02*
X97500000Y-85100000D01*
D21*
X111800000Y-102500000D02*
X111800000Y-110500000D01*
X113300000Y-101000000D02*
X111800000Y-102500000D01*
X110400000Y-114464000D02*
X112014000Y-116078000D01*
X110400000Y-111900000D02*
X110400000Y-114464000D01*
X111800000Y-110500000D02*
X110400000Y-111900000D01*
X113600000Y-97000000D02*
X113600000Y-100700000D01*
X113600000Y-100700000D02*
X113300000Y-101000000D01*
X118700000Y-104200000D02*
X118700000Y-110200000D01*
X117200000Y-100900000D02*
X118300000Y-102000000D01*
X118300000Y-102000000D02*
X118300000Y-103800000D01*
X118300000Y-103800000D02*
X118700000Y-104200000D01*
X117200000Y-99900000D02*
X117200000Y-100900000D01*
X121300000Y-114412000D02*
X119634000Y-116078000D01*
X121300000Y-112100000D02*
X121300000Y-114412000D01*
X120800000Y-111600000D02*
X121300000Y-112100000D01*
X120100000Y-111600000D02*
X120800000Y-111600000D01*
X118700000Y-110200000D02*
X120100000Y-111600000D01*
X118100000Y-109000000D02*
X118100000Y-111750000D01*
X117200000Y-102800000D02*
X117200000Y-104500000D01*
X118100000Y-105400000D02*
X118100000Y-108300000D01*
X117200000Y-104500000D02*
X118100000Y-105400000D01*
X118100000Y-108300000D02*
X118100000Y-109000000D01*
X118364000Y-114808000D02*
X118364000Y-112014000D01*
X118364000Y-114808000D02*
X117094000Y-116078000D01*
X118100000Y-111750000D02*
X118364000Y-112014000D01*
X113284000Y-112216000D02*
X114554000Y-110946000D01*
X117200000Y-108300000D02*
X114554000Y-110946000D01*
X117200000Y-105700000D02*
X117200000Y-108300000D01*
X114554000Y-116078000D02*
X113284000Y-114808000D01*
X113284000Y-114808000D02*
X113284000Y-112216000D01*
D22*
X126250000Y-97750000D02*
X127750000Y-97750000D01*
X127750000Y-97750000D02*
X128750000Y-96750000D01*
X132500000Y-96750000D02*
X130750000Y-96750000D01*
X134500000Y-96750000D02*
X132500000Y-96750000D01*
X132500000Y-94750000D02*
X134500000Y-94750000D01*
X132500000Y-93250000D02*
X132500000Y-94750000D01*
D24*
X132500000Y-91250000D02*
X132500000Y-90900000D01*
X132500000Y-90900000D02*
X133300000Y-90100000D01*
X133300000Y-90100000D02*
X132350000Y-90100000D01*
X132350000Y-90100000D02*
X132250000Y-90000000D01*
D22*
X122740000Y-88660000D02*
X122740000Y-87700000D01*
X122100000Y-89300000D02*
X122740000Y-88660000D01*
X117300000Y-89300000D02*
X122100000Y-89300000D01*
X112700000Y-84700000D02*
X117300000Y-89300000D01*
D25*
G36*
X126073000Y-90073000D02*
X122411693Y-90073000D01*
X122419541Y-90071439D01*
X122690434Y-89890434D01*
X123330434Y-89250434D01*
X123453679Y-89065985D01*
X123608371Y-89002068D01*
X124040551Y-88570643D01*
X124274733Y-88006670D01*
X124275265Y-87396009D01*
X124042068Y-86831629D01*
X123640818Y-86429677D01*
X124040551Y-86030643D01*
X124274733Y-85466670D01*
X124275265Y-84856009D01*
X124042068Y-84291629D01*
X123640818Y-83889677D01*
X124040551Y-83490643D01*
X124274733Y-82926670D01*
X124275265Y-82316009D01*
X124042068Y-81751629D01*
X123610643Y-81319449D01*
X123589806Y-81310797D01*
X123640554Y-81160159D01*
X122740000Y-80259605D01*
X121839446Y-81160159D01*
X121890035Y-81310327D01*
X121871629Y-81317932D01*
X121469677Y-81719182D01*
X121100818Y-81349677D01*
X121500551Y-80950643D01*
X121509203Y-80929806D01*
X121659841Y-80980554D01*
X122560395Y-80080000D01*
X122919605Y-80080000D01*
X123820159Y-80980554D01*
X124076643Y-80894148D01*
X124286458Y-80320664D01*
X124260839Y-79710540D01*
X124076643Y-79265852D01*
X123820159Y-79179446D01*
X122919605Y-80080000D01*
X122560395Y-80080000D01*
X121659841Y-79179446D01*
X121509673Y-79230035D01*
X121502068Y-79211629D01*
X121100818Y-78809677D01*
X121290667Y-78620159D01*
X121839446Y-78620159D01*
X121903401Y-78810000D01*
X121839446Y-78999841D01*
X122740000Y-79900395D01*
X123640554Y-78999841D01*
X123576599Y-78810000D01*
X123640554Y-78620159D01*
X122740000Y-77719605D01*
X121839446Y-78620159D01*
X121290667Y-78620159D01*
X121500551Y-78410643D01*
X121509203Y-78389806D01*
X121659841Y-78440554D01*
X122560395Y-77540000D01*
X122919605Y-77540000D01*
X123820159Y-78440554D01*
X124076643Y-78354148D01*
X124286458Y-77780664D01*
X124260839Y-77170540D01*
X124076643Y-76725852D01*
X123820159Y-76639446D01*
X122919605Y-77540000D01*
X122560395Y-77540000D01*
X121659841Y-76639446D01*
X121509673Y-76690035D01*
X121502068Y-76671629D01*
X121334120Y-76503387D01*
X121335317Y-76503162D01*
X121551441Y-76364090D01*
X121690598Y-76160426D01*
X121724890Y-76194718D01*
X121839447Y-76080161D01*
X121903401Y-76270000D01*
X121839446Y-76459841D01*
X122740000Y-77360395D01*
X123640554Y-76459841D01*
X123576599Y-76270000D01*
X123640554Y-76080159D01*
X122740000Y-75179605D01*
X122725858Y-75193748D01*
X122546253Y-75014143D01*
X122560395Y-75000000D01*
X122919605Y-75000000D01*
X123820159Y-75900554D01*
X124076643Y-75814148D01*
X124286458Y-75240664D01*
X124260839Y-74630540D01*
X124076643Y-74185852D01*
X123820159Y-74099446D01*
X122919605Y-75000000D01*
X122560395Y-75000000D01*
X122546253Y-74985858D01*
X122725858Y-74806253D01*
X122740000Y-74820395D01*
X123640554Y-73919841D01*
X123554148Y-73663357D01*
X122980664Y-73453542D01*
X122370540Y-73479161D01*
X121925852Y-73663357D01*
X121839447Y-73919839D01*
X121724890Y-73805282D01*
X121688412Y-73841760D01*
X121564090Y-73648559D01*
X121351890Y-73503569D01*
X121100000Y-73452560D01*
X119300000Y-73452560D01*
X119064683Y-73496838D01*
X118848559Y-73635910D01*
X118703569Y-73848110D01*
X118652560Y-74100000D01*
X118652560Y-75900000D01*
X118696838Y-76135317D01*
X118835910Y-76351441D01*
X119048110Y-76496431D01*
X119068534Y-76500567D01*
X118899449Y-76669357D01*
X118665267Y-77233330D01*
X118664735Y-77843991D01*
X118897932Y-78408371D01*
X119299182Y-78810323D01*
X118899449Y-79209357D01*
X118665267Y-79773330D01*
X118664735Y-80383991D01*
X118897932Y-80948371D01*
X119299182Y-81350323D01*
X118899449Y-81749357D01*
X118665267Y-82313330D01*
X118664735Y-82923991D01*
X118897932Y-83488371D01*
X119299182Y-83890323D01*
X118899449Y-84289357D01*
X118665267Y-84853330D01*
X118664735Y-85463991D01*
X118897932Y-86028371D01*
X119299182Y-86430323D01*
X118899449Y-86829357D01*
X118665267Y-87393330D01*
X118664735Y-88003991D01*
X118855220Y-88465000D01*
X117645868Y-88465000D01*
X113779589Y-84598721D01*
X113779687Y-84486216D01*
X113615689Y-84089311D01*
X113312286Y-83785378D01*
X112915668Y-83620687D01*
X112486216Y-83620313D01*
X112089311Y-83784311D01*
X111785378Y-84087714D01*
X111620687Y-84484332D01*
X111620313Y-84913784D01*
X111784311Y-85310689D01*
X112087714Y-85614622D01*
X112484332Y-85779313D01*
X112598544Y-85779412D01*
X116709566Y-89890434D01*
X116980459Y-90071439D01*
X116988307Y-90073000D01*
X111053868Y-90073000D01*
X110290434Y-89309566D01*
X110276117Y-89300000D01*
X110019541Y-89128561D01*
X109700000Y-89065000D01*
X105500000Y-89065000D01*
X105180460Y-89128560D01*
X104909566Y-89309566D01*
X104409566Y-89809566D01*
X104268169Y-90021182D01*
X104264683Y-90021838D01*
X104185175Y-90073000D01*
X103478132Y-90073000D01*
X99702566Y-86297434D01*
X99527000Y-86180124D01*
X99527000Y-84211142D01*
X99569071Y-84169071D01*
X99658048Y-84080095D01*
X99863983Y-83771893D01*
X99895833Y-83695000D01*
X99960293Y-83539382D01*
X100032607Y-83175833D01*
X100032607Y-83112305D01*
X100045000Y-83050000D01*
X100045000Y-73045000D01*
X126073000Y-73045000D01*
X126073000Y-90073000D01*
X126073000Y-90073000D01*
G37*
X126073000Y-90073000D02*
X122411693Y-90073000D01*
X122419541Y-90071439D01*
X122690434Y-89890434D01*
X123330434Y-89250434D01*
X123453679Y-89065985D01*
X123608371Y-89002068D01*
X124040551Y-88570643D01*
X124274733Y-88006670D01*
X124275265Y-87396009D01*
X124042068Y-86831629D01*
X123640818Y-86429677D01*
X124040551Y-86030643D01*
X124274733Y-85466670D01*
X124275265Y-84856009D01*
X124042068Y-84291629D01*
X123640818Y-83889677D01*
X124040551Y-83490643D01*
X124274733Y-82926670D01*
X124275265Y-82316009D01*
X124042068Y-81751629D01*
X123610643Y-81319449D01*
X123589806Y-81310797D01*
X123640554Y-81160159D01*
X122740000Y-80259605D01*
X121839446Y-81160159D01*
X121890035Y-81310327D01*
X121871629Y-81317932D01*
X121469677Y-81719182D01*
X121100818Y-81349677D01*
X121500551Y-80950643D01*
X121509203Y-80929806D01*
X121659841Y-80980554D01*
X122560395Y-80080000D01*
X122919605Y-80080000D01*
X123820159Y-80980554D01*
X124076643Y-80894148D01*
X124286458Y-80320664D01*
X124260839Y-79710540D01*
X124076643Y-79265852D01*
X123820159Y-79179446D01*
X122919605Y-80080000D01*
X122560395Y-80080000D01*
X121659841Y-79179446D01*
X121509673Y-79230035D01*
X121502068Y-79211629D01*
X121100818Y-78809677D01*
X121290667Y-78620159D01*
X121839446Y-78620159D01*
X121903401Y-78810000D01*
X121839446Y-78999841D01*
X122740000Y-79900395D01*
X123640554Y-78999841D01*
X123576599Y-78810000D01*
X123640554Y-78620159D01*
X122740000Y-77719605D01*
X121839446Y-78620159D01*
X121290667Y-78620159D01*
X121500551Y-78410643D01*
X121509203Y-78389806D01*
X121659841Y-78440554D01*
X122560395Y-77540000D01*
X122919605Y-77540000D01*
X123820159Y-78440554D01*
X124076643Y-78354148D01*
X124286458Y-77780664D01*
X124260839Y-77170540D01*
X124076643Y-76725852D01*
X123820159Y-76639446D01*
X122919605Y-77540000D01*
X122560395Y-77540000D01*
X121659841Y-76639446D01*
X121509673Y-76690035D01*
X121502068Y-76671629D01*
X121334120Y-76503387D01*
X121335317Y-76503162D01*
X121551441Y-76364090D01*
X121690598Y-76160426D01*
X121724890Y-76194718D01*
X121839447Y-76080161D01*
X121903401Y-76270000D01*
X121839446Y-76459841D01*
X122740000Y-77360395D01*
X123640554Y-76459841D01*
X123576599Y-76270000D01*
X123640554Y-76080159D01*
X122740000Y-75179605D01*
X122725858Y-75193748D01*
X122546253Y-75014143D01*
X122560395Y-75000000D01*
X122919605Y-75000000D01*
X123820159Y-75900554D01*
X124076643Y-75814148D01*
X124286458Y-75240664D01*
X124260839Y-74630540D01*
X124076643Y-74185852D01*
X123820159Y-74099446D01*
X122919605Y-75000000D01*
X122560395Y-75000000D01*
X122546253Y-74985858D01*
X122725858Y-74806253D01*
X122740000Y-74820395D01*
X123640554Y-73919841D01*
X123554148Y-73663357D01*
X122980664Y-73453542D01*
X122370540Y-73479161D01*
X121925852Y-73663357D01*
X121839447Y-73919839D01*
X121724890Y-73805282D01*
X121688412Y-73841760D01*
X121564090Y-73648559D01*
X121351890Y-73503569D01*
X121100000Y-73452560D01*
X119300000Y-73452560D01*
X119064683Y-73496838D01*
X118848559Y-73635910D01*
X118703569Y-73848110D01*
X118652560Y-74100000D01*
X118652560Y-75900000D01*
X118696838Y-76135317D01*
X118835910Y-76351441D01*
X119048110Y-76496431D01*
X119068534Y-76500567D01*
X118899449Y-76669357D01*
X118665267Y-77233330D01*
X118664735Y-77843991D01*
X118897932Y-78408371D01*
X119299182Y-78810323D01*
X118899449Y-79209357D01*
X118665267Y-79773330D01*
X118664735Y-80383991D01*
X118897932Y-80948371D01*
X119299182Y-81350323D01*
X118899449Y-81749357D01*
X118665267Y-82313330D01*
X118664735Y-82923991D01*
X118897932Y-83488371D01*
X119299182Y-83890323D01*
X118899449Y-84289357D01*
X118665267Y-84853330D01*
X118664735Y-85463991D01*
X118897932Y-86028371D01*
X119299182Y-86430323D01*
X118899449Y-86829357D01*
X118665267Y-87393330D01*
X118664735Y-88003991D01*
X118855220Y-88465000D01*
X117645868Y-88465000D01*
X113779589Y-84598721D01*
X113779687Y-84486216D01*
X113615689Y-84089311D01*
X113312286Y-83785378D01*
X112915668Y-83620687D01*
X112486216Y-83620313D01*
X112089311Y-83784311D01*
X111785378Y-84087714D01*
X111620687Y-84484332D01*
X111620313Y-84913784D01*
X111784311Y-85310689D01*
X112087714Y-85614622D01*
X112484332Y-85779313D01*
X112598544Y-85779412D01*
X116709566Y-89890434D01*
X116980459Y-90071439D01*
X116988307Y-90073000D01*
X111053868Y-90073000D01*
X110290434Y-89309566D01*
X110276117Y-89300000D01*
X110019541Y-89128561D01*
X109700000Y-89065000D01*
X105500000Y-89065000D01*
X105180460Y-89128560D01*
X104909566Y-89309566D01*
X104409566Y-89809566D01*
X104268169Y-90021182D01*
X104264683Y-90021838D01*
X104185175Y-90073000D01*
X103478132Y-90073000D01*
X99702566Y-86297434D01*
X99527000Y-86180124D01*
X99527000Y-84211142D01*
X99569071Y-84169071D01*
X99658048Y-84080095D01*
X99863983Y-83771893D01*
X99895833Y-83695000D01*
X99960293Y-83539382D01*
X100032607Y-83175833D01*
X100032607Y-83112305D01*
X100045000Y-83050000D01*
X100045000Y-73045000D01*
X126073000Y-73045000D01*
X126073000Y-90073000D01*
G36*
X133344628Y-73068156D02*
X132271923Y-74138991D01*
X131690663Y-75538819D01*
X131689340Y-77054531D01*
X132268156Y-78455372D01*
X133338991Y-79528077D01*
X134738819Y-80109337D01*
X135058000Y-80109616D01*
X135058000Y-80803250D01*
X135216750Y-80962000D01*
X138066000Y-80962000D01*
X138066000Y-80942000D01*
X138320000Y-80942000D01*
X138320000Y-80962000D01*
X138340000Y-80962000D01*
X138340000Y-81216000D01*
X138320000Y-81216000D01*
X138320000Y-81473359D01*
X138153542Y-81928336D01*
X138179161Y-82538460D01*
X138320000Y-82878475D01*
X138320000Y-83545250D01*
X138478750Y-83704000D01*
X138534041Y-83704000D01*
X138399449Y-83838357D01*
X138165267Y-84402330D01*
X138164735Y-85012991D01*
X138397932Y-85577371D01*
X138534322Y-85714000D01*
X138478750Y-85714000D01*
X138320000Y-85872750D01*
X138320000Y-86553359D01*
X138153542Y-87008336D01*
X138179161Y-87618460D01*
X138320000Y-87958475D01*
X138320000Y-88202000D01*
X138340000Y-88202000D01*
X138340000Y-88456000D01*
X138320000Y-88456000D01*
X138320000Y-89093359D01*
X138153542Y-89548336D01*
X138179161Y-90158460D01*
X138320000Y-90498475D01*
X138320000Y-90785250D01*
X138478750Y-90944000D01*
X138645172Y-90944000D01*
X138684890Y-90983718D01*
X138724608Y-90944000D01*
X138824659Y-90944000D01*
X138863401Y-91059000D01*
X138824659Y-91174000D01*
X138724608Y-91174000D01*
X138684890Y-91134282D01*
X138645172Y-91174000D01*
X138478750Y-91174000D01*
X138320000Y-91332750D01*
X138320000Y-91633359D01*
X138153542Y-92088336D01*
X138179161Y-92698460D01*
X138320000Y-93038475D01*
X138320000Y-93662000D01*
X138340000Y-93662000D01*
X138340000Y-93916000D01*
X138320000Y-93916000D01*
X138320000Y-94173359D01*
X138153542Y-94628336D01*
X138179161Y-95238460D01*
X138320000Y-95578475D01*
X138320000Y-96245250D01*
X138478750Y-96404000D01*
X138534041Y-96404000D01*
X138399449Y-96538357D01*
X138165267Y-97102330D01*
X138164735Y-97712991D01*
X138397932Y-98277371D01*
X138534322Y-98414000D01*
X138478750Y-98414000D01*
X138320000Y-98572750D01*
X138320000Y-99253359D01*
X138153542Y-99708336D01*
X138179161Y-100318460D01*
X138320000Y-100658475D01*
X138320000Y-100902000D01*
X138340000Y-100902000D01*
X138340000Y-101156000D01*
X138320000Y-101156000D01*
X138320000Y-101793359D01*
X138153542Y-102248336D01*
X138179161Y-102858460D01*
X138320000Y-103198475D01*
X138320000Y-103485250D01*
X138478750Y-103644000D01*
X138645172Y-103644000D01*
X138684890Y-103683718D01*
X138724608Y-103644000D01*
X138824659Y-103644000D01*
X138863401Y-103759000D01*
X138824659Y-103874000D01*
X138724608Y-103874000D01*
X138684890Y-103834282D01*
X138645172Y-103874000D01*
X138478750Y-103874000D01*
X138320000Y-104032750D01*
X138320000Y-104333359D01*
X138153542Y-104788336D01*
X138179161Y-105398460D01*
X138320000Y-105738475D01*
X138320000Y-106362000D01*
X138340000Y-106362000D01*
X138340000Y-106616000D01*
X138320000Y-106616000D01*
X138320000Y-106873359D01*
X138153542Y-107328336D01*
X138179161Y-107938460D01*
X138320000Y-108278475D01*
X138320000Y-108945250D01*
X138478750Y-109104000D01*
X138534041Y-109104000D01*
X138399449Y-109238357D01*
X138165267Y-109802330D01*
X138164735Y-110412991D01*
X138397932Y-110977371D01*
X138534322Y-111114000D01*
X138478750Y-111114000D01*
X138320000Y-111272750D01*
X138320000Y-111953359D01*
X138153542Y-112408336D01*
X138179161Y-113018460D01*
X138320000Y-113358475D01*
X138320000Y-113602000D01*
X138340000Y-113602000D01*
X138340000Y-113856000D01*
X138320000Y-113856000D01*
X138320000Y-113876000D01*
X138066000Y-113876000D01*
X138066000Y-113856000D01*
X135216750Y-113856000D01*
X135058000Y-114014750D01*
X135058000Y-114589613D01*
X134745469Y-114589340D01*
X133344628Y-115168156D01*
X132271923Y-116238991D01*
X131690663Y-117638819D01*
X131689340Y-119154531D01*
X132268156Y-120555372D01*
X133338991Y-121628077D01*
X133403829Y-121655000D01*
X100045000Y-121655000D01*
X100045000Y-119734350D01*
X111077255Y-119734350D01*
X111169792Y-119996019D01*
X111761398Y-120214188D01*
X112391461Y-120189352D01*
X112858208Y-119996019D01*
X112950745Y-119734350D01*
X113617255Y-119734350D01*
X113709792Y-119996019D01*
X114301398Y-120214188D01*
X114931461Y-120189352D01*
X115398208Y-119996019D01*
X115490745Y-119734350D01*
X116157255Y-119734350D01*
X116249792Y-119996019D01*
X116841398Y-120214188D01*
X117471461Y-120189352D01*
X117938208Y-119996019D01*
X118030745Y-119734350D01*
X118697255Y-119734350D01*
X118789792Y-119996019D01*
X119381398Y-120214188D01*
X120011461Y-120189352D01*
X120478208Y-119996019D01*
X120570745Y-119734350D01*
X119634000Y-118797605D01*
X118697255Y-119734350D01*
X118030745Y-119734350D01*
X117094000Y-118797605D01*
X116157255Y-119734350D01*
X115490745Y-119734350D01*
X114554000Y-118797605D01*
X113617255Y-119734350D01*
X112950745Y-119734350D01*
X112014000Y-118797605D01*
X111077255Y-119734350D01*
X100045000Y-119734350D01*
X100045000Y-118365398D01*
X110417812Y-118365398D01*
X110442648Y-118995461D01*
X110635981Y-119462208D01*
X110897650Y-119554745D01*
X111834395Y-118618000D01*
X112193605Y-118618000D01*
X113130350Y-119554745D01*
X113284000Y-119500408D01*
X113437650Y-119554745D01*
X114374395Y-118618000D01*
X114733605Y-118618000D01*
X115670350Y-119554745D01*
X115824000Y-119500408D01*
X115977650Y-119554745D01*
X116914395Y-118618000D01*
X117273605Y-118618000D01*
X118210350Y-119554745D01*
X118364000Y-119500408D01*
X118517650Y-119554745D01*
X119454395Y-118618000D01*
X119813605Y-118618000D01*
X120750350Y-119554745D01*
X121012019Y-119462208D01*
X121230188Y-118870602D01*
X121205352Y-118240539D01*
X121012019Y-117773792D01*
X120750350Y-117681255D01*
X119813605Y-118618000D01*
X119454395Y-118618000D01*
X118517650Y-117681255D01*
X118364000Y-117735592D01*
X118210350Y-117681255D01*
X117273605Y-118618000D01*
X116914395Y-118618000D01*
X115977650Y-117681255D01*
X115824000Y-117735592D01*
X115670350Y-117681255D01*
X114733605Y-118618000D01*
X114374395Y-118618000D01*
X113437650Y-117681255D01*
X113284000Y-117735592D01*
X113130350Y-117681255D01*
X112193605Y-118618000D01*
X111834395Y-118618000D01*
X110897650Y-117681255D01*
X110635981Y-117773792D01*
X110417812Y-118365398D01*
X100045000Y-118365398D01*
X100045000Y-107333697D01*
X101270708Y-107333697D01*
X101526694Y-107953229D01*
X102000278Y-108427640D01*
X102121453Y-108477956D01*
X102087629Y-108491932D01*
X101655449Y-108923357D01*
X101421267Y-109487330D01*
X101420735Y-110097991D01*
X101653932Y-110662371D01*
X102085357Y-111094551D01*
X102649330Y-111328733D01*
X103259991Y-111329265D01*
X103824371Y-111096068D01*
X104046668Y-110874159D01*
X107643446Y-110874159D01*
X107729852Y-111130643D01*
X108303336Y-111340458D01*
X108913460Y-111314839D01*
X109358148Y-111130643D01*
X109444554Y-110874159D01*
X108544000Y-109973605D01*
X107643446Y-110874159D01*
X104046668Y-110874159D01*
X104256551Y-110664643D01*
X104490733Y-110100670D01*
X104491209Y-109553336D01*
X106997542Y-109553336D01*
X107023161Y-110163460D01*
X107207357Y-110608148D01*
X107463841Y-110694554D01*
X108364395Y-109794000D01*
X108723605Y-109794000D01*
X109624159Y-110694554D01*
X109880643Y-110608148D01*
X110090458Y-110034664D01*
X110064839Y-109424540D01*
X109880643Y-108979852D01*
X109624159Y-108893446D01*
X108723605Y-109794000D01*
X108364395Y-109794000D01*
X107463841Y-108893446D01*
X107207357Y-108979852D01*
X106997542Y-109553336D01*
X104491209Y-109553336D01*
X104491265Y-109490009D01*
X104258068Y-108925629D01*
X104046650Y-108713841D01*
X107643446Y-108713841D01*
X108544000Y-109614395D01*
X109444554Y-108713841D01*
X109358148Y-108457357D01*
X108784664Y-108247542D01*
X108174540Y-108273161D01*
X107729852Y-108457357D01*
X107643446Y-108713841D01*
X104046650Y-108713841D01*
X103826643Y-108493449D01*
X103790407Y-108478402D01*
X103909229Y-108429306D01*
X103966194Y-108372440D01*
X104900000Y-108372440D01*
X105135317Y-108328162D01*
X105351441Y-108189090D01*
X105397969Y-108120994D01*
X105540302Y-108263327D01*
X105773691Y-108360000D01*
X106114250Y-108360000D01*
X106273000Y-108201250D01*
X106273000Y-107227000D01*
X106527000Y-107227000D01*
X106527000Y-108201250D01*
X106685750Y-108360000D01*
X107026309Y-108360000D01*
X107259698Y-108263327D01*
X107438327Y-108084699D01*
X107535000Y-107851310D01*
X107535000Y-107385750D01*
X107376250Y-107227000D01*
X106527000Y-107227000D01*
X106273000Y-107227000D01*
X106253000Y-107227000D01*
X106253000Y-106973000D01*
X106273000Y-106973000D01*
X106273000Y-105998750D01*
X106527000Y-105998750D01*
X106527000Y-106973000D01*
X107376250Y-106973000D01*
X107535000Y-106814250D01*
X107535000Y-106348690D01*
X107438327Y-106115301D01*
X107259698Y-105936673D01*
X107026309Y-105840000D01*
X106685750Y-105840000D01*
X106527000Y-105998750D01*
X106273000Y-105998750D01*
X106114250Y-105840000D01*
X105773691Y-105840000D01*
X105540302Y-105936673D01*
X105399064Y-106077910D01*
X105364090Y-106023559D01*
X105151890Y-105878569D01*
X104900000Y-105827560D01*
X104166477Y-105827560D01*
X103911722Y-105572360D01*
X103790547Y-105522044D01*
X103824371Y-105508068D01*
X104256551Y-105076643D01*
X104490733Y-104512670D01*
X104490735Y-104509991D01*
X107008735Y-104509991D01*
X107241932Y-105074371D01*
X107673357Y-105506551D01*
X108237330Y-105740733D01*
X108847991Y-105741265D01*
X109412371Y-105508068D01*
X109844551Y-105076643D01*
X110078733Y-104512670D01*
X110079265Y-103902009D01*
X109846068Y-103337629D01*
X109414643Y-102905449D01*
X108850670Y-102671267D01*
X108240009Y-102670735D01*
X107675629Y-102903932D01*
X107243449Y-103335357D01*
X107009267Y-103899330D01*
X107008735Y-104509991D01*
X104490735Y-104509991D01*
X104491265Y-103902009D01*
X104258068Y-103337629D01*
X103826643Y-102905449D01*
X103262670Y-102671267D01*
X102652009Y-102670735D01*
X102087629Y-102903932D01*
X101655449Y-103335357D01*
X101421267Y-103899330D01*
X101420735Y-104509991D01*
X101653932Y-105074371D01*
X102085357Y-105506551D01*
X102121593Y-105521598D01*
X102002771Y-105570694D01*
X101528360Y-106044278D01*
X101271293Y-106663362D01*
X101270708Y-107333697D01*
X100045000Y-107333697D01*
X100045000Y-105100000D01*
X100032607Y-105037696D01*
X100032607Y-105024167D01*
X99960293Y-104660618D01*
X99863984Y-104428109D01*
X99863983Y-104428108D01*
X99863983Y-104428107D01*
X99658048Y-104119905D01*
X99569071Y-104030929D01*
X99480095Y-103941952D01*
X99171893Y-103736017D01*
X99171891Y-103736016D01*
X98939381Y-103639707D01*
X98575833Y-103567393D01*
X98512305Y-103567393D01*
X98450000Y-103555000D01*
X97427000Y-103555000D01*
X97427000Y-93695000D01*
X98450000Y-93695000D01*
X98512305Y-93682607D01*
X98575833Y-93682607D01*
X98939381Y-93610293D01*
X99171891Y-93513984D01*
X99171893Y-93513983D01*
X99480095Y-93308048D01*
X99569071Y-93219071D01*
X99658048Y-93130095D01*
X99863983Y-92821893D01*
X99905106Y-92722614D01*
X99960293Y-92589382D01*
X100030632Y-92235764D01*
X101597434Y-93802567D01*
X101965655Y-94048604D01*
X102400000Y-94135000D01*
X103633448Y-94135000D01*
X103587629Y-94153932D01*
X103155449Y-94585357D01*
X102921267Y-95149330D01*
X102920735Y-95759991D01*
X103153932Y-96324371D01*
X103585357Y-96756551D01*
X103621593Y-96771598D01*
X103502771Y-96820694D01*
X103028360Y-97294278D01*
X102771293Y-97913362D01*
X102770708Y-98583697D01*
X103026694Y-99203229D01*
X103500278Y-99677640D01*
X103621453Y-99727956D01*
X103587629Y-99741932D01*
X103155449Y-100173357D01*
X102921267Y-100737330D01*
X102920735Y-101347991D01*
X103153932Y-101912371D01*
X103585357Y-102344551D01*
X104149330Y-102578733D01*
X104759991Y-102579265D01*
X105324371Y-102346068D01*
X105756551Y-101914643D01*
X105990733Y-101350670D01*
X105991265Y-100740009D01*
X105758068Y-100175629D01*
X105326643Y-99743449D01*
X105290407Y-99728402D01*
X105409229Y-99679306D01*
X105852560Y-99236748D01*
X105852560Y-99625000D01*
X105896838Y-99860317D01*
X106035910Y-100076441D01*
X106248110Y-100221431D01*
X106500000Y-100272440D01*
X107500000Y-100272440D01*
X107735317Y-100228162D01*
X107951441Y-100089090D01*
X107997969Y-100020994D01*
X108140302Y-100163327D01*
X108373691Y-100260000D01*
X108696327Y-100260000D01*
X108497542Y-100803336D01*
X108523161Y-101413460D01*
X108707357Y-101858148D01*
X108963841Y-101944554D01*
X109864395Y-101044000D01*
X109080395Y-100260000D01*
X109127002Y-100260000D01*
X109127002Y-100101252D01*
X109285750Y-100260000D01*
X109439605Y-100260000D01*
X110044000Y-100864395D01*
X110944554Y-99963841D01*
X110858148Y-99707357D01*
X110284664Y-99497542D01*
X110135000Y-99503826D01*
X110135000Y-99285750D01*
X109976250Y-99127000D01*
X109127000Y-99127000D01*
X109127000Y-99147000D01*
X108873000Y-99147000D01*
X108873000Y-99127000D01*
X108853000Y-99127000D01*
X108853000Y-98873000D01*
X108873000Y-98873000D01*
X108873000Y-97898750D01*
X109127000Y-97898750D01*
X109127000Y-98873000D01*
X109976250Y-98873000D01*
X110135000Y-98714250D01*
X110135000Y-98248690D01*
X110038327Y-98015301D01*
X109859698Y-97836673D01*
X109626309Y-97740000D01*
X109285750Y-97740000D01*
X109127000Y-97898750D01*
X108873000Y-97898750D01*
X108714250Y-97740000D01*
X108373691Y-97740000D01*
X108140302Y-97836673D01*
X107999064Y-97977910D01*
X107964090Y-97923559D01*
X107860700Y-97852916D01*
X108076441Y-97714090D01*
X108221431Y-97501890D01*
X108272440Y-97250000D01*
X108272440Y-96250000D01*
X108228162Y-96014683D01*
X108089090Y-95798559D01*
X108032644Y-95759991D01*
X108508735Y-95759991D01*
X108741932Y-96324371D01*
X109173357Y-96756551D01*
X109737330Y-96990733D01*
X110347991Y-96991265D01*
X110912371Y-96758068D01*
X111344551Y-96326643D01*
X111578733Y-95762670D01*
X111579265Y-95152009D01*
X111346068Y-94587629D01*
X110914643Y-94155449D01*
X110350670Y-93921267D01*
X109740009Y-93920735D01*
X109175629Y-94153932D01*
X108743449Y-94585357D01*
X108509267Y-95149330D01*
X108508735Y-95759991D01*
X108032644Y-95759991D01*
X108019289Y-95750866D01*
X108076441Y-95714090D01*
X108221431Y-95501890D01*
X108272440Y-95250000D01*
X108272440Y-94250000D01*
X108228162Y-94014683D01*
X108106739Y-93825987D01*
X108147440Y-93625000D01*
X108147440Y-92375000D01*
X108103162Y-92139683D01*
X108095658Y-92128021D01*
X108096431Y-92126890D01*
X108147440Y-91875000D01*
X108147440Y-90927000D01*
X109546132Y-90927000D01*
X113420411Y-94801279D01*
X113420313Y-94913784D01*
X113584311Y-95310689D01*
X113665000Y-95391519D01*
X113665000Y-95920556D01*
X113386216Y-95920313D01*
X112989311Y-96084311D01*
X112685378Y-96387714D01*
X112520687Y-96784332D01*
X112520313Y-97213784D01*
X112684311Y-97610689D01*
X112840000Y-97766650D01*
X112840000Y-100022047D01*
X112689311Y-100084311D01*
X112385378Y-100387714D01*
X112220687Y-100784332D01*
X112220495Y-101004703D01*
X111388485Y-101836713D01*
X111590458Y-101284664D01*
X111564839Y-100674540D01*
X111380643Y-100229852D01*
X111124159Y-100143446D01*
X110223605Y-101044000D01*
X110237748Y-101058143D01*
X110058143Y-101237748D01*
X110044000Y-101223605D01*
X109143446Y-102124159D01*
X109229852Y-102380643D01*
X109803336Y-102590458D01*
X110413460Y-102564839D01*
X110858148Y-102380643D01*
X110944553Y-102124161D01*
X111059110Y-102238718D01*
X111116347Y-102181481D01*
X111097852Y-102209161D01*
X111040000Y-102500000D01*
X111040000Y-110185198D01*
X109862599Y-111362599D01*
X109697852Y-111609161D01*
X109640000Y-111900000D01*
X109640000Y-114464000D01*
X109697852Y-114754839D01*
X109862599Y-115001401D01*
X110485980Y-115624782D01*
X110429276Y-115761341D01*
X110428725Y-116391893D01*
X110669519Y-116974657D01*
X111108211Y-117414116D01*
X111077255Y-117501650D01*
X112014000Y-118438395D01*
X112950745Y-117501650D01*
X112919593Y-117413561D01*
X113284261Y-117049529D01*
X113648211Y-117414116D01*
X113617255Y-117501650D01*
X114554000Y-118438395D01*
X115490745Y-117501650D01*
X115459593Y-117413561D01*
X115824261Y-117049529D01*
X116188211Y-117414116D01*
X116157255Y-117501650D01*
X117094000Y-118438395D01*
X118030745Y-117501650D01*
X117999593Y-117413561D01*
X118364261Y-117049529D01*
X118728211Y-117414116D01*
X118697255Y-117501650D01*
X119634000Y-118438395D01*
X120570745Y-117501650D01*
X120539593Y-117413561D01*
X120976914Y-116977003D01*
X121218724Y-116394659D01*
X121219275Y-115764107D01*
X121161798Y-115625004D01*
X121837401Y-114949401D01*
X122002148Y-114702839D01*
X122060000Y-114412000D01*
X122060000Y-112100000D01*
X122002148Y-111809161D01*
X121877553Y-111622690D01*
X135058000Y-111622690D01*
X135058000Y-113443250D01*
X135216750Y-113602000D01*
X138066000Y-113602000D01*
X138066000Y-111272750D01*
X137907250Y-111114000D01*
X135566691Y-111114000D01*
X135333302Y-111210673D01*
X135154673Y-111389301D01*
X135058000Y-111622690D01*
X121877553Y-111622690D01*
X121837401Y-111562599D01*
X121337401Y-111062599D01*
X121090839Y-110897852D01*
X120800000Y-110840000D01*
X120414802Y-110840000D01*
X119912026Y-110337224D01*
X119973000Y-110276250D01*
X119973000Y-109427000D01*
X119953000Y-109427000D01*
X119953000Y-109173000D01*
X119973000Y-109173000D01*
X119973000Y-109153000D01*
X120227000Y-109153000D01*
X120227000Y-109173000D01*
X120247000Y-109173000D01*
X120247000Y-109427000D01*
X120227000Y-109427000D01*
X120227000Y-110276250D01*
X120385750Y-110435000D01*
X120851310Y-110435000D01*
X120965000Y-110387908D01*
X120965000Y-110551310D01*
X121061673Y-110784699D01*
X121240302Y-110963327D01*
X121473691Y-111060000D01*
X121814250Y-111060000D01*
X121973000Y-110901250D01*
X121973000Y-109927000D01*
X121953000Y-109927000D01*
X121953000Y-109673000D01*
X121973000Y-109673000D01*
X121973000Y-108698750D01*
X121814250Y-108540000D01*
X121473691Y-108540000D01*
X121329383Y-108599775D01*
X121263327Y-108440302D01*
X121145466Y-108322440D01*
X122100000Y-108322440D01*
X122335317Y-108278162D01*
X122465048Y-108194682D01*
X122464747Y-108540000D01*
X122385750Y-108540000D01*
X122227000Y-108698750D01*
X122227000Y-109673000D01*
X122247000Y-109673000D01*
X122247000Y-109927000D01*
X122227000Y-109927000D01*
X122227000Y-110901250D01*
X122385750Y-111060000D01*
X122726309Y-111060000D01*
X122959698Y-110963327D01*
X123100936Y-110822090D01*
X123135910Y-110876441D01*
X123348110Y-111021431D01*
X123600000Y-111072440D01*
X124600000Y-111072440D01*
X124835317Y-111028162D01*
X125051441Y-110889090D01*
X125196431Y-110676890D01*
X125247440Y-110425000D01*
X125247440Y-109175000D01*
X125247228Y-109173873D01*
X125300551Y-109120643D01*
X125534733Y-108556670D01*
X125535174Y-108050000D01*
X125827560Y-108050000D01*
X125827560Y-109050000D01*
X125871838Y-109285317D01*
X126010910Y-109501441D01*
X126223110Y-109646431D01*
X126371310Y-109676442D01*
X126564939Y-109870071D01*
X126564735Y-110103991D01*
X126797932Y-110668371D01*
X127229357Y-111100551D01*
X127793330Y-111334733D01*
X128403991Y-111335265D01*
X128968371Y-111102068D01*
X129400551Y-110670643D01*
X129493233Y-110447440D01*
X130225000Y-110447440D01*
X130460317Y-110403162D01*
X130676441Y-110264090D01*
X130821431Y-110051890D01*
X130872440Y-109800000D01*
X130872440Y-108800000D01*
X130828162Y-108564683D01*
X130689090Y-108348559D01*
X130619289Y-108300866D01*
X130655561Y-108277526D01*
X130793330Y-108334733D01*
X131403991Y-108335265D01*
X131968371Y-108102068D01*
X132400551Y-107670643D01*
X132634733Y-107106670D01*
X132635022Y-106774750D01*
X135058000Y-106774750D01*
X135058000Y-108595310D01*
X135154673Y-108828699D01*
X135333302Y-109007327D01*
X135566691Y-109104000D01*
X137907250Y-109104000D01*
X138066000Y-108945250D01*
X138066000Y-106616000D01*
X135216750Y-106616000D01*
X135058000Y-106774750D01*
X132635022Y-106774750D01*
X132635265Y-106496009D01*
X132402068Y-105931629D01*
X131970643Y-105499449D01*
X131406670Y-105265267D01*
X130796009Y-105264735D01*
X130231629Y-105497932D01*
X130055377Y-105673876D01*
X129665654Y-105751397D01*
X129322837Y-105980460D01*
X129297434Y-105997434D01*
X129142308Y-106152560D01*
X128975000Y-106152560D01*
X128739683Y-106196838D01*
X128523559Y-106335910D01*
X128378569Y-106548110D01*
X128327560Y-106800000D01*
X128327560Y-106803310D01*
X128201250Y-106677000D01*
X127227000Y-106677000D01*
X127227000Y-106697000D01*
X126973000Y-106697000D01*
X126973000Y-106677000D01*
X125998750Y-106677000D01*
X125840000Y-106835750D01*
X125840000Y-107176309D01*
X125936673Y-107409698D01*
X126077910Y-107550936D01*
X126023559Y-107585910D01*
X125878569Y-107798110D01*
X125827560Y-108050000D01*
X125535174Y-108050000D01*
X125535265Y-107946009D01*
X125302068Y-107381629D01*
X125176485Y-107255826D01*
X125148603Y-107115654D01*
X124902566Y-106747434D01*
X124747440Y-106592308D01*
X124747440Y-106425000D01*
X124703162Y-106189683D01*
X124564090Y-105973559D01*
X124491106Y-105923691D01*
X125840000Y-105923691D01*
X125840000Y-106264250D01*
X125998750Y-106423000D01*
X126973000Y-106423000D01*
X126973000Y-105573750D01*
X127227000Y-105573750D01*
X127227000Y-106423000D01*
X128201250Y-106423000D01*
X128360000Y-106264250D01*
X128360000Y-105923691D01*
X128263327Y-105690302D01*
X128084699Y-105511673D01*
X127851310Y-105415000D01*
X127385750Y-105415000D01*
X127227000Y-105573750D01*
X126973000Y-105573750D01*
X126814250Y-105415000D01*
X126348690Y-105415000D01*
X126115301Y-105511673D01*
X125936673Y-105690302D01*
X125840000Y-105923691D01*
X124491106Y-105923691D01*
X124351890Y-105828569D01*
X124100000Y-105777560D01*
X123100000Y-105777560D01*
X122864683Y-105821838D01*
X122648559Y-105960910D01*
X122600866Y-106030711D01*
X122564090Y-105973559D01*
X122406373Y-105865796D01*
X122534733Y-105556670D01*
X122535265Y-104946009D01*
X122302507Y-104382690D01*
X135058000Y-104382690D01*
X135058000Y-106203250D01*
X135216750Y-106362000D01*
X138066000Y-106362000D01*
X138066000Y-104032750D01*
X137907250Y-103874000D01*
X135566691Y-103874000D01*
X135333302Y-103970673D01*
X135154673Y-104149301D01*
X135058000Y-104382690D01*
X122302507Y-104382690D01*
X122302068Y-104381629D01*
X121870643Y-103949449D01*
X121306670Y-103715267D01*
X120696009Y-103714735D01*
X120131629Y-103947932D01*
X119699449Y-104379357D01*
X119465267Y-104943330D01*
X119464735Y-105553991D01*
X119691665Y-106103203D01*
X119642308Y-106152560D01*
X119475000Y-106152560D01*
X119460000Y-106155382D01*
X119460000Y-104200000D01*
X119402148Y-103909161D01*
X119402148Y-103909160D01*
X119237401Y-103662599D01*
X119060000Y-103485198D01*
X119060000Y-102000000D01*
X119002148Y-101709161D01*
X118837401Y-101462599D01*
X118689552Y-101314750D01*
X135058000Y-101314750D01*
X135058000Y-103135310D01*
X135154673Y-103368699D01*
X135333302Y-103547327D01*
X135566691Y-103644000D01*
X137907250Y-103644000D01*
X138066000Y-103485250D01*
X138066000Y-101156000D01*
X135216750Y-101156000D01*
X135058000Y-101314750D01*
X118689552Y-101314750D01*
X118000756Y-100625954D01*
X118114622Y-100512286D01*
X118279313Y-100115668D01*
X118279687Y-99686216D01*
X118115689Y-99289311D01*
X117862571Y-99035750D01*
X133240000Y-99035750D01*
X133240000Y-99376309D01*
X133336673Y-99609698D01*
X133515301Y-99788327D01*
X133748690Y-99885000D01*
X134214250Y-99885000D01*
X134373000Y-99726250D01*
X134373000Y-98877000D01*
X133398750Y-98877000D01*
X133240000Y-99035750D01*
X117862571Y-99035750D01*
X117812286Y-98985378D01*
X117415668Y-98820687D01*
X116986216Y-98820313D01*
X116936916Y-98840683D01*
X116915689Y-98789311D01*
X116835000Y-98708481D01*
X116835000Y-98100000D01*
X116822220Y-98035750D01*
X123115000Y-98035750D01*
X123115000Y-98501310D01*
X123211673Y-98734699D01*
X123390302Y-98913327D01*
X123623691Y-99010000D01*
X123964250Y-99010000D01*
X124123000Y-98851250D01*
X124123000Y-97877000D01*
X123273750Y-97877000D01*
X123115000Y-98035750D01*
X116822220Y-98035750D01*
X116771439Y-97780459D01*
X116590434Y-97509566D01*
X116562367Y-97481499D01*
X116708268Y-97421214D01*
X116777910Y-97529441D01*
X116990110Y-97674431D01*
X117242000Y-97725440D01*
X118242000Y-97725440D01*
X118477317Y-97681162D01*
X118693441Y-97542090D01*
X118739969Y-97473994D01*
X118882302Y-97616327D01*
X119115691Y-97713000D01*
X119456250Y-97713000D01*
X119615000Y-97554250D01*
X119615000Y-96580000D01*
X119869000Y-96580000D01*
X119869000Y-97554250D01*
X120027750Y-97713000D01*
X120368309Y-97713000D01*
X120601698Y-97616327D01*
X120780327Y-97437699D01*
X120877000Y-97204310D01*
X120877000Y-96738750D01*
X120718250Y-96580000D01*
X119869000Y-96580000D01*
X119615000Y-96580000D01*
X119595000Y-96580000D01*
X119595000Y-96326000D01*
X119615000Y-96326000D01*
X119615000Y-95351750D01*
X119869000Y-95351750D01*
X119869000Y-96326000D01*
X120718250Y-96326000D01*
X120805500Y-96238750D01*
X123107000Y-96238750D01*
X123107000Y-96704310D01*
X123171968Y-96861157D01*
X123115000Y-96998690D01*
X123115000Y-97464250D01*
X123273750Y-97623000D01*
X124123000Y-97623000D01*
X124123000Y-96648750D01*
X124115000Y-96640750D01*
X124115000Y-96080000D01*
X123265750Y-96080000D01*
X123107000Y-96238750D01*
X120805500Y-96238750D01*
X120877000Y-96167250D01*
X120877000Y-95701690D01*
X120780327Y-95468301D01*
X120601698Y-95289673D01*
X120368309Y-95193000D01*
X120027750Y-95193000D01*
X119869000Y-95351750D01*
X119615000Y-95351750D01*
X119456250Y-95193000D01*
X119115691Y-95193000D01*
X119022440Y-95231626D01*
X119022440Y-94988750D01*
X120732000Y-94988750D01*
X120732000Y-95329309D01*
X120828673Y-95562698D01*
X121007301Y-95741327D01*
X121240690Y-95838000D01*
X121706250Y-95838000D01*
X121865000Y-95679250D01*
X121865000Y-94830000D01*
X122119000Y-94830000D01*
X122119000Y-95679250D01*
X122277750Y-95838000D01*
X122743310Y-95838000D01*
X122976699Y-95741327D01*
X123107000Y-95611025D01*
X123107000Y-95667250D01*
X123265750Y-95826000D01*
X124115000Y-95826000D01*
X124115000Y-94851750D01*
X124369000Y-94851750D01*
X124369000Y-95826000D01*
X124389000Y-95826000D01*
X124389000Y-96080000D01*
X124369000Y-96080000D01*
X124369000Y-97054250D01*
X124377000Y-97062250D01*
X124377000Y-97623000D01*
X124397000Y-97623000D01*
X124397000Y-97877000D01*
X124377000Y-97877000D01*
X124377000Y-98851250D01*
X124535750Y-99010000D01*
X124876309Y-99010000D01*
X125109698Y-98913327D01*
X125250936Y-98772090D01*
X125285910Y-98826441D01*
X125498110Y-98971431D01*
X125750000Y-99022440D01*
X126750000Y-99022440D01*
X126985317Y-98978162D01*
X127201441Y-98839090D01*
X127280218Y-98723795D01*
X127534332Y-98829313D01*
X127963784Y-98829687D01*
X128360689Y-98665689D01*
X128664622Y-98362286D01*
X128805739Y-98022440D01*
X129250000Y-98022440D01*
X129485317Y-97978162D01*
X129701441Y-97839090D01*
X129749134Y-97769289D01*
X129785910Y-97826441D01*
X129998110Y-97971431D01*
X130250000Y-98022440D01*
X131250000Y-98022440D01*
X131485317Y-97978162D01*
X131674013Y-97856739D01*
X131875000Y-97897440D01*
X133125000Y-97897440D01*
X133360317Y-97853162D01*
X133398171Y-97828804D01*
X133336673Y-97890302D01*
X133240000Y-98123691D01*
X133240000Y-98464250D01*
X133398750Y-98623000D01*
X134373000Y-98623000D01*
X134373000Y-98603000D01*
X134627000Y-98603000D01*
X134627000Y-98623000D01*
X134647000Y-98623000D01*
X134647000Y-98877000D01*
X134627000Y-98877000D01*
X134627000Y-99726250D01*
X134785750Y-99885000D01*
X135058000Y-99885000D01*
X135058000Y-100743250D01*
X135216750Y-100902000D01*
X138066000Y-100902000D01*
X138066000Y-98572750D01*
X137907250Y-98414000D01*
X135760000Y-98414000D01*
X135760000Y-98123691D01*
X135663327Y-97890302D01*
X135522090Y-97749064D01*
X135576441Y-97714090D01*
X135721431Y-97501890D01*
X135772440Y-97250000D01*
X135772440Y-96404000D01*
X137907250Y-96404000D01*
X138066000Y-96245250D01*
X138066000Y-93916000D01*
X138046000Y-93916000D01*
X138046000Y-93662000D01*
X138066000Y-93662000D01*
X138066000Y-91332750D01*
X137907250Y-91174000D01*
X135566691Y-91174000D01*
X135333302Y-91270673D01*
X135154673Y-91449301D01*
X135086038Y-91615000D01*
X134785750Y-91615000D01*
X134627000Y-91773750D01*
X134627000Y-92623000D01*
X134647000Y-92623000D01*
X134647000Y-92877000D01*
X134627000Y-92877000D01*
X134627000Y-92897000D01*
X134373000Y-92897000D01*
X134373000Y-92877000D01*
X134353000Y-92877000D01*
X134353000Y-92623000D01*
X134373000Y-92623000D01*
X134373000Y-91773750D01*
X134214250Y-91615000D01*
X133772440Y-91615000D01*
X133772440Y-91565663D01*
X134168371Y-91402068D01*
X134600551Y-90970643D01*
X134834733Y-90406670D01*
X134835265Y-89796009D01*
X134602068Y-89231629D01*
X134170643Y-88799449D01*
X133725839Y-88614750D01*
X135058000Y-88614750D01*
X135058000Y-90435310D01*
X135154673Y-90668699D01*
X135333302Y-90847327D01*
X135566691Y-90944000D01*
X137907250Y-90944000D01*
X138066000Y-90785250D01*
X138066000Y-88456000D01*
X135216750Y-88456000D01*
X135058000Y-88614750D01*
X133725839Y-88614750D01*
X133606670Y-88565267D01*
X132996009Y-88564735D01*
X132601942Y-88727560D01*
X131750000Y-88727560D01*
X131514683Y-88771838D01*
X131298559Y-88910910D01*
X131252031Y-88979006D01*
X131109698Y-88836673D01*
X130876309Y-88740000D01*
X130535750Y-88740000D01*
X130377000Y-88898750D01*
X130377000Y-89873000D01*
X130397000Y-89873000D01*
X130397000Y-90127000D01*
X130377000Y-90127000D01*
X130377000Y-91101250D01*
X130535750Y-91260000D01*
X130876309Y-91260000D01*
X131109698Y-91163327D01*
X131227560Y-91045466D01*
X131227560Y-91750000D01*
X131252246Y-91881195D01*
X131170643Y-91799449D01*
X130606670Y-91565267D01*
X129996009Y-91564735D01*
X129431629Y-91797932D01*
X128999449Y-92229357D01*
X128765267Y-92793330D01*
X128764735Y-93403991D01*
X128997932Y-93968371D01*
X129429357Y-94400551D01*
X129993330Y-94634733D01*
X130603991Y-94635265D01*
X131168371Y-94402068D01*
X131227560Y-94342982D01*
X131227560Y-95250000D01*
X131271186Y-95481850D01*
X131250000Y-95477560D01*
X130250000Y-95477560D01*
X130014683Y-95521838D01*
X129798559Y-95660910D01*
X129750866Y-95730711D01*
X129714090Y-95673559D01*
X129501890Y-95528569D01*
X129250000Y-95477560D01*
X128250000Y-95477560D01*
X128014683Y-95521838D01*
X127798559Y-95660910D01*
X127653569Y-95873110D01*
X127602560Y-96125000D01*
X127602560Y-96670371D01*
X127536216Y-96670313D01*
X127355636Y-96744927D01*
X127389440Y-96578000D01*
X127389440Y-96393193D01*
X127477000Y-95953000D01*
X127477000Y-95639079D01*
X127542551Y-95573643D01*
X127776733Y-95009670D01*
X127777265Y-94399009D01*
X127544068Y-93834629D01*
X127112643Y-93402449D01*
X126548670Y-93168267D01*
X125938009Y-93167735D01*
X125373629Y-93400932D01*
X124941449Y-93832357D01*
X124707267Y-94396330D01*
X124707009Y-94693000D01*
X124527750Y-94693000D01*
X124369000Y-94851750D01*
X124115000Y-94851750D01*
X123956250Y-94693000D01*
X123615691Y-94693000D01*
X123382302Y-94789673D01*
X123217612Y-94954362D01*
X123093250Y-94830000D01*
X122119000Y-94830000D01*
X121865000Y-94830000D01*
X120890750Y-94830000D01*
X120732000Y-94988750D01*
X119022440Y-94988750D01*
X119022440Y-94487809D01*
X119545991Y-94488265D01*
X120110371Y-94255068D01*
X120542551Y-93823643D01*
X120744727Y-93336750D01*
X120763838Y-93438317D01*
X120902910Y-93654441D01*
X120971006Y-93700969D01*
X120828673Y-93843302D01*
X120732000Y-94076691D01*
X120732000Y-94417250D01*
X120890750Y-94576000D01*
X121865000Y-94576000D01*
X121865000Y-94556000D01*
X122119000Y-94556000D01*
X122119000Y-94576000D01*
X123093250Y-94576000D01*
X123252000Y-94417250D01*
X123252000Y-94076691D01*
X123155327Y-93843302D01*
X123014090Y-93702064D01*
X123068441Y-93667090D01*
X123163311Y-93528243D01*
X123453370Y-93238184D01*
X123545991Y-93238265D01*
X124110371Y-93005068D01*
X124542551Y-92573643D01*
X124776733Y-92009670D01*
X124777265Y-91399009D01*
X124582235Y-90927000D01*
X126800000Y-90927000D01*
X126849410Y-90916994D01*
X126891035Y-90888553D01*
X126918315Y-90846159D01*
X126927000Y-90800000D01*
X126927000Y-90285750D01*
X129115000Y-90285750D01*
X129115000Y-90751310D01*
X129211673Y-90984699D01*
X129390302Y-91163327D01*
X129623691Y-91260000D01*
X129964250Y-91260000D01*
X130123000Y-91101250D01*
X130123000Y-90127000D01*
X129273750Y-90127000D01*
X129115000Y-90285750D01*
X126927000Y-90285750D01*
X126927000Y-89248690D01*
X129115000Y-89248690D01*
X129115000Y-89714250D01*
X129273750Y-89873000D01*
X130123000Y-89873000D01*
X130123000Y-88898750D01*
X129964250Y-88740000D01*
X129623691Y-88740000D01*
X129390302Y-88836673D01*
X129211673Y-89015301D01*
X129115000Y-89248690D01*
X126927000Y-89248690D01*
X126927000Y-86222690D01*
X135058000Y-86222690D01*
X135058000Y-88043250D01*
X135216750Y-88202000D01*
X138066000Y-88202000D01*
X138066000Y-85872750D01*
X137907250Y-85714000D01*
X135566691Y-85714000D01*
X135333302Y-85810673D01*
X135154673Y-85989301D01*
X135058000Y-86222690D01*
X126927000Y-86222690D01*
X126927000Y-81374750D01*
X135058000Y-81374750D01*
X135058000Y-83195310D01*
X135154673Y-83428699D01*
X135333302Y-83607327D01*
X135566691Y-83704000D01*
X137907250Y-83704000D01*
X138066000Y-83545250D01*
X138066000Y-81216000D01*
X135216750Y-81216000D01*
X135058000Y-81374750D01*
X126927000Y-81374750D01*
X126927000Y-73045000D01*
X133400670Y-73045000D01*
X133344628Y-73068156D01*
X133344628Y-73068156D01*
G37*
X133344628Y-73068156D02*
X132271923Y-74138991D01*
X131690663Y-75538819D01*
X131689340Y-77054531D01*
X132268156Y-78455372D01*
X133338991Y-79528077D01*
X134738819Y-80109337D01*
X135058000Y-80109616D01*
X135058000Y-80803250D01*
X135216750Y-80962000D01*
X138066000Y-80962000D01*
X138066000Y-80942000D01*
X138320000Y-80942000D01*
X138320000Y-80962000D01*
X138340000Y-80962000D01*
X138340000Y-81216000D01*
X138320000Y-81216000D01*
X138320000Y-81473359D01*
X138153542Y-81928336D01*
X138179161Y-82538460D01*
X138320000Y-82878475D01*
X138320000Y-83545250D01*
X138478750Y-83704000D01*
X138534041Y-83704000D01*
X138399449Y-83838357D01*
X138165267Y-84402330D01*
X138164735Y-85012991D01*
X138397932Y-85577371D01*
X138534322Y-85714000D01*
X138478750Y-85714000D01*
X138320000Y-85872750D01*
X138320000Y-86553359D01*
X138153542Y-87008336D01*
X138179161Y-87618460D01*
X138320000Y-87958475D01*
X138320000Y-88202000D01*
X138340000Y-88202000D01*
X138340000Y-88456000D01*
X138320000Y-88456000D01*
X138320000Y-89093359D01*
X138153542Y-89548336D01*
X138179161Y-90158460D01*
X138320000Y-90498475D01*
X138320000Y-90785250D01*
X138478750Y-90944000D01*
X138645172Y-90944000D01*
X138684890Y-90983718D01*
X138724608Y-90944000D01*
X138824659Y-90944000D01*
X138863401Y-91059000D01*
X138824659Y-91174000D01*
X138724608Y-91174000D01*
X138684890Y-91134282D01*
X138645172Y-91174000D01*
X138478750Y-91174000D01*
X138320000Y-91332750D01*
X138320000Y-91633359D01*
X138153542Y-92088336D01*
X138179161Y-92698460D01*
X138320000Y-93038475D01*
X138320000Y-93662000D01*
X138340000Y-93662000D01*
X138340000Y-93916000D01*
X138320000Y-93916000D01*
X138320000Y-94173359D01*
X138153542Y-94628336D01*
X138179161Y-95238460D01*
X138320000Y-95578475D01*
X138320000Y-96245250D01*
X138478750Y-96404000D01*
X138534041Y-96404000D01*
X138399449Y-96538357D01*
X138165267Y-97102330D01*
X138164735Y-97712991D01*
X138397932Y-98277371D01*
X138534322Y-98414000D01*
X138478750Y-98414000D01*
X138320000Y-98572750D01*
X138320000Y-99253359D01*
X138153542Y-99708336D01*
X138179161Y-100318460D01*
X138320000Y-100658475D01*
X138320000Y-100902000D01*
X138340000Y-100902000D01*
X138340000Y-101156000D01*
X138320000Y-101156000D01*
X138320000Y-101793359D01*
X138153542Y-102248336D01*
X138179161Y-102858460D01*
X138320000Y-103198475D01*
X138320000Y-103485250D01*
X138478750Y-103644000D01*
X138645172Y-103644000D01*
X138684890Y-103683718D01*
X138724608Y-103644000D01*
X138824659Y-103644000D01*
X138863401Y-103759000D01*
X138824659Y-103874000D01*
X138724608Y-103874000D01*
X138684890Y-103834282D01*
X138645172Y-103874000D01*
X138478750Y-103874000D01*
X138320000Y-104032750D01*
X138320000Y-104333359D01*
X138153542Y-104788336D01*
X138179161Y-105398460D01*
X138320000Y-105738475D01*
X138320000Y-106362000D01*
X138340000Y-106362000D01*
X138340000Y-106616000D01*
X138320000Y-106616000D01*
X138320000Y-106873359D01*
X138153542Y-107328336D01*
X138179161Y-107938460D01*
X138320000Y-108278475D01*
X138320000Y-108945250D01*
X138478750Y-109104000D01*
X138534041Y-109104000D01*
X138399449Y-109238357D01*
X138165267Y-109802330D01*
X138164735Y-110412991D01*
X138397932Y-110977371D01*
X138534322Y-111114000D01*
X138478750Y-111114000D01*
X138320000Y-111272750D01*
X138320000Y-111953359D01*
X138153542Y-112408336D01*
X138179161Y-113018460D01*
X138320000Y-113358475D01*
X138320000Y-113602000D01*
X138340000Y-113602000D01*
X138340000Y-113856000D01*
X138320000Y-113856000D01*
X138320000Y-113876000D01*
X138066000Y-113876000D01*
X138066000Y-113856000D01*
X135216750Y-113856000D01*
X135058000Y-114014750D01*
X135058000Y-114589613D01*
X134745469Y-114589340D01*
X133344628Y-115168156D01*
X132271923Y-116238991D01*
X131690663Y-117638819D01*
X131689340Y-119154531D01*
X132268156Y-120555372D01*
X133338991Y-121628077D01*
X133403829Y-121655000D01*
X100045000Y-121655000D01*
X100045000Y-119734350D01*
X111077255Y-119734350D01*
X111169792Y-119996019D01*
X111761398Y-120214188D01*
X112391461Y-120189352D01*
X112858208Y-119996019D01*
X112950745Y-119734350D01*
X113617255Y-119734350D01*
X113709792Y-119996019D01*
X114301398Y-120214188D01*
X114931461Y-120189352D01*
X115398208Y-119996019D01*
X115490745Y-119734350D01*
X116157255Y-119734350D01*
X116249792Y-119996019D01*
X116841398Y-120214188D01*
X117471461Y-120189352D01*
X117938208Y-119996019D01*
X118030745Y-119734350D01*
X118697255Y-119734350D01*
X118789792Y-119996019D01*
X119381398Y-120214188D01*
X120011461Y-120189352D01*
X120478208Y-119996019D01*
X120570745Y-119734350D01*
X119634000Y-118797605D01*
X118697255Y-119734350D01*
X118030745Y-119734350D01*
X117094000Y-118797605D01*
X116157255Y-119734350D01*
X115490745Y-119734350D01*
X114554000Y-118797605D01*
X113617255Y-119734350D01*
X112950745Y-119734350D01*
X112014000Y-118797605D01*
X111077255Y-119734350D01*
X100045000Y-119734350D01*
X100045000Y-118365398D01*
X110417812Y-118365398D01*
X110442648Y-118995461D01*
X110635981Y-119462208D01*
X110897650Y-119554745D01*
X111834395Y-118618000D01*
X112193605Y-118618000D01*
X113130350Y-119554745D01*
X113284000Y-119500408D01*
X113437650Y-119554745D01*
X114374395Y-118618000D01*
X114733605Y-118618000D01*
X115670350Y-119554745D01*
X115824000Y-119500408D01*
X115977650Y-119554745D01*
X116914395Y-118618000D01*
X117273605Y-118618000D01*
X118210350Y-119554745D01*
X118364000Y-119500408D01*
X118517650Y-119554745D01*
X119454395Y-118618000D01*
X119813605Y-118618000D01*
X120750350Y-119554745D01*
X121012019Y-119462208D01*
X121230188Y-118870602D01*
X121205352Y-118240539D01*
X121012019Y-117773792D01*
X120750350Y-117681255D01*
X119813605Y-118618000D01*
X119454395Y-118618000D01*
X118517650Y-117681255D01*
X118364000Y-117735592D01*
X118210350Y-117681255D01*
X117273605Y-118618000D01*
X116914395Y-118618000D01*
X115977650Y-117681255D01*
X115824000Y-117735592D01*
X115670350Y-117681255D01*
X114733605Y-118618000D01*
X114374395Y-118618000D01*
X113437650Y-117681255D01*
X113284000Y-117735592D01*
X113130350Y-117681255D01*
X112193605Y-118618000D01*
X111834395Y-118618000D01*
X110897650Y-117681255D01*
X110635981Y-117773792D01*
X110417812Y-118365398D01*
X100045000Y-118365398D01*
X100045000Y-107333697D01*
X101270708Y-107333697D01*
X101526694Y-107953229D01*
X102000278Y-108427640D01*
X102121453Y-108477956D01*
X102087629Y-108491932D01*
X101655449Y-108923357D01*
X101421267Y-109487330D01*
X101420735Y-110097991D01*
X101653932Y-110662371D01*
X102085357Y-111094551D01*
X102649330Y-111328733D01*
X103259991Y-111329265D01*
X103824371Y-111096068D01*
X104046668Y-110874159D01*
X107643446Y-110874159D01*
X107729852Y-111130643D01*
X108303336Y-111340458D01*
X108913460Y-111314839D01*
X109358148Y-111130643D01*
X109444554Y-110874159D01*
X108544000Y-109973605D01*
X107643446Y-110874159D01*
X104046668Y-110874159D01*
X104256551Y-110664643D01*
X104490733Y-110100670D01*
X104491209Y-109553336D01*
X106997542Y-109553336D01*
X107023161Y-110163460D01*
X107207357Y-110608148D01*
X107463841Y-110694554D01*
X108364395Y-109794000D01*
X108723605Y-109794000D01*
X109624159Y-110694554D01*
X109880643Y-110608148D01*
X110090458Y-110034664D01*
X110064839Y-109424540D01*
X109880643Y-108979852D01*
X109624159Y-108893446D01*
X108723605Y-109794000D01*
X108364395Y-109794000D01*
X107463841Y-108893446D01*
X107207357Y-108979852D01*
X106997542Y-109553336D01*
X104491209Y-109553336D01*
X104491265Y-109490009D01*
X104258068Y-108925629D01*
X104046650Y-108713841D01*
X107643446Y-108713841D01*
X108544000Y-109614395D01*
X109444554Y-108713841D01*
X109358148Y-108457357D01*
X108784664Y-108247542D01*
X108174540Y-108273161D01*
X107729852Y-108457357D01*
X107643446Y-108713841D01*
X104046650Y-108713841D01*
X103826643Y-108493449D01*
X103790407Y-108478402D01*
X103909229Y-108429306D01*
X103966194Y-108372440D01*
X104900000Y-108372440D01*
X105135317Y-108328162D01*
X105351441Y-108189090D01*
X105397969Y-108120994D01*
X105540302Y-108263327D01*
X105773691Y-108360000D01*
X106114250Y-108360000D01*
X106273000Y-108201250D01*
X106273000Y-107227000D01*
X106527000Y-107227000D01*
X106527000Y-108201250D01*
X106685750Y-108360000D01*
X107026309Y-108360000D01*
X107259698Y-108263327D01*
X107438327Y-108084699D01*
X107535000Y-107851310D01*
X107535000Y-107385750D01*
X107376250Y-107227000D01*
X106527000Y-107227000D01*
X106273000Y-107227000D01*
X106253000Y-107227000D01*
X106253000Y-106973000D01*
X106273000Y-106973000D01*
X106273000Y-105998750D01*
X106527000Y-105998750D01*
X106527000Y-106973000D01*
X107376250Y-106973000D01*
X107535000Y-106814250D01*
X107535000Y-106348690D01*
X107438327Y-106115301D01*
X107259698Y-105936673D01*
X107026309Y-105840000D01*
X106685750Y-105840000D01*
X106527000Y-105998750D01*
X106273000Y-105998750D01*
X106114250Y-105840000D01*
X105773691Y-105840000D01*
X105540302Y-105936673D01*
X105399064Y-106077910D01*
X105364090Y-106023559D01*
X105151890Y-105878569D01*
X104900000Y-105827560D01*
X104166477Y-105827560D01*
X103911722Y-105572360D01*
X103790547Y-105522044D01*
X103824371Y-105508068D01*
X104256551Y-105076643D01*
X104490733Y-104512670D01*
X104490735Y-104509991D01*
X107008735Y-104509991D01*
X107241932Y-105074371D01*
X107673357Y-105506551D01*
X108237330Y-105740733D01*
X108847991Y-105741265D01*
X109412371Y-105508068D01*
X109844551Y-105076643D01*
X110078733Y-104512670D01*
X110079265Y-103902009D01*
X109846068Y-103337629D01*
X109414643Y-102905449D01*
X108850670Y-102671267D01*
X108240009Y-102670735D01*
X107675629Y-102903932D01*
X107243449Y-103335357D01*
X107009267Y-103899330D01*
X107008735Y-104509991D01*
X104490735Y-104509991D01*
X104491265Y-103902009D01*
X104258068Y-103337629D01*
X103826643Y-102905449D01*
X103262670Y-102671267D01*
X102652009Y-102670735D01*
X102087629Y-102903932D01*
X101655449Y-103335357D01*
X101421267Y-103899330D01*
X101420735Y-104509991D01*
X101653932Y-105074371D01*
X102085357Y-105506551D01*
X102121593Y-105521598D01*
X102002771Y-105570694D01*
X101528360Y-106044278D01*
X101271293Y-106663362D01*
X101270708Y-107333697D01*
X100045000Y-107333697D01*
X100045000Y-105100000D01*
X100032607Y-105037696D01*
X100032607Y-105024167D01*
X99960293Y-104660618D01*
X99863984Y-104428109D01*
X99863983Y-104428108D01*
X99863983Y-104428107D01*
X99658048Y-104119905D01*
X99569071Y-104030929D01*
X99480095Y-103941952D01*
X99171893Y-103736017D01*
X99171891Y-103736016D01*
X98939381Y-103639707D01*
X98575833Y-103567393D01*
X98512305Y-103567393D01*
X98450000Y-103555000D01*
X97427000Y-103555000D01*
X97427000Y-93695000D01*
X98450000Y-93695000D01*
X98512305Y-93682607D01*
X98575833Y-93682607D01*
X98939381Y-93610293D01*
X99171891Y-93513984D01*
X99171893Y-93513983D01*
X99480095Y-93308048D01*
X99569071Y-93219071D01*
X99658048Y-93130095D01*
X99863983Y-92821893D01*
X99905106Y-92722614D01*
X99960293Y-92589382D01*
X100030632Y-92235764D01*
X101597434Y-93802567D01*
X101965655Y-94048604D01*
X102400000Y-94135000D01*
X103633448Y-94135000D01*
X103587629Y-94153932D01*
X103155449Y-94585357D01*
X102921267Y-95149330D01*
X102920735Y-95759991D01*
X103153932Y-96324371D01*
X103585357Y-96756551D01*
X103621593Y-96771598D01*
X103502771Y-96820694D01*
X103028360Y-97294278D01*
X102771293Y-97913362D01*
X102770708Y-98583697D01*
X103026694Y-99203229D01*
X103500278Y-99677640D01*
X103621453Y-99727956D01*
X103587629Y-99741932D01*
X103155449Y-100173357D01*
X102921267Y-100737330D01*
X102920735Y-101347991D01*
X103153932Y-101912371D01*
X103585357Y-102344551D01*
X104149330Y-102578733D01*
X104759991Y-102579265D01*
X105324371Y-102346068D01*
X105756551Y-101914643D01*
X105990733Y-101350670D01*
X105991265Y-100740009D01*
X105758068Y-100175629D01*
X105326643Y-99743449D01*
X105290407Y-99728402D01*
X105409229Y-99679306D01*
X105852560Y-99236748D01*
X105852560Y-99625000D01*
X105896838Y-99860317D01*
X106035910Y-100076441D01*
X106248110Y-100221431D01*
X106500000Y-100272440D01*
X107500000Y-100272440D01*
X107735317Y-100228162D01*
X107951441Y-100089090D01*
X107997969Y-100020994D01*
X108140302Y-100163327D01*
X108373691Y-100260000D01*
X108696327Y-100260000D01*
X108497542Y-100803336D01*
X108523161Y-101413460D01*
X108707357Y-101858148D01*
X108963841Y-101944554D01*
X109864395Y-101044000D01*
X109080395Y-100260000D01*
X109127002Y-100260000D01*
X109127002Y-100101252D01*
X109285750Y-100260000D01*
X109439605Y-100260000D01*
X110044000Y-100864395D01*
X110944554Y-99963841D01*
X110858148Y-99707357D01*
X110284664Y-99497542D01*
X110135000Y-99503826D01*
X110135000Y-99285750D01*
X109976250Y-99127000D01*
X109127000Y-99127000D01*
X109127000Y-99147000D01*
X108873000Y-99147000D01*
X108873000Y-99127000D01*
X108853000Y-99127000D01*
X108853000Y-98873000D01*
X108873000Y-98873000D01*
X108873000Y-97898750D01*
X109127000Y-97898750D01*
X109127000Y-98873000D01*
X109976250Y-98873000D01*
X110135000Y-98714250D01*
X110135000Y-98248690D01*
X110038327Y-98015301D01*
X109859698Y-97836673D01*
X109626309Y-97740000D01*
X109285750Y-97740000D01*
X109127000Y-97898750D01*
X108873000Y-97898750D01*
X108714250Y-97740000D01*
X108373691Y-97740000D01*
X108140302Y-97836673D01*
X107999064Y-97977910D01*
X107964090Y-97923559D01*
X107860700Y-97852916D01*
X108076441Y-97714090D01*
X108221431Y-97501890D01*
X108272440Y-97250000D01*
X108272440Y-96250000D01*
X108228162Y-96014683D01*
X108089090Y-95798559D01*
X108032644Y-95759991D01*
X108508735Y-95759991D01*
X108741932Y-96324371D01*
X109173357Y-96756551D01*
X109737330Y-96990733D01*
X110347991Y-96991265D01*
X110912371Y-96758068D01*
X111344551Y-96326643D01*
X111578733Y-95762670D01*
X111579265Y-95152009D01*
X111346068Y-94587629D01*
X110914643Y-94155449D01*
X110350670Y-93921267D01*
X109740009Y-93920735D01*
X109175629Y-94153932D01*
X108743449Y-94585357D01*
X108509267Y-95149330D01*
X108508735Y-95759991D01*
X108032644Y-95759991D01*
X108019289Y-95750866D01*
X108076441Y-95714090D01*
X108221431Y-95501890D01*
X108272440Y-95250000D01*
X108272440Y-94250000D01*
X108228162Y-94014683D01*
X108106739Y-93825987D01*
X108147440Y-93625000D01*
X108147440Y-92375000D01*
X108103162Y-92139683D01*
X108095658Y-92128021D01*
X108096431Y-92126890D01*
X108147440Y-91875000D01*
X108147440Y-90927000D01*
X109546132Y-90927000D01*
X113420411Y-94801279D01*
X113420313Y-94913784D01*
X113584311Y-95310689D01*
X113665000Y-95391519D01*
X113665000Y-95920556D01*
X113386216Y-95920313D01*
X112989311Y-96084311D01*
X112685378Y-96387714D01*
X112520687Y-96784332D01*
X112520313Y-97213784D01*
X112684311Y-97610689D01*
X112840000Y-97766650D01*
X112840000Y-100022047D01*
X112689311Y-100084311D01*
X112385378Y-100387714D01*
X112220687Y-100784332D01*
X112220495Y-101004703D01*
X111388485Y-101836713D01*
X111590458Y-101284664D01*
X111564839Y-100674540D01*
X111380643Y-100229852D01*
X111124159Y-100143446D01*
X110223605Y-101044000D01*
X110237748Y-101058143D01*
X110058143Y-101237748D01*
X110044000Y-101223605D01*
X109143446Y-102124159D01*
X109229852Y-102380643D01*
X109803336Y-102590458D01*
X110413460Y-102564839D01*
X110858148Y-102380643D01*
X110944553Y-102124161D01*
X111059110Y-102238718D01*
X111116347Y-102181481D01*
X111097852Y-102209161D01*
X111040000Y-102500000D01*
X111040000Y-110185198D01*
X109862599Y-111362599D01*
X109697852Y-111609161D01*
X109640000Y-111900000D01*
X109640000Y-114464000D01*
X109697852Y-114754839D01*
X109862599Y-115001401D01*
X110485980Y-115624782D01*
X110429276Y-115761341D01*
X110428725Y-116391893D01*
X110669519Y-116974657D01*
X111108211Y-117414116D01*
X111077255Y-117501650D01*
X112014000Y-118438395D01*
X112950745Y-117501650D01*
X112919593Y-117413561D01*
X113284261Y-117049529D01*
X113648211Y-117414116D01*
X113617255Y-117501650D01*
X114554000Y-118438395D01*
X115490745Y-117501650D01*
X115459593Y-117413561D01*
X115824261Y-117049529D01*
X116188211Y-117414116D01*
X116157255Y-117501650D01*
X117094000Y-118438395D01*
X118030745Y-117501650D01*
X117999593Y-117413561D01*
X118364261Y-117049529D01*
X118728211Y-117414116D01*
X118697255Y-117501650D01*
X119634000Y-118438395D01*
X120570745Y-117501650D01*
X120539593Y-117413561D01*
X120976914Y-116977003D01*
X121218724Y-116394659D01*
X121219275Y-115764107D01*
X121161798Y-115625004D01*
X121837401Y-114949401D01*
X122002148Y-114702839D01*
X122060000Y-114412000D01*
X122060000Y-112100000D01*
X122002148Y-111809161D01*
X121877553Y-111622690D01*
X135058000Y-111622690D01*
X135058000Y-113443250D01*
X135216750Y-113602000D01*
X138066000Y-113602000D01*
X138066000Y-111272750D01*
X137907250Y-111114000D01*
X135566691Y-111114000D01*
X135333302Y-111210673D01*
X135154673Y-111389301D01*
X135058000Y-111622690D01*
X121877553Y-111622690D01*
X121837401Y-111562599D01*
X121337401Y-111062599D01*
X121090839Y-110897852D01*
X120800000Y-110840000D01*
X120414802Y-110840000D01*
X119912026Y-110337224D01*
X119973000Y-110276250D01*
X119973000Y-109427000D01*
X119953000Y-109427000D01*
X119953000Y-109173000D01*
X119973000Y-109173000D01*
X119973000Y-109153000D01*
X120227000Y-109153000D01*
X120227000Y-109173000D01*
X120247000Y-109173000D01*
X120247000Y-109427000D01*
X120227000Y-109427000D01*
X120227000Y-110276250D01*
X120385750Y-110435000D01*
X120851310Y-110435000D01*
X120965000Y-110387908D01*
X120965000Y-110551310D01*
X121061673Y-110784699D01*
X121240302Y-110963327D01*
X121473691Y-111060000D01*
X121814250Y-111060000D01*
X121973000Y-110901250D01*
X121973000Y-109927000D01*
X121953000Y-109927000D01*
X121953000Y-109673000D01*
X121973000Y-109673000D01*
X121973000Y-108698750D01*
X121814250Y-108540000D01*
X121473691Y-108540000D01*
X121329383Y-108599775D01*
X121263327Y-108440302D01*
X121145466Y-108322440D01*
X122100000Y-108322440D01*
X122335317Y-108278162D01*
X122465048Y-108194682D01*
X122464747Y-108540000D01*
X122385750Y-108540000D01*
X122227000Y-108698750D01*
X122227000Y-109673000D01*
X122247000Y-109673000D01*
X122247000Y-109927000D01*
X122227000Y-109927000D01*
X122227000Y-110901250D01*
X122385750Y-111060000D01*
X122726309Y-111060000D01*
X122959698Y-110963327D01*
X123100936Y-110822090D01*
X123135910Y-110876441D01*
X123348110Y-111021431D01*
X123600000Y-111072440D01*
X124600000Y-111072440D01*
X124835317Y-111028162D01*
X125051441Y-110889090D01*
X125196431Y-110676890D01*
X125247440Y-110425000D01*
X125247440Y-109175000D01*
X125247228Y-109173873D01*
X125300551Y-109120643D01*
X125534733Y-108556670D01*
X125535174Y-108050000D01*
X125827560Y-108050000D01*
X125827560Y-109050000D01*
X125871838Y-109285317D01*
X126010910Y-109501441D01*
X126223110Y-109646431D01*
X126371310Y-109676442D01*
X126564939Y-109870071D01*
X126564735Y-110103991D01*
X126797932Y-110668371D01*
X127229357Y-111100551D01*
X127793330Y-111334733D01*
X128403991Y-111335265D01*
X128968371Y-111102068D01*
X129400551Y-110670643D01*
X129493233Y-110447440D01*
X130225000Y-110447440D01*
X130460317Y-110403162D01*
X130676441Y-110264090D01*
X130821431Y-110051890D01*
X130872440Y-109800000D01*
X130872440Y-108800000D01*
X130828162Y-108564683D01*
X130689090Y-108348559D01*
X130619289Y-108300866D01*
X130655561Y-108277526D01*
X130793330Y-108334733D01*
X131403991Y-108335265D01*
X131968371Y-108102068D01*
X132400551Y-107670643D01*
X132634733Y-107106670D01*
X132635022Y-106774750D01*
X135058000Y-106774750D01*
X135058000Y-108595310D01*
X135154673Y-108828699D01*
X135333302Y-109007327D01*
X135566691Y-109104000D01*
X137907250Y-109104000D01*
X138066000Y-108945250D01*
X138066000Y-106616000D01*
X135216750Y-106616000D01*
X135058000Y-106774750D01*
X132635022Y-106774750D01*
X132635265Y-106496009D01*
X132402068Y-105931629D01*
X131970643Y-105499449D01*
X131406670Y-105265267D01*
X130796009Y-105264735D01*
X130231629Y-105497932D01*
X130055377Y-105673876D01*
X129665654Y-105751397D01*
X129322837Y-105980460D01*
X129297434Y-105997434D01*
X129142308Y-106152560D01*
X128975000Y-106152560D01*
X128739683Y-106196838D01*
X128523559Y-106335910D01*
X128378569Y-106548110D01*
X128327560Y-106800000D01*
X128327560Y-106803310D01*
X128201250Y-106677000D01*
X127227000Y-106677000D01*
X127227000Y-106697000D01*
X126973000Y-106697000D01*
X126973000Y-106677000D01*
X125998750Y-106677000D01*
X125840000Y-106835750D01*
X125840000Y-107176309D01*
X125936673Y-107409698D01*
X126077910Y-107550936D01*
X126023559Y-107585910D01*
X125878569Y-107798110D01*
X125827560Y-108050000D01*
X125535174Y-108050000D01*
X125535265Y-107946009D01*
X125302068Y-107381629D01*
X125176485Y-107255826D01*
X125148603Y-107115654D01*
X124902566Y-106747434D01*
X124747440Y-106592308D01*
X124747440Y-106425000D01*
X124703162Y-106189683D01*
X124564090Y-105973559D01*
X124491106Y-105923691D01*
X125840000Y-105923691D01*
X125840000Y-106264250D01*
X125998750Y-106423000D01*
X126973000Y-106423000D01*
X126973000Y-105573750D01*
X127227000Y-105573750D01*
X127227000Y-106423000D01*
X128201250Y-106423000D01*
X128360000Y-106264250D01*
X128360000Y-105923691D01*
X128263327Y-105690302D01*
X128084699Y-105511673D01*
X127851310Y-105415000D01*
X127385750Y-105415000D01*
X127227000Y-105573750D01*
X126973000Y-105573750D01*
X126814250Y-105415000D01*
X126348690Y-105415000D01*
X126115301Y-105511673D01*
X125936673Y-105690302D01*
X125840000Y-105923691D01*
X124491106Y-105923691D01*
X124351890Y-105828569D01*
X124100000Y-105777560D01*
X123100000Y-105777560D01*
X122864683Y-105821838D01*
X122648559Y-105960910D01*
X122600866Y-106030711D01*
X122564090Y-105973559D01*
X122406373Y-105865796D01*
X122534733Y-105556670D01*
X122535265Y-104946009D01*
X122302507Y-104382690D01*
X135058000Y-104382690D01*
X135058000Y-106203250D01*
X135216750Y-106362000D01*
X138066000Y-106362000D01*
X138066000Y-104032750D01*
X137907250Y-103874000D01*
X135566691Y-103874000D01*
X135333302Y-103970673D01*
X135154673Y-104149301D01*
X135058000Y-104382690D01*
X122302507Y-104382690D01*
X122302068Y-104381629D01*
X121870643Y-103949449D01*
X121306670Y-103715267D01*
X120696009Y-103714735D01*
X120131629Y-103947932D01*
X119699449Y-104379357D01*
X119465267Y-104943330D01*
X119464735Y-105553991D01*
X119691665Y-106103203D01*
X119642308Y-106152560D01*
X119475000Y-106152560D01*
X119460000Y-106155382D01*
X119460000Y-104200000D01*
X119402148Y-103909161D01*
X119402148Y-103909160D01*
X119237401Y-103662599D01*
X119060000Y-103485198D01*
X119060000Y-102000000D01*
X119002148Y-101709161D01*
X118837401Y-101462599D01*
X118689552Y-101314750D01*
X135058000Y-101314750D01*
X135058000Y-103135310D01*
X135154673Y-103368699D01*
X135333302Y-103547327D01*
X135566691Y-103644000D01*
X137907250Y-103644000D01*
X138066000Y-103485250D01*
X138066000Y-101156000D01*
X135216750Y-101156000D01*
X135058000Y-101314750D01*
X118689552Y-101314750D01*
X118000756Y-100625954D01*
X118114622Y-100512286D01*
X118279313Y-100115668D01*
X118279687Y-99686216D01*
X118115689Y-99289311D01*
X117862571Y-99035750D01*
X133240000Y-99035750D01*
X133240000Y-99376309D01*
X133336673Y-99609698D01*
X133515301Y-99788327D01*
X133748690Y-99885000D01*
X134214250Y-99885000D01*
X134373000Y-99726250D01*
X134373000Y-98877000D01*
X133398750Y-98877000D01*
X133240000Y-99035750D01*
X117862571Y-99035750D01*
X117812286Y-98985378D01*
X117415668Y-98820687D01*
X116986216Y-98820313D01*
X116936916Y-98840683D01*
X116915689Y-98789311D01*
X116835000Y-98708481D01*
X116835000Y-98100000D01*
X116822220Y-98035750D01*
X123115000Y-98035750D01*
X123115000Y-98501310D01*
X123211673Y-98734699D01*
X123390302Y-98913327D01*
X123623691Y-99010000D01*
X123964250Y-99010000D01*
X124123000Y-98851250D01*
X124123000Y-97877000D01*
X123273750Y-97877000D01*
X123115000Y-98035750D01*
X116822220Y-98035750D01*
X116771439Y-97780459D01*
X116590434Y-97509566D01*
X116562367Y-97481499D01*
X116708268Y-97421214D01*
X116777910Y-97529441D01*
X116990110Y-97674431D01*
X117242000Y-97725440D01*
X118242000Y-97725440D01*
X118477317Y-97681162D01*
X118693441Y-97542090D01*
X118739969Y-97473994D01*
X118882302Y-97616327D01*
X119115691Y-97713000D01*
X119456250Y-97713000D01*
X119615000Y-97554250D01*
X119615000Y-96580000D01*
X119869000Y-96580000D01*
X119869000Y-97554250D01*
X120027750Y-97713000D01*
X120368309Y-97713000D01*
X120601698Y-97616327D01*
X120780327Y-97437699D01*
X120877000Y-97204310D01*
X120877000Y-96738750D01*
X120718250Y-96580000D01*
X119869000Y-96580000D01*
X119615000Y-96580000D01*
X119595000Y-96580000D01*
X119595000Y-96326000D01*
X119615000Y-96326000D01*
X119615000Y-95351750D01*
X119869000Y-95351750D01*
X119869000Y-96326000D01*
X120718250Y-96326000D01*
X120805500Y-96238750D01*
X123107000Y-96238750D01*
X123107000Y-96704310D01*
X123171968Y-96861157D01*
X123115000Y-96998690D01*
X123115000Y-97464250D01*
X123273750Y-97623000D01*
X124123000Y-97623000D01*
X124123000Y-96648750D01*
X124115000Y-96640750D01*
X124115000Y-96080000D01*
X123265750Y-96080000D01*
X123107000Y-96238750D01*
X120805500Y-96238750D01*
X120877000Y-96167250D01*
X120877000Y-95701690D01*
X120780327Y-95468301D01*
X120601698Y-95289673D01*
X120368309Y-95193000D01*
X120027750Y-95193000D01*
X119869000Y-95351750D01*
X119615000Y-95351750D01*
X119456250Y-95193000D01*
X119115691Y-95193000D01*
X119022440Y-95231626D01*
X119022440Y-94988750D01*
X120732000Y-94988750D01*
X120732000Y-95329309D01*
X120828673Y-95562698D01*
X121007301Y-95741327D01*
X121240690Y-95838000D01*
X121706250Y-95838000D01*
X121865000Y-95679250D01*
X121865000Y-94830000D01*
X122119000Y-94830000D01*
X122119000Y-95679250D01*
X122277750Y-95838000D01*
X122743310Y-95838000D01*
X122976699Y-95741327D01*
X123107000Y-95611025D01*
X123107000Y-95667250D01*
X123265750Y-95826000D01*
X124115000Y-95826000D01*
X124115000Y-94851750D01*
X124369000Y-94851750D01*
X124369000Y-95826000D01*
X124389000Y-95826000D01*
X124389000Y-96080000D01*
X124369000Y-96080000D01*
X124369000Y-97054250D01*
X124377000Y-97062250D01*
X124377000Y-97623000D01*
X124397000Y-97623000D01*
X124397000Y-97877000D01*
X124377000Y-97877000D01*
X124377000Y-98851250D01*
X124535750Y-99010000D01*
X124876309Y-99010000D01*
X125109698Y-98913327D01*
X125250936Y-98772090D01*
X125285910Y-98826441D01*
X125498110Y-98971431D01*
X125750000Y-99022440D01*
X126750000Y-99022440D01*
X126985317Y-98978162D01*
X127201441Y-98839090D01*
X127280218Y-98723795D01*
X127534332Y-98829313D01*
X127963784Y-98829687D01*
X128360689Y-98665689D01*
X128664622Y-98362286D01*
X128805739Y-98022440D01*
X129250000Y-98022440D01*
X129485317Y-97978162D01*
X129701441Y-97839090D01*
X129749134Y-97769289D01*
X129785910Y-97826441D01*
X129998110Y-97971431D01*
X130250000Y-98022440D01*
X131250000Y-98022440D01*
X131485317Y-97978162D01*
X131674013Y-97856739D01*
X131875000Y-97897440D01*
X133125000Y-97897440D01*
X133360317Y-97853162D01*
X133398171Y-97828804D01*
X133336673Y-97890302D01*
X133240000Y-98123691D01*
X133240000Y-98464250D01*
X133398750Y-98623000D01*
X134373000Y-98623000D01*
X134373000Y-98603000D01*
X134627000Y-98603000D01*
X134627000Y-98623000D01*
X134647000Y-98623000D01*
X134647000Y-98877000D01*
X134627000Y-98877000D01*
X134627000Y-99726250D01*
X134785750Y-99885000D01*
X135058000Y-99885000D01*
X135058000Y-100743250D01*
X135216750Y-100902000D01*
X138066000Y-100902000D01*
X138066000Y-98572750D01*
X137907250Y-98414000D01*
X135760000Y-98414000D01*
X135760000Y-98123691D01*
X135663327Y-97890302D01*
X135522090Y-97749064D01*
X135576441Y-97714090D01*
X135721431Y-97501890D01*
X135772440Y-97250000D01*
X135772440Y-96404000D01*
X137907250Y-96404000D01*
X138066000Y-96245250D01*
X138066000Y-93916000D01*
X138046000Y-93916000D01*
X138046000Y-93662000D01*
X138066000Y-93662000D01*
X138066000Y-91332750D01*
X137907250Y-91174000D01*
X135566691Y-91174000D01*
X135333302Y-91270673D01*
X135154673Y-91449301D01*
X135086038Y-91615000D01*
X134785750Y-91615000D01*
X134627000Y-91773750D01*
X134627000Y-92623000D01*
X134647000Y-92623000D01*
X134647000Y-92877000D01*
X134627000Y-92877000D01*
X134627000Y-92897000D01*
X134373000Y-92897000D01*
X134373000Y-92877000D01*
X134353000Y-92877000D01*
X134353000Y-92623000D01*
X134373000Y-92623000D01*
X134373000Y-91773750D01*
X134214250Y-91615000D01*
X133772440Y-91615000D01*
X133772440Y-91565663D01*
X134168371Y-91402068D01*
X134600551Y-90970643D01*
X134834733Y-90406670D01*
X134835265Y-89796009D01*
X134602068Y-89231629D01*
X134170643Y-88799449D01*
X133725839Y-88614750D01*
X135058000Y-88614750D01*
X135058000Y-90435310D01*
X135154673Y-90668699D01*
X135333302Y-90847327D01*
X135566691Y-90944000D01*
X137907250Y-90944000D01*
X138066000Y-90785250D01*
X138066000Y-88456000D01*
X135216750Y-88456000D01*
X135058000Y-88614750D01*
X133725839Y-88614750D01*
X133606670Y-88565267D01*
X132996009Y-88564735D01*
X132601942Y-88727560D01*
X131750000Y-88727560D01*
X131514683Y-88771838D01*
X131298559Y-88910910D01*
X131252031Y-88979006D01*
X131109698Y-88836673D01*
X130876309Y-88740000D01*
X130535750Y-88740000D01*
X130377000Y-88898750D01*
X130377000Y-89873000D01*
X130397000Y-89873000D01*
X130397000Y-90127000D01*
X130377000Y-90127000D01*
X130377000Y-91101250D01*
X130535750Y-91260000D01*
X130876309Y-91260000D01*
X131109698Y-91163327D01*
X131227560Y-91045466D01*
X131227560Y-91750000D01*
X131252246Y-91881195D01*
X131170643Y-91799449D01*
X130606670Y-91565267D01*
X129996009Y-91564735D01*
X129431629Y-91797932D01*
X128999449Y-92229357D01*
X128765267Y-92793330D01*
X128764735Y-93403991D01*
X128997932Y-93968371D01*
X129429357Y-94400551D01*
X129993330Y-94634733D01*
X130603991Y-94635265D01*
X131168371Y-94402068D01*
X131227560Y-94342982D01*
X131227560Y-95250000D01*
X131271186Y-95481850D01*
X131250000Y-95477560D01*
X130250000Y-95477560D01*
X130014683Y-95521838D01*
X129798559Y-95660910D01*
X129750866Y-95730711D01*
X129714090Y-95673559D01*
X129501890Y-95528569D01*
X129250000Y-95477560D01*
X128250000Y-95477560D01*
X128014683Y-95521838D01*
X127798559Y-95660910D01*
X127653569Y-95873110D01*
X127602560Y-96125000D01*
X127602560Y-96670371D01*
X127536216Y-96670313D01*
X127355636Y-96744927D01*
X127389440Y-96578000D01*
X127389440Y-96393193D01*
X127477000Y-95953000D01*
X127477000Y-95639079D01*
X127542551Y-95573643D01*
X127776733Y-95009670D01*
X127777265Y-94399009D01*
X127544068Y-93834629D01*
X127112643Y-93402449D01*
X126548670Y-93168267D01*
X125938009Y-93167735D01*
X125373629Y-93400932D01*
X124941449Y-93832357D01*
X124707267Y-94396330D01*
X124707009Y-94693000D01*
X124527750Y-94693000D01*
X124369000Y-94851750D01*
X124115000Y-94851750D01*
X123956250Y-94693000D01*
X123615691Y-94693000D01*
X123382302Y-94789673D01*
X123217612Y-94954362D01*
X123093250Y-94830000D01*
X122119000Y-94830000D01*
X121865000Y-94830000D01*
X120890750Y-94830000D01*
X120732000Y-94988750D01*
X119022440Y-94988750D01*
X119022440Y-94487809D01*
X119545991Y-94488265D01*
X120110371Y-94255068D01*
X120542551Y-93823643D01*
X120744727Y-93336750D01*
X120763838Y-93438317D01*
X120902910Y-93654441D01*
X120971006Y-93700969D01*
X120828673Y-93843302D01*
X120732000Y-94076691D01*
X120732000Y-94417250D01*
X120890750Y-94576000D01*
X121865000Y-94576000D01*
X121865000Y-94556000D01*
X122119000Y-94556000D01*
X122119000Y-94576000D01*
X123093250Y-94576000D01*
X123252000Y-94417250D01*
X123252000Y-94076691D01*
X123155327Y-93843302D01*
X123014090Y-93702064D01*
X123068441Y-93667090D01*
X123163311Y-93528243D01*
X123453370Y-93238184D01*
X123545991Y-93238265D01*
X124110371Y-93005068D01*
X124542551Y-92573643D01*
X124776733Y-92009670D01*
X124777265Y-91399009D01*
X124582235Y-90927000D01*
X126800000Y-90927000D01*
X126849410Y-90916994D01*
X126891035Y-90888553D01*
X126918315Y-90846159D01*
X126927000Y-90800000D01*
X126927000Y-90285750D01*
X129115000Y-90285750D01*
X129115000Y-90751310D01*
X129211673Y-90984699D01*
X129390302Y-91163327D01*
X129623691Y-91260000D01*
X129964250Y-91260000D01*
X130123000Y-91101250D01*
X130123000Y-90127000D01*
X129273750Y-90127000D01*
X129115000Y-90285750D01*
X126927000Y-90285750D01*
X126927000Y-89248690D01*
X129115000Y-89248690D01*
X129115000Y-89714250D01*
X129273750Y-89873000D01*
X130123000Y-89873000D01*
X130123000Y-88898750D01*
X129964250Y-88740000D01*
X129623691Y-88740000D01*
X129390302Y-88836673D01*
X129211673Y-89015301D01*
X129115000Y-89248690D01*
X126927000Y-89248690D01*
X126927000Y-86222690D01*
X135058000Y-86222690D01*
X135058000Y-88043250D01*
X135216750Y-88202000D01*
X138066000Y-88202000D01*
X138066000Y-85872750D01*
X137907250Y-85714000D01*
X135566691Y-85714000D01*
X135333302Y-85810673D01*
X135154673Y-85989301D01*
X135058000Y-86222690D01*
X126927000Y-86222690D01*
X126927000Y-81374750D01*
X135058000Y-81374750D01*
X135058000Y-83195310D01*
X135154673Y-83428699D01*
X135333302Y-83607327D01*
X135566691Y-83704000D01*
X137907250Y-83704000D01*
X138066000Y-83545250D01*
X138066000Y-81216000D01*
X135216750Y-81216000D01*
X135058000Y-81374750D01*
X126927000Y-81374750D01*
X126927000Y-73045000D01*
X133400670Y-73045000D01*
X133344628Y-73068156D01*
G36*
X117340000Y-111750000D02*
X117390377Y-112003258D01*
X116790009Y-112002735D01*
X116225629Y-112235932D01*
X115823677Y-112637182D01*
X115424643Y-112237449D01*
X114860670Y-112003267D01*
X114571787Y-112003015D01*
X117340000Y-109234802D01*
X117340000Y-111750000D01*
X117340000Y-111750000D01*
G37*
X117340000Y-111750000D02*
X117390377Y-112003258D01*
X116790009Y-112002735D01*
X116225629Y-112235932D01*
X115823677Y-112637182D01*
X115424643Y-112237449D01*
X114860670Y-112003267D01*
X114571787Y-112003015D01*
X117340000Y-109234802D01*
X117340000Y-111750000D01*
G36*
X115165000Y-98445868D02*
X115165000Y-98708231D01*
X115085378Y-98787714D01*
X114920687Y-99184332D01*
X114920313Y-99613784D01*
X115084311Y-100010689D01*
X115165000Y-100091519D01*
X115165000Y-101808231D01*
X115085378Y-101887714D01*
X114920687Y-102284332D01*
X114920313Y-102713784D01*
X115084311Y-103110689D01*
X115165000Y-103191519D01*
X115165000Y-104708231D01*
X115085378Y-104787714D01*
X114920687Y-105184332D01*
X114920313Y-105613784D01*
X115084311Y-106010689D01*
X115165000Y-106091519D01*
X115165000Y-107608231D01*
X115085378Y-107687714D01*
X114920687Y-108084332D01*
X114920313Y-108513784D01*
X115084311Y-108910689D01*
X115299222Y-109125976D01*
X112746599Y-111678599D01*
X112581852Y-111925161D01*
X112547574Y-112097486D01*
X112320670Y-112003267D01*
X111710009Y-112002735D01*
X111160000Y-112229994D01*
X111160000Y-112214802D01*
X112337401Y-111037401D01*
X112502148Y-110790839D01*
X112560000Y-110500000D01*
X112560000Y-102814802D01*
X113295305Y-102079497D01*
X113513784Y-102079687D01*
X113910689Y-101915689D01*
X114214622Y-101612286D01*
X114379313Y-101215668D01*
X114379687Y-100786216D01*
X114354821Y-100726036D01*
X114360000Y-100700000D01*
X114360000Y-97766638D01*
X114422940Y-97703808D01*
X115165000Y-98445868D01*
X115165000Y-98445868D01*
G37*
X115165000Y-98445868D02*
X115165000Y-98708231D01*
X115085378Y-98787714D01*
X114920687Y-99184332D01*
X114920313Y-99613784D01*
X115084311Y-100010689D01*
X115165000Y-100091519D01*
X115165000Y-101808231D01*
X115085378Y-101887714D01*
X114920687Y-102284332D01*
X114920313Y-102713784D01*
X115084311Y-103110689D01*
X115165000Y-103191519D01*
X115165000Y-104708231D01*
X115085378Y-104787714D01*
X114920687Y-105184332D01*
X114920313Y-105613784D01*
X115084311Y-106010689D01*
X115165000Y-106091519D01*
X115165000Y-107608231D01*
X115085378Y-107687714D01*
X114920687Y-108084332D01*
X114920313Y-108513784D01*
X115084311Y-108910689D01*
X115299222Y-109125976D01*
X112746599Y-111678599D01*
X112581852Y-111925161D01*
X112547574Y-112097486D01*
X112320670Y-112003267D01*
X111710009Y-112002735D01*
X111160000Y-112229994D01*
X111160000Y-112214802D01*
X112337401Y-111037401D01*
X112502148Y-110790839D01*
X112560000Y-110500000D01*
X112560000Y-102814802D01*
X113295305Y-102079497D01*
X113513784Y-102079687D01*
X113910689Y-101915689D01*
X114214622Y-101612286D01*
X114379313Y-101215668D01*
X114379687Y-100786216D01*
X114354821Y-100726036D01*
X114360000Y-100700000D01*
X114360000Y-97766638D01*
X114422940Y-97703808D01*
X115165000Y-98445868D01*
G36*
X121707267Y-91396330D02*
X121707184Y-91491262D01*
X121665501Y-91532945D01*
X121551807Y-91555560D01*
X121367000Y-91555560D01*
X121131683Y-91599838D01*
X120915559Y-91738910D01*
X120770569Y-91951110D01*
X120719560Y-92203000D01*
X120719560Y-92509352D01*
X120544068Y-92084629D01*
X120112643Y-91652449D01*
X119548670Y-91418267D01*
X118938009Y-91417735D01*
X118702610Y-91515000D01*
X118261554Y-91515000D01*
X118123277Y-91376723D01*
X117722614Y-91109009D01*
X117250000Y-91015000D01*
X116250000Y-91015000D01*
X115809807Y-91102560D01*
X115625000Y-91102560D01*
X115389683Y-91146838D01*
X115173559Y-91285910D01*
X115028569Y-91498110D01*
X114977560Y-91750000D01*
X114977560Y-92750000D01*
X115021838Y-92985317D01*
X115160910Y-93201441D01*
X115230711Y-93249134D01*
X115173559Y-93285910D01*
X115028569Y-93498110D01*
X114981402Y-93731030D01*
X114715668Y-93620687D01*
X114601456Y-93620588D01*
X111907868Y-90927000D01*
X121902150Y-90927000D01*
X121707267Y-91396330D01*
X121707267Y-91396330D01*
G37*
X121707267Y-91396330D02*
X121707184Y-91491262D01*
X121665501Y-91532945D01*
X121551807Y-91555560D01*
X121367000Y-91555560D01*
X121131683Y-91599838D01*
X120915559Y-91738910D01*
X120770569Y-91951110D01*
X120719560Y-92203000D01*
X120719560Y-92509352D01*
X120544068Y-92084629D01*
X120112643Y-91652449D01*
X119548670Y-91418267D01*
X118938009Y-91417735D01*
X118702610Y-91515000D01*
X118261554Y-91515000D01*
X118123277Y-91376723D01*
X117722614Y-91109009D01*
X117250000Y-91015000D01*
X116250000Y-91015000D01*
X115809807Y-91102560D01*
X115625000Y-91102560D01*
X115389683Y-91146838D01*
X115173559Y-91285910D01*
X115028569Y-91498110D01*
X114977560Y-91750000D01*
X114977560Y-92750000D01*
X115021838Y-92985317D01*
X115160910Y-93201441D01*
X115230711Y-93249134D01*
X115173559Y-93285910D01*
X115028569Y-93498110D01*
X114981402Y-93731030D01*
X114715668Y-93620687D01*
X114601456Y-93620588D01*
X111907868Y-90927000D01*
X121902150Y-90927000D01*
X121707267Y-91396330D01*
M02*
