G04 #@! TF.FileFunction,Legend,Top*
%FSLAX46Y46*%
G04 Gerber Fmt 4.6, Leading zero omitted, Abs format (unit mm)*
G04 Created by KiCad (PCBNEW 0.201509182047+6202~30~ubuntu14.04.1-product) date Sun 20 Sep 2015 06:38:23 PM PDT*
%MOMM*%
G01*
G04 APERTURE LIST*
%ADD10C,0.100000*%
%ADD11C,0.200000*%
%ADD12C,0.002540*%
G04 APERTURE END LIST*
D10*
X128283333Y-89749999D02*
X128250000Y-89816665D01*
X128250000Y-89949999D01*
X128283333Y-90016665D01*
X128350000Y-90083332D01*
X128416667Y-90116665D01*
X128550000Y-90116665D01*
X128616667Y-90083332D01*
X128683333Y-90016665D01*
X128716667Y-89949999D01*
X128716667Y-89816665D01*
X128683333Y-89749999D01*
X128016667Y-89883332D02*
X128050000Y-90049999D01*
X128150000Y-90216665D01*
X128316667Y-90316665D01*
X128483333Y-90349999D01*
X128650000Y-90316665D01*
X128816667Y-90216665D01*
X128916667Y-90049999D01*
X128950000Y-89883332D01*
X128916667Y-89716665D01*
X128816667Y-89549999D01*
X128650000Y-89449999D01*
X128483333Y-89416665D01*
X128316667Y-89449999D01*
X128150000Y-89549999D01*
X128050000Y-89716665D01*
X128016667Y-89883332D01*
X128183333Y-89149999D02*
X128150000Y-89116665D01*
X128116667Y-89049999D01*
X128116667Y-88883332D01*
X128150000Y-88816665D01*
X128183333Y-88783332D01*
X128250000Y-88749999D01*
X128316667Y-88749999D01*
X128416667Y-88783332D01*
X128816667Y-89183332D01*
X128816667Y-88749999D01*
X128116667Y-88316665D02*
X128116667Y-88249998D01*
X128150000Y-88183332D01*
X128183333Y-88149998D01*
X128250000Y-88116665D01*
X128383333Y-88083332D01*
X128550000Y-88083332D01*
X128683333Y-88116665D01*
X128750000Y-88149998D01*
X128783333Y-88183332D01*
X128816667Y-88249998D01*
X128816667Y-88316665D01*
X128783333Y-88383332D01*
X128750000Y-88416665D01*
X128683333Y-88449998D01*
X128550000Y-88483332D01*
X128383333Y-88483332D01*
X128250000Y-88449998D01*
X128183333Y-88416665D01*
X128150000Y-88383332D01*
X128116667Y-88316665D01*
X128816667Y-87416665D02*
X128816667Y-87816665D01*
X128816667Y-87616665D02*
X128116667Y-87616665D01*
X128216667Y-87683331D01*
X128283333Y-87749998D01*
X128316667Y-87816665D01*
X128116667Y-86783331D02*
X128116667Y-87116664D01*
X128450000Y-87149998D01*
X128416667Y-87116664D01*
X128383333Y-87049998D01*
X128383333Y-86883331D01*
X128416667Y-86816664D01*
X128450000Y-86783331D01*
X128516667Y-86749998D01*
X128683333Y-86749998D01*
X128750000Y-86783331D01*
X128783333Y-86816664D01*
X128816667Y-86883331D01*
X128816667Y-87049998D01*
X128783333Y-87116664D01*
X128750000Y-87149998D01*
X128783333Y-85949998D02*
X128816667Y-85849998D01*
X128816667Y-85683331D01*
X128783333Y-85616664D01*
X128750000Y-85583331D01*
X128683333Y-85549998D01*
X128616667Y-85549998D01*
X128550000Y-85583331D01*
X128516667Y-85616664D01*
X128483333Y-85683331D01*
X128450000Y-85816664D01*
X128416667Y-85883331D01*
X128383333Y-85916664D01*
X128316667Y-85949998D01*
X128250000Y-85949998D01*
X128183333Y-85916664D01*
X128150000Y-85883331D01*
X128116667Y-85816664D01*
X128116667Y-85649998D01*
X128150000Y-85549998D01*
X128816667Y-85149997D02*
X128783333Y-85216664D01*
X128750000Y-85249997D01*
X128683333Y-85283331D01*
X128483333Y-85283331D01*
X128416667Y-85249997D01*
X128383333Y-85216664D01*
X128350000Y-85149997D01*
X128350000Y-85049997D01*
X128383333Y-84983331D01*
X128416667Y-84949997D01*
X128483333Y-84916664D01*
X128683333Y-84916664D01*
X128750000Y-84949997D01*
X128783333Y-84983331D01*
X128816667Y-85049997D01*
X128816667Y-85149997D01*
X128350000Y-84716664D02*
X128350000Y-84449998D01*
X128816667Y-84616664D02*
X128216667Y-84616664D01*
X128150000Y-84583331D01*
X128116667Y-84516664D01*
X128116667Y-84449998D01*
X128350000Y-84316664D02*
X128350000Y-84049998D01*
X128116667Y-84216664D02*
X128716667Y-84216664D01*
X128783333Y-84183331D01*
X128816667Y-84116664D01*
X128816667Y-84049998D01*
X128783333Y-83549998D02*
X128816667Y-83616664D01*
X128816667Y-83749998D01*
X128783333Y-83816664D01*
X128716667Y-83849998D01*
X128450000Y-83849998D01*
X128383333Y-83816664D01*
X128350000Y-83749998D01*
X128350000Y-83616664D01*
X128383333Y-83549998D01*
X128450000Y-83516664D01*
X128516667Y-83516664D01*
X128583333Y-83849998D01*
X128816667Y-83216664D02*
X128350000Y-83216664D01*
X128483333Y-83216664D02*
X128416667Y-83183331D01*
X128383333Y-83149998D01*
X128350000Y-83083331D01*
X128350000Y-83016664D01*
X128816667Y-82783331D02*
X128116667Y-82783331D01*
X128450000Y-82783331D02*
X128450000Y-82383331D01*
X128816667Y-82383331D02*
X128116667Y-82383331D01*
X128816667Y-81749998D02*
X128450000Y-81749998D01*
X128383333Y-81783332D01*
X128350000Y-81849998D01*
X128350000Y-81983332D01*
X128383333Y-82049998D01*
X128783333Y-81749998D02*
X128816667Y-81816665D01*
X128816667Y-81983332D01*
X128783333Y-82049998D01*
X128716667Y-82083332D01*
X128650000Y-82083332D01*
X128583333Y-82049998D01*
X128550000Y-81983332D01*
X128550000Y-81816665D01*
X128516667Y-81749998D01*
X128816667Y-81416665D02*
X128350000Y-81416665D01*
X128483333Y-81416665D02*
X128416667Y-81383332D01*
X128383333Y-81349999D01*
X128350000Y-81283332D01*
X128350000Y-81216665D01*
X128816667Y-80683332D02*
X128116667Y-80683332D01*
X128783333Y-80683332D02*
X128816667Y-80749999D01*
X128816667Y-80883332D01*
X128783333Y-80949999D01*
X128750000Y-80983332D01*
X128683333Y-81016666D01*
X128483333Y-81016666D01*
X128416667Y-80983332D01*
X128383333Y-80949999D01*
X128350000Y-80883332D01*
X128350000Y-80749999D01*
X128383333Y-80683332D01*
X128350000Y-80416666D02*
X128816667Y-80283333D01*
X128483333Y-80149999D01*
X128816667Y-80016666D01*
X128350000Y-79883333D01*
X128816667Y-79316666D02*
X128450000Y-79316666D01*
X128383333Y-79350000D01*
X128350000Y-79416666D01*
X128350000Y-79550000D01*
X128383333Y-79616666D01*
X128783333Y-79316666D02*
X128816667Y-79383333D01*
X128816667Y-79550000D01*
X128783333Y-79616666D01*
X128716667Y-79650000D01*
X128650000Y-79650000D01*
X128583333Y-79616666D01*
X128550000Y-79550000D01*
X128550000Y-79383333D01*
X128516667Y-79316666D01*
X128816667Y-78983333D02*
X128350000Y-78983333D01*
X128483333Y-78983333D02*
X128416667Y-78950000D01*
X128383333Y-78916667D01*
X128350000Y-78850000D01*
X128350000Y-78783333D01*
X128783333Y-78283334D02*
X128816667Y-78350000D01*
X128816667Y-78483334D01*
X128783333Y-78550000D01*
X128716667Y-78583334D01*
X128450000Y-78583334D01*
X128383333Y-78550000D01*
X128350000Y-78483334D01*
X128350000Y-78350000D01*
X128383333Y-78283334D01*
X128450000Y-78250000D01*
X128516667Y-78250000D01*
X128583333Y-78583334D01*
X127516667Y-90233333D02*
X126816667Y-90233333D01*
X127150000Y-90233333D02*
X127150000Y-89833333D01*
X127516667Y-89833333D02*
X126816667Y-89833333D01*
X127483333Y-89233334D02*
X127516667Y-89300000D01*
X127516667Y-89433334D01*
X127483333Y-89500000D01*
X127416667Y-89533334D01*
X127150000Y-89533334D01*
X127083333Y-89500000D01*
X127050000Y-89433334D01*
X127050000Y-89300000D01*
X127083333Y-89233334D01*
X127150000Y-89200000D01*
X127216667Y-89200000D01*
X127283333Y-89533334D01*
X127516667Y-88900000D02*
X127050000Y-88900000D01*
X127183333Y-88900000D02*
X127116667Y-88866667D01*
X127083333Y-88833334D01*
X127050000Y-88766667D01*
X127050000Y-88700000D01*
X127516667Y-88466667D02*
X127050000Y-88466667D01*
X127116667Y-88466667D02*
X127083333Y-88433334D01*
X127050000Y-88366667D01*
X127050000Y-88266667D01*
X127083333Y-88200001D01*
X127150000Y-88166667D01*
X127516667Y-88166667D01*
X127150000Y-88166667D02*
X127083333Y-88133334D01*
X127050000Y-88066667D01*
X127050000Y-87966667D01*
X127083333Y-87900001D01*
X127150000Y-87866667D01*
X127516667Y-87866667D01*
X127483333Y-87266668D02*
X127516667Y-87333334D01*
X127516667Y-87466668D01*
X127483333Y-87533334D01*
X127416667Y-87566668D01*
X127150000Y-87566668D01*
X127083333Y-87533334D01*
X127050000Y-87466668D01*
X127050000Y-87333334D01*
X127083333Y-87266668D01*
X127150000Y-87233334D01*
X127216667Y-87233334D01*
X127283333Y-87566668D01*
X127483333Y-86966668D02*
X127516667Y-86900001D01*
X127516667Y-86766668D01*
X127483333Y-86700001D01*
X127416667Y-86666668D01*
X127383333Y-86666668D01*
X127316667Y-86700001D01*
X127283333Y-86766668D01*
X127283333Y-86866668D01*
X127250000Y-86933334D01*
X127183333Y-86966668D01*
X127150000Y-86966668D01*
X127083333Y-86933334D01*
X127050000Y-86866668D01*
X127050000Y-86766668D01*
X127083333Y-86700001D01*
X127250000Y-86366667D02*
X127250000Y-85833334D01*
X127516667Y-85166667D02*
X127516667Y-85500000D01*
X126816667Y-85500000D01*
X127516667Y-84933333D02*
X127050000Y-84933333D01*
X126816667Y-84933333D02*
X126850000Y-84966667D01*
X126883333Y-84933333D01*
X126850000Y-84900000D01*
X126816667Y-84933333D01*
X126883333Y-84933333D01*
X127050000Y-84700000D02*
X127050000Y-84433334D01*
X126816667Y-84600000D02*
X127416667Y-84600000D01*
X127483333Y-84566667D01*
X127516667Y-84500000D01*
X127516667Y-84433334D01*
X127483333Y-83933334D02*
X127516667Y-84000000D01*
X127516667Y-84133334D01*
X127483333Y-84200000D01*
X127416667Y-84233334D01*
X127150000Y-84233334D01*
X127083333Y-84200000D01*
X127050000Y-84133334D01*
X127050000Y-84000000D01*
X127083333Y-83933334D01*
X127150000Y-83900000D01*
X127216667Y-83900000D01*
X127283333Y-84233334D01*
X127150000Y-82833334D02*
X127183333Y-82733334D01*
X127216667Y-82700001D01*
X127283333Y-82666667D01*
X127383333Y-82666667D01*
X127450000Y-82700001D01*
X127483333Y-82733334D01*
X127516667Y-82800001D01*
X127516667Y-83066667D01*
X126816667Y-83066667D01*
X126816667Y-82833334D01*
X126850000Y-82766667D01*
X126883333Y-82733334D01*
X126950000Y-82700001D01*
X127016667Y-82700001D01*
X127083333Y-82733334D01*
X127116667Y-82766667D01*
X127150000Y-82833334D01*
X127150000Y-83066667D01*
X127516667Y-82066667D02*
X127150000Y-82066667D01*
X127083333Y-82100001D01*
X127050000Y-82166667D01*
X127050000Y-82300001D01*
X127083333Y-82366667D01*
X127483333Y-82066667D02*
X127516667Y-82133334D01*
X127516667Y-82300001D01*
X127483333Y-82366667D01*
X127416667Y-82400001D01*
X127350000Y-82400001D01*
X127283333Y-82366667D01*
X127250000Y-82300001D01*
X127250000Y-82133334D01*
X127216667Y-82066667D01*
X127483333Y-81766668D02*
X127516667Y-81700001D01*
X127516667Y-81566668D01*
X127483333Y-81500001D01*
X127416667Y-81466668D01*
X127383333Y-81466668D01*
X127316667Y-81500001D01*
X127283333Y-81566668D01*
X127283333Y-81666668D01*
X127250000Y-81733334D01*
X127183333Y-81766668D01*
X127150000Y-81766668D01*
X127083333Y-81733334D01*
X127050000Y-81666668D01*
X127050000Y-81566668D01*
X127083333Y-81500001D01*
X127516667Y-81166667D02*
X127050000Y-81166667D01*
X126816667Y-81166667D02*
X126850000Y-81200001D01*
X126883333Y-81166667D01*
X126850000Y-81133334D01*
X126816667Y-81166667D01*
X126883333Y-81166667D01*
X127483333Y-80533334D02*
X127516667Y-80600001D01*
X127516667Y-80733334D01*
X127483333Y-80800001D01*
X127450000Y-80833334D01*
X127383333Y-80866668D01*
X127183333Y-80866668D01*
X127116667Y-80833334D01*
X127083333Y-80800001D01*
X127050000Y-80733334D01*
X127050000Y-80600001D01*
X127083333Y-80533334D01*
X127150000Y-79466668D02*
X127150000Y-79700001D01*
X127516667Y-79700001D02*
X126816667Y-79700001D01*
X126816667Y-79366668D01*
X127516667Y-79100001D02*
X127050000Y-79100001D01*
X127183333Y-79100001D02*
X127116667Y-79066668D01*
X127083333Y-79033335D01*
X127050000Y-78966668D01*
X127050000Y-78900001D01*
X127516667Y-78566668D02*
X127483333Y-78633335D01*
X127450000Y-78666668D01*
X127383333Y-78700002D01*
X127183333Y-78700002D01*
X127116667Y-78666668D01*
X127083333Y-78633335D01*
X127050000Y-78566668D01*
X127050000Y-78466668D01*
X127083333Y-78400002D01*
X127116667Y-78366668D01*
X127183333Y-78333335D01*
X127383333Y-78333335D01*
X127450000Y-78366668D01*
X127483333Y-78400002D01*
X127516667Y-78466668D01*
X127516667Y-78566668D01*
X127050000Y-78033335D02*
X127516667Y-78033335D01*
X127116667Y-78033335D02*
X127083333Y-78000002D01*
X127050000Y-77933335D01*
X127050000Y-77833335D01*
X127083333Y-77766669D01*
X127150000Y-77733335D01*
X127516667Y-77733335D01*
X127050000Y-77500002D02*
X127050000Y-77233336D01*
X126816667Y-77400002D02*
X127416667Y-77400002D01*
X127483333Y-77366669D01*
X127516667Y-77300002D01*
X127516667Y-77233336D01*
X127483333Y-76733336D02*
X127516667Y-76800002D01*
X127516667Y-76933336D01*
X127483333Y-77000002D01*
X127416667Y-77033336D01*
X127150000Y-77033336D01*
X127083333Y-77000002D01*
X127050000Y-76933336D01*
X127050000Y-76800002D01*
X127083333Y-76733336D01*
X127150000Y-76700002D01*
X127216667Y-76700002D01*
X127283333Y-77033336D01*
X127050000Y-76400002D02*
X127516667Y-76400002D01*
X127116667Y-76400002D02*
X127083333Y-76366669D01*
X127050000Y-76300002D01*
X127050000Y-76200002D01*
X127083333Y-76133336D01*
X127150000Y-76100002D01*
X127516667Y-76100002D01*
X127516667Y-75466669D02*
X126816667Y-75466669D01*
X127483333Y-75466669D02*
X127516667Y-75533336D01*
X127516667Y-75666669D01*
X127483333Y-75733336D01*
X127450000Y-75766669D01*
X127383333Y-75800003D01*
X127183333Y-75800003D01*
X127116667Y-75766669D01*
X127083333Y-75733336D01*
X127050000Y-75666669D01*
X127050000Y-75533336D01*
X127083333Y-75466669D01*
X127516667Y-74233337D02*
X127516667Y-74633337D01*
X127516667Y-74433337D02*
X126816667Y-74433337D01*
X126916667Y-74500003D01*
X126983333Y-74566670D01*
X127016667Y-74633337D01*
X127450000Y-73933336D02*
X127483333Y-73900003D01*
X127516667Y-73933336D01*
X127483333Y-73966670D01*
X127450000Y-73933336D01*
X127516667Y-73933336D01*
X126883333Y-73633337D02*
X126850000Y-73600003D01*
X126816667Y-73533337D01*
X126816667Y-73366670D01*
X126850000Y-73300003D01*
X126883333Y-73266670D01*
X126950000Y-73233337D01*
X127016667Y-73233337D01*
X127116667Y-73266670D01*
X127516667Y-73666670D01*
X127516667Y-73233337D01*
D11*
X104900000Y-76320000D02*
X103900000Y-77320000D01*
X103900000Y-77320000D02*
X103900000Y-88080000D01*
X103900000Y-88080000D02*
X116300000Y-88080000D01*
X116300000Y-88080000D02*
X116300000Y-76320000D01*
X116300000Y-76320000D02*
X104900000Y-76320000D01*
D10*
X135509000Y-104267000D02*
X135509000Y-104013000D01*
X135509000Y-104013000D02*
X140843000Y-104013000D01*
X135509000Y-115951000D02*
X135509000Y-116205000D01*
X135509000Y-116205000D02*
X140843000Y-116205000D01*
X135509000Y-104267000D02*
X135509000Y-115951000D01*
X135509000Y-91567000D02*
X135509000Y-91313000D01*
X135509000Y-91313000D02*
X140843000Y-91313000D01*
X135509000Y-103251000D02*
X135509000Y-103505000D01*
X135509000Y-103505000D02*
X140843000Y-103505000D01*
X135509000Y-91567000D02*
X135509000Y-103251000D01*
X135509000Y-78867000D02*
X135509000Y-78613000D01*
X135509000Y-78613000D02*
X140843000Y-78613000D01*
X135509000Y-90551000D02*
X135509000Y-90805000D01*
X135509000Y-90805000D02*
X140843000Y-90805000D01*
X135509000Y-78867000D02*
X135509000Y-90551000D01*
X127314000Y-110586000D02*
X127314000Y-111856000D01*
X127314000Y-111856000D02*
X131886000Y-111856000D01*
X131886000Y-111856000D02*
X131886000Y-107538000D01*
X131886000Y-106014000D02*
X131886000Y-104744000D01*
X131886000Y-104744000D02*
X127314000Y-104744000D01*
X127314000Y-104744000D02*
X127314000Y-109062000D01*
X124786000Y-109036000D02*
X126056000Y-109036000D01*
X126056000Y-109036000D02*
X126056000Y-104464000D01*
X126056000Y-104464000D02*
X121738000Y-104464000D01*
X120214000Y-104464000D02*
X118944000Y-104464000D01*
X118944000Y-104464000D02*
X118944000Y-109036000D01*
X118944000Y-109036000D02*
X123262000Y-109036000D01*
X134086000Y-89314000D02*
X134086000Y-88044000D01*
X134086000Y-88044000D02*
X129514000Y-88044000D01*
X129514000Y-88044000D02*
X129514000Y-92362000D01*
X129514000Y-93886000D02*
X129514000Y-95156000D01*
X129514000Y-95156000D02*
X134086000Y-95156000D01*
X134086000Y-95156000D02*
X134086000Y-90838000D01*
X127028000Y-95489000D02*
X128298000Y-95489000D01*
X128298000Y-95489000D02*
X128298000Y-90917000D01*
X128298000Y-90917000D02*
X123980000Y-90917000D01*
X122456000Y-90917000D02*
X121186000Y-90917000D01*
X121186000Y-90917000D02*
X121186000Y-95489000D01*
X121186000Y-95489000D02*
X125504000Y-95489000D01*
X120028000Y-92167000D02*
X120028000Y-90897000D01*
X120028000Y-90897000D02*
X115456000Y-90897000D01*
X115456000Y-90897000D02*
X115456000Y-95215000D01*
X115456000Y-96739000D02*
X115456000Y-98009000D01*
X115456000Y-98009000D02*
X120028000Y-98009000D01*
X120028000Y-98009000D02*
X120028000Y-93691000D01*
X113451040Y-108750380D02*
X112048960Y-108750380D01*
X113451040Y-109149160D02*
X113451040Y-107350840D01*
X113451040Y-107350840D02*
X112048960Y-107350840D01*
X112048960Y-107350840D02*
X112048960Y-109149160D01*
X112048960Y-109149160D02*
X113451040Y-109149160D01*
X110744000Y-114808000D02*
X120904000Y-114808000D01*
X120904000Y-114808000D02*
X120904000Y-117348000D01*
X120904000Y-117348000D02*
X110744000Y-117348000D01*
X110744000Y-116078000D02*
X110744000Y-117348000D01*
X110744000Y-114808000D02*
X110744000Y-116078000D01*
X111250000Y-106350000D02*
X112250000Y-106350000D01*
X112250000Y-104650000D02*
X111250000Y-104650000D01*
X113300000Y-104350000D02*
X114300000Y-104350000D01*
X114300000Y-102650000D02*
X113300000Y-102650000D01*
X101750000Y-95800000D02*
X101750000Y-94800000D01*
X100050000Y-94800000D02*
X100050000Y-95800000D01*
X134104000Y-83986000D02*
X133104000Y-83986000D01*
X133104000Y-85686000D02*
X134104000Y-85686000D01*
X133750000Y-96650000D02*
X132750000Y-96650000D01*
X132750000Y-98350000D02*
X133750000Y-98350000D01*
X134200000Y-109150000D02*
X133200000Y-109150000D01*
X133200000Y-110850000D02*
X134200000Y-110850000D01*
X118803000Y-73730000D02*
X124137000Y-73730000D01*
X124137000Y-88970000D02*
X118803000Y-88970000D01*
X118803000Y-73730000D02*
X118803000Y-88970000D01*
X124137000Y-88970000D02*
X124137000Y-73730000D01*
X110744000Y-112268000D02*
X120904000Y-112268000D01*
X120904000Y-112268000D02*
X120904000Y-114808000D01*
X120904000Y-114808000D02*
X110744000Y-114808000D01*
X110744000Y-113538000D02*
X110744000Y-114808000D01*
X110744000Y-112268000D02*
X110744000Y-113538000D01*
X120904000Y-119888000D02*
X110744000Y-119888000D01*
X110744000Y-119888000D02*
X110744000Y-117348000D01*
X110744000Y-117348000D02*
X120904000Y-117348000D01*
X120904000Y-118618000D02*
X120904000Y-117348000D01*
X120904000Y-119888000D02*
X120904000Y-118618000D01*
X113837500Y-97091500D02*
X112631000Y-97091500D01*
X113202500Y-94678500D02*
X112631000Y-95250000D01*
X112631000Y-97091500D02*
X112631000Y-94678500D01*
X112631000Y-94678500D02*
X113837500Y-94678500D01*
X113837500Y-94678500D02*
X113837500Y-97091500D01*
X112958500Y-99787500D02*
X112958500Y-98581000D01*
X115371500Y-99152500D02*
X114800000Y-98581000D01*
X112958500Y-98581000D02*
X115371500Y-98581000D01*
X115371500Y-98581000D02*
X115371500Y-99787500D01*
X115371500Y-99787500D02*
X112958500Y-99787500D01*
X116612500Y-100058500D02*
X117819000Y-100058500D01*
X117247500Y-102471500D02*
X117819000Y-101900000D01*
X117819000Y-100058500D02*
X117819000Y-102471500D01*
X117819000Y-102471500D02*
X116612500Y-102471500D01*
X116612500Y-102471500D02*
X116612500Y-100058500D01*
X116612500Y-102958500D02*
X117819000Y-102958500D01*
X117247500Y-105371500D02*
X117819000Y-104800000D01*
X117819000Y-102958500D02*
X117819000Y-105371500D01*
X117819000Y-105371500D02*
X116612500Y-105371500D01*
X116612500Y-105371500D02*
X116612500Y-102958500D01*
X116612500Y-105858500D02*
X117819000Y-105858500D01*
X117247500Y-108271500D02*
X117819000Y-107700000D01*
X117819000Y-105858500D02*
X117819000Y-108271500D01*
X117819000Y-108271500D02*
X116612500Y-108271500D01*
X116612500Y-108271500D02*
X116612500Y-105858500D01*
X109941000Y-103190000D02*
X101686000Y-103190000D01*
X101686000Y-110810000D02*
X109941000Y-110810000D01*
X101686000Y-110810000D02*
X101686000Y-103190000D01*
X109941000Y-110810000D02*
X109941000Y-103190000D01*
X111441000Y-94440000D02*
X103186000Y-94440000D01*
X103186000Y-102060000D02*
X111441000Y-102060000D01*
X103186000Y-102060000D02*
X103186000Y-94440000D01*
X111441000Y-102060000D02*
X111441000Y-94440000D01*
D12*
G36*
X131396620Y-81404520D02*
X131391540Y-81394360D01*
X131376300Y-81371500D01*
X131355980Y-81338480D01*
X131328040Y-81297840D01*
X131302640Y-81259740D01*
X131279780Y-81226720D01*
X131264540Y-81203860D01*
X131259460Y-81193700D01*
X131262000Y-81188620D01*
X131272160Y-81170840D01*
X131284860Y-81142900D01*
X131292480Y-81127660D01*
X131305180Y-81102260D01*
X131307720Y-81089560D01*
X131302640Y-81087020D01*
X131284860Y-81076860D01*
X131251840Y-81064160D01*
X131208660Y-81043840D01*
X131157860Y-81023520D01*
X131101980Y-81000660D01*
X131046100Y-80977800D01*
X130992760Y-80954940D01*
X130944500Y-80934620D01*
X130906400Y-80919380D01*
X130878460Y-80909220D01*
X130868300Y-80904140D01*
X130865760Y-80906680D01*
X130853060Y-80919380D01*
X130837820Y-80939700D01*
X130797180Y-80987960D01*
X130738760Y-81033680D01*
X130672720Y-81064160D01*
X130599060Y-81071780D01*
X130533020Y-81064160D01*
X130469520Y-81038760D01*
X130408560Y-80993040D01*
X130365380Y-80937160D01*
X130337440Y-80871120D01*
X130329820Y-80800000D01*
X130337440Y-80731420D01*
X130362840Y-80665380D01*
X130408560Y-80604420D01*
X130436500Y-80581560D01*
X130497460Y-80546000D01*
X130558420Y-80525680D01*
X130573660Y-80525680D01*
X130644780Y-80528220D01*
X130713360Y-80548540D01*
X130771780Y-80584100D01*
X130822580Y-80637440D01*
X130827660Y-80642520D01*
X130845440Y-80667920D01*
X130855600Y-80683160D01*
X130865760Y-80695860D01*
X131081660Y-80606960D01*
X131117220Y-80591720D01*
X131175640Y-80566320D01*
X131226440Y-80546000D01*
X131267080Y-80528220D01*
X131292480Y-80515520D01*
X131305180Y-80510440D01*
X131305180Y-80510440D01*
X131305180Y-80502820D01*
X131300100Y-80487580D01*
X131284860Y-80457100D01*
X131274700Y-80436780D01*
X131264540Y-80413920D01*
X131259460Y-80403760D01*
X131264540Y-80393600D01*
X131279780Y-80373280D01*
X131300100Y-80340260D01*
X131325500Y-80302160D01*
X131350900Y-80266600D01*
X131373760Y-80231040D01*
X131389000Y-80208180D01*
X131396620Y-80195480D01*
X131396620Y-80192940D01*
X131389000Y-80182780D01*
X131373760Y-80162460D01*
X131345820Y-80134520D01*
X131305180Y-80093880D01*
X131300100Y-80086260D01*
X131264540Y-80053240D01*
X131234060Y-80025300D01*
X131213740Y-80004980D01*
X131206120Y-79999900D01*
X131206120Y-79999900D01*
X131193420Y-80004980D01*
X131168020Y-80020220D01*
X131135000Y-80043080D01*
X131094360Y-80071020D01*
X130990220Y-80142140D01*
X130893700Y-80101500D01*
X130863220Y-80091340D01*
X130827660Y-80076100D01*
X130802260Y-80063400D01*
X130789560Y-80058320D01*
X130787020Y-80048160D01*
X130779400Y-80020220D01*
X130771780Y-79982120D01*
X130764160Y-79936400D01*
X130754000Y-79890680D01*
X130746380Y-79852580D01*
X130741300Y-79822100D01*
X130738760Y-79809400D01*
X130736220Y-79806860D01*
X130731140Y-79804320D01*
X130718440Y-79801780D01*
X130693040Y-79801780D01*
X130654940Y-79801780D01*
X130599060Y-79801780D01*
X130593980Y-79801780D01*
X130540640Y-79801780D01*
X130500000Y-79801780D01*
X130474600Y-79804320D01*
X130464440Y-79806860D01*
X130464440Y-79806860D01*
X130459360Y-79819560D01*
X130454280Y-79847500D01*
X130446660Y-79885600D01*
X130436500Y-79933860D01*
X130436500Y-79936400D01*
X130428880Y-79984660D01*
X130418720Y-80022760D01*
X130413640Y-80050700D01*
X130408560Y-80063400D01*
X130406020Y-80065940D01*
X130388240Y-80076100D01*
X130357760Y-80088800D01*
X130322200Y-80104040D01*
X130286640Y-80119280D01*
X130251080Y-80134520D01*
X130228220Y-80142140D01*
X130215520Y-80144680D01*
X130215520Y-80144680D01*
X130205360Y-80137060D01*
X130179960Y-80121820D01*
X130146940Y-80098960D01*
X130106300Y-80071020D01*
X130101220Y-80068480D01*
X130063120Y-80040540D01*
X130027560Y-80020220D01*
X130004700Y-80004980D01*
X129994540Y-79999900D01*
X129992000Y-79999900D01*
X129981840Y-80007520D01*
X129958980Y-80027840D01*
X129928500Y-80058320D01*
X129892940Y-80093880D01*
X129882780Y-80104040D01*
X129844680Y-80142140D01*
X129819280Y-80170080D01*
X129806580Y-80187860D01*
X129801500Y-80195480D01*
X129804040Y-80195480D01*
X129809120Y-80208180D01*
X129826900Y-80233580D01*
X129849760Y-80266600D01*
X129877700Y-80307240D01*
X129880240Y-80309780D01*
X129905640Y-80350420D01*
X129928500Y-80383440D01*
X129943740Y-80406300D01*
X129951360Y-80416460D01*
X129951360Y-80419000D01*
X129946280Y-80434240D01*
X129936120Y-80464720D01*
X129923420Y-80497740D01*
X129908180Y-80535840D01*
X129892940Y-80568860D01*
X129882780Y-80594260D01*
X129875160Y-80606960D01*
X129875160Y-80606960D01*
X129859920Y-80612040D01*
X129829440Y-80617120D01*
X129788800Y-80627280D01*
X129740540Y-80634900D01*
X129732920Y-80637440D01*
X129684660Y-80645060D01*
X129646560Y-80652680D01*
X129618620Y-80660300D01*
X129605920Y-80662840D01*
X129605920Y-80667920D01*
X129603380Y-80693320D01*
X129603380Y-80728880D01*
X129603380Y-80772060D01*
X129603380Y-80815240D01*
X129603380Y-80858420D01*
X129605920Y-80896520D01*
X129605920Y-80921920D01*
X129608460Y-80934620D01*
X129611000Y-80934620D01*
X129623700Y-80939700D01*
X129654180Y-80944780D01*
X129694820Y-80954940D01*
X129745620Y-80962560D01*
X129753240Y-80965100D01*
X129801500Y-80972720D01*
X129839600Y-80982880D01*
X129867540Y-80987960D01*
X129877700Y-80990500D01*
X129880240Y-80995580D01*
X129887860Y-81013360D01*
X129900560Y-81046380D01*
X129918340Y-81087020D01*
X129953900Y-81178460D01*
X129877700Y-81290220D01*
X129870080Y-81300380D01*
X129842140Y-81341020D01*
X129821820Y-81374040D01*
X129806580Y-81396900D01*
X129801500Y-81407060D01*
X129801500Y-81407060D01*
X129811660Y-81417220D01*
X129831980Y-81440080D01*
X129862460Y-81470560D01*
X129895480Y-81506120D01*
X129923420Y-81531520D01*
X129953900Y-81562000D01*
X129974220Y-81582320D01*
X129989460Y-81592480D01*
X129997080Y-81597560D01*
X130002160Y-81595020D01*
X130014860Y-81589940D01*
X130037720Y-81572160D01*
X130073280Y-81549300D01*
X130111380Y-81521360D01*
X130146940Y-81498500D01*
X130182500Y-81475640D01*
X130210440Y-81460400D01*
X130223140Y-81452780D01*
X130228220Y-81455320D01*
X130251080Y-81462940D01*
X130284100Y-81475640D01*
X130324740Y-81493420D01*
X130413640Y-81531520D01*
X130423800Y-81589940D01*
X130431420Y-81625500D01*
X130439040Y-81676300D01*
X130449200Y-81722020D01*
X130464440Y-81795680D01*
X130731140Y-81798220D01*
X130736220Y-81788060D01*
X130741300Y-81775360D01*
X130746380Y-81749960D01*
X130754000Y-81709320D01*
X130761620Y-81663600D01*
X130769240Y-81625500D01*
X130776860Y-81584860D01*
X130781940Y-81556920D01*
X130784480Y-81544220D01*
X130789560Y-81541680D01*
X130809880Y-81531520D01*
X130840360Y-81516280D01*
X130875920Y-81501040D01*
X130914020Y-81485800D01*
X130949580Y-81473100D01*
X130974980Y-81462940D01*
X130990220Y-81457860D01*
X131000380Y-81462940D01*
X131023240Y-81478180D01*
X131056260Y-81501040D01*
X131094360Y-81526440D01*
X131135000Y-81554380D01*
X131168020Y-81577240D01*
X131193420Y-81592480D01*
X131203580Y-81600100D01*
X131211200Y-81595020D01*
X131228980Y-81579780D01*
X131259460Y-81551840D01*
X131305180Y-81506120D01*
X131310260Y-81498500D01*
X131345820Y-81465480D01*
X131371220Y-81435000D01*
X131391540Y-81414680D01*
X131396620Y-81404520D01*
X131396620Y-81404520D01*
G37*
X131396620Y-81404520D02*
X131391540Y-81394360D01*
X131376300Y-81371500D01*
X131355980Y-81338480D01*
X131328040Y-81297840D01*
X131302640Y-81259740D01*
X131279780Y-81226720D01*
X131264540Y-81203860D01*
X131259460Y-81193700D01*
X131262000Y-81188620D01*
X131272160Y-81170840D01*
X131284860Y-81142900D01*
X131292480Y-81127660D01*
X131305180Y-81102260D01*
X131307720Y-81089560D01*
X131302640Y-81087020D01*
X131284860Y-81076860D01*
X131251840Y-81064160D01*
X131208660Y-81043840D01*
X131157860Y-81023520D01*
X131101980Y-81000660D01*
X131046100Y-80977800D01*
X130992760Y-80954940D01*
X130944500Y-80934620D01*
X130906400Y-80919380D01*
X130878460Y-80909220D01*
X130868300Y-80904140D01*
X130865760Y-80906680D01*
X130853060Y-80919380D01*
X130837820Y-80939700D01*
X130797180Y-80987960D01*
X130738760Y-81033680D01*
X130672720Y-81064160D01*
X130599060Y-81071780D01*
X130533020Y-81064160D01*
X130469520Y-81038760D01*
X130408560Y-80993040D01*
X130365380Y-80937160D01*
X130337440Y-80871120D01*
X130329820Y-80800000D01*
X130337440Y-80731420D01*
X130362840Y-80665380D01*
X130408560Y-80604420D01*
X130436500Y-80581560D01*
X130497460Y-80546000D01*
X130558420Y-80525680D01*
X130573660Y-80525680D01*
X130644780Y-80528220D01*
X130713360Y-80548540D01*
X130771780Y-80584100D01*
X130822580Y-80637440D01*
X130827660Y-80642520D01*
X130845440Y-80667920D01*
X130855600Y-80683160D01*
X130865760Y-80695860D01*
X131081660Y-80606960D01*
X131117220Y-80591720D01*
X131175640Y-80566320D01*
X131226440Y-80546000D01*
X131267080Y-80528220D01*
X131292480Y-80515520D01*
X131305180Y-80510440D01*
X131305180Y-80510440D01*
X131305180Y-80502820D01*
X131300100Y-80487580D01*
X131284860Y-80457100D01*
X131274700Y-80436780D01*
X131264540Y-80413920D01*
X131259460Y-80403760D01*
X131264540Y-80393600D01*
X131279780Y-80373280D01*
X131300100Y-80340260D01*
X131325500Y-80302160D01*
X131350900Y-80266600D01*
X131373760Y-80231040D01*
X131389000Y-80208180D01*
X131396620Y-80195480D01*
X131396620Y-80192940D01*
X131389000Y-80182780D01*
X131373760Y-80162460D01*
X131345820Y-80134520D01*
X131305180Y-80093880D01*
X131300100Y-80086260D01*
X131264540Y-80053240D01*
X131234060Y-80025300D01*
X131213740Y-80004980D01*
X131206120Y-79999900D01*
X131206120Y-79999900D01*
X131193420Y-80004980D01*
X131168020Y-80020220D01*
X131135000Y-80043080D01*
X131094360Y-80071020D01*
X130990220Y-80142140D01*
X130893700Y-80101500D01*
X130863220Y-80091340D01*
X130827660Y-80076100D01*
X130802260Y-80063400D01*
X130789560Y-80058320D01*
X130787020Y-80048160D01*
X130779400Y-80020220D01*
X130771780Y-79982120D01*
X130764160Y-79936400D01*
X130754000Y-79890680D01*
X130746380Y-79852580D01*
X130741300Y-79822100D01*
X130738760Y-79809400D01*
X130736220Y-79806860D01*
X130731140Y-79804320D01*
X130718440Y-79801780D01*
X130693040Y-79801780D01*
X130654940Y-79801780D01*
X130599060Y-79801780D01*
X130593980Y-79801780D01*
X130540640Y-79801780D01*
X130500000Y-79801780D01*
X130474600Y-79804320D01*
X130464440Y-79806860D01*
X130464440Y-79806860D01*
X130459360Y-79819560D01*
X130454280Y-79847500D01*
X130446660Y-79885600D01*
X130436500Y-79933860D01*
X130436500Y-79936400D01*
X130428880Y-79984660D01*
X130418720Y-80022760D01*
X130413640Y-80050700D01*
X130408560Y-80063400D01*
X130406020Y-80065940D01*
X130388240Y-80076100D01*
X130357760Y-80088800D01*
X130322200Y-80104040D01*
X130286640Y-80119280D01*
X130251080Y-80134520D01*
X130228220Y-80142140D01*
X130215520Y-80144680D01*
X130215520Y-80144680D01*
X130205360Y-80137060D01*
X130179960Y-80121820D01*
X130146940Y-80098960D01*
X130106300Y-80071020D01*
X130101220Y-80068480D01*
X130063120Y-80040540D01*
X130027560Y-80020220D01*
X130004700Y-80004980D01*
X129994540Y-79999900D01*
X129992000Y-79999900D01*
X129981840Y-80007520D01*
X129958980Y-80027840D01*
X129928500Y-80058320D01*
X129892940Y-80093880D01*
X129882780Y-80104040D01*
X129844680Y-80142140D01*
X129819280Y-80170080D01*
X129806580Y-80187860D01*
X129801500Y-80195480D01*
X129804040Y-80195480D01*
X129809120Y-80208180D01*
X129826900Y-80233580D01*
X129849760Y-80266600D01*
X129877700Y-80307240D01*
X129880240Y-80309780D01*
X129905640Y-80350420D01*
X129928500Y-80383440D01*
X129943740Y-80406300D01*
X129951360Y-80416460D01*
X129951360Y-80419000D01*
X129946280Y-80434240D01*
X129936120Y-80464720D01*
X129923420Y-80497740D01*
X129908180Y-80535840D01*
X129892940Y-80568860D01*
X129882780Y-80594260D01*
X129875160Y-80606960D01*
X129875160Y-80606960D01*
X129859920Y-80612040D01*
X129829440Y-80617120D01*
X129788800Y-80627280D01*
X129740540Y-80634900D01*
X129732920Y-80637440D01*
X129684660Y-80645060D01*
X129646560Y-80652680D01*
X129618620Y-80660300D01*
X129605920Y-80662840D01*
X129605920Y-80667920D01*
X129603380Y-80693320D01*
X129603380Y-80728880D01*
X129603380Y-80772060D01*
X129603380Y-80815240D01*
X129603380Y-80858420D01*
X129605920Y-80896520D01*
X129605920Y-80921920D01*
X129608460Y-80934620D01*
X129611000Y-80934620D01*
X129623700Y-80939700D01*
X129654180Y-80944780D01*
X129694820Y-80954940D01*
X129745620Y-80962560D01*
X129753240Y-80965100D01*
X129801500Y-80972720D01*
X129839600Y-80982880D01*
X129867540Y-80987960D01*
X129877700Y-80990500D01*
X129880240Y-80995580D01*
X129887860Y-81013360D01*
X129900560Y-81046380D01*
X129918340Y-81087020D01*
X129953900Y-81178460D01*
X129877700Y-81290220D01*
X129870080Y-81300380D01*
X129842140Y-81341020D01*
X129821820Y-81374040D01*
X129806580Y-81396900D01*
X129801500Y-81407060D01*
X129801500Y-81407060D01*
X129811660Y-81417220D01*
X129831980Y-81440080D01*
X129862460Y-81470560D01*
X129895480Y-81506120D01*
X129923420Y-81531520D01*
X129953900Y-81562000D01*
X129974220Y-81582320D01*
X129989460Y-81592480D01*
X129997080Y-81597560D01*
X130002160Y-81595020D01*
X130014860Y-81589940D01*
X130037720Y-81572160D01*
X130073280Y-81549300D01*
X130111380Y-81521360D01*
X130146940Y-81498500D01*
X130182500Y-81475640D01*
X130210440Y-81460400D01*
X130223140Y-81452780D01*
X130228220Y-81455320D01*
X130251080Y-81462940D01*
X130284100Y-81475640D01*
X130324740Y-81493420D01*
X130413640Y-81531520D01*
X130423800Y-81589940D01*
X130431420Y-81625500D01*
X130439040Y-81676300D01*
X130449200Y-81722020D01*
X130464440Y-81795680D01*
X130731140Y-81798220D01*
X130736220Y-81788060D01*
X130741300Y-81775360D01*
X130746380Y-81749960D01*
X130754000Y-81709320D01*
X130761620Y-81663600D01*
X130769240Y-81625500D01*
X130776860Y-81584860D01*
X130781940Y-81556920D01*
X130784480Y-81544220D01*
X130789560Y-81541680D01*
X130809880Y-81531520D01*
X130840360Y-81516280D01*
X130875920Y-81501040D01*
X130914020Y-81485800D01*
X130949580Y-81473100D01*
X130974980Y-81462940D01*
X130990220Y-81457860D01*
X131000380Y-81462940D01*
X131023240Y-81478180D01*
X131056260Y-81501040D01*
X131094360Y-81526440D01*
X131135000Y-81554380D01*
X131168020Y-81577240D01*
X131193420Y-81592480D01*
X131203580Y-81600100D01*
X131211200Y-81595020D01*
X131228980Y-81579780D01*
X131259460Y-81551840D01*
X131305180Y-81506120D01*
X131310260Y-81498500D01*
X131345820Y-81465480D01*
X131371220Y-81435000D01*
X131391540Y-81414680D01*
X131396620Y-81404520D01*
D10*
X109566667Y-75216667D02*
X109566667Y-75783333D01*
X109600000Y-75850000D01*
X109633333Y-75883333D01*
X109700000Y-75916667D01*
X109833333Y-75916667D01*
X109900000Y-75883333D01*
X109933333Y-75850000D01*
X109966667Y-75783333D01*
X109966667Y-75216667D01*
X110600000Y-75216667D02*
X110466666Y-75216667D01*
X110400000Y-75250000D01*
X110366666Y-75283333D01*
X110300000Y-75383333D01*
X110266666Y-75516667D01*
X110266666Y-75783333D01*
X110300000Y-75850000D01*
X110333333Y-75883333D01*
X110400000Y-75916667D01*
X110533333Y-75916667D01*
X110600000Y-75883333D01*
X110633333Y-75850000D01*
X110666666Y-75783333D01*
X110666666Y-75616667D01*
X110633333Y-75550000D01*
X110600000Y-75516667D01*
X110533333Y-75483333D01*
X110400000Y-75483333D01*
X110333333Y-75516667D01*
X110300000Y-75550000D01*
X110266666Y-75616667D01*
X134183334Y-104716667D02*
X134183334Y-104016667D01*
X134450000Y-104016667D01*
X134516667Y-104050000D01*
X134550000Y-104083333D01*
X134583334Y-104150000D01*
X134583334Y-104250000D01*
X134550000Y-104316667D01*
X134516667Y-104350000D01*
X134450000Y-104383333D01*
X134183334Y-104383333D01*
X134816667Y-104016667D02*
X135250000Y-104016667D01*
X135016667Y-104283333D01*
X135116667Y-104283333D01*
X135183334Y-104316667D01*
X135216667Y-104350000D01*
X135250000Y-104416667D01*
X135250000Y-104583333D01*
X135216667Y-104650000D01*
X135183334Y-104683333D01*
X135116667Y-104716667D01*
X134916667Y-104716667D01*
X134850000Y-104683333D01*
X134816667Y-104650000D01*
X134183334Y-102416667D02*
X134183334Y-101716667D01*
X134450000Y-101716667D01*
X134516667Y-101750000D01*
X134550000Y-101783333D01*
X134583334Y-101850000D01*
X134583334Y-101950000D01*
X134550000Y-102016667D01*
X134516667Y-102050000D01*
X134450000Y-102083333D01*
X134183334Y-102083333D01*
X134850000Y-101783333D02*
X134883334Y-101750000D01*
X134950000Y-101716667D01*
X135116667Y-101716667D01*
X135183334Y-101750000D01*
X135216667Y-101783333D01*
X135250000Y-101850000D01*
X135250000Y-101916667D01*
X135216667Y-102016667D01*
X134816667Y-102416667D01*
X135250000Y-102416667D01*
X134283334Y-81016667D02*
X134283334Y-80316667D01*
X134550000Y-80316667D01*
X134616667Y-80350000D01*
X134650000Y-80383333D01*
X134683334Y-80450000D01*
X134683334Y-80550000D01*
X134650000Y-80616667D01*
X134616667Y-80650000D01*
X134550000Y-80683333D01*
X134283334Y-80683333D01*
X135350000Y-81016667D02*
X134950000Y-81016667D01*
X135150000Y-81016667D02*
X135150000Y-80316667D01*
X135083334Y-80416667D01*
X135016667Y-80483333D01*
X134950000Y-80516667D01*
X131183333Y-104516667D02*
X130850000Y-104516667D01*
X130850000Y-103816667D01*
X131750000Y-103816667D02*
X131416667Y-103816667D01*
X131383333Y-104150000D01*
X131416667Y-104116667D01*
X131483333Y-104083333D01*
X131650000Y-104083333D01*
X131716667Y-104116667D01*
X131750000Y-104150000D01*
X131783333Y-104216667D01*
X131783333Y-104383333D01*
X131750000Y-104450000D01*
X131716667Y-104483333D01*
X131650000Y-104516667D01*
X131483333Y-104516667D01*
X131416667Y-104483333D01*
X131383333Y-104450000D01*
X125383333Y-104216667D02*
X125050000Y-104216667D01*
X125050000Y-103516667D01*
X125916667Y-103750000D02*
X125916667Y-104216667D01*
X125750000Y-103483333D02*
X125583333Y-103983333D01*
X126016667Y-103983333D01*
X129983333Y-87716667D02*
X129650000Y-87716667D01*
X129650000Y-87016667D01*
X130150000Y-87016667D02*
X130583333Y-87016667D01*
X130350000Y-87283333D01*
X130450000Y-87283333D01*
X130516667Y-87316667D01*
X130550000Y-87350000D01*
X130583333Y-87416667D01*
X130583333Y-87583333D01*
X130550000Y-87650000D01*
X130516667Y-87683333D01*
X130450000Y-87716667D01*
X130250000Y-87716667D01*
X130183333Y-87683333D01*
X130150000Y-87650000D01*
X121583333Y-90516667D02*
X121250000Y-90516667D01*
X121250000Y-89816667D01*
X121783333Y-89883333D02*
X121816667Y-89850000D01*
X121883333Y-89816667D01*
X122050000Y-89816667D01*
X122116667Y-89850000D01*
X122150000Y-89883333D01*
X122183333Y-89950000D01*
X122183333Y-90016667D01*
X122150000Y-90116667D01*
X121750000Y-90516667D01*
X122183333Y-90516667D01*
X115983333Y-90516667D02*
X115650000Y-90516667D01*
X115650000Y-89816667D01*
X116583333Y-90516667D02*
X116183333Y-90516667D01*
X116383333Y-90516667D02*
X116383333Y-89816667D01*
X116316667Y-89916667D01*
X116250000Y-89983333D01*
X116183333Y-90016667D01*
X110783334Y-108516667D02*
X110783334Y-107816667D01*
X110950000Y-107816667D01*
X111050000Y-107850000D01*
X111116667Y-107916667D01*
X111150000Y-107983333D01*
X111183334Y-108116667D01*
X111183334Y-108216667D01*
X111150000Y-108350000D01*
X111116667Y-108416667D01*
X111050000Y-108483333D01*
X110950000Y-108516667D01*
X110783334Y-108516667D01*
X111850000Y-108516667D02*
X111450000Y-108516667D01*
X111650000Y-108516667D02*
X111650000Y-107816667D01*
X111583334Y-107916667D01*
X111516667Y-107983333D01*
X111450000Y-108016667D01*
X109116667Y-116250000D02*
X109083333Y-116283333D01*
X108983333Y-116316667D01*
X108916667Y-116316667D01*
X108816667Y-116283333D01*
X108750000Y-116216667D01*
X108716667Y-116150000D01*
X108683333Y-116016667D01*
X108683333Y-115916667D01*
X108716667Y-115783333D01*
X108750000Y-115716667D01*
X108816667Y-115650000D01*
X108916667Y-115616667D01*
X108983333Y-115616667D01*
X109083333Y-115650000D01*
X109116667Y-115683333D01*
X109416667Y-116316667D02*
X109416667Y-115616667D01*
X109816667Y-116316667D01*
X109816667Y-115616667D01*
X110083333Y-115616667D02*
X110516666Y-115616667D01*
X110283333Y-115883333D01*
X110383333Y-115883333D01*
X110450000Y-115916667D01*
X110483333Y-115950000D01*
X110516666Y-116016667D01*
X110516666Y-116183333D01*
X110483333Y-116250000D01*
X110450000Y-116283333D01*
X110383333Y-116316667D01*
X110183333Y-116316667D01*
X110116666Y-116283333D01*
X110083333Y-116250000D01*
X111283334Y-104350000D02*
X111250000Y-104383333D01*
X111150000Y-104416667D01*
X111083334Y-104416667D01*
X110983334Y-104383333D01*
X110916667Y-104316667D01*
X110883334Y-104250000D01*
X110850000Y-104116667D01*
X110850000Y-104016667D01*
X110883334Y-103883333D01*
X110916667Y-103816667D01*
X110983334Y-103750000D01*
X111083334Y-103716667D01*
X111150000Y-103716667D01*
X111250000Y-103750000D01*
X111283334Y-103783333D01*
X111616667Y-104416667D02*
X111750000Y-104416667D01*
X111816667Y-104383333D01*
X111850000Y-104350000D01*
X111916667Y-104250000D01*
X111950000Y-104116667D01*
X111950000Y-103850000D01*
X111916667Y-103783333D01*
X111883334Y-103750000D01*
X111816667Y-103716667D01*
X111683334Y-103716667D01*
X111616667Y-103750000D01*
X111583334Y-103783333D01*
X111550000Y-103850000D01*
X111550000Y-104016667D01*
X111583334Y-104083333D01*
X111616667Y-104116667D01*
X111683334Y-104150000D01*
X111816667Y-104150000D01*
X111883334Y-104116667D01*
X111916667Y-104083333D01*
X111950000Y-104016667D01*
X113050000Y-102450000D02*
X113016666Y-102483333D01*
X112916666Y-102516667D01*
X112850000Y-102516667D01*
X112750000Y-102483333D01*
X112683333Y-102416667D01*
X112650000Y-102350000D01*
X112616666Y-102216667D01*
X112616666Y-102116667D01*
X112650000Y-101983333D01*
X112683333Y-101916667D01*
X112750000Y-101850000D01*
X112850000Y-101816667D01*
X112916666Y-101816667D01*
X113016666Y-101850000D01*
X113050000Y-101883333D01*
X113716666Y-102516667D02*
X113316666Y-102516667D01*
X113516666Y-102516667D02*
X113516666Y-101816667D01*
X113450000Y-101916667D01*
X113383333Y-101983333D01*
X113316666Y-102016667D01*
X114150000Y-101816667D02*
X114216667Y-101816667D01*
X114283333Y-101850000D01*
X114316667Y-101883333D01*
X114350000Y-101950000D01*
X114383333Y-102083333D01*
X114383333Y-102250000D01*
X114350000Y-102383333D01*
X114316667Y-102450000D01*
X114283333Y-102483333D01*
X114216667Y-102516667D01*
X114150000Y-102516667D01*
X114083333Y-102483333D01*
X114050000Y-102450000D01*
X114016667Y-102383333D01*
X113983333Y-102250000D01*
X113983333Y-102083333D01*
X114016667Y-101950000D01*
X114050000Y-101883333D01*
X114083333Y-101850000D01*
X114150000Y-101816667D01*
X98783334Y-95616667D02*
X98783334Y-94916667D01*
X99050000Y-94916667D01*
X99116667Y-94950000D01*
X99150000Y-94983333D01*
X99183334Y-95050000D01*
X99183334Y-95150000D01*
X99150000Y-95216667D01*
X99116667Y-95250000D01*
X99050000Y-95283333D01*
X98783334Y-95283333D01*
X99783334Y-95150000D02*
X99783334Y-95616667D01*
X99616667Y-94883333D02*
X99450000Y-95383333D01*
X99883334Y-95383333D01*
X132950000Y-83650000D02*
X132916666Y-83683333D01*
X132816666Y-83716667D01*
X132750000Y-83716667D01*
X132650000Y-83683333D01*
X132583333Y-83616667D01*
X132550000Y-83550000D01*
X132516666Y-83416667D01*
X132516666Y-83316667D01*
X132550000Y-83183333D01*
X132583333Y-83116667D01*
X132650000Y-83050000D01*
X132750000Y-83016667D01*
X132816666Y-83016667D01*
X132916666Y-83050000D01*
X132950000Y-83083333D01*
X133616666Y-83716667D02*
X133216666Y-83716667D01*
X133416666Y-83716667D02*
X133416666Y-83016667D01*
X133350000Y-83116667D01*
X133283333Y-83183333D01*
X133216666Y-83216667D01*
X134216667Y-83016667D02*
X134083333Y-83016667D01*
X134016667Y-83050000D01*
X133983333Y-83083333D01*
X133916667Y-83183333D01*
X133883333Y-83316667D01*
X133883333Y-83583333D01*
X133916667Y-83650000D01*
X133950000Y-83683333D01*
X134016667Y-83716667D01*
X134150000Y-83716667D01*
X134216667Y-83683333D01*
X134250000Y-83650000D01*
X134283333Y-83583333D01*
X134283333Y-83416667D01*
X134250000Y-83350000D01*
X134216667Y-83316667D01*
X134150000Y-83283333D01*
X134016667Y-83283333D01*
X133950000Y-83316667D01*
X133916667Y-83350000D01*
X133883333Y-83416667D01*
X132650000Y-99250000D02*
X132616666Y-99283333D01*
X132516666Y-99316667D01*
X132450000Y-99316667D01*
X132350000Y-99283333D01*
X132283333Y-99216667D01*
X132250000Y-99150000D01*
X132216666Y-99016667D01*
X132216666Y-98916667D01*
X132250000Y-98783333D01*
X132283333Y-98716667D01*
X132350000Y-98650000D01*
X132450000Y-98616667D01*
X132516666Y-98616667D01*
X132616666Y-98650000D01*
X132650000Y-98683333D01*
X133316666Y-99316667D02*
X132916666Y-99316667D01*
X133116666Y-99316667D02*
X133116666Y-98616667D01*
X133050000Y-98716667D01*
X132983333Y-98783333D01*
X132916666Y-98816667D01*
X133550000Y-98616667D02*
X134016667Y-98616667D01*
X133716667Y-99316667D01*
X133150000Y-108850000D02*
X133116666Y-108883333D01*
X133016666Y-108916667D01*
X132950000Y-108916667D01*
X132850000Y-108883333D01*
X132783333Y-108816667D01*
X132750000Y-108750000D01*
X132716666Y-108616667D01*
X132716666Y-108516667D01*
X132750000Y-108383333D01*
X132783333Y-108316667D01*
X132850000Y-108250000D01*
X132950000Y-108216667D01*
X133016666Y-108216667D01*
X133116666Y-108250000D01*
X133150000Y-108283333D01*
X133816666Y-108916667D02*
X133416666Y-108916667D01*
X133616666Y-108916667D02*
X133616666Y-108216667D01*
X133550000Y-108316667D01*
X133483333Y-108383333D01*
X133416666Y-108416667D01*
X134216667Y-108516667D02*
X134150000Y-108483333D01*
X134116667Y-108450000D01*
X134083333Y-108383333D01*
X134083333Y-108350000D01*
X134116667Y-108283333D01*
X134150000Y-108250000D01*
X134216667Y-108216667D01*
X134350000Y-108216667D01*
X134416667Y-108250000D01*
X134450000Y-108283333D01*
X134483333Y-108350000D01*
X134483333Y-108383333D01*
X134450000Y-108450000D01*
X134416667Y-108483333D01*
X134350000Y-108516667D01*
X134216667Y-108516667D01*
X134150000Y-108550000D01*
X134116667Y-108583333D01*
X134083333Y-108650000D01*
X134083333Y-108783333D01*
X134116667Y-108850000D01*
X134150000Y-108883333D01*
X134216667Y-108916667D01*
X134350000Y-108916667D01*
X134416667Y-108883333D01*
X134450000Y-108850000D01*
X134483333Y-108783333D01*
X134483333Y-108650000D01*
X134450000Y-108583333D01*
X134416667Y-108550000D01*
X134350000Y-108516667D01*
X117116667Y-74350000D02*
X117083333Y-74383333D01*
X116983333Y-74416667D01*
X116916667Y-74416667D01*
X116816667Y-74383333D01*
X116750000Y-74316667D01*
X116716667Y-74250000D01*
X116683333Y-74116667D01*
X116683333Y-74016667D01*
X116716667Y-73883333D01*
X116750000Y-73816667D01*
X116816667Y-73750000D01*
X116916667Y-73716667D01*
X116983333Y-73716667D01*
X117083333Y-73750000D01*
X117116667Y-73783333D01*
X117416667Y-74416667D02*
X117416667Y-73716667D01*
X117816667Y-74416667D01*
X117816667Y-73716667D01*
X118116666Y-73783333D02*
X118150000Y-73750000D01*
X118216666Y-73716667D01*
X118383333Y-73716667D01*
X118450000Y-73750000D01*
X118483333Y-73783333D01*
X118516666Y-73850000D01*
X118516666Y-73916667D01*
X118483333Y-74016667D01*
X118083333Y-74416667D01*
X118516666Y-74416667D01*
X108783334Y-113816667D02*
X108783334Y-113116667D01*
X109050000Y-113116667D01*
X109116667Y-113150000D01*
X109150000Y-113183333D01*
X109183334Y-113250000D01*
X109183334Y-113350000D01*
X109150000Y-113416667D01*
X109116667Y-113450000D01*
X109050000Y-113483333D01*
X108783334Y-113483333D01*
X109816667Y-113116667D02*
X109483334Y-113116667D01*
X109450000Y-113450000D01*
X109483334Y-113416667D01*
X109550000Y-113383333D01*
X109716667Y-113383333D01*
X109783334Y-113416667D01*
X109816667Y-113450000D01*
X109850000Y-113516667D01*
X109850000Y-113683333D01*
X109816667Y-113750000D01*
X109783334Y-113783333D01*
X109716667Y-113816667D01*
X109550000Y-113816667D01*
X109483334Y-113783333D01*
X109450000Y-113750000D01*
X108783334Y-118916667D02*
X108783334Y-118216667D01*
X109050000Y-118216667D01*
X109116667Y-118250000D01*
X109150000Y-118283333D01*
X109183334Y-118350000D01*
X109183334Y-118450000D01*
X109150000Y-118516667D01*
X109116667Y-118550000D01*
X109050000Y-118583333D01*
X108783334Y-118583333D01*
X109783334Y-118216667D02*
X109650000Y-118216667D01*
X109583334Y-118250000D01*
X109550000Y-118283333D01*
X109483334Y-118383333D01*
X109450000Y-118516667D01*
X109450000Y-118783333D01*
X109483334Y-118850000D01*
X109516667Y-118883333D01*
X109583334Y-118916667D01*
X109716667Y-118916667D01*
X109783334Y-118883333D01*
X109816667Y-118850000D01*
X109850000Y-118783333D01*
X109850000Y-118616667D01*
X109816667Y-118550000D01*
X109783334Y-118516667D01*
X109716667Y-118483333D01*
X109583334Y-118483333D01*
X109516667Y-118516667D01*
X109483334Y-118550000D01*
X109450000Y-118616667D01*
X113266667Y-93616667D02*
X113266667Y-94183333D01*
X113300000Y-94250000D01*
X113333333Y-94283333D01*
X113400000Y-94316667D01*
X113533333Y-94316667D01*
X113600000Y-94283333D01*
X113633333Y-94250000D01*
X113666667Y-94183333D01*
X113666667Y-93616667D01*
X114333333Y-93616667D02*
X114000000Y-93616667D01*
X113966666Y-93950000D01*
X114000000Y-93916667D01*
X114066666Y-93883333D01*
X114233333Y-93883333D01*
X114300000Y-93916667D01*
X114333333Y-93950000D01*
X114366666Y-94016667D01*
X114366666Y-94183333D01*
X114333333Y-94250000D01*
X114300000Y-94283333D01*
X114233333Y-94316667D01*
X114066666Y-94316667D01*
X114000000Y-94283333D01*
X113966666Y-94250000D01*
X111666667Y-98116667D02*
X111666667Y-98683333D01*
X111700000Y-98750000D01*
X111733333Y-98783333D01*
X111800000Y-98816667D01*
X111933333Y-98816667D01*
X112000000Y-98783333D01*
X112033333Y-98750000D01*
X112066667Y-98683333D01*
X112066667Y-98116667D01*
X112766666Y-98816667D02*
X112366666Y-98816667D01*
X112566666Y-98816667D02*
X112566666Y-98116667D01*
X112500000Y-98216667D01*
X112433333Y-98283333D01*
X112366666Y-98316667D01*
X117866667Y-99116667D02*
X117866667Y-99683333D01*
X117900000Y-99750000D01*
X117933333Y-99783333D01*
X118000000Y-99816667D01*
X118133333Y-99816667D01*
X118200000Y-99783333D01*
X118233333Y-99750000D01*
X118266667Y-99683333D01*
X118266667Y-99116667D01*
X118566666Y-99183333D02*
X118600000Y-99150000D01*
X118666666Y-99116667D01*
X118833333Y-99116667D01*
X118900000Y-99150000D01*
X118933333Y-99183333D01*
X118966666Y-99250000D01*
X118966666Y-99316667D01*
X118933333Y-99416667D01*
X118533333Y-99816667D01*
X118966666Y-99816667D01*
X114366667Y-104716667D02*
X114366667Y-105283333D01*
X114400000Y-105350000D01*
X114433333Y-105383333D01*
X114500000Y-105416667D01*
X114633333Y-105416667D01*
X114700000Y-105383333D01*
X114733333Y-105350000D01*
X114766667Y-105283333D01*
X114766667Y-104716667D01*
X115033333Y-104716667D02*
X115466666Y-104716667D01*
X115233333Y-104983333D01*
X115333333Y-104983333D01*
X115400000Y-105016667D01*
X115433333Y-105050000D01*
X115466666Y-105116667D01*
X115466666Y-105283333D01*
X115433333Y-105350000D01*
X115400000Y-105383333D01*
X115333333Y-105416667D01*
X115133333Y-105416667D01*
X115066666Y-105383333D01*
X115033333Y-105350000D01*
X114366667Y-107316667D02*
X114366667Y-107883333D01*
X114400000Y-107950000D01*
X114433333Y-107983333D01*
X114500000Y-108016667D01*
X114633333Y-108016667D01*
X114700000Y-107983333D01*
X114733333Y-107950000D01*
X114766667Y-107883333D01*
X114766667Y-107316667D01*
X115400000Y-107550000D02*
X115400000Y-108016667D01*
X115233333Y-107283333D02*
X115066666Y-107783333D01*
X115500000Y-107783333D01*
X101666667Y-102216667D02*
X102066667Y-102216667D01*
X101866667Y-102916667D02*
X101866667Y-102216667D01*
X102266666Y-102283333D02*
X102300000Y-102250000D01*
X102366666Y-102216667D01*
X102533333Y-102216667D01*
X102600000Y-102250000D01*
X102633333Y-102283333D01*
X102666666Y-102350000D01*
X102666666Y-102416667D01*
X102633333Y-102516667D01*
X102233333Y-102916667D01*
X102666666Y-102916667D01*
X103166667Y-93416667D02*
X103566667Y-93416667D01*
X103366667Y-94116667D02*
X103366667Y-93416667D01*
X104166666Y-94116667D02*
X103766666Y-94116667D01*
X103966666Y-94116667D02*
X103966666Y-93416667D01*
X103900000Y-93516667D01*
X103833333Y-93583333D01*
X103766666Y-93616667D01*
M02*
