G04 #@! TF.FileFunction,Soldermask,Bot*
%FSLAX46Y46*%
G04 Gerber Fmt 4.6, Leading zero omitted, Abs format (unit mm)*
G04 Created by KiCad (PCBNEW 0.201509221857+6208~30~ubuntu14.04.1-product) date Thu 24 Sep 2015 08:06:42 PM PDT*
%MOMM*%
G01*
G04 APERTURE LIST*
%ADD10C,0.100000*%
%ADD11C,1.800000*%
%ADD12R,5.000000X3.960000*%
%ADD13C,1.900000*%
%ADD14C,6.350000*%
%ADD15R,4.200000X0.700000*%
%ADD16R,1.000000X1.250000*%
%ADD17R,1.250000X1.000000*%
%ADD18R,1.800000X1.800000*%
%ADD19C,2.100000*%
%ADD20C,0.889000*%
G04 APERTURE END LIST*
D10*
D11*
X48750000Y-42789000D03*
X48750000Y-32629000D03*
D12*
X47243000Y-34089000D03*
X47243000Y-41329000D03*
D11*
X48750000Y-40249000D03*
X48750000Y-35169000D03*
X48750000Y-37709000D03*
X48750000Y-30089000D03*
X48750000Y-19929000D03*
D12*
X47243000Y-21389000D03*
X47243000Y-28629000D03*
D11*
X48750000Y-27549000D03*
X48750000Y-22469000D03*
X48750000Y-25009000D03*
X48750000Y-17389000D03*
X48750000Y-7229000D03*
D12*
X47243000Y-8689000D03*
X47243000Y-15929000D03*
D11*
X48750000Y-14849000D03*
X48750000Y-9769000D03*
X48750000Y-12309000D03*
X40150000Y-34400000D03*
X37150000Y-37400000D03*
X30050000Y-32850000D03*
X33050000Y-35850000D03*
X39350000Y-20700000D03*
X42350000Y-17700000D03*
X32292000Y-19303000D03*
X35292000Y-22303000D03*
X25292000Y-23553000D03*
X28292000Y-20553000D03*
D13*
X21064000Y-43678000D03*
X23604000Y-43678000D03*
X26144000Y-43678000D03*
X28684000Y-43678000D03*
D14*
X44550000Y-46000000D03*
X44550000Y-3900000D03*
D15*
X3550000Y-31200000D03*
X3550000Y-30200000D03*
X3550000Y-29200000D03*
X3550000Y-28200000D03*
X3550000Y-27200000D03*
X3550000Y-26200000D03*
X3550000Y-25200000D03*
X3550000Y-24200000D03*
X3550000Y-23200000D03*
X3550000Y-22200000D03*
X3550000Y-21200000D03*
X3550000Y-18200000D03*
X3550000Y-17200000D03*
X3550000Y-16200000D03*
X3550000Y-15200000D03*
X3550000Y-14200000D03*
X3550000Y-13200000D03*
X3550000Y-12200000D03*
D16*
X26792000Y-24053000D03*
X28792000Y-24053000D03*
D17*
X31042000Y-20303000D03*
X31042000Y-22303000D03*
D16*
X35292000Y-23553000D03*
X33292000Y-23553000D03*
X41300000Y-17600000D03*
X39300000Y-17600000D03*
D17*
X25300000Y-19850000D03*
X25300000Y-21850000D03*
X26800000Y-20350000D03*
X26800000Y-22350000D03*
D16*
X16050000Y-26600000D03*
X18050000Y-26600000D03*
X13450000Y-34700000D03*
X15450000Y-34700000D03*
D17*
X29150000Y-34900000D03*
X29150000Y-36900000D03*
D16*
X33150000Y-37400000D03*
X31150000Y-37400000D03*
D17*
X36150000Y-36150000D03*
X36150000Y-34150000D03*
D16*
X32650000Y-34650000D03*
X30650000Y-34650000D03*
D17*
X38650000Y-36900000D03*
X38650000Y-34900000D03*
X16050000Y-24350000D03*
X16050000Y-22350000D03*
D16*
X14050000Y-18850000D03*
X16050000Y-18850000D03*
X14050000Y-20600000D03*
X16050000Y-20600000D03*
X35300000Y-25350000D03*
X33300000Y-25350000D03*
X39800000Y-24350000D03*
X37800000Y-24350000D03*
D17*
X43550000Y-24350000D03*
X43550000Y-26350000D03*
X41550000Y-22350000D03*
X41550000Y-24350000D03*
X41550000Y-20850000D03*
X41550000Y-18850000D03*
X43550000Y-22350000D03*
X43550000Y-20350000D03*
D18*
X29250000Y-2600000D03*
D11*
X29250000Y-5140000D03*
X29250000Y-7680000D03*
X29250000Y-10220000D03*
X29250000Y-12760000D03*
X29250000Y-15300000D03*
X31790000Y-2600000D03*
X31790000Y-5140000D03*
X31790000Y-7680000D03*
X31790000Y-10220000D03*
X31790000Y-12760000D03*
X31790000Y-15300000D03*
X21064000Y-41138000D03*
X23604000Y-41138000D03*
X26144000Y-41138000D03*
X28684000Y-41138000D03*
D13*
X28684000Y-46218000D03*
X26144000Y-46218000D03*
X23604000Y-46218000D03*
X21064000Y-46218000D03*
D11*
X12006000Y-31806000D03*
D19*
X12006000Y-34600000D03*
D11*
X12006000Y-37394000D03*
X17594000Y-37394000D03*
X17594000Y-31806000D03*
X13506000Y-23056000D03*
D19*
X13506000Y-25850000D03*
D11*
X13506000Y-28644000D03*
X19094000Y-28644000D03*
X19094000Y-23056000D03*
D20*
X29850000Y-18900000D03*
X10550000Y-28500000D03*
X6850000Y-22200000D03*
X6850000Y-25200000D03*
X31042000Y-24053000D03*
X21150000Y-21700000D03*
X37150000Y-32100000D03*
X30150000Y-37400000D03*
X25350000Y-38100000D03*
X23050000Y-36400000D03*
X28550000Y-27600000D03*
X28550000Y-30500000D03*
X23550000Y-22300000D03*
X25050000Y-27000000D03*
X25050000Y-35900000D03*
X25050000Y-33000000D03*
X25050000Y-30100000D03*
X10050000Y-2300000D03*
X13450000Y-2300000D03*
X16850000Y-2300000D03*
X16850000Y-14900000D03*
X22650000Y-24600000D03*
X22350000Y-28600000D03*
X26250000Y-27500000D03*
X26250000Y-30400000D03*
X26250000Y-33300000D03*
X36800000Y-25350000D03*
X21750000Y-12300000D03*
M02*
