G04 #@! TF.FileFunction,Copper,L1,Top,Signal*
%FSLAX46Y46*%
G04 Gerber Fmt 4.6, Leading zero omitted, Abs format (unit mm)*
G04 Created by KiCad (PCBNEW 0.201509182047+6202~30~ubuntu14.04.1-product) date Sun 20 Sep 2015 06:38:23 PM PDT*
%MOMM*%
G01*
G04 APERTURE LIST*
%ADD10C,0.100000*%
%ADD11R,2.200000X0.600000*%
%ADD12C,1.800000*%
%ADD13R,5.000000X1.800000*%
%ADD14R,5.000000X3.960000*%
%ADD15R,2.400000X1.800000*%
%ADD16R,1.800000X2.400000*%
%ADD17R,0.599440X1.000760*%
%ADD18C,1.900000*%
%ADD19C,6.350000*%
%ADD20R,4.200000X0.700000*%
%ADD21R,1.000000X1.250000*%
%ADD22R,1.250000X1.000000*%
%ADD23R,1.800000X1.800000*%
%ADD24R,1.000000X0.400000*%
%ADD25R,0.400000X1.000000*%
%ADD26R,2.540000X1.650000*%
%ADD27R,1.650000X1.015000*%
%ADD28R,1.650000X0.760000*%
%ADD29R,2.000000X1.650000*%
%ADD30C,2.100000*%
%ADD31C,0.889000*%
%ADD32C,0.400000*%
%ADD33C,0.250000*%
%ADD34C,1.000000*%
%ADD35C,1.200000*%
%ADD36C,1.800000*%
%ADD37C,0.254000*%
G04 APERTURE END LIST*
D10*
D11*
X105500000Y-77120000D03*
X105500000Y-78390000D03*
X105500000Y-79660000D03*
X105500000Y-80930000D03*
X105500000Y-82200000D03*
X105500000Y-83470000D03*
X105500000Y-84740000D03*
X105500000Y-86010000D03*
X105500000Y-87280000D03*
X114700000Y-77120000D03*
X114700000Y-78390000D03*
X114700000Y-79660000D03*
X114700000Y-80930000D03*
X114700000Y-82200000D03*
X114700000Y-83470000D03*
X114700000Y-84740000D03*
X114700000Y-86010000D03*
X114700000Y-87280000D03*
D12*
X139700000Y-115189000D03*
X139700000Y-105029000D03*
D13*
X138193000Y-110109000D03*
D14*
X138193000Y-106489000D03*
X138193000Y-113729000D03*
D12*
X139700000Y-112649000D03*
X139700000Y-107569000D03*
X139700000Y-110109000D03*
X139700000Y-102489000D03*
X139700000Y-92329000D03*
D13*
X138193000Y-97409000D03*
D14*
X138193000Y-93789000D03*
X138193000Y-101029000D03*
D12*
X139700000Y-99949000D03*
X139700000Y-94869000D03*
X139700000Y-97409000D03*
X139700000Y-89789000D03*
X139700000Y-79629000D03*
D13*
X138193000Y-84709000D03*
D14*
X138193000Y-81089000D03*
X138193000Y-88329000D03*
D12*
X139700000Y-87249000D03*
X139700000Y-82169000D03*
X139700000Y-84709000D03*
D15*
X129600000Y-106300000D03*
X129600000Y-110300000D03*
D12*
X131100000Y-106800000D03*
X128100000Y-109800000D03*
D16*
X120500000Y-106750000D03*
X124500000Y-106750000D03*
D12*
X121000000Y-105250000D03*
X124000000Y-108250000D03*
D15*
X131800000Y-93600000D03*
X131800000Y-89600000D03*
D12*
X130300000Y-93100000D03*
X133300000Y-90100000D03*
D16*
X122742000Y-93203000D03*
X126742000Y-93203000D03*
D12*
X123242000Y-91703000D03*
X126242000Y-94703000D03*
D15*
X117742000Y-96453000D03*
X117742000Y-92453000D03*
D12*
X116242000Y-95953000D03*
X119242000Y-92953000D03*
D17*
X112750000Y-109349820D03*
X112750000Y-107150180D03*
D18*
X112014000Y-116078000D03*
X114554000Y-116078000D03*
X117094000Y-116078000D03*
X119634000Y-116078000D03*
D19*
X135500000Y-118400000D03*
X135500000Y-76300000D03*
D20*
X94500000Y-103600000D03*
X94500000Y-102600000D03*
X94500000Y-101600000D03*
X94500000Y-100600000D03*
X94500000Y-99600000D03*
X94500000Y-98600000D03*
X94500000Y-97600000D03*
X94500000Y-96600000D03*
X94500000Y-95600000D03*
X94500000Y-94600000D03*
X94500000Y-93600000D03*
X94500000Y-90600000D03*
X94500000Y-89600000D03*
X94500000Y-88600000D03*
X94500000Y-87600000D03*
X94500000Y-86600000D03*
X94500000Y-85600000D03*
X94500000Y-84600000D03*
D21*
X112750000Y-105500000D03*
X110750000Y-105500000D03*
X114800000Y-103500000D03*
X112800000Y-103500000D03*
D22*
X100900000Y-94300000D03*
X100900000Y-96300000D03*
D21*
X132604000Y-84836000D03*
X134604000Y-84836000D03*
X132250000Y-97500000D03*
X134250000Y-97500000D03*
X132700000Y-110000000D03*
X134700000Y-110000000D03*
D23*
X120200000Y-75000000D03*
D12*
X120200000Y-77540000D03*
X120200000Y-80080000D03*
X120200000Y-82620000D03*
X120200000Y-85160000D03*
X120200000Y-87700000D03*
X122740000Y-75000000D03*
X122740000Y-77540000D03*
X122740000Y-80080000D03*
X122740000Y-82620000D03*
X122740000Y-85160000D03*
X122740000Y-87700000D03*
X112014000Y-113538000D03*
X114554000Y-113538000D03*
X117094000Y-113538000D03*
X119634000Y-113538000D03*
D18*
X119634000Y-118618000D03*
X117094000Y-118618000D03*
X114554000Y-118618000D03*
X112014000Y-118618000D03*
D24*
X112250000Y-95250000D03*
X112250000Y-95900000D03*
X112250000Y-96550000D03*
X114200000Y-96550000D03*
X114200000Y-95900000D03*
X114200000Y-95250000D03*
D25*
X114800000Y-98200000D03*
X114150000Y-98200000D03*
X113500000Y-98200000D03*
X113500000Y-100150000D03*
X114150000Y-100150000D03*
X114800000Y-100150000D03*
D24*
X118200000Y-101900000D03*
X118200000Y-101250000D03*
X118200000Y-100600000D03*
X116250000Y-100600000D03*
X116250000Y-101250000D03*
X116250000Y-101900000D03*
X118200000Y-104800000D03*
X118200000Y-104150000D03*
X118200000Y-103500000D03*
X116250000Y-103500000D03*
X116250000Y-104150000D03*
X116250000Y-104800000D03*
X118200000Y-107700000D03*
X118200000Y-107050000D03*
X118200000Y-106400000D03*
X116250000Y-106400000D03*
X116250000Y-107050000D03*
X116250000Y-107700000D03*
D26*
X108290000Y-109540000D03*
X108290000Y-104460000D03*
X103210000Y-109540000D03*
D10*
G36*
X104480000Y-107380000D02*
X101940000Y-107830000D01*
X101940000Y-106170000D01*
X104480000Y-106620000D01*
X104480000Y-107380000D01*
X104480000Y-107380000D01*
G37*
D26*
X103210000Y-104460000D03*
D27*
X108480000Y-108397500D03*
X108480000Y-105602500D03*
X105300000Y-108397500D03*
D28*
X105300000Y-107000000D03*
D27*
X105300000Y-105602500D03*
D10*
G36*
X105187107Y-108905000D02*
X104480000Y-109612107D01*
X103772893Y-108905000D01*
X104480000Y-108197893D01*
X105187107Y-108905000D01*
X105187107Y-108905000D01*
G37*
G36*
X105187107Y-105095000D02*
X104480000Y-105802107D01*
X103772893Y-105095000D01*
X104480000Y-104387893D01*
X105187107Y-105095000D01*
X105187107Y-105095000D01*
G37*
D29*
X102940000Y-107000000D03*
D12*
X102956000Y-104206000D03*
D30*
X102956000Y-107000000D03*
D12*
X102956000Y-109794000D03*
X108544000Y-109794000D03*
X108544000Y-104206000D03*
D26*
X109790000Y-100790000D03*
X109790000Y-95710000D03*
X104710000Y-100790000D03*
D10*
G36*
X105980000Y-98630000D02*
X103440000Y-99080000D01*
X103440000Y-97420000D01*
X105980000Y-97870000D01*
X105980000Y-98630000D01*
X105980000Y-98630000D01*
G37*
D26*
X104710000Y-95710000D03*
D27*
X109980000Y-99647500D03*
X109980000Y-96852500D03*
X106800000Y-99647500D03*
D28*
X106800000Y-98250000D03*
D27*
X106800000Y-96852500D03*
D10*
G36*
X106687107Y-100155000D02*
X105980000Y-100862107D01*
X105272893Y-100155000D01*
X105980000Y-99447893D01*
X106687107Y-100155000D01*
X106687107Y-100155000D01*
G37*
G36*
X106687107Y-96345000D02*
X105980000Y-97052107D01*
X105272893Y-96345000D01*
X105980000Y-95637893D01*
X106687107Y-96345000D01*
X106687107Y-96345000D01*
G37*
D29*
X104440000Y-98250000D03*
D12*
X104456000Y-95456000D03*
D30*
X104456000Y-98250000D03*
D12*
X104456000Y-101044000D03*
X110044000Y-101044000D03*
X110044000Y-95456000D03*
D31*
X120800000Y-91300000D03*
X101500000Y-100900000D03*
X97800000Y-94600000D03*
X97800000Y-97600000D03*
X121992000Y-96453000D03*
X112100000Y-94100000D03*
X128100000Y-104500000D03*
X121100000Y-109800000D03*
X116300000Y-110500000D03*
X114000000Y-108800000D03*
X119500000Y-100000000D03*
X119500000Y-102900000D03*
X114500000Y-94700000D03*
X116000000Y-99400000D03*
X116000000Y-108300000D03*
X116000000Y-105400000D03*
X116000000Y-102500000D03*
X101000000Y-74700000D03*
X104400000Y-74700000D03*
X107800000Y-74700000D03*
X107800000Y-87300000D03*
X113600000Y-97000000D03*
X113300000Y-101000000D03*
X117200000Y-99900000D03*
X117200000Y-102800000D03*
X117200000Y-105700000D03*
X127750000Y-97750000D03*
X112700000Y-84700000D03*
D32*
X94500000Y-102600000D02*
X99500000Y-102600000D01*
X100900000Y-108100000D02*
X102340000Y-109540000D01*
X100900000Y-104000000D02*
X100900000Y-108100000D01*
X99500000Y-102600000D02*
X100900000Y-104000000D01*
X102340000Y-109540000D02*
X103210000Y-109540000D01*
X94500000Y-101600000D02*
X100350000Y-101600000D01*
X100350000Y-101600000D02*
X103210000Y-104460000D01*
X94500000Y-99600000D02*
X102000000Y-99600000D01*
X103190000Y-100790000D02*
X104710000Y-100790000D01*
X102000000Y-99600000D02*
X103190000Y-100790000D01*
X94500000Y-98600000D02*
X101000000Y-98600000D01*
X103300000Y-96300000D02*
X104120000Y-96300000D01*
X102500000Y-97100000D02*
X103300000Y-96300000D01*
X101000000Y-98600000D02*
X102500000Y-97100000D01*
X104120000Y-96300000D02*
X104710000Y-95710000D01*
X94500000Y-96600000D02*
X100600000Y-96600000D01*
X100600000Y-96600000D02*
X100900000Y-96300000D01*
X94500000Y-95600000D02*
X99200000Y-95600000D01*
X100200000Y-94600000D02*
X100600000Y-94600000D01*
X99200000Y-95600000D02*
X100200000Y-94600000D01*
X100600000Y-94600000D02*
X100900000Y-94300000D01*
D33*
X103500000Y-90100000D02*
X103500000Y-86600000D01*
X104090000Y-86010000D02*
X105500000Y-86010000D01*
X103500000Y-86600000D02*
X104090000Y-86010000D01*
X94500000Y-93600000D02*
X99200000Y-93600000D01*
X103500000Y-91500000D02*
X103500000Y-90100000D01*
X103500000Y-90100000D02*
X103500000Y-90000000D01*
X103000000Y-92000000D02*
X103500000Y-91500000D01*
X100800000Y-92000000D02*
X103000000Y-92000000D01*
X99200000Y-93600000D02*
X100800000Y-92000000D01*
X103000000Y-86900000D02*
X103000000Y-85300000D01*
X103560000Y-84740000D02*
X105500000Y-84740000D01*
X103000000Y-85300000D02*
X103560000Y-84740000D01*
X94500000Y-90600000D02*
X102500000Y-90600000D01*
X103000000Y-90100000D02*
X103000000Y-86900000D01*
X103000000Y-86900000D02*
X103000000Y-86800000D01*
X102500000Y-90600000D02*
X103000000Y-90100000D01*
X102500000Y-85500000D02*
X102500000Y-84000000D01*
X102000000Y-89600000D02*
X102500000Y-89100000D01*
X102500000Y-89100000D02*
X102500000Y-85500000D01*
X94500000Y-89600000D02*
X102000000Y-89600000D01*
X103030000Y-83470000D02*
X105500000Y-83470000D01*
X102500000Y-84000000D02*
X103030000Y-83470000D01*
X102000000Y-84300000D02*
X102000000Y-82700000D01*
X102500000Y-82200000D02*
X105500000Y-82200000D01*
X102000000Y-82700000D02*
X102500000Y-82200000D01*
X94500000Y-88600000D02*
X101500000Y-88600000D01*
X102000000Y-88100000D02*
X102000000Y-84300000D01*
X102000000Y-84300000D02*
X102000000Y-84200000D01*
X101500000Y-88600000D02*
X102000000Y-88100000D01*
X101500000Y-83800000D02*
X101500000Y-81500000D01*
X101000000Y-87600000D02*
X101500000Y-87100000D01*
X101500000Y-87100000D02*
X101500000Y-83800000D01*
X94500000Y-87600000D02*
X101000000Y-87600000D01*
X102070000Y-80930000D02*
X105500000Y-80930000D01*
X101500000Y-81500000D02*
X102070000Y-80930000D01*
X101000000Y-82500000D02*
X101000000Y-80200000D01*
X100500000Y-86600000D02*
X101000000Y-86100000D01*
X101000000Y-86100000D02*
X101000000Y-82500000D01*
X94500000Y-86600000D02*
X100500000Y-86600000D01*
X101540000Y-79660000D02*
X105500000Y-79660000D01*
X101000000Y-80200000D02*
X101540000Y-79660000D01*
X100500000Y-81300000D02*
X100500000Y-78900000D01*
X100000000Y-85600000D02*
X100500000Y-85100000D01*
X100500000Y-85100000D02*
X100500000Y-81300000D01*
X94500000Y-85600000D02*
X100000000Y-85600000D01*
X101010000Y-78390000D02*
X105500000Y-78390000D01*
X100500000Y-78900000D02*
X101010000Y-78390000D01*
X100000000Y-80100000D02*
X100000000Y-77700000D01*
X99500000Y-84600000D02*
X100000000Y-84100000D01*
X100000000Y-84100000D02*
X100000000Y-80100000D01*
X94500000Y-84600000D02*
X99500000Y-84600000D01*
X100580000Y-77120000D02*
X105500000Y-77120000D01*
X100000000Y-77700000D02*
X100580000Y-77120000D01*
D32*
X94500000Y-100600000D02*
X101200000Y-100600000D01*
X101200000Y-100600000D02*
X101500000Y-100900000D01*
X94500000Y-103600000D02*
X97800000Y-103600000D01*
X97800000Y-103600000D02*
X97900000Y-103500000D01*
X94500000Y-94600000D02*
X97800000Y-94600000D01*
X94500000Y-97600000D02*
X97800000Y-97600000D01*
D34*
X122000000Y-96461000D02*
X122000000Y-96500000D01*
X121992000Y-96453000D02*
X122000000Y-96461000D01*
D33*
X113200000Y-94500000D02*
X112800000Y-94100000D01*
X113000000Y-95900000D02*
X113200000Y-95700000D01*
X113200000Y-95700000D02*
X113200000Y-94500000D01*
X112250000Y-95900000D02*
X113000000Y-95900000D01*
X112800000Y-94100000D02*
X112100000Y-94100000D01*
X112500000Y-99200000D02*
X111380000Y-99200000D01*
X114150000Y-98950000D02*
X113900000Y-99200000D01*
X113900000Y-99200000D02*
X112500000Y-99200000D01*
X114150000Y-98200000D02*
X114150000Y-98950000D01*
X111380000Y-99200000D02*
X109790000Y-100790000D01*
D32*
X121100000Y-109800000D02*
X121100000Y-109900000D01*
D33*
X117200000Y-108800000D02*
X117200000Y-109100000D01*
X117350000Y-107050000D02*
X117200000Y-107200000D01*
X117200000Y-107200000D02*
X117200000Y-108800000D01*
X118200000Y-107050000D02*
X117350000Y-107050000D01*
X116300000Y-110000000D02*
X116300000Y-110500000D01*
X117200000Y-109100000D02*
X116300000Y-110000000D01*
D32*
X112750000Y-109349820D02*
X113450180Y-109349820D01*
X113450180Y-109349820D02*
X114000000Y-108800000D01*
X108480000Y-108397500D02*
X108480000Y-109350000D01*
X108480000Y-109350000D02*
X108290000Y-109540000D01*
D33*
X118200000Y-101250000D02*
X119050000Y-101250000D01*
X119500000Y-100800000D02*
X119500000Y-100000000D01*
X119050000Y-101250000D02*
X119500000Y-100800000D01*
X118200000Y-104150000D02*
X118950000Y-104150000D01*
X119500000Y-103600000D02*
X119500000Y-102900000D01*
X118950000Y-104150000D02*
X119500000Y-103600000D01*
D32*
X109980000Y-99647500D02*
X109980000Y-100600000D01*
X109980000Y-100600000D02*
X109790000Y-100790000D01*
X108480000Y-109350000D02*
X108290000Y-109540000D01*
D35*
X117742000Y-96453000D02*
X116742000Y-96453000D01*
X116742000Y-96453000D02*
X116242000Y-95953000D01*
D32*
X114200000Y-95900000D02*
X116189000Y-95900000D01*
X116189000Y-95900000D02*
X116242000Y-95953000D01*
D36*
X119242000Y-92953000D02*
X122492000Y-92953000D01*
X122492000Y-92953000D02*
X122742000Y-93203000D01*
D35*
X117742000Y-92453000D02*
X118742000Y-92453000D01*
X118742000Y-92453000D02*
X119242000Y-92953000D01*
X122742000Y-93203000D02*
X122742000Y-92203000D01*
X122742000Y-92203000D02*
X123242000Y-91703000D01*
D36*
X131800000Y-93600000D02*
X130800000Y-93600000D01*
X130800000Y-93600000D02*
X130300000Y-93100000D01*
X126742000Y-93203000D02*
X130197000Y-93203000D01*
X130197000Y-93203000D02*
X130300000Y-93100000D01*
D35*
X126242000Y-94703000D02*
X126242000Y-93703000D01*
X126242000Y-93703000D02*
X126742000Y-93203000D01*
D32*
X106800000Y-98250000D02*
X104710000Y-98250000D01*
X105300000Y-107000000D02*
X103210000Y-107000000D01*
X112750000Y-105500000D02*
X112750000Y-107150180D01*
D34*
X112800000Y-103500000D02*
X112800000Y-105450000D01*
X112800000Y-105450000D02*
X112750000Y-105500000D01*
D32*
X108480000Y-105602500D02*
X108480000Y-104650000D01*
X108480000Y-104650000D02*
X108290000Y-104460000D01*
D34*
X110750000Y-105500000D02*
X109330000Y-105500000D01*
X109330000Y-105500000D02*
X108290000Y-104460000D01*
D32*
X116250000Y-104150000D02*
X114800000Y-104150000D01*
D34*
X114800000Y-103500000D02*
X114800000Y-104150000D01*
X114800000Y-104150000D02*
X114800000Y-106600000D01*
D32*
X115250000Y-107050000D02*
X114800000Y-106600000D01*
X116250000Y-107050000D02*
X115250000Y-107050000D01*
D34*
X114800000Y-103500000D02*
X114800000Y-101700000D01*
X114800000Y-101700000D02*
X114600000Y-101500000D01*
D32*
X116250000Y-104150000D02*
X115450000Y-104150000D01*
X115450000Y-104150000D02*
X114800000Y-103500000D01*
X116250000Y-101250000D02*
X114850000Y-101250000D01*
X114850000Y-101250000D02*
X114600000Y-101500000D01*
X114150000Y-101050000D02*
X114600000Y-101500000D01*
X114150000Y-101050000D02*
X114150000Y-100150000D01*
X118200000Y-107700000D02*
X119550000Y-107700000D01*
X119550000Y-107700000D02*
X120500000Y-106750000D01*
X121100000Y-105550000D02*
X121100000Y-106550000D01*
X121100000Y-106550000D02*
X120600000Y-107050000D01*
D36*
X131100000Y-106800000D02*
X130100000Y-106800000D01*
X130100000Y-106800000D02*
X129600000Y-106300000D01*
X129600000Y-106300000D02*
X125350000Y-106300000D01*
X125350000Y-106300000D02*
X124600000Y-107050000D01*
D32*
X124100000Y-108550000D02*
X124100000Y-107550000D01*
X124100000Y-107550000D02*
X124600000Y-107050000D01*
D35*
X132700000Y-110000000D02*
X129900000Y-110000000D01*
X129900000Y-110000000D02*
X129600000Y-110300000D01*
D34*
X129600000Y-110300000D02*
X129100000Y-109800000D01*
X129100000Y-109800000D02*
X128100000Y-109800000D01*
D32*
X119634000Y-113538000D02*
X117094000Y-113538000D01*
X117094000Y-113538000D02*
X114554000Y-113538000D01*
X114554000Y-113538000D02*
X112014000Y-113538000D01*
X116000000Y-108300000D02*
X116000000Y-108600000D01*
X114554000Y-110046000D02*
X114554000Y-113538000D01*
X116000000Y-108600000D02*
X114554000Y-110046000D01*
X116000000Y-108300000D02*
X116000000Y-108400000D01*
D33*
X114200000Y-95000000D02*
X114500000Y-94700000D01*
X114200000Y-95250000D02*
X114200000Y-95000000D01*
X115250000Y-100150000D02*
X116000000Y-99400000D01*
X115250000Y-100150000D02*
X114800000Y-100150000D01*
X116250000Y-107700000D02*
X116250000Y-108050000D01*
X116250000Y-108050000D02*
X116000000Y-108300000D01*
X116250000Y-104800000D02*
X116250000Y-105150000D01*
X116250000Y-105150000D02*
X116000000Y-105400000D01*
X116250000Y-101900000D02*
X116250000Y-102250000D01*
X116250000Y-102250000D02*
X116000000Y-102500000D01*
D32*
X122740000Y-75000000D02*
X122740000Y-73240000D01*
X122740000Y-73240000D02*
X122700000Y-73200000D01*
X105500000Y-87280000D02*
X107780000Y-87280000D01*
X107800000Y-74700000D02*
X104400000Y-74700000D01*
X107780000Y-87280000D02*
X107800000Y-87300000D01*
X114700000Y-77120000D02*
X117180000Y-77120000D01*
X117180000Y-77120000D02*
X119300000Y-75000000D01*
X119300000Y-75000000D02*
X120200000Y-75000000D01*
X114700000Y-78390000D02*
X118510000Y-78390000D01*
X118510000Y-78390000D02*
X119360000Y-77540000D01*
X119360000Y-77540000D02*
X120200000Y-77540000D01*
X114700000Y-79660000D02*
X119780000Y-79660000D01*
X119780000Y-79660000D02*
X120200000Y-80080000D01*
X114700000Y-80930000D02*
X116530000Y-80930000D01*
X118220000Y-82620000D02*
X120200000Y-82620000D01*
X116530000Y-80930000D02*
X118220000Y-82620000D01*
X124100000Y-90000000D02*
X125000000Y-90000000D01*
X113190000Y-86010000D02*
X112700000Y-86500000D01*
X112700000Y-86500000D02*
X112700000Y-89500000D01*
X112700000Y-89500000D02*
X113200000Y-90000000D01*
X113200000Y-90000000D02*
X124100000Y-90000000D01*
X114700000Y-86010000D02*
X113190000Y-86010000D01*
X125500000Y-84500000D02*
X123620000Y-82620000D01*
X125500000Y-89500000D02*
X125500000Y-84500000D01*
X125000000Y-90000000D02*
X125500000Y-89500000D01*
X123620000Y-82620000D02*
X122740000Y-82620000D01*
X114700000Y-82200000D02*
X116300000Y-82200000D01*
X119200000Y-85100000D02*
X120140000Y-85100000D01*
X117300000Y-83200000D02*
X119200000Y-85100000D01*
X116300000Y-82200000D02*
X117300000Y-83200000D01*
X120140000Y-85100000D02*
X120200000Y-85160000D01*
D33*
X114050000Y-96550000D02*
X113600000Y-97000000D01*
X113500000Y-100800000D02*
X113300000Y-101000000D01*
X113500000Y-100800000D02*
X113500000Y-100150000D01*
X114200000Y-96550000D02*
X114050000Y-96550000D01*
X116500000Y-100600000D02*
X117200000Y-99900000D01*
X116250000Y-100600000D02*
X116500000Y-100600000D01*
X116500000Y-103500000D02*
X117200000Y-102800000D01*
X116250000Y-103500000D02*
X116500000Y-103500000D01*
X117200000Y-105700000D02*
X116500000Y-106400000D01*
X116250000Y-106400000D02*
X116500000Y-106400000D01*
D36*
X127100000Y-97700000D02*
X123600000Y-97700000D01*
D32*
X119400000Y-101900000D02*
X121100000Y-100200000D01*
X119400000Y-101900000D02*
X118200000Y-101900000D01*
D36*
X123600000Y-97700000D02*
X121100000Y-100200000D01*
D32*
X126700000Y-97700000D02*
X127100000Y-97700000D01*
X127100000Y-97700000D02*
X127700000Y-97700000D01*
X127700000Y-97700000D02*
X127750000Y-97750000D01*
X112250000Y-95250000D02*
X110250000Y-95250000D01*
X110250000Y-95250000D02*
X109790000Y-95710000D01*
X109980000Y-96852500D02*
X109980000Y-95900000D01*
X109980000Y-95900000D02*
X109790000Y-95710000D01*
X112250000Y-96550000D02*
X112250000Y-96950000D01*
X112250000Y-96950000D02*
X113500000Y-98200000D01*
D35*
X131800000Y-89600000D02*
X132800000Y-89600000D01*
X132800000Y-89600000D02*
X133300000Y-90100000D01*
X131800000Y-89600000D02*
X131800000Y-85640000D01*
X131800000Y-85640000D02*
X132604000Y-84836000D01*
X134604000Y-84836000D02*
X138066000Y-84836000D01*
X138066000Y-84836000D02*
X138193000Y-84709000D01*
D32*
X132250000Y-97500000D02*
X132250000Y-97550000D01*
X132250000Y-97550000D02*
X131700000Y-98100000D01*
D36*
X121200000Y-102800000D02*
X127000000Y-102800000D01*
D32*
X119200000Y-104800000D02*
X121200000Y-102800000D01*
X118200000Y-104800000D02*
X119200000Y-104800000D01*
D36*
X127000000Y-102800000D02*
X131700000Y-98100000D01*
D35*
X134250000Y-97500000D02*
X138102000Y-97500000D01*
X138102000Y-97500000D02*
X138193000Y-97409000D01*
X134700000Y-110000000D02*
X138084000Y-110000000D01*
X138084000Y-110000000D02*
X138193000Y-110109000D01*
D34*
X138084000Y-110000000D02*
X138193000Y-110109000D01*
D32*
X114700000Y-83470000D02*
X116270000Y-83470000D01*
X116600000Y-85000000D02*
X119300000Y-87700000D01*
X116600000Y-83800000D02*
X116600000Y-85000000D01*
X116270000Y-83470000D02*
X116600000Y-83800000D01*
X119300000Y-87700000D02*
X120200000Y-87700000D01*
X124100000Y-89300000D02*
X124100000Y-89300000D01*
X116900000Y-89300000D02*
X124100000Y-89300000D01*
X114880000Y-87280000D02*
X116900000Y-89300000D01*
X123660000Y-85160000D02*
X122740000Y-85160000D01*
X124500000Y-86000000D02*
X123660000Y-85160000D01*
X124500000Y-88900000D02*
X124500000Y-86000000D01*
X124100000Y-89300000D02*
X124500000Y-88900000D01*
X114700000Y-87280000D02*
X114880000Y-87280000D01*
X114700000Y-87280000D02*
X114780000Y-87280000D01*
X114700000Y-84740000D02*
X112740000Y-84740000D01*
X112740000Y-84740000D02*
X112700000Y-84700000D01*
D37*
G36*
X126073000Y-83892131D02*
X124210434Y-82029566D01*
X124169400Y-82002148D01*
X124136496Y-81980162D01*
X124042068Y-81751629D01*
X123610643Y-81319449D01*
X123589806Y-81310797D01*
X123640554Y-81160159D01*
X122740000Y-80259605D01*
X121839446Y-81160159D01*
X121890035Y-81310327D01*
X121871629Y-81317932D01*
X121469677Y-81719182D01*
X121100818Y-81349677D01*
X121500551Y-80950643D01*
X121509203Y-80929806D01*
X121659841Y-80980554D01*
X122560395Y-80080000D01*
X122919605Y-80080000D01*
X123820159Y-80980554D01*
X124076643Y-80894148D01*
X124286458Y-80320664D01*
X124260839Y-79710540D01*
X124076643Y-79265852D01*
X123820159Y-79179446D01*
X122919605Y-80080000D01*
X122560395Y-80080000D01*
X121659841Y-79179446D01*
X121509673Y-79230035D01*
X121502068Y-79211629D01*
X121100818Y-78809677D01*
X121290667Y-78620159D01*
X121839446Y-78620159D01*
X121903401Y-78810000D01*
X121839446Y-78999841D01*
X122740000Y-79900395D01*
X123640554Y-78999841D01*
X123576599Y-78810000D01*
X123640554Y-78620159D01*
X122740000Y-77719605D01*
X121839446Y-78620159D01*
X121290667Y-78620159D01*
X121500551Y-78410643D01*
X121509203Y-78389806D01*
X121659841Y-78440554D01*
X122560395Y-77540000D01*
X122919605Y-77540000D01*
X123820159Y-78440554D01*
X124076643Y-78354148D01*
X124286458Y-77780664D01*
X124260839Y-77170540D01*
X124076643Y-76725852D01*
X123820159Y-76639446D01*
X122919605Y-77540000D01*
X122560395Y-77540000D01*
X121659841Y-76639446D01*
X121509673Y-76690035D01*
X121502068Y-76671629D01*
X121334120Y-76503387D01*
X121335317Y-76503162D01*
X121551441Y-76364090D01*
X121690598Y-76160426D01*
X121724890Y-76194718D01*
X121839447Y-76080161D01*
X121903401Y-76270000D01*
X121839446Y-76459841D01*
X122740000Y-77360395D01*
X123640554Y-76459841D01*
X123576599Y-76270000D01*
X123640554Y-76080159D01*
X122740000Y-75179605D01*
X122725858Y-75193748D01*
X122546253Y-75014143D01*
X122560395Y-75000000D01*
X122919605Y-75000000D01*
X123820159Y-75900554D01*
X124076643Y-75814148D01*
X124286458Y-75240664D01*
X124260839Y-74630540D01*
X124076643Y-74185852D01*
X123820159Y-74099446D01*
X122919605Y-75000000D01*
X122560395Y-75000000D01*
X122546253Y-74985858D01*
X122725858Y-74806253D01*
X122740000Y-74820395D01*
X123640554Y-73919841D01*
X123554148Y-73663357D01*
X122980664Y-73453542D01*
X122370540Y-73479161D01*
X121925852Y-73663357D01*
X121839447Y-73919839D01*
X121724890Y-73805282D01*
X121688412Y-73841760D01*
X121564090Y-73648559D01*
X121351890Y-73503569D01*
X121100000Y-73452560D01*
X119300000Y-73452560D01*
X119064683Y-73496838D01*
X118848559Y-73635910D01*
X118703569Y-73848110D01*
X118652560Y-74100000D01*
X118652560Y-74466572D01*
X116834132Y-76285000D01*
X116141797Y-76285000D01*
X116051890Y-76223569D01*
X115800000Y-76172560D01*
X113600000Y-76172560D01*
X113364683Y-76216838D01*
X113148559Y-76355910D01*
X113003569Y-76568110D01*
X112952560Y-76820000D01*
X112952560Y-77420000D01*
X112996838Y-77655317D01*
X113060678Y-77754528D01*
X113003569Y-77838110D01*
X112952560Y-78090000D01*
X112952560Y-78690000D01*
X112996838Y-78925317D01*
X113060678Y-79024528D01*
X113003569Y-79108110D01*
X112952560Y-79360000D01*
X112952560Y-79960000D01*
X112996838Y-80195317D01*
X113060678Y-80294528D01*
X113003569Y-80378110D01*
X112952560Y-80630000D01*
X112952560Y-81230000D01*
X112996838Y-81465317D01*
X113060678Y-81564528D01*
X113003569Y-81648110D01*
X112952560Y-81900000D01*
X112952560Y-82500000D01*
X112996838Y-82735317D01*
X113060678Y-82834528D01*
X113003569Y-82918110D01*
X112952560Y-83170000D01*
X112952560Y-83636006D01*
X112915668Y-83620687D01*
X112486216Y-83620313D01*
X112089311Y-83784311D01*
X111785378Y-84087714D01*
X111620687Y-84484332D01*
X111620313Y-84913784D01*
X111784311Y-85310689D01*
X112087714Y-85614622D01*
X112311560Y-85707572D01*
X112109566Y-85909566D01*
X111928561Y-86180459D01*
X111865000Y-86500000D01*
X111865000Y-89500000D01*
X111928561Y-89819541D01*
X111976201Y-89890839D01*
X112097917Y-90073000D01*
X104260000Y-90073000D01*
X104260000Y-88209329D01*
X104273691Y-88215000D01*
X105214250Y-88215000D01*
X105373000Y-88056250D01*
X105373000Y-87407000D01*
X105627000Y-87407000D01*
X105627000Y-88056250D01*
X105785750Y-88215000D01*
X106726309Y-88215000D01*
X106959698Y-88118327D01*
X107138327Y-87939699D01*
X107235000Y-87706310D01*
X107235000Y-87565750D01*
X107076250Y-87407000D01*
X105627000Y-87407000D01*
X105373000Y-87407000D01*
X105353000Y-87407000D01*
X105353000Y-87153000D01*
X105373000Y-87153000D01*
X105373000Y-87133000D01*
X105627000Y-87133000D01*
X105627000Y-87153000D01*
X107076250Y-87153000D01*
X107235000Y-86994250D01*
X107235000Y-86853690D01*
X107145194Y-86636878D01*
X107196431Y-86561890D01*
X107247440Y-86310000D01*
X107247440Y-85710000D01*
X107203162Y-85474683D01*
X107139322Y-85375472D01*
X107196431Y-85291890D01*
X107247440Y-85040000D01*
X107247440Y-84440000D01*
X107203162Y-84204683D01*
X107139322Y-84105472D01*
X107196431Y-84021890D01*
X107247440Y-83770000D01*
X107247440Y-83170000D01*
X107203162Y-82934683D01*
X107139322Y-82835472D01*
X107196431Y-82751890D01*
X107247440Y-82500000D01*
X107247440Y-81900000D01*
X107203162Y-81664683D01*
X107139322Y-81565472D01*
X107196431Y-81481890D01*
X107247440Y-81230000D01*
X107247440Y-80630000D01*
X107203162Y-80394683D01*
X107139322Y-80295472D01*
X107196431Y-80211890D01*
X107247440Y-79960000D01*
X107247440Y-79360000D01*
X107203162Y-79124683D01*
X107139322Y-79025472D01*
X107196431Y-78941890D01*
X107247440Y-78690000D01*
X107247440Y-78090000D01*
X107203162Y-77854683D01*
X107139322Y-77755472D01*
X107196431Y-77671890D01*
X107247440Y-77420000D01*
X107247440Y-76820000D01*
X107203162Y-76584683D01*
X107064090Y-76368559D01*
X106851890Y-76223569D01*
X106600000Y-76172560D01*
X104400000Y-76172560D01*
X104164683Y-76216838D01*
X103948559Y-76355910D01*
X103945764Y-76360000D01*
X100580000Y-76360000D01*
X100289161Y-76417852D01*
X100045000Y-76580995D01*
X100045000Y-73045000D01*
X126073000Y-73045000D01*
X126073000Y-83892131D01*
X126073000Y-83892131D01*
G37*
X126073000Y-83892131D02*
X124210434Y-82029566D01*
X124169400Y-82002148D01*
X124136496Y-81980162D01*
X124042068Y-81751629D01*
X123610643Y-81319449D01*
X123589806Y-81310797D01*
X123640554Y-81160159D01*
X122740000Y-80259605D01*
X121839446Y-81160159D01*
X121890035Y-81310327D01*
X121871629Y-81317932D01*
X121469677Y-81719182D01*
X121100818Y-81349677D01*
X121500551Y-80950643D01*
X121509203Y-80929806D01*
X121659841Y-80980554D01*
X122560395Y-80080000D01*
X122919605Y-80080000D01*
X123820159Y-80980554D01*
X124076643Y-80894148D01*
X124286458Y-80320664D01*
X124260839Y-79710540D01*
X124076643Y-79265852D01*
X123820159Y-79179446D01*
X122919605Y-80080000D01*
X122560395Y-80080000D01*
X121659841Y-79179446D01*
X121509673Y-79230035D01*
X121502068Y-79211629D01*
X121100818Y-78809677D01*
X121290667Y-78620159D01*
X121839446Y-78620159D01*
X121903401Y-78810000D01*
X121839446Y-78999841D01*
X122740000Y-79900395D01*
X123640554Y-78999841D01*
X123576599Y-78810000D01*
X123640554Y-78620159D01*
X122740000Y-77719605D01*
X121839446Y-78620159D01*
X121290667Y-78620159D01*
X121500551Y-78410643D01*
X121509203Y-78389806D01*
X121659841Y-78440554D01*
X122560395Y-77540000D01*
X122919605Y-77540000D01*
X123820159Y-78440554D01*
X124076643Y-78354148D01*
X124286458Y-77780664D01*
X124260839Y-77170540D01*
X124076643Y-76725852D01*
X123820159Y-76639446D01*
X122919605Y-77540000D01*
X122560395Y-77540000D01*
X121659841Y-76639446D01*
X121509673Y-76690035D01*
X121502068Y-76671629D01*
X121334120Y-76503387D01*
X121335317Y-76503162D01*
X121551441Y-76364090D01*
X121690598Y-76160426D01*
X121724890Y-76194718D01*
X121839447Y-76080161D01*
X121903401Y-76270000D01*
X121839446Y-76459841D01*
X122740000Y-77360395D01*
X123640554Y-76459841D01*
X123576599Y-76270000D01*
X123640554Y-76080159D01*
X122740000Y-75179605D01*
X122725858Y-75193748D01*
X122546253Y-75014143D01*
X122560395Y-75000000D01*
X122919605Y-75000000D01*
X123820159Y-75900554D01*
X124076643Y-75814148D01*
X124286458Y-75240664D01*
X124260839Y-74630540D01*
X124076643Y-74185852D01*
X123820159Y-74099446D01*
X122919605Y-75000000D01*
X122560395Y-75000000D01*
X122546253Y-74985858D01*
X122725858Y-74806253D01*
X122740000Y-74820395D01*
X123640554Y-73919841D01*
X123554148Y-73663357D01*
X122980664Y-73453542D01*
X122370540Y-73479161D01*
X121925852Y-73663357D01*
X121839447Y-73919839D01*
X121724890Y-73805282D01*
X121688412Y-73841760D01*
X121564090Y-73648559D01*
X121351890Y-73503569D01*
X121100000Y-73452560D01*
X119300000Y-73452560D01*
X119064683Y-73496838D01*
X118848559Y-73635910D01*
X118703569Y-73848110D01*
X118652560Y-74100000D01*
X118652560Y-74466572D01*
X116834132Y-76285000D01*
X116141797Y-76285000D01*
X116051890Y-76223569D01*
X115800000Y-76172560D01*
X113600000Y-76172560D01*
X113364683Y-76216838D01*
X113148559Y-76355910D01*
X113003569Y-76568110D01*
X112952560Y-76820000D01*
X112952560Y-77420000D01*
X112996838Y-77655317D01*
X113060678Y-77754528D01*
X113003569Y-77838110D01*
X112952560Y-78090000D01*
X112952560Y-78690000D01*
X112996838Y-78925317D01*
X113060678Y-79024528D01*
X113003569Y-79108110D01*
X112952560Y-79360000D01*
X112952560Y-79960000D01*
X112996838Y-80195317D01*
X113060678Y-80294528D01*
X113003569Y-80378110D01*
X112952560Y-80630000D01*
X112952560Y-81230000D01*
X112996838Y-81465317D01*
X113060678Y-81564528D01*
X113003569Y-81648110D01*
X112952560Y-81900000D01*
X112952560Y-82500000D01*
X112996838Y-82735317D01*
X113060678Y-82834528D01*
X113003569Y-82918110D01*
X112952560Y-83170000D01*
X112952560Y-83636006D01*
X112915668Y-83620687D01*
X112486216Y-83620313D01*
X112089311Y-83784311D01*
X111785378Y-84087714D01*
X111620687Y-84484332D01*
X111620313Y-84913784D01*
X111784311Y-85310689D01*
X112087714Y-85614622D01*
X112311560Y-85707572D01*
X112109566Y-85909566D01*
X111928561Y-86180459D01*
X111865000Y-86500000D01*
X111865000Y-89500000D01*
X111928561Y-89819541D01*
X111976201Y-89890839D01*
X112097917Y-90073000D01*
X104260000Y-90073000D01*
X104260000Y-88209329D01*
X104273691Y-88215000D01*
X105214250Y-88215000D01*
X105373000Y-88056250D01*
X105373000Y-87407000D01*
X105627000Y-87407000D01*
X105627000Y-88056250D01*
X105785750Y-88215000D01*
X106726309Y-88215000D01*
X106959698Y-88118327D01*
X107138327Y-87939699D01*
X107235000Y-87706310D01*
X107235000Y-87565750D01*
X107076250Y-87407000D01*
X105627000Y-87407000D01*
X105373000Y-87407000D01*
X105353000Y-87407000D01*
X105353000Y-87153000D01*
X105373000Y-87153000D01*
X105373000Y-87133000D01*
X105627000Y-87133000D01*
X105627000Y-87153000D01*
X107076250Y-87153000D01*
X107235000Y-86994250D01*
X107235000Y-86853690D01*
X107145194Y-86636878D01*
X107196431Y-86561890D01*
X107247440Y-86310000D01*
X107247440Y-85710000D01*
X107203162Y-85474683D01*
X107139322Y-85375472D01*
X107196431Y-85291890D01*
X107247440Y-85040000D01*
X107247440Y-84440000D01*
X107203162Y-84204683D01*
X107139322Y-84105472D01*
X107196431Y-84021890D01*
X107247440Y-83770000D01*
X107247440Y-83170000D01*
X107203162Y-82934683D01*
X107139322Y-82835472D01*
X107196431Y-82751890D01*
X107247440Y-82500000D01*
X107247440Y-81900000D01*
X107203162Y-81664683D01*
X107139322Y-81565472D01*
X107196431Y-81481890D01*
X107247440Y-81230000D01*
X107247440Y-80630000D01*
X107203162Y-80394683D01*
X107139322Y-80295472D01*
X107196431Y-80211890D01*
X107247440Y-79960000D01*
X107247440Y-79360000D01*
X107203162Y-79124683D01*
X107139322Y-79025472D01*
X107196431Y-78941890D01*
X107247440Y-78690000D01*
X107247440Y-78090000D01*
X107203162Y-77854683D01*
X107139322Y-77755472D01*
X107196431Y-77671890D01*
X107247440Y-77420000D01*
X107247440Y-76820000D01*
X107203162Y-76584683D01*
X107064090Y-76368559D01*
X106851890Y-76223569D01*
X106600000Y-76172560D01*
X104400000Y-76172560D01*
X104164683Y-76216838D01*
X103948559Y-76355910D01*
X103945764Y-76360000D01*
X100580000Y-76360000D01*
X100289161Y-76417852D01*
X100045000Y-76580995D01*
X100045000Y-73045000D01*
X126073000Y-73045000D01*
X126073000Y-83892131D01*
G36*
X133285910Y-98576441D02*
X133498110Y-98721431D01*
X133750000Y-98772440D01*
X134750000Y-98772440D01*
X134948976Y-98735000D01*
X135135744Y-98735000D01*
X135058000Y-98922690D01*
X135058000Y-100743250D01*
X135216750Y-100902000D01*
X138066000Y-100902000D01*
X138066000Y-100882000D01*
X138320000Y-100882000D01*
X138320000Y-100902000D01*
X138340000Y-100902000D01*
X138340000Y-101156000D01*
X138320000Y-101156000D01*
X138320000Y-101793359D01*
X138153542Y-102248336D01*
X138179161Y-102858460D01*
X138320000Y-103198475D01*
X138320000Y-103485250D01*
X138478750Y-103644000D01*
X138645172Y-103644000D01*
X138684890Y-103683718D01*
X138724608Y-103644000D01*
X138824659Y-103644000D01*
X138863401Y-103759000D01*
X138824659Y-103874000D01*
X138724608Y-103874000D01*
X138684890Y-103834282D01*
X138645172Y-103874000D01*
X138478750Y-103874000D01*
X138320000Y-104032750D01*
X138320000Y-104333359D01*
X138153542Y-104788336D01*
X138179161Y-105398460D01*
X138320000Y-105738475D01*
X138320000Y-106362000D01*
X138340000Y-106362000D01*
X138340000Y-106616000D01*
X138320000Y-106616000D01*
X138320000Y-106636000D01*
X138066000Y-106636000D01*
X138066000Y-106616000D01*
X135216750Y-106616000D01*
X135058000Y-106774750D01*
X135058000Y-108595310D01*
X135112780Y-108727560D01*
X134200000Y-108727560D01*
X133964683Y-108771838D01*
X133748559Y-108910910D01*
X133700866Y-108980711D01*
X133664090Y-108923559D01*
X133451890Y-108778569D01*
X133200000Y-108727560D01*
X132200000Y-108727560D01*
X132001024Y-108765000D01*
X130861431Y-108765000D01*
X130800000Y-108752560D01*
X129536087Y-108752560D01*
X129534346Y-108751397D01*
X129144801Y-108673911D01*
X128970643Y-108499449D01*
X128406670Y-108265267D01*
X127796009Y-108264735D01*
X127231629Y-108497932D01*
X126799449Y-108929357D01*
X126565267Y-109493330D01*
X126564735Y-110103991D01*
X126797932Y-110668371D01*
X127229357Y-111100551D01*
X127776605Y-111327788D01*
X127796838Y-111435317D01*
X127935910Y-111651441D01*
X128148110Y-111796431D01*
X128400000Y-111847440D01*
X130800000Y-111847440D01*
X131035317Y-111803162D01*
X131251441Y-111664090D01*
X131396431Y-111451890D01*
X131440352Y-111235000D01*
X132015116Y-111235000D01*
X132200000Y-111272440D01*
X133200000Y-111272440D01*
X133435317Y-111228162D01*
X133651441Y-111089090D01*
X133699134Y-111019289D01*
X133735910Y-111076441D01*
X133948110Y-111221431D01*
X134200000Y-111272440D01*
X135107935Y-111272440D01*
X135171990Y-111371984D01*
X135154673Y-111389301D01*
X135058000Y-111622690D01*
X135058000Y-113443250D01*
X135216750Y-113602000D01*
X138066000Y-113602000D01*
X138066000Y-113582000D01*
X138320000Y-113582000D01*
X138320000Y-113602000D01*
X138340000Y-113602000D01*
X138340000Y-113856000D01*
X138320000Y-113856000D01*
X138320000Y-113876000D01*
X138066000Y-113876000D01*
X138066000Y-113856000D01*
X135216750Y-113856000D01*
X135058000Y-114014750D01*
X135058000Y-114589613D01*
X134745469Y-114589340D01*
X133344628Y-115168156D01*
X132271923Y-116238991D01*
X131690663Y-117638819D01*
X131689340Y-119154531D01*
X132268156Y-120555372D01*
X133338991Y-121628077D01*
X133403829Y-121655000D01*
X100045000Y-121655000D01*
X100045000Y-119734350D01*
X111077255Y-119734350D01*
X111169792Y-119996019D01*
X111761398Y-120214188D01*
X112391461Y-120189352D01*
X112858208Y-119996019D01*
X112950745Y-119734350D01*
X113617255Y-119734350D01*
X113709792Y-119996019D01*
X114301398Y-120214188D01*
X114931461Y-120189352D01*
X115398208Y-119996019D01*
X115490745Y-119734350D01*
X116157255Y-119734350D01*
X116249792Y-119996019D01*
X116841398Y-120214188D01*
X117471461Y-120189352D01*
X117938208Y-119996019D01*
X118030745Y-119734350D01*
X118697255Y-119734350D01*
X118789792Y-119996019D01*
X119381398Y-120214188D01*
X120011461Y-120189352D01*
X120478208Y-119996019D01*
X120570745Y-119734350D01*
X119634000Y-118797605D01*
X118697255Y-119734350D01*
X118030745Y-119734350D01*
X117094000Y-118797605D01*
X116157255Y-119734350D01*
X115490745Y-119734350D01*
X114554000Y-118797605D01*
X113617255Y-119734350D01*
X112950745Y-119734350D01*
X112014000Y-118797605D01*
X111077255Y-119734350D01*
X100045000Y-119734350D01*
X100045000Y-118365398D01*
X110417812Y-118365398D01*
X110442648Y-118995461D01*
X110635981Y-119462208D01*
X110897650Y-119554745D01*
X111834395Y-118618000D01*
X112193605Y-118618000D01*
X113130350Y-119554745D01*
X113284000Y-119500408D01*
X113437650Y-119554745D01*
X114374395Y-118618000D01*
X114733605Y-118618000D01*
X115670350Y-119554745D01*
X115824000Y-119500408D01*
X115977650Y-119554745D01*
X116914395Y-118618000D01*
X117273605Y-118618000D01*
X118210350Y-119554745D01*
X118364000Y-119500408D01*
X118517650Y-119554745D01*
X119454395Y-118618000D01*
X119813605Y-118618000D01*
X120750350Y-119554745D01*
X121012019Y-119462208D01*
X121230188Y-118870602D01*
X121205352Y-118240539D01*
X121012019Y-117773792D01*
X120750350Y-117681255D01*
X119813605Y-118618000D01*
X119454395Y-118618000D01*
X118517650Y-117681255D01*
X118364000Y-117735592D01*
X118210350Y-117681255D01*
X117273605Y-118618000D01*
X116914395Y-118618000D01*
X115977650Y-117681255D01*
X115824000Y-117735592D01*
X115670350Y-117681255D01*
X114733605Y-118618000D01*
X114374395Y-118618000D01*
X113437650Y-117681255D01*
X113284000Y-117735592D01*
X113130350Y-117681255D01*
X112193605Y-118618000D01*
X111834395Y-118618000D01*
X110897650Y-117681255D01*
X110635981Y-117773792D01*
X110417812Y-118365398D01*
X100045000Y-118365398D01*
X100045000Y-105100000D01*
X100032607Y-105037696D01*
X100032607Y-105024167D01*
X99960293Y-104660618D01*
X99863984Y-104428109D01*
X99863983Y-104428108D01*
X99863983Y-104428107D01*
X99658048Y-104119905D01*
X99569071Y-104030929D01*
X99480095Y-103941952D01*
X99171893Y-103736017D01*
X99171891Y-103736016D01*
X98939381Y-103639707D01*
X98575833Y-103567393D01*
X98512305Y-103567393D01*
X98450000Y-103555000D01*
X97427000Y-103555000D01*
X97427000Y-103435000D01*
X99154132Y-103435000D01*
X100065000Y-104345868D01*
X100065000Y-108100000D01*
X100128561Y-108419541D01*
X100249140Y-108600000D01*
X100309566Y-108690434D01*
X101292560Y-109673428D01*
X101292560Y-110365000D01*
X101336838Y-110600317D01*
X101475910Y-110816441D01*
X101688110Y-110961431D01*
X101940000Y-111012440D01*
X102003389Y-111012440D01*
X102085357Y-111094551D01*
X102649330Y-111328733D01*
X103259991Y-111329265D01*
X103824371Y-111096068D01*
X103908145Y-111012440D01*
X104480000Y-111012440D01*
X104715317Y-110968162D01*
X104931441Y-110829090D01*
X105076431Y-110616890D01*
X105127440Y-110365000D01*
X105127440Y-109880285D01*
X105455285Y-109552440D01*
X106125000Y-109552440D01*
X106360317Y-109508162D01*
X106529832Y-109399082D01*
X106543750Y-109413000D01*
X107048885Y-109413000D01*
X106997542Y-109553336D01*
X107002315Y-109667000D01*
X106543750Y-109667000D01*
X106385000Y-109825750D01*
X106385000Y-110491309D01*
X106481673Y-110724698D01*
X106660301Y-110903327D01*
X106893690Y-111000000D01*
X107685840Y-111000000D01*
X107729852Y-111130643D01*
X108303336Y-111340458D01*
X108913460Y-111314839D01*
X109358148Y-111130643D01*
X109402160Y-111000000D01*
X109686310Y-111000000D01*
X109919699Y-110903327D01*
X110098327Y-110724698D01*
X110195000Y-110491309D01*
X110195000Y-109825750D01*
X110076719Y-109707469D01*
X110073701Y-109635570D01*
X111815280Y-109635570D01*
X111815280Y-109976509D01*
X111911953Y-110209898D01*
X112090581Y-110388527D01*
X112323970Y-110485200D01*
X112464250Y-110485200D01*
X112623000Y-110326450D01*
X112623000Y-109476820D01*
X112877000Y-109476820D01*
X112877000Y-110326450D01*
X113035750Y-110485200D01*
X113176030Y-110485200D01*
X113409419Y-110388527D01*
X113588047Y-110209898D01*
X113684720Y-109976509D01*
X113684720Y-109635570D01*
X113525970Y-109476820D01*
X112877000Y-109476820D01*
X112623000Y-109476820D01*
X111974030Y-109476820D01*
X111815280Y-109635570D01*
X110073701Y-109635570D01*
X110064839Y-109424540D01*
X110053085Y-109396165D01*
X110195000Y-109254250D01*
X110195000Y-108588691D01*
X110098327Y-108355302D01*
X109919699Y-108176673D01*
X109888146Y-108163604D01*
X109940000Y-108111750D01*
X109940000Y-107763691D01*
X109843327Y-107530302D01*
X109664699Y-107351673D01*
X109431310Y-107255000D01*
X108765750Y-107255000D01*
X108607000Y-107413750D01*
X108607000Y-108080000D01*
X108575750Y-108080000D01*
X108417002Y-108238748D01*
X108417002Y-108080000D01*
X108353000Y-108080000D01*
X108353000Y-107413750D01*
X108194250Y-107255000D01*
X107528690Y-107255000D01*
X107295301Y-107351673D01*
X107116673Y-107530302D01*
X107020000Y-107763691D01*
X107020000Y-108080000D01*
X106893690Y-108080000D01*
X106772440Y-108130223D01*
X106772440Y-107890000D01*
X106728162Y-107654683D01*
X106717344Y-107637871D01*
X106721431Y-107631890D01*
X106772440Y-107380000D01*
X106772440Y-106620000D01*
X106728162Y-106384683D01*
X106717344Y-106367871D01*
X106721431Y-106361890D01*
X106772440Y-106110000D01*
X106772440Y-105882308D01*
X107007560Y-105929921D01*
X107007560Y-106110000D01*
X107051838Y-106345317D01*
X107190910Y-106561441D01*
X107403110Y-106706431D01*
X107655000Y-106757440D01*
X109305000Y-106757440D01*
X109540317Y-106713162D01*
X109661784Y-106635000D01*
X109871614Y-106635000D01*
X109998110Y-106721431D01*
X110250000Y-106772440D01*
X111250000Y-106772440D01*
X111485317Y-106728162D01*
X111701441Y-106589090D01*
X111749134Y-106519289D01*
X111785910Y-106576441D01*
X111813832Y-106595519D01*
X111802840Y-106649800D01*
X111802840Y-107650560D01*
X111847118Y-107885877D01*
X111986190Y-108102001D01*
X112198390Y-108246991D01*
X112229954Y-108253383D01*
X112090581Y-108311113D01*
X111911953Y-108489742D01*
X111815280Y-108723131D01*
X111815280Y-109064070D01*
X111974030Y-109222820D01*
X112623000Y-109222820D01*
X112623000Y-109202820D01*
X112877000Y-109202820D01*
X112877000Y-109222820D01*
X113525970Y-109222820D01*
X113684720Y-109064070D01*
X113684720Y-108723131D01*
X113588047Y-108489742D01*
X113409419Y-108311113D01*
X113275292Y-108255556D01*
X113285037Y-108253722D01*
X113501161Y-108114650D01*
X113646151Y-107902450D01*
X113697160Y-107650560D01*
X113697160Y-106761679D01*
X113751397Y-107034346D01*
X113997434Y-107402566D01*
X114365654Y-107648603D01*
X114800000Y-107735000D01*
X114800843Y-107734832D01*
X114930459Y-107821439D01*
X115022267Y-107839701D01*
X114920687Y-108084332D01*
X114920326Y-108498806D01*
X113963566Y-109455566D01*
X113782561Y-109726459D01*
X113719000Y-110046000D01*
X113719000Y-112222143D01*
X113685629Y-112235932D01*
X113283677Y-112637182D01*
X112884643Y-112237449D01*
X112320670Y-112003267D01*
X111710009Y-112002735D01*
X111145629Y-112235932D01*
X110713449Y-112667357D01*
X110479267Y-113231330D01*
X110478735Y-113841991D01*
X110711932Y-114406371D01*
X111077857Y-114772936D01*
X110671086Y-115178997D01*
X110429276Y-115761341D01*
X110428725Y-116391893D01*
X110669519Y-116974657D01*
X111108211Y-117414116D01*
X111077255Y-117501650D01*
X112014000Y-118438395D01*
X112950745Y-117501650D01*
X112919593Y-117413561D01*
X113284261Y-117049529D01*
X113648211Y-117414116D01*
X113617255Y-117501650D01*
X114554000Y-118438395D01*
X115490745Y-117501650D01*
X115459593Y-117413561D01*
X115824261Y-117049529D01*
X116188211Y-117414116D01*
X116157255Y-117501650D01*
X117094000Y-118438395D01*
X118030745Y-117501650D01*
X117999593Y-117413561D01*
X118364261Y-117049529D01*
X118728211Y-117414116D01*
X118697255Y-117501650D01*
X119634000Y-118438395D01*
X120570745Y-117501650D01*
X120539593Y-117413561D01*
X120976914Y-116977003D01*
X121218724Y-116394659D01*
X121219275Y-115764107D01*
X120978481Y-115181343D01*
X120570205Y-114772353D01*
X120934551Y-114408643D01*
X121168733Y-113844670D01*
X121169265Y-113234009D01*
X120936068Y-112669629D01*
X120504643Y-112237449D01*
X119940670Y-112003267D01*
X119330009Y-112002735D01*
X118765629Y-112235932D01*
X118363677Y-112637182D01*
X117964643Y-112237449D01*
X117400670Y-112003267D01*
X116790009Y-112002735D01*
X116225629Y-112235932D01*
X115823677Y-112637182D01*
X115424643Y-112237449D01*
X115389000Y-112222649D01*
X115389000Y-110391868D01*
X116533134Y-109247734D01*
X116610689Y-109215689D01*
X116914622Y-108912286D01*
X117079313Y-108515668D01*
X117079377Y-108442636D01*
X117201441Y-108364090D01*
X117223384Y-108331975D01*
X117235910Y-108351441D01*
X117448110Y-108496431D01*
X117700000Y-108547440D01*
X118700000Y-108547440D01*
X118766113Y-108535000D01*
X119331380Y-108535000D01*
X119348110Y-108546431D01*
X119600000Y-108597440D01*
X121400000Y-108597440D01*
X121630911Y-108553991D01*
X122464735Y-108553991D01*
X122697932Y-109118371D01*
X123129357Y-109550551D01*
X123693330Y-109784733D01*
X124303991Y-109785265D01*
X124868371Y-109552068D01*
X125300551Y-109120643D01*
X125527788Y-108573395D01*
X125635317Y-108553162D01*
X125851441Y-108414090D01*
X125996431Y-108201890D01*
X126047440Y-107950000D01*
X126047440Y-107835000D01*
X128338569Y-107835000D01*
X128400000Y-107847440D01*
X128976622Y-107847440D01*
X129014591Y-107885409D01*
X129512581Y-108218155D01*
X130100000Y-108335000D01*
X131099808Y-108335000D01*
X131403991Y-108335265D01*
X131968371Y-108102068D01*
X132400551Y-107670643D01*
X132634733Y-107106670D01*
X132635265Y-106496009D01*
X132402068Y-105931629D01*
X131970643Y-105499449D01*
X131423395Y-105272212D01*
X131403162Y-105164683D01*
X131264090Y-104948559D01*
X131051890Y-104803569D01*
X130800000Y-104752560D01*
X128400000Y-104752560D01*
X128333887Y-104765000D01*
X125350000Y-104765000D01*
X124762581Y-104881845D01*
X124731579Y-104902560D01*
X123600000Y-104902560D01*
X123364683Y-104946838D01*
X123148559Y-105085910D01*
X123003569Y-105298110D01*
X122952560Y-105550000D01*
X122952560Y-107126688D01*
X122699449Y-107379357D01*
X122465267Y-107943330D01*
X122464735Y-108553991D01*
X121630911Y-108553991D01*
X121635317Y-108553162D01*
X121851441Y-108414090D01*
X121996431Y-108201890D01*
X122047440Y-107950000D01*
X122047440Y-106373312D01*
X122300551Y-106120643D01*
X122534733Y-105556670D01*
X122535265Y-104946009D01*
X122302507Y-104382690D01*
X135058000Y-104382690D01*
X135058000Y-106203250D01*
X135216750Y-106362000D01*
X138066000Y-106362000D01*
X138066000Y-104032750D01*
X137907250Y-103874000D01*
X135566691Y-103874000D01*
X135333302Y-103970673D01*
X135154673Y-104149301D01*
X135058000Y-104382690D01*
X122302507Y-104382690D01*
X122302068Y-104381629D01*
X122255520Y-104335000D01*
X127000000Y-104335000D01*
X127587419Y-104218155D01*
X128085409Y-103885409D01*
X130656068Y-101314750D01*
X135058000Y-101314750D01*
X135058000Y-103135310D01*
X135154673Y-103368699D01*
X135333302Y-103547327D01*
X135566691Y-103644000D01*
X137907250Y-103644000D01*
X138066000Y-103485250D01*
X138066000Y-101156000D01*
X135216750Y-101156000D01*
X135058000Y-101314750D01*
X130656068Y-101314750D01*
X132785409Y-99185409D01*
X133118155Y-98687419D01*
X133128360Y-98636117D01*
X133201441Y-98589090D01*
X133249134Y-98519289D01*
X133285910Y-98576441D01*
X133285910Y-98576441D01*
G37*
X133285910Y-98576441D02*
X133498110Y-98721431D01*
X133750000Y-98772440D01*
X134750000Y-98772440D01*
X134948976Y-98735000D01*
X135135744Y-98735000D01*
X135058000Y-98922690D01*
X135058000Y-100743250D01*
X135216750Y-100902000D01*
X138066000Y-100902000D01*
X138066000Y-100882000D01*
X138320000Y-100882000D01*
X138320000Y-100902000D01*
X138340000Y-100902000D01*
X138340000Y-101156000D01*
X138320000Y-101156000D01*
X138320000Y-101793359D01*
X138153542Y-102248336D01*
X138179161Y-102858460D01*
X138320000Y-103198475D01*
X138320000Y-103485250D01*
X138478750Y-103644000D01*
X138645172Y-103644000D01*
X138684890Y-103683718D01*
X138724608Y-103644000D01*
X138824659Y-103644000D01*
X138863401Y-103759000D01*
X138824659Y-103874000D01*
X138724608Y-103874000D01*
X138684890Y-103834282D01*
X138645172Y-103874000D01*
X138478750Y-103874000D01*
X138320000Y-104032750D01*
X138320000Y-104333359D01*
X138153542Y-104788336D01*
X138179161Y-105398460D01*
X138320000Y-105738475D01*
X138320000Y-106362000D01*
X138340000Y-106362000D01*
X138340000Y-106616000D01*
X138320000Y-106616000D01*
X138320000Y-106636000D01*
X138066000Y-106636000D01*
X138066000Y-106616000D01*
X135216750Y-106616000D01*
X135058000Y-106774750D01*
X135058000Y-108595310D01*
X135112780Y-108727560D01*
X134200000Y-108727560D01*
X133964683Y-108771838D01*
X133748559Y-108910910D01*
X133700866Y-108980711D01*
X133664090Y-108923559D01*
X133451890Y-108778569D01*
X133200000Y-108727560D01*
X132200000Y-108727560D01*
X132001024Y-108765000D01*
X130861431Y-108765000D01*
X130800000Y-108752560D01*
X129536087Y-108752560D01*
X129534346Y-108751397D01*
X129144801Y-108673911D01*
X128970643Y-108499449D01*
X128406670Y-108265267D01*
X127796009Y-108264735D01*
X127231629Y-108497932D01*
X126799449Y-108929357D01*
X126565267Y-109493330D01*
X126564735Y-110103991D01*
X126797932Y-110668371D01*
X127229357Y-111100551D01*
X127776605Y-111327788D01*
X127796838Y-111435317D01*
X127935910Y-111651441D01*
X128148110Y-111796431D01*
X128400000Y-111847440D01*
X130800000Y-111847440D01*
X131035317Y-111803162D01*
X131251441Y-111664090D01*
X131396431Y-111451890D01*
X131440352Y-111235000D01*
X132015116Y-111235000D01*
X132200000Y-111272440D01*
X133200000Y-111272440D01*
X133435317Y-111228162D01*
X133651441Y-111089090D01*
X133699134Y-111019289D01*
X133735910Y-111076441D01*
X133948110Y-111221431D01*
X134200000Y-111272440D01*
X135107935Y-111272440D01*
X135171990Y-111371984D01*
X135154673Y-111389301D01*
X135058000Y-111622690D01*
X135058000Y-113443250D01*
X135216750Y-113602000D01*
X138066000Y-113602000D01*
X138066000Y-113582000D01*
X138320000Y-113582000D01*
X138320000Y-113602000D01*
X138340000Y-113602000D01*
X138340000Y-113856000D01*
X138320000Y-113856000D01*
X138320000Y-113876000D01*
X138066000Y-113876000D01*
X138066000Y-113856000D01*
X135216750Y-113856000D01*
X135058000Y-114014750D01*
X135058000Y-114589613D01*
X134745469Y-114589340D01*
X133344628Y-115168156D01*
X132271923Y-116238991D01*
X131690663Y-117638819D01*
X131689340Y-119154531D01*
X132268156Y-120555372D01*
X133338991Y-121628077D01*
X133403829Y-121655000D01*
X100045000Y-121655000D01*
X100045000Y-119734350D01*
X111077255Y-119734350D01*
X111169792Y-119996019D01*
X111761398Y-120214188D01*
X112391461Y-120189352D01*
X112858208Y-119996019D01*
X112950745Y-119734350D01*
X113617255Y-119734350D01*
X113709792Y-119996019D01*
X114301398Y-120214188D01*
X114931461Y-120189352D01*
X115398208Y-119996019D01*
X115490745Y-119734350D01*
X116157255Y-119734350D01*
X116249792Y-119996019D01*
X116841398Y-120214188D01*
X117471461Y-120189352D01*
X117938208Y-119996019D01*
X118030745Y-119734350D01*
X118697255Y-119734350D01*
X118789792Y-119996019D01*
X119381398Y-120214188D01*
X120011461Y-120189352D01*
X120478208Y-119996019D01*
X120570745Y-119734350D01*
X119634000Y-118797605D01*
X118697255Y-119734350D01*
X118030745Y-119734350D01*
X117094000Y-118797605D01*
X116157255Y-119734350D01*
X115490745Y-119734350D01*
X114554000Y-118797605D01*
X113617255Y-119734350D01*
X112950745Y-119734350D01*
X112014000Y-118797605D01*
X111077255Y-119734350D01*
X100045000Y-119734350D01*
X100045000Y-118365398D01*
X110417812Y-118365398D01*
X110442648Y-118995461D01*
X110635981Y-119462208D01*
X110897650Y-119554745D01*
X111834395Y-118618000D01*
X112193605Y-118618000D01*
X113130350Y-119554745D01*
X113284000Y-119500408D01*
X113437650Y-119554745D01*
X114374395Y-118618000D01*
X114733605Y-118618000D01*
X115670350Y-119554745D01*
X115824000Y-119500408D01*
X115977650Y-119554745D01*
X116914395Y-118618000D01*
X117273605Y-118618000D01*
X118210350Y-119554745D01*
X118364000Y-119500408D01*
X118517650Y-119554745D01*
X119454395Y-118618000D01*
X119813605Y-118618000D01*
X120750350Y-119554745D01*
X121012019Y-119462208D01*
X121230188Y-118870602D01*
X121205352Y-118240539D01*
X121012019Y-117773792D01*
X120750350Y-117681255D01*
X119813605Y-118618000D01*
X119454395Y-118618000D01*
X118517650Y-117681255D01*
X118364000Y-117735592D01*
X118210350Y-117681255D01*
X117273605Y-118618000D01*
X116914395Y-118618000D01*
X115977650Y-117681255D01*
X115824000Y-117735592D01*
X115670350Y-117681255D01*
X114733605Y-118618000D01*
X114374395Y-118618000D01*
X113437650Y-117681255D01*
X113284000Y-117735592D01*
X113130350Y-117681255D01*
X112193605Y-118618000D01*
X111834395Y-118618000D01*
X110897650Y-117681255D01*
X110635981Y-117773792D01*
X110417812Y-118365398D01*
X100045000Y-118365398D01*
X100045000Y-105100000D01*
X100032607Y-105037696D01*
X100032607Y-105024167D01*
X99960293Y-104660618D01*
X99863984Y-104428109D01*
X99863983Y-104428108D01*
X99863983Y-104428107D01*
X99658048Y-104119905D01*
X99569071Y-104030929D01*
X99480095Y-103941952D01*
X99171893Y-103736017D01*
X99171891Y-103736016D01*
X98939381Y-103639707D01*
X98575833Y-103567393D01*
X98512305Y-103567393D01*
X98450000Y-103555000D01*
X97427000Y-103555000D01*
X97427000Y-103435000D01*
X99154132Y-103435000D01*
X100065000Y-104345868D01*
X100065000Y-108100000D01*
X100128561Y-108419541D01*
X100249140Y-108600000D01*
X100309566Y-108690434D01*
X101292560Y-109673428D01*
X101292560Y-110365000D01*
X101336838Y-110600317D01*
X101475910Y-110816441D01*
X101688110Y-110961431D01*
X101940000Y-111012440D01*
X102003389Y-111012440D01*
X102085357Y-111094551D01*
X102649330Y-111328733D01*
X103259991Y-111329265D01*
X103824371Y-111096068D01*
X103908145Y-111012440D01*
X104480000Y-111012440D01*
X104715317Y-110968162D01*
X104931441Y-110829090D01*
X105076431Y-110616890D01*
X105127440Y-110365000D01*
X105127440Y-109880285D01*
X105455285Y-109552440D01*
X106125000Y-109552440D01*
X106360317Y-109508162D01*
X106529832Y-109399082D01*
X106543750Y-109413000D01*
X107048885Y-109413000D01*
X106997542Y-109553336D01*
X107002315Y-109667000D01*
X106543750Y-109667000D01*
X106385000Y-109825750D01*
X106385000Y-110491309D01*
X106481673Y-110724698D01*
X106660301Y-110903327D01*
X106893690Y-111000000D01*
X107685840Y-111000000D01*
X107729852Y-111130643D01*
X108303336Y-111340458D01*
X108913460Y-111314839D01*
X109358148Y-111130643D01*
X109402160Y-111000000D01*
X109686310Y-111000000D01*
X109919699Y-110903327D01*
X110098327Y-110724698D01*
X110195000Y-110491309D01*
X110195000Y-109825750D01*
X110076719Y-109707469D01*
X110073701Y-109635570D01*
X111815280Y-109635570D01*
X111815280Y-109976509D01*
X111911953Y-110209898D01*
X112090581Y-110388527D01*
X112323970Y-110485200D01*
X112464250Y-110485200D01*
X112623000Y-110326450D01*
X112623000Y-109476820D01*
X112877000Y-109476820D01*
X112877000Y-110326450D01*
X113035750Y-110485200D01*
X113176030Y-110485200D01*
X113409419Y-110388527D01*
X113588047Y-110209898D01*
X113684720Y-109976509D01*
X113684720Y-109635570D01*
X113525970Y-109476820D01*
X112877000Y-109476820D01*
X112623000Y-109476820D01*
X111974030Y-109476820D01*
X111815280Y-109635570D01*
X110073701Y-109635570D01*
X110064839Y-109424540D01*
X110053085Y-109396165D01*
X110195000Y-109254250D01*
X110195000Y-108588691D01*
X110098327Y-108355302D01*
X109919699Y-108176673D01*
X109888146Y-108163604D01*
X109940000Y-108111750D01*
X109940000Y-107763691D01*
X109843327Y-107530302D01*
X109664699Y-107351673D01*
X109431310Y-107255000D01*
X108765750Y-107255000D01*
X108607000Y-107413750D01*
X108607000Y-108080000D01*
X108575750Y-108080000D01*
X108417002Y-108238748D01*
X108417002Y-108080000D01*
X108353000Y-108080000D01*
X108353000Y-107413750D01*
X108194250Y-107255000D01*
X107528690Y-107255000D01*
X107295301Y-107351673D01*
X107116673Y-107530302D01*
X107020000Y-107763691D01*
X107020000Y-108080000D01*
X106893690Y-108080000D01*
X106772440Y-108130223D01*
X106772440Y-107890000D01*
X106728162Y-107654683D01*
X106717344Y-107637871D01*
X106721431Y-107631890D01*
X106772440Y-107380000D01*
X106772440Y-106620000D01*
X106728162Y-106384683D01*
X106717344Y-106367871D01*
X106721431Y-106361890D01*
X106772440Y-106110000D01*
X106772440Y-105882308D01*
X107007560Y-105929921D01*
X107007560Y-106110000D01*
X107051838Y-106345317D01*
X107190910Y-106561441D01*
X107403110Y-106706431D01*
X107655000Y-106757440D01*
X109305000Y-106757440D01*
X109540317Y-106713162D01*
X109661784Y-106635000D01*
X109871614Y-106635000D01*
X109998110Y-106721431D01*
X110250000Y-106772440D01*
X111250000Y-106772440D01*
X111485317Y-106728162D01*
X111701441Y-106589090D01*
X111749134Y-106519289D01*
X111785910Y-106576441D01*
X111813832Y-106595519D01*
X111802840Y-106649800D01*
X111802840Y-107650560D01*
X111847118Y-107885877D01*
X111986190Y-108102001D01*
X112198390Y-108246991D01*
X112229954Y-108253383D01*
X112090581Y-108311113D01*
X111911953Y-108489742D01*
X111815280Y-108723131D01*
X111815280Y-109064070D01*
X111974030Y-109222820D01*
X112623000Y-109222820D01*
X112623000Y-109202820D01*
X112877000Y-109202820D01*
X112877000Y-109222820D01*
X113525970Y-109222820D01*
X113684720Y-109064070D01*
X113684720Y-108723131D01*
X113588047Y-108489742D01*
X113409419Y-108311113D01*
X113275292Y-108255556D01*
X113285037Y-108253722D01*
X113501161Y-108114650D01*
X113646151Y-107902450D01*
X113697160Y-107650560D01*
X113697160Y-106761679D01*
X113751397Y-107034346D01*
X113997434Y-107402566D01*
X114365654Y-107648603D01*
X114800000Y-107735000D01*
X114800843Y-107734832D01*
X114930459Y-107821439D01*
X115022267Y-107839701D01*
X114920687Y-108084332D01*
X114920326Y-108498806D01*
X113963566Y-109455566D01*
X113782561Y-109726459D01*
X113719000Y-110046000D01*
X113719000Y-112222143D01*
X113685629Y-112235932D01*
X113283677Y-112637182D01*
X112884643Y-112237449D01*
X112320670Y-112003267D01*
X111710009Y-112002735D01*
X111145629Y-112235932D01*
X110713449Y-112667357D01*
X110479267Y-113231330D01*
X110478735Y-113841991D01*
X110711932Y-114406371D01*
X111077857Y-114772936D01*
X110671086Y-115178997D01*
X110429276Y-115761341D01*
X110428725Y-116391893D01*
X110669519Y-116974657D01*
X111108211Y-117414116D01*
X111077255Y-117501650D01*
X112014000Y-118438395D01*
X112950745Y-117501650D01*
X112919593Y-117413561D01*
X113284261Y-117049529D01*
X113648211Y-117414116D01*
X113617255Y-117501650D01*
X114554000Y-118438395D01*
X115490745Y-117501650D01*
X115459593Y-117413561D01*
X115824261Y-117049529D01*
X116188211Y-117414116D01*
X116157255Y-117501650D01*
X117094000Y-118438395D01*
X118030745Y-117501650D01*
X117999593Y-117413561D01*
X118364261Y-117049529D01*
X118728211Y-117414116D01*
X118697255Y-117501650D01*
X119634000Y-118438395D01*
X120570745Y-117501650D01*
X120539593Y-117413561D01*
X120976914Y-116977003D01*
X121218724Y-116394659D01*
X121219275Y-115764107D01*
X120978481Y-115181343D01*
X120570205Y-114772353D01*
X120934551Y-114408643D01*
X121168733Y-113844670D01*
X121169265Y-113234009D01*
X120936068Y-112669629D01*
X120504643Y-112237449D01*
X119940670Y-112003267D01*
X119330009Y-112002735D01*
X118765629Y-112235932D01*
X118363677Y-112637182D01*
X117964643Y-112237449D01*
X117400670Y-112003267D01*
X116790009Y-112002735D01*
X116225629Y-112235932D01*
X115823677Y-112637182D01*
X115424643Y-112237449D01*
X115389000Y-112222649D01*
X115389000Y-110391868D01*
X116533134Y-109247734D01*
X116610689Y-109215689D01*
X116914622Y-108912286D01*
X117079313Y-108515668D01*
X117079377Y-108442636D01*
X117201441Y-108364090D01*
X117223384Y-108331975D01*
X117235910Y-108351441D01*
X117448110Y-108496431D01*
X117700000Y-108547440D01*
X118700000Y-108547440D01*
X118766113Y-108535000D01*
X119331380Y-108535000D01*
X119348110Y-108546431D01*
X119600000Y-108597440D01*
X121400000Y-108597440D01*
X121630911Y-108553991D01*
X122464735Y-108553991D01*
X122697932Y-109118371D01*
X123129357Y-109550551D01*
X123693330Y-109784733D01*
X124303991Y-109785265D01*
X124868371Y-109552068D01*
X125300551Y-109120643D01*
X125527788Y-108573395D01*
X125635317Y-108553162D01*
X125851441Y-108414090D01*
X125996431Y-108201890D01*
X126047440Y-107950000D01*
X126047440Y-107835000D01*
X128338569Y-107835000D01*
X128400000Y-107847440D01*
X128976622Y-107847440D01*
X129014591Y-107885409D01*
X129512581Y-108218155D01*
X130100000Y-108335000D01*
X131099808Y-108335000D01*
X131403991Y-108335265D01*
X131968371Y-108102068D01*
X132400551Y-107670643D01*
X132634733Y-107106670D01*
X132635265Y-106496009D01*
X132402068Y-105931629D01*
X131970643Y-105499449D01*
X131423395Y-105272212D01*
X131403162Y-105164683D01*
X131264090Y-104948559D01*
X131051890Y-104803569D01*
X130800000Y-104752560D01*
X128400000Y-104752560D01*
X128333887Y-104765000D01*
X125350000Y-104765000D01*
X124762581Y-104881845D01*
X124731579Y-104902560D01*
X123600000Y-104902560D01*
X123364683Y-104946838D01*
X123148559Y-105085910D01*
X123003569Y-105298110D01*
X122952560Y-105550000D01*
X122952560Y-107126688D01*
X122699449Y-107379357D01*
X122465267Y-107943330D01*
X122464735Y-108553991D01*
X121630911Y-108553991D01*
X121635317Y-108553162D01*
X121851441Y-108414090D01*
X121996431Y-108201890D01*
X122047440Y-107950000D01*
X122047440Y-106373312D01*
X122300551Y-106120643D01*
X122534733Y-105556670D01*
X122535265Y-104946009D01*
X122302507Y-104382690D01*
X135058000Y-104382690D01*
X135058000Y-106203250D01*
X135216750Y-106362000D01*
X138066000Y-106362000D01*
X138066000Y-104032750D01*
X137907250Y-103874000D01*
X135566691Y-103874000D01*
X135333302Y-103970673D01*
X135154673Y-104149301D01*
X135058000Y-104382690D01*
X122302507Y-104382690D01*
X122302068Y-104381629D01*
X122255520Y-104335000D01*
X127000000Y-104335000D01*
X127587419Y-104218155D01*
X128085409Y-103885409D01*
X130656068Y-101314750D01*
X135058000Y-101314750D01*
X135058000Y-103135310D01*
X135154673Y-103368699D01*
X135333302Y-103547327D01*
X135566691Y-103644000D01*
X137907250Y-103644000D01*
X138066000Y-103485250D01*
X138066000Y-101156000D01*
X135216750Y-101156000D01*
X135058000Y-101314750D01*
X130656068Y-101314750D01*
X132785409Y-99185409D01*
X133118155Y-98687419D01*
X133128360Y-98636117D01*
X133201441Y-98589090D01*
X133249134Y-98519289D01*
X133285910Y-98576441D01*
G36*
X108507560Y-97179921D02*
X108507560Y-97360000D01*
X108551838Y-97595317D01*
X108690910Y-97811441D01*
X108903110Y-97956431D01*
X109155000Y-98007440D01*
X110805000Y-98007440D01*
X111040317Y-97963162D01*
X111256441Y-97824090D01*
X111401431Y-97611890D01*
X111452440Y-97360000D01*
X111452440Y-97315226D01*
X111498110Y-97346431D01*
X111534918Y-97353885D01*
X111597877Y-97448110D01*
X111659566Y-97540434D01*
X112652560Y-98533428D01*
X112652560Y-98700000D01*
X112696838Y-98935317D01*
X112835910Y-99151441D01*
X112868025Y-99173384D01*
X112848559Y-99185910D01*
X112703569Y-99398110D01*
X112652560Y-99650000D01*
X112652560Y-100120998D01*
X112385378Y-100387714D01*
X112220687Y-100784332D01*
X112220313Y-101213784D01*
X112384311Y-101610689D01*
X112687714Y-101914622D01*
X113084332Y-102079313D01*
X113513784Y-102079687D01*
X113619363Y-102036063D01*
X113665000Y-102104364D01*
X113665000Y-102355854D01*
X113551890Y-102278569D01*
X113300000Y-102227560D01*
X112300000Y-102227560D01*
X112064683Y-102271838D01*
X111848559Y-102410910D01*
X111703569Y-102623110D01*
X111652560Y-102875000D01*
X111652560Y-104125000D01*
X111665000Y-104191113D01*
X111665000Y-104390017D01*
X111501890Y-104278569D01*
X111250000Y-104227560D01*
X110250000Y-104227560D01*
X110207440Y-104235568D01*
X110207440Y-103635000D01*
X110163162Y-103399683D01*
X110024090Y-103183559D01*
X109811890Y-103038569D01*
X109560000Y-102987560D01*
X109496611Y-102987560D01*
X109414643Y-102905449D01*
X108850670Y-102671267D01*
X108240009Y-102670735D01*
X107675629Y-102903932D01*
X107591855Y-102987560D01*
X107020000Y-102987560D01*
X106784683Y-103031838D01*
X106568559Y-103170910D01*
X106423569Y-103383110D01*
X106372560Y-103635000D01*
X106372560Y-104497692D01*
X106125000Y-104447560D01*
X105455285Y-104447560D01*
X105127440Y-104119715D01*
X105127440Y-103635000D01*
X105083162Y-103399683D01*
X104944090Y-103183559D01*
X104731890Y-103038569D01*
X104480000Y-102987560D01*
X103908611Y-102987560D01*
X103826643Y-102905449D01*
X103262670Y-102671267D01*
X102652009Y-102670735D01*
X102616341Y-102685473D01*
X100940434Y-101009566D01*
X100878467Y-100968161D01*
X100669541Y-100828561D01*
X100350000Y-100765000D01*
X97427000Y-100765000D01*
X97427000Y-100435000D01*
X101654132Y-100435000D01*
X102599566Y-101380434D01*
X102792560Y-101509389D01*
X102792560Y-101615000D01*
X102836838Y-101850317D01*
X102975910Y-102066441D01*
X103188110Y-102211431D01*
X103440000Y-102262440D01*
X103503389Y-102262440D01*
X103585357Y-102344551D01*
X104149330Y-102578733D01*
X104759991Y-102579265D01*
X105324371Y-102346068D01*
X105408145Y-102262440D01*
X105980000Y-102262440D01*
X106215317Y-102218162D01*
X106431441Y-102079090D01*
X106576431Y-101866890D01*
X106627440Y-101615000D01*
X106627440Y-101130285D01*
X106955285Y-100802440D01*
X107625000Y-100802440D01*
X107860317Y-100758162D01*
X108029832Y-100649082D01*
X108043750Y-100663000D01*
X108548885Y-100663000D01*
X108497542Y-100803336D01*
X108502315Y-100917000D01*
X108043750Y-100917000D01*
X107885000Y-101075750D01*
X107885000Y-101741309D01*
X107981673Y-101974698D01*
X108160301Y-102153327D01*
X108393690Y-102250000D01*
X109185840Y-102250000D01*
X109229852Y-102380643D01*
X109803336Y-102590458D01*
X110413460Y-102564839D01*
X110858148Y-102380643D01*
X110902160Y-102250000D01*
X111186310Y-102250000D01*
X111419699Y-102153327D01*
X111598327Y-101974698D01*
X111695000Y-101741309D01*
X111695000Y-101075750D01*
X111576719Y-100957469D01*
X111564839Y-100674540D01*
X111553085Y-100646165D01*
X111695000Y-100504250D01*
X111695000Y-99838691D01*
X111598327Y-99605302D01*
X111419699Y-99426673D01*
X111388146Y-99413604D01*
X111440000Y-99361750D01*
X111440000Y-99013691D01*
X111343327Y-98780302D01*
X111164699Y-98601673D01*
X110931310Y-98505000D01*
X110265750Y-98505000D01*
X110107000Y-98663750D01*
X110107000Y-99330000D01*
X110075750Y-99330000D01*
X109917002Y-99488748D01*
X109917002Y-99330000D01*
X109853000Y-99330000D01*
X109853000Y-98663750D01*
X109694250Y-98505000D01*
X109028690Y-98505000D01*
X108795301Y-98601673D01*
X108616673Y-98780302D01*
X108520000Y-99013691D01*
X108520000Y-99330000D01*
X108393690Y-99330000D01*
X108272440Y-99380223D01*
X108272440Y-99140000D01*
X108228162Y-98904683D01*
X108217344Y-98887871D01*
X108221431Y-98881890D01*
X108272440Y-98630000D01*
X108272440Y-97870000D01*
X108228162Y-97634683D01*
X108217344Y-97617871D01*
X108221431Y-97611890D01*
X108272440Y-97360000D01*
X108272440Y-97132308D01*
X108507560Y-97179921D01*
X108507560Y-97179921D01*
G37*
X108507560Y-97179921D02*
X108507560Y-97360000D01*
X108551838Y-97595317D01*
X108690910Y-97811441D01*
X108903110Y-97956431D01*
X109155000Y-98007440D01*
X110805000Y-98007440D01*
X111040317Y-97963162D01*
X111256441Y-97824090D01*
X111401431Y-97611890D01*
X111452440Y-97360000D01*
X111452440Y-97315226D01*
X111498110Y-97346431D01*
X111534918Y-97353885D01*
X111597877Y-97448110D01*
X111659566Y-97540434D01*
X112652560Y-98533428D01*
X112652560Y-98700000D01*
X112696838Y-98935317D01*
X112835910Y-99151441D01*
X112868025Y-99173384D01*
X112848559Y-99185910D01*
X112703569Y-99398110D01*
X112652560Y-99650000D01*
X112652560Y-100120998D01*
X112385378Y-100387714D01*
X112220687Y-100784332D01*
X112220313Y-101213784D01*
X112384311Y-101610689D01*
X112687714Y-101914622D01*
X113084332Y-102079313D01*
X113513784Y-102079687D01*
X113619363Y-102036063D01*
X113665000Y-102104364D01*
X113665000Y-102355854D01*
X113551890Y-102278569D01*
X113300000Y-102227560D01*
X112300000Y-102227560D01*
X112064683Y-102271838D01*
X111848559Y-102410910D01*
X111703569Y-102623110D01*
X111652560Y-102875000D01*
X111652560Y-104125000D01*
X111665000Y-104191113D01*
X111665000Y-104390017D01*
X111501890Y-104278569D01*
X111250000Y-104227560D01*
X110250000Y-104227560D01*
X110207440Y-104235568D01*
X110207440Y-103635000D01*
X110163162Y-103399683D01*
X110024090Y-103183559D01*
X109811890Y-103038569D01*
X109560000Y-102987560D01*
X109496611Y-102987560D01*
X109414643Y-102905449D01*
X108850670Y-102671267D01*
X108240009Y-102670735D01*
X107675629Y-102903932D01*
X107591855Y-102987560D01*
X107020000Y-102987560D01*
X106784683Y-103031838D01*
X106568559Y-103170910D01*
X106423569Y-103383110D01*
X106372560Y-103635000D01*
X106372560Y-104497692D01*
X106125000Y-104447560D01*
X105455285Y-104447560D01*
X105127440Y-104119715D01*
X105127440Y-103635000D01*
X105083162Y-103399683D01*
X104944090Y-103183559D01*
X104731890Y-103038569D01*
X104480000Y-102987560D01*
X103908611Y-102987560D01*
X103826643Y-102905449D01*
X103262670Y-102671267D01*
X102652009Y-102670735D01*
X102616341Y-102685473D01*
X100940434Y-101009566D01*
X100878467Y-100968161D01*
X100669541Y-100828561D01*
X100350000Y-100765000D01*
X97427000Y-100765000D01*
X97427000Y-100435000D01*
X101654132Y-100435000D01*
X102599566Y-101380434D01*
X102792560Y-101509389D01*
X102792560Y-101615000D01*
X102836838Y-101850317D01*
X102975910Y-102066441D01*
X103188110Y-102211431D01*
X103440000Y-102262440D01*
X103503389Y-102262440D01*
X103585357Y-102344551D01*
X104149330Y-102578733D01*
X104759991Y-102579265D01*
X105324371Y-102346068D01*
X105408145Y-102262440D01*
X105980000Y-102262440D01*
X106215317Y-102218162D01*
X106431441Y-102079090D01*
X106576431Y-101866890D01*
X106627440Y-101615000D01*
X106627440Y-101130285D01*
X106955285Y-100802440D01*
X107625000Y-100802440D01*
X107860317Y-100758162D01*
X108029832Y-100649082D01*
X108043750Y-100663000D01*
X108548885Y-100663000D01*
X108497542Y-100803336D01*
X108502315Y-100917000D01*
X108043750Y-100917000D01*
X107885000Y-101075750D01*
X107885000Y-101741309D01*
X107981673Y-101974698D01*
X108160301Y-102153327D01*
X108393690Y-102250000D01*
X109185840Y-102250000D01*
X109229852Y-102380643D01*
X109803336Y-102590458D01*
X110413460Y-102564839D01*
X110858148Y-102380643D01*
X110902160Y-102250000D01*
X111186310Y-102250000D01*
X111419699Y-102153327D01*
X111598327Y-101974698D01*
X111695000Y-101741309D01*
X111695000Y-101075750D01*
X111576719Y-100957469D01*
X111564839Y-100674540D01*
X111553085Y-100646165D01*
X111695000Y-100504250D01*
X111695000Y-99838691D01*
X111598327Y-99605302D01*
X111419699Y-99426673D01*
X111388146Y-99413604D01*
X111440000Y-99361750D01*
X111440000Y-99013691D01*
X111343327Y-98780302D01*
X111164699Y-98601673D01*
X110931310Y-98505000D01*
X110265750Y-98505000D01*
X110107000Y-98663750D01*
X110107000Y-99330000D01*
X110075750Y-99330000D01*
X109917002Y-99488748D01*
X109917002Y-99330000D01*
X109853000Y-99330000D01*
X109853000Y-98663750D01*
X109694250Y-98505000D01*
X109028690Y-98505000D01*
X108795301Y-98601673D01*
X108616673Y-98780302D01*
X108520000Y-99013691D01*
X108520000Y-99330000D01*
X108393690Y-99330000D01*
X108272440Y-99380223D01*
X108272440Y-99140000D01*
X108228162Y-98904683D01*
X108217344Y-98887871D01*
X108221431Y-98881890D01*
X108272440Y-98630000D01*
X108272440Y-97870000D01*
X108228162Y-97634683D01*
X108217344Y-97617871D01*
X108221431Y-97611890D01*
X108272440Y-97360000D01*
X108272440Y-97132308D01*
X108507560Y-97179921D01*
G36*
X119665000Y-102800000D02*
X119723754Y-103095378D01*
X119347440Y-103471692D01*
X119347440Y-103300000D01*
X119303162Y-103064683D01*
X119164090Y-102848559D01*
X118997891Y-102735000D01*
X119400000Y-102735000D01*
X119689379Y-102677439D01*
X119665000Y-102800000D01*
X119665000Y-102800000D01*
G37*
X119665000Y-102800000D02*
X119723754Y-103095378D01*
X119347440Y-103471692D01*
X119347440Y-103300000D01*
X119303162Y-103064683D01*
X119164090Y-102848559D01*
X118997891Y-102735000D01*
X119400000Y-102735000D01*
X119689379Y-102677439D01*
X119665000Y-102800000D01*
G36*
X133344628Y-73068156D02*
X132271923Y-74138991D01*
X131690663Y-75538819D01*
X131689340Y-77054531D01*
X132268156Y-78455372D01*
X133338991Y-79528077D01*
X134738819Y-80109337D01*
X135058000Y-80109616D01*
X135058000Y-80803250D01*
X135216750Y-80962000D01*
X138066000Y-80962000D01*
X138066000Y-80942000D01*
X138320000Y-80942000D01*
X138320000Y-80962000D01*
X138340000Y-80962000D01*
X138340000Y-81216000D01*
X138320000Y-81216000D01*
X138320000Y-81236000D01*
X138066000Y-81236000D01*
X138066000Y-81216000D01*
X135216750Y-81216000D01*
X135058000Y-81374750D01*
X135058000Y-83195310D01*
X135154673Y-83428699D01*
X135172279Y-83446305D01*
X135096569Y-83557110D01*
X135095263Y-83563560D01*
X134104000Y-83563560D01*
X133868683Y-83607838D01*
X133652559Y-83746910D01*
X133604866Y-83816711D01*
X133568090Y-83759559D01*
X133355890Y-83614569D01*
X133104000Y-83563560D01*
X132104000Y-83563560D01*
X131868683Y-83607838D01*
X131652559Y-83746910D01*
X131507569Y-83959110D01*
X131456560Y-84211000D01*
X131456560Y-84236886D01*
X130926723Y-84766723D01*
X130659009Y-85167386D01*
X130565000Y-85640000D01*
X130565000Y-88059146D01*
X130364683Y-88096838D01*
X130148559Y-88235910D01*
X130003569Y-88448110D01*
X129952560Y-88700000D01*
X129952560Y-90500000D01*
X129996838Y-90735317D01*
X130135910Y-90951441D01*
X130348110Y-91096431D01*
X130600000Y-91147440D01*
X132176688Y-91147440D01*
X132429357Y-91400551D01*
X132993330Y-91634733D01*
X133603991Y-91635265D01*
X134168371Y-91402068D01*
X134600551Y-90970643D01*
X134834733Y-90406670D01*
X134835265Y-89796009D01*
X134602068Y-89231629D01*
X134170643Y-88799449D01*
X133725838Y-88614750D01*
X135058000Y-88614750D01*
X135058000Y-90435310D01*
X135154673Y-90668699D01*
X135333302Y-90847327D01*
X135566691Y-90944000D01*
X137907250Y-90944000D01*
X138066000Y-90785250D01*
X138066000Y-88456000D01*
X135216750Y-88456000D01*
X135058000Y-88614750D01*
X133725838Y-88614750D01*
X133623395Y-88572212D01*
X133603162Y-88464683D01*
X133464090Y-88248559D01*
X133251890Y-88103569D01*
X133035000Y-88059648D01*
X133035000Y-86151554D01*
X133078114Y-86108440D01*
X133104000Y-86108440D01*
X133339317Y-86064162D01*
X133555441Y-85925090D01*
X133603134Y-85855289D01*
X133639910Y-85912441D01*
X133852110Y-86057431D01*
X134104000Y-86108440D01*
X135104000Y-86108440D01*
X135105436Y-86108170D01*
X135058000Y-86222690D01*
X135058000Y-88043250D01*
X135216750Y-88202000D01*
X138066000Y-88202000D01*
X138066000Y-88182000D01*
X138320000Y-88182000D01*
X138320000Y-88202000D01*
X138340000Y-88202000D01*
X138340000Y-88456000D01*
X138320000Y-88456000D01*
X138320000Y-89093359D01*
X138153542Y-89548336D01*
X138179161Y-90158460D01*
X138320000Y-90498475D01*
X138320000Y-90785250D01*
X138478750Y-90944000D01*
X138645172Y-90944000D01*
X138684890Y-90983718D01*
X138724608Y-90944000D01*
X138824659Y-90944000D01*
X138863401Y-91059000D01*
X138824659Y-91174000D01*
X138724608Y-91174000D01*
X138684890Y-91134282D01*
X138645172Y-91174000D01*
X138478750Y-91174000D01*
X138320000Y-91332750D01*
X138320000Y-91633359D01*
X138153542Y-92088336D01*
X138179161Y-92698460D01*
X138320000Y-93038475D01*
X138320000Y-93662000D01*
X138340000Y-93662000D01*
X138340000Y-93916000D01*
X138320000Y-93916000D01*
X138320000Y-93936000D01*
X138066000Y-93936000D01*
X138066000Y-93916000D01*
X135216750Y-93916000D01*
X135058000Y-94074750D01*
X135058000Y-95895310D01*
X135154673Y-96128699D01*
X135172279Y-96146305D01*
X135096569Y-96257110D01*
X135094971Y-96265000D01*
X134934884Y-96265000D01*
X134750000Y-96227560D01*
X133750000Y-96227560D01*
X133514683Y-96271838D01*
X133298559Y-96410910D01*
X133250866Y-96480711D01*
X133214090Y-96423559D01*
X133001890Y-96278569D01*
X132750000Y-96227560D01*
X131750000Y-96227560D01*
X131514683Y-96271838D01*
X131298559Y-96410910D01*
X131153569Y-96623110D01*
X131142896Y-96675815D01*
X131112581Y-96681845D01*
X130614591Y-97014591D01*
X126364182Y-101265000D01*
X122205818Y-101265000D01*
X124235818Y-99235000D01*
X127100000Y-99235000D01*
X127687419Y-99118155D01*
X128185409Y-98785409D01*
X128229063Y-98720076D01*
X128360689Y-98665689D01*
X128664622Y-98362286D01*
X128829313Y-97965668D01*
X128829687Y-97536216D01*
X128665689Y-97139311D01*
X128362286Y-96835378D01*
X128321663Y-96818510D01*
X128185409Y-96614591D01*
X127687419Y-96281845D01*
X127100000Y-96165000D01*
X126723306Y-96165000D01*
X127110371Y-96005068D01*
X127542551Y-95573643D01*
X127769788Y-95026395D01*
X127877317Y-95006162D01*
X128093441Y-94867090D01*
X128181644Y-94738000D01*
X129793299Y-94738000D01*
X130212581Y-95018155D01*
X130242160Y-95024039D01*
X130348110Y-95096431D01*
X130600000Y-95147440D01*
X133000000Y-95147440D01*
X133235317Y-95103162D01*
X133451441Y-94964090D01*
X133596431Y-94751890D01*
X133647440Y-94500000D01*
X133647440Y-92700000D01*
X133603162Y-92464683D01*
X133464090Y-92248559D01*
X133251890Y-92103569D01*
X133000000Y-92052560D01*
X131423378Y-92052560D01*
X131385409Y-92014591D01*
X131170643Y-91799449D01*
X130889457Y-91682690D01*
X135058000Y-91682690D01*
X135058000Y-93503250D01*
X135216750Y-93662000D01*
X138066000Y-93662000D01*
X138066000Y-91332750D01*
X137907250Y-91174000D01*
X135566691Y-91174000D01*
X135333302Y-91270673D01*
X135154673Y-91449301D01*
X135058000Y-91682690D01*
X130889457Y-91682690D01*
X130606670Y-91565267D01*
X129996009Y-91564735D01*
X129746089Y-91668000D01*
X128181018Y-91668000D01*
X128106090Y-91551559D01*
X127893890Y-91406569D01*
X127642000Y-91355560D01*
X125842000Y-91355560D01*
X125606683Y-91399838D01*
X125390559Y-91538910D01*
X125245569Y-91751110D01*
X125194560Y-92003000D01*
X125194560Y-93090377D01*
X125101009Y-93230386D01*
X125007000Y-93703000D01*
X125007000Y-93766921D01*
X124941449Y-93832357D01*
X124707267Y-94396330D01*
X124706735Y-95006991D01*
X124939932Y-95571371D01*
X125371357Y-96003551D01*
X125760169Y-96165000D01*
X123600000Y-96165000D01*
X123012581Y-96281845D01*
X122514591Y-96614591D01*
X120014591Y-99114591D01*
X119681845Y-99612581D01*
X119565000Y-100200000D01*
X119623754Y-100495378D01*
X119347440Y-100771692D01*
X119347440Y-100400000D01*
X119303162Y-100164683D01*
X119164090Y-99948559D01*
X118951890Y-99803569D01*
X118700000Y-99752560D01*
X118279629Y-99752560D01*
X118279687Y-99686216D01*
X118115689Y-99289311D01*
X117812286Y-98985378D01*
X117415668Y-98820687D01*
X116986216Y-98820313D01*
X116936916Y-98840683D01*
X116915689Y-98789311D01*
X116612286Y-98485378D01*
X116215668Y-98320687D01*
X115786216Y-98320313D01*
X115647440Y-98377654D01*
X115647440Y-97700000D01*
X115603162Y-97464683D01*
X115502286Y-97307918D01*
X115918605Y-97480788D01*
X115938838Y-97588317D01*
X116077910Y-97804441D01*
X116290110Y-97949431D01*
X116542000Y-98000440D01*
X118942000Y-98000440D01*
X119177317Y-97956162D01*
X119393441Y-97817090D01*
X119538431Y-97604890D01*
X119589440Y-97353000D01*
X119589440Y-95553000D01*
X119545162Y-95317683D01*
X119406090Y-95101559D01*
X119193890Y-94956569D01*
X118942000Y-94905560D01*
X117365312Y-94905560D01*
X117112643Y-94652449D01*
X116548670Y-94418267D01*
X115938009Y-94417735D01*
X115579618Y-94565819D01*
X115579687Y-94486216D01*
X115415689Y-94089311D01*
X115112286Y-93785378D01*
X114715668Y-93620687D01*
X114286216Y-93620313D01*
X113889311Y-93784311D01*
X113585378Y-94087714D01*
X113425891Y-94471800D01*
X113248559Y-94585910D01*
X113226616Y-94618025D01*
X113214090Y-94598559D01*
X113001890Y-94453569D01*
X112750000Y-94402560D01*
X111750000Y-94402560D01*
X111683887Y-94415000D01*
X111496928Y-94415000D01*
X111311890Y-94288569D01*
X111060000Y-94237560D01*
X110996611Y-94237560D01*
X110914643Y-94155449D01*
X110350670Y-93921267D01*
X109740009Y-93920735D01*
X109175629Y-94153932D01*
X109091855Y-94237560D01*
X108520000Y-94237560D01*
X108284683Y-94281838D01*
X108068559Y-94420910D01*
X107923569Y-94633110D01*
X107872560Y-94885000D01*
X107872560Y-95747692D01*
X107625000Y-95697560D01*
X106955285Y-95697560D01*
X106627440Y-95369715D01*
X106627440Y-94885000D01*
X106583162Y-94649683D01*
X106444090Y-94433559D01*
X106231890Y-94288569D01*
X105980000Y-94237560D01*
X105408611Y-94237560D01*
X105326643Y-94155449D01*
X104762670Y-93921267D01*
X104152009Y-93920735D01*
X103587629Y-94153932D01*
X103503855Y-94237560D01*
X103440000Y-94237560D01*
X103204683Y-94281838D01*
X102988559Y-94420910D01*
X102843569Y-94633110D01*
X102792560Y-94885000D01*
X102792560Y-95654111D01*
X102749103Y-95683148D01*
X102709566Y-95709566D01*
X102172440Y-96246692D01*
X102172440Y-95800000D01*
X102128162Y-95564683D01*
X101989090Y-95348559D01*
X101919289Y-95300866D01*
X101976441Y-95264090D01*
X102121431Y-95051890D01*
X102172440Y-94800000D01*
X102172440Y-93800000D01*
X102128162Y-93564683D01*
X101989090Y-93348559D01*
X101776890Y-93203569D01*
X101525000Y-93152560D01*
X100722242Y-93152560D01*
X101114802Y-92760000D01*
X103000000Y-92760000D01*
X103290839Y-92702148D01*
X103537401Y-92537401D01*
X104037401Y-92037401D01*
X104202148Y-91790839D01*
X104260000Y-91500000D01*
X104260000Y-90927000D01*
X116428056Y-90927000D01*
X116306683Y-90949838D01*
X116090559Y-91088910D01*
X115945569Y-91301110D01*
X115894560Y-91553000D01*
X115894560Y-93353000D01*
X115938838Y-93588317D01*
X116077910Y-93804441D01*
X116290110Y-93949431D01*
X116542000Y-94000440D01*
X118118688Y-94000440D01*
X118371357Y-94253551D01*
X118935330Y-94487733D01*
X119545991Y-94488265D01*
X119546632Y-94488000D01*
X121210554Y-94488000D01*
X121238838Y-94638317D01*
X121377910Y-94854441D01*
X121590110Y-94999431D01*
X121842000Y-95050440D01*
X123642000Y-95050440D01*
X123877317Y-95006162D01*
X124093441Y-94867090D01*
X124238431Y-94654890D01*
X124289440Y-94403000D01*
X124289440Y-92826312D01*
X124542551Y-92573643D01*
X124776733Y-92009670D01*
X124777265Y-91399009D01*
X124582235Y-90927000D01*
X126800000Y-90927000D01*
X126849410Y-90916994D01*
X126891035Y-90888553D01*
X126918315Y-90846159D01*
X126927000Y-90800000D01*
X126927000Y-73045000D01*
X133400670Y-73045000D01*
X133344628Y-73068156D01*
X133344628Y-73068156D01*
G37*
X133344628Y-73068156D02*
X132271923Y-74138991D01*
X131690663Y-75538819D01*
X131689340Y-77054531D01*
X132268156Y-78455372D01*
X133338991Y-79528077D01*
X134738819Y-80109337D01*
X135058000Y-80109616D01*
X135058000Y-80803250D01*
X135216750Y-80962000D01*
X138066000Y-80962000D01*
X138066000Y-80942000D01*
X138320000Y-80942000D01*
X138320000Y-80962000D01*
X138340000Y-80962000D01*
X138340000Y-81216000D01*
X138320000Y-81216000D01*
X138320000Y-81236000D01*
X138066000Y-81236000D01*
X138066000Y-81216000D01*
X135216750Y-81216000D01*
X135058000Y-81374750D01*
X135058000Y-83195310D01*
X135154673Y-83428699D01*
X135172279Y-83446305D01*
X135096569Y-83557110D01*
X135095263Y-83563560D01*
X134104000Y-83563560D01*
X133868683Y-83607838D01*
X133652559Y-83746910D01*
X133604866Y-83816711D01*
X133568090Y-83759559D01*
X133355890Y-83614569D01*
X133104000Y-83563560D01*
X132104000Y-83563560D01*
X131868683Y-83607838D01*
X131652559Y-83746910D01*
X131507569Y-83959110D01*
X131456560Y-84211000D01*
X131456560Y-84236886D01*
X130926723Y-84766723D01*
X130659009Y-85167386D01*
X130565000Y-85640000D01*
X130565000Y-88059146D01*
X130364683Y-88096838D01*
X130148559Y-88235910D01*
X130003569Y-88448110D01*
X129952560Y-88700000D01*
X129952560Y-90500000D01*
X129996838Y-90735317D01*
X130135910Y-90951441D01*
X130348110Y-91096431D01*
X130600000Y-91147440D01*
X132176688Y-91147440D01*
X132429357Y-91400551D01*
X132993330Y-91634733D01*
X133603991Y-91635265D01*
X134168371Y-91402068D01*
X134600551Y-90970643D01*
X134834733Y-90406670D01*
X134835265Y-89796009D01*
X134602068Y-89231629D01*
X134170643Y-88799449D01*
X133725838Y-88614750D01*
X135058000Y-88614750D01*
X135058000Y-90435310D01*
X135154673Y-90668699D01*
X135333302Y-90847327D01*
X135566691Y-90944000D01*
X137907250Y-90944000D01*
X138066000Y-90785250D01*
X138066000Y-88456000D01*
X135216750Y-88456000D01*
X135058000Y-88614750D01*
X133725838Y-88614750D01*
X133623395Y-88572212D01*
X133603162Y-88464683D01*
X133464090Y-88248559D01*
X133251890Y-88103569D01*
X133035000Y-88059648D01*
X133035000Y-86151554D01*
X133078114Y-86108440D01*
X133104000Y-86108440D01*
X133339317Y-86064162D01*
X133555441Y-85925090D01*
X133603134Y-85855289D01*
X133639910Y-85912441D01*
X133852110Y-86057431D01*
X134104000Y-86108440D01*
X135104000Y-86108440D01*
X135105436Y-86108170D01*
X135058000Y-86222690D01*
X135058000Y-88043250D01*
X135216750Y-88202000D01*
X138066000Y-88202000D01*
X138066000Y-88182000D01*
X138320000Y-88182000D01*
X138320000Y-88202000D01*
X138340000Y-88202000D01*
X138340000Y-88456000D01*
X138320000Y-88456000D01*
X138320000Y-89093359D01*
X138153542Y-89548336D01*
X138179161Y-90158460D01*
X138320000Y-90498475D01*
X138320000Y-90785250D01*
X138478750Y-90944000D01*
X138645172Y-90944000D01*
X138684890Y-90983718D01*
X138724608Y-90944000D01*
X138824659Y-90944000D01*
X138863401Y-91059000D01*
X138824659Y-91174000D01*
X138724608Y-91174000D01*
X138684890Y-91134282D01*
X138645172Y-91174000D01*
X138478750Y-91174000D01*
X138320000Y-91332750D01*
X138320000Y-91633359D01*
X138153542Y-92088336D01*
X138179161Y-92698460D01*
X138320000Y-93038475D01*
X138320000Y-93662000D01*
X138340000Y-93662000D01*
X138340000Y-93916000D01*
X138320000Y-93916000D01*
X138320000Y-93936000D01*
X138066000Y-93936000D01*
X138066000Y-93916000D01*
X135216750Y-93916000D01*
X135058000Y-94074750D01*
X135058000Y-95895310D01*
X135154673Y-96128699D01*
X135172279Y-96146305D01*
X135096569Y-96257110D01*
X135094971Y-96265000D01*
X134934884Y-96265000D01*
X134750000Y-96227560D01*
X133750000Y-96227560D01*
X133514683Y-96271838D01*
X133298559Y-96410910D01*
X133250866Y-96480711D01*
X133214090Y-96423559D01*
X133001890Y-96278569D01*
X132750000Y-96227560D01*
X131750000Y-96227560D01*
X131514683Y-96271838D01*
X131298559Y-96410910D01*
X131153569Y-96623110D01*
X131142896Y-96675815D01*
X131112581Y-96681845D01*
X130614591Y-97014591D01*
X126364182Y-101265000D01*
X122205818Y-101265000D01*
X124235818Y-99235000D01*
X127100000Y-99235000D01*
X127687419Y-99118155D01*
X128185409Y-98785409D01*
X128229063Y-98720076D01*
X128360689Y-98665689D01*
X128664622Y-98362286D01*
X128829313Y-97965668D01*
X128829687Y-97536216D01*
X128665689Y-97139311D01*
X128362286Y-96835378D01*
X128321663Y-96818510D01*
X128185409Y-96614591D01*
X127687419Y-96281845D01*
X127100000Y-96165000D01*
X126723306Y-96165000D01*
X127110371Y-96005068D01*
X127542551Y-95573643D01*
X127769788Y-95026395D01*
X127877317Y-95006162D01*
X128093441Y-94867090D01*
X128181644Y-94738000D01*
X129793299Y-94738000D01*
X130212581Y-95018155D01*
X130242160Y-95024039D01*
X130348110Y-95096431D01*
X130600000Y-95147440D01*
X133000000Y-95147440D01*
X133235317Y-95103162D01*
X133451441Y-94964090D01*
X133596431Y-94751890D01*
X133647440Y-94500000D01*
X133647440Y-92700000D01*
X133603162Y-92464683D01*
X133464090Y-92248559D01*
X133251890Y-92103569D01*
X133000000Y-92052560D01*
X131423378Y-92052560D01*
X131385409Y-92014591D01*
X131170643Y-91799449D01*
X130889457Y-91682690D01*
X135058000Y-91682690D01*
X135058000Y-93503250D01*
X135216750Y-93662000D01*
X138066000Y-93662000D01*
X138066000Y-91332750D01*
X137907250Y-91174000D01*
X135566691Y-91174000D01*
X135333302Y-91270673D01*
X135154673Y-91449301D01*
X135058000Y-91682690D01*
X130889457Y-91682690D01*
X130606670Y-91565267D01*
X129996009Y-91564735D01*
X129746089Y-91668000D01*
X128181018Y-91668000D01*
X128106090Y-91551559D01*
X127893890Y-91406569D01*
X127642000Y-91355560D01*
X125842000Y-91355560D01*
X125606683Y-91399838D01*
X125390559Y-91538910D01*
X125245569Y-91751110D01*
X125194560Y-92003000D01*
X125194560Y-93090377D01*
X125101009Y-93230386D01*
X125007000Y-93703000D01*
X125007000Y-93766921D01*
X124941449Y-93832357D01*
X124707267Y-94396330D01*
X124706735Y-95006991D01*
X124939932Y-95571371D01*
X125371357Y-96003551D01*
X125760169Y-96165000D01*
X123600000Y-96165000D01*
X123012581Y-96281845D01*
X122514591Y-96614591D01*
X120014591Y-99114591D01*
X119681845Y-99612581D01*
X119565000Y-100200000D01*
X119623754Y-100495378D01*
X119347440Y-100771692D01*
X119347440Y-100400000D01*
X119303162Y-100164683D01*
X119164090Y-99948559D01*
X118951890Y-99803569D01*
X118700000Y-99752560D01*
X118279629Y-99752560D01*
X118279687Y-99686216D01*
X118115689Y-99289311D01*
X117812286Y-98985378D01*
X117415668Y-98820687D01*
X116986216Y-98820313D01*
X116936916Y-98840683D01*
X116915689Y-98789311D01*
X116612286Y-98485378D01*
X116215668Y-98320687D01*
X115786216Y-98320313D01*
X115647440Y-98377654D01*
X115647440Y-97700000D01*
X115603162Y-97464683D01*
X115502286Y-97307918D01*
X115918605Y-97480788D01*
X115938838Y-97588317D01*
X116077910Y-97804441D01*
X116290110Y-97949431D01*
X116542000Y-98000440D01*
X118942000Y-98000440D01*
X119177317Y-97956162D01*
X119393441Y-97817090D01*
X119538431Y-97604890D01*
X119589440Y-97353000D01*
X119589440Y-95553000D01*
X119545162Y-95317683D01*
X119406090Y-95101559D01*
X119193890Y-94956569D01*
X118942000Y-94905560D01*
X117365312Y-94905560D01*
X117112643Y-94652449D01*
X116548670Y-94418267D01*
X115938009Y-94417735D01*
X115579618Y-94565819D01*
X115579687Y-94486216D01*
X115415689Y-94089311D01*
X115112286Y-93785378D01*
X114715668Y-93620687D01*
X114286216Y-93620313D01*
X113889311Y-93784311D01*
X113585378Y-94087714D01*
X113425891Y-94471800D01*
X113248559Y-94585910D01*
X113226616Y-94618025D01*
X113214090Y-94598559D01*
X113001890Y-94453569D01*
X112750000Y-94402560D01*
X111750000Y-94402560D01*
X111683887Y-94415000D01*
X111496928Y-94415000D01*
X111311890Y-94288569D01*
X111060000Y-94237560D01*
X110996611Y-94237560D01*
X110914643Y-94155449D01*
X110350670Y-93921267D01*
X109740009Y-93920735D01*
X109175629Y-94153932D01*
X109091855Y-94237560D01*
X108520000Y-94237560D01*
X108284683Y-94281838D01*
X108068559Y-94420910D01*
X107923569Y-94633110D01*
X107872560Y-94885000D01*
X107872560Y-95747692D01*
X107625000Y-95697560D01*
X106955285Y-95697560D01*
X106627440Y-95369715D01*
X106627440Y-94885000D01*
X106583162Y-94649683D01*
X106444090Y-94433559D01*
X106231890Y-94288569D01*
X105980000Y-94237560D01*
X105408611Y-94237560D01*
X105326643Y-94155449D01*
X104762670Y-93921267D01*
X104152009Y-93920735D01*
X103587629Y-94153932D01*
X103503855Y-94237560D01*
X103440000Y-94237560D01*
X103204683Y-94281838D01*
X102988559Y-94420910D01*
X102843569Y-94633110D01*
X102792560Y-94885000D01*
X102792560Y-95654111D01*
X102749103Y-95683148D01*
X102709566Y-95709566D01*
X102172440Y-96246692D01*
X102172440Y-95800000D01*
X102128162Y-95564683D01*
X101989090Y-95348559D01*
X101919289Y-95300866D01*
X101976441Y-95264090D01*
X102121431Y-95051890D01*
X102172440Y-94800000D01*
X102172440Y-93800000D01*
X102128162Y-93564683D01*
X101989090Y-93348559D01*
X101776890Y-93203569D01*
X101525000Y-93152560D01*
X100722242Y-93152560D01*
X101114802Y-92760000D01*
X103000000Y-92760000D01*
X103290839Y-92702148D01*
X103537401Y-92537401D01*
X104037401Y-92037401D01*
X104202148Y-91790839D01*
X104260000Y-91500000D01*
X104260000Y-90927000D01*
X116428056Y-90927000D01*
X116306683Y-90949838D01*
X116090559Y-91088910D01*
X115945569Y-91301110D01*
X115894560Y-91553000D01*
X115894560Y-93353000D01*
X115938838Y-93588317D01*
X116077910Y-93804441D01*
X116290110Y-93949431D01*
X116542000Y-94000440D01*
X118118688Y-94000440D01*
X118371357Y-94253551D01*
X118935330Y-94487733D01*
X119545991Y-94488265D01*
X119546632Y-94488000D01*
X121210554Y-94488000D01*
X121238838Y-94638317D01*
X121377910Y-94854441D01*
X121590110Y-94999431D01*
X121842000Y-95050440D01*
X123642000Y-95050440D01*
X123877317Y-95006162D01*
X124093441Y-94867090D01*
X124238431Y-94654890D01*
X124289440Y-94403000D01*
X124289440Y-92826312D01*
X124542551Y-92573643D01*
X124776733Y-92009670D01*
X124777265Y-91399009D01*
X124582235Y-90927000D01*
X126800000Y-90927000D01*
X126849410Y-90916994D01*
X126891035Y-90888553D01*
X126918315Y-90846159D01*
X126927000Y-90800000D01*
X126927000Y-73045000D01*
X133400670Y-73045000D01*
X133344628Y-73068156D01*
G36*
X100275000Y-97447440D02*
X100971692Y-97447440D01*
X100654132Y-97765000D01*
X97427000Y-97765000D01*
X97427000Y-97435000D01*
X100213569Y-97435000D01*
X100275000Y-97447440D01*
X100275000Y-97447440D01*
G37*
X100275000Y-97447440D02*
X100971692Y-97447440D01*
X100654132Y-97765000D01*
X97427000Y-97765000D01*
X97427000Y-97435000D01*
X100213569Y-97435000D01*
X100275000Y-97447440D01*
G36*
X98854132Y-94765000D02*
X97427000Y-94765000D01*
X97427000Y-94360000D01*
X99200000Y-94360000D01*
X99273815Y-94345317D01*
X98854132Y-94765000D01*
X98854132Y-94765000D01*
G37*
X98854132Y-94765000D02*
X97427000Y-94765000D01*
X97427000Y-94360000D01*
X99200000Y-94360000D01*
X99273815Y-94345317D01*
X98854132Y-94765000D01*
G36*
X121714212Y-91379605D02*
X121606683Y-91399838D01*
X121578458Y-91418000D01*
X119564038Y-91418000D01*
X119545162Y-91317683D01*
X119406090Y-91101559D01*
X119193890Y-90956569D01*
X119047874Y-90927000D01*
X121902150Y-90927000D01*
X121714212Y-91379605D01*
X121714212Y-91379605D01*
G37*
X121714212Y-91379605D02*
X121606683Y-91399838D01*
X121578458Y-91418000D01*
X119564038Y-91418000D01*
X119545162Y-91317683D01*
X119406090Y-91101559D01*
X119193890Y-90956569D01*
X119047874Y-90927000D01*
X121902150Y-90927000D01*
X121714212Y-91379605D01*
M02*
