G04 #@! TF.FileFunction,Copper,L1,Top,Signal*
%FSLAX46Y46*%
G04 Gerber Fmt 4.6, Leading zero omitted, Abs format (unit mm)*
G04 Created by KiCad (PCBNEW 0.201509221857+6208~30~ubuntu14.04.1-product) date Thu 24 Sep 2015 08:06:42 PM PDT*
%MOMM*%
G01*
G04 APERTURE LIST*
%ADD10C,0.100000*%
%ADD11R,2.200000X0.600000*%
%ADD12C,1.800000*%
%ADD13R,5.000000X1.800000*%
%ADD14R,5.000000X3.960000*%
%ADD15R,2.400000X1.800000*%
%ADD16R,1.800000X2.400000*%
%ADD17R,0.599440X1.000760*%
%ADD18C,1.900000*%
%ADD19C,6.350000*%
%ADD20R,4.200000X0.700000*%
%ADD21R,1.000000X1.250000*%
%ADD22R,1.250000X1.000000*%
%ADD23R,1.800000X1.800000*%
%ADD24R,1.000000X0.400000*%
%ADD25R,0.400000X1.000000*%
%ADD26R,2.540000X1.650000*%
%ADD27R,1.650000X1.015000*%
%ADD28R,1.650000X0.760000*%
%ADD29R,2.000000X1.650000*%
%ADD30C,2.100000*%
%ADD31C,0.889000*%
%ADD32C,0.400000*%
%ADD33C,0.250000*%
%ADD34C,1.000000*%
%ADD35C,1.200000*%
%ADD36C,1.800000*%
%ADD37C,0.254000*%
G04 APERTURE END LIST*
D10*
D11*
X14550000Y-4720000D03*
X14550000Y-5990000D03*
X14550000Y-7260000D03*
X14550000Y-8530000D03*
X14550000Y-9800000D03*
X14550000Y-11070000D03*
X14550000Y-12340000D03*
X14550000Y-13610000D03*
X14550000Y-14880000D03*
X23750000Y-4720000D03*
X23750000Y-5990000D03*
X23750000Y-7260000D03*
X23750000Y-8530000D03*
X23750000Y-9800000D03*
X23750000Y-11070000D03*
X23750000Y-12340000D03*
X23750000Y-13610000D03*
X23750000Y-14880000D03*
D12*
X48750000Y-42789000D03*
X48750000Y-32629000D03*
D13*
X47243000Y-37709000D03*
D14*
X47243000Y-34089000D03*
X47243000Y-41329000D03*
D12*
X48750000Y-40249000D03*
X48750000Y-35169000D03*
X48750000Y-37709000D03*
X48750000Y-30089000D03*
X48750000Y-19929000D03*
D13*
X47243000Y-25009000D03*
D14*
X47243000Y-21389000D03*
X47243000Y-28629000D03*
D12*
X48750000Y-27549000D03*
X48750000Y-22469000D03*
X48750000Y-25009000D03*
X48750000Y-17389000D03*
X48750000Y-7229000D03*
D13*
X47243000Y-12309000D03*
D14*
X47243000Y-8689000D03*
X47243000Y-15929000D03*
D12*
X48750000Y-14849000D03*
X48750000Y-9769000D03*
X48750000Y-12309000D03*
D15*
X38650000Y-33900000D03*
X38650000Y-37900000D03*
D12*
X40150000Y-34400000D03*
X37150000Y-37400000D03*
D16*
X29550000Y-34350000D03*
X33550000Y-34350000D03*
D12*
X30050000Y-32850000D03*
X33050000Y-35850000D03*
D15*
X40850000Y-21200000D03*
X40850000Y-17200000D03*
D12*
X39350000Y-20700000D03*
X42350000Y-17700000D03*
D16*
X31792000Y-20803000D03*
X35792000Y-20803000D03*
D12*
X32292000Y-19303000D03*
X35292000Y-22303000D03*
D15*
X26792000Y-24053000D03*
X26792000Y-20053000D03*
D12*
X25292000Y-23553000D03*
X28292000Y-20553000D03*
D17*
X21800000Y-36949820D03*
X21800000Y-34750180D03*
D18*
X21064000Y-43678000D03*
X23604000Y-43678000D03*
X26144000Y-43678000D03*
X28684000Y-43678000D03*
D19*
X44550000Y-46000000D03*
X44550000Y-3900000D03*
D20*
X3550000Y-31200000D03*
X3550000Y-30200000D03*
X3550000Y-29200000D03*
X3550000Y-28200000D03*
X3550000Y-27200000D03*
X3550000Y-26200000D03*
X3550000Y-25200000D03*
X3550000Y-24200000D03*
X3550000Y-23200000D03*
X3550000Y-22200000D03*
X3550000Y-21200000D03*
X3550000Y-18200000D03*
X3550000Y-17200000D03*
X3550000Y-16200000D03*
X3550000Y-15200000D03*
X3550000Y-14200000D03*
X3550000Y-13200000D03*
X3550000Y-12200000D03*
D21*
X21800000Y-33100000D03*
X19800000Y-33100000D03*
X23850000Y-31100000D03*
X21850000Y-31100000D03*
D22*
X9950000Y-21900000D03*
X9950000Y-23900000D03*
D21*
X41654000Y-12436000D03*
X43654000Y-12436000D03*
X41300000Y-25100000D03*
X43300000Y-25100000D03*
X41750000Y-37600000D03*
X43750000Y-37600000D03*
D23*
X29250000Y-2600000D03*
D12*
X29250000Y-5140000D03*
X29250000Y-7680000D03*
X29250000Y-10220000D03*
X29250000Y-12760000D03*
X29250000Y-15300000D03*
X31790000Y-2600000D03*
X31790000Y-5140000D03*
X31790000Y-7680000D03*
X31790000Y-10220000D03*
X31790000Y-12760000D03*
X31790000Y-15300000D03*
X21064000Y-41138000D03*
X23604000Y-41138000D03*
X26144000Y-41138000D03*
X28684000Y-41138000D03*
D18*
X28684000Y-46218000D03*
X26144000Y-46218000D03*
X23604000Y-46218000D03*
X21064000Y-46218000D03*
D24*
X21300000Y-22850000D03*
X21300000Y-23500000D03*
X21300000Y-24150000D03*
X23250000Y-24150000D03*
X23250000Y-23500000D03*
X23250000Y-22850000D03*
D25*
X23850000Y-25800000D03*
X23200000Y-25800000D03*
X22550000Y-25800000D03*
X22550000Y-27750000D03*
X23200000Y-27750000D03*
X23850000Y-27750000D03*
D24*
X27250000Y-29500000D03*
X27250000Y-28850000D03*
X27250000Y-28200000D03*
X25300000Y-28200000D03*
X25300000Y-28850000D03*
X25300000Y-29500000D03*
X27250000Y-32400000D03*
X27250000Y-31750000D03*
X27250000Y-31100000D03*
X25300000Y-31100000D03*
X25300000Y-31750000D03*
X25300000Y-32400000D03*
X27250000Y-35300000D03*
X27250000Y-34650000D03*
X27250000Y-34000000D03*
X25300000Y-34000000D03*
X25300000Y-34650000D03*
X25300000Y-35300000D03*
D26*
X17340000Y-37140000D03*
X17340000Y-32060000D03*
X12260000Y-37140000D03*
D10*
G36*
X13530000Y-34980000D02*
X10990000Y-35430000D01*
X10990000Y-33770000D01*
X13530000Y-34220000D01*
X13530000Y-34980000D01*
X13530000Y-34980000D01*
G37*
D26*
X12260000Y-32060000D03*
D27*
X17530000Y-35997500D03*
X17530000Y-33202500D03*
X14350000Y-35997500D03*
D28*
X14350000Y-34600000D03*
D27*
X14350000Y-33202500D03*
D10*
G36*
X14237107Y-36505000D02*
X13530000Y-37212107D01*
X12822893Y-36505000D01*
X13530000Y-35797893D01*
X14237107Y-36505000D01*
X14237107Y-36505000D01*
G37*
G36*
X14237107Y-32695000D02*
X13530000Y-33402107D01*
X12822893Y-32695000D01*
X13530000Y-31987893D01*
X14237107Y-32695000D01*
X14237107Y-32695000D01*
G37*
D29*
X11990000Y-34600000D03*
D12*
X12006000Y-31806000D03*
D30*
X12006000Y-34600000D03*
D12*
X12006000Y-37394000D03*
X17594000Y-37394000D03*
X17594000Y-31806000D03*
D26*
X18840000Y-28390000D03*
X18840000Y-23310000D03*
X13760000Y-28390000D03*
D10*
G36*
X15030000Y-26230000D02*
X12490000Y-26680000D01*
X12490000Y-25020000D01*
X15030000Y-25470000D01*
X15030000Y-26230000D01*
X15030000Y-26230000D01*
G37*
D26*
X13760000Y-23310000D03*
D27*
X19030000Y-27247500D03*
X19030000Y-24452500D03*
X15850000Y-27247500D03*
D28*
X15850000Y-25850000D03*
D27*
X15850000Y-24452500D03*
D10*
G36*
X15737107Y-27755000D02*
X15030000Y-28462107D01*
X14322893Y-27755000D01*
X15030000Y-27047893D01*
X15737107Y-27755000D01*
X15737107Y-27755000D01*
G37*
G36*
X15737107Y-23945000D02*
X15030000Y-24652107D01*
X14322893Y-23945000D01*
X15030000Y-23237893D01*
X15737107Y-23945000D01*
X15737107Y-23945000D01*
G37*
D29*
X13490000Y-25850000D03*
D12*
X13506000Y-23056000D03*
D30*
X13506000Y-25850000D03*
D12*
X13506000Y-28644000D03*
X19094000Y-28644000D03*
X19094000Y-23056000D03*
D31*
X29850000Y-18900000D03*
X10550000Y-28500000D03*
X6850000Y-22200000D03*
X6850000Y-25200000D03*
X31042000Y-24053000D03*
X21150000Y-21700000D03*
X37150000Y-32100000D03*
X30150000Y-37400000D03*
X25350000Y-38100000D03*
X23050000Y-36400000D03*
X28550000Y-27600000D03*
X28550000Y-30500000D03*
X23550000Y-22300000D03*
X25050000Y-27000000D03*
X25050000Y-35900000D03*
X25050000Y-33000000D03*
X25050000Y-30100000D03*
X10050000Y-2300000D03*
X13450000Y-2300000D03*
X16850000Y-2300000D03*
X16850000Y-14900000D03*
X22650000Y-24600000D03*
X22350000Y-28600000D03*
X26250000Y-27500000D03*
X26250000Y-30400000D03*
X26250000Y-33300000D03*
X36800000Y-25350000D03*
X21750000Y-12300000D03*
D32*
X3550000Y-30200000D02*
X8550000Y-30200000D01*
X9950000Y-35700000D02*
X11390000Y-37140000D01*
X9950000Y-31600000D02*
X9950000Y-35700000D01*
X8550000Y-30200000D02*
X9950000Y-31600000D01*
X11390000Y-37140000D02*
X12260000Y-37140000D01*
X3550000Y-29200000D02*
X9400000Y-29200000D01*
X9400000Y-29200000D02*
X12260000Y-32060000D01*
X3550000Y-27200000D02*
X11050000Y-27200000D01*
X12240000Y-28390000D02*
X13760000Y-28390000D01*
X11050000Y-27200000D02*
X12240000Y-28390000D01*
X3550000Y-26200000D02*
X10050000Y-26200000D01*
X12350000Y-23900000D02*
X13170000Y-23900000D01*
X11550000Y-24700000D02*
X12350000Y-23900000D01*
X10050000Y-26200000D02*
X11550000Y-24700000D01*
X13170000Y-23900000D02*
X13760000Y-23310000D01*
X3550000Y-24200000D02*
X9650000Y-24200000D01*
X9650000Y-24200000D02*
X9950000Y-23900000D01*
X3550000Y-23200000D02*
X8250000Y-23200000D01*
X9250000Y-22200000D02*
X9650000Y-22200000D01*
X8250000Y-23200000D02*
X9250000Y-22200000D01*
X9650000Y-22200000D02*
X9950000Y-21900000D01*
D33*
X12550000Y-17700000D02*
X12550000Y-14200000D01*
X13140000Y-13610000D02*
X14550000Y-13610000D01*
X12550000Y-14200000D02*
X13140000Y-13610000D01*
X3550000Y-21200000D02*
X8250000Y-21200000D01*
X12550000Y-19100000D02*
X12550000Y-17700000D01*
X12550000Y-17700000D02*
X12550000Y-17600000D01*
X12050000Y-19600000D02*
X12550000Y-19100000D01*
X9850000Y-19600000D02*
X12050000Y-19600000D01*
X8250000Y-21200000D02*
X9850000Y-19600000D01*
X12050000Y-14500000D02*
X12050000Y-12900000D01*
X12610000Y-12340000D02*
X14550000Y-12340000D01*
X12050000Y-12900000D02*
X12610000Y-12340000D01*
X3550000Y-18200000D02*
X11550000Y-18200000D01*
X12050000Y-17700000D02*
X12050000Y-14500000D01*
X12050000Y-14500000D02*
X12050000Y-14400000D01*
X11550000Y-18200000D02*
X12050000Y-17700000D01*
X11550000Y-13100000D02*
X11550000Y-11600000D01*
X11050000Y-17200000D02*
X11550000Y-16700000D01*
X11550000Y-16700000D02*
X11550000Y-13100000D01*
X3550000Y-17200000D02*
X11050000Y-17200000D01*
X12080000Y-11070000D02*
X14550000Y-11070000D01*
X11550000Y-11600000D02*
X12080000Y-11070000D01*
X11050000Y-11900000D02*
X11050000Y-10300000D01*
X11550000Y-9800000D02*
X14550000Y-9800000D01*
X11050000Y-10300000D02*
X11550000Y-9800000D01*
X3550000Y-16200000D02*
X10550000Y-16200000D01*
X11050000Y-15700000D02*
X11050000Y-11900000D01*
X11050000Y-11900000D02*
X11050000Y-11800000D01*
X10550000Y-16200000D02*
X11050000Y-15700000D01*
X10550000Y-11400000D02*
X10550000Y-9100000D01*
X10050000Y-15200000D02*
X10550000Y-14700000D01*
X10550000Y-14700000D02*
X10550000Y-11400000D01*
X3550000Y-15200000D02*
X10050000Y-15200000D01*
X11120000Y-8530000D02*
X14550000Y-8530000D01*
X10550000Y-9100000D02*
X11120000Y-8530000D01*
X10050000Y-10100000D02*
X10050000Y-7800000D01*
X9550000Y-14200000D02*
X10050000Y-13700000D01*
X10050000Y-13700000D02*
X10050000Y-10100000D01*
X3550000Y-14200000D02*
X9550000Y-14200000D01*
X10590000Y-7260000D02*
X14550000Y-7260000D01*
X10050000Y-7800000D02*
X10590000Y-7260000D01*
X9550000Y-8900000D02*
X9550000Y-6500000D01*
X9050000Y-13200000D02*
X9550000Y-12700000D01*
X9550000Y-12700000D02*
X9550000Y-8900000D01*
X3550000Y-13200000D02*
X9050000Y-13200000D01*
X10060000Y-5990000D02*
X14550000Y-5990000D01*
X9550000Y-6500000D02*
X10060000Y-5990000D01*
X9050000Y-7700000D02*
X9050000Y-5300000D01*
X8550000Y-12200000D02*
X9050000Y-11700000D01*
X9050000Y-11700000D02*
X9050000Y-7700000D01*
X3550000Y-12200000D02*
X8550000Y-12200000D01*
X9630000Y-4720000D02*
X14550000Y-4720000D01*
X9050000Y-5300000D02*
X9630000Y-4720000D01*
D32*
X3550000Y-28200000D02*
X10250000Y-28200000D01*
X10250000Y-28200000D02*
X10550000Y-28500000D01*
X3550000Y-31200000D02*
X6850000Y-31200000D01*
X6850000Y-31200000D02*
X6950000Y-31100000D01*
X3550000Y-22200000D02*
X6850000Y-22200000D01*
X3550000Y-25200000D02*
X6850000Y-25200000D01*
D34*
X31050000Y-24061000D02*
X31050000Y-24100000D01*
X31042000Y-24053000D02*
X31050000Y-24061000D01*
D33*
X22250000Y-22100000D02*
X21850000Y-21700000D01*
X22050000Y-23500000D02*
X22250000Y-23300000D01*
X22250000Y-23300000D02*
X22250000Y-22100000D01*
X21300000Y-23500000D02*
X22050000Y-23500000D01*
X21850000Y-21700000D02*
X21150000Y-21700000D01*
X21550000Y-26800000D02*
X20430000Y-26800000D01*
X23200000Y-26550000D02*
X22950000Y-26800000D01*
X22950000Y-26800000D02*
X21550000Y-26800000D01*
X23200000Y-25800000D02*
X23200000Y-26550000D01*
X20430000Y-26800000D02*
X18840000Y-28390000D01*
D32*
X30150000Y-37400000D02*
X30150000Y-37500000D01*
D33*
X26250000Y-36400000D02*
X26250000Y-36700000D01*
X26400000Y-34650000D02*
X26250000Y-34800000D01*
X26250000Y-34800000D02*
X26250000Y-36400000D01*
X27250000Y-34650000D02*
X26400000Y-34650000D01*
X25350000Y-37600000D02*
X25350000Y-38100000D01*
X26250000Y-36700000D02*
X25350000Y-37600000D01*
D32*
X21800000Y-36949820D02*
X22500180Y-36949820D01*
X22500180Y-36949820D02*
X23050000Y-36400000D01*
X17530000Y-35997500D02*
X17530000Y-36950000D01*
X17530000Y-36950000D02*
X17340000Y-37140000D01*
D33*
X27250000Y-28850000D02*
X28100000Y-28850000D01*
X28550000Y-28400000D02*
X28550000Y-27600000D01*
X28100000Y-28850000D02*
X28550000Y-28400000D01*
X27250000Y-31750000D02*
X28000000Y-31750000D01*
X28550000Y-31200000D02*
X28550000Y-30500000D01*
X28000000Y-31750000D02*
X28550000Y-31200000D01*
D32*
X19030000Y-27247500D02*
X19030000Y-28200000D01*
X19030000Y-28200000D02*
X18840000Y-28390000D01*
X17530000Y-36950000D02*
X17340000Y-37140000D01*
D35*
X26792000Y-24053000D02*
X25792000Y-24053000D01*
X25792000Y-24053000D02*
X25292000Y-23553000D01*
D32*
X23250000Y-23500000D02*
X25239000Y-23500000D01*
X25239000Y-23500000D02*
X25292000Y-23553000D01*
D36*
X28292000Y-20553000D02*
X31542000Y-20553000D01*
X31542000Y-20553000D02*
X31792000Y-20803000D01*
D35*
X26792000Y-20053000D02*
X27792000Y-20053000D01*
X27792000Y-20053000D02*
X28292000Y-20553000D01*
X31792000Y-20803000D02*
X31792000Y-19803000D01*
X31792000Y-19803000D02*
X32292000Y-19303000D01*
D36*
X40850000Y-21200000D02*
X39850000Y-21200000D01*
X39850000Y-21200000D02*
X39350000Y-20700000D01*
X35792000Y-20803000D02*
X39247000Y-20803000D01*
X39247000Y-20803000D02*
X39350000Y-20700000D01*
D35*
X35292000Y-22303000D02*
X35292000Y-21303000D01*
X35292000Y-21303000D02*
X35792000Y-20803000D01*
D32*
X15850000Y-25850000D02*
X13760000Y-25850000D01*
X14350000Y-34600000D02*
X12260000Y-34600000D01*
X21800000Y-33100000D02*
X21800000Y-34750180D01*
D34*
X21850000Y-31100000D02*
X21850000Y-33050000D01*
X21850000Y-33050000D02*
X21800000Y-33100000D01*
D32*
X17530000Y-33202500D02*
X17530000Y-32250000D01*
X17530000Y-32250000D02*
X17340000Y-32060000D01*
D34*
X19800000Y-33100000D02*
X18380000Y-33100000D01*
X18380000Y-33100000D02*
X17340000Y-32060000D01*
D32*
X25300000Y-31750000D02*
X23850000Y-31750000D01*
D34*
X23850000Y-31100000D02*
X23850000Y-31750000D01*
X23850000Y-31750000D02*
X23850000Y-34200000D01*
D32*
X24300000Y-34650000D02*
X23850000Y-34200000D01*
X25300000Y-34650000D02*
X24300000Y-34650000D01*
D34*
X23850000Y-31100000D02*
X23850000Y-29300000D01*
X23850000Y-29300000D02*
X23650000Y-29100000D01*
D32*
X25300000Y-31750000D02*
X24500000Y-31750000D01*
X24500000Y-31750000D02*
X23850000Y-31100000D01*
X25300000Y-28850000D02*
X23900000Y-28850000D01*
X23900000Y-28850000D02*
X23650000Y-29100000D01*
X23200000Y-28650000D02*
X23650000Y-29100000D01*
X23200000Y-28650000D02*
X23200000Y-27750000D01*
X27250000Y-35300000D02*
X28600000Y-35300000D01*
X28600000Y-35300000D02*
X29550000Y-34350000D01*
X30150000Y-33150000D02*
X30150000Y-34150000D01*
X30150000Y-34150000D02*
X29650000Y-34650000D01*
D36*
X40150000Y-34400000D02*
X39150000Y-34400000D01*
X39150000Y-34400000D02*
X38650000Y-33900000D01*
X38650000Y-33900000D02*
X34400000Y-33900000D01*
X34400000Y-33900000D02*
X33650000Y-34650000D01*
D32*
X33150000Y-36150000D02*
X33150000Y-35150000D01*
X33150000Y-35150000D02*
X33650000Y-34650000D01*
D35*
X41750000Y-37600000D02*
X38950000Y-37600000D01*
X38950000Y-37600000D02*
X38650000Y-37900000D01*
D34*
X38650000Y-37900000D02*
X38150000Y-37400000D01*
X38150000Y-37400000D02*
X37150000Y-37400000D01*
D32*
X28684000Y-41138000D02*
X26144000Y-41138000D01*
X26144000Y-41138000D02*
X23604000Y-41138000D01*
X23604000Y-41138000D02*
X21064000Y-41138000D01*
X25050000Y-35900000D02*
X25050000Y-36200000D01*
X23604000Y-37646000D02*
X23604000Y-41138000D01*
X25050000Y-36200000D02*
X23604000Y-37646000D01*
X25050000Y-35900000D02*
X25050000Y-36000000D01*
D33*
X23250000Y-22600000D02*
X23550000Y-22300000D01*
X23250000Y-22850000D02*
X23250000Y-22600000D01*
X24300000Y-27750000D02*
X25050000Y-27000000D01*
X24300000Y-27750000D02*
X23850000Y-27750000D01*
X25300000Y-35300000D02*
X25300000Y-35650000D01*
X25300000Y-35650000D02*
X25050000Y-35900000D01*
X25300000Y-32400000D02*
X25300000Y-32750000D01*
X25300000Y-32750000D02*
X25050000Y-33000000D01*
X25300000Y-29500000D02*
X25300000Y-29850000D01*
X25300000Y-29850000D02*
X25050000Y-30100000D01*
D32*
X31790000Y-2600000D02*
X31790000Y-840000D01*
X31790000Y-840000D02*
X31750000Y-800000D01*
X14550000Y-14880000D02*
X16830000Y-14880000D01*
X16850000Y-2300000D02*
X13450000Y-2300000D01*
X16830000Y-14880000D02*
X16850000Y-14900000D01*
X23750000Y-4720000D02*
X26230000Y-4720000D01*
X26230000Y-4720000D02*
X28350000Y-2600000D01*
X28350000Y-2600000D02*
X29250000Y-2600000D01*
X23750000Y-5990000D02*
X27560000Y-5990000D01*
X27560000Y-5990000D02*
X28410000Y-5140000D01*
X28410000Y-5140000D02*
X29250000Y-5140000D01*
X23750000Y-7260000D02*
X28830000Y-7260000D01*
X28830000Y-7260000D02*
X29250000Y-7680000D01*
X23750000Y-8530000D02*
X25580000Y-8530000D01*
X27270000Y-10220000D02*
X29250000Y-10220000D01*
X25580000Y-8530000D02*
X27270000Y-10220000D01*
X33150000Y-17600000D02*
X34050000Y-17600000D01*
X22240000Y-13610000D02*
X21750000Y-14100000D01*
X21750000Y-14100000D02*
X21750000Y-17100000D01*
X21750000Y-17100000D02*
X22250000Y-17600000D01*
X22250000Y-17600000D02*
X33150000Y-17600000D01*
X23750000Y-13610000D02*
X22240000Y-13610000D01*
X34550000Y-12100000D02*
X32670000Y-10220000D01*
X34550000Y-17100000D02*
X34550000Y-12100000D01*
X34050000Y-17600000D02*
X34550000Y-17100000D01*
X32670000Y-10220000D02*
X31790000Y-10220000D01*
X23750000Y-9800000D02*
X25350000Y-9800000D01*
X28250000Y-12700000D02*
X29190000Y-12700000D01*
X26350000Y-10800000D02*
X28250000Y-12700000D01*
X25350000Y-9800000D02*
X26350000Y-10800000D01*
X29190000Y-12700000D02*
X29250000Y-12760000D01*
D33*
X23100000Y-24150000D02*
X22650000Y-24600000D01*
X22550000Y-28400000D02*
X22350000Y-28600000D01*
X22550000Y-28400000D02*
X22550000Y-27750000D01*
X23250000Y-24150000D02*
X23100000Y-24150000D01*
X25550000Y-28200000D02*
X26250000Y-27500000D01*
X25300000Y-28200000D02*
X25550000Y-28200000D01*
X25550000Y-31100000D02*
X26250000Y-30400000D01*
X25300000Y-31100000D02*
X25550000Y-31100000D01*
X26250000Y-33300000D02*
X25550000Y-34000000D01*
X25300000Y-34000000D02*
X25550000Y-34000000D01*
D36*
X36150000Y-25300000D02*
X32650000Y-25300000D01*
D32*
X28450000Y-29500000D02*
X30150000Y-27800000D01*
X28450000Y-29500000D02*
X27250000Y-29500000D01*
D36*
X32650000Y-25300000D02*
X30150000Y-27800000D01*
D32*
X35750000Y-25300000D02*
X36150000Y-25300000D01*
X36150000Y-25300000D02*
X36750000Y-25300000D01*
X36750000Y-25300000D02*
X36800000Y-25350000D01*
X21300000Y-22850000D02*
X19300000Y-22850000D01*
X19300000Y-22850000D02*
X18840000Y-23310000D01*
X19030000Y-24452500D02*
X19030000Y-23500000D01*
X19030000Y-23500000D02*
X18840000Y-23310000D01*
X21300000Y-24150000D02*
X21300000Y-24550000D01*
X21300000Y-24550000D02*
X22550000Y-25800000D01*
D35*
X40850000Y-17200000D02*
X41850000Y-17200000D01*
X41850000Y-17200000D02*
X42350000Y-17700000D01*
X40850000Y-17200000D02*
X40850000Y-13240000D01*
X40850000Y-13240000D02*
X41654000Y-12436000D01*
X43654000Y-12436000D02*
X47116000Y-12436000D01*
X47116000Y-12436000D02*
X47243000Y-12309000D01*
D32*
X41300000Y-25100000D02*
X41300000Y-25150000D01*
X41300000Y-25150000D02*
X40750000Y-25700000D01*
D36*
X30250000Y-30400000D02*
X36050000Y-30400000D01*
D32*
X28250000Y-32400000D02*
X30250000Y-30400000D01*
X27250000Y-32400000D02*
X28250000Y-32400000D01*
D36*
X36050000Y-30400000D02*
X40750000Y-25700000D01*
D35*
X43300000Y-25100000D02*
X47152000Y-25100000D01*
X47152000Y-25100000D02*
X47243000Y-25009000D01*
X43750000Y-37600000D02*
X47134000Y-37600000D01*
X47134000Y-37600000D02*
X47243000Y-37709000D01*
D34*
X47134000Y-37600000D02*
X47243000Y-37709000D01*
D32*
X23750000Y-11070000D02*
X25320000Y-11070000D01*
X25650000Y-12600000D02*
X28350000Y-15300000D01*
X25650000Y-11400000D02*
X25650000Y-12600000D01*
X25320000Y-11070000D02*
X25650000Y-11400000D01*
X28350000Y-15300000D02*
X29250000Y-15300000D01*
X33150000Y-16900000D02*
X33150000Y-16900000D01*
X25950000Y-16900000D02*
X33150000Y-16900000D01*
X23930000Y-14880000D02*
X25950000Y-16900000D01*
X32710000Y-12760000D02*
X31790000Y-12760000D01*
X33550000Y-13600000D02*
X32710000Y-12760000D01*
X33550000Y-16500000D02*
X33550000Y-13600000D01*
X33150000Y-16900000D02*
X33550000Y-16500000D01*
X23750000Y-14880000D02*
X23930000Y-14880000D01*
X23750000Y-14880000D02*
X23830000Y-14880000D01*
X23750000Y-12340000D02*
X21790000Y-12340000D01*
X21790000Y-12340000D02*
X21750000Y-12300000D01*
D37*
G36*
X35123000Y-11492131D02*
X33260434Y-9629566D01*
X33219400Y-9602148D01*
X33186496Y-9580162D01*
X33092068Y-9351629D01*
X32660643Y-8919449D01*
X32639806Y-8910797D01*
X32690554Y-8760159D01*
X31790000Y-7859605D01*
X30889446Y-8760159D01*
X30940035Y-8910327D01*
X30921629Y-8917932D01*
X30519677Y-9319182D01*
X30150818Y-8949677D01*
X30550551Y-8550643D01*
X30559203Y-8529806D01*
X30709841Y-8580554D01*
X31610395Y-7680000D01*
X31969605Y-7680000D01*
X32870159Y-8580554D01*
X33126643Y-8494148D01*
X33336458Y-7920664D01*
X33310839Y-7310540D01*
X33126643Y-6865852D01*
X32870159Y-6779446D01*
X31969605Y-7680000D01*
X31610395Y-7680000D01*
X30709841Y-6779446D01*
X30559673Y-6830035D01*
X30552068Y-6811629D01*
X30150818Y-6409677D01*
X30340667Y-6220159D01*
X30889446Y-6220159D01*
X30953401Y-6410000D01*
X30889446Y-6599841D01*
X31790000Y-7500395D01*
X32690554Y-6599841D01*
X32626599Y-6410000D01*
X32690554Y-6220159D01*
X31790000Y-5319605D01*
X30889446Y-6220159D01*
X30340667Y-6220159D01*
X30550551Y-6010643D01*
X30559203Y-5989806D01*
X30709841Y-6040554D01*
X31610395Y-5140000D01*
X31969605Y-5140000D01*
X32870159Y-6040554D01*
X33126643Y-5954148D01*
X33336458Y-5380664D01*
X33310839Y-4770540D01*
X33126643Y-4325852D01*
X32870159Y-4239446D01*
X31969605Y-5140000D01*
X31610395Y-5140000D01*
X30709841Y-4239446D01*
X30559673Y-4290035D01*
X30552068Y-4271629D01*
X30384120Y-4103387D01*
X30385317Y-4103162D01*
X30601441Y-3964090D01*
X30740598Y-3760426D01*
X30774890Y-3794718D01*
X30889447Y-3680161D01*
X30953401Y-3870000D01*
X30889446Y-4059841D01*
X31790000Y-4960395D01*
X32690554Y-4059841D01*
X32626599Y-3870000D01*
X32690554Y-3680159D01*
X31790000Y-2779605D01*
X31775858Y-2793748D01*
X31596253Y-2614143D01*
X31610395Y-2600000D01*
X31969605Y-2600000D01*
X32870159Y-3500554D01*
X33126643Y-3414148D01*
X33336458Y-2840664D01*
X33310839Y-2230540D01*
X33126643Y-1785852D01*
X32870159Y-1699446D01*
X31969605Y-2600000D01*
X31610395Y-2600000D01*
X31596253Y-2585858D01*
X31775858Y-2406253D01*
X31790000Y-2420395D01*
X32690554Y-1519841D01*
X32604148Y-1263357D01*
X32030664Y-1053542D01*
X31420540Y-1079161D01*
X30975852Y-1263357D01*
X30889447Y-1519839D01*
X30774890Y-1405282D01*
X30738412Y-1441760D01*
X30614090Y-1248559D01*
X30401890Y-1103569D01*
X30150000Y-1052560D01*
X28350000Y-1052560D01*
X28114683Y-1096838D01*
X27898559Y-1235910D01*
X27753569Y-1448110D01*
X27702560Y-1700000D01*
X27702560Y-2066572D01*
X25884132Y-3885000D01*
X25191797Y-3885000D01*
X25101890Y-3823569D01*
X24850000Y-3772560D01*
X22650000Y-3772560D01*
X22414683Y-3816838D01*
X22198559Y-3955910D01*
X22053569Y-4168110D01*
X22002560Y-4420000D01*
X22002560Y-5020000D01*
X22046838Y-5255317D01*
X22110678Y-5354528D01*
X22053569Y-5438110D01*
X22002560Y-5690000D01*
X22002560Y-6290000D01*
X22046838Y-6525317D01*
X22110678Y-6624528D01*
X22053569Y-6708110D01*
X22002560Y-6960000D01*
X22002560Y-7560000D01*
X22046838Y-7795317D01*
X22110678Y-7894528D01*
X22053569Y-7978110D01*
X22002560Y-8230000D01*
X22002560Y-8830000D01*
X22046838Y-9065317D01*
X22110678Y-9164528D01*
X22053569Y-9248110D01*
X22002560Y-9500000D01*
X22002560Y-10100000D01*
X22046838Y-10335317D01*
X22110678Y-10434528D01*
X22053569Y-10518110D01*
X22002560Y-10770000D01*
X22002560Y-11236006D01*
X21965668Y-11220687D01*
X21536216Y-11220313D01*
X21139311Y-11384311D01*
X20835378Y-11687714D01*
X20670687Y-12084332D01*
X20670313Y-12513784D01*
X20834311Y-12910689D01*
X21137714Y-13214622D01*
X21361560Y-13307572D01*
X21159566Y-13509566D01*
X20978561Y-13780459D01*
X20915000Y-14100000D01*
X20915000Y-17100000D01*
X20978561Y-17419541D01*
X21026201Y-17490839D01*
X21147917Y-17673000D01*
X13310000Y-17673000D01*
X13310000Y-15809329D01*
X13323691Y-15815000D01*
X14264250Y-15815000D01*
X14423000Y-15656250D01*
X14423000Y-15007000D01*
X14677000Y-15007000D01*
X14677000Y-15656250D01*
X14835750Y-15815000D01*
X15776309Y-15815000D01*
X16009698Y-15718327D01*
X16188327Y-15539699D01*
X16285000Y-15306310D01*
X16285000Y-15165750D01*
X16126250Y-15007000D01*
X14677000Y-15007000D01*
X14423000Y-15007000D01*
X14403000Y-15007000D01*
X14403000Y-14753000D01*
X14423000Y-14753000D01*
X14423000Y-14733000D01*
X14677000Y-14733000D01*
X14677000Y-14753000D01*
X16126250Y-14753000D01*
X16285000Y-14594250D01*
X16285000Y-14453690D01*
X16195194Y-14236878D01*
X16246431Y-14161890D01*
X16297440Y-13910000D01*
X16297440Y-13310000D01*
X16253162Y-13074683D01*
X16189322Y-12975472D01*
X16246431Y-12891890D01*
X16297440Y-12640000D01*
X16297440Y-12040000D01*
X16253162Y-11804683D01*
X16189322Y-11705472D01*
X16246431Y-11621890D01*
X16297440Y-11370000D01*
X16297440Y-10770000D01*
X16253162Y-10534683D01*
X16189322Y-10435472D01*
X16246431Y-10351890D01*
X16297440Y-10100000D01*
X16297440Y-9500000D01*
X16253162Y-9264683D01*
X16189322Y-9165472D01*
X16246431Y-9081890D01*
X16297440Y-8830000D01*
X16297440Y-8230000D01*
X16253162Y-7994683D01*
X16189322Y-7895472D01*
X16246431Y-7811890D01*
X16297440Y-7560000D01*
X16297440Y-6960000D01*
X16253162Y-6724683D01*
X16189322Y-6625472D01*
X16246431Y-6541890D01*
X16297440Y-6290000D01*
X16297440Y-5690000D01*
X16253162Y-5454683D01*
X16189322Y-5355472D01*
X16246431Y-5271890D01*
X16297440Y-5020000D01*
X16297440Y-4420000D01*
X16253162Y-4184683D01*
X16114090Y-3968559D01*
X15901890Y-3823569D01*
X15650000Y-3772560D01*
X13450000Y-3772560D01*
X13214683Y-3816838D01*
X12998559Y-3955910D01*
X12995764Y-3960000D01*
X9630000Y-3960000D01*
X9339161Y-4017852D01*
X9095000Y-4180995D01*
X9095000Y-645000D01*
X35123000Y-645000D01*
X35123000Y-11492131D01*
X35123000Y-11492131D01*
G37*
X35123000Y-11492131D02*
X33260434Y-9629566D01*
X33219400Y-9602148D01*
X33186496Y-9580162D01*
X33092068Y-9351629D01*
X32660643Y-8919449D01*
X32639806Y-8910797D01*
X32690554Y-8760159D01*
X31790000Y-7859605D01*
X30889446Y-8760159D01*
X30940035Y-8910327D01*
X30921629Y-8917932D01*
X30519677Y-9319182D01*
X30150818Y-8949677D01*
X30550551Y-8550643D01*
X30559203Y-8529806D01*
X30709841Y-8580554D01*
X31610395Y-7680000D01*
X31969605Y-7680000D01*
X32870159Y-8580554D01*
X33126643Y-8494148D01*
X33336458Y-7920664D01*
X33310839Y-7310540D01*
X33126643Y-6865852D01*
X32870159Y-6779446D01*
X31969605Y-7680000D01*
X31610395Y-7680000D01*
X30709841Y-6779446D01*
X30559673Y-6830035D01*
X30552068Y-6811629D01*
X30150818Y-6409677D01*
X30340667Y-6220159D01*
X30889446Y-6220159D01*
X30953401Y-6410000D01*
X30889446Y-6599841D01*
X31790000Y-7500395D01*
X32690554Y-6599841D01*
X32626599Y-6410000D01*
X32690554Y-6220159D01*
X31790000Y-5319605D01*
X30889446Y-6220159D01*
X30340667Y-6220159D01*
X30550551Y-6010643D01*
X30559203Y-5989806D01*
X30709841Y-6040554D01*
X31610395Y-5140000D01*
X31969605Y-5140000D01*
X32870159Y-6040554D01*
X33126643Y-5954148D01*
X33336458Y-5380664D01*
X33310839Y-4770540D01*
X33126643Y-4325852D01*
X32870159Y-4239446D01*
X31969605Y-5140000D01*
X31610395Y-5140000D01*
X30709841Y-4239446D01*
X30559673Y-4290035D01*
X30552068Y-4271629D01*
X30384120Y-4103387D01*
X30385317Y-4103162D01*
X30601441Y-3964090D01*
X30740598Y-3760426D01*
X30774890Y-3794718D01*
X30889447Y-3680161D01*
X30953401Y-3870000D01*
X30889446Y-4059841D01*
X31790000Y-4960395D01*
X32690554Y-4059841D01*
X32626599Y-3870000D01*
X32690554Y-3680159D01*
X31790000Y-2779605D01*
X31775858Y-2793748D01*
X31596253Y-2614143D01*
X31610395Y-2600000D01*
X31969605Y-2600000D01*
X32870159Y-3500554D01*
X33126643Y-3414148D01*
X33336458Y-2840664D01*
X33310839Y-2230540D01*
X33126643Y-1785852D01*
X32870159Y-1699446D01*
X31969605Y-2600000D01*
X31610395Y-2600000D01*
X31596253Y-2585858D01*
X31775858Y-2406253D01*
X31790000Y-2420395D01*
X32690554Y-1519841D01*
X32604148Y-1263357D01*
X32030664Y-1053542D01*
X31420540Y-1079161D01*
X30975852Y-1263357D01*
X30889447Y-1519839D01*
X30774890Y-1405282D01*
X30738412Y-1441760D01*
X30614090Y-1248559D01*
X30401890Y-1103569D01*
X30150000Y-1052560D01*
X28350000Y-1052560D01*
X28114683Y-1096838D01*
X27898559Y-1235910D01*
X27753569Y-1448110D01*
X27702560Y-1700000D01*
X27702560Y-2066572D01*
X25884132Y-3885000D01*
X25191797Y-3885000D01*
X25101890Y-3823569D01*
X24850000Y-3772560D01*
X22650000Y-3772560D01*
X22414683Y-3816838D01*
X22198559Y-3955910D01*
X22053569Y-4168110D01*
X22002560Y-4420000D01*
X22002560Y-5020000D01*
X22046838Y-5255317D01*
X22110678Y-5354528D01*
X22053569Y-5438110D01*
X22002560Y-5690000D01*
X22002560Y-6290000D01*
X22046838Y-6525317D01*
X22110678Y-6624528D01*
X22053569Y-6708110D01*
X22002560Y-6960000D01*
X22002560Y-7560000D01*
X22046838Y-7795317D01*
X22110678Y-7894528D01*
X22053569Y-7978110D01*
X22002560Y-8230000D01*
X22002560Y-8830000D01*
X22046838Y-9065317D01*
X22110678Y-9164528D01*
X22053569Y-9248110D01*
X22002560Y-9500000D01*
X22002560Y-10100000D01*
X22046838Y-10335317D01*
X22110678Y-10434528D01*
X22053569Y-10518110D01*
X22002560Y-10770000D01*
X22002560Y-11236006D01*
X21965668Y-11220687D01*
X21536216Y-11220313D01*
X21139311Y-11384311D01*
X20835378Y-11687714D01*
X20670687Y-12084332D01*
X20670313Y-12513784D01*
X20834311Y-12910689D01*
X21137714Y-13214622D01*
X21361560Y-13307572D01*
X21159566Y-13509566D01*
X20978561Y-13780459D01*
X20915000Y-14100000D01*
X20915000Y-17100000D01*
X20978561Y-17419541D01*
X21026201Y-17490839D01*
X21147917Y-17673000D01*
X13310000Y-17673000D01*
X13310000Y-15809329D01*
X13323691Y-15815000D01*
X14264250Y-15815000D01*
X14423000Y-15656250D01*
X14423000Y-15007000D01*
X14677000Y-15007000D01*
X14677000Y-15656250D01*
X14835750Y-15815000D01*
X15776309Y-15815000D01*
X16009698Y-15718327D01*
X16188327Y-15539699D01*
X16285000Y-15306310D01*
X16285000Y-15165750D01*
X16126250Y-15007000D01*
X14677000Y-15007000D01*
X14423000Y-15007000D01*
X14403000Y-15007000D01*
X14403000Y-14753000D01*
X14423000Y-14753000D01*
X14423000Y-14733000D01*
X14677000Y-14733000D01*
X14677000Y-14753000D01*
X16126250Y-14753000D01*
X16285000Y-14594250D01*
X16285000Y-14453690D01*
X16195194Y-14236878D01*
X16246431Y-14161890D01*
X16297440Y-13910000D01*
X16297440Y-13310000D01*
X16253162Y-13074683D01*
X16189322Y-12975472D01*
X16246431Y-12891890D01*
X16297440Y-12640000D01*
X16297440Y-12040000D01*
X16253162Y-11804683D01*
X16189322Y-11705472D01*
X16246431Y-11621890D01*
X16297440Y-11370000D01*
X16297440Y-10770000D01*
X16253162Y-10534683D01*
X16189322Y-10435472D01*
X16246431Y-10351890D01*
X16297440Y-10100000D01*
X16297440Y-9500000D01*
X16253162Y-9264683D01*
X16189322Y-9165472D01*
X16246431Y-9081890D01*
X16297440Y-8830000D01*
X16297440Y-8230000D01*
X16253162Y-7994683D01*
X16189322Y-7895472D01*
X16246431Y-7811890D01*
X16297440Y-7560000D01*
X16297440Y-6960000D01*
X16253162Y-6724683D01*
X16189322Y-6625472D01*
X16246431Y-6541890D01*
X16297440Y-6290000D01*
X16297440Y-5690000D01*
X16253162Y-5454683D01*
X16189322Y-5355472D01*
X16246431Y-5271890D01*
X16297440Y-5020000D01*
X16297440Y-4420000D01*
X16253162Y-4184683D01*
X16114090Y-3968559D01*
X15901890Y-3823569D01*
X15650000Y-3772560D01*
X13450000Y-3772560D01*
X13214683Y-3816838D01*
X12998559Y-3955910D01*
X12995764Y-3960000D01*
X9630000Y-3960000D01*
X9339161Y-4017852D01*
X9095000Y-4180995D01*
X9095000Y-645000D01*
X35123000Y-645000D01*
X35123000Y-11492131D01*
G36*
X42335910Y-26176441D02*
X42548110Y-26321431D01*
X42800000Y-26372440D01*
X43800000Y-26372440D01*
X43998976Y-26335000D01*
X44185744Y-26335000D01*
X44108000Y-26522690D01*
X44108000Y-28343250D01*
X44266750Y-28502000D01*
X47116000Y-28502000D01*
X47116000Y-28482000D01*
X47370000Y-28482000D01*
X47370000Y-28502000D01*
X47390000Y-28502000D01*
X47390000Y-28756000D01*
X47370000Y-28756000D01*
X47370000Y-29393359D01*
X47203542Y-29848336D01*
X47229161Y-30458460D01*
X47370000Y-30798475D01*
X47370000Y-31085250D01*
X47528750Y-31244000D01*
X47695172Y-31244000D01*
X47734890Y-31283718D01*
X47774608Y-31244000D01*
X47874659Y-31244000D01*
X47913401Y-31359000D01*
X47874659Y-31474000D01*
X47774608Y-31474000D01*
X47734890Y-31434282D01*
X47695172Y-31474000D01*
X47528750Y-31474000D01*
X47370000Y-31632750D01*
X47370000Y-31933359D01*
X47203542Y-32388336D01*
X47229161Y-32998460D01*
X47370000Y-33338475D01*
X47370000Y-33962000D01*
X47390000Y-33962000D01*
X47390000Y-34216000D01*
X47370000Y-34216000D01*
X47370000Y-34236000D01*
X47116000Y-34236000D01*
X47116000Y-34216000D01*
X44266750Y-34216000D01*
X44108000Y-34374750D01*
X44108000Y-36195310D01*
X44162780Y-36327560D01*
X43250000Y-36327560D01*
X43014683Y-36371838D01*
X42798559Y-36510910D01*
X42750866Y-36580711D01*
X42714090Y-36523559D01*
X42501890Y-36378569D01*
X42250000Y-36327560D01*
X41250000Y-36327560D01*
X41051024Y-36365000D01*
X39911431Y-36365000D01*
X39850000Y-36352560D01*
X38586087Y-36352560D01*
X38584346Y-36351397D01*
X38194801Y-36273911D01*
X38020643Y-36099449D01*
X37456670Y-35865267D01*
X36846009Y-35864735D01*
X36281629Y-36097932D01*
X35849449Y-36529357D01*
X35615267Y-37093330D01*
X35614735Y-37703991D01*
X35847932Y-38268371D01*
X36279357Y-38700551D01*
X36826605Y-38927788D01*
X36846838Y-39035317D01*
X36985910Y-39251441D01*
X37198110Y-39396431D01*
X37450000Y-39447440D01*
X39850000Y-39447440D01*
X40085317Y-39403162D01*
X40301441Y-39264090D01*
X40446431Y-39051890D01*
X40490352Y-38835000D01*
X41065116Y-38835000D01*
X41250000Y-38872440D01*
X42250000Y-38872440D01*
X42485317Y-38828162D01*
X42701441Y-38689090D01*
X42749134Y-38619289D01*
X42785910Y-38676441D01*
X42998110Y-38821431D01*
X43250000Y-38872440D01*
X44157935Y-38872440D01*
X44221990Y-38971984D01*
X44204673Y-38989301D01*
X44108000Y-39222690D01*
X44108000Y-41043250D01*
X44266750Y-41202000D01*
X47116000Y-41202000D01*
X47116000Y-41182000D01*
X47370000Y-41182000D01*
X47370000Y-41202000D01*
X47390000Y-41202000D01*
X47390000Y-41456000D01*
X47370000Y-41456000D01*
X47370000Y-41476000D01*
X47116000Y-41476000D01*
X47116000Y-41456000D01*
X44266750Y-41456000D01*
X44108000Y-41614750D01*
X44108000Y-42189613D01*
X43795469Y-42189340D01*
X42394628Y-42768156D01*
X41321923Y-43838991D01*
X40740663Y-45238819D01*
X40739340Y-46754531D01*
X41318156Y-48155372D01*
X42388991Y-49228077D01*
X42453829Y-49255000D01*
X9095000Y-49255000D01*
X9095000Y-47334350D01*
X20127255Y-47334350D01*
X20219792Y-47596019D01*
X20811398Y-47814188D01*
X21441461Y-47789352D01*
X21908208Y-47596019D01*
X22000745Y-47334350D01*
X22667255Y-47334350D01*
X22759792Y-47596019D01*
X23351398Y-47814188D01*
X23981461Y-47789352D01*
X24448208Y-47596019D01*
X24540745Y-47334350D01*
X25207255Y-47334350D01*
X25299792Y-47596019D01*
X25891398Y-47814188D01*
X26521461Y-47789352D01*
X26988208Y-47596019D01*
X27080745Y-47334350D01*
X27747255Y-47334350D01*
X27839792Y-47596019D01*
X28431398Y-47814188D01*
X29061461Y-47789352D01*
X29528208Y-47596019D01*
X29620745Y-47334350D01*
X28684000Y-46397605D01*
X27747255Y-47334350D01*
X27080745Y-47334350D01*
X26144000Y-46397605D01*
X25207255Y-47334350D01*
X24540745Y-47334350D01*
X23604000Y-46397605D01*
X22667255Y-47334350D01*
X22000745Y-47334350D01*
X21064000Y-46397605D01*
X20127255Y-47334350D01*
X9095000Y-47334350D01*
X9095000Y-45965398D01*
X19467812Y-45965398D01*
X19492648Y-46595461D01*
X19685981Y-47062208D01*
X19947650Y-47154745D01*
X20884395Y-46218000D01*
X21243605Y-46218000D01*
X22180350Y-47154745D01*
X22334000Y-47100408D01*
X22487650Y-47154745D01*
X23424395Y-46218000D01*
X23783605Y-46218000D01*
X24720350Y-47154745D01*
X24874000Y-47100408D01*
X25027650Y-47154745D01*
X25964395Y-46218000D01*
X26323605Y-46218000D01*
X27260350Y-47154745D01*
X27414000Y-47100408D01*
X27567650Y-47154745D01*
X28504395Y-46218000D01*
X28863605Y-46218000D01*
X29800350Y-47154745D01*
X30062019Y-47062208D01*
X30280188Y-46470602D01*
X30255352Y-45840539D01*
X30062019Y-45373792D01*
X29800350Y-45281255D01*
X28863605Y-46218000D01*
X28504395Y-46218000D01*
X27567650Y-45281255D01*
X27414000Y-45335592D01*
X27260350Y-45281255D01*
X26323605Y-46218000D01*
X25964395Y-46218000D01*
X25027650Y-45281255D01*
X24874000Y-45335592D01*
X24720350Y-45281255D01*
X23783605Y-46218000D01*
X23424395Y-46218000D01*
X22487650Y-45281255D01*
X22334000Y-45335592D01*
X22180350Y-45281255D01*
X21243605Y-46218000D01*
X20884395Y-46218000D01*
X19947650Y-45281255D01*
X19685981Y-45373792D01*
X19467812Y-45965398D01*
X9095000Y-45965398D01*
X9095000Y-32700000D01*
X9082607Y-32637696D01*
X9082607Y-32624167D01*
X9010293Y-32260618D01*
X8913984Y-32028109D01*
X8913983Y-32028108D01*
X8913983Y-32028107D01*
X8708048Y-31719905D01*
X8619071Y-31630929D01*
X8530095Y-31541952D01*
X8221893Y-31336017D01*
X8221891Y-31336016D01*
X7989381Y-31239707D01*
X7625833Y-31167393D01*
X7562305Y-31167393D01*
X7500000Y-31155000D01*
X6477000Y-31155000D01*
X6477000Y-31035000D01*
X8204132Y-31035000D01*
X9115000Y-31945868D01*
X9115000Y-35700000D01*
X9178561Y-36019541D01*
X9299140Y-36200000D01*
X9359566Y-36290434D01*
X10342560Y-37273428D01*
X10342560Y-37965000D01*
X10386838Y-38200317D01*
X10525910Y-38416441D01*
X10738110Y-38561431D01*
X10990000Y-38612440D01*
X11053389Y-38612440D01*
X11135357Y-38694551D01*
X11699330Y-38928733D01*
X12309991Y-38929265D01*
X12874371Y-38696068D01*
X12958145Y-38612440D01*
X13530000Y-38612440D01*
X13765317Y-38568162D01*
X13981441Y-38429090D01*
X14126431Y-38216890D01*
X14177440Y-37965000D01*
X14177440Y-37480285D01*
X14505285Y-37152440D01*
X15175000Y-37152440D01*
X15410317Y-37108162D01*
X15579832Y-36999082D01*
X15593750Y-37013000D01*
X16098885Y-37013000D01*
X16047542Y-37153336D01*
X16052315Y-37267000D01*
X15593750Y-37267000D01*
X15435000Y-37425750D01*
X15435000Y-38091309D01*
X15531673Y-38324698D01*
X15710301Y-38503327D01*
X15943690Y-38600000D01*
X16735840Y-38600000D01*
X16779852Y-38730643D01*
X17353336Y-38940458D01*
X17963460Y-38914839D01*
X18408148Y-38730643D01*
X18452160Y-38600000D01*
X18736310Y-38600000D01*
X18969699Y-38503327D01*
X19148327Y-38324698D01*
X19245000Y-38091309D01*
X19245000Y-37425750D01*
X19126719Y-37307469D01*
X19123701Y-37235570D01*
X20865280Y-37235570D01*
X20865280Y-37576509D01*
X20961953Y-37809898D01*
X21140581Y-37988527D01*
X21373970Y-38085200D01*
X21514250Y-38085200D01*
X21673000Y-37926450D01*
X21673000Y-37076820D01*
X21927000Y-37076820D01*
X21927000Y-37926450D01*
X22085750Y-38085200D01*
X22226030Y-38085200D01*
X22459419Y-37988527D01*
X22638047Y-37809898D01*
X22734720Y-37576509D01*
X22734720Y-37235570D01*
X22575970Y-37076820D01*
X21927000Y-37076820D01*
X21673000Y-37076820D01*
X21024030Y-37076820D01*
X20865280Y-37235570D01*
X19123701Y-37235570D01*
X19114839Y-37024540D01*
X19103085Y-36996165D01*
X19245000Y-36854250D01*
X19245000Y-36188691D01*
X19148327Y-35955302D01*
X18969699Y-35776673D01*
X18938146Y-35763604D01*
X18990000Y-35711750D01*
X18990000Y-35363691D01*
X18893327Y-35130302D01*
X18714699Y-34951673D01*
X18481310Y-34855000D01*
X17815750Y-34855000D01*
X17657000Y-35013750D01*
X17657000Y-35680000D01*
X17625750Y-35680000D01*
X17467002Y-35838748D01*
X17467002Y-35680000D01*
X17403000Y-35680000D01*
X17403000Y-35013750D01*
X17244250Y-34855000D01*
X16578690Y-34855000D01*
X16345301Y-34951673D01*
X16166673Y-35130302D01*
X16070000Y-35363691D01*
X16070000Y-35680000D01*
X15943690Y-35680000D01*
X15822440Y-35730223D01*
X15822440Y-35490000D01*
X15778162Y-35254683D01*
X15767344Y-35237871D01*
X15771431Y-35231890D01*
X15822440Y-34980000D01*
X15822440Y-34220000D01*
X15778162Y-33984683D01*
X15767344Y-33967871D01*
X15771431Y-33961890D01*
X15822440Y-33710000D01*
X15822440Y-33482308D01*
X16057560Y-33529921D01*
X16057560Y-33710000D01*
X16101838Y-33945317D01*
X16240910Y-34161441D01*
X16453110Y-34306431D01*
X16705000Y-34357440D01*
X18355000Y-34357440D01*
X18590317Y-34313162D01*
X18711784Y-34235000D01*
X18921614Y-34235000D01*
X19048110Y-34321431D01*
X19300000Y-34372440D01*
X20300000Y-34372440D01*
X20535317Y-34328162D01*
X20751441Y-34189090D01*
X20799134Y-34119289D01*
X20835910Y-34176441D01*
X20863832Y-34195519D01*
X20852840Y-34249800D01*
X20852840Y-35250560D01*
X20897118Y-35485877D01*
X21036190Y-35702001D01*
X21248390Y-35846991D01*
X21279954Y-35853383D01*
X21140581Y-35911113D01*
X20961953Y-36089742D01*
X20865280Y-36323131D01*
X20865280Y-36664070D01*
X21024030Y-36822820D01*
X21673000Y-36822820D01*
X21673000Y-36802820D01*
X21927000Y-36802820D01*
X21927000Y-36822820D01*
X22575970Y-36822820D01*
X22734720Y-36664070D01*
X22734720Y-36323131D01*
X22638047Y-36089742D01*
X22459419Y-35911113D01*
X22325292Y-35855556D01*
X22335037Y-35853722D01*
X22551161Y-35714650D01*
X22696151Y-35502450D01*
X22747160Y-35250560D01*
X22747160Y-34361679D01*
X22801397Y-34634346D01*
X23047434Y-35002566D01*
X23415654Y-35248603D01*
X23850000Y-35335000D01*
X23850843Y-35334832D01*
X23980459Y-35421439D01*
X24072267Y-35439701D01*
X23970687Y-35684332D01*
X23970326Y-36098806D01*
X23013566Y-37055566D01*
X22832561Y-37326459D01*
X22769000Y-37646000D01*
X22769000Y-39822143D01*
X22735629Y-39835932D01*
X22333677Y-40237182D01*
X21934643Y-39837449D01*
X21370670Y-39603267D01*
X20760009Y-39602735D01*
X20195629Y-39835932D01*
X19763449Y-40267357D01*
X19529267Y-40831330D01*
X19528735Y-41441991D01*
X19761932Y-42006371D01*
X20127857Y-42372936D01*
X19721086Y-42778997D01*
X19479276Y-43361341D01*
X19478725Y-43991893D01*
X19719519Y-44574657D01*
X20158211Y-45014116D01*
X20127255Y-45101650D01*
X21064000Y-46038395D01*
X22000745Y-45101650D01*
X21969593Y-45013561D01*
X22334261Y-44649529D01*
X22698211Y-45014116D01*
X22667255Y-45101650D01*
X23604000Y-46038395D01*
X24540745Y-45101650D01*
X24509593Y-45013561D01*
X24874261Y-44649529D01*
X25238211Y-45014116D01*
X25207255Y-45101650D01*
X26144000Y-46038395D01*
X27080745Y-45101650D01*
X27049593Y-45013561D01*
X27414261Y-44649529D01*
X27778211Y-45014116D01*
X27747255Y-45101650D01*
X28684000Y-46038395D01*
X29620745Y-45101650D01*
X29589593Y-45013561D01*
X30026914Y-44577003D01*
X30268724Y-43994659D01*
X30269275Y-43364107D01*
X30028481Y-42781343D01*
X29620205Y-42372353D01*
X29984551Y-42008643D01*
X30218733Y-41444670D01*
X30219265Y-40834009D01*
X29986068Y-40269629D01*
X29554643Y-39837449D01*
X28990670Y-39603267D01*
X28380009Y-39602735D01*
X27815629Y-39835932D01*
X27413677Y-40237182D01*
X27014643Y-39837449D01*
X26450670Y-39603267D01*
X25840009Y-39602735D01*
X25275629Y-39835932D01*
X24873677Y-40237182D01*
X24474643Y-39837449D01*
X24439000Y-39822649D01*
X24439000Y-37991868D01*
X25583134Y-36847734D01*
X25660689Y-36815689D01*
X25964622Y-36512286D01*
X26129313Y-36115668D01*
X26129377Y-36042636D01*
X26251441Y-35964090D01*
X26273384Y-35931975D01*
X26285910Y-35951441D01*
X26498110Y-36096431D01*
X26750000Y-36147440D01*
X27750000Y-36147440D01*
X27816113Y-36135000D01*
X28381380Y-36135000D01*
X28398110Y-36146431D01*
X28650000Y-36197440D01*
X30450000Y-36197440D01*
X30680911Y-36153991D01*
X31514735Y-36153991D01*
X31747932Y-36718371D01*
X32179357Y-37150551D01*
X32743330Y-37384733D01*
X33353991Y-37385265D01*
X33918371Y-37152068D01*
X34350551Y-36720643D01*
X34577788Y-36173395D01*
X34685317Y-36153162D01*
X34901441Y-36014090D01*
X35046431Y-35801890D01*
X35097440Y-35550000D01*
X35097440Y-35435000D01*
X37388569Y-35435000D01*
X37450000Y-35447440D01*
X38026622Y-35447440D01*
X38064591Y-35485409D01*
X38562581Y-35818155D01*
X39150000Y-35935000D01*
X40149808Y-35935000D01*
X40453991Y-35935265D01*
X41018371Y-35702068D01*
X41450551Y-35270643D01*
X41684733Y-34706670D01*
X41685265Y-34096009D01*
X41452068Y-33531629D01*
X41020643Y-33099449D01*
X40473395Y-32872212D01*
X40453162Y-32764683D01*
X40314090Y-32548559D01*
X40101890Y-32403569D01*
X39850000Y-32352560D01*
X37450000Y-32352560D01*
X37383887Y-32365000D01*
X34400000Y-32365000D01*
X33812581Y-32481845D01*
X33781579Y-32502560D01*
X32650000Y-32502560D01*
X32414683Y-32546838D01*
X32198559Y-32685910D01*
X32053569Y-32898110D01*
X32002560Y-33150000D01*
X32002560Y-34726688D01*
X31749449Y-34979357D01*
X31515267Y-35543330D01*
X31514735Y-36153991D01*
X30680911Y-36153991D01*
X30685317Y-36153162D01*
X30901441Y-36014090D01*
X31046431Y-35801890D01*
X31097440Y-35550000D01*
X31097440Y-33973312D01*
X31350551Y-33720643D01*
X31584733Y-33156670D01*
X31585265Y-32546009D01*
X31352507Y-31982690D01*
X44108000Y-31982690D01*
X44108000Y-33803250D01*
X44266750Y-33962000D01*
X47116000Y-33962000D01*
X47116000Y-31632750D01*
X46957250Y-31474000D01*
X44616691Y-31474000D01*
X44383302Y-31570673D01*
X44204673Y-31749301D01*
X44108000Y-31982690D01*
X31352507Y-31982690D01*
X31352068Y-31981629D01*
X31305520Y-31935000D01*
X36050000Y-31935000D01*
X36637419Y-31818155D01*
X37135409Y-31485409D01*
X39706068Y-28914750D01*
X44108000Y-28914750D01*
X44108000Y-30735310D01*
X44204673Y-30968699D01*
X44383302Y-31147327D01*
X44616691Y-31244000D01*
X46957250Y-31244000D01*
X47116000Y-31085250D01*
X47116000Y-28756000D01*
X44266750Y-28756000D01*
X44108000Y-28914750D01*
X39706068Y-28914750D01*
X41835409Y-26785409D01*
X42168155Y-26287419D01*
X42178360Y-26236117D01*
X42251441Y-26189090D01*
X42299134Y-26119289D01*
X42335910Y-26176441D01*
X42335910Y-26176441D01*
G37*
X42335910Y-26176441D02*
X42548110Y-26321431D01*
X42800000Y-26372440D01*
X43800000Y-26372440D01*
X43998976Y-26335000D01*
X44185744Y-26335000D01*
X44108000Y-26522690D01*
X44108000Y-28343250D01*
X44266750Y-28502000D01*
X47116000Y-28502000D01*
X47116000Y-28482000D01*
X47370000Y-28482000D01*
X47370000Y-28502000D01*
X47390000Y-28502000D01*
X47390000Y-28756000D01*
X47370000Y-28756000D01*
X47370000Y-29393359D01*
X47203542Y-29848336D01*
X47229161Y-30458460D01*
X47370000Y-30798475D01*
X47370000Y-31085250D01*
X47528750Y-31244000D01*
X47695172Y-31244000D01*
X47734890Y-31283718D01*
X47774608Y-31244000D01*
X47874659Y-31244000D01*
X47913401Y-31359000D01*
X47874659Y-31474000D01*
X47774608Y-31474000D01*
X47734890Y-31434282D01*
X47695172Y-31474000D01*
X47528750Y-31474000D01*
X47370000Y-31632750D01*
X47370000Y-31933359D01*
X47203542Y-32388336D01*
X47229161Y-32998460D01*
X47370000Y-33338475D01*
X47370000Y-33962000D01*
X47390000Y-33962000D01*
X47390000Y-34216000D01*
X47370000Y-34216000D01*
X47370000Y-34236000D01*
X47116000Y-34236000D01*
X47116000Y-34216000D01*
X44266750Y-34216000D01*
X44108000Y-34374750D01*
X44108000Y-36195310D01*
X44162780Y-36327560D01*
X43250000Y-36327560D01*
X43014683Y-36371838D01*
X42798559Y-36510910D01*
X42750866Y-36580711D01*
X42714090Y-36523559D01*
X42501890Y-36378569D01*
X42250000Y-36327560D01*
X41250000Y-36327560D01*
X41051024Y-36365000D01*
X39911431Y-36365000D01*
X39850000Y-36352560D01*
X38586087Y-36352560D01*
X38584346Y-36351397D01*
X38194801Y-36273911D01*
X38020643Y-36099449D01*
X37456670Y-35865267D01*
X36846009Y-35864735D01*
X36281629Y-36097932D01*
X35849449Y-36529357D01*
X35615267Y-37093330D01*
X35614735Y-37703991D01*
X35847932Y-38268371D01*
X36279357Y-38700551D01*
X36826605Y-38927788D01*
X36846838Y-39035317D01*
X36985910Y-39251441D01*
X37198110Y-39396431D01*
X37450000Y-39447440D01*
X39850000Y-39447440D01*
X40085317Y-39403162D01*
X40301441Y-39264090D01*
X40446431Y-39051890D01*
X40490352Y-38835000D01*
X41065116Y-38835000D01*
X41250000Y-38872440D01*
X42250000Y-38872440D01*
X42485317Y-38828162D01*
X42701441Y-38689090D01*
X42749134Y-38619289D01*
X42785910Y-38676441D01*
X42998110Y-38821431D01*
X43250000Y-38872440D01*
X44157935Y-38872440D01*
X44221990Y-38971984D01*
X44204673Y-38989301D01*
X44108000Y-39222690D01*
X44108000Y-41043250D01*
X44266750Y-41202000D01*
X47116000Y-41202000D01*
X47116000Y-41182000D01*
X47370000Y-41182000D01*
X47370000Y-41202000D01*
X47390000Y-41202000D01*
X47390000Y-41456000D01*
X47370000Y-41456000D01*
X47370000Y-41476000D01*
X47116000Y-41476000D01*
X47116000Y-41456000D01*
X44266750Y-41456000D01*
X44108000Y-41614750D01*
X44108000Y-42189613D01*
X43795469Y-42189340D01*
X42394628Y-42768156D01*
X41321923Y-43838991D01*
X40740663Y-45238819D01*
X40739340Y-46754531D01*
X41318156Y-48155372D01*
X42388991Y-49228077D01*
X42453829Y-49255000D01*
X9095000Y-49255000D01*
X9095000Y-47334350D01*
X20127255Y-47334350D01*
X20219792Y-47596019D01*
X20811398Y-47814188D01*
X21441461Y-47789352D01*
X21908208Y-47596019D01*
X22000745Y-47334350D01*
X22667255Y-47334350D01*
X22759792Y-47596019D01*
X23351398Y-47814188D01*
X23981461Y-47789352D01*
X24448208Y-47596019D01*
X24540745Y-47334350D01*
X25207255Y-47334350D01*
X25299792Y-47596019D01*
X25891398Y-47814188D01*
X26521461Y-47789352D01*
X26988208Y-47596019D01*
X27080745Y-47334350D01*
X27747255Y-47334350D01*
X27839792Y-47596019D01*
X28431398Y-47814188D01*
X29061461Y-47789352D01*
X29528208Y-47596019D01*
X29620745Y-47334350D01*
X28684000Y-46397605D01*
X27747255Y-47334350D01*
X27080745Y-47334350D01*
X26144000Y-46397605D01*
X25207255Y-47334350D01*
X24540745Y-47334350D01*
X23604000Y-46397605D01*
X22667255Y-47334350D01*
X22000745Y-47334350D01*
X21064000Y-46397605D01*
X20127255Y-47334350D01*
X9095000Y-47334350D01*
X9095000Y-45965398D01*
X19467812Y-45965398D01*
X19492648Y-46595461D01*
X19685981Y-47062208D01*
X19947650Y-47154745D01*
X20884395Y-46218000D01*
X21243605Y-46218000D01*
X22180350Y-47154745D01*
X22334000Y-47100408D01*
X22487650Y-47154745D01*
X23424395Y-46218000D01*
X23783605Y-46218000D01*
X24720350Y-47154745D01*
X24874000Y-47100408D01*
X25027650Y-47154745D01*
X25964395Y-46218000D01*
X26323605Y-46218000D01*
X27260350Y-47154745D01*
X27414000Y-47100408D01*
X27567650Y-47154745D01*
X28504395Y-46218000D01*
X28863605Y-46218000D01*
X29800350Y-47154745D01*
X30062019Y-47062208D01*
X30280188Y-46470602D01*
X30255352Y-45840539D01*
X30062019Y-45373792D01*
X29800350Y-45281255D01*
X28863605Y-46218000D01*
X28504395Y-46218000D01*
X27567650Y-45281255D01*
X27414000Y-45335592D01*
X27260350Y-45281255D01*
X26323605Y-46218000D01*
X25964395Y-46218000D01*
X25027650Y-45281255D01*
X24874000Y-45335592D01*
X24720350Y-45281255D01*
X23783605Y-46218000D01*
X23424395Y-46218000D01*
X22487650Y-45281255D01*
X22334000Y-45335592D01*
X22180350Y-45281255D01*
X21243605Y-46218000D01*
X20884395Y-46218000D01*
X19947650Y-45281255D01*
X19685981Y-45373792D01*
X19467812Y-45965398D01*
X9095000Y-45965398D01*
X9095000Y-32700000D01*
X9082607Y-32637696D01*
X9082607Y-32624167D01*
X9010293Y-32260618D01*
X8913984Y-32028109D01*
X8913983Y-32028108D01*
X8913983Y-32028107D01*
X8708048Y-31719905D01*
X8619071Y-31630929D01*
X8530095Y-31541952D01*
X8221893Y-31336017D01*
X8221891Y-31336016D01*
X7989381Y-31239707D01*
X7625833Y-31167393D01*
X7562305Y-31167393D01*
X7500000Y-31155000D01*
X6477000Y-31155000D01*
X6477000Y-31035000D01*
X8204132Y-31035000D01*
X9115000Y-31945868D01*
X9115000Y-35700000D01*
X9178561Y-36019541D01*
X9299140Y-36200000D01*
X9359566Y-36290434D01*
X10342560Y-37273428D01*
X10342560Y-37965000D01*
X10386838Y-38200317D01*
X10525910Y-38416441D01*
X10738110Y-38561431D01*
X10990000Y-38612440D01*
X11053389Y-38612440D01*
X11135357Y-38694551D01*
X11699330Y-38928733D01*
X12309991Y-38929265D01*
X12874371Y-38696068D01*
X12958145Y-38612440D01*
X13530000Y-38612440D01*
X13765317Y-38568162D01*
X13981441Y-38429090D01*
X14126431Y-38216890D01*
X14177440Y-37965000D01*
X14177440Y-37480285D01*
X14505285Y-37152440D01*
X15175000Y-37152440D01*
X15410317Y-37108162D01*
X15579832Y-36999082D01*
X15593750Y-37013000D01*
X16098885Y-37013000D01*
X16047542Y-37153336D01*
X16052315Y-37267000D01*
X15593750Y-37267000D01*
X15435000Y-37425750D01*
X15435000Y-38091309D01*
X15531673Y-38324698D01*
X15710301Y-38503327D01*
X15943690Y-38600000D01*
X16735840Y-38600000D01*
X16779852Y-38730643D01*
X17353336Y-38940458D01*
X17963460Y-38914839D01*
X18408148Y-38730643D01*
X18452160Y-38600000D01*
X18736310Y-38600000D01*
X18969699Y-38503327D01*
X19148327Y-38324698D01*
X19245000Y-38091309D01*
X19245000Y-37425750D01*
X19126719Y-37307469D01*
X19123701Y-37235570D01*
X20865280Y-37235570D01*
X20865280Y-37576509D01*
X20961953Y-37809898D01*
X21140581Y-37988527D01*
X21373970Y-38085200D01*
X21514250Y-38085200D01*
X21673000Y-37926450D01*
X21673000Y-37076820D01*
X21927000Y-37076820D01*
X21927000Y-37926450D01*
X22085750Y-38085200D01*
X22226030Y-38085200D01*
X22459419Y-37988527D01*
X22638047Y-37809898D01*
X22734720Y-37576509D01*
X22734720Y-37235570D01*
X22575970Y-37076820D01*
X21927000Y-37076820D01*
X21673000Y-37076820D01*
X21024030Y-37076820D01*
X20865280Y-37235570D01*
X19123701Y-37235570D01*
X19114839Y-37024540D01*
X19103085Y-36996165D01*
X19245000Y-36854250D01*
X19245000Y-36188691D01*
X19148327Y-35955302D01*
X18969699Y-35776673D01*
X18938146Y-35763604D01*
X18990000Y-35711750D01*
X18990000Y-35363691D01*
X18893327Y-35130302D01*
X18714699Y-34951673D01*
X18481310Y-34855000D01*
X17815750Y-34855000D01*
X17657000Y-35013750D01*
X17657000Y-35680000D01*
X17625750Y-35680000D01*
X17467002Y-35838748D01*
X17467002Y-35680000D01*
X17403000Y-35680000D01*
X17403000Y-35013750D01*
X17244250Y-34855000D01*
X16578690Y-34855000D01*
X16345301Y-34951673D01*
X16166673Y-35130302D01*
X16070000Y-35363691D01*
X16070000Y-35680000D01*
X15943690Y-35680000D01*
X15822440Y-35730223D01*
X15822440Y-35490000D01*
X15778162Y-35254683D01*
X15767344Y-35237871D01*
X15771431Y-35231890D01*
X15822440Y-34980000D01*
X15822440Y-34220000D01*
X15778162Y-33984683D01*
X15767344Y-33967871D01*
X15771431Y-33961890D01*
X15822440Y-33710000D01*
X15822440Y-33482308D01*
X16057560Y-33529921D01*
X16057560Y-33710000D01*
X16101838Y-33945317D01*
X16240910Y-34161441D01*
X16453110Y-34306431D01*
X16705000Y-34357440D01*
X18355000Y-34357440D01*
X18590317Y-34313162D01*
X18711784Y-34235000D01*
X18921614Y-34235000D01*
X19048110Y-34321431D01*
X19300000Y-34372440D01*
X20300000Y-34372440D01*
X20535317Y-34328162D01*
X20751441Y-34189090D01*
X20799134Y-34119289D01*
X20835910Y-34176441D01*
X20863832Y-34195519D01*
X20852840Y-34249800D01*
X20852840Y-35250560D01*
X20897118Y-35485877D01*
X21036190Y-35702001D01*
X21248390Y-35846991D01*
X21279954Y-35853383D01*
X21140581Y-35911113D01*
X20961953Y-36089742D01*
X20865280Y-36323131D01*
X20865280Y-36664070D01*
X21024030Y-36822820D01*
X21673000Y-36822820D01*
X21673000Y-36802820D01*
X21927000Y-36802820D01*
X21927000Y-36822820D01*
X22575970Y-36822820D01*
X22734720Y-36664070D01*
X22734720Y-36323131D01*
X22638047Y-36089742D01*
X22459419Y-35911113D01*
X22325292Y-35855556D01*
X22335037Y-35853722D01*
X22551161Y-35714650D01*
X22696151Y-35502450D01*
X22747160Y-35250560D01*
X22747160Y-34361679D01*
X22801397Y-34634346D01*
X23047434Y-35002566D01*
X23415654Y-35248603D01*
X23850000Y-35335000D01*
X23850843Y-35334832D01*
X23980459Y-35421439D01*
X24072267Y-35439701D01*
X23970687Y-35684332D01*
X23970326Y-36098806D01*
X23013566Y-37055566D01*
X22832561Y-37326459D01*
X22769000Y-37646000D01*
X22769000Y-39822143D01*
X22735629Y-39835932D01*
X22333677Y-40237182D01*
X21934643Y-39837449D01*
X21370670Y-39603267D01*
X20760009Y-39602735D01*
X20195629Y-39835932D01*
X19763449Y-40267357D01*
X19529267Y-40831330D01*
X19528735Y-41441991D01*
X19761932Y-42006371D01*
X20127857Y-42372936D01*
X19721086Y-42778997D01*
X19479276Y-43361341D01*
X19478725Y-43991893D01*
X19719519Y-44574657D01*
X20158211Y-45014116D01*
X20127255Y-45101650D01*
X21064000Y-46038395D01*
X22000745Y-45101650D01*
X21969593Y-45013561D01*
X22334261Y-44649529D01*
X22698211Y-45014116D01*
X22667255Y-45101650D01*
X23604000Y-46038395D01*
X24540745Y-45101650D01*
X24509593Y-45013561D01*
X24874261Y-44649529D01*
X25238211Y-45014116D01*
X25207255Y-45101650D01*
X26144000Y-46038395D01*
X27080745Y-45101650D01*
X27049593Y-45013561D01*
X27414261Y-44649529D01*
X27778211Y-45014116D01*
X27747255Y-45101650D01*
X28684000Y-46038395D01*
X29620745Y-45101650D01*
X29589593Y-45013561D01*
X30026914Y-44577003D01*
X30268724Y-43994659D01*
X30269275Y-43364107D01*
X30028481Y-42781343D01*
X29620205Y-42372353D01*
X29984551Y-42008643D01*
X30218733Y-41444670D01*
X30219265Y-40834009D01*
X29986068Y-40269629D01*
X29554643Y-39837449D01*
X28990670Y-39603267D01*
X28380009Y-39602735D01*
X27815629Y-39835932D01*
X27413677Y-40237182D01*
X27014643Y-39837449D01*
X26450670Y-39603267D01*
X25840009Y-39602735D01*
X25275629Y-39835932D01*
X24873677Y-40237182D01*
X24474643Y-39837449D01*
X24439000Y-39822649D01*
X24439000Y-37991868D01*
X25583134Y-36847734D01*
X25660689Y-36815689D01*
X25964622Y-36512286D01*
X26129313Y-36115668D01*
X26129377Y-36042636D01*
X26251441Y-35964090D01*
X26273384Y-35931975D01*
X26285910Y-35951441D01*
X26498110Y-36096431D01*
X26750000Y-36147440D01*
X27750000Y-36147440D01*
X27816113Y-36135000D01*
X28381380Y-36135000D01*
X28398110Y-36146431D01*
X28650000Y-36197440D01*
X30450000Y-36197440D01*
X30680911Y-36153991D01*
X31514735Y-36153991D01*
X31747932Y-36718371D01*
X32179357Y-37150551D01*
X32743330Y-37384733D01*
X33353991Y-37385265D01*
X33918371Y-37152068D01*
X34350551Y-36720643D01*
X34577788Y-36173395D01*
X34685317Y-36153162D01*
X34901441Y-36014090D01*
X35046431Y-35801890D01*
X35097440Y-35550000D01*
X35097440Y-35435000D01*
X37388569Y-35435000D01*
X37450000Y-35447440D01*
X38026622Y-35447440D01*
X38064591Y-35485409D01*
X38562581Y-35818155D01*
X39150000Y-35935000D01*
X40149808Y-35935000D01*
X40453991Y-35935265D01*
X41018371Y-35702068D01*
X41450551Y-35270643D01*
X41684733Y-34706670D01*
X41685265Y-34096009D01*
X41452068Y-33531629D01*
X41020643Y-33099449D01*
X40473395Y-32872212D01*
X40453162Y-32764683D01*
X40314090Y-32548559D01*
X40101890Y-32403569D01*
X39850000Y-32352560D01*
X37450000Y-32352560D01*
X37383887Y-32365000D01*
X34400000Y-32365000D01*
X33812581Y-32481845D01*
X33781579Y-32502560D01*
X32650000Y-32502560D01*
X32414683Y-32546838D01*
X32198559Y-32685910D01*
X32053569Y-32898110D01*
X32002560Y-33150000D01*
X32002560Y-34726688D01*
X31749449Y-34979357D01*
X31515267Y-35543330D01*
X31514735Y-36153991D01*
X30680911Y-36153991D01*
X30685317Y-36153162D01*
X30901441Y-36014090D01*
X31046431Y-35801890D01*
X31097440Y-35550000D01*
X31097440Y-33973312D01*
X31350551Y-33720643D01*
X31584733Y-33156670D01*
X31585265Y-32546009D01*
X31352507Y-31982690D01*
X44108000Y-31982690D01*
X44108000Y-33803250D01*
X44266750Y-33962000D01*
X47116000Y-33962000D01*
X47116000Y-31632750D01*
X46957250Y-31474000D01*
X44616691Y-31474000D01*
X44383302Y-31570673D01*
X44204673Y-31749301D01*
X44108000Y-31982690D01*
X31352507Y-31982690D01*
X31352068Y-31981629D01*
X31305520Y-31935000D01*
X36050000Y-31935000D01*
X36637419Y-31818155D01*
X37135409Y-31485409D01*
X39706068Y-28914750D01*
X44108000Y-28914750D01*
X44108000Y-30735310D01*
X44204673Y-30968699D01*
X44383302Y-31147327D01*
X44616691Y-31244000D01*
X46957250Y-31244000D01*
X47116000Y-31085250D01*
X47116000Y-28756000D01*
X44266750Y-28756000D01*
X44108000Y-28914750D01*
X39706068Y-28914750D01*
X41835409Y-26785409D01*
X42168155Y-26287419D01*
X42178360Y-26236117D01*
X42251441Y-26189090D01*
X42299134Y-26119289D01*
X42335910Y-26176441D01*
G36*
X17557560Y-24779921D02*
X17557560Y-24960000D01*
X17601838Y-25195317D01*
X17740910Y-25411441D01*
X17953110Y-25556431D01*
X18205000Y-25607440D01*
X19855000Y-25607440D01*
X20090317Y-25563162D01*
X20306441Y-25424090D01*
X20451431Y-25211890D01*
X20502440Y-24960000D01*
X20502440Y-24915226D01*
X20548110Y-24946431D01*
X20584918Y-24953885D01*
X20647877Y-25048110D01*
X20709566Y-25140434D01*
X21702560Y-26133428D01*
X21702560Y-26300000D01*
X21746838Y-26535317D01*
X21885910Y-26751441D01*
X21918025Y-26773384D01*
X21898559Y-26785910D01*
X21753569Y-26998110D01*
X21702560Y-27250000D01*
X21702560Y-27720998D01*
X21435378Y-27987714D01*
X21270687Y-28384332D01*
X21270313Y-28813784D01*
X21434311Y-29210689D01*
X21737714Y-29514622D01*
X22134332Y-29679313D01*
X22563784Y-29679687D01*
X22669363Y-29636063D01*
X22715000Y-29704364D01*
X22715000Y-29955854D01*
X22601890Y-29878569D01*
X22350000Y-29827560D01*
X21350000Y-29827560D01*
X21114683Y-29871838D01*
X20898559Y-30010910D01*
X20753569Y-30223110D01*
X20702560Y-30475000D01*
X20702560Y-31725000D01*
X20715000Y-31791113D01*
X20715000Y-31990017D01*
X20551890Y-31878569D01*
X20300000Y-31827560D01*
X19300000Y-31827560D01*
X19257440Y-31835568D01*
X19257440Y-31235000D01*
X19213162Y-30999683D01*
X19074090Y-30783559D01*
X18861890Y-30638569D01*
X18610000Y-30587560D01*
X18546611Y-30587560D01*
X18464643Y-30505449D01*
X17900670Y-30271267D01*
X17290009Y-30270735D01*
X16725629Y-30503932D01*
X16641855Y-30587560D01*
X16070000Y-30587560D01*
X15834683Y-30631838D01*
X15618559Y-30770910D01*
X15473569Y-30983110D01*
X15422560Y-31235000D01*
X15422560Y-32097692D01*
X15175000Y-32047560D01*
X14505285Y-32047560D01*
X14177440Y-31719715D01*
X14177440Y-31235000D01*
X14133162Y-30999683D01*
X13994090Y-30783559D01*
X13781890Y-30638569D01*
X13530000Y-30587560D01*
X12958611Y-30587560D01*
X12876643Y-30505449D01*
X12312670Y-30271267D01*
X11702009Y-30270735D01*
X11666341Y-30285473D01*
X9990434Y-28609566D01*
X9928467Y-28568161D01*
X9719541Y-28428561D01*
X9400000Y-28365000D01*
X6477000Y-28365000D01*
X6477000Y-28035000D01*
X10704132Y-28035000D01*
X11649566Y-28980434D01*
X11842560Y-29109389D01*
X11842560Y-29215000D01*
X11886838Y-29450317D01*
X12025910Y-29666441D01*
X12238110Y-29811431D01*
X12490000Y-29862440D01*
X12553389Y-29862440D01*
X12635357Y-29944551D01*
X13199330Y-30178733D01*
X13809991Y-30179265D01*
X14374371Y-29946068D01*
X14458145Y-29862440D01*
X15030000Y-29862440D01*
X15265317Y-29818162D01*
X15481441Y-29679090D01*
X15626431Y-29466890D01*
X15677440Y-29215000D01*
X15677440Y-28730285D01*
X16005285Y-28402440D01*
X16675000Y-28402440D01*
X16910317Y-28358162D01*
X17079832Y-28249082D01*
X17093750Y-28263000D01*
X17598885Y-28263000D01*
X17547542Y-28403336D01*
X17552315Y-28517000D01*
X17093750Y-28517000D01*
X16935000Y-28675750D01*
X16935000Y-29341309D01*
X17031673Y-29574698D01*
X17210301Y-29753327D01*
X17443690Y-29850000D01*
X18235840Y-29850000D01*
X18279852Y-29980643D01*
X18853336Y-30190458D01*
X19463460Y-30164839D01*
X19908148Y-29980643D01*
X19952160Y-29850000D01*
X20236310Y-29850000D01*
X20469699Y-29753327D01*
X20648327Y-29574698D01*
X20745000Y-29341309D01*
X20745000Y-28675750D01*
X20626719Y-28557469D01*
X20614839Y-28274540D01*
X20603085Y-28246165D01*
X20745000Y-28104250D01*
X20745000Y-27438691D01*
X20648327Y-27205302D01*
X20469699Y-27026673D01*
X20438146Y-27013604D01*
X20490000Y-26961750D01*
X20490000Y-26613691D01*
X20393327Y-26380302D01*
X20214699Y-26201673D01*
X19981310Y-26105000D01*
X19315750Y-26105000D01*
X19157000Y-26263750D01*
X19157000Y-26930000D01*
X19125750Y-26930000D01*
X18967002Y-27088748D01*
X18967002Y-26930000D01*
X18903000Y-26930000D01*
X18903000Y-26263750D01*
X18744250Y-26105000D01*
X18078690Y-26105000D01*
X17845301Y-26201673D01*
X17666673Y-26380302D01*
X17570000Y-26613691D01*
X17570000Y-26930000D01*
X17443690Y-26930000D01*
X17322440Y-26980223D01*
X17322440Y-26740000D01*
X17278162Y-26504683D01*
X17267344Y-26487871D01*
X17271431Y-26481890D01*
X17322440Y-26230000D01*
X17322440Y-25470000D01*
X17278162Y-25234683D01*
X17267344Y-25217871D01*
X17271431Y-25211890D01*
X17322440Y-24960000D01*
X17322440Y-24732308D01*
X17557560Y-24779921D01*
X17557560Y-24779921D01*
G37*
X17557560Y-24779921D02*
X17557560Y-24960000D01*
X17601838Y-25195317D01*
X17740910Y-25411441D01*
X17953110Y-25556431D01*
X18205000Y-25607440D01*
X19855000Y-25607440D01*
X20090317Y-25563162D01*
X20306441Y-25424090D01*
X20451431Y-25211890D01*
X20502440Y-24960000D01*
X20502440Y-24915226D01*
X20548110Y-24946431D01*
X20584918Y-24953885D01*
X20647877Y-25048110D01*
X20709566Y-25140434D01*
X21702560Y-26133428D01*
X21702560Y-26300000D01*
X21746838Y-26535317D01*
X21885910Y-26751441D01*
X21918025Y-26773384D01*
X21898559Y-26785910D01*
X21753569Y-26998110D01*
X21702560Y-27250000D01*
X21702560Y-27720998D01*
X21435378Y-27987714D01*
X21270687Y-28384332D01*
X21270313Y-28813784D01*
X21434311Y-29210689D01*
X21737714Y-29514622D01*
X22134332Y-29679313D01*
X22563784Y-29679687D01*
X22669363Y-29636063D01*
X22715000Y-29704364D01*
X22715000Y-29955854D01*
X22601890Y-29878569D01*
X22350000Y-29827560D01*
X21350000Y-29827560D01*
X21114683Y-29871838D01*
X20898559Y-30010910D01*
X20753569Y-30223110D01*
X20702560Y-30475000D01*
X20702560Y-31725000D01*
X20715000Y-31791113D01*
X20715000Y-31990017D01*
X20551890Y-31878569D01*
X20300000Y-31827560D01*
X19300000Y-31827560D01*
X19257440Y-31835568D01*
X19257440Y-31235000D01*
X19213162Y-30999683D01*
X19074090Y-30783559D01*
X18861890Y-30638569D01*
X18610000Y-30587560D01*
X18546611Y-30587560D01*
X18464643Y-30505449D01*
X17900670Y-30271267D01*
X17290009Y-30270735D01*
X16725629Y-30503932D01*
X16641855Y-30587560D01*
X16070000Y-30587560D01*
X15834683Y-30631838D01*
X15618559Y-30770910D01*
X15473569Y-30983110D01*
X15422560Y-31235000D01*
X15422560Y-32097692D01*
X15175000Y-32047560D01*
X14505285Y-32047560D01*
X14177440Y-31719715D01*
X14177440Y-31235000D01*
X14133162Y-30999683D01*
X13994090Y-30783559D01*
X13781890Y-30638569D01*
X13530000Y-30587560D01*
X12958611Y-30587560D01*
X12876643Y-30505449D01*
X12312670Y-30271267D01*
X11702009Y-30270735D01*
X11666341Y-30285473D01*
X9990434Y-28609566D01*
X9928467Y-28568161D01*
X9719541Y-28428561D01*
X9400000Y-28365000D01*
X6477000Y-28365000D01*
X6477000Y-28035000D01*
X10704132Y-28035000D01*
X11649566Y-28980434D01*
X11842560Y-29109389D01*
X11842560Y-29215000D01*
X11886838Y-29450317D01*
X12025910Y-29666441D01*
X12238110Y-29811431D01*
X12490000Y-29862440D01*
X12553389Y-29862440D01*
X12635357Y-29944551D01*
X13199330Y-30178733D01*
X13809991Y-30179265D01*
X14374371Y-29946068D01*
X14458145Y-29862440D01*
X15030000Y-29862440D01*
X15265317Y-29818162D01*
X15481441Y-29679090D01*
X15626431Y-29466890D01*
X15677440Y-29215000D01*
X15677440Y-28730285D01*
X16005285Y-28402440D01*
X16675000Y-28402440D01*
X16910317Y-28358162D01*
X17079832Y-28249082D01*
X17093750Y-28263000D01*
X17598885Y-28263000D01*
X17547542Y-28403336D01*
X17552315Y-28517000D01*
X17093750Y-28517000D01*
X16935000Y-28675750D01*
X16935000Y-29341309D01*
X17031673Y-29574698D01*
X17210301Y-29753327D01*
X17443690Y-29850000D01*
X18235840Y-29850000D01*
X18279852Y-29980643D01*
X18853336Y-30190458D01*
X19463460Y-30164839D01*
X19908148Y-29980643D01*
X19952160Y-29850000D01*
X20236310Y-29850000D01*
X20469699Y-29753327D01*
X20648327Y-29574698D01*
X20745000Y-29341309D01*
X20745000Y-28675750D01*
X20626719Y-28557469D01*
X20614839Y-28274540D01*
X20603085Y-28246165D01*
X20745000Y-28104250D01*
X20745000Y-27438691D01*
X20648327Y-27205302D01*
X20469699Y-27026673D01*
X20438146Y-27013604D01*
X20490000Y-26961750D01*
X20490000Y-26613691D01*
X20393327Y-26380302D01*
X20214699Y-26201673D01*
X19981310Y-26105000D01*
X19315750Y-26105000D01*
X19157000Y-26263750D01*
X19157000Y-26930000D01*
X19125750Y-26930000D01*
X18967002Y-27088748D01*
X18967002Y-26930000D01*
X18903000Y-26930000D01*
X18903000Y-26263750D01*
X18744250Y-26105000D01*
X18078690Y-26105000D01*
X17845301Y-26201673D01*
X17666673Y-26380302D01*
X17570000Y-26613691D01*
X17570000Y-26930000D01*
X17443690Y-26930000D01*
X17322440Y-26980223D01*
X17322440Y-26740000D01*
X17278162Y-26504683D01*
X17267344Y-26487871D01*
X17271431Y-26481890D01*
X17322440Y-26230000D01*
X17322440Y-25470000D01*
X17278162Y-25234683D01*
X17267344Y-25217871D01*
X17271431Y-25211890D01*
X17322440Y-24960000D01*
X17322440Y-24732308D01*
X17557560Y-24779921D01*
G36*
X28715000Y-30400000D02*
X28773754Y-30695378D01*
X28397440Y-31071692D01*
X28397440Y-30900000D01*
X28353162Y-30664683D01*
X28214090Y-30448559D01*
X28047891Y-30335000D01*
X28450000Y-30335000D01*
X28739379Y-30277439D01*
X28715000Y-30400000D01*
X28715000Y-30400000D01*
G37*
X28715000Y-30400000D02*
X28773754Y-30695378D01*
X28397440Y-31071692D01*
X28397440Y-30900000D01*
X28353162Y-30664683D01*
X28214090Y-30448559D01*
X28047891Y-30335000D01*
X28450000Y-30335000D01*
X28739379Y-30277439D01*
X28715000Y-30400000D01*
G36*
X42394628Y-668156D02*
X41321923Y-1738991D01*
X40740663Y-3138819D01*
X40739340Y-4654531D01*
X41318156Y-6055372D01*
X42388991Y-7128077D01*
X43788819Y-7709337D01*
X44108000Y-7709616D01*
X44108000Y-8403250D01*
X44266750Y-8562000D01*
X47116000Y-8562000D01*
X47116000Y-8542000D01*
X47370000Y-8542000D01*
X47370000Y-8562000D01*
X47390000Y-8562000D01*
X47390000Y-8816000D01*
X47370000Y-8816000D01*
X47370000Y-8836000D01*
X47116000Y-8836000D01*
X47116000Y-8816000D01*
X44266750Y-8816000D01*
X44108000Y-8974750D01*
X44108000Y-10795310D01*
X44204673Y-11028699D01*
X44222279Y-11046305D01*
X44146569Y-11157110D01*
X44145263Y-11163560D01*
X43154000Y-11163560D01*
X42918683Y-11207838D01*
X42702559Y-11346910D01*
X42654866Y-11416711D01*
X42618090Y-11359559D01*
X42405890Y-11214569D01*
X42154000Y-11163560D01*
X41154000Y-11163560D01*
X40918683Y-11207838D01*
X40702559Y-11346910D01*
X40557569Y-11559110D01*
X40506560Y-11811000D01*
X40506560Y-11836886D01*
X39976723Y-12366723D01*
X39709009Y-12767386D01*
X39615000Y-13240000D01*
X39615000Y-15659146D01*
X39414683Y-15696838D01*
X39198559Y-15835910D01*
X39053569Y-16048110D01*
X39002560Y-16300000D01*
X39002560Y-18100000D01*
X39046838Y-18335317D01*
X39185910Y-18551441D01*
X39398110Y-18696431D01*
X39650000Y-18747440D01*
X41226688Y-18747440D01*
X41479357Y-19000551D01*
X42043330Y-19234733D01*
X42653991Y-19235265D01*
X43218371Y-19002068D01*
X43650551Y-18570643D01*
X43884733Y-18006670D01*
X43885265Y-17396009D01*
X43652068Y-16831629D01*
X43220643Y-16399449D01*
X42775838Y-16214750D01*
X44108000Y-16214750D01*
X44108000Y-18035310D01*
X44204673Y-18268699D01*
X44383302Y-18447327D01*
X44616691Y-18544000D01*
X46957250Y-18544000D01*
X47116000Y-18385250D01*
X47116000Y-16056000D01*
X44266750Y-16056000D01*
X44108000Y-16214750D01*
X42775838Y-16214750D01*
X42673395Y-16172212D01*
X42653162Y-16064683D01*
X42514090Y-15848559D01*
X42301890Y-15703569D01*
X42085000Y-15659648D01*
X42085000Y-13751554D01*
X42128114Y-13708440D01*
X42154000Y-13708440D01*
X42389317Y-13664162D01*
X42605441Y-13525090D01*
X42653134Y-13455289D01*
X42689910Y-13512441D01*
X42902110Y-13657431D01*
X43154000Y-13708440D01*
X44154000Y-13708440D01*
X44155436Y-13708170D01*
X44108000Y-13822690D01*
X44108000Y-15643250D01*
X44266750Y-15802000D01*
X47116000Y-15802000D01*
X47116000Y-15782000D01*
X47370000Y-15782000D01*
X47370000Y-15802000D01*
X47390000Y-15802000D01*
X47390000Y-16056000D01*
X47370000Y-16056000D01*
X47370000Y-16693359D01*
X47203542Y-17148336D01*
X47229161Y-17758460D01*
X47370000Y-18098475D01*
X47370000Y-18385250D01*
X47528750Y-18544000D01*
X47695172Y-18544000D01*
X47734890Y-18583718D01*
X47774608Y-18544000D01*
X47874659Y-18544000D01*
X47913401Y-18659000D01*
X47874659Y-18774000D01*
X47774608Y-18774000D01*
X47734890Y-18734282D01*
X47695172Y-18774000D01*
X47528750Y-18774000D01*
X47370000Y-18932750D01*
X47370000Y-19233359D01*
X47203542Y-19688336D01*
X47229161Y-20298460D01*
X47370000Y-20638475D01*
X47370000Y-21262000D01*
X47390000Y-21262000D01*
X47390000Y-21516000D01*
X47370000Y-21516000D01*
X47370000Y-21536000D01*
X47116000Y-21536000D01*
X47116000Y-21516000D01*
X44266750Y-21516000D01*
X44108000Y-21674750D01*
X44108000Y-23495310D01*
X44204673Y-23728699D01*
X44222279Y-23746305D01*
X44146569Y-23857110D01*
X44144971Y-23865000D01*
X43984884Y-23865000D01*
X43800000Y-23827560D01*
X42800000Y-23827560D01*
X42564683Y-23871838D01*
X42348559Y-24010910D01*
X42300866Y-24080711D01*
X42264090Y-24023559D01*
X42051890Y-23878569D01*
X41800000Y-23827560D01*
X40800000Y-23827560D01*
X40564683Y-23871838D01*
X40348559Y-24010910D01*
X40203569Y-24223110D01*
X40192896Y-24275815D01*
X40162581Y-24281845D01*
X39664591Y-24614591D01*
X35414182Y-28865000D01*
X31255818Y-28865000D01*
X33285818Y-26835000D01*
X36150000Y-26835000D01*
X36737419Y-26718155D01*
X37235409Y-26385409D01*
X37279063Y-26320076D01*
X37410689Y-26265689D01*
X37714622Y-25962286D01*
X37879313Y-25565668D01*
X37879687Y-25136216D01*
X37715689Y-24739311D01*
X37412286Y-24435378D01*
X37371663Y-24418510D01*
X37235409Y-24214591D01*
X36737419Y-23881845D01*
X36150000Y-23765000D01*
X35773306Y-23765000D01*
X36160371Y-23605068D01*
X36592551Y-23173643D01*
X36819788Y-22626395D01*
X36927317Y-22606162D01*
X37143441Y-22467090D01*
X37231644Y-22338000D01*
X38843299Y-22338000D01*
X39262581Y-22618155D01*
X39292160Y-22624039D01*
X39398110Y-22696431D01*
X39650000Y-22747440D01*
X42050000Y-22747440D01*
X42285317Y-22703162D01*
X42501441Y-22564090D01*
X42646431Y-22351890D01*
X42697440Y-22100000D01*
X42697440Y-20300000D01*
X42653162Y-20064683D01*
X42514090Y-19848559D01*
X42301890Y-19703569D01*
X42050000Y-19652560D01*
X40473378Y-19652560D01*
X40435409Y-19614591D01*
X40220643Y-19399449D01*
X39939457Y-19282690D01*
X44108000Y-19282690D01*
X44108000Y-21103250D01*
X44266750Y-21262000D01*
X47116000Y-21262000D01*
X47116000Y-18932750D01*
X46957250Y-18774000D01*
X44616691Y-18774000D01*
X44383302Y-18870673D01*
X44204673Y-19049301D01*
X44108000Y-19282690D01*
X39939457Y-19282690D01*
X39656670Y-19165267D01*
X39046009Y-19164735D01*
X38796089Y-19268000D01*
X37231018Y-19268000D01*
X37156090Y-19151559D01*
X36943890Y-19006569D01*
X36692000Y-18955560D01*
X34892000Y-18955560D01*
X34656683Y-18999838D01*
X34440559Y-19138910D01*
X34295569Y-19351110D01*
X34244560Y-19603000D01*
X34244560Y-20690377D01*
X34151009Y-20830386D01*
X34057000Y-21303000D01*
X34057000Y-21366921D01*
X33991449Y-21432357D01*
X33757267Y-21996330D01*
X33756735Y-22606991D01*
X33989932Y-23171371D01*
X34421357Y-23603551D01*
X34810169Y-23765000D01*
X32650000Y-23765000D01*
X32062581Y-23881845D01*
X31564591Y-24214591D01*
X29064591Y-26714591D01*
X28731845Y-27212581D01*
X28615000Y-27800000D01*
X28673754Y-28095378D01*
X28397440Y-28371692D01*
X28397440Y-28000000D01*
X28353162Y-27764683D01*
X28214090Y-27548559D01*
X28001890Y-27403569D01*
X27750000Y-27352560D01*
X27329629Y-27352560D01*
X27329687Y-27286216D01*
X27165689Y-26889311D01*
X26862286Y-26585378D01*
X26465668Y-26420687D01*
X26036216Y-26420313D01*
X25986916Y-26440683D01*
X25965689Y-26389311D01*
X25662286Y-26085378D01*
X25265668Y-25920687D01*
X24836216Y-25920313D01*
X24697440Y-25977654D01*
X24697440Y-25300000D01*
X24653162Y-25064683D01*
X24552286Y-24907918D01*
X24968605Y-25080788D01*
X24988838Y-25188317D01*
X25127910Y-25404441D01*
X25340110Y-25549431D01*
X25592000Y-25600440D01*
X27992000Y-25600440D01*
X28227317Y-25556162D01*
X28443441Y-25417090D01*
X28588431Y-25204890D01*
X28639440Y-24953000D01*
X28639440Y-23153000D01*
X28595162Y-22917683D01*
X28456090Y-22701559D01*
X28243890Y-22556569D01*
X27992000Y-22505560D01*
X26415312Y-22505560D01*
X26162643Y-22252449D01*
X25598670Y-22018267D01*
X24988009Y-22017735D01*
X24629618Y-22165819D01*
X24629687Y-22086216D01*
X24465689Y-21689311D01*
X24162286Y-21385378D01*
X23765668Y-21220687D01*
X23336216Y-21220313D01*
X22939311Y-21384311D01*
X22635378Y-21687714D01*
X22475891Y-22071800D01*
X22298559Y-22185910D01*
X22276616Y-22218025D01*
X22264090Y-22198559D01*
X22051890Y-22053569D01*
X21800000Y-22002560D01*
X20800000Y-22002560D01*
X20733887Y-22015000D01*
X20546928Y-22015000D01*
X20361890Y-21888569D01*
X20110000Y-21837560D01*
X20046611Y-21837560D01*
X19964643Y-21755449D01*
X19400670Y-21521267D01*
X18790009Y-21520735D01*
X18225629Y-21753932D01*
X18141855Y-21837560D01*
X17570000Y-21837560D01*
X17334683Y-21881838D01*
X17118559Y-22020910D01*
X16973569Y-22233110D01*
X16922560Y-22485000D01*
X16922560Y-23347692D01*
X16675000Y-23297560D01*
X16005285Y-23297560D01*
X15677440Y-22969715D01*
X15677440Y-22485000D01*
X15633162Y-22249683D01*
X15494090Y-22033559D01*
X15281890Y-21888569D01*
X15030000Y-21837560D01*
X14458611Y-21837560D01*
X14376643Y-21755449D01*
X13812670Y-21521267D01*
X13202009Y-21520735D01*
X12637629Y-21753932D01*
X12553855Y-21837560D01*
X12490000Y-21837560D01*
X12254683Y-21881838D01*
X12038559Y-22020910D01*
X11893569Y-22233110D01*
X11842560Y-22485000D01*
X11842560Y-23254111D01*
X11799103Y-23283148D01*
X11759566Y-23309566D01*
X11222440Y-23846692D01*
X11222440Y-23400000D01*
X11178162Y-23164683D01*
X11039090Y-22948559D01*
X10969289Y-22900866D01*
X11026441Y-22864090D01*
X11171431Y-22651890D01*
X11222440Y-22400000D01*
X11222440Y-21400000D01*
X11178162Y-21164683D01*
X11039090Y-20948559D01*
X10826890Y-20803569D01*
X10575000Y-20752560D01*
X9772242Y-20752560D01*
X10164802Y-20360000D01*
X12050000Y-20360000D01*
X12340839Y-20302148D01*
X12587401Y-20137401D01*
X13087401Y-19637401D01*
X13252148Y-19390839D01*
X13310000Y-19100000D01*
X13310000Y-18527000D01*
X25478056Y-18527000D01*
X25356683Y-18549838D01*
X25140559Y-18688910D01*
X24995569Y-18901110D01*
X24944560Y-19153000D01*
X24944560Y-20953000D01*
X24988838Y-21188317D01*
X25127910Y-21404441D01*
X25340110Y-21549431D01*
X25592000Y-21600440D01*
X27168688Y-21600440D01*
X27421357Y-21853551D01*
X27985330Y-22087733D01*
X28595991Y-22088265D01*
X28596632Y-22088000D01*
X30260554Y-22088000D01*
X30288838Y-22238317D01*
X30427910Y-22454441D01*
X30640110Y-22599431D01*
X30892000Y-22650440D01*
X32692000Y-22650440D01*
X32927317Y-22606162D01*
X33143441Y-22467090D01*
X33288431Y-22254890D01*
X33339440Y-22003000D01*
X33339440Y-20426312D01*
X33592551Y-20173643D01*
X33826733Y-19609670D01*
X33827265Y-18999009D01*
X33632235Y-18527000D01*
X35850000Y-18527000D01*
X35899410Y-18516994D01*
X35941035Y-18488553D01*
X35968315Y-18446159D01*
X35977000Y-18400000D01*
X35977000Y-645000D01*
X42450670Y-645000D01*
X42394628Y-668156D01*
X42394628Y-668156D01*
G37*
X42394628Y-668156D02*
X41321923Y-1738991D01*
X40740663Y-3138819D01*
X40739340Y-4654531D01*
X41318156Y-6055372D01*
X42388991Y-7128077D01*
X43788819Y-7709337D01*
X44108000Y-7709616D01*
X44108000Y-8403250D01*
X44266750Y-8562000D01*
X47116000Y-8562000D01*
X47116000Y-8542000D01*
X47370000Y-8542000D01*
X47370000Y-8562000D01*
X47390000Y-8562000D01*
X47390000Y-8816000D01*
X47370000Y-8816000D01*
X47370000Y-8836000D01*
X47116000Y-8836000D01*
X47116000Y-8816000D01*
X44266750Y-8816000D01*
X44108000Y-8974750D01*
X44108000Y-10795310D01*
X44204673Y-11028699D01*
X44222279Y-11046305D01*
X44146569Y-11157110D01*
X44145263Y-11163560D01*
X43154000Y-11163560D01*
X42918683Y-11207838D01*
X42702559Y-11346910D01*
X42654866Y-11416711D01*
X42618090Y-11359559D01*
X42405890Y-11214569D01*
X42154000Y-11163560D01*
X41154000Y-11163560D01*
X40918683Y-11207838D01*
X40702559Y-11346910D01*
X40557569Y-11559110D01*
X40506560Y-11811000D01*
X40506560Y-11836886D01*
X39976723Y-12366723D01*
X39709009Y-12767386D01*
X39615000Y-13240000D01*
X39615000Y-15659146D01*
X39414683Y-15696838D01*
X39198559Y-15835910D01*
X39053569Y-16048110D01*
X39002560Y-16300000D01*
X39002560Y-18100000D01*
X39046838Y-18335317D01*
X39185910Y-18551441D01*
X39398110Y-18696431D01*
X39650000Y-18747440D01*
X41226688Y-18747440D01*
X41479357Y-19000551D01*
X42043330Y-19234733D01*
X42653991Y-19235265D01*
X43218371Y-19002068D01*
X43650551Y-18570643D01*
X43884733Y-18006670D01*
X43885265Y-17396009D01*
X43652068Y-16831629D01*
X43220643Y-16399449D01*
X42775838Y-16214750D01*
X44108000Y-16214750D01*
X44108000Y-18035310D01*
X44204673Y-18268699D01*
X44383302Y-18447327D01*
X44616691Y-18544000D01*
X46957250Y-18544000D01*
X47116000Y-18385250D01*
X47116000Y-16056000D01*
X44266750Y-16056000D01*
X44108000Y-16214750D01*
X42775838Y-16214750D01*
X42673395Y-16172212D01*
X42653162Y-16064683D01*
X42514090Y-15848559D01*
X42301890Y-15703569D01*
X42085000Y-15659648D01*
X42085000Y-13751554D01*
X42128114Y-13708440D01*
X42154000Y-13708440D01*
X42389317Y-13664162D01*
X42605441Y-13525090D01*
X42653134Y-13455289D01*
X42689910Y-13512441D01*
X42902110Y-13657431D01*
X43154000Y-13708440D01*
X44154000Y-13708440D01*
X44155436Y-13708170D01*
X44108000Y-13822690D01*
X44108000Y-15643250D01*
X44266750Y-15802000D01*
X47116000Y-15802000D01*
X47116000Y-15782000D01*
X47370000Y-15782000D01*
X47370000Y-15802000D01*
X47390000Y-15802000D01*
X47390000Y-16056000D01*
X47370000Y-16056000D01*
X47370000Y-16693359D01*
X47203542Y-17148336D01*
X47229161Y-17758460D01*
X47370000Y-18098475D01*
X47370000Y-18385250D01*
X47528750Y-18544000D01*
X47695172Y-18544000D01*
X47734890Y-18583718D01*
X47774608Y-18544000D01*
X47874659Y-18544000D01*
X47913401Y-18659000D01*
X47874659Y-18774000D01*
X47774608Y-18774000D01*
X47734890Y-18734282D01*
X47695172Y-18774000D01*
X47528750Y-18774000D01*
X47370000Y-18932750D01*
X47370000Y-19233359D01*
X47203542Y-19688336D01*
X47229161Y-20298460D01*
X47370000Y-20638475D01*
X47370000Y-21262000D01*
X47390000Y-21262000D01*
X47390000Y-21516000D01*
X47370000Y-21516000D01*
X47370000Y-21536000D01*
X47116000Y-21536000D01*
X47116000Y-21516000D01*
X44266750Y-21516000D01*
X44108000Y-21674750D01*
X44108000Y-23495310D01*
X44204673Y-23728699D01*
X44222279Y-23746305D01*
X44146569Y-23857110D01*
X44144971Y-23865000D01*
X43984884Y-23865000D01*
X43800000Y-23827560D01*
X42800000Y-23827560D01*
X42564683Y-23871838D01*
X42348559Y-24010910D01*
X42300866Y-24080711D01*
X42264090Y-24023559D01*
X42051890Y-23878569D01*
X41800000Y-23827560D01*
X40800000Y-23827560D01*
X40564683Y-23871838D01*
X40348559Y-24010910D01*
X40203569Y-24223110D01*
X40192896Y-24275815D01*
X40162581Y-24281845D01*
X39664591Y-24614591D01*
X35414182Y-28865000D01*
X31255818Y-28865000D01*
X33285818Y-26835000D01*
X36150000Y-26835000D01*
X36737419Y-26718155D01*
X37235409Y-26385409D01*
X37279063Y-26320076D01*
X37410689Y-26265689D01*
X37714622Y-25962286D01*
X37879313Y-25565668D01*
X37879687Y-25136216D01*
X37715689Y-24739311D01*
X37412286Y-24435378D01*
X37371663Y-24418510D01*
X37235409Y-24214591D01*
X36737419Y-23881845D01*
X36150000Y-23765000D01*
X35773306Y-23765000D01*
X36160371Y-23605068D01*
X36592551Y-23173643D01*
X36819788Y-22626395D01*
X36927317Y-22606162D01*
X37143441Y-22467090D01*
X37231644Y-22338000D01*
X38843299Y-22338000D01*
X39262581Y-22618155D01*
X39292160Y-22624039D01*
X39398110Y-22696431D01*
X39650000Y-22747440D01*
X42050000Y-22747440D01*
X42285317Y-22703162D01*
X42501441Y-22564090D01*
X42646431Y-22351890D01*
X42697440Y-22100000D01*
X42697440Y-20300000D01*
X42653162Y-20064683D01*
X42514090Y-19848559D01*
X42301890Y-19703569D01*
X42050000Y-19652560D01*
X40473378Y-19652560D01*
X40435409Y-19614591D01*
X40220643Y-19399449D01*
X39939457Y-19282690D01*
X44108000Y-19282690D01*
X44108000Y-21103250D01*
X44266750Y-21262000D01*
X47116000Y-21262000D01*
X47116000Y-18932750D01*
X46957250Y-18774000D01*
X44616691Y-18774000D01*
X44383302Y-18870673D01*
X44204673Y-19049301D01*
X44108000Y-19282690D01*
X39939457Y-19282690D01*
X39656670Y-19165267D01*
X39046009Y-19164735D01*
X38796089Y-19268000D01*
X37231018Y-19268000D01*
X37156090Y-19151559D01*
X36943890Y-19006569D01*
X36692000Y-18955560D01*
X34892000Y-18955560D01*
X34656683Y-18999838D01*
X34440559Y-19138910D01*
X34295569Y-19351110D01*
X34244560Y-19603000D01*
X34244560Y-20690377D01*
X34151009Y-20830386D01*
X34057000Y-21303000D01*
X34057000Y-21366921D01*
X33991449Y-21432357D01*
X33757267Y-21996330D01*
X33756735Y-22606991D01*
X33989932Y-23171371D01*
X34421357Y-23603551D01*
X34810169Y-23765000D01*
X32650000Y-23765000D01*
X32062581Y-23881845D01*
X31564591Y-24214591D01*
X29064591Y-26714591D01*
X28731845Y-27212581D01*
X28615000Y-27800000D01*
X28673754Y-28095378D01*
X28397440Y-28371692D01*
X28397440Y-28000000D01*
X28353162Y-27764683D01*
X28214090Y-27548559D01*
X28001890Y-27403569D01*
X27750000Y-27352560D01*
X27329629Y-27352560D01*
X27329687Y-27286216D01*
X27165689Y-26889311D01*
X26862286Y-26585378D01*
X26465668Y-26420687D01*
X26036216Y-26420313D01*
X25986916Y-26440683D01*
X25965689Y-26389311D01*
X25662286Y-26085378D01*
X25265668Y-25920687D01*
X24836216Y-25920313D01*
X24697440Y-25977654D01*
X24697440Y-25300000D01*
X24653162Y-25064683D01*
X24552286Y-24907918D01*
X24968605Y-25080788D01*
X24988838Y-25188317D01*
X25127910Y-25404441D01*
X25340110Y-25549431D01*
X25592000Y-25600440D01*
X27992000Y-25600440D01*
X28227317Y-25556162D01*
X28443441Y-25417090D01*
X28588431Y-25204890D01*
X28639440Y-24953000D01*
X28639440Y-23153000D01*
X28595162Y-22917683D01*
X28456090Y-22701559D01*
X28243890Y-22556569D01*
X27992000Y-22505560D01*
X26415312Y-22505560D01*
X26162643Y-22252449D01*
X25598670Y-22018267D01*
X24988009Y-22017735D01*
X24629618Y-22165819D01*
X24629687Y-22086216D01*
X24465689Y-21689311D01*
X24162286Y-21385378D01*
X23765668Y-21220687D01*
X23336216Y-21220313D01*
X22939311Y-21384311D01*
X22635378Y-21687714D01*
X22475891Y-22071800D01*
X22298559Y-22185910D01*
X22276616Y-22218025D01*
X22264090Y-22198559D01*
X22051890Y-22053569D01*
X21800000Y-22002560D01*
X20800000Y-22002560D01*
X20733887Y-22015000D01*
X20546928Y-22015000D01*
X20361890Y-21888569D01*
X20110000Y-21837560D01*
X20046611Y-21837560D01*
X19964643Y-21755449D01*
X19400670Y-21521267D01*
X18790009Y-21520735D01*
X18225629Y-21753932D01*
X18141855Y-21837560D01*
X17570000Y-21837560D01*
X17334683Y-21881838D01*
X17118559Y-22020910D01*
X16973569Y-22233110D01*
X16922560Y-22485000D01*
X16922560Y-23347692D01*
X16675000Y-23297560D01*
X16005285Y-23297560D01*
X15677440Y-22969715D01*
X15677440Y-22485000D01*
X15633162Y-22249683D01*
X15494090Y-22033559D01*
X15281890Y-21888569D01*
X15030000Y-21837560D01*
X14458611Y-21837560D01*
X14376643Y-21755449D01*
X13812670Y-21521267D01*
X13202009Y-21520735D01*
X12637629Y-21753932D01*
X12553855Y-21837560D01*
X12490000Y-21837560D01*
X12254683Y-21881838D01*
X12038559Y-22020910D01*
X11893569Y-22233110D01*
X11842560Y-22485000D01*
X11842560Y-23254111D01*
X11799103Y-23283148D01*
X11759566Y-23309566D01*
X11222440Y-23846692D01*
X11222440Y-23400000D01*
X11178162Y-23164683D01*
X11039090Y-22948559D01*
X10969289Y-22900866D01*
X11026441Y-22864090D01*
X11171431Y-22651890D01*
X11222440Y-22400000D01*
X11222440Y-21400000D01*
X11178162Y-21164683D01*
X11039090Y-20948559D01*
X10826890Y-20803569D01*
X10575000Y-20752560D01*
X9772242Y-20752560D01*
X10164802Y-20360000D01*
X12050000Y-20360000D01*
X12340839Y-20302148D01*
X12587401Y-20137401D01*
X13087401Y-19637401D01*
X13252148Y-19390839D01*
X13310000Y-19100000D01*
X13310000Y-18527000D01*
X25478056Y-18527000D01*
X25356683Y-18549838D01*
X25140559Y-18688910D01*
X24995569Y-18901110D01*
X24944560Y-19153000D01*
X24944560Y-20953000D01*
X24988838Y-21188317D01*
X25127910Y-21404441D01*
X25340110Y-21549431D01*
X25592000Y-21600440D01*
X27168688Y-21600440D01*
X27421357Y-21853551D01*
X27985330Y-22087733D01*
X28595991Y-22088265D01*
X28596632Y-22088000D01*
X30260554Y-22088000D01*
X30288838Y-22238317D01*
X30427910Y-22454441D01*
X30640110Y-22599431D01*
X30892000Y-22650440D01*
X32692000Y-22650440D01*
X32927317Y-22606162D01*
X33143441Y-22467090D01*
X33288431Y-22254890D01*
X33339440Y-22003000D01*
X33339440Y-20426312D01*
X33592551Y-20173643D01*
X33826733Y-19609670D01*
X33827265Y-18999009D01*
X33632235Y-18527000D01*
X35850000Y-18527000D01*
X35899410Y-18516994D01*
X35941035Y-18488553D01*
X35968315Y-18446159D01*
X35977000Y-18400000D01*
X35977000Y-645000D01*
X42450670Y-645000D01*
X42394628Y-668156D01*
G36*
X9325000Y-25047440D02*
X10021692Y-25047440D01*
X9704132Y-25365000D01*
X6477000Y-25365000D01*
X6477000Y-25035000D01*
X9263569Y-25035000D01*
X9325000Y-25047440D01*
X9325000Y-25047440D01*
G37*
X9325000Y-25047440D02*
X10021692Y-25047440D01*
X9704132Y-25365000D01*
X6477000Y-25365000D01*
X6477000Y-25035000D01*
X9263569Y-25035000D01*
X9325000Y-25047440D01*
G36*
X7904132Y-22365000D02*
X6477000Y-22365000D01*
X6477000Y-21960000D01*
X8250000Y-21960000D01*
X8323815Y-21945317D01*
X7904132Y-22365000D01*
X7904132Y-22365000D01*
G37*
X7904132Y-22365000D02*
X6477000Y-22365000D01*
X6477000Y-21960000D01*
X8250000Y-21960000D01*
X8323815Y-21945317D01*
X7904132Y-22365000D01*
G36*
X30764212Y-18979605D02*
X30656683Y-18999838D01*
X30628458Y-19018000D01*
X28614038Y-19018000D01*
X28595162Y-18917683D01*
X28456090Y-18701559D01*
X28243890Y-18556569D01*
X28097874Y-18527000D01*
X30952150Y-18527000D01*
X30764212Y-18979605D01*
X30764212Y-18979605D01*
G37*
X30764212Y-18979605D02*
X30656683Y-18999838D01*
X30628458Y-19018000D01*
X28614038Y-19018000D01*
X28595162Y-18917683D01*
X28456090Y-18701559D01*
X28243890Y-18556569D01*
X28097874Y-18527000D01*
X30952150Y-18527000D01*
X30764212Y-18979605D01*
M02*
