G04 #@! TF.FileFunction,Legend,Bot*
%FSLAX46Y46*%
G04 Gerber Fmt 4.6, Leading zero omitted, Abs format (unit mm)*
G04 Created by KiCad (PCBNEW 4.0.2-4+6225~38~ubuntu14.04.1-stable) date Tue 19 Apr 2016 03:22:28 PM EDT*
%MOMM*%
G01*
G04 APERTURE LIST*
%ADD10C,0.100000*%
%ADD11C,0.150000*%
G04 APERTURE END LIST*
D10*
D11*
X31359000Y-23651000D02*
X32359000Y-23651000D01*
X32359000Y-25351000D02*
X31359000Y-25351000D01*
D10*
X27353040Y-30858620D02*
X25950960Y-30858620D01*
X27353040Y-30459840D02*
X27353040Y-32258160D01*
X27353040Y-32258160D02*
X25950960Y-32258160D01*
X25950960Y-32258160D02*
X25950960Y-30459840D01*
X25950960Y-30459840D02*
X27353040Y-30459840D01*
D11*
X31386000Y-22836000D02*
X32586000Y-22836000D01*
X32586000Y-21086000D02*
X31386000Y-21086000D01*
X32522500Y-25848500D02*
X31322500Y-25848500D01*
X31322500Y-27598500D02*
X32522500Y-27598500D01*
X45313000Y-35638000D02*
X44313000Y-35638000D01*
X44313000Y-33938000D02*
X45313000Y-33938000D01*
X24882000Y-33430000D02*
X25882000Y-33430000D01*
X25882000Y-35130000D02*
X24882000Y-35130000D01*
X25882000Y-37289000D02*
X24882000Y-37289000D01*
X24882000Y-35589000D02*
X25882000Y-35589000D01*
X41630000Y-22938000D02*
X40630000Y-22938000D01*
X40630000Y-21238000D02*
X41630000Y-21238000D01*
X37865200Y-21537200D02*
X37865200Y-22537200D01*
X36165200Y-22537200D02*
X36165200Y-21537200D01*
X43339800Y-16715900D02*
X40545800Y-16715900D01*
X43339800Y-16144400D02*
X43339800Y-19700400D01*
X43339800Y-19700400D02*
X40545800Y-19700400D01*
X40545800Y-19700400D02*
X40545800Y-16144400D01*
X40545800Y-16144400D02*
X43339800Y-16144400D01*
X21988000Y-29059000D02*
X23188000Y-29059000D01*
X23188000Y-27309000D02*
X21988000Y-27309000D01*
X25548000Y-43797000D02*
X25548000Y-42797000D01*
X27248000Y-42797000D02*
X27248000Y-43797000D01*
X45511500Y-25517000D02*
X45511500Y-25136000D01*
X45511500Y-26533000D02*
X45511500Y-26152000D01*
X45511500Y-26152000D02*
X45892500Y-25517000D01*
X45892500Y-25517000D02*
X45130500Y-25517000D01*
X45130500Y-25517000D02*
X45511500Y-26152000D01*
X46019500Y-26152000D02*
X45003500Y-26152000D01*
X44611500Y-27834500D02*
X44611500Y-24294500D01*
X46411500Y-27834500D02*
X46411500Y-24294500D01*
X38727160Y-25204580D02*
X38427440Y-25453500D01*
X38427440Y-25453500D02*
X38277580Y-25555100D01*
X38277580Y-25555100D02*
X39125940Y-25555100D01*
X37226020Y-24854060D02*
X39026880Y-24854060D01*
X37226020Y-24854060D02*
X37226020Y-25504300D01*
X37226020Y-29354940D02*
X39026880Y-29354940D01*
X37226020Y-29354940D02*
X37226020Y-28704700D01*
X43910000Y-26434500D02*
X43910000Y-25234500D01*
X42160000Y-25234500D02*
X42160000Y-26434500D01*
X32025666Y-22758143D02*
X32073285Y-22805762D01*
X32216142Y-22853381D01*
X32311380Y-22853381D01*
X32454238Y-22805762D01*
X32549476Y-22710524D01*
X32597095Y-22615286D01*
X32644714Y-22424810D01*
X32644714Y-22281952D01*
X32597095Y-22091476D01*
X32549476Y-21996238D01*
X32454238Y-21901000D01*
X32311380Y-21853381D01*
X32216142Y-21853381D01*
X32073285Y-21901000D01*
X32025666Y-21948619D01*
X31692333Y-21853381D02*
X31025666Y-21853381D01*
X31454238Y-22853381D01*
D10*
X7100000Y-29316667D02*
X7133333Y-29283333D01*
X7166667Y-29183333D01*
X7166667Y-29116667D01*
X7133333Y-29016667D01*
X7066667Y-28950000D01*
X7000000Y-28916667D01*
X6866667Y-28883333D01*
X6766667Y-28883333D01*
X6633333Y-28916667D01*
X6566667Y-28950000D01*
X6500000Y-29016667D01*
X6466667Y-29116667D01*
X6466667Y-29183333D01*
X6500000Y-29283333D01*
X6533333Y-29316667D01*
X7166667Y-29616667D02*
X6466667Y-29616667D01*
X7166667Y-30016667D01*
X6466667Y-30016667D01*
X7166667Y-30716666D02*
X7166667Y-30316666D01*
X7166667Y-30516666D02*
X6466667Y-30516666D01*
X6566667Y-30450000D01*
X6633333Y-30383333D01*
X6666667Y-30316666D01*
X25718666Y-31725667D02*
X25718666Y-31025667D01*
X25552000Y-31025667D01*
X25452000Y-31059000D01*
X25385333Y-31125667D01*
X25352000Y-31192333D01*
X25318666Y-31325667D01*
X25318666Y-31425667D01*
X25352000Y-31559000D01*
X25385333Y-31625667D01*
X25452000Y-31692333D01*
X25552000Y-31725667D01*
X25718666Y-31725667D01*
X24652000Y-31725667D02*
X25052000Y-31725667D01*
X24852000Y-31725667D02*
X24852000Y-31025667D01*
X24918666Y-31125667D01*
X24985333Y-31192333D01*
X25052000Y-31225667D01*
D11*
X32628857Y-20313381D02*
X32962191Y-19837190D01*
X33200286Y-20313381D02*
X33200286Y-19313381D01*
X32819333Y-19313381D01*
X32724095Y-19361000D01*
X32676476Y-19408619D01*
X32628857Y-19503857D01*
X32628857Y-19646714D01*
X32676476Y-19741952D01*
X32724095Y-19789571D01*
X32819333Y-19837190D01*
X33200286Y-19837190D01*
X31676476Y-20313381D02*
X32247905Y-20313381D01*
X31962191Y-20313381D02*
X31962191Y-19313381D01*
X32057429Y-19456238D01*
X32152667Y-19551476D01*
X32247905Y-19599095D01*
X31057429Y-19313381D02*
X30962190Y-19313381D01*
X30866952Y-19361000D01*
X30819333Y-19408619D01*
X30771714Y-19503857D01*
X30724095Y-19694333D01*
X30724095Y-19932429D01*
X30771714Y-20122905D01*
X30819333Y-20218143D01*
X30866952Y-20265762D01*
X30962190Y-20313381D01*
X31057429Y-20313381D01*
X31152667Y-20265762D01*
X31200286Y-20218143D01*
X31247905Y-20122905D01*
X31295524Y-19932429D01*
X31295524Y-19694333D01*
X31247905Y-19503857D01*
X31200286Y-19408619D01*
X31152667Y-19361000D01*
X31057429Y-19313381D01*
X32565357Y-29275881D02*
X32898691Y-28799690D01*
X33136786Y-29275881D02*
X33136786Y-28275881D01*
X32755833Y-28275881D01*
X32660595Y-28323500D01*
X32612976Y-28371119D01*
X32565357Y-28466357D01*
X32565357Y-28609214D01*
X32612976Y-28704452D01*
X32660595Y-28752071D01*
X32755833Y-28799690D01*
X33136786Y-28799690D01*
X31612976Y-29275881D02*
X32184405Y-29275881D01*
X31898691Y-29275881D02*
X31898691Y-28275881D01*
X31993929Y-28418738D01*
X32089167Y-28513976D01*
X32184405Y-28561595D01*
X30708214Y-28275881D02*
X31184405Y-28275881D01*
X31232024Y-28752071D01*
X31184405Y-28704452D01*
X31089167Y-28656833D01*
X30851071Y-28656833D01*
X30755833Y-28704452D01*
X30708214Y-28752071D01*
X30660595Y-28847310D01*
X30660595Y-29085405D01*
X30708214Y-29180643D01*
X30755833Y-29228262D01*
X30851071Y-29275881D01*
X31089167Y-29275881D01*
X31184405Y-29228262D01*
X31232024Y-29180643D01*
X44979666Y-37245143D02*
X45027285Y-37292762D01*
X45170142Y-37340381D01*
X45265380Y-37340381D01*
X45408238Y-37292762D01*
X45503476Y-37197524D01*
X45551095Y-37102286D01*
X45598714Y-36911810D01*
X45598714Y-36768952D01*
X45551095Y-36578476D01*
X45503476Y-36483238D01*
X45408238Y-36388000D01*
X45265380Y-36340381D01*
X45170142Y-36340381D01*
X45027285Y-36388000D01*
X44979666Y-36435619D01*
X44408238Y-36768952D02*
X44503476Y-36721333D01*
X44551095Y-36673714D01*
X44598714Y-36578476D01*
X44598714Y-36530857D01*
X44551095Y-36435619D01*
X44503476Y-36388000D01*
X44408238Y-36340381D01*
X44217761Y-36340381D01*
X44122523Y-36388000D01*
X44074904Y-36435619D01*
X44027285Y-36530857D01*
X44027285Y-36578476D01*
X44074904Y-36673714D01*
X44122523Y-36721333D01*
X44217761Y-36768952D01*
X44408238Y-36768952D01*
X44503476Y-36816571D01*
X44551095Y-36864190D01*
X44598714Y-36959429D01*
X44598714Y-37149905D01*
X44551095Y-37245143D01*
X44503476Y-37292762D01*
X44408238Y-37340381D01*
X44217761Y-37340381D01*
X44122523Y-37292762D01*
X44074904Y-37245143D01*
X44027285Y-37149905D01*
X44027285Y-36959429D01*
X44074904Y-36864190D01*
X44122523Y-36816571D01*
X44217761Y-36768952D01*
X25548666Y-32537143D02*
X25596285Y-32584762D01*
X25739142Y-32632381D01*
X25834380Y-32632381D01*
X25977238Y-32584762D01*
X26072476Y-32489524D01*
X26120095Y-32394286D01*
X26167714Y-32203810D01*
X26167714Y-32060952D01*
X26120095Y-31870476D01*
X26072476Y-31775238D01*
X25977238Y-31680000D01*
X25834380Y-31632381D01*
X25739142Y-31632381D01*
X25596285Y-31680000D01*
X25548666Y-31727619D01*
X25072476Y-32632381D02*
X24882000Y-32632381D01*
X24786761Y-32584762D01*
X24739142Y-32537143D01*
X24643904Y-32394286D01*
X24596285Y-32203810D01*
X24596285Y-31822857D01*
X24643904Y-31727619D01*
X24691523Y-31680000D01*
X24786761Y-31632381D01*
X24977238Y-31632381D01*
X25072476Y-31680000D01*
X25120095Y-31727619D01*
X25167714Y-31822857D01*
X25167714Y-32060952D01*
X25120095Y-32156190D01*
X25072476Y-32203810D01*
X24977238Y-32251429D01*
X24786761Y-32251429D01*
X24691523Y-32203810D01*
X24643904Y-32156190D01*
X24596285Y-32060952D01*
X26024857Y-38896143D02*
X26072476Y-38943762D01*
X26215333Y-38991381D01*
X26310571Y-38991381D01*
X26453429Y-38943762D01*
X26548667Y-38848524D01*
X26596286Y-38753286D01*
X26643905Y-38562810D01*
X26643905Y-38419952D01*
X26596286Y-38229476D01*
X26548667Y-38134238D01*
X26453429Y-38039000D01*
X26310571Y-37991381D01*
X26215333Y-37991381D01*
X26072476Y-38039000D01*
X26024857Y-38086619D01*
X25072476Y-38991381D02*
X25643905Y-38991381D01*
X25358191Y-38991381D02*
X25358191Y-37991381D01*
X25453429Y-38134238D01*
X25548667Y-38229476D01*
X25643905Y-38277095D01*
X24453429Y-37991381D02*
X24358190Y-37991381D01*
X24262952Y-38039000D01*
X24215333Y-38086619D01*
X24167714Y-38181857D01*
X24120095Y-38372333D01*
X24120095Y-38610429D01*
X24167714Y-38800905D01*
X24215333Y-38896143D01*
X24262952Y-38943762D01*
X24358190Y-38991381D01*
X24453429Y-38991381D01*
X24548667Y-38943762D01*
X24596286Y-38896143D01*
X24643905Y-38800905D01*
X24691524Y-38610429D01*
X24691524Y-38372333D01*
X24643905Y-38181857D01*
X24596286Y-38086619D01*
X24548667Y-38039000D01*
X24453429Y-37991381D01*
X41772857Y-24545143D02*
X41820476Y-24592762D01*
X41963333Y-24640381D01*
X42058571Y-24640381D01*
X42201429Y-24592762D01*
X42296667Y-24497524D01*
X42344286Y-24402286D01*
X42391905Y-24211810D01*
X42391905Y-24068952D01*
X42344286Y-23878476D01*
X42296667Y-23783238D01*
X42201429Y-23688000D01*
X42058571Y-23640381D01*
X41963333Y-23640381D01*
X41820476Y-23688000D01*
X41772857Y-23735619D01*
X40820476Y-24640381D02*
X41391905Y-24640381D01*
X41106191Y-24640381D02*
X41106191Y-23640381D01*
X41201429Y-23783238D01*
X41296667Y-23878476D01*
X41391905Y-23926095D01*
X40439524Y-23735619D02*
X40391905Y-23688000D01*
X40296667Y-23640381D01*
X40058571Y-23640381D01*
X39963333Y-23688000D01*
X39915714Y-23735619D01*
X39868095Y-23830857D01*
X39868095Y-23926095D01*
X39915714Y-24068952D01*
X40487143Y-24640381D01*
X39868095Y-24640381D01*
X39043771Y-21203867D02*
X39043771Y-20870533D01*
X39567581Y-20870533D02*
X38567581Y-20870533D01*
X38567581Y-21346724D01*
X39043771Y-22061010D02*
X39091390Y-22203867D01*
X39139010Y-22251486D01*
X39234248Y-22299105D01*
X39377105Y-22299105D01*
X39472343Y-22251486D01*
X39519962Y-22203867D01*
X39567581Y-22108629D01*
X39567581Y-21727676D01*
X38567581Y-21727676D01*
X38567581Y-22061010D01*
X38615200Y-22156248D01*
X38662819Y-22203867D01*
X38758057Y-22251486D01*
X38853295Y-22251486D01*
X38948533Y-22203867D01*
X38996152Y-22156248D01*
X39043771Y-22061010D01*
X39043771Y-21727676D01*
X38662819Y-22680057D02*
X38615200Y-22727676D01*
X38567581Y-22822914D01*
X38567581Y-23061010D01*
X38615200Y-23156248D01*
X38662819Y-23203867D01*
X38758057Y-23251486D01*
X38853295Y-23251486D01*
X38996152Y-23203867D01*
X39567581Y-22632438D01*
X39567581Y-23251486D01*
X44268443Y-17279543D02*
X44316062Y-17231924D01*
X44363681Y-17089067D01*
X44363681Y-16993829D01*
X44316062Y-16850971D01*
X44220824Y-16755733D01*
X44125586Y-16708114D01*
X43935110Y-16660495D01*
X43792252Y-16660495D01*
X43601776Y-16708114D01*
X43506538Y-16755733D01*
X43411300Y-16850971D01*
X43363681Y-16993829D01*
X43363681Y-17089067D01*
X43411300Y-17231924D01*
X43458919Y-17279543D01*
X44363681Y-18231924D02*
X44363681Y-17660495D01*
X44363681Y-17946209D02*
X43363681Y-17946209D01*
X43506538Y-17850971D01*
X43601776Y-17755733D01*
X43649395Y-17660495D01*
X43363681Y-18565257D02*
X43363681Y-19184305D01*
X43744633Y-18850971D01*
X43744633Y-18993829D01*
X43792252Y-19089067D01*
X43839871Y-19136686D01*
X43935110Y-19184305D01*
X44173205Y-19184305D01*
X44268443Y-19136686D01*
X44316062Y-19089067D01*
X44363681Y-18993829D01*
X44363681Y-18708114D01*
X44316062Y-18612876D01*
X44268443Y-18565257D01*
X22754666Y-26536381D02*
X23088000Y-26060190D01*
X23326095Y-26536381D02*
X23326095Y-25536381D01*
X22945142Y-25536381D01*
X22849904Y-25584000D01*
X22802285Y-25631619D01*
X22754666Y-25726857D01*
X22754666Y-25869714D01*
X22802285Y-25964952D01*
X22849904Y-26012571D01*
X22945142Y-26060190D01*
X23326095Y-26060190D01*
X22421333Y-25536381D02*
X21802285Y-25536381D01*
X22135619Y-25917333D01*
X21992761Y-25917333D01*
X21897523Y-25964952D01*
X21849904Y-26012571D01*
X21802285Y-26107810D01*
X21802285Y-26345905D01*
X21849904Y-26441143D01*
X21897523Y-26488762D01*
X21992761Y-26536381D01*
X22278476Y-26536381D01*
X22373714Y-26488762D01*
X22421333Y-26441143D01*
X24655143Y-42654143D02*
X24702762Y-42606524D01*
X24750381Y-42463667D01*
X24750381Y-42368429D01*
X24702762Y-42225571D01*
X24607524Y-42130333D01*
X24512286Y-42082714D01*
X24321810Y-42035095D01*
X24178952Y-42035095D01*
X23988476Y-42082714D01*
X23893238Y-42130333D01*
X23798000Y-42225571D01*
X23750381Y-42368429D01*
X23750381Y-42463667D01*
X23798000Y-42606524D01*
X23845619Y-42654143D01*
X24750381Y-43606524D02*
X24750381Y-43035095D01*
X24750381Y-43320809D02*
X23750381Y-43320809D01*
X23893238Y-43225571D01*
X23988476Y-43130333D01*
X24036095Y-43035095D01*
X24083714Y-44463667D02*
X24750381Y-44463667D01*
X23702762Y-44225571D02*
X24417048Y-43987476D01*
X24417048Y-44606524D01*
X47963881Y-25096405D02*
X46963881Y-25096405D01*
X46963881Y-25334500D01*
X47011500Y-25477358D01*
X47106738Y-25572596D01*
X47201976Y-25620215D01*
X47392452Y-25667834D01*
X47535310Y-25667834D01*
X47725786Y-25620215D01*
X47821024Y-25572596D01*
X47916262Y-25477358D01*
X47963881Y-25334500D01*
X47963881Y-25096405D01*
X47059119Y-26048786D02*
X47011500Y-26096405D01*
X46963881Y-26191643D01*
X46963881Y-26429739D01*
X47011500Y-26524977D01*
X47059119Y-26572596D01*
X47154357Y-26620215D01*
X47249595Y-26620215D01*
X47392452Y-26572596D01*
X47963881Y-26001167D01*
X47963881Y-26620215D01*
X34824699Y-26910202D02*
X34777080Y-26814964D01*
X34681842Y-26719726D01*
X34538985Y-26576869D01*
X34491366Y-26481630D01*
X34491366Y-26386392D01*
X34729461Y-26434011D02*
X34681842Y-26338773D01*
X34586604Y-26243535D01*
X34396128Y-26195916D01*
X34062794Y-26195916D01*
X33872318Y-26243535D01*
X33777080Y-26338773D01*
X33729461Y-26434011D01*
X33729461Y-26624488D01*
X33777080Y-26719726D01*
X33872318Y-26814964D01*
X34062794Y-26862583D01*
X34396128Y-26862583D01*
X34586604Y-26814964D01*
X34681842Y-26719726D01*
X34729461Y-26624488D01*
X34729461Y-26434011D01*
X34729461Y-27814964D02*
X34729461Y-27243535D01*
X34729461Y-27529249D02*
X33729461Y-27529249D01*
X33872318Y-27434011D01*
X33967556Y-27338773D01*
X34015175Y-27243535D01*
X41387381Y-25667834D02*
X40911190Y-25334500D01*
X41387381Y-25096405D02*
X40387381Y-25096405D01*
X40387381Y-25477358D01*
X40435000Y-25572596D01*
X40482619Y-25620215D01*
X40577857Y-25667834D01*
X40720714Y-25667834D01*
X40815952Y-25620215D01*
X40863571Y-25572596D01*
X40911190Y-25477358D01*
X40911190Y-25096405D01*
X40720714Y-26524977D02*
X41387381Y-26524977D01*
X40339762Y-26286881D02*
X41054048Y-26048786D01*
X41054048Y-26667834D01*
M02*
