G04 #@! TF.FileFunction,Copper,L2,Bot,Signal*
%FSLAX46Y46*%
G04 Gerber Fmt 4.6, Leading zero omitted, Abs format (unit mm)*
G04 Created by KiCad (PCBNEW 4.0.2-4+6225~38~ubuntu14.04.1-stable) date Tue 19 Apr 2016 03:22:28 PM EDT*
%MOMM*%
G01*
G04 APERTURE LIST*
%ADD10C,0.100000*%
%ADD11R,1.500000X1.250000*%
%ADD12R,1.800000X1.800000*%
%ADD13C,1.800000*%
%ADD14R,4.200000X0.700000*%
%ADD15R,0.599440X1.000760*%
%ADD16R,1.500000X1.300000*%
%ADD17C,1.143000*%
%ADD18R,1.250000X1.500000*%
%ADD19O,3.014980X1.506220*%
%ADD20R,3.960000X7.543800*%
%ADD21C,2.032000*%
%ADD22R,2.499360X1.950720*%
%ADD23C,1.651000*%
%ADD24C,1.501140*%
%ADD25R,1.220000X0.910000*%
%ADD26R,1.501140X1.000760*%
%ADD27R,2.999740X1.998980*%
%ADD28R,1.300000X1.500000*%
%ADD29R,2.489200X2.997200*%
%ADD30C,6.350000*%
%ADD31C,1.016000*%
%ADD32C,0.400000*%
%ADD33C,0.780000*%
%ADD34C,1.000000*%
%ADD35C,0.250000*%
%ADD36C,0.254000*%
G04 APERTURE END LIST*
D10*
D11*
X33109000Y-24501000D03*
X30609000Y-24501000D03*
D12*
X47480000Y-10404000D03*
D13*
X44940000Y-10404000D03*
X42400000Y-10404000D03*
X39860000Y-10404000D03*
X37320000Y-10404000D03*
X34780000Y-10404000D03*
X47480000Y-12944000D03*
X44940000Y-12944000D03*
X42400000Y-12944000D03*
X39860000Y-12944000D03*
X37320000Y-12944000D03*
X34780000Y-12944000D03*
X32240000Y-12944000D03*
X32240000Y-10404000D03*
D14*
X3550000Y-31200000D03*
X3550000Y-30200000D03*
X3550000Y-29200000D03*
X3550000Y-28200000D03*
X3550000Y-27200000D03*
X3550000Y-26200000D03*
X3550000Y-25200000D03*
X3550000Y-24200000D03*
X3550000Y-23200000D03*
X3550000Y-22200000D03*
X3550000Y-21200000D03*
X3550000Y-18200000D03*
X3550000Y-17200000D03*
X3550000Y-16200000D03*
X3550000Y-15200000D03*
X3550000Y-14200000D03*
X3550000Y-13200000D03*
X3550000Y-12200000D03*
D15*
X26652000Y-30259180D03*
X26652000Y-32458820D03*
D16*
X33336000Y-21961000D03*
X30636000Y-21961000D03*
X30572500Y-26723500D03*
X33272500Y-26723500D03*
D11*
X43563000Y-34788000D03*
X46063000Y-34788000D03*
X26632000Y-34280000D03*
X24132000Y-34280000D03*
X24132000Y-36439000D03*
X26632000Y-36439000D03*
X39880000Y-22088000D03*
X42380000Y-22088000D03*
D17*
X36685000Y-40122000D03*
X22080000Y-40122000D03*
X19286000Y-40884000D03*
X34018000Y-40122000D03*
X14841000Y-17389000D03*
D18*
X37015200Y-23287200D03*
X37015200Y-20787200D03*
D19*
X45600400Y-19395600D03*
X45600400Y-16855600D03*
D13*
X28430000Y-48567500D03*
X38590000Y-48567500D03*
D20*
X37130000Y-45925900D03*
X29890000Y-45925900D03*
D21*
X30970000Y-48567500D03*
X36050000Y-48567500D03*
D13*
X33510000Y-48567500D03*
D21*
X36050000Y-43487500D03*
X30970000Y-43487500D03*
X33510000Y-46027500D03*
D13*
X14206000Y-48567500D03*
X24366000Y-48567500D03*
D20*
X22906000Y-45925900D03*
X15666000Y-45925900D03*
D21*
X16746000Y-48567500D03*
X21826000Y-48567500D03*
D13*
X19286000Y-48567500D03*
D21*
X21826000Y-43487500D03*
X16746000Y-43487500D03*
X19286000Y-46027500D03*
D22*
X41942800Y-16398400D03*
X41942800Y-19446400D03*
D16*
X23938000Y-28184000D03*
X21238000Y-28184000D03*
D18*
X26398000Y-42047000D03*
X26398000Y-44547000D03*
D23*
X34653000Y-36312000D03*
X34653000Y-33772000D03*
X34653000Y-31232000D03*
X32113000Y-31232000D03*
X32113000Y-36312000D03*
D24*
X40368000Y-41265000D03*
D25*
X45511500Y-27469500D03*
X45511500Y-24199500D03*
D26*
X40378160Y-25603360D03*
X40378160Y-27104500D03*
X40378160Y-28605640D03*
D27*
X37426680Y-27104500D03*
D10*
G36*
X39650450Y-27604880D02*
X38901150Y-28105260D01*
X38901150Y-26103740D01*
X39650450Y-26604120D01*
X39650450Y-27604880D01*
X39650450Y-27604880D01*
G37*
D28*
X43035000Y-24484500D03*
X43035000Y-27184500D03*
D29*
X43797000Y-31232000D03*
D30*
X46049980Y-3899060D03*
X46049980Y-45999560D03*
D31*
X23223000Y-19675000D03*
X29954000Y-19167000D03*
X18524000Y-30216000D03*
D23*
X16492000Y-32375000D03*
D31*
X13952000Y-32375000D03*
D23*
X11412000Y-32375000D03*
X11412000Y-34915000D03*
X16492000Y-34915000D03*
D31*
X26144000Y-39868000D03*
X25636000Y-15992000D03*
X6850000Y-25200000D03*
X6840000Y-28184000D03*
X6850000Y-22200000D03*
X33129000Y-23231000D03*
X30970000Y-40122000D03*
X19540000Y-12740800D03*
X28938000Y-13579000D03*
X21191000Y-17516000D03*
X44813000Y-39360000D03*
X38971000Y-39360000D03*
X40622000Y-34534000D03*
X24112000Y-32629000D03*
D32*
X23985000Y-28184000D02*
X25636000Y-26533000D01*
X23938000Y-28184000D02*
X23985000Y-28184000D01*
X26144000Y-39868000D02*
X28684000Y-37328000D01*
X25636000Y-26533000D02*
X25636000Y-15992000D01*
X28684000Y-29581000D02*
X25636000Y-26533000D01*
X28684000Y-37328000D02*
X28684000Y-29581000D01*
D33*
X32260000Y-31085000D02*
X32113000Y-31232000D01*
X32260000Y-28692000D02*
X32260000Y-31085000D01*
X22906000Y-45925900D02*
X22803900Y-45925900D01*
X22803900Y-45925900D02*
X20429000Y-43551000D01*
X18040900Y-43551000D02*
X15666000Y-45925900D01*
X20429000Y-43551000D02*
X18040900Y-43551000D01*
X37130000Y-45925900D02*
X37130000Y-45901000D01*
X37130000Y-45901000D02*
X34272000Y-43043000D01*
X34272000Y-43043000D02*
X32772900Y-43043000D01*
X32772900Y-43043000D02*
X29890000Y-45925900D01*
D34*
X26448800Y-45760800D02*
X23071100Y-45760800D01*
X23071100Y-45760800D02*
X22906000Y-45925900D01*
X26448800Y-45760800D02*
X29724900Y-45760800D01*
X29724900Y-45760800D02*
X29890000Y-45925900D01*
D32*
X3550000Y-31200000D02*
X7050000Y-31200000D01*
X7050000Y-31200000D02*
X7550000Y-30700000D01*
X3550000Y-25200000D02*
X6650000Y-25200000D01*
X3550000Y-29200000D02*
X6600000Y-29200000D01*
X3550000Y-28200000D02*
X6650000Y-28200000D01*
X3550000Y-27200000D02*
X6650000Y-27200000D01*
X3550000Y-26200000D02*
X6650000Y-26200000D01*
X3550000Y-24200000D02*
X6600000Y-24200000D01*
X6600000Y-24200000D02*
X6650000Y-24150000D01*
X3550000Y-23200000D02*
X6700000Y-23200000D01*
X3550000Y-22200000D02*
X6700000Y-22200000D01*
X3550000Y-30200000D02*
X6600000Y-30200000D01*
D34*
X41688800Y-19421000D02*
X41231600Y-18963800D01*
D35*
X33336000Y-21961000D02*
X33336000Y-23024000D01*
X33336000Y-23024000D02*
X33129000Y-23231000D01*
X33109000Y-24501000D02*
X33109000Y-23251000D01*
X33109000Y-23251000D02*
X33129000Y-23231000D01*
X30572500Y-26723500D02*
X30886500Y-26723500D01*
X30886500Y-26723500D02*
X33109000Y-24501000D01*
D32*
X30572500Y-26723500D02*
X30572500Y-26529500D01*
X26632000Y-34280000D02*
X26632000Y-32478820D01*
X26632000Y-32478820D02*
X26652000Y-32458820D01*
X26632000Y-36439000D02*
X26632000Y-34280000D01*
D33*
X7297200Y-16804800D02*
X14256800Y-16804800D01*
X14256800Y-16804800D02*
X14841000Y-17389000D01*
D32*
X3550000Y-17200000D02*
X6902000Y-17200000D01*
X6902000Y-17200000D02*
X7297200Y-16804800D01*
X7297200Y-16804800D02*
X7348000Y-16754000D01*
X3550000Y-16200000D02*
X6794000Y-16200000D01*
X6794000Y-16200000D02*
X7348000Y-16754000D01*
X26906000Y-26406000D02*
X26906000Y-10404000D01*
X29573000Y-29073000D02*
X26906000Y-26406000D01*
X29573000Y-37582000D02*
X29573000Y-29073000D01*
X30970000Y-38979000D02*
X29573000Y-37582000D01*
X30970000Y-40122000D02*
X30970000Y-38979000D01*
X26398000Y-42047000D02*
X26759000Y-42047000D01*
X26759000Y-42047000D02*
X27541000Y-41265000D01*
X27541000Y-41265000D02*
X29827000Y-41265000D01*
X29827000Y-41265000D02*
X30970000Y-40122000D01*
D33*
X26906000Y-10404000D02*
X32240000Y-10404000D01*
D32*
X3550000Y-15200000D02*
X6616000Y-15200000D01*
X3550000Y-14200000D02*
X6572000Y-14200000D01*
D33*
X7094000Y-14722000D02*
X22435600Y-14722000D01*
X22435600Y-14722000D02*
X26753600Y-10404000D01*
X26753600Y-10404000D02*
X26906000Y-10404000D01*
D32*
X6616000Y-15200000D02*
X7094000Y-14722000D01*
X6572000Y-14200000D02*
X7094000Y-14722000D01*
D35*
X47480000Y-12944000D02*
X47353000Y-12944000D01*
X47353000Y-12944000D02*
X46210000Y-11801000D01*
X46210000Y-11801000D02*
X46210000Y-8372000D01*
X44940000Y-12944000D02*
X43670000Y-11674000D01*
X43670000Y-11674000D02*
X43670000Y-8118000D01*
X42400000Y-12944000D02*
X41130000Y-11674000D01*
X41130000Y-11674000D02*
X41130000Y-7991000D01*
D33*
X6537600Y-12687600D02*
X11943000Y-12687600D01*
X11943000Y-12687600D02*
X11945400Y-12690000D01*
D32*
X6050000Y-12200000D02*
X6537600Y-12687600D01*
X6537600Y-12687600D02*
X6550000Y-12700000D01*
X6050000Y-13200000D02*
X6550000Y-12700000D01*
X3550000Y-12200000D02*
X6050000Y-12200000D01*
X3550000Y-13200000D02*
X6050000Y-13200000D01*
X39860000Y-14468000D02*
X39860000Y-12944000D01*
X39225000Y-15103000D02*
X39860000Y-14468000D01*
X30462000Y-15103000D02*
X39225000Y-15103000D01*
X28938000Y-13579000D02*
X30462000Y-15103000D01*
D33*
X37015200Y-20787200D02*
X37015200Y-17820800D01*
X38437600Y-16398400D02*
X41942800Y-16398400D01*
X37015200Y-17820800D02*
X38437600Y-16398400D01*
X45600400Y-16855600D02*
X42400000Y-16855600D01*
X42400000Y-16855600D02*
X41942800Y-16398400D01*
D34*
X14206000Y-20056000D02*
X18625600Y-20056000D01*
X9380000Y-20056000D02*
X14206000Y-20056000D01*
X18625600Y-20056000D02*
X21191000Y-17516000D01*
D32*
X9126000Y-20056000D02*
X9126000Y-19040000D01*
X8286000Y-18200000D02*
X9126000Y-19040000D01*
X8286000Y-18200000D02*
X3550000Y-18200000D01*
X9126000Y-20056000D02*
X9126000Y-19802000D01*
X9126000Y-19802000D02*
X9126000Y-20056000D01*
X8236000Y-21200000D02*
X9253000Y-20183000D01*
X3550000Y-21200000D02*
X8236000Y-21200000D01*
D34*
X9380000Y-20056000D02*
X9126000Y-20056000D01*
X9126000Y-20056000D02*
X9126000Y-20056000D01*
D32*
X9253000Y-20183000D02*
X9380000Y-20056000D01*
X38971000Y-39360000D02*
X44813000Y-39360000D01*
X24132000Y-36439000D02*
X24132000Y-39340000D01*
X23350000Y-40122000D02*
X22080000Y-40122000D01*
X24132000Y-39340000D02*
X23350000Y-40122000D01*
X40378160Y-28605640D02*
X40378160Y-34290160D01*
X40378160Y-34290160D02*
X40622000Y-34534000D01*
X33272500Y-26723500D02*
X33272500Y-26803500D01*
X33272500Y-26803500D02*
X35074640Y-28605640D01*
X35074640Y-28605640D02*
X40378160Y-28605640D01*
X40876000Y-34788000D02*
X43563000Y-34788000D01*
X40622000Y-34534000D02*
X40876000Y-34788000D01*
X39275800Y-27104500D02*
X42955000Y-27104500D01*
X42955000Y-27104500D02*
X43035000Y-27184500D01*
X40378160Y-27104500D02*
X37426680Y-27104500D01*
X40378160Y-27104500D02*
X42955000Y-27104500D01*
X42955000Y-27104500D02*
X43035000Y-27184500D01*
X37015200Y-23287200D02*
X37015200Y-26693020D01*
X37015200Y-26693020D02*
X37426680Y-27104500D01*
X37015200Y-23287200D02*
X38680800Y-23287200D01*
X38680800Y-23287200D02*
X39880000Y-22088000D01*
X37032800Y-23304800D02*
X37015200Y-23287200D01*
X43035000Y-24484500D02*
X43399500Y-24484500D01*
X43399500Y-24484500D02*
X44305000Y-25390000D01*
X44305000Y-26263000D02*
X45511500Y-27469500D01*
X44305000Y-25390000D02*
X44305000Y-26263000D01*
X40378160Y-25603360D02*
X40378160Y-25252840D01*
X40378160Y-25252840D02*
X41146500Y-24484500D01*
X41146500Y-24484500D02*
X43035000Y-24484500D01*
X24132000Y-34280000D02*
X24132000Y-32649000D01*
X24132000Y-32649000D02*
X24112000Y-32629000D01*
D36*
G36*
X24801000Y-26187132D02*
X24101572Y-26886560D01*
X23188000Y-26886560D01*
X22952683Y-26930838D01*
X22736559Y-27069910D01*
X22591569Y-27282110D01*
X22584809Y-27315490D01*
X22526327Y-27174301D01*
X22347698Y-26995673D01*
X22114309Y-26899000D01*
X21523750Y-26899000D01*
X21365000Y-27057750D01*
X21365000Y-28057000D01*
X21385000Y-28057000D01*
X21385000Y-28311000D01*
X21365000Y-28311000D01*
X21365000Y-29310250D01*
X21523750Y-29469000D01*
X22114309Y-29469000D01*
X22347698Y-29372327D01*
X22526327Y-29193699D01*
X22582654Y-29057713D01*
X22584838Y-29069317D01*
X22723910Y-29285441D01*
X22936110Y-29430431D01*
X23188000Y-29481440D01*
X24688000Y-29481440D01*
X24923317Y-29437162D01*
X25139441Y-29298090D01*
X25284431Y-29085890D01*
X25335440Y-28834000D01*
X25335440Y-28014428D01*
X25636000Y-27713868D01*
X27045932Y-29123800D01*
X26937750Y-29123800D01*
X26779000Y-29282550D01*
X26779000Y-30132180D01*
X27427970Y-30132180D01*
X27586720Y-29973430D01*
X27586720Y-29664588D01*
X27849000Y-29926868D01*
X27849000Y-33208081D01*
X27846090Y-33203559D01*
X27633890Y-33058569D01*
X27581198Y-33047899D01*
X27599160Y-32959200D01*
X27599160Y-31958440D01*
X27554882Y-31723123D01*
X27415810Y-31506999D01*
X27203610Y-31362009D01*
X27172046Y-31355617D01*
X27311419Y-31297887D01*
X27490047Y-31119258D01*
X27586720Y-30885869D01*
X27586720Y-30544930D01*
X27427970Y-30386180D01*
X26779000Y-30386180D01*
X26779000Y-30406180D01*
X26525000Y-30406180D01*
X26525000Y-30386180D01*
X25876030Y-30386180D01*
X25717280Y-30544930D01*
X25717280Y-30885869D01*
X25813953Y-31119258D01*
X25992581Y-31297887D01*
X26126708Y-31353444D01*
X26116963Y-31355278D01*
X25900839Y-31494350D01*
X25755849Y-31706550D01*
X25704840Y-31958440D01*
X25704840Y-32959200D01*
X25719686Y-33038101D01*
X25646683Y-33051838D01*
X25430559Y-33190910D01*
X25382866Y-33260711D01*
X25346090Y-33203559D01*
X25162992Y-33078454D01*
X25254801Y-32857354D01*
X25255198Y-32402641D01*
X25081554Y-31982388D01*
X24760303Y-31660577D01*
X24340354Y-31486199D01*
X23885641Y-31485802D01*
X23465388Y-31659446D01*
X23143577Y-31980697D01*
X22969199Y-32400646D01*
X22968802Y-32855359D01*
X23070295Y-33100992D01*
X22930559Y-33190910D01*
X22785569Y-33403110D01*
X22734560Y-33655000D01*
X22734560Y-34905000D01*
X22778838Y-35140317D01*
X22917910Y-35356441D01*
X22923491Y-35360254D01*
X22785569Y-35562110D01*
X22734560Y-35814000D01*
X22734560Y-37064000D01*
X22778838Y-37299317D01*
X22917910Y-37515441D01*
X23130110Y-37660431D01*
X23297000Y-37694227D01*
X23297000Y-38994132D01*
X23004132Y-39287000D01*
X22951219Y-39287000D01*
X22764320Y-39099775D01*
X22321041Y-38915710D01*
X21841065Y-38915291D01*
X21397465Y-39098582D01*
X21057775Y-39437680D01*
X20873710Y-39880959D01*
X20873291Y-40360935D01*
X21056582Y-40804535D01*
X21395680Y-41144225D01*
X21838959Y-41328290D01*
X22318935Y-41328709D01*
X22762535Y-41145418D01*
X22951282Y-40957000D01*
X23350000Y-40957000D01*
X23669541Y-40893439D01*
X23940434Y-40712434D01*
X24722434Y-39930434D01*
X24764151Y-39868000D01*
X24903439Y-39659541D01*
X24967000Y-39340000D01*
X24967000Y-37695446D01*
X25117317Y-37667162D01*
X25333441Y-37528090D01*
X25381134Y-37458289D01*
X25417910Y-37515441D01*
X25630110Y-37660431D01*
X25882000Y-37711440D01*
X27119692Y-37711440D01*
X26106165Y-38724967D01*
X25917641Y-38724802D01*
X25497388Y-38898446D01*
X25175577Y-39219697D01*
X25001199Y-39639646D01*
X25000802Y-40094359D01*
X25174446Y-40514612D01*
X25425453Y-40766056D01*
X25321559Y-40832910D01*
X25176569Y-41045110D01*
X25125560Y-41297000D01*
X25125560Y-41565910D01*
X25012310Y-41519000D01*
X23191750Y-41519000D01*
X23033000Y-41677750D01*
X23033000Y-42519072D01*
X22990107Y-42502998D01*
X22779000Y-42714105D01*
X22779000Y-42354895D01*
X22810502Y-42323393D01*
X22779000Y-42239328D01*
X22779000Y-41677750D01*
X22620250Y-41519000D01*
X20799690Y-41519000D01*
X20566301Y-41615673D01*
X20387673Y-41794302D01*
X20291000Y-42027691D01*
X20291000Y-42878566D01*
X20164184Y-43219142D01*
X20187986Y-43875519D01*
X20291000Y-44124217D01*
X20291000Y-44697349D01*
X20222437Y-44628666D01*
X19615845Y-44376787D01*
X18959037Y-44376214D01*
X18352005Y-44627034D01*
X18281000Y-44697915D01*
X18281000Y-44096434D01*
X18407816Y-43755858D01*
X18384014Y-43099481D01*
X18281000Y-42850783D01*
X18281000Y-42027691D01*
X18184327Y-41794302D01*
X18005699Y-41615673D01*
X17772310Y-41519000D01*
X15951750Y-41519000D01*
X15793000Y-41677750D01*
X15793000Y-42239328D01*
X15761498Y-42323393D01*
X15793000Y-42354895D01*
X15793000Y-42714105D01*
X15581893Y-42502998D01*
X15539000Y-42519072D01*
X15539000Y-41677750D01*
X15380250Y-41519000D01*
X13559690Y-41519000D01*
X13326301Y-41615673D01*
X13147673Y-41794302D01*
X13051000Y-42027691D01*
X13051000Y-45640150D01*
X13209750Y-45798900D01*
X15539000Y-45798900D01*
X15539000Y-44455928D01*
X15581893Y-44472002D01*
X15793000Y-44260895D01*
X15793000Y-44620105D01*
X15761498Y-44651607D01*
X15793000Y-44735672D01*
X15793000Y-45798900D01*
X15813000Y-45798900D01*
X15813000Y-46052900D01*
X15793000Y-46052900D01*
X15793000Y-46072900D01*
X15539000Y-46072900D01*
X15539000Y-46052900D01*
X13209750Y-46052900D01*
X13051000Y-46211650D01*
X13051000Y-47512672D01*
X13011282Y-47552390D01*
X13051000Y-47592108D01*
X13051000Y-47692159D01*
X12869357Y-47753352D01*
X12659542Y-48326836D01*
X12685161Y-48936960D01*
X12816898Y-49255000D01*
X9095000Y-49255000D01*
X9095000Y-41122935D01*
X18079291Y-41122935D01*
X18262582Y-41566535D01*
X18601680Y-41906225D01*
X19044959Y-42090290D01*
X19524935Y-42090709D01*
X19968535Y-41907418D01*
X20308225Y-41568320D01*
X20492290Y-41125041D01*
X20492709Y-40645065D01*
X20309418Y-40201465D01*
X19970320Y-39861775D01*
X19527041Y-39677710D01*
X19047065Y-39677291D01*
X18603465Y-39860582D01*
X18263775Y-40199680D01*
X18079710Y-40642959D01*
X18079291Y-41122935D01*
X9095000Y-41122935D01*
X9095000Y-32700000D01*
X9087887Y-32664237D01*
X9951247Y-32664237D01*
X10173126Y-33201226D01*
X10583613Y-33612430D01*
X10661579Y-33644804D01*
X10585774Y-33676126D01*
X10174570Y-34086613D01*
X9951754Y-34623214D01*
X9951247Y-35204237D01*
X10173126Y-35741226D01*
X10583613Y-36152430D01*
X11120214Y-36375246D01*
X11701237Y-36375753D01*
X12238226Y-36153874D01*
X12451256Y-35941215D01*
X15645390Y-35941215D01*
X15722656Y-36189976D01*
X16269131Y-36387340D01*
X16849535Y-36360553D01*
X17261344Y-36189976D01*
X17338610Y-35941215D01*
X16492000Y-35094605D01*
X15645390Y-35941215D01*
X12451256Y-35941215D01*
X12649430Y-35743387D01*
X12872246Y-35206786D01*
X12872695Y-34692131D01*
X15019660Y-34692131D01*
X15046447Y-35272535D01*
X15217024Y-35684344D01*
X15465785Y-35761610D01*
X16312395Y-34915000D01*
X16671605Y-34915000D01*
X17518215Y-35761610D01*
X17766976Y-35684344D01*
X17964340Y-35137869D01*
X17937553Y-34557465D01*
X17766976Y-34145656D01*
X17518215Y-34068390D01*
X16671605Y-34915000D01*
X16312395Y-34915000D01*
X15465785Y-34068390D01*
X15217024Y-34145656D01*
X15019660Y-34692131D01*
X12872695Y-34692131D01*
X12872753Y-34625763D01*
X12650874Y-34088774D01*
X12240387Y-33677570D01*
X12162421Y-33645196D01*
X12238226Y-33613874D01*
X12649430Y-33203387D01*
X12853996Y-32710737D01*
X12982446Y-33021612D01*
X13303697Y-33343423D01*
X13723646Y-33517801D01*
X14178359Y-33518198D01*
X14598612Y-33344554D01*
X14920423Y-33023303D01*
X15050336Y-32710437D01*
X15253126Y-33201226D01*
X15663613Y-33612430D01*
X15726366Y-33638487D01*
X15722656Y-33640024D01*
X15645390Y-33888785D01*
X16492000Y-34735395D01*
X17338610Y-33888785D01*
X17261344Y-33640024D01*
X17257926Y-33638789D01*
X17318226Y-33613874D01*
X17729430Y-33203387D01*
X17952246Y-32666786D01*
X17952753Y-32085763D01*
X17730874Y-31548774D01*
X17320387Y-31137570D01*
X17017786Y-31011919D01*
X17907686Y-31011919D01*
X17945824Y-31227856D01*
X18377055Y-31372091D01*
X18830657Y-31340322D01*
X19102176Y-31227856D01*
X19140314Y-31011919D01*
X18524000Y-30395605D01*
X17907686Y-31011919D01*
X17017786Y-31011919D01*
X16783786Y-30914754D01*
X16202763Y-30914247D01*
X15665774Y-31136126D01*
X15254570Y-31546613D01*
X15050004Y-32039263D01*
X14921554Y-31728388D01*
X14600303Y-31406577D01*
X14180354Y-31232199D01*
X13725641Y-31231802D01*
X13305388Y-31405446D01*
X12983577Y-31726697D01*
X12853664Y-32039563D01*
X12650874Y-31548774D01*
X12240387Y-31137570D01*
X11703786Y-30914754D01*
X11122763Y-30914247D01*
X10585774Y-31136126D01*
X10174570Y-31546613D01*
X9951754Y-32083214D01*
X9951247Y-32664237D01*
X9087887Y-32664237D01*
X9082607Y-32637696D01*
X9082607Y-32624167D01*
X9010293Y-32260618D01*
X8913984Y-32028109D01*
X8913983Y-32028108D01*
X8913983Y-32028107D01*
X8708048Y-31719905D01*
X8619071Y-31630929D01*
X8530095Y-31541952D01*
X8221893Y-31336017D01*
X8221891Y-31336016D01*
X7989381Y-31239707D01*
X7625833Y-31167393D01*
X7562305Y-31167393D01*
X7500000Y-31155000D01*
X6477000Y-31155000D01*
X6477000Y-30069055D01*
X17367909Y-30069055D01*
X17399678Y-30522657D01*
X17512144Y-30794176D01*
X17728081Y-30832314D01*
X18344395Y-30216000D01*
X18703605Y-30216000D01*
X19319919Y-30832314D01*
X19535856Y-30794176D01*
X19680091Y-30362945D01*
X19648322Y-29909343D01*
X19535856Y-29637824D01*
X19505661Y-29632491D01*
X25717280Y-29632491D01*
X25717280Y-29973430D01*
X25876030Y-30132180D01*
X26525000Y-30132180D01*
X26525000Y-29282550D01*
X26366250Y-29123800D01*
X26225970Y-29123800D01*
X25992581Y-29220473D01*
X25813953Y-29399102D01*
X25717280Y-29632491D01*
X19505661Y-29632491D01*
X19319919Y-29599686D01*
X18703605Y-30216000D01*
X18344395Y-30216000D01*
X17728081Y-29599686D01*
X17512144Y-29637824D01*
X17367909Y-30069055D01*
X6477000Y-30069055D01*
X6477000Y-29420081D01*
X17907686Y-29420081D01*
X18524000Y-30036395D01*
X19140314Y-29420081D01*
X19102176Y-29204144D01*
X18670945Y-29059909D01*
X18217343Y-29091678D01*
X17945824Y-29204144D01*
X17907686Y-29420081D01*
X6477000Y-29420081D01*
X6477000Y-28469750D01*
X19853000Y-28469750D01*
X19853000Y-28960310D01*
X19949673Y-29193699D01*
X20128302Y-29372327D01*
X20361691Y-29469000D01*
X20952250Y-29469000D01*
X21111000Y-29310250D01*
X21111000Y-28311000D01*
X20011750Y-28311000D01*
X19853000Y-28469750D01*
X6477000Y-28469750D01*
X6477000Y-27407690D01*
X19853000Y-27407690D01*
X19853000Y-27898250D01*
X20011750Y-28057000D01*
X21111000Y-28057000D01*
X21111000Y-27057750D01*
X20952250Y-26899000D01*
X20361691Y-26899000D01*
X20128302Y-26995673D01*
X19949673Y-27174301D01*
X19853000Y-27407690D01*
X6477000Y-27407690D01*
X6477000Y-22035000D01*
X8236000Y-22035000D01*
X8555541Y-21971439D01*
X8826434Y-21790434D01*
X9425868Y-21191000D01*
X18625600Y-21191000D01*
X18840065Y-21148340D01*
X19054723Y-21106751D01*
X19057123Y-21105165D01*
X19059946Y-21104603D01*
X19241787Y-20983101D01*
X19424163Y-20862549D01*
X19819709Y-20470919D01*
X22606686Y-20470919D01*
X22644824Y-20686856D01*
X23076055Y-20831091D01*
X23529657Y-20799322D01*
X23801176Y-20686856D01*
X23839314Y-20470919D01*
X23223000Y-19854605D01*
X22606686Y-20470919D01*
X19819709Y-20470919D01*
X20772002Y-19528055D01*
X22066909Y-19528055D01*
X22098678Y-19981657D01*
X22211144Y-20253176D01*
X22427081Y-20291314D01*
X23043395Y-19675000D01*
X23402605Y-19675000D01*
X24018919Y-20291314D01*
X24234856Y-20253176D01*
X24379091Y-19821945D01*
X24347322Y-19368343D01*
X24234856Y-19096824D01*
X24018919Y-19058686D01*
X23402605Y-19675000D01*
X23043395Y-19675000D01*
X22427081Y-19058686D01*
X22211144Y-19096824D01*
X22066909Y-19528055D01*
X20772002Y-19528055D01*
X21427466Y-18879081D01*
X22606686Y-18879081D01*
X23223000Y-19495395D01*
X23839314Y-18879081D01*
X23801176Y-18663144D01*
X23369945Y-18518909D01*
X22916343Y-18550678D01*
X22644824Y-18663144D01*
X22606686Y-18879081D01*
X21427466Y-18879081D01*
X21815845Y-18494548D01*
X21837612Y-18485554D01*
X21918306Y-18405000D01*
X24801000Y-18405000D01*
X24801000Y-26187132D01*
X24801000Y-26187132D01*
G37*
X24801000Y-26187132D02*
X24101572Y-26886560D01*
X23188000Y-26886560D01*
X22952683Y-26930838D01*
X22736559Y-27069910D01*
X22591569Y-27282110D01*
X22584809Y-27315490D01*
X22526327Y-27174301D01*
X22347698Y-26995673D01*
X22114309Y-26899000D01*
X21523750Y-26899000D01*
X21365000Y-27057750D01*
X21365000Y-28057000D01*
X21385000Y-28057000D01*
X21385000Y-28311000D01*
X21365000Y-28311000D01*
X21365000Y-29310250D01*
X21523750Y-29469000D01*
X22114309Y-29469000D01*
X22347698Y-29372327D01*
X22526327Y-29193699D01*
X22582654Y-29057713D01*
X22584838Y-29069317D01*
X22723910Y-29285441D01*
X22936110Y-29430431D01*
X23188000Y-29481440D01*
X24688000Y-29481440D01*
X24923317Y-29437162D01*
X25139441Y-29298090D01*
X25284431Y-29085890D01*
X25335440Y-28834000D01*
X25335440Y-28014428D01*
X25636000Y-27713868D01*
X27045932Y-29123800D01*
X26937750Y-29123800D01*
X26779000Y-29282550D01*
X26779000Y-30132180D01*
X27427970Y-30132180D01*
X27586720Y-29973430D01*
X27586720Y-29664588D01*
X27849000Y-29926868D01*
X27849000Y-33208081D01*
X27846090Y-33203559D01*
X27633890Y-33058569D01*
X27581198Y-33047899D01*
X27599160Y-32959200D01*
X27599160Y-31958440D01*
X27554882Y-31723123D01*
X27415810Y-31506999D01*
X27203610Y-31362009D01*
X27172046Y-31355617D01*
X27311419Y-31297887D01*
X27490047Y-31119258D01*
X27586720Y-30885869D01*
X27586720Y-30544930D01*
X27427970Y-30386180D01*
X26779000Y-30386180D01*
X26779000Y-30406180D01*
X26525000Y-30406180D01*
X26525000Y-30386180D01*
X25876030Y-30386180D01*
X25717280Y-30544930D01*
X25717280Y-30885869D01*
X25813953Y-31119258D01*
X25992581Y-31297887D01*
X26126708Y-31353444D01*
X26116963Y-31355278D01*
X25900839Y-31494350D01*
X25755849Y-31706550D01*
X25704840Y-31958440D01*
X25704840Y-32959200D01*
X25719686Y-33038101D01*
X25646683Y-33051838D01*
X25430559Y-33190910D01*
X25382866Y-33260711D01*
X25346090Y-33203559D01*
X25162992Y-33078454D01*
X25254801Y-32857354D01*
X25255198Y-32402641D01*
X25081554Y-31982388D01*
X24760303Y-31660577D01*
X24340354Y-31486199D01*
X23885641Y-31485802D01*
X23465388Y-31659446D01*
X23143577Y-31980697D01*
X22969199Y-32400646D01*
X22968802Y-32855359D01*
X23070295Y-33100992D01*
X22930559Y-33190910D01*
X22785569Y-33403110D01*
X22734560Y-33655000D01*
X22734560Y-34905000D01*
X22778838Y-35140317D01*
X22917910Y-35356441D01*
X22923491Y-35360254D01*
X22785569Y-35562110D01*
X22734560Y-35814000D01*
X22734560Y-37064000D01*
X22778838Y-37299317D01*
X22917910Y-37515441D01*
X23130110Y-37660431D01*
X23297000Y-37694227D01*
X23297000Y-38994132D01*
X23004132Y-39287000D01*
X22951219Y-39287000D01*
X22764320Y-39099775D01*
X22321041Y-38915710D01*
X21841065Y-38915291D01*
X21397465Y-39098582D01*
X21057775Y-39437680D01*
X20873710Y-39880959D01*
X20873291Y-40360935D01*
X21056582Y-40804535D01*
X21395680Y-41144225D01*
X21838959Y-41328290D01*
X22318935Y-41328709D01*
X22762535Y-41145418D01*
X22951282Y-40957000D01*
X23350000Y-40957000D01*
X23669541Y-40893439D01*
X23940434Y-40712434D01*
X24722434Y-39930434D01*
X24764151Y-39868000D01*
X24903439Y-39659541D01*
X24967000Y-39340000D01*
X24967000Y-37695446D01*
X25117317Y-37667162D01*
X25333441Y-37528090D01*
X25381134Y-37458289D01*
X25417910Y-37515441D01*
X25630110Y-37660431D01*
X25882000Y-37711440D01*
X27119692Y-37711440D01*
X26106165Y-38724967D01*
X25917641Y-38724802D01*
X25497388Y-38898446D01*
X25175577Y-39219697D01*
X25001199Y-39639646D01*
X25000802Y-40094359D01*
X25174446Y-40514612D01*
X25425453Y-40766056D01*
X25321559Y-40832910D01*
X25176569Y-41045110D01*
X25125560Y-41297000D01*
X25125560Y-41565910D01*
X25012310Y-41519000D01*
X23191750Y-41519000D01*
X23033000Y-41677750D01*
X23033000Y-42519072D01*
X22990107Y-42502998D01*
X22779000Y-42714105D01*
X22779000Y-42354895D01*
X22810502Y-42323393D01*
X22779000Y-42239328D01*
X22779000Y-41677750D01*
X22620250Y-41519000D01*
X20799690Y-41519000D01*
X20566301Y-41615673D01*
X20387673Y-41794302D01*
X20291000Y-42027691D01*
X20291000Y-42878566D01*
X20164184Y-43219142D01*
X20187986Y-43875519D01*
X20291000Y-44124217D01*
X20291000Y-44697349D01*
X20222437Y-44628666D01*
X19615845Y-44376787D01*
X18959037Y-44376214D01*
X18352005Y-44627034D01*
X18281000Y-44697915D01*
X18281000Y-44096434D01*
X18407816Y-43755858D01*
X18384014Y-43099481D01*
X18281000Y-42850783D01*
X18281000Y-42027691D01*
X18184327Y-41794302D01*
X18005699Y-41615673D01*
X17772310Y-41519000D01*
X15951750Y-41519000D01*
X15793000Y-41677750D01*
X15793000Y-42239328D01*
X15761498Y-42323393D01*
X15793000Y-42354895D01*
X15793000Y-42714105D01*
X15581893Y-42502998D01*
X15539000Y-42519072D01*
X15539000Y-41677750D01*
X15380250Y-41519000D01*
X13559690Y-41519000D01*
X13326301Y-41615673D01*
X13147673Y-41794302D01*
X13051000Y-42027691D01*
X13051000Y-45640150D01*
X13209750Y-45798900D01*
X15539000Y-45798900D01*
X15539000Y-44455928D01*
X15581893Y-44472002D01*
X15793000Y-44260895D01*
X15793000Y-44620105D01*
X15761498Y-44651607D01*
X15793000Y-44735672D01*
X15793000Y-45798900D01*
X15813000Y-45798900D01*
X15813000Y-46052900D01*
X15793000Y-46052900D01*
X15793000Y-46072900D01*
X15539000Y-46072900D01*
X15539000Y-46052900D01*
X13209750Y-46052900D01*
X13051000Y-46211650D01*
X13051000Y-47512672D01*
X13011282Y-47552390D01*
X13051000Y-47592108D01*
X13051000Y-47692159D01*
X12869357Y-47753352D01*
X12659542Y-48326836D01*
X12685161Y-48936960D01*
X12816898Y-49255000D01*
X9095000Y-49255000D01*
X9095000Y-41122935D01*
X18079291Y-41122935D01*
X18262582Y-41566535D01*
X18601680Y-41906225D01*
X19044959Y-42090290D01*
X19524935Y-42090709D01*
X19968535Y-41907418D01*
X20308225Y-41568320D01*
X20492290Y-41125041D01*
X20492709Y-40645065D01*
X20309418Y-40201465D01*
X19970320Y-39861775D01*
X19527041Y-39677710D01*
X19047065Y-39677291D01*
X18603465Y-39860582D01*
X18263775Y-40199680D01*
X18079710Y-40642959D01*
X18079291Y-41122935D01*
X9095000Y-41122935D01*
X9095000Y-32700000D01*
X9087887Y-32664237D01*
X9951247Y-32664237D01*
X10173126Y-33201226D01*
X10583613Y-33612430D01*
X10661579Y-33644804D01*
X10585774Y-33676126D01*
X10174570Y-34086613D01*
X9951754Y-34623214D01*
X9951247Y-35204237D01*
X10173126Y-35741226D01*
X10583613Y-36152430D01*
X11120214Y-36375246D01*
X11701237Y-36375753D01*
X12238226Y-36153874D01*
X12451256Y-35941215D01*
X15645390Y-35941215D01*
X15722656Y-36189976D01*
X16269131Y-36387340D01*
X16849535Y-36360553D01*
X17261344Y-36189976D01*
X17338610Y-35941215D01*
X16492000Y-35094605D01*
X15645390Y-35941215D01*
X12451256Y-35941215D01*
X12649430Y-35743387D01*
X12872246Y-35206786D01*
X12872695Y-34692131D01*
X15019660Y-34692131D01*
X15046447Y-35272535D01*
X15217024Y-35684344D01*
X15465785Y-35761610D01*
X16312395Y-34915000D01*
X16671605Y-34915000D01*
X17518215Y-35761610D01*
X17766976Y-35684344D01*
X17964340Y-35137869D01*
X17937553Y-34557465D01*
X17766976Y-34145656D01*
X17518215Y-34068390D01*
X16671605Y-34915000D01*
X16312395Y-34915000D01*
X15465785Y-34068390D01*
X15217024Y-34145656D01*
X15019660Y-34692131D01*
X12872695Y-34692131D01*
X12872753Y-34625763D01*
X12650874Y-34088774D01*
X12240387Y-33677570D01*
X12162421Y-33645196D01*
X12238226Y-33613874D01*
X12649430Y-33203387D01*
X12853996Y-32710737D01*
X12982446Y-33021612D01*
X13303697Y-33343423D01*
X13723646Y-33517801D01*
X14178359Y-33518198D01*
X14598612Y-33344554D01*
X14920423Y-33023303D01*
X15050336Y-32710437D01*
X15253126Y-33201226D01*
X15663613Y-33612430D01*
X15726366Y-33638487D01*
X15722656Y-33640024D01*
X15645390Y-33888785D01*
X16492000Y-34735395D01*
X17338610Y-33888785D01*
X17261344Y-33640024D01*
X17257926Y-33638789D01*
X17318226Y-33613874D01*
X17729430Y-33203387D01*
X17952246Y-32666786D01*
X17952753Y-32085763D01*
X17730874Y-31548774D01*
X17320387Y-31137570D01*
X17017786Y-31011919D01*
X17907686Y-31011919D01*
X17945824Y-31227856D01*
X18377055Y-31372091D01*
X18830657Y-31340322D01*
X19102176Y-31227856D01*
X19140314Y-31011919D01*
X18524000Y-30395605D01*
X17907686Y-31011919D01*
X17017786Y-31011919D01*
X16783786Y-30914754D01*
X16202763Y-30914247D01*
X15665774Y-31136126D01*
X15254570Y-31546613D01*
X15050004Y-32039263D01*
X14921554Y-31728388D01*
X14600303Y-31406577D01*
X14180354Y-31232199D01*
X13725641Y-31231802D01*
X13305388Y-31405446D01*
X12983577Y-31726697D01*
X12853664Y-32039563D01*
X12650874Y-31548774D01*
X12240387Y-31137570D01*
X11703786Y-30914754D01*
X11122763Y-30914247D01*
X10585774Y-31136126D01*
X10174570Y-31546613D01*
X9951754Y-32083214D01*
X9951247Y-32664237D01*
X9087887Y-32664237D01*
X9082607Y-32637696D01*
X9082607Y-32624167D01*
X9010293Y-32260618D01*
X8913984Y-32028109D01*
X8913983Y-32028108D01*
X8913983Y-32028107D01*
X8708048Y-31719905D01*
X8619071Y-31630929D01*
X8530095Y-31541952D01*
X8221893Y-31336017D01*
X8221891Y-31336016D01*
X7989381Y-31239707D01*
X7625833Y-31167393D01*
X7562305Y-31167393D01*
X7500000Y-31155000D01*
X6477000Y-31155000D01*
X6477000Y-30069055D01*
X17367909Y-30069055D01*
X17399678Y-30522657D01*
X17512144Y-30794176D01*
X17728081Y-30832314D01*
X18344395Y-30216000D01*
X18703605Y-30216000D01*
X19319919Y-30832314D01*
X19535856Y-30794176D01*
X19680091Y-30362945D01*
X19648322Y-29909343D01*
X19535856Y-29637824D01*
X19505661Y-29632491D01*
X25717280Y-29632491D01*
X25717280Y-29973430D01*
X25876030Y-30132180D01*
X26525000Y-30132180D01*
X26525000Y-29282550D01*
X26366250Y-29123800D01*
X26225970Y-29123800D01*
X25992581Y-29220473D01*
X25813953Y-29399102D01*
X25717280Y-29632491D01*
X19505661Y-29632491D01*
X19319919Y-29599686D01*
X18703605Y-30216000D01*
X18344395Y-30216000D01*
X17728081Y-29599686D01*
X17512144Y-29637824D01*
X17367909Y-30069055D01*
X6477000Y-30069055D01*
X6477000Y-29420081D01*
X17907686Y-29420081D01*
X18524000Y-30036395D01*
X19140314Y-29420081D01*
X19102176Y-29204144D01*
X18670945Y-29059909D01*
X18217343Y-29091678D01*
X17945824Y-29204144D01*
X17907686Y-29420081D01*
X6477000Y-29420081D01*
X6477000Y-28469750D01*
X19853000Y-28469750D01*
X19853000Y-28960310D01*
X19949673Y-29193699D01*
X20128302Y-29372327D01*
X20361691Y-29469000D01*
X20952250Y-29469000D01*
X21111000Y-29310250D01*
X21111000Y-28311000D01*
X20011750Y-28311000D01*
X19853000Y-28469750D01*
X6477000Y-28469750D01*
X6477000Y-27407690D01*
X19853000Y-27407690D01*
X19853000Y-27898250D01*
X20011750Y-28057000D01*
X21111000Y-28057000D01*
X21111000Y-27057750D01*
X20952250Y-26899000D01*
X20361691Y-26899000D01*
X20128302Y-26995673D01*
X19949673Y-27174301D01*
X19853000Y-27407690D01*
X6477000Y-27407690D01*
X6477000Y-22035000D01*
X8236000Y-22035000D01*
X8555541Y-21971439D01*
X8826434Y-21790434D01*
X9425868Y-21191000D01*
X18625600Y-21191000D01*
X18840065Y-21148340D01*
X19054723Y-21106751D01*
X19057123Y-21105165D01*
X19059946Y-21104603D01*
X19241787Y-20983101D01*
X19424163Y-20862549D01*
X19819709Y-20470919D01*
X22606686Y-20470919D01*
X22644824Y-20686856D01*
X23076055Y-20831091D01*
X23529657Y-20799322D01*
X23801176Y-20686856D01*
X23839314Y-20470919D01*
X23223000Y-19854605D01*
X22606686Y-20470919D01*
X19819709Y-20470919D01*
X20772002Y-19528055D01*
X22066909Y-19528055D01*
X22098678Y-19981657D01*
X22211144Y-20253176D01*
X22427081Y-20291314D01*
X23043395Y-19675000D01*
X23402605Y-19675000D01*
X24018919Y-20291314D01*
X24234856Y-20253176D01*
X24379091Y-19821945D01*
X24347322Y-19368343D01*
X24234856Y-19096824D01*
X24018919Y-19058686D01*
X23402605Y-19675000D01*
X23043395Y-19675000D01*
X22427081Y-19058686D01*
X22211144Y-19096824D01*
X22066909Y-19528055D01*
X20772002Y-19528055D01*
X21427466Y-18879081D01*
X22606686Y-18879081D01*
X23223000Y-19495395D01*
X23839314Y-18879081D01*
X23801176Y-18663144D01*
X23369945Y-18518909D01*
X22916343Y-18550678D01*
X22644824Y-18663144D01*
X22606686Y-18879081D01*
X21427466Y-18879081D01*
X21815845Y-18494548D01*
X21837612Y-18485554D01*
X21918306Y-18405000D01*
X24801000Y-18405000D01*
X24801000Y-26187132D01*
G36*
X40058120Y-19160650D02*
X40216870Y-19319400D01*
X41815800Y-19319400D01*
X41815800Y-19299400D01*
X42069800Y-19299400D01*
X42069800Y-19319400D01*
X43668730Y-19319400D01*
X43719530Y-19268600D01*
X45473400Y-19268600D01*
X45473400Y-19248600D01*
X45727400Y-19248600D01*
X45727400Y-19268600D01*
X47577562Y-19268600D01*
X47700183Y-19053926D01*
X47685827Y-18981725D01*
X47426124Y-18503860D01*
X47303944Y-18405000D01*
X49305000Y-18405000D01*
X49305000Y-43900278D01*
X49281824Y-43844188D01*
X48210989Y-42771483D01*
X46811161Y-42190223D01*
X45295449Y-42188900D01*
X43894608Y-42767716D01*
X42821903Y-43838551D01*
X42240643Y-45238379D01*
X42239320Y-46754091D01*
X42818136Y-48154932D01*
X43888971Y-49227637D01*
X43954868Y-49255000D01*
X39972978Y-49255000D01*
X40136458Y-48808164D01*
X40110839Y-48198040D01*
X39926643Y-47753352D01*
X39745000Y-47692159D01*
X39745000Y-47592108D01*
X39784718Y-47552390D01*
X39745000Y-47512672D01*
X39745000Y-46211650D01*
X39586250Y-46052900D01*
X37257000Y-46052900D01*
X37257000Y-46072900D01*
X37003000Y-46072900D01*
X37003000Y-46052900D01*
X36983000Y-46052900D01*
X36983000Y-45798900D01*
X37003000Y-45798900D01*
X37003000Y-44735672D01*
X37034502Y-44651607D01*
X37003000Y-44620105D01*
X37003000Y-44260895D01*
X37214107Y-44472002D01*
X37257000Y-44455928D01*
X37257000Y-45798900D01*
X39586250Y-45798900D01*
X39745000Y-45640150D01*
X39745000Y-42513975D01*
X40163034Y-42662767D01*
X40713538Y-42634805D01*
X41092265Y-42477931D01*
X41160325Y-42236930D01*
X40368000Y-41444605D01*
X40353858Y-41458748D01*
X40174253Y-41279143D01*
X40188395Y-41265000D01*
X40547605Y-41265000D01*
X41339930Y-42057325D01*
X41580931Y-41989265D01*
X41765767Y-41469966D01*
X41737805Y-40919462D01*
X41580931Y-40540735D01*
X41339930Y-40472675D01*
X40547605Y-41265000D01*
X40188395Y-41265000D01*
X40174253Y-41250858D01*
X40353858Y-41071253D01*
X40368000Y-41085395D01*
X41160325Y-40293070D01*
X41132629Y-40195000D01*
X44031506Y-40195000D01*
X44164697Y-40328423D01*
X44584646Y-40502801D01*
X45039359Y-40503198D01*
X45459612Y-40329554D01*
X45781423Y-40008303D01*
X45955801Y-39588354D01*
X45956198Y-39133641D01*
X45782554Y-38713388D01*
X45461303Y-38391577D01*
X45041354Y-38217199D01*
X44586641Y-38216802D01*
X44166388Y-38390446D01*
X44031599Y-38525000D01*
X39752494Y-38525000D01*
X39619303Y-38391577D01*
X39199354Y-38217199D01*
X38744641Y-38216802D01*
X38324388Y-38390446D01*
X38002577Y-38711697D01*
X37828199Y-39131646D01*
X37827802Y-39586359D01*
X38001446Y-40006612D01*
X38322697Y-40328423D01*
X38742646Y-40502801D01*
X39197359Y-40503198D01*
X39359567Y-40436175D01*
X39396068Y-40472676D01*
X39155069Y-40540735D01*
X38970233Y-41060034D01*
X38993545Y-41519000D01*
X37415750Y-41519000D01*
X37257000Y-41677750D01*
X37257000Y-42519072D01*
X37214107Y-42502998D01*
X37003000Y-42714105D01*
X37003000Y-42354895D01*
X37034502Y-42323393D01*
X37003000Y-42239328D01*
X37003000Y-41677750D01*
X36844250Y-41519000D01*
X35023690Y-41519000D01*
X34790301Y-41615673D01*
X34611673Y-41794302D01*
X34515000Y-42027691D01*
X34515000Y-42878566D01*
X34388184Y-43219142D01*
X34411986Y-43875519D01*
X34515000Y-44124217D01*
X34515000Y-44697349D01*
X34446437Y-44628666D01*
X33839845Y-44376787D01*
X33183037Y-44376214D01*
X32576005Y-44627034D01*
X32505000Y-44697915D01*
X32505000Y-44096434D01*
X32631816Y-43755858D01*
X32608014Y-43099481D01*
X32505000Y-42850783D01*
X32505000Y-42027691D01*
X32408327Y-41794302D01*
X32229699Y-41615673D01*
X31996310Y-41519000D01*
X30753868Y-41519000D01*
X31007835Y-41265033D01*
X31196359Y-41265198D01*
X31616612Y-41091554D01*
X31938423Y-40770303D01*
X32108407Y-40360935D01*
X32811291Y-40360935D01*
X32994582Y-40804535D01*
X33333680Y-41144225D01*
X33776959Y-41328290D01*
X34256935Y-41328709D01*
X34700535Y-41145418D01*
X35040225Y-40806320D01*
X35224290Y-40363041D01*
X35224291Y-40360935D01*
X35478291Y-40360935D01*
X35661582Y-40804535D01*
X36000680Y-41144225D01*
X36443959Y-41328290D01*
X36923935Y-41328709D01*
X37367535Y-41145418D01*
X37707225Y-40806320D01*
X37891290Y-40363041D01*
X37891709Y-39883065D01*
X37708418Y-39439465D01*
X37369320Y-39099775D01*
X36926041Y-38915710D01*
X36446065Y-38915291D01*
X36002465Y-39098582D01*
X35662775Y-39437680D01*
X35478710Y-39880959D01*
X35478291Y-40360935D01*
X35224291Y-40360935D01*
X35224709Y-39883065D01*
X35041418Y-39439465D01*
X34702320Y-39099775D01*
X34259041Y-38915710D01*
X33779065Y-38915291D01*
X33335465Y-39098582D01*
X32995775Y-39437680D01*
X32811710Y-39880959D01*
X32811291Y-40360935D01*
X32108407Y-40360935D01*
X32112801Y-40350354D01*
X32113198Y-39895641D01*
X31939554Y-39475388D01*
X31805000Y-39340599D01*
X31805000Y-38979000D01*
X31741439Y-38659459D01*
X31560434Y-38388566D01*
X30408000Y-37236132D01*
X30408000Y-36601237D01*
X30652247Y-36601237D01*
X30874126Y-37138226D01*
X31284613Y-37549430D01*
X31821214Y-37772246D01*
X32402237Y-37772753D01*
X32939226Y-37550874D01*
X33350430Y-37140387D01*
X33382804Y-37062421D01*
X33414126Y-37138226D01*
X33824613Y-37549430D01*
X34361214Y-37772246D01*
X34942237Y-37772753D01*
X35479226Y-37550874D01*
X35890430Y-37140387D01*
X36113246Y-36603786D01*
X36113753Y-36022763D01*
X35891874Y-35485774D01*
X35481387Y-35074570D01*
X35403421Y-35042196D01*
X35479226Y-35010874D01*
X35890430Y-34600387D01*
X36113246Y-34063786D01*
X36113753Y-33482763D01*
X35891874Y-32945774D01*
X35481387Y-32534570D01*
X35403421Y-32502196D01*
X35479226Y-32470874D01*
X35890430Y-32060387D01*
X36113246Y-31523786D01*
X36113753Y-30942763D01*
X35891874Y-30405774D01*
X35481387Y-29994570D01*
X34944786Y-29771754D01*
X34363763Y-29771247D01*
X33826774Y-29993126D01*
X33415570Y-30403613D01*
X33389513Y-30466366D01*
X33387976Y-30462656D01*
X33139215Y-30385390D01*
X32292605Y-31232000D01*
X33139215Y-32078610D01*
X33387976Y-32001344D01*
X33389211Y-31997926D01*
X33414126Y-32058226D01*
X33824613Y-32469430D01*
X33902579Y-32501804D01*
X33826774Y-32533126D01*
X33415570Y-32943613D01*
X33192754Y-33480214D01*
X33192247Y-34061237D01*
X33414126Y-34598226D01*
X33824613Y-35009430D01*
X33902579Y-35041804D01*
X33826774Y-35073126D01*
X33415570Y-35483613D01*
X33383196Y-35561579D01*
X33351874Y-35485774D01*
X32941387Y-35074570D01*
X32404786Y-34851754D01*
X31823763Y-34851247D01*
X31286774Y-35073126D01*
X30875570Y-35483613D01*
X30652754Y-36020214D01*
X30652247Y-36601237D01*
X30408000Y-36601237D01*
X30408000Y-32258215D01*
X31266390Y-32258215D01*
X31343656Y-32506976D01*
X31890131Y-32704340D01*
X32470535Y-32677553D01*
X32882344Y-32506976D01*
X32959610Y-32258215D01*
X32113000Y-31411605D01*
X31266390Y-32258215D01*
X30408000Y-32258215D01*
X30408000Y-31009131D01*
X30640660Y-31009131D01*
X30667447Y-31589535D01*
X30838024Y-32001344D01*
X31086785Y-32078610D01*
X31933395Y-31232000D01*
X31086785Y-30385390D01*
X30838024Y-30462656D01*
X30640660Y-31009131D01*
X30408000Y-31009131D01*
X30408000Y-30205785D01*
X31266390Y-30205785D01*
X32113000Y-31052395D01*
X32959610Y-30205785D01*
X32882344Y-29957024D01*
X32335869Y-29759660D01*
X31755465Y-29786447D01*
X31343656Y-29957024D01*
X31266390Y-30205785D01*
X30408000Y-30205785D01*
X30408000Y-29073000D01*
X30391603Y-28990566D01*
X30344440Y-28753460D01*
X30163434Y-28482566D01*
X29671161Y-27990293D01*
X29822500Y-28020940D01*
X31322500Y-28020940D01*
X31557817Y-27976662D01*
X31773941Y-27837590D01*
X31918931Y-27625390D01*
X31921581Y-27612303D01*
X32058410Y-27824941D01*
X32270610Y-27969931D01*
X32522500Y-28020940D01*
X33309072Y-28020940D01*
X34484206Y-29196074D01*
X34755099Y-29377079D01*
X35074640Y-29440640D01*
X39088328Y-29440640D01*
X39163500Y-29557461D01*
X39375700Y-29702451D01*
X39543160Y-29736362D01*
X39543160Y-34151611D01*
X39479199Y-34305646D01*
X39478802Y-34760359D01*
X39652446Y-35180612D01*
X39973697Y-35502423D01*
X40393646Y-35676801D01*
X40848359Y-35677198D01*
X40979529Y-35623000D01*
X42205074Y-35623000D01*
X42209838Y-35648317D01*
X42348910Y-35864441D01*
X42561110Y-36009431D01*
X42813000Y-36060440D01*
X44313000Y-36060440D01*
X44548317Y-36016162D01*
X44764441Y-35877090D01*
X44810969Y-35808994D01*
X44953302Y-35951327D01*
X45186691Y-36048000D01*
X45777250Y-36048000D01*
X45936000Y-35889250D01*
X45936000Y-34915000D01*
X46190000Y-34915000D01*
X46190000Y-35889250D01*
X46348750Y-36048000D01*
X46939309Y-36048000D01*
X47172698Y-35951327D01*
X47351327Y-35772699D01*
X47448000Y-35539310D01*
X47448000Y-35073750D01*
X47289250Y-34915000D01*
X46190000Y-34915000D01*
X45936000Y-34915000D01*
X45916000Y-34915000D01*
X45916000Y-34661000D01*
X45936000Y-34661000D01*
X45936000Y-33686750D01*
X46190000Y-33686750D01*
X46190000Y-34661000D01*
X47289250Y-34661000D01*
X47448000Y-34502250D01*
X47448000Y-34036690D01*
X47351327Y-33803301D01*
X47172698Y-33624673D01*
X46939309Y-33528000D01*
X46348750Y-33528000D01*
X46190000Y-33686750D01*
X45936000Y-33686750D01*
X45777250Y-33528000D01*
X45186691Y-33528000D01*
X44953302Y-33624673D01*
X44812064Y-33765910D01*
X44777090Y-33711559D01*
X44564890Y-33566569D01*
X44313000Y-33515560D01*
X42813000Y-33515560D01*
X42577683Y-33559838D01*
X42361559Y-33698910D01*
X42216569Y-33911110D01*
X42208086Y-33953000D01*
X41618664Y-33953000D01*
X41591554Y-33887388D01*
X41270303Y-33565577D01*
X41213160Y-33541849D01*
X41213160Y-31517750D01*
X41917400Y-31517750D01*
X41917400Y-32856909D01*
X42014073Y-33090298D01*
X42192701Y-33268927D01*
X42426090Y-33365600D01*
X43511250Y-33365600D01*
X43670000Y-33206850D01*
X43670000Y-31359000D01*
X43924000Y-31359000D01*
X43924000Y-33206850D01*
X44082750Y-33365600D01*
X45167910Y-33365600D01*
X45401299Y-33268927D01*
X45579927Y-33090298D01*
X45676600Y-32856909D01*
X45676600Y-31517750D01*
X45517850Y-31359000D01*
X43924000Y-31359000D01*
X43670000Y-31359000D01*
X42076150Y-31359000D01*
X41917400Y-31517750D01*
X41213160Y-31517750D01*
X41213160Y-29737573D01*
X41364047Y-29709182D01*
X41522700Y-29607091D01*
X41917400Y-29607091D01*
X41917400Y-30946250D01*
X42076150Y-31105000D01*
X43670000Y-31105000D01*
X43670000Y-29257150D01*
X43924000Y-29257150D01*
X43924000Y-31105000D01*
X45517850Y-31105000D01*
X45676600Y-30946250D01*
X45676600Y-29607091D01*
X45579927Y-29373702D01*
X45401299Y-29195073D01*
X45167910Y-29098400D01*
X44082750Y-29098400D01*
X43924000Y-29257150D01*
X43670000Y-29257150D01*
X43511250Y-29098400D01*
X42426090Y-29098400D01*
X42192701Y-29195073D01*
X42014073Y-29373702D01*
X41917400Y-29607091D01*
X41522700Y-29607091D01*
X41580171Y-29570110D01*
X41725161Y-29357910D01*
X41776170Y-29106020D01*
X41776170Y-28139694D01*
X41781838Y-28169817D01*
X41920910Y-28385941D01*
X42133110Y-28530931D01*
X42385000Y-28581940D01*
X43685000Y-28581940D01*
X43920317Y-28537662D01*
X44136441Y-28398590D01*
X44281431Y-28186390D01*
X44292787Y-28130314D01*
X44298338Y-28159817D01*
X44437410Y-28375941D01*
X44649610Y-28520931D01*
X44901500Y-28571940D01*
X46121500Y-28571940D01*
X46356817Y-28527662D01*
X46572941Y-28388590D01*
X46717931Y-28176390D01*
X46768940Y-27924500D01*
X46768940Y-27014500D01*
X46724662Y-26779183D01*
X46585590Y-26563059D01*
X46373390Y-26418069D01*
X46121500Y-26367060D01*
X45589928Y-26367060D01*
X45140000Y-25917132D01*
X45140000Y-25390000D01*
X45120009Y-25289500D01*
X45225750Y-25289500D01*
X45384500Y-25130750D01*
X45384500Y-24326500D01*
X45638500Y-24326500D01*
X45638500Y-25130750D01*
X45797250Y-25289500D01*
X46247810Y-25289500D01*
X46481199Y-25192827D01*
X46659827Y-25014198D01*
X46756500Y-24780809D01*
X46756500Y-24485250D01*
X46597750Y-24326500D01*
X45638500Y-24326500D01*
X45384500Y-24326500D01*
X45364500Y-24326500D01*
X45364500Y-24072500D01*
X45384500Y-24072500D01*
X45384500Y-23268250D01*
X45638500Y-23268250D01*
X45638500Y-24072500D01*
X46597750Y-24072500D01*
X46756500Y-23913750D01*
X46756500Y-23618191D01*
X46659827Y-23384802D01*
X46481199Y-23206173D01*
X46247810Y-23109500D01*
X45797250Y-23109500D01*
X45638500Y-23268250D01*
X45384500Y-23268250D01*
X45225750Y-23109500D01*
X44775190Y-23109500D01*
X44541801Y-23206173D01*
X44363173Y-23384802D01*
X44296794Y-23545056D01*
X44288162Y-23499183D01*
X44149090Y-23283059D01*
X43936890Y-23138069D01*
X43685000Y-23087060D01*
X43653966Y-23087060D01*
X43668327Y-23072699D01*
X43765000Y-22839310D01*
X43765000Y-22373750D01*
X43606250Y-22215000D01*
X42507000Y-22215000D01*
X42507000Y-22235000D01*
X42253000Y-22235000D01*
X42253000Y-22215000D01*
X42233000Y-22215000D01*
X42233000Y-21961000D01*
X42253000Y-21961000D01*
X42253000Y-21941000D01*
X42507000Y-21941000D01*
X42507000Y-21961000D01*
X43606250Y-21961000D01*
X43765000Y-21802250D01*
X43765000Y-21336690D01*
X43668327Y-21103301D01*
X43533040Y-20968015D01*
X43552179Y-20960087D01*
X43730807Y-20781458D01*
X43827480Y-20548069D01*
X43827480Y-20330066D01*
X44197481Y-20629446D01*
X44719020Y-20783710D01*
X45473400Y-20783710D01*
X45473400Y-19522600D01*
X45727400Y-19522600D01*
X45727400Y-20783710D01*
X46481780Y-20783710D01*
X47003319Y-20629446D01*
X47426124Y-20287340D01*
X47685827Y-19809475D01*
X47700183Y-19737274D01*
X47577562Y-19522600D01*
X45727400Y-19522600D01*
X45473400Y-19522600D01*
X43623238Y-19522600D01*
X43594221Y-19573400D01*
X42069800Y-19573400D01*
X42069800Y-19593400D01*
X41815800Y-19593400D01*
X41815800Y-19573400D01*
X40216870Y-19573400D01*
X40058120Y-19732150D01*
X40058120Y-20548069D01*
X40154793Y-20781458D01*
X40188895Y-20815560D01*
X39130000Y-20815560D01*
X38894683Y-20859838D01*
X38678559Y-20998910D01*
X38533569Y-21211110D01*
X38482560Y-21463000D01*
X38482560Y-22304572D01*
X38334932Y-22452200D01*
X38271646Y-22452200D01*
X38243362Y-22301883D01*
X38104290Y-22085759D01*
X38034489Y-22038066D01*
X38091641Y-22001290D01*
X38236631Y-21789090D01*
X38287640Y-21537200D01*
X38287640Y-20037200D01*
X38243362Y-19801883D01*
X38104290Y-19585759D01*
X38040200Y-19541968D01*
X38040200Y-18405000D01*
X40058120Y-18405000D01*
X40058120Y-19160650D01*
X40058120Y-19160650D01*
G37*
X40058120Y-19160650D02*
X40216870Y-19319400D01*
X41815800Y-19319400D01*
X41815800Y-19299400D01*
X42069800Y-19299400D01*
X42069800Y-19319400D01*
X43668730Y-19319400D01*
X43719530Y-19268600D01*
X45473400Y-19268600D01*
X45473400Y-19248600D01*
X45727400Y-19248600D01*
X45727400Y-19268600D01*
X47577562Y-19268600D01*
X47700183Y-19053926D01*
X47685827Y-18981725D01*
X47426124Y-18503860D01*
X47303944Y-18405000D01*
X49305000Y-18405000D01*
X49305000Y-43900278D01*
X49281824Y-43844188D01*
X48210989Y-42771483D01*
X46811161Y-42190223D01*
X45295449Y-42188900D01*
X43894608Y-42767716D01*
X42821903Y-43838551D01*
X42240643Y-45238379D01*
X42239320Y-46754091D01*
X42818136Y-48154932D01*
X43888971Y-49227637D01*
X43954868Y-49255000D01*
X39972978Y-49255000D01*
X40136458Y-48808164D01*
X40110839Y-48198040D01*
X39926643Y-47753352D01*
X39745000Y-47692159D01*
X39745000Y-47592108D01*
X39784718Y-47552390D01*
X39745000Y-47512672D01*
X39745000Y-46211650D01*
X39586250Y-46052900D01*
X37257000Y-46052900D01*
X37257000Y-46072900D01*
X37003000Y-46072900D01*
X37003000Y-46052900D01*
X36983000Y-46052900D01*
X36983000Y-45798900D01*
X37003000Y-45798900D01*
X37003000Y-44735672D01*
X37034502Y-44651607D01*
X37003000Y-44620105D01*
X37003000Y-44260895D01*
X37214107Y-44472002D01*
X37257000Y-44455928D01*
X37257000Y-45798900D01*
X39586250Y-45798900D01*
X39745000Y-45640150D01*
X39745000Y-42513975D01*
X40163034Y-42662767D01*
X40713538Y-42634805D01*
X41092265Y-42477931D01*
X41160325Y-42236930D01*
X40368000Y-41444605D01*
X40353858Y-41458748D01*
X40174253Y-41279143D01*
X40188395Y-41265000D01*
X40547605Y-41265000D01*
X41339930Y-42057325D01*
X41580931Y-41989265D01*
X41765767Y-41469966D01*
X41737805Y-40919462D01*
X41580931Y-40540735D01*
X41339930Y-40472675D01*
X40547605Y-41265000D01*
X40188395Y-41265000D01*
X40174253Y-41250858D01*
X40353858Y-41071253D01*
X40368000Y-41085395D01*
X41160325Y-40293070D01*
X41132629Y-40195000D01*
X44031506Y-40195000D01*
X44164697Y-40328423D01*
X44584646Y-40502801D01*
X45039359Y-40503198D01*
X45459612Y-40329554D01*
X45781423Y-40008303D01*
X45955801Y-39588354D01*
X45956198Y-39133641D01*
X45782554Y-38713388D01*
X45461303Y-38391577D01*
X45041354Y-38217199D01*
X44586641Y-38216802D01*
X44166388Y-38390446D01*
X44031599Y-38525000D01*
X39752494Y-38525000D01*
X39619303Y-38391577D01*
X39199354Y-38217199D01*
X38744641Y-38216802D01*
X38324388Y-38390446D01*
X38002577Y-38711697D01*
X37828199Y-39131646D01*
X37827802Y-39586359D01*
X38001446Y-40006612D01*
X38322697Y-40328423D01*
X38742646Y-40502801D01*
X39197359Y-40503198D01*
X39359567Y-40436175D01*
X39396068Y-40472676D01*
X39155069Y-40540735D01*
X38970233Y-41060034D01*
X38993545Y-41519000D01*
X37415750Y-41519000D01*
X37257000Y-41677750D01*
X37257000Y-42519072D01*
X37214107Y-42502998D01*
X37003000Y-42714105D01*
X37003000Y-42354895D01*
X37034502Y-42323393D01*
X37003000Y-42239328D01*
X37003000Y-41677750D01*
X36844250Y-41519000D01*
X35023690Y-41519000D01*
X34790301Y-41615673D01*
X34611673Y-41794302D01*
X34515000Y-42027691D01*
X34515000Y-42878566D01*
X34388184Y-43219142D01*
X34411986Y-43875519D01*
X34515000Y-44124217D01*
X34515000Y-44697349D01*
X34446437Y-44628666D01*
X33839845Y-44376787D01*
X33183037Y-44376214D01*
X32576005Y-44627034D01*
X32505000Y-44697915D01*
X32505000Y-44096434D01*
X32631816Y-43755858D01*
X32608014Y-43099481D01*
X32505000Y-42850783D01*
X32505000Y-42027691D01*
X32408327Y-41794302D01*
X32229699Y-41615673D01*
X31996310Y-41519000D01*
X30753868Y-41519000D01*
X31007835Y-41265033D01*
X31196359Y-41265198D01*
X31616612Y-41091554D01*
X31938423Y-40770303D01*
X32108407Y-40360935D01*
X32811291Y-40360935D01*
X32994582Y-40804535D01*
X33333680Y-41144225D01*
X33776959Y-41328290D01*
X34256935Y-41328709D01*
X34700535Y-41145418D01*
X35040225Y-40806320D01*
X35224290Y-40363041D01*
X35224291Y-40360935D01*
X35478291Y-40360935D01*
X35661582Y-40804535D01*
X36000680Y-41144225D01*
X36443959Y-41328290D01*
X36923935Y-41328709D01*
X37367535Y-41145418D01*
X37707225Y-40806320D01*
X37891290Y-40363041D01*
X37891709Y-39883065D01*
X37708418Y-39439465D01*
X37369320Y-39099775D01*
X36926041Y-38915710D01*
X36446065Y-38915291D01*
X36002465Y-39098582D01*
X35662775Y-39437680D01*
X35478710Y-39880959D01*
X35478291Y-40360935D01*
X35224291Y-40360935D01*
X35224709Y-39883065D01*
X35041418Y-39439465D01*
X34702320Y-39099775D01*
X34259041Y-38915710D01*
X33779065Y-38915291D01*
X33335465Y-39098582D01*
X32995775Y-39437680D01*
X32811710Y-39880959D01*
X32811291Y-40360935D01*
X32108407Y-40360935D01*
X32112801Y-40350354D01*
X32113198Y-39895641D01*
X31939554Y-39475388D01*
X31805000Y-39340599D01*
X31805000Y-38979000D01*
X31741439Y-38659459D01*
X31560434Y-38388566D01*
X30408000Y-37236132D01*
X30408000Y-36601237D01*
X30652247Y-36601237D01*
X30874126Y-37138226D01*
X31284613Y-37549430D01*
X31821214Y-37772246D01*
X32402237Y-37772753D01*
X32939226Y-37550874D01*
X33350430Y-37140387D01*
X33382804Y-37062421D01*
X33414126Y-37138226D01*
X33824613Y-37549430D01*
X34361214Y-37772246D01*
X34942237Y-37772753D01*
X35479226Y-37550874D01*
X35890430Y-37140387D01*
X36113246Y-36603786D01*
X36113753Y-36022763D01*
X35891874Y-35485774D01*
X35481387Y-35074570D01*
X35403421Y-35042196D01*
X35479226Y-35010874D01*
X35890430Y-34600387D01*
X36113246Y-34063786D01*
X36113753Y-33482763D01*
X35891874Y-32945774D01*
X35481387Y-32534570D01*
X35403421Y-32502196D01*
X35479226Y-32470874D01*
X35890430Y-32060387D01*
X36113246Y-31523786D01*
X36113753Y-30942763D01*
X35891874Y-30405774D01*
X35481387Y-29994570D01*
X34944786Y-29771754D01*
X34363763Y-29771247D01*
X33826774Y-29993126D01*
X33415570Y-30403613D01*
X33389513Y-30466366D01*
X33387976Y-30462656D01*
X33139215Y-30385390D01*
X32292605Y-31232000D01*
X33139215Y-32078610D01*
X33387976Y-32001344D01*
X33389211Y-31997926D01*
X33414126Y-32058226D01*
X33824613Y-32469430D01*
X33902579Y-32501804D01*
X33826774Y-32533126D01*
X33415570Y-32943613D01*
X33192754Y-33480214D01*
X33192247Y-34061237D01*
X33414126Y-34598226D01*
X33824613Y-35009430D01*
X33902579Y-35041804D01*
X33826774Y-35073126D01*
X33415570Y-35483613D01*
X33383196Y-35561579D01*
X33351874Y-35485774D01*
X32941387Y-35074570D01*
X32404786Y-34851754D01*
X31823763Y-34851247D01*
X31286774Y-35073126D01*
X30875570Y-35483613D01*
X30652754Y-36020214D01*
X30652247Y-36601237D01*
X30408000Y-36601237D01*
X30408000Y-32258215D01*
X31266390Y-32258215D01*
X31343656Y-32506976D01*
X31890131Y-32704340D01*
X32470535Y-32677553D01*
X32882344Y-32506976D01*
X32959610Y-32258215D01*
X32113000Y-31411605D01*
X31266390Y-32258215D01*
X30408000Y-32258215D01*
X30408000Y-31009131D01*
X30640660Y-31009131D01*
X30667447Y-31589535D01*
X30838024Y-32001344D01*
X31086785Y-32078610D01*
X31933395Y-31232000D01*
X31086785Y-30385390D01*
X30838024Y-30462656D01*
X30640660Y-31009131D01*
X30408000Y-31009131D01*
X30408000Y-30205785D01*
X31266390Y-30205785D01*
X32113000Y-31052395D01*
X32959610Y-30205785D01*
X32882344Y-29957024D01*
X32335869Y-29759660D01*
X31755465Y-29786447D01*
X31343656Y-29957024D01*
X31266390Y-30205785D01*
X30408000Y-30205785D01*
X30408000Y-29073000D01*
X30391603Y-28990566D01*
X30344440Y-28753460D01*
X30163434Y-28482566D01*
X29671161Y-27990293D01*
X29822500Y-28020940D01*
X31322500Y-28020940D01*
X31557817Y-27976662D01*
X31773941Y-27837590D01*
X31918931Y-27625390D01*
X31921581Y-27612303D01*
X32058410Y-27824941D01*
X32270610Y-27969931D01*
X32522500Y-28020940D01*
X33309072Y-28020940D01*
X34484206Y-29196074D01*
X34755099Y-29377079D01*
X35074640Y-29440640D01*
X39088328Y-29440640D01*
X39163500Y-29557461D01*
X39375700Y-29702451D01*
X39543160Y-29736362D01*
X39543160Y-34151611D01*
X39479199Y-34305646D01*
X39478802Y-34760359D01*
X39652446Y-35180612D01*
X39973697Y-35502423D01*
X40393646Y-35676801D01*
X40848359Y-35677198D01*
X40979529Y-35623000D01*
X42205074Y-35623000D01*
X42209838Y-35648317D01*
X42348910Y-35864441D01*
X42561110Y-36009431D01*
X42813000Y-36060440D01*
X44313000Y-36060440D01*
X44548317Y-36016162D01*
X44764441Y-35877090D01*
X44810969Y-35808994D01*
X44953302Y-35951327D01*
X45186691Y-36048000D01*
X45777250Y-36048000D01*
X45936000Y-35889250D01*
X45936000Y-34915000D01*
X46190000Y-34915000D01*
X46190000Y-35889250D01*
X46348750Y-36048000D01*
X46939309Y-36048000D01*
X47172698Y-35951327D01*
X47351327Y-35772699D01*
X47448000Y-35539310D01*
X47448000Y-35073750D01*
X47289250Y-34915000D01*
X46190000Y-34915000D01*
X45936000Y-34915000D01*
X45916000Y-34915000D01*
X45916000Y-34661000D01*
X45936000Y-34661000D01*
X45936000Y-33686750D01*
X46190000Y-33686750D01*
X46190000Y-34661000D01*
X47289250Y-34661000D01*
X47448000Y-34502250D01*
X47448000Y-34036690D01*
X47351327Y-33803301D01*
X47172698Y-33624673D01*
X46939309Y-33528000D01*
X46348750Y-33528000D01*
X46190000Y-33686750D01*
X45936000Y-33686750D01*
X45777250Y-33528000D01*
X45186691Y-33528000D01*
X44953302Y-33624673D01*
X44812064Y-33765910D01*
X44777090Y-33711559D01*
X44564890Y-33566569D01*
X44313000Y-33515560D01*
X42813000Y-33515560D01*
X42577683Y-33559838D01*
X42361559Y-33698910D01*
X42216569Y-33911110D01*
X42208086Y-33953000D01*
X41618664Y-33953000D01*
X41591554Y-33887388D01*
X41270303Y-33565577D01*
X41213160Y-33541849D01*
X41213160Y-31517750D01*
X41917400Y-31517750D01*
X41917400Y-32856909D01*
X42014073Y-33090298D01*
X42192701Y-33268927D01*
X42426090Y-33365600D01*
X43511250Y-33365600D01*
X43670000Y-33206850D01*
X43670000Y-31359000D01*
X43924000Y-31359000D01*
X43924000Y-33206850D01*
X44082750Y-33365600D01*
X45167910Y-33365600D01*
X45401299Y-33268927D01*
X45579927Y-33090298D01*
X45676600Y-32856909D01*
X45676600Y-31517750D01*
X45517850Y-31359000D01*
X43924000Y-31359000D01*
X43670000Y-31359000D01*
X42076150Y-31359000D01*
X41917400Y-31517750D01*
X41213160Y-31517750D01*
X41213160Y-29737573D01*
X41364047Y-29709182D01*
X41522700Y-29607091D01*
X41917400Y-29607091D01*
X41917400Y-30946250D01*
X42076150Y-31105000D01*
X43670000Y-31105000D01*
X43670000Y-29257150D01*
X43924000Y-29257150D01*
X43924000Y-31105000D01*
X45517850Y-31105000D01*
X45676600Y-30946250D01*
X45676600Y-29607091D01*
X45579927Y-29373702D01*
X45401299Y-29195073D01*
X45167910Y-29098400D01*
X44082750Y-29098400D01*
X43924000Y-29257150D01*
X43670000Y-29257150D01*
X43511250Y-29098400D01*
X42426090Y-29098400D01*
X42192701Y-29195073D01*
X42014073Y-29373702D01*
X41917400Y-29607091D01*
X41522700Y-29607091D01*
X41580171Y-29570110D01*
X41725161Y-29357910D01*
X41776170Y-29106020D01*
X41776170Y-28139694D01*
X41781838Y-28169817D01*
X41920910Y-28385941D01*
X42133110Y-28530931D01*
X42385000Y-28581940D01*
X43685000Y-28581940D01*
X43920317Y-28537662D01*
X44136441Y-28398590D01*
X44281431Y-28186390D01*
X44292787Y-28130314D01*
X44298338Y-28159817D01*
X44437410Y-28375941D01*
X44649610Y-28520931D01*
X44901500Y-28571940D01*
X46121500Y-28571940D01*
X46356817Y-28527662D01*
X46572941Y-28388590D01*
X46717931Y-28176390D01*
X46768940Y-27924500D01*
X46768940Y-27014500D01*
X46724662Y-26779183D01*
X46585590Y-26563059D01*
X46373390Y-26418069D01*
X46121500Y-26367060D01*
X45589928Y-26367060D01*
X45140000Y-25917132D01*
X45140000Y-25390000D01*
X45120009Y-25289500D01*
X45225750Y-25289500D01*
X45384500Y-25130750D01*
X45384500Y-24326500D01*
X45638500Y-24326500D01*
X45638500Y-25130750D01*
X45797250Y-25289500D01*
X46247810Y-25289500D01*
X46481199Y-25192827D01*
X46659827Y-25014198D01*
X46756500Y-24780809D01*
X46756500Y-24485250D01*
X46597750Y-24326500D01*
X45638500Y-24326500D01*
X45384500Y-24326500D01*
X45364500Y-24326500D01*
X45364500Y-24072500D01*
X45384500Y-24072500D01*
X45384500Y-23268250D01*
X45638500Y-23268250D01*
X45638500Y-24072500D01*
X46597750Y-24072500D01*
X46756500Y-23913750D01*
X46756500Y-23618191D01*
X46659827Y-23384802D01*
X46481199Y-23206173D01*
X46247810Y-23109500D01*
X45797250Y-23109500D01*
X45638500Y-23268250D01*
X45384500Y-23268250D01*
X45225750Y-23109500D01*
X44775190Y-23109500D01*
X44541801Y-23206173D01*
X44363173Y-23384802D01*
X44296794Y-23545056D01*
X44288162Y-23499183D01*
X44149090Y-23283059D01*
X43936890Y-23138069D01*
X43685000Y-23087060D01*
X43653966Y-23087060D01*
X43668327Y-23072699D01*
X43765000Y-22839310D01*
X43765000Y-22373750D01*
X43606250Y-22215000D01*
X42507000Y-22215000D01*
X42507000Y-22235000D01*
X42253000Y-22235000D01*
X42253000Y-22215000D01*
X42233000Y-22215000D01*
X42233000Y-21961000D01*
X42253000Y-21961000D01*
X42253000Y-21941000D01*
X42507000Y-21941000D01*
X42507000Y-21961000D01*
X43606250Y-21961000D01*
X43765000Y-21802250D01*
X43765000Y-21336690D01*
X43668327Y-21103301D01*
X43533040Y-20968015D01*
X43552179Y-20960087D01*
X43730807Y-20781458D01*
X43827480Y-20548069D01*
X43827480Y-20330066D01*
X44197481Y-20629446D01*
X44719020Y-20783710D01*
X45473400Y-20783710D01*
X45473400Y-19522600D01*
X45727400Y-19522600D01*
X45727400Y-20783710D01*
X46481780Y-20783710D01*
X47003319Y-20629446D01*
X47426124Y-20287340D01*
X47685827Y-19809475D01*
X47700183Y-19737274D01*
X47577562Y-19522600D01*
X45727400Y-19522600D01*
X45473400Y-19522600D01*
X43623238Y-19522600D01*
X43594221Y-19573400D01*
X42069800Y-19573400D01*
X42069800Y-19593400D01*
X41815800Y-19593400D01*
X41815800Y-19573400D01*
X40216870Y-19573400D01*
X40058120Y-19732150D01*
X40058120Y-20548069D01*
X40154793Y-20781458D01*
X40188895Y-20815560D01*
X39130000Y-20815560D01*
X38894683Y-20859838D01*
X38678559Y-20998910D01*
X38533569Y-21211110D01*
X38482560Y-21463000D01*
X38482560Y-22304572D01*
X38334932Y-22452200D01*
X38271646Y-22452200D01*
X38243362Y-22301883D01*
X38104290Y-22085759D01*
X38034489Y-22038066D01*
X38091641Y-22001290D01*
X38236631Y-21789090D01*
X38287640Y-21537200D01*
X38287640Y-20037200D01*
X38243362Y-19801883D01*
X38104290Y-19585759D01*
X38040200Y-19541968D01*
X38040200Y-18405000D01*
X40058120Y-18405000D01*
X40058120Y-19160650D01*
G36*
X22990107Y-44472002D02*
X23033000Y-44455928D01*
X23033000Y-45798900D01*
X25362250Y-45798900D01*
X25369562Y-45791588D01*
X25413301Y-45835327D01*
X25646690Y-45932000D01*
X26112250Y-45932000D01*
X26271000Y-45773250D01*
X26271000Y-44674000D01*
X26251000Y-44674000D01*
X26251000Y-44420000D01*
X26271000Y-44420000D01*
X26271000Y-44400000D01*
X26525000Y-44400000D01*
X26525000Y-44420000D01*
X26545000Y-44420000D01*
X26545000Y-44674000D01*
X26525000Y-44674000D01*
X26525000Y-45773250D01*
X26683750Y-45932000D01*
X27149310Y-45932000D01*
X27382699Y-45835327D01*
X27426438Y-45791588D01*
X27433750Y-45798900D01*
X29763000Y-45798900D01*
X29763000Y-45778900D01*
X30017000Y-45778900D01*
X30017000Y-45798900D01*
X30037000Y-45798900D01*
X30037000Y-46052900D01*
X30017000Y-46052900D01*
X30017000Y-46072900D01*
X29763000Y-46072900D01*
X29763000Y-46052900D01*
X27433750Y-46052900D01*
X27275000Y-46211650D01*
X27275000Y-47512672D01*
X27235282Y-47552390D01*
X27275000Y-47592108D01*
X27275000Y-47692159D01*
X27093357Y-47753352D01*
X26883542Y-48326836D01*
X26909161Y-48936960D01*
X27040898Y-49255000D01*
X25748978Y-49255000D01*
X25912458Y-48808164D01*
X25886839Y-48198040D01*
X25702643Y-47753352D01*
X25521000Y-47692159D01*
X25521000Y-47592108D01*
X25560718Y-47552390D01*
X25521000Y-47512672D01*
X25521000Y-46211650D01*
X25362250Y-46052900D01*
X23033000Y-46052900D01*
X23033000Y-46072900D01*
X22779000Y-46072900D01*
X22779000Y-46052900D01*
X22759000Y-46052900D01*
X22759000Y-45798900D01*
X22779000Y-45798900D01*
X22779000Y-44735672D01*
X22810502Y-44651607D01*
X22779000Y-44620105D01*
X22779000Y-44260895D01*
X22990107Y-44472002D01*
X22990107Y-44472002D01*
G37*
X22990107Y-44472002D02*
X23033000Y-44455928D01*
X23033000Y-45798900D01*
X25362250Y-45798900D01*
X25369562Y-45791588D01*
X25413301Y-45835327D01*
X25646690Y-45932000D01*
X26112250Y-45932000D01*
X26271000Y-45773250D01*
X26271000Y-44674000D01*
X26251000Y-44674000D01*
X26251000Y-44420000D01*
X26271000Y-44420000D01*
X26271000Y-44400000D01*
X26525000Y-44400000D01*
X26525000Y-44420000D01*
X26545000Y-44420000D01*
X26545000Y-44674000D01*
X26525000Y-44674000D01*
X26525000Y-45773250D01*
X26683750Y-45932000D01*
X27149310Y-45932000D01*
X27382699Y-45835327D01*
X27426438Y-45791588D01*
X27433750Y-45798900D01*
X29763000Y-45798900D01*
X29763000Y-45778900D01*
X30017000Y-45778900D01*
X30017000Y-45798900D01*
X30037000Y-45798900D01*
X30037000Y-46052900D01*
X30017000Y-46052900D01*
X30017000Y-46072900D01*
X29763000Y-46072900D01*
X29763000Y-46052900D01*
X27433750Y-46052900D01*
X27275000Y-46211650D01*
X27275000Y-47512672D01*
X27235282Y-47552390D01*
X27275000Y-47592108D01*
X27275000Y-47692159D01*
X27093357Y-47753352D01*
X26883542Y-48326836D01*
X26909161Y-48936960D01*
X27040898Y-49255000D01*
X25748978Y-49255000D01*
X25912458Y-48808164D01*
X25886839Y-48198040D01*
X25702643Y-47753352D01*
X25521000Y-47692159D01*
X25521000Y-47592108D01*
X25560718Y-47552390D01*
X25521000Y-47512672D01*
X25521000Y-46211650D01*
X25362250Y-46052900D01*
X23033000Y-46052900D01*
X23033000Y-46072900D01*
X22779000Y-46072900D01*
X22779000Y-46052900D01*
X22759000Y-46052900D01*
X22759000Y-45798900D01*
X22779000Y-45798900D01*
X22779000Y-44735672D01*
X22810502Y-44651607D01*
X22779000Y-44620105D01*
X22779000Y-44260895D01*
X22990107Y-44472002D01*
G36*
X29041898Y-18434506D02*
X29158078Y-18550686D01*
X28942144Y-18588824D01*
X28797909Y-19020055D01*
X28829678Y-19473657D01*
X28942144Y-19745176D01*
X29158081Y-19783314D01*
X29774395Y-19167000D01*
X29760253Y-19152858D01*
X29939858Y-18973253D01*
X29954000Y-18987395D01*
X29968143Y-18973253D01*
X30147748Y-19152858D01*
X30133605Y-19167000D01*
X30749919Y-19783314D01*
X30965856Y-19745176D01*
X31110091Y-19313945D01*
X31078322Y-18860343D01*
X30965856Y-18588824D01*
X30749922Y-18550686D01*
X30866102Y-18434506D01*
X30836596Y-18405000D01*
X35990200Y-18405000D01*
X35990200Y-19540009D01*
X35938759Y-19573110D01*
X35793769Y-19785310D01*
X35742760Y-20037200D01*
X35742760Y-21537200D01*
X35787038Y-21772517D01*
X35926110Y-21988641D01*
X35995911Y-22036334D01*
X35938759Y-22073110D01*
X35793769Y-22285310D01*
X35742760Y-22537200D01*
X35742760Y-24037200D01*
X35787038Y-24272517D01*
X35926110Y-24488641D01*
X36138310Y-24633631D01*
X36180200Y-24642114D01*
X36180200Y-25457570D01*
X35926810Y-25457570D01*
X35691493Y-25501848D01*
X35475369Y-25640920D01*
X35330379Y-25853120D01*
X35279370Y-26105010D01*
X35279370Y-27629502D01*
X34669940Y-27020072D01*
X34669940Y-26073500D01*
X34625662Y-25838183D01*
X34486590Y-25622059D01*
X34351613Y-25529833D01*
X34455431Y-25377890D01*
X34506440Y-25126000D01*
X34506440Y-23876000D01*
X34462162Y-23640683D01*
X34323090Y-23424559D01*
X34271862Y-23389556D01*
X34272007Y-23223440D01*
X34321317Y-23214162D01*
X34537441Y-23075090D01*
X34682431Y-22862890D01*
X34733440Y-22611000D01*
X34733440Y-21311000D01*
X34689162Y-21075683D01*
X34550090Y-20859559D01*
X34337890Y-20714569D01*
X34086000Y-20663560D01*
X32586000Y-20663560D01*
X32350683Y-20707838D01*
X32134559Y-20846910D01*
X31989569Y-21059110D01*
X31982809Y-21092490D01*
X31924327Y-20951301D01*
X31745698Y-20772673D01*
X31512309Y-20676000D01*
X30921750Y-20676000D01*
X30763000Y-20834750D01*
X30763000Y-21834000D01*
X30783000Y-21834000D01*
X30783000Y-22088000D01*
X30763000Y-22088000D01*
X30763000Y-23087250D01*
X30916750Y-23241000D01*
X30894750Y-23241000D01*
X30736000Y-23399750D01*
X30736000Y-24374000D01*
X30756000Y-24374000D01*
X30756000Y-24628000D01*
X30736000Y-24628000D01*
X30736000Y-24648000D01*
X30482000Y-24648000D01*
X30482000Y-24628000D01*
X29382750Y-24628000D01*
X29224000Y-24786750D01*
X29224000Y-25252310D01*
X29320673Y-25485699D01*
X29415675Y-25580700D01*
X29371059Y-25609410D01*
X29226069Y-25821610D01*
X29175060Y-26073500D01*
X29175060Y-27373500D01*
X29203033Y-27522165D01*
X27741000Y-26060132D01*
X27741000Y-23749690D01*
X29224000Y-23749690D01*
X29224000Y-24215250D01*
X29382750Y-24374000D01*
X30482000Y-24374000D01*
X30482000Y-23399750D01*
X30328250Y-23246000D01*
X30350250Y-23246000D01*
X30509000Y-23087250D01*
X30509000Y-22088000D01*
X29409750Y-22088000D01*
X29251000Y-22246750D01*
X29251000Y-22737310D01*
X29347673Y-22970699D01*
X29526302Y-23149327D01*
X29747620Y-23241000D01*
X29732691Y-23241000D01*
X29499302Y-23337673D01*
X29320673Y-23516301D01*
X29224000Y-23749690D01*
X27741000Y-23749690D01*
X27741000Y-21184690D01*
X29251000Y-21184690D01*
X29251000Y-21675250D01*
X29409750Y-21834000D01*
X30509000Y-21834000D01*
X30509000Y-20834750D01*
X30350250Y-20676000D01*
X29759691Y-20676000D01*
X29526302Y-20772673D01*
X29347673Y-20951301D01*
X29251000Y-21184690D01*
X27741000Y-21184690D01*
X27741000Y-19962919D01*
X29337686Y-19962919D01*
X29375824Y-20178856D01*
X29807055Y-20323091D01*
X30260657Y-20291322D01*
X30532176Y-20178856D01*
X30570314Y-19962919D01*
X29954000Y-19346605D01*
X29337686Y-19962919D01*
X27741000Y-19962919D01*
X27741000Y-18405000D01*
X29071404Y-18405000D01*
X29041898Y-18434506D01*
X29041898Y-18434506D01*
G37*
X29041898Y-18434506D02*
X29158078Y-18550686D01*
X28942144Y-18588824D01*
X28797909Y-19020055D01*
X28829678Y-19473657D01*
X28942144Y-19745176D01*
X29158081Y-19783314D01*
X29774395Y-19167000D01*
X29760253Y-19152858D01*
X29939858Y-18973253D01*
X29954000Y-18987395D01*
X29968143Y-18973253D01*
X30147748Y-19152858D01*
X30133605Y-19167000D01*
X30749919Y-19783314D01*
X30965856Y-19745176D01*
X31110091Y-19313945D01*
X31078322Y-18860343D01*
X30965856Y-18588824D01*
X30749922Y-18550686D01*
X30866102Y-18434506D01*
X30836596Y-18405000D01*
X35990200Y-18405000D01*
X35990200Y-19540009D01*
X35938759Y-19573110D01*
X35793769Y-19785310D01*
X35742760Y-20037200D01*
X35742760Y-21537200D01*
X35787038Y-21772517D01*
X35926110Y-21988641D01*
X35995911Y-22036334D01*
X35938759Y-22073110D01*
X35793769Y-22285310D01*
X35742760Y-22537200D01*
X35742760Y-24037200D01*
X35787038Y-24272517D01*
X35926110Y-24488641D01*
X36138310Y-24633631D01*
X36180200Y-24642114D01*
X36180200Y-25457570D01*
X35926810Y-25457570D01*
X35691493Y-25501848D01*
X35475369Y-25640920D01*
X35330379Y-25853120D01*
X35279370Y-26105010D01*
X35279370Y-27629502D01*
X34669940Y-27020072D01*
X34669940Y-26073500D01*
X34625662Y-25838183D01*
X34486590Y-25622059D01*
X34351613Y-25529833D01*
X34455431Y-25377890D01*
X34506440Y-25126000D01*
X34506440Y-23876000D01*
X34462162Y-23640683D01*
X34323090Y-23424559D01*
X34271862Y-23389556D01*
X34272007Y-23223440D01*
X34321317Y-23214162D01*
X34537441Y-23075090D01*
X34682431Y-22862890D01*
X34733440Y-22611000D01*
X34733440Y-21311000D01*
X34689162Y-21075683D01*
X34550090Y-20859559D01*
X34337890Y-20714569D01*
X34086000Y-20663560D01*
X32586000Y-20663560D01*
X32350683Y-20707838D01*
X32134559Y-20846910D01*
X31989569Y-21059110D01*
X31982809Y-21092490D01*
X31924327Y-20951301D01*
X31745698Y-20772673D01*
X31512309Y-20676000D01*
X30921750Y-20676000D01*
X30763000Y-20834750D01*
X30763000Y-21834000D01*
X30783000Y-21834000D01*
X30783000Y-22088000D01*
X30763000Y-22088000D01*
X30763000Y-23087250D01*
X30916750Y-23241000D01*
X30894750Y-23241000D01*
X30736000Y-23399750D01*
X30736000Y-24374000D01*
X30756000Y-24374000D01*
X30756000Y-24628000D01*
X30736000Y-24628000D01*
X30736000Y-24648000D01*
X30482000Y-24648000D01*
X30482000Y-24628000D01*
X29382750Y-24628000D01*
X29224000Y-24786750D01*
X29224000Y-25252310D01*
X29320673Y-25485699D01*
X29415675Y-25580700D01*
X29371059Y-25609410D01*
X29226069Y-25821610D01*
X29175060Y-26073500D01*
X29175060Y-27373500D01*
X29203033Y-27522165D01*
X27741000Y-26060132D01*
X27741000Y-23749690D01*
X29224000Y-23749690D01*
X29224000Y-24215250D01*
X29382750Y-24374000D01*
X30482000Y-24374000D01*
X30482000Y-23399750D01*
X30328250Y-23246000D01*
X30350250Y-23246000D01*
X30509000Y-23087250D01*
X30509000Y-22088000D01*
X29409750Y-22088000D01*
X29251000Y-22246750D01*
X29251000Y-22737310D01*
X29347673Y-22970699D01*
X29526302Y-23149327D01*
X29747620Y-23241000D01*
X29732691Y-23241000D01*
X29499302Y-23337673D01*
X29320673Y-23516301D01*
X29224000Y-23749690D01*
X27741000Y-23749690D01*
X27741000Y-21184690D01*
X29251000Y-21184690D01*
X29251000Y-21675250D01*
X29409750Y-21834000D01*
X30509000Y-21834000D01*
X30509000Y-20834750D01*
X30350250Y-20676000D01*
X29759691Y-20676000D01*
X29526302Y-20772673D01*
X29347673Y-20951301D01*
X29251000Y-21184690D01*
X27741000Y-21184690D01*
X27741000Y-19962919D01*
X29337686Y-19962919D01*
X29375824Y-20178856D01*
X29807055Y-20323091D01*
X30260657Y-20291322D01*
X30532176Y-20178856D01*
X30570314Y-19962919D01*
X29954000Y-19346605D01*
X29337686Y-19962919D01*
X27741000Y-19962919D01*
X27741000Y-18405000D01*
X29071404Y-18405000D01*
X29041898Y-18434506D01*
G36*
X43894608Y-667216D02*
X42821903Y-1738051D01*
X42240643Y-3137879D01*
X42239320Y-4653591D01*
X42818136Y-6054432D01*
X43888971Y-7127137D01*
X45288799Y-7708397D01*
X46804511Y-7709720D01*
X48205352Y-7130904D01*
X49278057Y-6060069D01*
X49305000Y-5995183D01*
X49305000Y-17389000D01*
X47677735Y-17389000D01*
X47679200Y-17386807D01*
X47784864Y-16855600D01*
X47679200Y-16324393D01*
X47378296Y-15874058D01*
X46927961Y-15573154D01*
X46396754Y-15467490D01*
X44804046Y-15467490D01*
X44272839Y-15573154D01*
X43887544Y-15830600D01*
X43839920Y-15830600D01*
X43839920Y-15423040D01*
X43795642Y-15187723D01*
X43656570Y-14971599D01*
X43444370Y-14826609D01*
X43192480Y-14775600D01*
X40693120Y-14775600D01*
X40631509Y-14787193D01*
X40695000Y-14468000D01*
X40695000Y-14259857D01*
X40728371Y-14246068D01*
X40950668Y-14024159D01*
X41499446Y-14024159D01*
X41585852Y-14280643D01*
X42159336Y-14490458D01*
X42769460Y-14464839D01*
X43214148Y-14280643D01*
X43300554Y-14024159D01*
X44039446Y-14024159D01*
X44125852Y-14280643D01*
X44699336Y-14490458D01*
X45309460Y-14464839D01*
X45754148Y-14280643D01*
X45840554Y-14024159D01*
X46579446Y-14024159D01*
X46665852Y-14280643D01*
X47239336Y-14490458D01*
X47849460Y-14464839D01*
X48294148Y-14280643D01*
X48380554Y-14024159D01*
X47480000Y-13123605D01*
X46579446Y-14024159D01*
X45840554Y-14024159D01*
X44940000Y-13123605D01*
X44039446Y-14024159D01*
X43300554Y-14024159D01*
X42400000Y-13123605D01*
X41499446Y-14024159D01*
X40950668Y-14024159D01*
X41160551Y-13814643D01*
X41169203Y-13793806D01*
X41319841Y-13844554D01*
X42220395Y-12944000D01*
X42579605Y-12944000D01*
X43480159Y-13844554D01*
X43670000Y-13780599D01*
X43859841Y-13844554D01*
X44760395Y-12944000D01*
X43859841Y-12043446D01*
X43670000Y-12107401D01*
X43480159Y-12043446D01*
X42579605Y-12944000D01*
X42220395Y-12944000D01*
X41319841Y-12043446D01*
X41169673Y-12094035D01*
X41162068Y-12075629D01*
X40760818Y-11673677D01*
X41130323Y-11304818D01*
X41529357Y-11704551D01*
X41550194Y-11713203D01*
X41499446Y-11863841D01*
X42400000Y-12764395D01*
X43300554Y-11863841D01*
X43249965Y-11713673D01*
X43268371Y-11706068D01*
X43670323Y-11304818D01*
X44069357Y-11704551D01*
X44090194Y-11713203D01*
X44039446Y-11863841D01*
X44940000Y-12764395D01*
X45840554Y-11863841D01*
X45789965Y-11713673D01*
X45808371Y-11706068D01*
X45976613Y-11538120D01*
X45976838Y-11539317D01*
X46115910Y-11755441D01*
X46319574Y-11894598D01*
X46285282Y-11928890D01*
X46399839Y-12043447D01*
X46210000Y-12107401D01*
X46020159Y-12043446D01*
X45119605Y-12944000D01*
X46020159Y-13844554D01*
X46210000Y-13780599D01*
X46399841Y-13844554D01*
X47300395Y-12944000D01*
X47286253Y-12929858D01*
X47465858Y-12750253D01*
X47480000Y-12764395D01*
X47494143Y-12750253D01*
X47673748Y-12929858D01*
X47659605Y-12944000D01*
X48560159Y-13844554D01*
X48816643Y-13758148D01*
X49026458Y-13184664D01*
X49000839Y-12574540D01*
X48816643Y-12129852D01*
X48560161Y-12043447D01*
X48674718Y-11928890D01*
X48638240Y-11892412D01*
X48831441Y-11768090D01*
X48976431Y-11555890D01*
X49027440Y-11304000D01*
X49027440Y-9504000D01*
X48983162Y-9268683D01*
X48844090Y-9052559D01*
X48631890Y-8907569D01*
X48380000Y-8856560D01*
X46580000Y-8856560D01*
X46344683Y-8900838D01*
X46128559Y-9039910D01*
X45983569Y-9252110D01*
X45979433Y-9272534D01*
X45810643Y-9103449D01*
X45246670Y-8869267D01*
X44636009Y-8868735D01*
X44071629Y-9101932D01*
X43669677Y-9503182D01*
X43270643Y-9103449D01*
X42706670Y-8869267D01*
X42096009Y-8868735D01*
X41531629Y-9101932D01*
X41129677Y-9503182D01*
X40730643Y-9103449D01*
X40166670Y-8869267D01*
X39556009Y-8868735D01*
X38991629Y-9101932D01*
X38589677Y-9503182D01*
X38190643Y-9103449D01*
X37626670Y-8869267D01*
X37016009Y-8868735D01*
X36451629Y-9101932D01*
X36049677Y-9503182D01*
X35650643Y-9103449D01*
X35086670Y-8869267D01*
X34476009Y-8868735D01*
X33911629Y-9101932D01*
X33509677Y-9503182D01*
X33110643Y-9103449D01*
X32546670Y-8869267D01*
X31936009Y-8868735D01*
X31371629Y-9101932D01*
X31094076Y-9379000D01*
X26753600Y-9379000D01*
X26380725Y-9453169D01*
X26361349Y-9457023D01*
X26028815Y-9679216D01*
X22011032Y-13697000D01*
X8609061Y-13697000D01*
X8604582Y-11783560D01*
X8619071Y-11769071D01*
X8708048Y-11680095D01*
X8913983Y-11371893D01*
X8922647Y-11350977D01*
X9010293Y-11139382D01*
X9082607Y-10775833D01*
X9082607Y-10712305D01*
X9095000Y-10650000D01*
X9095000Y-645000D01*
X43948375Y-645000D01*
X43894608Y-667216D01*
X43894608Y-667216D01*
G37*
X43894608Y-667216D02*
X42821903Y-1738051D01*
X42240643Y-3137879D01*
X42239320Y-4653591D01*
X42818136Y-6054432D01*
X43888971Y-7127137D01*
X45288799Y-7708397D01*
X46804511Y-7709720D01*
X48205352Y-7130904D01*
X49278057Y-6060069D01*
X49305000Y-5995183D01*
X49305000Y-17389000D01*
X47677735Y-17389000D01*
X47679200Y-17386807D01*
X47784864Y-16855600D01*
X47679200Y-16324393D01*
X47378296Y-15874058D01*
X46927961Y-15573154D01*
X46396754Y-15467490D01*
X44804046Y-15467490D01*
X44272839Y-15573154D01*
X43887544Y-15830600D01*
X43839920Y-15830600D01*
X43839920Y-15423040D01*
X43795642Y-15187723D01*
X43656570Y-14971599D01*
X43444370Y-14826609D01*
X43192480Y-14775600D01*
X40693120Y-14775600D01*
X40631509Y-14787193D01*
X40695000Y-14468000D01*
X40695000Y-14259857D01*
X40728371Y-14246068D01*
X40950668Y-14024159D01*
X41499446Y-14024159D01*
X41585852Y-14280643D01*
X42159336Y-14490458D01*
X42769460Y-14464839D01*
X43214148Y-14280643D01*
X43300554Y-14024159D01*
X44039446Y-14024159D01*
X44125852Y-14280643D01*
X44699336Y-14490458D01*
X45309460Y-14464839D01*
X45754148Y-14280643D01*
X45840554Y-14024159D01*
X46579446Y-14024159D01*
X46665852Y-14280643D01*
X47239336Y-14490458D01*
X47849460Y-14464839D01*
X48294148Y-14280643D01*
X48380554Y-14024159D01*
X47480000Y-13123605D01*
X46579446Y-14024159D01*
X45840554Y-14024159D01*
X44940000Y-13123605D01*
X44039446Y-14024159D01*
X43300554Y-14024159D01*
X42400000Y-13123605D01*
X41499446Y-14024159D01*
X40950668Y-14024159D01*
X41160551Y-13814643D01*
X41169203Y-13793806D01*
X41319841Y-13844554D01*
X42220395Y-12944000D01*
X42579605Y-12944000D01*
X43480159Y-13844554D01*
X43670000Y-13780599D01*
X43859841Y-13844554D01*
X44760395Y-12944000D01*
X43859841Y-12043446D01*
X43670000Y-12107401D01*
X43480159Y-12043446D01*
X42579605Y-12944000D01*
X42220395Y-12944000D01*
X41319841Y-12043446D01*
X41169673Y-12094035D01*
X41162068Y-12075629D01*
X40760818Y-11673677D01*
X41130323Y-11304818D01*
X41529357Y-11704551D01*
X41550194Y-11713203D01*
X41499446Y-11863841D01*
X42400000Y-12764395D01*
X43300554Y-11863841D01*
X43249965Y-11713673D01*
X43268371Y-11706068D01*
X43670323Y-11304818D01*
X44069357Y-11704551D01*
X44090194Y-11713203D01*
X44039446Y-11863841D01*
X44940000Y-12764395D01*
X45840554Y-11863841D01*
X45789965Y-11713673D01*
X45808371Y-11706068D01*
X45976613Y-11538120D01*
X45976838Y-11539317D01*
X46115910Y-11755441D01*
X46319574Y-11894598D01*
X46285282Y-11928890D01*
X46399839Y-12043447D01*
X46210000Y-12107401D01*
X46020159Y-12043446D01*
X45119605Y-12944000D01*
X46020159Y-13844554D01*
X46210000Y-13780599D01*
X46399841Y-13844554D01*
X47300395Y-12944000D01*
X47286253Y-12929858D01*
X47465858Y-12750253D01*
X47480000Y-12764395D01*
X47494143Y-12750253D01*
X47673748Y-12929858D01*
X47659605Y-12944000D01*
X48560159Y-13844554D01*
X48816643Y-13758148D01*
X49026458Y-13184664D01*
X49000839Y-12574540D01*
X48816643Y-12129852D01*
X48560161Y-12043447D01*
X48674718Y-11928890D01*
X48638240Y-11892412D01*
X48831441Y-11768090D01*
X48976431Y-11555890D01*
X49027440Y-11304000D01*
X49027440Y-9504000D01*
X48983162Y-9268683D01*
X48844090Y-9052559D01*
X48631890Y-8907569D01*
X48380000Y-8856560D01*
X46580000Y-8856560D01*
X46344683Y-8900838D01*
X46128559Y-9039910D01*
X45983569Y-9252110D01*
X45979433Y-9272534D01*
X45810643Y-9103449D01*
X45246670Y-8869267D01*
X44636009Y-8868735D01*
X44071629Y-9101932D01*
X43669677Y-9503182D01*
X43270643Y-9103449D01*
X42706670Y-8869267D01*
X42096009Y-8868735D01*
X41531629Y-9101932D01*
X41129677Y-9503182D01*
X40730643Y-9103449D01*
X40166670Y-8869267D01*
X39556009Y-8868735D01*
X38991629Y-9101932D01*
X38589677Y-9503182D01*
X38190643Y-9103449D01*
X37626670Y-8869267D01*
X37016009Y-8868735D01*
X36451629Y-9101932D01*
X36049677Y-9503182D01*
X35650643Y-9103449D01*
X35086670Y-8869267D01*
X34476009Y-8868735D01*
X33911629Y-9101932D01*
X33509677Y-9503182D01*
X33110643Y-9103449D01*
X32546670Y-8869267D01*
X31936009Y-8868735D01*
X31371629Y-9101932D01*
X31094076Y-9379000D01*
X26753600Y-9379000D01*
X26380725Y-9453169D01*
X26361349Y-9457023D01*
X26028815Y-9679216D01*
X22011032Y-13697000D01*
X8609061Y-13697000D01*
X8604582Y-11783560D01*
X8619071Y-11769071D01*
X8708048Y-11680095D01*
X8913983Y-11371893D01*
X8922647Y-11350977D01*
X9010293Y-11139382D01*
X9082607Y-10775833D01*
X9082607Y-10712305D01*
X9095000Y-10650000D01*
X9095000Y-645000D01*
X43948375Y-645000D01*
X43894608Y-667216D01*
M02*
