M48
;DRILL file {KiCad 4.0.2-4+6225~38~ubuntu14.04.1-stable} date Tue 19 Apr 2016 03:22:52 PM EDT
;FORMAT={3:3/ absolute / metric / keep zeros}
FMAT,2
METRIC,TZ
T1C0.508
T2C0.635
T3C0.711
T4C0.762
T5C0.800
T6C0.900
T7C0.998
T8C1.100
T9C1.524
T10C1.600
T11C1.778
T12C3.900
%
G90
G05
M71
T1
X006840Y-028184
X006850Y-022200
X006850Y-025200
X013952Y-032375
X018524Y-030216
X019540Y-012741
X021191Y-017516
X023223Y-019675
X024112Y-032629
X025636Y-015992
X026144Y-039868
X028938Y-013579
X029954Y-019167
X030970Y-040122
X033129Y-023231
X038971Y-039360
X040622Y-034534
X044813Y-039360
T2
X014841Y-017389
X019286Y-040884
X022080Y-040122
X034018Y-040122
X036685Y-040122
T3
X011412Y-032375
X011412Y-034915
X016492Y-032375
X016492Y-034915
X032113Y-031232
X032113Y-036312
X034653Y-031232
X034653Y-033772
X034653Y-036312
T4
X032240Y-010404
X032240Y-012944
T5
X040368Y-041265
T6
X034780Y-010404
X034780Y-012944
X037320Y-010404
X037320Y-012944
X039860Y-010404
X039860Y-012944
X042400Y-010404
X042400Y-012944
X044940Y-010404
X044940Y-012944
X047480Y-010404
X047480Y-012944
T7
X045600Y-016856
X045600Y-019396
T8
X014206Y-048568
X019286Y-048568
X024366Y-048568
X028430Y-048568
X033510Y-048568
X038590Y-048568
T9
X019286Y-046028
X033510Y-046028
T10
X016746Y-043488
X016746Y-048568
X021826Y-043488
X021826Y-048568
X030970Y-043488
X030970Y-048568
X036050Y-043488
X036050Y-048568
T11
X043797Y-031232
T12
X046050Y-003899
X046050Y-046000
T0
M30
