G04 #@! TF.FileFunction,Copper,L1,Top,Signal*
%FSLAX46Y46*%
G04 Gerber Fmt 4.6, Leading zero omitted, Abs format (unit mm)*
G04 Created by KiCad (PCBNEW 4.0.2-4+6225~38~ubuntu14.04.1-stable) date Tue 19 Apr 2016 03:22:28 PM EDT*
%MOMM*%
G01*
G04 APERTURE LIST*
%ADD10C,0.100000*%
%ADD11R,1.800000X1.800000*%
%ADD12C,1.800000*%
%ADD13R,4.200000X0.700000*%
%ADD14R,2.200000X0.600000*%
%ADD15R,1.250000X1.500000*%
%ADD16R,1.500000X1.250000*%
%ADD17R,1.300000X1.500000*%
%ADD18C,1.143000*%
%ADD19R,0.400000X1.000000*%
%ADD20O,3.014980X1.506220*%
%ADD21R,1.800000X5.000000*%
%ADD22R,3.960000X7.543800*%
%ADD23C,2.032000*%
%ADD24R,1.500000X1.300000*%
%ADD25C,1.651000*%
%ADD26C,1.501140*%
%ADD27R,1.143000X0.508000*%
%ADD28R,2.489200X2.997200*%
%ADD29C,6.350000*%
%ADD30C,1.016000*%
%ADD31R,0.762000X1.016000*%
%ADD32R,1.270000X1.524000*%
%ADD33C,0.250000*%
%ADD34C,0.400000*%
%ADD35C,0.780000*%
%ADD36C,1.000000*%
%ADD37C,0.254000*%
G04 APERTURE END LIST*
D10*
D11*
X47480000Y-10404000D03*
D12*
X44940000Y-10404000D03*
X42400000Y-10404000D03*
X39860000Y-10404000D03*
X37320000Y-10404000D03*
X34780000Y-10404000D03*
X47480000Y-12944000D03*
X44940000Y-12944000D03*
X42400000Y-12944000D03*
X39860000Y-12944000D03*
X37320000Y-12944000D03*
X34780000Y-12944000D03*
X32240000Y-12944000D03*
X32240000Y-10404000D03*
D13*
X3550000Y-31200000D03*
X3550000Y-30200000D03*
X3550000Y-29200000D03*
X3550000Y-28200000D03*
X3550000Y-27200000D03*
X3550000Y-26200000D03*
X3550000Y-25200000D03*
X3550000Y-24200000D03*
X3550000Y-23200000D03*
X3550000Y-22200000D03*
X3550000Y-21200000D03*
X3550000Y-18200000D03*
X3550000Y-17200000D03*
X3550000Y-16200000D03*
X3550000Y-15200000D03*
X3550000Y-14200000D03*
X3550000Y-13200000D03*
X3550000Y-12200000D03*
D14*
X14550000Y-4720000D03*
X14550000Y-5990000D03*
X14550000Y-7260000D03*
X14550000Y-8530000D03*
X14550000Y-9800000D03*
X14550000Y-11070000D03*
X14550000Y-12340000D03*
X14550000Y-13610000D03*
X14550000Y-14880000D03*
X23750000Y-4720000D03*
X23750000Y-5990000D03*
X23750000Y-7260000D03*
X23750000Y-8530000D03*
X23750000Y-9800000D03*
X23750000Y-11070000D03*
X23750000Y-12340000D03*
X23750000Y-13610000D03*
X23750000Y-14880000D03*
D15*
X13825000Y-23378000D03*
X13825000Y-25878000D03*
X16365000Y-23378000D03*
X16365000Y-25878000D03*
X24366000Y-23886000D03*
X24366000Y-26386000D03*
X30970000Y-23251000D03*
X30970000Y-25751000D03*
D16*
X34252000Y-20564000D03*
X31752000Y-20564000D03*
X33617000Y-28311000D03*
X31117000Y-28311000D03*
D17*
X10650000Y-28518000D03*
X10650000Y-25818000D03*
X10650000Y-23438000D03*
X10650000Y-20738000D03*
D18*
X36685000Y-40122000D03*
X22080000Y-40122000D03*
X19286000Y-40884000D03*
X34018000Y-40122000D03*
D19*
X28938000Y-38090000D03*
X28288000Y-38090000D03*
X27638000Y-38090000D03*
X27638000Y-40040000D03*
X28288000Y-40040000D03*
X28938000Y-40040000D03*
D18*
X14841000Y-17389000D03*
D20*
X45600400Y-19395600D03*
X45600400Y-16855600D03*
D12*
X28430000Y-48567500D03*
X38590000Y-48567500D03*
D21*
X33510000Y-47187500D03*
D22*
X37130000Y-45925900D03*
X29890000Y-45925900D03*
D23*
X30970000Y-48567500D03*
X36050000Y-48567500D03*
D12*
X33510000Y-48567500D03*
D23*
X36050000Y-43487500D03*
X30970000Y-43487500D03*
X33510000Y-46027500D03*
D12*
X14206000Y-48567500D03*
X24366000Y-48567500D03*
D21*
X19286000Y-47187500D03*
D22*
X22906000Y-45925900D03*
X15666000Y-45925900D03*
D23*
X16746000Y-48567500D03*
X21826000Y-48567500D03*
D12*
X19286000Y-48567500D03*
D23*
X21826000Y-43487500D03*
X16746000Y-43487500D03*
X19286000Y-46027500D03*
D15*
X42654000Y-41880000D03*
X42654000Y-39380000D03*
D17*
X48496000Y-41726000D03*
X48496000Y-39026000D03*
X37320000Y-38043000D03*
X37320000Y-35343000D03*
X37320000Y-30517000D03*
X37320000Y-33217000D03*
D24*
X34446000Y-23358000D03*
X37146000Y-23358000D03*
X37146000Y-25644000D03*
X34446000Y-25644000D03*
X40415000Y-25771000D03*
X43115000Y-25771000D03*
X40415000Y-22850000D03*
X43115000Y-22850000D03*
X47433000Y-36947000D03*
X44733000Y-36947000D03*
X42480000Y-37074000D03*
X39780000Y-37074000D03*
X14126000Y-20691000D03*
X16826000Y-20691000D03*
X16699000Y-28565000D03*
X13999000Y-28565000D03*
D17*
X21064000Y-20611000D03*
X21064000Y-23311000D03*
X21191000Y-29661000D03*
X21191000Y-26961000D03*
D24*
X25302000Y-20564000D03*
X28002000Y-20564000D03*
X25302000Y-29581000D03*
X28002000Y-29581000D03*
D25*
X34653000Y-36312000D03*
X34653000Y-33772000D03*
X34653000Y-31232000D03*
X32113000Y-31232000D03*
X32113000Y-36312000D03*
D26*
X40368000Y-41265000D03*
D27*
X40622000Y-33137000D03*
X40622000Y-31867000D03*
X40622000Y-30597000D03*
X40622000Y-29327000D03*
X46972000Y-29327000D03*
X46972000Y-30597000D03*
X46972000Y-31867000D03*
X46972000Y-33137000D03*
D28*
X43797000Y-31232000D03*
D29*
X46049980Y-3899060D03*
X46049980Y-45999560D03*
D30*
X23223000Y-19675000D03*
X29954000Y-19167000D03*
X18524000Y-30216000D03*
D25*
X16492000Y-32375000D03*
D30*
X13952000Y-32375000D03*
D25*
X11412000Y-32375000D03*
X11412000Y-34915000D03*
X16492000Y-34915000D03*
D31*
X13952000Y-31613000D03*
D32*
X12428000Y-31867000D03*
X15476000Y-31867000D03*
X12428000Y-35423000D03*
X15476000Y-35423000D03*
D15*
X11031000Y-42936000D03*
X11031000Y-45436000D03*
X16365000Y-37856000D03*
X16365000Y-40356000D03*
D16*
X22060000Y-37582000D03*
X19560000Y-37582000D03*
D24*
X11078000Y-37963000D03*
X13778000Y-37963000D03*
X19714000Y-35169000D03*
X22414000Y-35169000D03*
D16*
X13678000Y-40249000D03*
X11178000Y-40249000D03*
X22314000Y-32756000D03*
X19814000Y-32756000D03*
D17*
X18778000Y-25978000D03*
X18778000Y-23278000D03*
X27668000Y-26486000D03*
X27668000Y-23786000D03*
D30*
X26144000Y-39868000D03*
X25636000Y-15992000D03*
X6850000Y-25200000D03*
X6840000Y-28184000D03*
X6850000Y-22200000D03*
X33129000Y-23231000D03*
X30970000Y-40122000D03*
X19540000Y-12740800D03*
X28938000Y-13579000D03*
X21191000Y-17516000D03*
X44813000Y-39360000D03*
X38971000Y-39360000D03*
X40622000Y-34534000D03*
X24112000Y-32629000D03*
D33*
X11412000Y-32375000D02*
X11920000Y-32375000D01*
X11920000Y-32375000D02*
X12428000Y-31867000D01*
X3550000Y-30200000D02*
X8221000Y-30200000D01*
X9888000Y-30851000D02*
X11412000Y-32375000D01*
X8872000Y-30851000D02*
X9888000Y-30851000D01*
X8221000Y-30200000D02*
X8872000Y-30851000D01*
X3550000Y-29200000D02*
X8364000Y-29200000D01*
X15476000Y-30851000D02*
X15476000Y-31359000D01*
X14714000Y-30089000D02*
X15476000Y-30851000D01*
X9253000Y-30089000D02*
X14714000Y-30089000D01*
X8364000Y-29200000D02*
X9253000Y-30089000D01*
X15476000Y-31359000D02*
X16492000Y-32375000D01*
D34*
X27638000Y-40040000D02*
X26316000Y-40040000D01*
X26144000Y-39868000D02*
X26316000Y-40040000D01*
X25636000Y-15992000D02*
X12783600Y-15992000D01*
D33*
X3550000Y-21200000D02*
X8236000Y-21200000D01*
X13133600Y-13610000D02*
X14550000Y-13610000D01*
X12783600Y-13960000D02*
X13133600Y-13610000D01*
X12783600Y-18227200D02*
X12783600Y-15992000D01*
X12783600Y-15992000D02*
X12783600Y-13960000D01*
X12072400Y-18938400D02*
X12783600Y-18227200D01*
X9532400Y-18938400D02*
X12072400Y-18938400D01*
X8922800Y-19548000D02*
X9532400Y-18938400D01*
X8922800Y-20513200D02*
X8922800Y-19548000D01*
X8236000Y-21200000D02*
X8922800Y-20513200D01*
X12050000Y-17700000D02*
X12050000Y-12900000D01*
X12610000Y-12340000D02*
X14550000Y-12340000D01*
X12050000Y-12900000D02*
X12610000Y-12340000D01*
X3550000Y-18200000D02*
X11550000Y-18200000D01*
X11550000Y-18200000D02*
X12050000Y-17700000D01*
X3550000Y-17200000D02*
X10521500Y-17200000D01*
X12778000Y-11070000D02*
X14550000Y-11070000D01*
X11539000Y-12309000D02*
X12778000Y-11070000D01*
X11539000Y-16309500D02*
X11539000Y-12309000D01*
X10521500Y-17200000D02*
X11539000Y-16309500D01*
X3550000Y-16200000D02*
X10550000Y-16200000D01*
X11050000Y-15700000D02*
X11050000Y-10300000D01*
X10550000Y-16200000D02*
X11050000Y-15700000D01*
X11550000Y-9800000D02*
X14550000Y-9800000D01*
X11050000Y-10300000D02*
X11550000Y-9800000D01*
X3550000Y-15200000D02*
X10050000Y-15200000D01*
X10050000Y-15200000D02*
X10550000Y-14700000D01*
X10550000Y-14700000D02*
X10550000Y-9100000D01*
X11120000Y-8530000D02*
X14550000Y-8530000D01*
X10550000Y-9100000D02*
X11120000Y-8530000D01*
X10050000Y-13700000D02*
X10050000Y-7800000D01*
X9550000Y-14200000D02*
X10050000Y-13700000D01*
X3550000Y-14200000D02*
X9550000Y-14200000D01*
X10590000Y-7260000D02*
X14550000Y-7260000D01*
X10050000Y-7800000D02*
X10590000Y-7260000D01*
X9550000Y-12700000D02*
X9550000Y-6500000D01*
X9050000Y-13200000D02*
X9550000Y-12700000D01*
X3550000Y-13200000D02*
X9050000Y-13200000D01*
X10060000Y-5990000D02*
X14550000Y-5990000D01*
X9550000Y-6500000D02*
X10060000Y-5990000D01*
X9050000Y-11700000D02*
X9050000Y-5300000D01*
X8550000Y-12200000D02*
X9050000Y-11700000D01*
X3550000Y-12200000D02*
X8550000Y-12200000D01*
X9630000Y-4720000D02*
X14550000Y-4720000D01*
X9050000Y-5300000D02*
X9630000Y-4720000D01*
D35*
X29954000Y-19167000D02*
X29954000Y-18786000D01*
X29954000Y-18786000D02*
X29827000Y-18913000D01*
X29827000Y-18913000D02*
X23985000Y-18913000D01*
X23985000Y-18913000D02*
X23223000Y-19675000D01*
X42019000Y-19548000D02*
X41511000Y-19548000D01*
X40876000Y-18913000D02*
X30208000Y-18913000D01*
X41511000Y-19548000D02*
X40876000Y-18913000D01*
X30208000Y-18913000D02*
X29954000Y-19167000D01*
D34*
X16492000Y-34915000D02*
X15984000Y-34915000D01*
X15984000Y-34915000D02*
X15476000Y-35423000D01*
D36*
X16365000Y-40503000D02*
X16365000Y-40356000D01*
X17762000Y-41900000D02*
X16365000Y-40503000D01*
X12682000Y-41900000D02*
X17762000Y-41900000D01*
X12682000Y-45289000D02*
X12682000Y-41900000D01*
X12535000Y-45436000D02*
X12682000Y-45289000D01*
X11031000Y-45436000D02*
X12535000Y-45436000D01*
D34*
X3550000Y-31200000D02*
X8078000Y-31200000D01*
X9380000Y-32502000D02*
X9380000Y-34280000D01*
X8078000Y-31200000D02*
X9380000Y-32502000D01*
D36*
X26448800Y-45760800D02*
X23071100Y-45760800D01*
X23071100Y-45760800D02*
X22906000Y-45925900D01*
X26448800Y-45760800D02*
X29724900Y-45760800D01*
X29724900Y-45760800D02*
X29890000Y-45925900D01*
D34*
X6850000Y-25200000D02*
X8174000Y-25200000D01*
X3550000Y-25200000D02*
X6850000Y-25200000D01*
X8174000Y-25200000D02*
X9227600Y-26253600D01*
X9075200Y-28184000D02*
X6840000Y-28184000D01*
X6824000Y-28200000D02*
X6840000Y-28184000D01*
X6824000Y-28200000D02*
X3550000Y-28200000D01*
X6850000Y-22200000D02*
X9188000Y-22200000D01*
X3550000Y-22200000D02*
X6850000Y-22200000D01*
X9188000Y-22200000D02*
X10650000Y-20738000D01*
X28288000Y-38090000D02*
X28288000Y-36424000D01*
X28288000Y-36424000D02*
X28176000Y-36312000D01*
X13825000Y-23378000D02*
X10710000Y-23378000D01*
X10710000Y-23378000D02*
X10650000Y-23438000D01*
X14126000Y-20691000D02*
X14126000Y-23077000D01*
X14126000Y-23077000D02*
X13825000Y-23378000D01*
X3550000Y-23200000D02*
X10412000Y-23200000D01*
X10412000Y-23200000D02*
X10650000Y-23438000D01*
X18778000Y-23278000D02*
X16465000Y-23278000D01*
X16465000Y-23278000D02*
X16365000Y-23378000D01*
X16826000Y-20691000D02*
X16826000Y-22917000D01*
X16826000Y-22917000D02*
X16365000Y-23378000D01*
X21064000Y-20611000D02*
X16906000Y-20611000D01*
X16906000Y-20611000D02*
X16826000Y-20691000D01*
X24366000Y-23886000D02*
X27568000Y-23886000D01*
X27568000Y-23886000D02*
X27668000Y-23786000D01*
X24366000Y-23886000D02*
X21639000Y-23886000D01*
X21639000Y-23886000D02*
X21064000Y-23311000D01*
X25302000Y-20564000D02*
X25302000Y-22950000D01*
X25302000Y-22950000D02*
X24366000Y-23886000D01*
D33*
X33256000Y-23358000D02*
X34446000Y-23358000D01*
X33129000Y-23231000D02*
X33256000Y-23358000D01*
D34*
X34446000Y-23358000D02*
X34446000Y-24501000D01*
X34446000Y-24501000D02*
X34446000Y-25644000D01*
D33*
X15037800Y-17784200D02*
X15106000Y-17208000D01*
D34*
X30888000Y-40040000D02*
X28938000Y-40040000D01*
X30970000Y-40122000D02*
X30888000Y-40040000D01*
X14550000Y-14880000D02*
X17400800Y-14880000D01*
X17400800Y-14880000D02*
X19540000Y-12740800D01*
X39606000Y-3546000D02*
X39860000Y-3546000D01*
X26240000Y-4720000D02*
X27414000Y-3546000D01*
X27414000Y-3546000D02*
X39606000Y-3546000D01*
X23750000Y-4720000D02*
X26240000Y-4720000D01*
X45194000Y-8118000D02*
X47480000Y-10404000D01*
X44432000Y-8118000D02*
X45194000Y-8118000D01*
X39860000Y-3546000D02*
X44432000Y-8118000D01*
X23750000Y-5990000D02*
X26494000Y-5990000D01*
X39098000Y-4562000D02*
X44940000Y-10404000D01*
X27922000Y-4562000D02*
X39098000Y-4562000D01*
X27414000Y-5070000D02*
X27922000Y-4562000D01*
X26494000Y-5990000D02*
X27414000Y-5070000D01*
X23750000Y-7260000D02*
X27510000Y-7260000D01*
X42400000Y-9388000D02*
X42400000Y-10404000D01*
X38590000Y-5578000D02*
X42400000Y-9388000D01*
X28176000Y-5578000D02*
X38590000Y-5578000D01*
X27668000Y-6086000D02*
X28176000Y-5578000D01*
X27668000Y-7102000D02*
X27668000Y-6086000D01*
X27510000Y-7260000D02*
X27668000Y-7102000D01*
X23750000Y-8530000D02*
X28018000Y-8530000D01*
X39860000Y-8372000D02*
X39860000Y-10404000D01*
X38082000Y-6594000D02*
X39860000Y-8372000D01*
X28684000Y-6594000D02*
X38082000Y-6594000D01*
X28430000Y-6848000D02*
X28684000Y-6594000D01*
X28430000Y-8118000D02*
X28430000Y-6848000D01*
X28018000Y-8530000D02*
X28430000Y-8118000D01*
X23750000Y-13610000D02*
X28907000Y-13610000D01*
X28907000Y-13610000D02*
X28938000Y-13579000D01*
X23750000Y-9800000D02*
X29034000Y-9800000D01*
X37320000Y-7610000D02*
X37320000Y-10404000D01*
X37066000Y-7356000D02*
X37320000Y-7610000D01*
X29700000Y-7356000D02*
X37066000Y-7356000D01*
X29446000Y-7610000D02*
X29700000Y-7356000D01*
X29446000Y-9388000D02*
X29446000Y-7610000D01*
X29034000Y-9800000D02*
X29446000Y-9388000D01*
X23750000Y-11070000D02*
X29542000Y-11070000D01*
X34780000Y-8626000D02*
X34780000Y-10404000D01*
X34526000Y-8372000D02*
X34780000Y-8626000D01*
X30970000Y-8372000D02*
X34526000Y-8372000D01*
X30208000Y-9134000D02*
X30970000Y-8372000D01*
X30208000Y-10404000D02*
X30208000Y-9134000D01*
X29542000Y-11070000D02*
X30208000Y-10404000D01*
X23750000Y-14880000D02*
X28334000Y-14880000D01*
X37320000Y-14722000D02*
X37320000Y-12944000D01*
X36050000Y-15992000D02*
X37320000Y-14722000D01*
X29446000Y-15992000D02*
X36050000Y-15992000D01*
X28334000Y-14880000D02*
X29446000Y-15992000D01*
D33*
X23750000Y-14880000D02*
X23889000Y-14880000D01*
X23750000Y-14880000D02*
X24524000Y-14880000D01*
D34*
X23750000Y-14880000D02*
X23930000Y-14880000D01*
X23750000Y-14880000D02*
X23830000Y-14880000D01*
X23750000Y-12340000D02*
X29858000Y-12340000D01*
X34780000Y-14214000D02*
X34780000Y-12944000D01*
X34018000Y-14976000D02*
X34780000Y-14214000D01*
X30462000Y-14976000D02*
X34018000Y-14976000D01*
X30462000Y-12944000D02*
X30462000Y-14976000D01*
X29858000Y-12340000D02*
X30462000Y-12944000D01*
X13825000Y-25878000D02*
X13825000Y-28391000D01*
X13825000Y-28391000D02*
X13999000Y-28565000D01*
X10650000Y-25818000D02*
X13765000Y-25818000D01*
X13765000Y-25818000D02*
X13825000Y-25878000D01*
X10062000Y-25818000D02*
X10650000Y-25818000D01*
X8444000Y-24200000D02*
X10062000Y-25818000D01*
X3550000Y-24200000D02*
X8444000Y-24200000D01*
X16699000Y-28565000D02*
X16699000Y-26212000D01*
X16699000Y-26212000D02*
X16365000Y-25878000D01*
X18778000Y-25978000D02*
X16465000Y-25978000D01*
X16465000Y-25978000D02*
X16365000Y-25878000D01*
X16699000Y-28565000D02*
X20095000Y-28565000D01*
X20095000Y-28565000D02*
X21191000Y-29661000D01*
X24366000Y-26386000D02*
X27568000Y-26386000D01*
X27568000Y-26386000D02*
X27668000Y-26486000D01*
X24366000Y-26386000D02*
X21766000Y-26386000D01*
X21766000Y-26386000D02*
X21191000Y-26961000D01*
X25302000Y-29581000D02*
X25302000Y-27322000D01*
X25302000Y-27322000D02*
X24366000Y-26386000D01*
X30970000Y-23251000D02*
X30970000Y-21346000D01*
X30970000Y-21346000D02*
X31752000Y-20564000D01*
X28002000Y-20564000D02*
X31752000Y-20564000D01*
X30970000Y-25751000D02*
X30970000Y-28164000D01*
X30970000Y-28164000D02*
X31117000Y-28311000D01*
X28002000Y-29581000D02*
X29847000Y-29581000D01*
X29847000Y-29581000D02*
X31117000Y-28311000D01*
X37146000Y-23358000D02*
X39907000Y-23358000D01*
X39907000Y-23358000D02*
X40415000Y-22850000D01*
X34252000Y-20564000D02*
X34352000Y-20564000D01*
X34352000Y-20564000D02*
X37146000Y-23358000D01*
X37146000Y-25644000D02*
X40288000Y-25644000D01*
X34479000Y-28311000D02*
X37146000Y-25644000D01*
X33617000Y-28311000D02*
X34479000Y-28311000D01*
X40288000Y-25644000D02*
X40415000Y-25771000D01*
D36*
X41434800Y-16855600D02*
X45600400Y-16855600D01*
X40825200Y-17465200D02*
X41434800Y-16855600D01*
X21216400Y-17465200D02*
X40825200Y-17465200D01*
X21191000Y-17516000D02*
X21216400Y-17465200D01*
D34*
X42734000Y-28485000D02*
X43115000Y-25771000D01*
X41892000Y-29327000D02*
X42734000Y-28485000D01*
X40622000Y-29327000D02*
X41892000Y-29327000D01*
X37654000Y-38043000D02*
X38971000Y-39360000D01*
X44733000Y-39280000D02*
X44733000Y-36947000D01*
X44813000Y-39360000D02*
X44733000Y-39280000D01*
X44733000Y-36947000D02*
X44733000Y-35376000D01*
X44733000Y-35376000D02*
X46972000Y-33137000D01*
X37320000Y-38043000D02*
X37654000Y-38043000D01*
D33*
X45194000Y-36486000D02*
X44733000Y-36947000D01*
D34*
X13952000Y-32375000D02*
X13952000Y-31613000D01*
X27638000Y-38090000D02*
X25382000Y-38090000D01*
X23350000Y-40122000D02*
X22080000Y-40122000D01*
X25382000Y-38090000D02*
X23350000Y-40122000D01*
X40622000Y-33137000D02*
X40622000Y-34534000D01*
D35*
X33510000Y-42916000D02*
X33510000Y-40630000D01*
X33510000Y-40630000D02*
X34018000Y-40122000D01*
X33510000Y-42916000D02*
X33510000Y-47187500D01*
D34*
X28288000Y-40040000D02*
X28288000Y-40996000D01*
X32494000Y-41392000D02*
X33510000Y-42408000D01*
X28684000Y-41392000D02*
X32494000Y-41392000D01*
X28288000Y-40996000D02*
X28684000Y-41392000D01*
X33510000Y-42408000D02*
X33510000Y-42916000D01*
D35*
X19286000Y-40884000D02*
X19286000Y-47187500D01*
X19286000Y-47187500D02*
X19286000Y-48504000D01*
D34*
X32113000Y-36312000D02*
X32113000Y-38852000D01*
X28938000Y-38090000D02*
X30208000Y-38090000D01*
X35415000Y-38852000D02*
X36685000Y-40122000D01*
X30970000Y-38852000D02*
X32113000Y-38852000D01*
X32113000Y-38852000D02*
X35415000Y-38852000D01*
X30208000Y-38090000D02*
X30970000Y-38852000D01*
X42654000Y-41880000D02*
X43436000Y-41880000D01*
X44178000Y-41138000D02*
X47908000Y-41138000D01*
X43436000Y-41880000D02*
X44178000Y-41138000D01*
X47908000Y-41138000D02*
X48496000Y-41726000D01*
X42754000Y-42615000D02*
X42654000Y-42515000D01*
X42480000Y-37074000D02*
X42480000Y-39206000D01*
X42480000Y-39206000D02*
X42654000Y-39380000D01*
X42480000Y-39206000D02*
X42654000Y-39380000D01*
D33*
X40622000Y-30597000D02*
X41765000Y-30597000D01*
X41908500Y-31566000D02*
X41908500Y-37328000D01*
X41765000Y-30597000D02*
X41908500Y-31566000D01*
D36*
X37320000Y-35343000D02*
X37019000Y-35343000D01*
X37019000Y-35343000D02*
X36050000Y-36312000D01*
X36050000Y-36312000D02*
X34653000Y-36312000D01*
X37320000Y-30517000D02*
X37019000Y-30517000D01*
X37019000Y-30517000D02*
X36304000Y-31232000D01*
X36304000Y-31232000D02*
X34653000Y-31232000D01*
D34*
X47433000Y-36947000D02*
X47433000Y-37963000D01*
X47433000Y-37963000D02*
X48496000Y-39026000D01*
D33*
X46972000Y-31867000D02*
X47734000Y-31867000D01*
X48242000Y-36138000D02*
X47433000Y-36947000D01*
X48242000Y-32375000D02*
X48242000Y-36138000D01*
X47734000Y-31867000D02*
X48242000Y-32375000D01*
D34*
X40622000Y-31867000D02*
X39860000Y-31867000D01*
X39860000Y-31867000D02*
X38510000Y-33217000D01*
D36*
X37320000Y-33217000D02*
X38510000Y-33217000D01*
X38510000Y-33217000D02*
X38670000Y-33217000D01*
X39780000Y-36232000D02*
X39780000Y-37074000D01*
X39098000Y-35550000D02*
X39780000Y-36232000D01*
X39098000Y-33645000D02*
X39098000Y-35550000D01*
X38670000Y-33217000D02*
X39098000Y-33645000D01*
D34*
X39780000Y-37074000D02*
X39780000Y-36486000D01*
D33*
X43115000Y-22850000D02*
X43543000Y-22850000D01*
X43543000Y-22850000D02*
X45765500Y-25072500D01*
X46972000Y-30597000D02*
X45956000Y-30597000D01*
X45765500Y-30406500D02*
X45765500Y-25072500D01*
X45765500Y-25072500D02*
X45765500Y-25009000D01*
X45956000Y-30597000D02*
X45765500Y-30406500D01*
D34*
X23985000Y-32756000D02*
X22314000Y-32756000D01*
X24112000Y-32629000D02*
X23985000Y-32756000D01*
X22334000Y-32756000D02*
X22314000Y-32756000D01*
X22414000Y-35169000D02*
X22414000Y-32856000D01*
X22414000Y-32856000D02*
X22314000Y-32756000D01*
X22060000Y-37582000D02*
X22060000Y-35523000D01*
X22060000Y-35523000D02*
X22414000Y-35169000D01*
X11078000Y-37963000D02*
X11078000Y-36773000D01*
X11078000Y-36773000D02*
X12428000Y-35423000D01*
X11178000Y-40249000D02*
X11178000Y-38063000D01*
X11178000Y-38063000D02*
X11078000Y-37963000D01*
X11031000Y-42936000D02*
X11031000Y-40396000D01*
X11031000Y-40396000D02*
X11178000Y-40249000D01*
D33*
X12428000Y-35423000D02*
X11920000Y-35423000D01*
X11920000Y-35423000D02*
X11412000Y-34915000D01*
D34*
X19714000Y-35169000D02*
X19714000Y-32856000D01*
X19714000Y-32856000D02*
X19814000Y-32756000D01*
X16365000Y-37856000D02*
X16472000Y-37856000D01*
X16472000Y-37856000D02*
X19159000Y-35169000D01*
X19159000Y-35169000D02*
X19714000Y-35169000D01*
X13778000Y-37963000D02*
X16258000Y-37963000D01*
X16258000Y-37963000D02*
X16365000Y-37856000D01*
X13678000Y-40249000D02*
X13678000Y-38063000D01*
X13678000Y-38063000D02*
X13778000Y-37963000D01*
D37*
G36*
X49305000Y-17389000D02*
X47677735Y-17389000D01*
X47679200Y-17386807D01*
X47784864Y-16855600D01*
X47679200Y-16324393D01*
X47378296Y-15874058D01*
X46927961Y-15573154D01*
X46396754Y-15467490D01*
X44804046Y-15467490D01*
X44272839Y-15573154D01*
X44052170Y-15720600D01*
X41434800Y-15720600D01*
X41000455Y-15806996D01*
X40632234Y-16053034D01*
X40355068Y-16330200D01*
X36892668Y-16330200D01*
X37910434Y-15312434D01*
X37964178Y-15232000D01*
X38091439Y-15041541D01*
X38155000Y-14722000D01*
X38155000Y-14259857D01*
X38188371Y-14246068D01*
X38590323Y-13844818D01*
X38989357Y-14244551D01*
X39553330Y-14478733D01*
X40163991Y-14479265D01*
X40728371Y-14246068D01*
X40950668Y-14024159D01*
X41499446Y-14024159D01*
X41585852Y-14280643D01*
X42159336Y-14490458D01*
X42769460Y-14464839D01*
X43214148Y-14280643D01*
X43300554Y-14024159D01*
X44039446Y-14024159D01*
X44125852Y-14280643D01*
X44699336Y-14490458D01*
X45309460Y-14464839D01*
X45754148Y-14280643D01*
X45840554Y-14024159D01*
X46579446Y-14024159D01*
X46665852Y-14280643D01*
X47239336Y-14490458D01*
X47849460Y-14464839D01*
X48294148Y-14280643D01*
X48380554Y-14024159D01*
X47480000Y-13123605D01*
X46579446Y-14024159D01*
X45840554Y-14024159D01*
X44940000Y-13123605D01*
X44039446Y-14024159D01*
X43300554Y-14024159D01*
X42400000Y-13123605D01*
X41499446Y-14024159D01*
X40950668Y-14024159D01*
X41160551Y-13814643D01*
X41169203Y-13793806D01*
X41319841Y-13844554D01*
X42220395Y-12944000D01*
X42579605Y-12944000D01*
X43480159Y-13844554D01*
X43670000Y-13780599D01*
X43859841Y-13844554D01*
X44760395Y-12944000D01*
X43859841Y-12043446D01*
X43670000Y-12107401D01*
X43480159Y-12043446D01*
X42579605Y-12944000D01*
X42220395Y-12944000D01*
X41319841Y-12043446D01*
X41169673Y-12094035D01*
X41162068Y-12075629D01*
X40760818Y-11673677D01*
X41130323Y-11304818D01*
X41529357Y-11704551D01*
X41550194Y-11713203D01*
X41499446Y-11863841D01*
X42400000Y-12764395D01*
X43300554Y-11863841D01*
X43249965Y-11713673D01*
X43268371Y-11706068D01*
X43670323Y-11304818D01*
X44069357Y-11704551D01*
X44090194Y-11713203D01*
X44039446Y-11863841D01*
X44940000Y-12764395D01*
X45840554Y-11863841D01*
X45789965Y-11713673D01*
X45808371Y-11706068D01*
X45976613Y-11538120D01*
X45976838Y-11539317D01*
X46115910Y-11755441D01*
X46319574Y-11894598D01*
X46285282Y-11928890D01*
X46399839Y-12043447D01*
X46210000Y-12107401D01*
X46020159Y-12043446D01*
X45119605Y-12944000D01*
X46020159Y-13844554D01*
X46210000Y-13780599D01*
X46399841Y-13844554D01*
X47300395Y-12944000D01*
X47286253Y-12929858D01*
X47465858Y-12750253D01*
X47480000Y-12764395D01*
X47494143Y-12750253D01*
X47673748Y-12929858D01*
X47659605Y-12944000D01*
X48560159Y-13844554D01*
X48816643Y-13758148D01*
X49026458Y-13184664D01*
X49000839Y-12574540D01*
X48816643Y-12129852D01*
X48560161Y-12043447D01*
X48674718Y-11928890D01*
X48638240Y-11892412D01*
X48831441Y-11768090D01*
X48976431Y-11555890D01*
X49027440Y-11304000D01*
X49027440Y-9504000D01*
X48983162Y-9268683D01*
X48844090Y-9052559D01*
X48631890Y-8907569D01*
X48380000Y-8856560D01*
X47113428Y-8856560D01*
X45965856Y-7708988D01*
X46804511Y-7709720D01*
X48205352Y-7130904D01*
X49278057Y-6060069D01*
X49305000Y-5995183D01*
X49305000Y-17389000D01*
X49305000Y-17389000D01*
G37*
X49305000Y-17389000D02*
X47677735Y-17389000D01*
X47679200Y-17386807D01*
X47784864Y-16855600D01*
X47679200Y-16324393D01*
X47378296Y-15874058D01*
X46927961Y-15573154D01*
X46396754Y-15467490D01*
X44804046Y-15467490D01*
X44272839Y-15573154D01*
X44052170Y-15720600D01*
X41434800Y-15720600D01*
X41000455Y-15806996D01*
X40632234Y-16053034D01*
X40355068Y-16330200D01*
X36892668Y-16330200D01*
X37910434Y-15312434D01*
X37964178Y-15232000D01*
X38091439Y-15041541D01*
X38155000Y-14722000D01*
X38155000Y-14259857D01*
X38188371Y-14246068D01*
X38590323Y-13844818D01*
X38989357Y-14244551D01*
X39553330Y-14478733D01*
X40163991Y-14479265D01*
X40728371Y-14246068D01*
X40950668Y-14024159D01*
X41499446Y-14024159D01*
X41585852Y-14280643D01*
X42159336Y-14490458D01*
X42769460Y-14464839D01*
X43214148Y-14280643D01*
X43300554Y-14024159D01*
X44039446Y-14024159D01*
X44125852Y-14280643D01*
X44699336Y-14490458D01*
X45309460Y-14464839D01*
X45754148Y-14280643D01*
X45840554Y-14024159D01*
X46579446Y-14024159D01*
X46665852Y-14280643D01*
X47239336Y-14490458D01*
X47849460Y-14464839D01*
X48294148Y-14280643D01*
X48380554Y-14024159D01*
X47480000Y-13123605D01*
X46579446Y-14024159D01*
X45840554Y-14024159D01*
X44940000Y-13123605D01*
X44039446Y-14024159D01*
X43300554Y-14024159D01*
X42400000Y-13123605D01*
X41499446Y-14024159D01*
X40950668Y-14024159D01*
X41160551Y-13814643D01*
X41169203Y-13793806D01*
X41319841Y-13844554D01*
X42220395Y-12944000D01*
X42579605Y-12944000D01*
X43480159Y-13844554D01*
X43670000Y-13780599D01*
X43859841Y-13844554D01*
X44760395Y-12944000D01*
X43859841Y-12043446D01*
X43670000Y-12107401D01*
X43480159Y-12043446D01*
X42579605Y-12944000D01*
X42220395Y-12944000D01*
X41319841Y-12043446D01*
X41169673Y-12094035D01*
X41162068Y-12075629D01*
X40760818Y-11673677D01*
X41130323Y-11304818D01*
X41529357Y-11704551D01*
X41550194Y-11713203D01*
X41499446Y-11863841D01*
X42400000Y-12764395D01*
X43300554Y-11863841D01*
X43249965Y-11713673D01*
X43268371Y-11706068D01*
X43670323Y-11304818D01*
X44069357Y-11704551D01*
X44090194Y-11713203D01*
X44039446Y-11863841D01*
X44940000Y-12764395D01*
X45840554Y-11863841D01*
X45789965Y-11713673D01*
X45808371Y-11706068D01*
X45976613Y-11538120D01*
X45976838Y-11539317D01*
X46115910Y-11755441D01*
X46319574Y-11894598D01*
X46285282Y-11928890D01*
X46399839Y-12043447D01*
X46210000Y-12107401D01*
X46020159Y-12043446D01*
X45119605Y-12944000D01*
X46020159Y-13844554D01*
X46210000Y-13780599D01*
X46399841Y-13844554D01*
X47300395Y-12944000D01*
X47286253Y-12929858D01*
X47465858Y-12750253D01*
X47480000Y-12764395D01*
X47494143Y-12750253D01*
X47673748Y-12929858D01*
X47659605Y-12944000D01*
X48560159Y-13844554D01*
X48816643Y-13758148D01*
X49026458Y-13184664D01*
X49000839Y-12574540D01*
X48816643Y-12129852D01*
X48560161Y-12043447D01*
X48674718Y-11928890D01*
X48638240Y-11892412D01*
X48831441Y-11768090D01*
X48976431Y-11555890D01*
X49027440Y-11304000D01*
X49027440Y-9504000D01*
X48983162Y-9268683D01*
X48844090Y-9052559D01*
X48631890Y-8907569D01*
X48380000Y-8856560D01*
X47113428Y-8856560D01*
X45965856Y-7708988D01*
X46804511Y-7709720D01*
X48205352Y-7130904D01*
X49278057Y-6060069D01*
X49305000Y-5995183D01*
X49305000Y-17389000D01*
G36*
X43894608Y-667216D02*
X42821903Y-1738051D01*
X42240643Y-3137879D01*
X42239320Y-4653591D01*
X42303298Y-4808430D01*
X40450434Y-2955566D01*
X40179541Y-2774561D01*
X39860000Y-2711000D01*
X27414000Y-2711000D01*
X27094460Y-2774560D01*
X26823566Y-2955566D01*
X25894132Y-3885000D01*
X25191797Y-3885000D01*
X25101890Y-3823569D01*
X24850000Y-3772560D01*
X22650000Y-3772560D01*
X22414683Y-3816838D01*
X22198559Y-3955910D01*
X22053569Y-4168110D01*
X22002560Y-4420000D01*
X22002560Y-5020000D01*
X22046838Y-5255317D01*
X22110678Y-5354528D01*
X22053569Y-5438110D01*
X22002560Y-5690000D01*
X22002560Y-6290000D01*
X22046838Y-6525317D01*
X22110678Y-6624528D01*
X22053569Y-6708110D01*
X22002560Y-6960000D01*
X22002560Y-7560000D01*
X22046838Y-7795317D01*
X22110678Y-7894528D01*
X22053569Y-7978110D01*
X22002560Y-8230000D01*
X22002560Y-8830000D01*
X22046838Y-9065317D01*
X22110678Y-9164528D01*
X22053569Y-9248110D01*
X22002560Y-9500000D01*
X22002560Y-10100000D01*
X22046838Y-10335317D01*
X22110678Y-10434528D01*
X22053569Y-10518110D01*
X22002560Y-10770000D01*
X22002560Y-11370000D01*
X22046838Y-11605317D01*
X22110678Y-11704528D01*
X22053569Y-11788110D01*
X22002560Y-12040000D01*
X22002560Y-12640000D01*
X22046838Y-12875317D01*
X22110678Y-12974528D01*
X22053569Y-13058110D01*
X22002560Y-13310000D01*
X22002560Y-13910000D01*
X22046838Y-14145317D01*
X22110678Y-14244528D01*
X22053569Y-14328110D01*
X22002560Y-14580000D01*
X22002560Y-15157000D01*
X16276250Y-15157000D01*
X16126250Y-15007000D01*
X14677000Y-15007000D01*
X14677000Y-15027000D01*
X14423000Y-15027000D01*
X14423000Y-15007000D01*
X14403000Y-15007000D01*
X14403000Y-14753000D01*
X14423000Y-14753000D01*
X14423000Y-14733000D01*
X14677000Y-14733000D01*
X14677000Y-14753000D01*
X16126250Y-14753000D01*
X16285000Y-14594250D01*
X16285000Y-14453690D01*
X16195194Y-14236878D01*
X16246431Y-14161890D01*
X16297440Y-13910000D01*
X16297440Y-13310000D01*
X16253162Y-13074683D01*
X16189322Y-12975472D01*
X16246431Y-12891890D01*
X16297440Y-12640000D01*
X16297440Y-12040000D01*
X16253162Y-11804683D01*
X16189322Y-11705472D01*
X16246431Y-11621890D01*
X16297440Y-11370000D01*
X16297440Y-10770000D01*
X16253162Y-10534683D01*
X16189322Y-10435472D01*
X16246431Y-10351890D01*
X16297440Y-10100000D01*
X16297440Y-9500000D01*
X16253162Y-9264683D01*
X16189322Y-9165472D01*
X16246431Y-9081890D01*
X16297440Y-8830000D01*
X16297440Y-8230000D01*
X16253162Y-7994683D01*
X16189322Y-7895472D01*
X16246431Y-7811890D01*
X16297440Y-7560000D01*
X16297440Y-6960000D01*
X16253162Y-6724683D01*
X16189322Y-6625472D01*
X16246431Y-6541890D01*
X16297440Y-6290000D01*
X16297440Y-5690000D01*
X16253162Y-5454683D01*
X16189322Y-5355472D01*
X16246431Y-5271890D01*
X16297440Y-5020000D01*
X16297440Y-4420000D01*
X16253162Y-4184683D01*
X16114090Y-3968559D01*
X15901890Y-3823569D01*
X15650000Y-3772560D01*
X13450000Y-3772560D01*
X13214683Y-3816838D01*
X12998559Y-3955910D01*
X12995764Y-3960000D01*
X9630000Y-3960000D01*
X9339161Y-4017852D01*
X9095000Y-4180995D01*
X9095000Y-645000D01*
X43948375Y-645000D01*
X43894608Y-667216D01*
X43894608Y-667216D01*
G37*
X43894608Y-667216D02*
X42821903Y-1738051D01*
X42240643Y-3137879D01*
X42239320Y-4653591D01*
X42303298Y-4808430D01*
X40450434Y-2955566D01*
X40179541Y-2774561D01*
X39860000Y-2711000D01*
X27414000Y-2711000D01*
X27094460Y-2774560D01*
X26823566Y-2955566D01*
X25894132Y-3885000D01*
X25191797Y-3885000D01*
X25101890Y-3823569D01*
X24850000Y-3772560D01*
X22650000Y-3772560D01*
X22414683Y-3816838D01*
X22198559Y-3955910D01*
X22053569Y-4168110D01*
X22002560Y-4420000D01*
X22002560Y-5020000D01*
X22046838Y-5255317D01*
X22110678Y-5354528D01*
X22053569Y-5438110D01*
X22002560Y-5690000D01*
X22002560Y-6290000D01*
X22046838Y-6525317D01*
X22110678Y-6624528D01*
X22053569Y-6708110D01*
X22002560Y-6960000D01*
X22002560Y-7560000D01*
X22046838Y-7795317D01*
X22110678Y-7894528D01*
X22053569Y-7978110D01*
X22002560Y-8230000D01*
X22002560Y-8830000D01*
X22046838Y-9065317D01*
X22110678Y-9164528D01*
X22053569Y-9248110D01*
X22002560Y-9500000D01*
X22002560Y-10100000D01*
X22046838Y-10335317D01*
X22110678Y-10434528D01*
X22053569Y-10518110D01*
X22002560Y-10770000D01*
X22002560Y-11370000D01*
X22046838Y-11605317D01*
X22110678Y-11704528D01*
X22053569Y-11788110D01*
X22002560Y-12040000D01*
X22002560Y-12640000D01*
X22046838Y-12875317D01*
X22110678Y-12974528D01*
X22053569Y-13058110D01*
X22002560Y-13310000D01*
X22002560Y-13910000D01*
X22046838Y-14145317D01*
X22110678Y-14244528D01*
X22053569Y-14328110D01*
X22002560Y-14580000D01*
X22002560Y-15157000D01*
X16276250Y-15157000D01*
X16126250Y-15007000D01*
X14677000Y-15007000D01*
X14677000Y-15027000D01*
X14423000Y-15027000D01*
X14423000Y-15007000D01*
X14403000Y-15007000D01*
X14403000Y-14753000D01*
X14423000Y-14753000D01*
X14423000Y-14733000D01*
X14677000Y-14733000D01*
X14677000Y-14753000D01*
X16126250Y-14753000D01*
X16285000Y-14594250D01*
X16285000Y-14453690D01*
X16195194Y-14236878D01*
X16246431Y-14161890D01*
X16297440Y-13910000D01*
X16297440Y-13310000D01*
X16253162Y-13074683D01*
X16189322Y-12975472D01*
X16246431Y-12891890D01*
X16297440Y-12640000D01*
X16297440Y-12040000D01*
X16253162Y-11804683D01*
X16189322Y-11705472D01*
X16246431Y-11621890D01*
X16297440Y-11370000D01*
X16297440Y-10770000D01*
X16253162Y-10534683D01*
X16189322Y-10435472D01*
X16246431Y-10351890D01*
X16297440Y-10100000D01*
X16297440Y-9500000D01*
X16253162Y-9264683D01*
X16189322Y-9165472D01*
X16246431Y-9081890D01*
X16297440Y-8830000D01*
X16297440Y-8230000D01*
X16253162Y-7994683D01*
X16189322Y-7895472D01*
X16246431Y-7811890D01*
X16297440Y-7560000D01*
X16297440Y-6960000D01*
X16253162Y-6724683D01*
X16189322Y-6625472D01*
X16246431Y-6541890D01*
X16297440Y-6290000D01*
X16297440Y-5690000D01*
X16253162Y-5454683D01*
X16189322Y-5355472D01*
X16246431Y-5271890D01*
X16297440Y-5020000D01*
X16297440Y-4420000D01*
X16253162Y-4184683D01*
X16114090Y-3968559D01*
X15901890Y-3823569D01*
X15650000Y-3772560D01*
X13450000Y-3772560D01*
X13214683Y-3816838D01*
X12998559Y-3955910D01*
X12995764Y-3960000D01*
X9630000Y-3960000D01*
X9339161Y-4017852D01*
X9095000Y-4180995D01*
X9095000Y-645000D01*
X43948375Y-645000D01*
X43894608Y-667216D01*
G36*
X8872000Y-31611000D02*
X9573198Y-31611000D01*
X9979234Y-32017036D01*
X9951754Y-32083214D01*
X9951247Y-32664237D01*
X10173126Y-33201226D01*
X10583613Y-33612430D01*
X10661579Y-33644804D01*
X10585774Y-33676126D01*
X10174570Y-34086613D01*
X9951754Y-34623214D01*
X9951247Y-35204237D01*
X10173126Y-35741226D01*
X10550686Y-36119446D01*
X10487566Y-36182566D01*
X10306561Y-36453459D01*
X10261897Y-36677998D01*
X10092683Y-36709838D01*
X9876559Y-36848910D01*
X9731569Y-37061110D01*
X9680560Y-37313000D01*
X9680560Y-38613000D01*
X9724838Y-38848317D01*
X9863910Y-39064441D01*
X9990502Y-39150938D01*
X9976559Y-39159910D01*
X9831569Y-39372110D01*
X9780560Y-39624000D01*
X9780560Y-40874000D01*
X9824838Y-41109317D01*
X9963910Y-41325441D01*
X10176110Y-41470431D01*
X10196000Y-41474459D01*
X10196000Y-41578074D01*
X10170683Y-41582838D01*
X9954559Y-41721910D01*
X9809569Y-41934110D01*
X9758560Y-42186000D01*
X9758560Y-43686000D01*
X9802838Y-43921317D01*
X9941910Y-44137441D01*
X10010006Y-44183969D01*
X9867673Y-44326302D01*
X9771000Y-44559691D01*
X9771000Y-45150250D01*
X9929750Y-45309000D01*
X10904000Y-45309000D01*
X10904000Y-45289000D01*
X11158000Y-45289000D01*
X11158000Y-45309000D01*
X12132250Y-45309000D01*
X12291000Y-45150250D01*
X12291000Y-44559691D01*
X12194327Y-44326302D01*
X12053090Y-44185064D01*
X12107441Y-44150090D01*
X12252431Y-43937890D01*
X12303440Y-43686000D01*
X12303440Y-42186000D01*
X12259162Y-41950683D01*
X12120090Y-41734559D01*
X11907890Y-41589569D01*
X11866000Y-41581086D01*
X11866000Y-41521440D01*
X11928000Y-41521440D01*
X12163317Y-41477162D01*
X12379441Y-41338090D01*
X12427134Y-41268289D01*
X12463910Y-41325441D01*
X12676110Y-41470431D01*
X12928000Y-41521440D01*
X13553799Y-41521440D01*
X13326301Y-41615673D01*
X13147673Y-41794302D01*
X13051000Y-42027691D01*
X13051000Y-45640150D01*
X13209750Y-45798900D01*
X15539000Y-45798900D01*
X15539000Y-45778900D01*
X15793000Y-45778900D01*
X15793000Y-45798900D01*
X15813000Y-45798900D01*
X15813000Y-46052900D01*
X15793000Y-46052900D01*
X15793000Y-46072900D01*
X15539000Y-46072900D01*
X15539000Y-46052900D01*
X13209750Y-46052900D01*
X13051000Y-46211650D01*
X13051000Y-47512672D01*
X13011282Y-47552390D01*
X13051000Y-47592108D01*
X13051000Y-47692159D01*
X12869357Y-47753352D01*
X12659542Y-48326836D01*
X12685161Y-48936960D01*
X12816898Y-49255000D01*
X9095000Y-49255000D01*
X9095000Y-45721750D01*
X9771000Y-45721750D01*
X9771000Y-46312309D01*
X9867673Y-46545698D01*
X10046301Y-46724327D01*
X10279690Y-46821000D01*
X10745250Y-46821000D01*
X10904000Y-46662250D01*
X10904000Y-45563000D01*
X11158000Y-45563000D01*
X11158000Y-46662250D01*
X11316750Y-46821000D01*
X11782310Y-46821000D01*
X12015699Y-46724327D01*
X12194327Y-46545698D01*
X12291000Y-46312309D01*
X12291000Y-45721750D01*
X12132250Y-45563000D01*
X11158000Y-45563000D01*
X10904000Y-45563000D01*
X9929750Y-45563000D01*
X9771000Y-45721750D01*
X9095000Y-45721750D01*
X9095000Y-32700000D01*
X9082607Y-32637696D01*
X9082607Y-32624167D01*
X9010293Y-32260618D01*
X8913984Y-32028109D01*
X8913983Y-32028108D01*
X8913983Y-32028107D01*
X8708048Y-31719905D01*
X8621928Y-31633786D01*
X8622045Y-31561280D01*
X8872000Y-31611000D01*
X8872000Y-31611000D01*
G37*
X8872000Y-31611000D02*
X9573198Y-31611000D01*
X9979234Y-32017036D01*
X9951754Y-32083214D01*
X9951247Y-32664237D01*
X10173126Y-33201226D01*
X10583613Y-33612430D01*
X10661579Y-33644804D01*
X10585774Y-33676126D01*
X10174570Y-34086613D01*
X9951754Y-34623214D01*
X9951247Y-35204237D01*
X10173126Y-35741226D01*
X10550686Y-36119446D01*
X10487566Y-36182566D01*
X10306561Y-36453459D01*
X10261897Y-36677998D01*
X10092683Y-36709838D01*
X9876559Y-36848910D01*
X9731569Y-37061110D01*
X9680560Y-37313000D01*
X9680560Y-38613000D01*
X9724838Y-38848317D01*
X9863910Y-39064441D01*
X9990502Y-39150938D01*
X9976559Y-39159910D01*
X9831569Y-39372110D01*
X9780560Y-39624000D01*
X9780560Y-40874000D01*
X9824838Y-41109317D01*
X9963910Y-41325441D01*
X10176110Y-41470431D01*
X10196000Y-41474459D01*
X10196000Y-41578074D01*
X10170683Y-41582838D01*
X9954559Y-41721910D01*
X9809569Y-41934110D01*
X9758560Y-42186000D01*
X9758560Y-43686000D01*
X9802838Y-43921317D01*
X9941910Y-44137441D01*
X10010006Y-44183969D01*
X9867673Y-44326302D01*
X9771000Y-44559691D01*
X9771000Y-45150250D01*
X9929750Y-45309000D01*
X10904000Y-45309000D01*
X10904000Y-45289000D01*
X11158000Y-45289000D01*
X11158000Y-45309000D01*
X12132250Y-45309000D01*
X12291000Y-45150250D01*
X12291000Y-44559691D01*
X12194327Y-44326302D01*
X12053090Y-44185064D01*
X12107441Y-44150090D01*
X12252431Y-43937890D01*
X12303440Y-43686000D01*
X12303440Y-42186000D01*
X12259162Y-41950683D01*
X12120090Y-41734559D01*
X11907890Y-41589569D01*
X11866000Y-41581086D01*
X11866000Y-41521440D01*
X11928000Y-41521440D01*
X12163317Y-41477162D01*
X12379441Y-41338090D01*
X12427134Y-41268289D01*
X12463910Y-41325441D01*
X12676110Y-41470431D01*
X12928000Y-41521440D01*
X13553799Y-41521440D01*
X13326301Y-41615673D01*
X13147673Y-41794302D01*
X13051000Y-42027691D01*
X13051000Y-45640150D01*
X13209750Y-45798900D01*
X15539000Y-45798900D01*
X15539000Y-45778900D01*
X15793000Y-45778900D01*
X15793000Y-45798900D01*
X15813000Y-45798900D01*
X15813000Y-46052900D01*
X15793000Y-46052900D01*
X15793000Y-46072900D01*
X15539000Y-46072900D01*
X15539000Y-46052900D01*
X13209750Y-46052900D01*
X13051000Y-46211650D01*
X13051000Y-47512672D01*
X13011282Y-47552390D01*
X13051000Y-47592108D01*
X13051000Y-47692159D01*
X12869357Y-47753352D01*
X12659542Y-48326836D01*
X12685161Y-48936960D01*
X12816898Y-49255000D01*
X9095000Y-49255000D01*
X9095000Y-45721750D01*
X9771000Y-45721750D01*
X9771000Y-46312309D01*
X9867673Y-46545698D01*
X10046301Y-46724327D01*
X10279690Y-46821000D01*
X10745250Y-46821000D01*
X10904000Y-46662250D01*
X10904000Y-45563000D01*
X11158000Y-45563000D01*
X11158000Y-46662250D01*
X11316750Y-46821000D01*
X11782310Y-46821000D01*
X12015699Y-46724327D01*
X12194327Y-46545698D01*
X12291000Y-46312309D01*
X12291000Y-45721750D01*
X12132250Y-45563000D01*
X11158000Y-45563000D01*
X10904000Y-45563000D01*
X9929750Y-45563000D01*
X9771000Y-45721750D01*
X9095000Y-45721750D01*
X9095000Y-32700000D01*
X9082607Y-32637696D01*
X9082607Y-32624167D01*
X9010293Y-32260618D01*
X8913984Y-32028109D01*
X8913983Y-32028108D01*
X8913983Y-32028107D01*
X8708048Y-31719905D01*
X8621928Y-31633786D01*
X8622045Y-31561280D01*
X8872000Y-31611000D01*
G36*
X39061838Y-26656317D02*
X39200910Y-26872441D01*
X39413110Y-27017431D01*
X39665000Y-27068440D01*
X41165000Y-27068440D01*
X41400317Y-27024162D01*
X41616441Y-26885090D01*
X41761431Y-26672890D01*
X41764081Y-26659803D01*
X41900910Y-26872441D01*
X42098259Y-27007283D01*
X41945958Y-28092174D01*
X41546132Y-28492000D01*
X41467974Y-28492000D01*
X41445390Y-28476569D01*
X41193500Y-28425560D01*
X40050500Y-28425560D01*
X39815183Y-28469838D01*
X39599059Y-28608910D01*
X39454069Y-28821110D01*
X39403060Y-29073000D01*
X39403060Y-29581000D01*
X39447338Y-29816317D01*
X39541666Y-29962907D01*
X39454069Y-30091110D01*
X39403060Y-30343000D01*
X39403060Y-30851000D01*
X39447338Y-31086317D01*
X39479497Y-31136294D01*
X39324728Y-31239708D01*
X39269566Y-31276566D01*
X38471867Y-32074265D01*
X38434090Y-32015559D01*
X38221890Y-31870569D01*
X38208803Y-31867919D01*
X38421441Y-31731090D01*
X38566431Y-31518890D01*
X38617440Y-31267000D01*
X38617440Y-29767000D01*
X38573162Y-29531683D01*
X38434090Y-29315559D01*
X38221890Y-29170569D01*
X37970000Y-29119560D01*
X36670000Y-29119560D01*
X36434683Y-29163838D01*
X36218559Y-29302910D01*
X36073569Y-29515110D01*
X36022560Y-29767000D01*
X36022560Y-29908308D01*
X35833868Y-30097000D01*
X35583638Y-30097000D01*
X35481387Y-29994570D01*
X34944786Y-29771754D01*
X34363763Y-29771247D01*
X33826774Y-29993126D01*
X33415570Y-30403613D01*
X33389513Y-30466366D01*
X33387976Y-30462656D01*
X33139215Y-30385390D01*
X32292605Y-31232000D01*
X33139215Y-32078610D01*
X33387976Y-32001344D01*
X33389211Y-31997926D01*
X33414126Y-32058226D01*
X33824613Y-32469430D01*
X33902579Y-32501804D01*
X33826774Y-32533126D01*
X33415570Y-32943613D01*
X33192754Y-33480214D01*
X33192247Y-34061237D01*
X33414126Y-34598226D01*
X33824613Y-35009430D01*
X33902579Y-35041804D01*
X33826774Y-35073126D01*
X33415570Y-35483613D01*
X33383196Y-35561579D01*
X33351874Y-35485774D01*
X32941387Y-35074570D01*
X32404786Y-34851754D01*
X31823763Y-34851247D01*
X31286774Y-35073126D01*
X30875570Y-35483613D01*
X30652754Y-36020214D01*
X30652247Y-36601237D01*
X30874126Y-37138226D01*
X31278000Y-37542805D01*
X31278000Y-37979132D01*
X30798434Y-37499566D01*
X30731736Y-37455000D01*
X30527541Y-37318561D01*
X30208000Y-37255000D01*
X29677018Y-37255000D01*
X29602090Y-37138559D01*
X29389890Y-36993569D01*
X29138000Y-36942560D01*
X28738000Y-36942560D01*
X28632295Y-36962450D01*
X28614309Y-36955000D01*
X28546750Y-36955000D01*
X28517746Y-36984004D01*
X28502683Y-36986838D01*
X28286559Y-37125910D01*
X28285610Y-37127299D01*
X28089890Y-36993569D01*
X28062215Y-36987965D01*
X28029250Y-36955000D01*
X27961691Y-36955000D01*
X27941247Y-36963468D01*
X27838000Y-36942560D01*
X27438000Y-36942560D01*
X27202683Y-36986838D01*
X26986559Y-37125910D01*
X26898356Y-37255000D01*
X25382000Y-37255000D01*
X25062459Y-37318561D01*
X24858264Y-37455000D01*
X24791566Y-37499566D01*
X23004132Y-39287000D01*
X22951219Y-39287000D01*
X22764320Y-39099775D01*
X22321041Y-38915710D01*
X21841065Y-38915291D01*
X21397465Y-39098582D01*
X21057775Y-39437680D01*
X20873710Y-39880959D01*
X20873291Y-40360935D01*
X21056582Y-40804535D01*
X21395680Y-41144225D01*
X21838959Y-41328290D01*
X22318935Y-41328709D01*
X22762535Y-41145418D01*
X22951282Y-40957000D01*
X23350000Y-40957000D01*
X23669541Y-40893439D01*
X23940434Y-40712434D01*
X25001188Y-39651680D01*
X25000802Y-40094359D01*
X25174446Y-40514612D01*
X25495697Y-40836423D01*
X25915646Y-41010801D01*
X26370359Y-41011198D01*
X26699985Y-40875000D01*
X26898982Y-40875000D01*
X26973910Y-40991441D01*
X27186110Y-41136431D01*
X27438000Y-41187440D01*
X27491080Y-41187440D01*
X27516561Y-41315541D01*
X27665578Y-41538560D01*
X27680945Y-41561559D01*
X27550301Y-41615673D01*
X27371673Y-41794302D01*
X27275000Y-42027691D01*
X27275000Y-45640150D01*
X27433750Y-45798900D01*
X29763000Y-45798900D01*
X29763000Y-45778900D01*
X30017000Y-45778900D01*
X30017000Y-45798900D01*
X30037000Y-45798900D01*
X30037000Y-46052900D01*
X30017000Y-46052900D01*
X30017000Y-46072900D01*
X29763000Y-46072900D01*
X29763000Y-46052900D01*
X27433750Y-46052900D01*
X27275000Y-46211650D01*
X27275000Y-47512672D01*
X27235282Y-47552390D01*
X27275000Y-47592108D01*
X27275000Y-47692159D01*
X27093357Y-47753352D01*
X26883542Y-48326836D01*
X26909161Y-48936960D01*
X27040898Y-49255000D01*
X25748978Y-49255000D01*
X25912458Y-48808164D01*
X25886839Y-48198040D01*
X25702643Y-47753352D01*
X25521000Y-47692159D01*
X25521000Y-47592108D01*
X25560718Y-47552390D01*
X25521000Y-47512672D01*
X25521000Y-46211650D01*
X25362250Y-46052900D01*
X23033000Y-46052900D01*
X23033000Y-46072900D01*
X22779000Y-46072900D01*
X22779000Y-46052900D01*
X22759000Y-46052900D01*
X22759000Y-45798900D01*
X22779000Y-45798900D01*
X22779000Y-44735672D01*
X22810502Y-44651607D01*
X22779000Y-44620105D01*
X22779000Y-44260895D01*
X22990107Y-44472002D01*
X23033000Y-44455928D01*
X23033000Y-45798900D01*
X25362250Y-45798900D01*
X25521000Y-45640150D01*
X25521000Y-42027691D01*
X25424327Y-41794302D01*
X25245699Y-41615673D01*
X25012310Y-41519000D01*
X23191750Y-41519000D01*
X23033000Y-41677750D01*
X23033000Y-42519072D01*
X22990107Y-42502998D01*
X22779000Y-42714105D01*
X22779000Y-42354895D01*
X22810502Y-42323393D01*
X22779000Y-42239328D01*
X22779000Y-41677750D01*
X22620250Y-41519000D01*
X20799690Y-41519000D01*
X20566301Y-41615673D01*
X20387673Y-41794302D01*
X20311000Y-41979407D01*
X20311000Y-41561637D01*
X20492290Y-41125041D01*
X20492709Y-40645065D01*
X20309418Y-40201465D01*
X19970320Y-39861775D01*
X19527041Y-39677710D01*
X19047065Y-39677291D01*
X18603465Y-39860582D01*
X18263775Y-40199680D01*
X18079710Y-40642959D01*
X18079291Y-41122935D01*
X18261000Y-41562706D01*
X18261000Y-41979407D01*
X18184327Y-41794302D01*
X18005699Y-41615673D01*
X17772310Y-41519000D01*
X17475025Y-41519000D01*
X17528327Y-41465698D01*
X17625000Y-41232309D01*
X17625000Y-40641750D01*
X17466250Y-40483000D01*
X16492000Y-40483000D01*
X16492000Y-40503000D01*
X16238000Y-40503000D01*
X16238000Y-40483000D01*
X15263750Y-40483000D01*
X15105000Y-40641750D01*
X15105000Y-41232309D01*
X15201673Y-41465698D01*
X15254975Y-41519000D01*
X14440967Y-41519000D01*
X14663317Y-41477162D01*
X14879441Y-41338090D01*
X15024431Y-41125890D01*
X15075440Y-40874000D01*
X15075440Y-39624000D01*
X15031162Y-39388683D01*
X14892090Y-39172559D01*
X14862499Y-39152340D01*
X14979441Y-39077090D01*
X15124431Y-38864890D01*
X15133161Y-38821778D01*
X15136838Y-38841317D01*
X15275910Y-39057441D01*
X15344006Y-39103969D01*
X15201673Y-39246302D01*
X15105000Y-39479691D01*
X15105000Y-40070250D01*
X15263750Y-40229000D01*
X16238000Y-40229000D01*
X16238000Y-40209000D01*
X16492000Y-40209000D01*
X16492000Y-40229000D01*
X17466250Y-40229000D01*
X17625000Y-40070250D01*
X17625000Y-39479691D01*
X17528327Y-39246302D01*
X17387090Y-39105064D01*
X17441441Y-39070090D01*
X17586431Y-38857890D01*
X17637440Y-38606000D01*
X17637440Y-37871428D01*
X17641118Y-37867750D01*
X18175000Y-37867750D01*
X18175000Y-38333310D01*
X18271673Y-38566699D01*
X18450302Y-38745327D01*
X18683691Y-38842000D01*
X19274250Y-38842000D01*
X19433000Y-38683250D01*
X19433000Y-37709000D01*
X18333750Y-37709000D01*
X18175000Y-37867750D01*
X17641118Y-37867750D01*
X18193809Y-37315059D01*
X18333750Y-37455000D01*
X19433000Y-37455000D01*
X19433000Y-37435000D01*
X19687000Y-37435000D01*
X19687000Y-37455000D01*
X19707000Y-37455000D01*
X19707000Y-37709000D01*
X19687000Y-37709000D01*
X19687000Y-38683250D01*
X19845750Y-38842000D01*
X20436309Y-38842000D01*
X20669698Y-38745327D01*
X20810936Y-38604090D01*
X20845910Y-38658441D01*
X21058110Y-38803431D01*
X21310000Y-38854440D01*
X22810000Y-38854440D01*
X23045317Y-38810162D01*
X23261441Y-38671090D01*
X23406431Y-38458890D01*
X23457440Y-38207000D01*
X23457440Y-36957000D01*
X23413162Y-36721683D01*
X23274090Y-36505559D01*
X23205429Y-36458645D01*
X23399317Y-36422162D01*
X23615441Y-36283090D01*
X23760431Y-36070890D01*
X23811440Y-35819000D01*
X23811440Y-34519000D01*
X23767162Y-34283683D01*
X23628090Y-34067559D01*
X23415890Y-33922569D01*
X23400027Y-33919357D01*
X23515441Y-33845090D01*
X23635828Y-33668898D01*
X23883646Y-33771801D01*
X24338359Y-33772198D01*
X24758612Y-33598554D01*
X25080423Y-33277303D01*
X25254801Y-32857354D01*
X25255198Y-32402641D01*
X25195523Y-32258215D01*
X31266390Y-32258215D01*
X31343656Y-32506976D01*
X31890131Y-32704340D01*
X32470535Y-32677553D01*
X32882344Y-32506976D01*
X32959610Y-32258215D01*
X32113000Y-31411605D01*
X31266390Y-32258215D01*
X25195523Y-32258215D01*
X25081554Y-31982388D01*
X24760303Y-31660577D01*
X24340354Y-31486199D01*
X23885641Y-31485802D01*
X23486118Y-31650881D01*
X23315890Y-31534569D01*
X23064000Y-31483560D01*
X21564000Y-31483560D01*
X21328683Y-31527838D01*
X21112559Y-31666910D01*
X21064866Y-31736711D01*
X21028090Y-31679559D01*
X20815890Y-31534569D01*
X20564000Y-31483560D01*
X19064000Y-31483560D01*
X18828683Y-31527838D01*
X18612559Y-31666910D01*
X18467569Y-31879110D01*
X18416560Y-32131000D01*
X18416560Y-33381000D01*
X18460838Y-33616317D01*
X18599910Y-33832441D01*
X18725224Y-33918064D01*
X18512559Y-34054910D01*
X18367569Y-34267110D01*
X18316560Y-34519000D01*
X18316560Y-34830572D01*
X17938944Y-35208188D01*
X17964340Y-35137869D01*
X17937553Y-34557465D01*
X17766976Y-34145656D01*
X17518215Y-34068390D01*
X16746000Y-34840605D01*
X16746000Y-34534690D01*
X16730390Y-34497005D01*
X17338610Y-33888785D01*
X17261344Y-33640024D01*
X17257926Y-33638789D01*
X17318226Y-33613874D01*
X17729430Y-33203387D01*
X17952246Y-32666786D01*
X17952753Y-32085763D01*
X17730874Y-31548774D01*
X17320387Y-31137570D01*
X17017786Y-31011919D01*
X17907686Y-31011919D01*
X17945824Y-31227856D01*
X18377055Y-31372091D01*
X18830657Y-31340322D01*
X19102176Y-31227856D01*
X19140314Y-31011919D01*
X18524000Y-30395605D01*
X17907686Y-31011919D01*
X17017786Y-31011919D01*
X16783786Y-30914754D01*
X16722633Y-30914701D01*
X16714162Y-30869683D01*
X16575090Y-30653559D01*
X16362890Y-30508569D01*
X16111000Y-30457560D01*
X16109592Y-30457560D01*
X16013401Y-30313599D01*
X15272878Y-29573076D01*
X15345431Y-29466890D01*
X15348081Y-29453803D01*
X15484910Y-29666441D01*
X15697110Y-29811431D01*
X15949000Y-29862440D01*
X17437016Y-29862440D01*
X17367909Y-30069055D01*
X17399678Y-30522657D01*
X17512144Y-30794176D01*
X17728081Y-30832314D01*
X18344395Y-30216000D01*
X18330253Y-30201858D01*
X18509858Y-30022253D01*
X18524000Y-30036395D01*
X18538143Y-30022253D01*
X18717748Y-30201858D01*
X18703605Y-30216000D01*
X19319919Y-30832314D01*
X19535856Y-30794176D01*
X19680091Y-30362945D01*
X19648322Y-29909343D01*
X19535856Y-29637824D01*
X19319922Y-29599686D01*
X19436102Y-29483506D01*
X19352596Y-29400000D01*
X19749132Y-29400000D01*
X19893560Y-29544428D01*
X19893560Y-30411000D01*
X19937838Y-30646317D01*
X20076910Y-30862441D01*
X20289110Y-31007431D01*
X20541000Y-31058440D01*
X21841000Y-31058440D01*
X22076317Y-31014162D01*
X22084135Y-31009131D01*
X30640660Y-31009131D01*
X30667447Y-31589535D01*
X30838024Y-32001344D01*
X31086785Y-32078610D01*
X31933395Y-31232000D01*
X31086785Y-30385390D01*
X30838024Y-30462656D01*
X30640660Y-31009131D01*
X22084135Y-31009131D01*
X22292441Y-30875090D01*
X22437431Y-30662890D01*
X22488440Y-30411000D01*
X22488440Y-28911000D01*
X22444162Y-28675683D01*
X22305090Y-28459559D01*
X22092890Y-28314569D01*
X22079803Y-28311919D01*
X22292441Y-28175090D01*
X22437431Y-27962890D01*
X22488440Y-27711000D01*
X22488440Y-27221000D01*
X23109554Y-27221000D01*
X23137838Y-27371317D01*
X23276910Y-27587441D01*
X23489110Y-27732431D01*
X23741000Y-27783440D01*
X24467000Y-27783440D01*
X24467000Y-28299554D01*
X24316683Y-28327838D01*
X24100559Y-28466910D01*
X23955569Y-28679110D01*
X23904560Y-28931000D01*
X23904560Y-30231000D01*
X23948838Y-30466317D01*
X24087910Y-30682441D01*
X24300110Y-30827431D01*
X24552000Y-30878440D01*
X26052000Y-30878440D01*
X26287317Y-30834162D01*
X26503441Y-30695090D01*
X26648431Y-30482890D01*
X26651081Y-30469803D01*
X26787910Y-30682441D01*
X27000110Y-30827431D01*
X27252000Y-30878440D01*
X28752000Y-30878440D01*
X28987317Y-30834162D01*
X29203441Y-30695090D01*
X29348431Y-30482890D01*
X29361977Y-30416000D01*
X29847000Y-30416000D01*
X30166541Y-30352439D01*
X30386024Y-30205785D01*
X31266390Y-30205785D01*
X32113000Y-31052395D01*
X32959610Y-30205785D01*
X32882344Y-29957024D01*
X32335869Y-29759660D01*
X31755465Y-29786447D01*
X31343656Y-29957024D01*
X31266390Y-30205785D01*
X30386024Y-30205785D01*
X30437434Y-30171434D01*
X31025428Y-29583440D01*
X31867000Y-29583440D01*
X32102317Y-29539162D01*
X32318441Y-29400090D01*
X32366134Y-29330289D01*
X32402910Y-29387441D01*
X32615110Y-29532431D01*
X32867000Y-29583440D01*
X34367000Y-29583440D01*
X34602317Y-29539162D01*
X34818441Y-29400090D01*
X34963431Y-29187890D01*
X35013929Y-28938521D01*
X35069434Y-28901434D01*
X37029428Y-26941440D01*
X37896000Y-26941440D01*
X38131317Y-26897162D01*
X38347441Y-26758090D01*
X38492431Y-26545890D01*
X38505977Y-26479000D01*
X39028473Y-26479000D01*
X39061838Y-26656317D01*
X39061838Y-26656317D01*
G37*
X39061838Y-26656317D02*
X39200910Y-26872441D01*
X39413110Y-27017431D01*
X39665000Y-27068440D01*
X41165000Y-27068440D01*
X41400317Y-27024162D01*
X41616441Y-26885090D01*
X41761431Y-26672890D01*
X41764081Y-26659803D01*
X41900910Y-26872441D01*
X42098259Y-27007283D01*
X41945958Y-28092174D01*
X41546132Y-28492000D01*
X41467974Y-28492000D01*
X41445390Y-28476569D01*
X41193500Y-28425560D01*
X40050500Y-28425560D01*
X39815183Y-28469838D01*
X39599059Y-28608910D01*
X39454069Y-28821110D01*
X39403060Y-29073000D01*
X39403060Y-29581000D01*
X39447338Y-29816317D01*
X39541666Y-29962907D01*
X39454069Y-30091110D01*
X39403060Y-30343000D01*
X39403060Y-30851000D01*
X39447338Y-31086317D01*
X39479497Y-31136294D01*
X39324728Y-31239708D01*
X39269566Y-31276566D01*
X38471867Y-32074265D01*
X38434090Y-32015559D01*
X38221890Y-31870569D01*
X38208803Y-31867919D01*
X38421441Y-31731090D01*
X38566431Y-31518890D01*
X38617440Y-31267000D01*
X38617440Y-29767000D01*
X38573162Y-29531683D01*
X38434090Y-29315559D01*
X38221890Y-29170569D01*
X37970000Y-29119560D01*
X36670000Y-29119560D01*
X36434683Y-29163838D01*
X36218559Y-29302910D01*
X36073569Y-29515110D01*
X36022560Y-29767000D01*
X36022560Y-29908308D01*
X35833868Y-30097000D01*
X35583638Y-30097000D01*
X35481387Y-29994570D01*
X34944786Y-29771754D01*
X34363763Y-29771247D01*
X33826774Y-29993126D01*
X33415570Y-30403613D01*
X33389513Y-30466366D01*
X33387976Y-30462656D01*
X33139215Y-30385390D01*
X32292605Y-31232000D01*
X33139215Y-32078610D01*
X33387976Y-32001344D01*
X33389211Y-31997926D01*
X33414126Y-32058226D01*
X33824613Y-32469430D01*
X33902579Y-32501804D01*
X33826774Y-32533126D01*
X33415570Y-32943613D01*
X33192754Y-33480214D01*
X33192247Y-34061237D01*
X33414126Y-34598226D01*
X33824613Y-35009430D01*
X33902579Y-35041804D01*
X33826774Y-35073126D01*
X33415570Y-35483613D01*
X33383196Y-35561579D01*
X33351874Y-35485774D01*
X32941387Y-35074570D01*
X32404786Y-34851754D01*
X31823763Y-34851247D01*
X31286774Y-35073126D01*
X30875570Y-35483613D01*
X30652754Y-36020214D01*
X30652247Y-36601237D01*
X30874126Y-37138226D01*
X31278000Y-37542805D01*
X31278000Y-37979132D01*
X30798434Y-37499566D01*
X30731736Y-37455000D01*
X30527541Y-37318561D01*
X30208000Y-37255000D01*
X29677018Y-37255000D01*
X29602090Y-37138559D01*
X29389890Y-36993569D01*
X29138000Y-36942560D01*
X28738000Y-36942560D01*
X28632295Y-36962450D01*
X28614309Y-36955000D01*
X28546750Y-36955000D01*
X28517746Y-36984004D01*
X28502683Y-36986838D01*
X28286559Y-37125910D01*
X28285610Y-37127299D01*
X28089890Y-36993569D01*
X28062215Y-36987965D01*
X28029250Y-36955000D01*
X27961691Y-36955000D01*
X27941247Y-36963468D01*
X27838000Y-36942560D01*
X27438000Y-36942560D01*
X27202683Y-36986838D01*
X26986559Y-37125910D01*
X26898356Y-37255000D01*
X25382000Y-37255000D01*
X25062459Y-37318561D01*
X24858264Y-37455000D01*
X24791566Y-37499566D01*
X23004132Y-39287000D01*
X22951219Y-39287000D01*
X22764320Y-39099775D01*
X22321041Y-38915710D01*
X21841065Y-38915291D01*
X21397465Y-39098582D01*
X21057775Y-39437680D01*
X20873710Y-39880959D01*
X20873291Y-40360935D01*
X21056582Y-40804535D01*
X21395680Y-41144225D01*
X21838959Y-41328290D01*
X22318935Y-41328709D01*
X22762535Y-41145418D01*
X22951282Y-40957000D01*
X23350000Y-40957000D01*
X23669541Y-40893439D01*
X23940434Y-40712434D01*
X25001188Y-39651680D01*
X25000802Y-40094359D01*
X25174446Y-40514612D01*
X25495697Y-40836423D01*
X25915646Y-41010801D01*
X26370359Y-41011198D01*
X26699985Y-40875000D01*
X26898982Y-40875000D01*
X26973910Y-40991441D01*
X27186110Y-41136431D01*
X27438000Y-41187440D01*
X27491080Y-41187440D01*
X27516561Y-41315541D01*
X27665578Y-41538560D01*
X27680945Y-41561559D01*
X27550301Y-41615673D01*
X27371673Y-41794302D01*
X27275000Y-42027691D01*
X27275000Y-45640150D01*
X27433750Y-45798900D01*
X29763000Y-45798900D01*
X29763000Y-45778900D01*
X30017000Y-45778900D01*
X30017000Y-45798900D01*
X30037000Y-45798900D01*
X30037000Y-46052900D01*
X30017000Y-46052900D01*
X30017000Y-46072900D01*
X29763000Y-46072900D01*
X29763000Y-46052900D01*
X27433750Y-46052900D01*
X27275000Y-46211650D01*
X27275000Y-47512672D01*
X27235282Y-47552390D01*
X27275000Y-47592108D01*
X27275000Y-47692159D01*
X27093357Y-47753352D01*
X26883542Y-48326836D01*
X26909161Y-48936960D01*
X27040898Y-49255000D01*
X25748978Y-49255000D01*
X25912458Y-48808164D01*
X25886839Y-48198040D01*
X25702643Y-47753352D01*
X25521000Y-47692159D01*
X25521000Y-47592108D01*
X25560718Y-47552390D01*
X25521000Y-47512672D01*
X25521000Y-46211650D01*
X25362250Y-46052900D01*
X23033000Y-46052900D01*
X23033000Y-46072900D01*
X22779000Y-46072900D01*
X22779000Y-46052900D01*
X22759000Y-46052900D01*
X22759000Y-45798900D01*
X22779000Y-45798900D01*
X22779000Y-44735672D01*
X22810502Y-44651607D01*
X22779000Y-44620105D01*
X22779000Y-44260895D01*
X22990107Y-44472002D01*
X23033000Y-44455928D01*
X23033000Y-45798900D01*
X25362250Y-45798900D01*
X25521000Y-45640150D01*
X25521000Y-42027691D01*
X25424327Y-41794302D01*
X25245699Y-41615673D01*
X25012310Y-41519000D01*
X23191750Y-41519000D01*
X23033000Y-41677750D01*
X23033000Y-42519072D01*
X22990107Y-42502998D01*
X22779000Y-42714105D01*
X22779000Y-42354895D01*
X22810502Y-42323393D01*
X22779000Y-42239328D01*
X22779000Y-41677750D01*
X22620250Y-41519000D01*
X20799690Y-41519000D01*
X20566301Y-41615673D01*
X20387673Y-41794302D01*
X20311000Y-41979407D01*
X20311000Y-41561637D01*
X20492290Y-41125041D01*
X20492709Y-40645065D01*
X20309418Y-40201465D01*
X19970320Y-39861775D01*
X19527041Y-39677710D01*
X19047065Y-39677291D01*
X18603465Y-39860582D01*
X18263775Y-40199680D01*
X18079710Y-40642959D01*
X18079291Y-41122935D01*
X18261000Y-41562706D01*
X18261000Y-41979407D01*
X18184327Y-41794302D01*
X18005699Y-41615673D01*
X17772310Y-41519000D01*
X17475025Y-41519000D01*
X17528327Y-41465698D01*
X17625000Y-41232309D01*
X17625000Y-40641750D01*
X17466250Y-40483000D01*
X16492000Y-40483000D01*
X16492000Y-40503000D01*
X16238000Y-40503000D01*
X16238000Y-40483000D01*
X15263750Y-40483000D01*
X15105000Y-40641750D01*
X15105000Y-41232309D01*
X15201673Y-41465698D01*
X15254975Y-41519000D01*
X14440967Y-41519000D01*
X14663317Y-41477162D01*
X14879441Y-41338090D01*
X15024431Y-41125890D01*
X15075440Y-40874000D01*
X15075440Y-39624000D01*
X15031162Y-39388683D01*
X14892090Y-39172559D01*
X14862499Y-39152340D01*
X14979441Y-39077090D01*
X15124431Y-38864890D01*
X15133161Y-38821778D01*
X15136838Y-38841317D01*
X15275910Y-39057441D01*
X15344006Y-39103969D01*
X15201673Y-39246302D01*
X15105000Y-39479691D01*
X15105000Y-40070250D01*
X15263750Y-40229000D01*
X16238000Y-40229000D01*
X16238000Y-40209000D01*
X16492000Y-40209000D01*
X16492000Y-40229000D01*
X17466250Y-40229000D01*
X17625000Y-40070250D01*
X17625000Y-39479691D01*
X17528327Y-39246302D01*
X17387090Y-39105064D01*
X17441441Y-39070090D01*
X17586431Y-38857890D01*
X17637440Y-38606000D01*
X17637440Y-37871428D01*
X17641118Y-37867750D01*
X18175000Y-37867750D01*
X18175000Y-38333310D01*
X18271673Y-38566699D01*
X18450302Y-38745327D01*
X18683691Y-38842000D01*
X19274250Y-38842000D01*
X19433000Y-38683250D01*
X19433000Y-37709000D01*
X18333750Y-37709000D01*
X18175000Y-37867750D01*
X17641118Y-37867750D01*
X18193809Y-37315059D01*
X18333750Y-37455000D01*
X19433000Y-37455000D01*
X19433000Y-37435000D01*
X19687000Y-37435000D01*
X19687000Y-37455000D01*
X19707000Y-37455000D01*
X19707000Y-37709000D01*
X19687000Y-37709000D01*
X19687000Y-38683250D01*
X19845750Y-38842000D01*
X20436309Y-38842000D01*
X20669698Y-38745327D01*
X20810936Y-38604090D01*
X20845910Y-38658441D01*
X21058110Y-38803431D01*
X21310000Y-38854440D01*
X22810000Y-38854440D01*
X23045317Y-38810162D01*
X23261441Y-38671090D01*
X23406431Y-38458890D01*
X23457440Y-38207000D01*
X23457440Y-36957000D01*
X23413162Y-36721683D01*
X23274090Y-36505559D01*
X23205429Y-36458645D01*
X23399317Y-36422162D01*
X23615441Y-36283090D01*
X23760431Y-36070890D01*
X23811440Y-35819000D01*
X23811440Y-34519000D01*
X23767162Y-34283683D01*
X23628090Y-34067559D01*
X23415890Y-33922569D01*
X23400027Y-33919357D01*
X23515441Y-33845090D01*
X23635828Y-33668898D01*
X23883646Y-33771801D01*
X24338359Y-33772198D01*
X24758612Y-33598554D01*
X25080423Y-33277303D01*
X25254801Y-32857354D01*
X25255198Y-32402641D01*
X25195523Y-32258215D01*
X31266390Y-32258215D01*
X31343656Y-32506976D01*
X31890131Y-32704340D01*
X32470535Y-32677553D01*
X32882344Y-32506976D01*
X32959610Y-32258215D01*
X32113000Y-31411605D01*
X31266390Y-32258215D01*
X25195523Y-32258215D01*
X25081554Y-31982388D01*
X24760303Y-31660577D01*
X24340354Y-31486199D01*
X23885641Y-31485802D01*
X23486118Y-31650881D01*
X23315890Y-31534569D01*
X23064000Y-31483560D01*
X21564000Y-31483560D01*
X21328683Y-31527838D01*
X21112559Y-31666910D01*
X21064866Y-31736711D01*
X21028090Y-31679559D01*
X20815890Y-31534569D01*
X20564000Y-31483560D01*
X19064000Y-31483560D01*
X18828683Y-31527838D01*
X18612559Y-31666910D01*
X18467569Y-31879110D01*
X18416560Y-32131000D01*
X18416560Y-33381000D01*
X18460838Y-33616317D01*
X18599910Y-33832441D01*
X18725224Y-33918064D01*
X18512559Y-34054910D01*
X18367569Y-34267110D01*
X18316560Y-34519000D01*
X18316560Y-34830572D01*
X17938944Y-35208188D01*
X17964340Y-35137869D01*
X17937553Y-34557465D01*
X17766976Y-34145656D01*
X17518215Y-34068390D01*
X16746000Y-34840605D01*
X16746000Y-34534690D01*
X16730390Y-34497005D01*
X17338610Y-33888785D01*
X17261344Y-33640024D01*
X17257926Y-33638789D01*
X17318226Y-33613874D01*
X17729430Y-33203387D01*
X17952246Y-32666786D01*
X17952753Y-32085763D01*
X17730874Y-31548774D01*
X17320387Y-31137570D01*
X17017786Y-31011919D01*
X17907686Y-31011919D01*
X17945824Y-31227856D01*
X18377055Y-31372091D01*
X18830657Y-31340322D01*
X19102176Y-31227856D01*
X19140314Y-31011919D01*
X18524000Y-30395605D01*
X17907686Y-31011919D01*
X17017786Y-31011919D01*
X16783786Y-30914754D01*
X16722633Y-30914701D01*
X16714162Y-30869683D01*
X16575090Y-30653559D01*
X16362890Y-30508569D01*
X16111000Y-30457560D01*
X16109592Y-30457560D01*
X16013401Y-30313599D01*
X15272878Y-29573076D01*
X15345431Y-29466890D01*
X15348081Y-29453803D01*
X15484910Y-29666441D01*
X15697110Y-29811431D01*
X15949000Y-29862440D01*
X17437016Y-29862440D01*
X17367909Y-30069055D01*
X17399678Y-30522657D01*
X17512144Y-30794176D01*
X17728081Y-30832314D01*
X18344395Y-30216000D01*
X18330253Y-30201858D01*
X18509858Y-30022253D01*
X18524000Y-30036395D01*
X18538143Y-30022253D01*
X18717748Y-30201858D01*
X18703605Y-30216000D01*
X19319919Y-30832314D01*
X19535856Y-30794176D01*
X19680091Y-30362945D01*
X19648322Y-29909343D01*
X19535856Y-29637824D01*
X19319922Y-29599686D01*
X19436102Y-29483506D01*
X19352596Y-29400000D01*
X19749132Y-29400000D01*
X19893560Y-29544428D01*
X19893560Y-30411000D01*
X19937838Y-30646317D01*
X20076910Y-30862441D01*
X20289110Y-31007431D01*
X20541000Y-31058440D01*
X21841000Y-31058440D01*
X22076317Y-31014162D01*
X22084135Y-31009131D01*
X30640660Y-31009131D01*
X30667447Y-31589535D01*
X30838024Y-32001344D01*
X31086785Y-32078610D01*
X31933395Y-31232000D01*
X31086785Y-30385390D01*
X30838024Y-30462656D01*
X30640660Y-31009131D01*
X22084135Y-31009131D01*
X22292441Y-30875090D01*
X22437431Y-30662890D01*
X22488440Y-30411000D01*
X22488440Y-28911000D01*
X22444162Y-28675683D01*
X22305090Y-28459559D01*
X22092890Y-28314569D01*
X22079803Y-28311919D01*
X22292441Y-28175090D01*
X22437431Y-27962890D01*
X22488440Y-27711000D01*
X22488440Y-27221000D01*
X23109554Y-27221000D01*
X23137838Y-27371317D01*
X23276910Y-27587441D01*
X23489110Y-27732431D01*
X23741000Y-27783440D01*
X24467000Y-27783440D01*
X24467000Y-28299554D01*
X24316683Y-28327838D01*
X24100559Y-28466910D01*
X23955569Y-28679110D01*
X23904560Y-28931000D01*
X23904560Y-30231000D01*
X23948838Y-30466317D01*
X24087910Y-30682441D01*
X24300110Y-30827431D01*
X24552000Y-30878440D01*
X26052000Y-30878440D01*
X26287317Y-30834162D01*
X26503441Y-30695090D01*
X26648431Y-30482890D01*
X26651081Y-30469803D01*
X26787910Y-30682441D01*
X27000110Y-30827431D01*
X27252000Y-30878440D01*
X28752000Y-30878440D01*
X28987317Y-30834162D01*
X29203441Y-30695090D01*
X29348431Y-30482890D01*
X29361977Y-30416000D01*
X29847000Y-30416000D01*
X30166541Y-30352439D01*
X30386024Y-30205785D01*
X31266390Y-30205785D01*
X32113000Y-31052395D01*
X32959610Y-30205785D01*
X32882344Y-29957024D01*
X32335869Y-29759660D01*
X31755465Y-29786447D01*
X31343656Y-29957024D01*
X31266390Y-30205785D01*
X30386024Y-30205785D01*
X30437434Y-30171434D01*
X31025428Y-29583440D01*
X31867000Y-29583440D01*
X32102317Y-29539162D01*
X32318441Y-29400090D01*
X32366134Y-29330289D01*
X32402910Y-29387441D01*
X32615110Y-29532431D01*
X32867000Y-29583440D01*
X34367000Y-29583440D01*
X34602317Y-29539162D01*
X34818441Y-29400090D01*
X34963431Y-29187890D01*
X35013929Y-28938521D01*
X35069434Y-28901434D01*
X37029428Y-26941440D01*
X37896000Y-26941440D01*
X38131317Y-26897162D01*
X38347441Y-26758090D01*
X38492431Y-26545890D01*
X38505977Y-26479000D01*
X39028473Y-26479000D01*
X39061838Y-26656317D01*
G36*
X41265910Y-38175441D02*
X41473931Y-38317575D01*
X41432569Y-38378110D01*
X41381560Y-38630000D01*
X41381560Y-40130000D01*
X41425838Y-40365317D01*
X41529341Y-40526166D01*
X41339930Y-40472675D01*
X40547605Y-41265000D01*
X41339930Y-42057325D01*
X41381560Y-42045568D01*
X41381560Y-42630000D01*
X41425838Y-42865317D01*
X41564910Y-43081441D01*
X41777110Y-43226431D01*
X42029000Y-43277440D01*
X42271331Y-43277440D01*
X42434460Y-43386439D01*
X42754000Y-43450000D01*
X43073540Y-43386439D01*
X43236669Y-43277440D01*
X43279000Y-43277440D01*
X43408381Y-43253095D01*
X42821903Y-43838551D01*
X42240643Y-45238379D01*
X42239320Y-46754091D01*
X42818136Y-48154932D01*
X43888971Y-49227637D01*
X43954868Y-49255000D01*
X39972978Y-49255000D01*
X40136458Y-48808164D01*
X40110839Y-48198040D01*
X39926643Y-47753352D01*
X39745000Y-47692159D01*
X39745000Y-47592108D01*
X39784718Y-47552390D01*
X39745000Y-47512672D01*
X39745000Y-46211650D01*
X39586250Y-46052900D01*
X37257000Y-46052900D01*
X37257000Y-46072900D01*
X37003000Y-46072900D01*
X37003000Y-46052900D01*
X36983000Y-46052900D01*
X36983000Y-45798900D01*
X37003000Y-45798900D01*
X37003000Y-44735672D01*
X37034502Y-44651607D01*
X37003000Y-44620105D01*
X37003000Y-44260895D01*
X37214107Y-44472002D01*
X37257000Y-44455928D01*
X37257000Y-45798900D01*
X39586250Y-45798900D01*
X39745000Y-45640150D01*
X39745000Y-42513975D01*
X40163034Y-42662767D01*
X40713538Y-42634805D01*
X41092265Y-42477931D01*
X41160325Y-42236930D01*
X40368000Y-41444605D01*
X40353858Y-41458748D01*
X40174253Y-41279143D01*
X40188395Y-41265000D01*
X40174253Y-41250858D01*
X40353858Y-41071253D01*
X40368000Y-41085395D01*
X41160325Y-40293070D01*
X41092265Y-40052069D01*
X40572966Y-39867233D01*
X40022462Y-39895195D01*
X39978896Y-39913240D01*
X40113801Y-39588354D01*
X40114198Y-39133641D01*
X39940554Y-38713388D01*
X39619303Y-38391577D01*
X39570808Y-38371440D01*
X40530000Y-38371440D01*
X40765317Y-38327162D01*
X40981441Y-38188090D01*
X41126431Y-37975890D01*
X41129081Y-37962803D01*
X41265910Y-38175441D01*
X41265910Y-38175441D01*
G37*
X41265910Y-38175441D02*
X41473931Y-38317575D01*
X41432569Y-38378110D01*
X41381560Y-38630000D01*
X41381560Y-40130000D01*
X41425838Y-40365317D01*
X41529341Y-40526166D01*
X41339930Y-40472675D01*
X40547605Y-41265000D01*
X41339930Y-42057325D01*
X41381560Y-42045568D01*
X41381560Y-42630000D01*
X41425838Y-42865317D01*
X41564910Y-43081441D01*
X41777110Y-43226431D01*
X42029000Y-43277440D01*
X42271331Y-43277440D01*
X42434460Y-43386439D01*
X42754000Y-43450000D01*
X43073540Y-43386439D01*
X43236669Y-43277440D01*
X43279000Y-43277440D01*
X43408381Y-43253095D01*
X42821903Y-43838551D01*
X42240643Y-45238379D01*
X42239320Y-46754091D01*
X42818136Y-48154932D01*
X43888971Y-49227637D01*
X43954868Y-49255000D01*
X39972978Y-49255000D01*
X40136458Y-48808164D01*
X40110839Y-48198040D01*
X39926643Y-47753352D01*
X39745000Y-47692159D01*
X39745000Y-47592108D01*
X39784718Y-47552390D01*
X39745000Y-47512672D01*
X39745000Y-46211650D01*
X39586250Y-46052900D01*
X37257000Y-46052900D01*
X37257000Y-46072900D01*
X37003000Y-46072900D01*
X37003000Y-46052900D01*
X36983000Y-46052900D01*
X36983000Y-45798900D01*
X37003000Y-45798900D01*
X37003000Y-44735672D01*
X37034502Y-44651607D01*
X37003000Y-44620105D01*
X37003000Y-44260895D01*
X37214107Y-44472002D01*
X37257000Y-44455928D01*
X37257000Y-45798900D01*
X39586250Y-45798900D01*
X39745000Y-45640150D01*
X39745000Y-42513975D01*
X40163034Y-42662767D01*
X40713538Y-42634805D01*
X41092265Y-42477931D01*
X41160325Y-42236930D01*
X40368000Y-41444605D01*
X40353858Y-41458748D01*
X40174253Y-41279143D01*
X40188395Y-41265000D01*
X40174253Y-41250858D01*
X40353858Y-41071253D01*
X40368000Y-41085395D01*
X41160325Y-40293070D01*
X41092265Y-40052069D01*
X40572966Y-39867233D01*
X40022462Y-39895195D01*
X39978896Y-39913240D01*
X40113801Y-39588354D01*
X40114198Y-39133641D01*
X39940554Y-38713388D01*
X39619303Y-38391577D01*
X39570808Y-38371440D01*
X40530000Y-38371440D01*
X40765317Y-38327162D01*
X40981441Y-38188090D01*
X41126431Y-37975890D01*
X41129081Y-37962803D01*
X41265910Y-38175441D01*
G36*
X43774676Y-18503860D02*
X43514973Y-18981725D01*
X43500617Y-19053926D01*
X43623238Y-19268600D01*
X45473400Y-19268600D01*
X45473400Y-19248600D01*
X45727400Y-19248600D01*
X45727400Y-19268600D01*
X47577562Y-19268600D01*
X47700183Y-19053926D01*
X47685827Y-18981725D01*
X47426124Y-18503860D01*
X47303944Y-18405000D01*
X49305000Y-18405000D01*
X49305000Y-37660758D01*
X49146000Y-37628560D01*
X48824049Y-37628560D01*
X48830440Y-37597000D01*
X48830440Y-36599016D01*
X48944148Y-36428839D01*
X49002000Y-36138000D01*
X49002000Y-32375000D01*
X48944148Y-32084161D01*
X48779401Y-31837599D01*
X48271401Y-31329599D01*
X48074790Y-31198228D01*
X48139931Y-31102890D01*
X48190940Y-30851000D01*
X48190940Y-30343000D01*
X48146662Y-30107683D01*
X48055896Y-29966629D01*
X48081827Y-29940698D01*
X48178500Y-29707309D01*
X48178500Y-29612750D01*
X48019750Y-29454000D01*
X47099000Y-29454000D01*
X47099000Y-29474000D01*
X46845000Y-29474000D01*
X46845000Y-29454000D01*
X46825000Y-29454000D01*
X46825000Y-29200000D01*
X46845000Y-29200000D01*
X46845000Y-28596750D01*
X47099000Y-28596750D01*
X47099000Y-29200000D01*
X48019750Y-29200000D01*
X48178500Y-29041250D01*
X48178500Y-28946691D01*
X48081827Y-28713302D01*
X47903199Y-28534673D01*
X47669810Y-28438000D01*
X47257750Y-28438000D01*
X47099000Y-28596750D01*
X46845000Y-28596750D01*
X46686250Y-28438000D01*
X46525500Y-28438000D01*
X46525500Y-25009000D01*
X46467648Y-24718161D01*
X46302901Y-24471599D01*
X46111534Y-24343732D01*
X44512440Y-22744638D01*
X44512440Y-22200000D01*
X44468162Y-21964683D01*
X44329090Y-21748559D01*
X44116890Y-21603569D01*
X43865000Y-21552560D01*
X42365000Y-21552560D01*
X42129683Y-21596838D01*
X41913559Y-21735910D01*
X41768569Y-21948110D01*
X41765919Y-21961197D01*
X41629090Y-21748559D01*
X41416890Y-21603569D01*
X41165000Y-21552560D01*
X39665000Y-21552560D01*
X39429683Y-21596838D01*
X39213559Y-21735910D01*
X39068569Y-21948110D01*
X39017560Y-22200000D01*
X39017560Y-22523000D01*
X38508630Y-22523000D01*
X38499162Y-22472683D01*
X38360090Y-22256559D01*
X38147890Y-22111569D01*
X37896000Y-22060560D01*
X37029428Y-22060560D01*
X35649440Y-20680572D01*
X35649440Y-19939000D01*
X35611483Y-19737274D01*
X43500617Y-19737274D01*
X43514973Y-19809475D01*
X43774676Y-20287340D01*
X44197481Y-20629446D01*
X44719020Y-20783710D01*
X45473400Y-20783710D01*
X45473400Y-19522600D01*
X45727400Y-19522600D01*
X45727400Y-20783710D01*
X46481780Y-20783710D01*
X47003319Y-20629446D01*
X47426124Y-20287340D01*
X47685827Y-19809475D01*
X47700183Y-19737274D01*
X47577562Y-19522600D01*
X45727400Y-19522600D01*
X45473400Y-19522600D01*
X43623238Y-19522600D01*
X43500617Y-19737274D01*
X35611483Y-19737274D01*
X35605162Y-19703683D01*
X35466090Y-19487559D01*
X35253890Y-19342569D01*
X35002000Y-19291560D01*
X33502000Y-19291560D01*
X33266683Y-19335838D01*
X33050559Y-19474910D01*
X33002866Y-19544711D01*
X32966090Y-19487559D01*
X32753890Y-19342569D01*
X32502000Y-19291560D01*
X31108523Y-19291560D01*
X31078322Y-18860343D01*
X30970568Y-18600200D01*
X40825200Y-18600200D01*
X41259546Y-18513803D01*
X41422381Y-18405000D01*
X43896856Y-18405000D01*
X43774676Y-18503860D01*
X43774676Y-18503860D01*
G37*
X43774676Y-18503860D02*
X43514973Y-18981725D01*
X43500617Y-19053926D01*
X43623238Y-19268600D01*
X45473400Y-19268600D01*
X45473400Y-19248600D01*
X45727400Y-19248600D01*
X45727400Y-19268600D01*
X47577562Y-19268600D01*
X47700183Y-19053926D01*
X47685827Y-18981725D01*
X47426124Y-18503860D01*
X47303944Y-18405000D01*
X49305000Y-18405000D01*
X49305000Y-37660758D01*
X49146000Y-37628560D01*
X48824049Y-37628560D01*
X48830440Y-37597000D01*
X48830440Y-36599016D01*
X48944148Y-36428839D01*
X49002000Y-36138000D01*
X49002000Y-32375000D01*
X48944148Y-32084161D01*
X48779401Y-31837599D01*
X48271401Y-31329599D01*
X48074790Y-31198228D01*
X48139931Y-31102890D01*
X48190940Y-30851000D01*
X48190940Y-30343000D01*
X48146662Y-30107683D01*
X48055896Y-29966629D01*
X48081827Y-29940698D01*
X48178500Y-29707309D01*
X48178500Y-29612750D01*
X48019750Y-29454000D01*
X47099000Y-29454000D01*
X47099000Y-29474000D01*
X46845000Y-29474000D01*
X46845000Y-29454000D01*
X46825000Y-29454000D01*
X46825000Y-29200000D01*
X46845000Y-29200000D01*
X46845000Y-28596750D01*
X47099000Y-28596750D01*
X47099000Y-29200000D01*
X48019750Y-29200000D01*
X48178500Y-29041250D01*
X48178500Y-28946691D01*
X48081827Y-28713302D01*
X47903199Y-28534673D01*
X47669810Y-28438000D01*
X47257750Y-28438000D01*
X47099000Y-28596750D01*
X46845000Y-28596750D01*
X46686250Y-28438000D01*
X46525500Y-28438000D01*
X46525500Y-25009000D01*
X46467648Y-24718161D01*
X46302901Y-24471599D01*
X46111534Y-24343732D01*
X44512440Y-22744638D01*
X44512440Y-22200000D01*
X44468162Y-21964683D01*
X44329090Y-21748559D01*
X44116890Y-21603569D01*
X43865000Y-21552560D01*
X42365000Y-21552560D01*
X42129683Y-21596838D01*
X41913559Y-21735910D01*
X41768569Y-21948110D01*
X41765919Y-21961197D01*
X41629090Y-21748559D01*
X41416890Y-21603569D01*
X41165000Y-21552560D01*
X39665000Y-21552560D01*
X39429683Y-21596838D01*
X39213559Y-21735910D01*
X39068569Y-21948110D01*
X39017560Y-22200000D01*
X39017560Y-22523000D01*
X38508630Y-22523000D01*
X38499162Y-22472683D01*
X38360090Y-22256559D01*
X38147890Y-22111569D01*
X37896000Y-22060560D01*
X37029428Y-22060560D01*
X35649440Y-20680572D01*
X35649440Y-19939000D01*
X35611483Y-19737274D01*
X43500617Y-19737274D01*
X43514973Y-19809475D01*
X43774676Y-20287340D01*
X44197481Y-20629446D01*
X44719020Y-20783710D01*
X45473400Y-20783710D01*
X45473400Y-19522600D01*
X45727400Y-19522600D01*
X45727400Y-20783710D01*
X46481780Y-20783710D01*
X47003319Y-20629446D01*
X47426124Y-20287340D01*
X47685827Y-19809475D01*
X47700183Y-19737274D01*
X47577562Y-19522600D01*
X45727400Y-19522600D01*
X45473400Y-19522600D01*
X43623238Y-19522600D01*
X43500617Y-19737274D01*
X35611483Y-19737274D01*
X35605162Y-19703683D01*
X35466090Y-19487559D01*
X35253890Y-19342569D01*
X35002000Y-19291560D01*
X33502000Y-19291560D01*
X33266683Y-19335838D01*
X33050559Y-19474910D01*
X33002866Y-19544711D01*
X32966090Y-19487559D01*
X32753890Y-19342569D01*
X32502000Y-19291560D01*
X31108523Y-19291560D01*
X31078322Y-18860343D01*
X30970568Y-18600200D01*
X40825200Y-18600200D01*
X41259546Y-18513803D01*
X41422381Y-18405000D01*
X43896856Y-18405000D01*
X43774676Y-18503860D01*
G36*
X45005500Y-25387302D02*
X45005500Y-29098400D01*
X44082750Y-29098400D01*
X43924000Y-29257150D01*
X43924000Y-31105000D01*
X43944000Y-31105000D01*
X43944000Y-31359000D01*
X43924000Y-31359000D01*
X43924000Y-33206850D01*
X44082750Y-33365600D01*
X45167910Y-33365600D01*
X45401299Y-33268927D01*
X45579927Y-33090298D01*
X45676600Y-32856909D01*
X45676600Y-31517750D01*
X45517852Y-31359002D01*
X45676600Y-31359002D01*
X45676600Y-31301423D01*
X45824720Y-31330887D01*
X45804069Y-31361110D01*
X45753060Y-31613000D01*
X45753060Y-32121000D01*
X45797338Y-32356317D01*
X45891666Y-32502907D01*
X45804069Y-32631110D01*
X45753060Y-32883000D01*
X45753060Y-33175072D01*
X44142566Y-34785566D01*
X43961561Y-35056459D01*
X43898000Y-35376000D01*
X43898000Y-35665554D01*
X43747683Y-35693838D01*
X43531559Y-35832910D01*
X43518239Y-35852405D01*
X43481890Y-35827569D01*
X43230000Y-35776560D01*
X42668500Y-35776560D01*
X42668500Y-33365600D01*
X43511250Y-33365600D01*
X43670000Y-33206850D01*
X43670000Y-31359000D01*
X43650000Y-31359000D01*
X43650000Y-31105000D01*
X43670000Y-31105000D01*
X43670000Y-29257150D01*
X43511250Y-29098400D01*
X43301468Y-29098400D01*
X43324434Y-29075434D01*
X43383156Y-28987551D01*
X43453525Y-28908684D01*
X43472854Y-28853307D01*
X43505439Y-28804540D01*
X43526059Y-28700877D01*
X43560892Y-28601082D01*
X43776049Y-27068440D01*
X43865000Y-27068440D01*
X44100317Y-27024162D01*
X44316441Y-26885090D01*
X44461431Y-26672890D01*
X44512440Y-26421000D01*
X44512440Y-25121000D01*
X44468162Y-24885683D01*
X44403692Y-24785494D01*
X45005500Y-25387302D01*
X45005500Y-25387302D01*
G37*
X45005500Y-25387302D02*
X45005500Y-29098400D01*
X44082750Y-29098400D01*
X43924000Y-29257150D01*
X43924000Y-31105000D01*
X43944000Y-31105000D01*
X43944000Y-31359000D01*
X43924000Y-31359000D01*
X43924000Y-33206850D01*
X44082750Y-33365600D01*
X45167910Y-33365600D01*
X45401299Y-33268927D01*
X45579927Y-33090298D01*
X45676600Y-32856909D01*
X45676600Y-31517750D01*
X45517852Y-31359002D01*
X45676600Y-31359002D01*
X45676600Y-31301423D01*
X45824720Y-31330887D01*
X45804069Y-31361110D01*
X45753060Y-31613000D01*
X45753060Y-32121000D01*
X45797338Y-32356317D01*
X45891666Y-32502907D01*
X45804069Y-32631110D01*
X45753060Y-32883000D01*
X45753060Y-33175072D01*
X44142566Y-34785566D01*
X43961561Y-35056459D01*
X43898000Y-35376000D01*
X43898000Y-35665554D01*
X43747683Y-35693838D01*
X43531559Y-35832910D01*
X43518239Y-35852405D01*
X43481890Y-35827569D01*
X43230000Y-35776560D01*
X42668500Y-35776560D01*
X42668500Y-33365600D01*
X43511250Y-33365600D01*
X43670000Y-33206850D01*
X43670000Y-31359000D01*
X43650000Y-31359000D01*
X43650000Y-31105000D01*
X43670000Y-31105000D01*
X43670000Y-29257150D01*
X43511250Y-29098400D01*
X43301468Y-29098400D01*
X43324434Y-29075434D01*
X43383156Y-28987551D01*
X43453525Y-28908684D01*
X43472854Y-28853307D01*
X43505439Y-28804540D01*
X43526059Y-28700877D01*
X43560892Y-28601082D01*
X43776049Y-27068440D01*
X43865000Y-27068440D01*
X44100317Y-27024162D01*
X44316441Y-26885090D01*
X44461431Y-26672890D01*
X44512440Y-26421000D01*
X44512440Y-25121000D01*
X44468162Y-24885683D01*
X44403692Y-24785494D01*
X45005500Y-25387302D01*
G36*
X9352560Y-26289428D02*
X9352560Y-26568000D01*
X9396838Y-26803317D01*
X9535910Y-27019441D01*
X9748110Y-27164431D01*
X9781490Y-27171191D01*
X9640301Y-27229673D01*
X9461673Y-27408302D01*
X9365000Y-27641691D01*
X9365000Y-28232250D01*
X9523750Y-28391000D01*
X10523000Y-28391000D01*
X10523000Y-28371000D01*
X10777000Y-28371000D01*
X10777000Y-28391000D01*
X11776250Y-28391000D01*
X11935000Y-28232250D01*
X11935000Y-27641691D01*
X11838327Y-27408302D01*
X11659699Y-27229673D01*
X11523713Y-27173346D01*
X11535317Y-27171162D01*
X11751441Y-27032090D01*
X11896431Y-26819890D01*
X11930227Y-26653000D01*
X12557264Y-26653000D01*
X12596838Y-26863317D01*
X12735910Y-27079441D01*
X12948110Y-27224431D01*
X12990000Y-27232914D01*
X12990000Y-27327078D01*
X12797559Y-27450910D01*
X12652569Y-27663110D01*
X12601560Y-27915000D01*
X12601560Y-29215000D01*
X12623011Y-29329000D01*
X11935000Y-29329000D01*
X11935000Y-28803750D01*
X11776250Y-28645000D01*
X10777000Y-28645000D01*
X10777000Y-28665000D01*
X10523000Y-28665000D01*
X10523000Y-28645000D01*
X9523750Y-28645000D01*
X9365000Y-28803750D01*
X9365000Y-29126198D01*
X8901401Y-28662599D01*
X8654839Y-28497852D01*
X8626979Y-28492310D01*
X8631679Y-25568547D01*
X9352560Y-26289428D01*
X9352560Y-26289428D01*
G37*
X9352560Y-26289428D02*
X9352560Y-26568000D01*
X9396838Y-26803317D01*
X9535910Y-27019441D01*
X9748110Y-27164431D01*
X9781490Y-27171191D01*
X9640301Y-27229673D01*
X9461673Y-27408302D01*
X9365000Y-27641691D01*
X9365000Y-28232250D01*
X9523750Y-28391000D01*
X10523000Y-28391000D01*
X10523000Y-28371000D01*
X10777000Y-28371000D01*
X10777000Y-28391000D01*
X11776250Y-28391000D01*
X11935000Y-28232250D01*
X11935000Y-27641691D01*
X11838327Y-27408302D01*
X11659699Y-27229673D01*
X11523713Y-27173346D01*
X11535317Y-27171162D01*
X11751441Y-27032090D01*
X11896431Y-26819890D01*
X11930227Y-26653000D01*
X12557264Y-26653000D01*
X12596838Y-26863317D01*
X12735910Y-27079441D01*
X12948110Y-27224431D01*
X12990000Y-27232914D01*
X12990000Y-27327078D01*
X12797559Y-27450910D01*
X12652569Y-27663110D01*
X12601560Y-27915000D01*
X12601560Y-29215000D01*
X12623011Y-29329000D01*
X11935000Y-29329000D01*
X11935000Y-28803750D01*
X11776250Y-28645000D01*
X10777000Y-28645000D01*
X10777000Y-28665000D01*
X10523000Y-28665000D01*
X10523000Y-28645000D01*
X9523750Y-28645000D01*
X9365000Y-28803750D01*
X9365000Y-29126198D01*
X8901401Y-28662599D01*
X8654839Y-28497852D01*
X8626979Y-28492310D01*
X8631679Y-25568547D01*
X9352560Y-26289428D01*
G36*
X14156680Y-18411225D02*
X14599959Y-18595290D01*
X15079935Y-18595709D01*
X15523535Y-18412418D01*
X15530966Y-18405000D01*
X20463412Y-18405000D01*
X20542697Y-18484423D01*
X20962646Y-18658801D01*
X21417359Y-18659198D01*
X21560146Y-18600200D01*
X22796785Y-18600200D01*
X22644824Y-18663144D01*
X22606686Y-18879081D01*
X23223000Y-19495395D01*
X23839314Y-18879081D01*
X23801176Y-18663144D01*
X23612987Y-18600200D01*
X28938339Y-18600200D01*
X28797909Y-19020055D01*
X28816082Y-19279537D01*
X28752000Y-19266560D01*
X27252000Y-19266560D01*
X27016683Y-19310838D01*
X26800559Y-19449910D01*
X26655569Y-19662110D01*
X26652919Y-19675197D01*
X26516090Y-19462559D01*
X26303890Y-19317569D01*
X26052000Y-19266560D01*
X24552000Y-19266560D01*
X24323010Y-19309648D01*
X24234856Y-19096824D01*
X24018919Y-19058686D01*
X23402605Y-19675000D01*
X23416748Y-19689143D01*
X23237143Y-19868748D01*
X23223000Y-19854605D01*
X22606686Y-20470919D01*
X22644824Y-20686856D01*
X23076055Y-20831091D01*
X23529657Y-20799322D01*
X23801176Y-20686856D01*
X23839314Y-20470922D01*
X23904560Y-20536168D01*
X23904560Y-21214000D01*
X23948838Y-21449317D01*
X24087910Y-21665441D01*
X24300110Y-21810431D01*
X24467000Y-21844227D01*
X24467000Y-22488560D01*
X23741000Y-22488560D01*
X23505683Y-22532838D01*
X23289559Y-22671910D01*
X23144569Y-22884110D01*
X23110773Y-23051000D01*
X22361440Y-23051000D01*
X22361440Y-22561000D01*
X22317162Y-22325683D01*
X22178090Y-22109559D01*
X21965890Y-21964569D01*
X21952803Y-21961919D01*
X22165441Y-21825090D01*
X22310431Y-21612890D01*
X22361440Y-21361000D01*
X22361440Y-20279721D01*
X22427081Y-20291314D01*
X23043395Y-19675000D01*
X22427081Y-19058686D01*
X22211144Y-19096824D01*
X22119852Y-19369767D01*
X21965890Y-19264569D01*
X21714000Y-19213560D01*
X20414000Y-19213560D01*
X20178683Y-19257838D01*
X19962559Y-19396910D01*
X19817569Y-19609110D01*
X19783773Y-19776000D01*
X18160062Y-19776000D01*
X18040090Y-19589559D01*
X17827890Y-19444569D01*
X17576000Y-19393560D01*
X16076000Y-19393560D01*
X15840683Y-19437838D01*
X15624559Y-19576910D01*
X15479569Y-19789110D01*
X15476919Y-19802197D01*
X15340090Y-19589559D01*
X15127890Y-19444569D01*
X14876000Y-19393560D01*
X13376000Y-19393560D01*
X13140683Y-19437838D01*
X12924559Y-19576910D01*
X12779569Y-19789110D01*
X12728560Y-20041000D01*
X12728560Y-21341000D01*
X12772838Y-21576317D01*
X12911910Y-21792441D01*
X13124110Y-21937431D01*
X13291000Y-21971227D01*
X13291000Y-21980560D01*
X13200000Y-21980560D01*
X12964683Y-22024838D01*
X12748559Y-22163910D01*
X12603569Y-22376110D01*
X12569773Y-22543000D01*
X11920156Y-22543000D01*
X11903162Y-22452683D01*
X11764090Y-22236559D01*
X11551890Y-22091569D01*
X11518510Y-22084809D01*
X11659699Y-22026327D01*
X11838327Y-21847698D01*
X11935000Y-21614309D01*
X11935000Y-21023750D01*
X11776250Y-20865000D01*
X10777000Y-20865000D01*
X10777000Y-20885000D01*
X10523000Y-20885000D01*
X10523000Y-20865000D01*
X10503000Y-20865000D01*
X10503000Y-20611000D01*
X10523000Y-20611000D01*
X10523000Y-20591000D01*
X10777000Y-20591000D01*
X10777000Y-20611000D01*
X11776250Y-20611000D01*
X11935000Y-20452250D01*
X11935000Y-19861691D01*
X11867363Y-19698400D01*
X12072400Y-19698400D01*
X12363239Y-19640548D01*
X12609801Y-19475801D01*
X13321001Y-18764601D01*
X13485748Y-18518039D01*
X13508233Y-18405000D01*
X14150466Y-18405000D01*
X14156680Y-18411225D01*
X14156680Y-18411225D01*
G37*
X14156680Y-18411225D02*
X14599959Y-18595290D01*
X15079935Y-18595709D01*
X15523535Y-18412418D01*
X15530966Y-18405000D01*
X20463412Y-18405000D01*
X20542697Y-18484423D01*
X20962646Y-18658801D01*
X21417359Y-18659198D01*
X21560146Y-18600200D01*
X22796785Y-18600200D01*
X22644824Y-18663144D01*
X22606686Y-18879081D01*
X23223000Y-19495395D01*
X23839314Y-18879081D01*
X23801176Y-18663144D01*
X23612987Y-18600200D01*
X28938339Y-18600200D01*
X28797909Y-19020055D01*
X28816082Y-19279537D01*
X28752000Y-19266560D01*
X27252000Y-19266560D01*
X27016683Y-19310838D01*
X26800559Y-19449910D01*
X26655569Y-19662110D01*
X26652919Y-19675197D01*
X26516090Y-19462559D01*
X26303890Y-19317569D01*
X26052000Y-19266560D01*
X24552000Y-19266560D01*
X24323010Y-19309648D01*
X24234856Y-19096824D01*
X24018919Y-19058686D01*
X23402605Y-19675000D01*
X23416748Y-19689143D01*
X23237143Y-19868748D01*
X23223000Y-19854605D01*
X22606686Y-20470919D01*
X22644824Y-20686856D01*
X23076055Y-20831091D01*
X23529657Y-20799322D01*
X23801176Y-20686856D01*
X23839314Y-20470922D01*
X23904560Y-20536168D01*
X23904560Y-21214000D01*
X23948838Y-21449317D01*
X24087910Y-21665441D01*
X24300110Y-21810431D01*
X24467000Y-21844227D01*
X24467000Y-22488560D01*
X23741000Y-22488560D01*
X23505683Y-22532838D01*
X23289559Y-22671910D01*
X23144569Y-22884110D01*
X23110773Y-23051000D01*
X22361440Y-23051000D01*
X22361440Y-22561000D01*
X22317162Y-22325683D01*
X22178090Y-22109559D01*
X21965890Y-21964569D01*
X21952803Y-21961919D01*
X22165441Y-21825090D01*
X22310431Y-21612890D01*
X22361440Y-21361000D01*
X22361440Y-20279721D01*
X22427081Y-20291314D01*
X23043395Y-19675000D01*
X22427081Y-19058686D01*
X22211144Y-19096824D01*
X22119852Y-19369767D01*
X21965890Y-19264569D01*
X21714000Y-19213560D01*
X20414000Y-19213560D01*
X20178683Y-19257838D01*
X19962559Y-19396910D01*
X19817569Y-19609110D01*
X19783773Y-19776000D01*
X18160062Y-19776000D01*
X18040090Y-19589559D01*
X17827890Y-19444569D01*
X17576000Y-19393560D01*
X16076000Y-19393560D01*
X15840683Y-19437838D01*
X15624559Y-19576910D01*
X15479569Y-19789110D01*
X15476919Y-19802197D01*
X15340090Y-19589559D01*
X15127890Y-19444569D01*
X14876000Y-19393560D01*
X13376000Y-19393560D01*
X13140683Y-19437838D01*
X12924559Y-19576910D01*
X12779569Y-19789110D01*
X12728560Y-20041000D01*
X12728560Y-21341000D01*
X12772838Y-21576317D01*
X12911910Y-21792441D01*
X13124110Y-21937431D01*
X13291000Y-21971227D01*
X13291000Y-21980560D01*
X13200000Y-21980560D01*
X12964683Y-22024838D01*
X12748559Y-22163910D01*
X12603569Y-22376110D01*
X12569773Y-22543000D01*
X11920156Y-22543000D01*
X11903162Y-22452683D01*
X11764090Y-22236559D01*
X11551890Y-22091569D01*
X11518510Y-22084809D01*
X11659699Y-22026327D01*
X11838327Y-21847698D01*
X11935000Y-21614309D01*
X11935000Y-21023750D01*
X11776250Y-20865000D01*
X10777000Y-20865000D01*
X10777000Y-20885000D01*
X10523000Y-20885000D01*
X10523000Y-20865000D01*
X10503000Y-20865000D01*
X10503000Y-20611000D01*
X10523000Y-20611000D01*
X10523000Y-20591000D01*
X10777000Y-20591000D01*
X10777000Y-20611000D01*
X11776250Y-20611000D01*
X11935000Y-20452250D01*
X11935000Y-19861691D01*
X11867363Y-19698400D01*
X12072400Y-19698400D01*
X12363239Y-19640548D01*
X12609801Y-19475801D01*
X13321001Y-18764601D01*
X13485748Y-18518039D01*
X13508233Y-18405000D01*
X14150466Y-18405000D01*
X14156680Y-18411225D01*
G36*
X9365000Y-21614309D02*
X9461673Y-21847698D01*
X9640301Y-22026327D01*
X9776287Y-22082654D01*
X9764683Y-22084838D01*
X9548559Y-22223910D01*
X9452156Y-22365000D01*
X8636830Y-22365000D01*
X8637693Y-21828078D01*
X8773401Y-21737401D01*
X9365000Y-21145802D01*
X9365000Y-21614309D01*
X9365000Y-21614309D01*
G37*
X9365000Y-21614309D02*
X9461673Y-21847698D01*
X9640301Y-22026327D01*
X9776287Y-22082654D01*
X9764683Y-22084838D01*
X9548559Y-22223910D01*
X9452156Y-22365000D01*
X8636830Y-22365000D01*
X8637693Y-21828078D01*
X8773401Y-21737401D01*
X9365000Y-21145802D01*
X9365000Y-21614309D01*
G36*
X30147748Y-19152858D02*
X30133605Y-19167000D01*
X30147748Y-19181143D01*
X29968143Y-19360748D01*
X29954000Y-19346605D01*
X29939858Y-19360748D01*
X29760253Y-19181143D01*
X29774395Y-19167000D01*
X29760253Y-19152858D01*
X29939858Y-18973253D01*
X29954000Y-18987395D01*
X29968143Y-18973253D01*
X30147748Y-19152858D01*
X30147748Y-19152858D01*
G37*
X30147748Y-19152858D02*
X30133605Y-19167000D01*
X30147748Y-19181143D01*
X29968143Y-19360748D01*
X29954000Y-19346605D01*
X29939858Y-19360748D01*
X29760253Y-19181143D01*
X29774395Y-19167000D01*
X29760253Y-19152858D01*
X29939858Y-18973253D01*
X29954000Y-18987395D01*
X29968143Y-18973253D01*
X30147748Y-19152858D01*
M02*
