G04 #@! TF.FileFunction,Legend,Top*
%FSLAX46Y46*%
G04 Gerber Fmt 4.6, Leading zero omitted, Abs format (unit mm)*
G04 Created by KiCad (PCBNEW 4.0.2-4+6225~38~ubuntu14.04.1-stable) date Tue 19 Apr 2016 03:22:28 PM EDT*
%MOMM*%
G01*
G04 APERTURE LIST*
%ADD10C,0.100000*%
%ADD11C,0.150000*%
%ADD12C,0.200000*%
G04 APERTURE END LIST*
D10*
X28822001Y-1043333D02*
X28755335Y-1010000D01*
X28622001Y-1010000D01*
X28555335Y-1043333D01*
X28488668Y-1110000D01*
X28455335Y-1176667D01*
X28455335Y-1310000D01*
X28488668Y-1376667D01*
X28555335Y-1443333D01*
X28622001Y-1476667D01*
X28755335Y-1476667D01*
X28822001Y-1443333D01*
X28688668Y-776667D02*
X28522001Y-810000D01*
X28355335Y-910000D01*
X28255335Y-1076667D01*
X28222001Y-1243333D01*
X28255335Y-1410000D01*
X28355335Y-1576667D01*
X28522001Y-1676667D01*
X28688668Y-1710000D01*
X28855335Y-1676667D01*
X29022001Y-1576667D01*
X29122001Y-1410000D01*
X29155335Y-1243333D01*
X29122001Y-1076667D01*
X29022001Y-910000D01*
X28855335Y-810000D01*
X28688668Y-776667D01*
X29422001Y-943333D02*
X29455335Y-910000D01*
X29522001Y-876667D01*
X29688668Y-876667D01*
X29755335Y-910000D01*
X29788668Y-943333D01*
X29822001Y-1010000D01*
X29822001Y-1076667D01*
X29788668Y-1176667D01*
X29388668Y-1576667D01*
X29822001Y-1576667D01*
X30255335Y-876667D02*
X30322002Y-876667D01*
X30388668Y-910000D01*
X30422002Y-943333D01*
X30455335Y-1010000D01*
X30488668Y-1143333D01*
X30488668Y-1310000D01*
X30455335Y-1443333D01*
X30422002Y-1510000D01*
X30388668Y-1543333D01*
X30322002Y-1576667D01*
X30255335Y-1576667D01*
X30188668Y-1543333D01*
X30155335Y-1510000D01*
X30122002Y-1443333D01*
X30088668Y-1310000D01*
X30088668Y-1143333D01*
X30122002Y-1010000D01*
X30155335Y-943333D01*
X30188668Y-910000D01*
X30255335Y-876667D01*
X31155335Y-1576667D02*
X30755335Y-1576667D01*
X30955335Y-1576667D02*
X30955335Y-876667D01*
X30888669Y-976667D01*
X30822002Y-1043333D01*
X30755335Y-1076667D01*
X31755336Y-876667D02*
X31622002Y-876667D01*
X31555336Y-910000D01*
X31522002Y-943333D01*
X31455336Y-1043333D01*
X31422002Y-1176667D01*
X31422002Y-1443333D01*
X31455336Y-1510000D01*
X31488669Y-1543333D01*
X31555336Y-1576667D01*
X31688669Y-1576667D01*
X31755336Y-1543333D01*
X31788669Y-1510000D01*
X31822002Y-1443333D01*
X31822002Y-1276667D01*
X31788669Y-1210000D01*
X31755336Y-1176667D01*
X31688669Y-1143333D01*
X31555336Y-1143333D01*
X31488669Y-1176667D01*
X31455336Y-1210000D01*
X31422002Y-1276667D01*
X32622002Y-1543333D02*
X32722002Y-1576667D01*
X32888669Y-1576667D01*
X32955336Y-1543333D01*
X32988669Y-1510000D01*
X33022002Y-1443333D01*
X33022002Y-1376667D01*
X32988669Y-1310000D01*
X32955336Y-1276667D01*
X32888669Y-1243333D01*
X32755336Y-1210000D01*
X32688669Y-1176667D01*
X32655336Y-1143333D01*
X32622002Y-1076667D01*
X32622002Y-1010000D01*
X32655336Y-943333D01*
X32688669Y-910000D01*
X32755336Y-876667D01*
X32922002Y-876667D01*
X33022002Y-910000D01*
X33422003Y-1576667D02*
X33355336Y-1543333D01*
X33322003Y-1510000D01*
X33288669Y-1443333D01*
X33288669Y-1243333D01*
X33322003Y-1176667D01*
X33355336Y-1143333D01*
X33422003Y-1110000D01*
X33522003Y-1110000D01*
X33588669Y-1143333D01*
X33622003Y-1176667D01*
X33655336Y-1243333D01*
X33655336Y-1443333D01*
X33622003Y-1510000D01*
X33588669Y-1543333D01*
X33522003Y-1576667D01*
X33422003Y-1576667D01*
X33855336Y-1110000D02*
X34122002Y-1110000D01*
X33955336Y-1576667D02*
X33955336Y-976667D01*
X33988669Y-910000D01*
X34055336Y-876667D01*
X34122002Y-876667D01*
X34255336Y-1110000D02*
X34522002Y-1110000D01*
X34355336Y-876667D02*
X34355336Y-1476667D01*
X34388669Y-1543333D01*
X34455336Y-1576667D01*
X34522002Y-1576667D01*
X35022002Y-1543333D02*
X34955336Y-1576667D01*
X34822002Y-1576667D01*
X34755336Y-1543333D01*
X34722002Y-1476667D01*
X34722002Y-1210000D01*
X34755336Y-1143333D01*
X34822002Y-1110000D01*
X34955336Y-1110000D01*
X35022002Y-1143333D01*
X35055336Y-1210000D01*
X35055336Y-1276667D01*
X34722002Y-1343333D01*
X35355336Y-1576667D02*
X35355336Y-1110000D01*
X35355336Y-1243333D02*
X35388669Y-1176667D01*
X35422002Y-1143333D01*
X35488669Y-1110000D01*
X35555336Y-1110000D01*
X35788669Y-1576667D02*
X35788669Y-876667D01*
X35788669Y-1210000D02*
X36188669Y-1210000D01*
X36188669Y-1576667D02*
X36188669Y-876667D01*
X36822002Y-1576667D02*
X36822002Y-1210000D01*
X36788668Y-1143333D01*
X36722002Y-1110000D01*
X36588668Y-1110000D01*
X36522002Y-1143333D01*
X36822002Y-1543333D02*
X36755335Y-1576667D01*
X36588668Y-1576667D01*
X36522002Y-1543333D01*
X36488668Y-1476667D01*
X36488668Y-1410000D01*
X36522002Y-1343333D01*
X36588668Y-1310000D01*
X36755335Y-1310000D01*
X36822002Y-1276667D01*
X37155335Y-1576667D02*
X37155335Y-1110000D01*
X37155335Y-1243333D02*
X37188668Y-1176667D01*
X37222001Y-1143333D01*
X37288668Y-1110000D01*
X37355335Y-1110000D01*
X37888668Y-1576667D02*
X37888668Y-876667D01*
X37888668Y-1543333D02*
X37822001Y-1576667D01*
X37688668Y-1576667D01*
X37622001Y-1543333D01*
X37588668Y-1510000D01*
X37555334Y-1443333D01*
X37555334Y-1243333D01*
X37588668Y-1176667D01*
X37622001Y-1143333D01*
X37688668Y-1110000D01*
X37822001Y-1110000D01*
X37888668Y-1143333D01*
X38155334Y-1110000D02*
X38288667Y-1576667D01*
X38422001Y-1243333D01*
X38555334Y-1576667D01*
X38688667Y-1110000D01*
X39255334Y-1576667D02*
X39255334Y-1210000D01*
X39222000Y-1143333D01*
X39155334Y-1110000D01*
X39022000Y-1110000D01*
X38955334Y-1143333D01*
X39255334Y-1543333D02*
X39188667Y-1576667D01*
X39022000Y-1576667D01*
X38955334Y-1543333D01*
X38922000Y-1476667D01*
X38922000Y-1410000D01*
X38955334Y-1343333D01*
X39022000Y-1310000D01*
X39188667Y-1310000D01*
X39255334Y-1276667D01*
X39588667Y-1576667D02*
X39588667Y-1110000D01*
X39588667Y-1243333D02*
X39622000Y-1176667D01*
X39655333Y-1143333D01*
X39722000Y-1110000D01*
X39788667Y-1110000D01*
X40288666Y-1543333D02*
X40222000Y-1576667D01*
X40088666Y-1576667D01*
X40022000Y-1543333D01*
X39988666Y-1476667D01*
X39988666Y-1210000D01*
X40022000Y-1143333D01*
X40088666Y-1110000D01*
X40222000Y-1110000D01*
X40288666Y-1143333D01*
X40322000Y-1210000D01*
X40322000Y-1276667D01*
X39988666Y-1343333D01*
X9610167Y-1576667D02*
X9610167Y-876667D01*
X9610167Y-1210000D02*
X10010167Y-1210000D01*
X10010167Y-1576667D02*
X10010167Y-876667D01*
X10610166Y-1543333D02*
X10543500Y-1576667D01*
X10410166Y-1576667D01*
X10343500Y-1543333D01*
X10310166Y-1476667D01*
X10310166Y-1210000D01*
X10343500Y-1143333D01*
X10410166Y-1110000D01*
X10543500Y-1110000D01*
X10610166Y-1143333D01*
X10643500Y-1210000D01*
X10643500Y-1276667D01*
X10310166Y-1343333D01*
X10943500Y-1576667D02*
X10943500Y-1110000D01*
X10943500Y-1243333D02*
X10976833Y-1176667D01*
X11010166Y-1143333D01*
X11076833Y-1110000D01*
X11143500Y-1110000D01*
X11376833Y-1576667D02*
X11376833Y-1110000D01*
X11376833Y-1176667D02*
X11410166Y-1143333D01*
X11476833Y-1110000D01*
X11576833Y-1110000D01*
X11643499Y-1143333D01*
X11676833Y-1210000D01*
X11676833Y-1576667D01*
X11676833Y-1210000D02*
X11710166Y-1143333D01*
X11776833Y-1110000D01*
X11876833Y-1110000D01*
X11943499Y-1143333D01*
X11976833Y-1210000D01*
X11976833Y-1576667D01*
X12576832Y-1543333D02*
X12510166Y-1576667D01*
X12376832Y-1576667D01*
X12310166Y-1543333D01*
X12276832Y-1476667D01*
X12276832Y-1210000D01*
X12310166Y-1143333D01*
X12376832Y-1110000D01*
X12510166Y-1110000D01*
X12576832Y-1143333D01*
X12610166Y-1210000D01*
X12610166Y-1276667D01*
X12276832Y-1343333D01*
X12876832Y-1543333D02*
X12943499Y-1576667D01*
X13076832Y-1576667D01*
X13143499Y-1543333D01*
X13176832Y-1476667D01*
X13176832Y-1443333D01*
X13143499Y-1376667D01*
X13076832Y-1343333D01*
X12976832Y-1343333D01*
X12910166Y-1310000D01*
X12876832Y-1243333D01*
X12876832Y-1210000D01*
X12910166Y-1143333D01*
X12976832Y-1110000D01*
X13076832Y-1110000D01*
X13143499Y-1143333D01*
X13476833Y-1310000D02*
X14010166Y-1310000D01*
X14676833Y-1576667D02*
X14343500Y-1576667D01*
X14343500Y-876667D01*
X14910167Y-1576667D02*
X14910167Y-1110000D01*
X14910167Y-876667D02*
X14876833Y-910000D01*
X14910167Y-943333D01*
X14943500Y-910000D01*
X14910167Y-876667D01*
X14910167Y-943333D01*
X15143500Y-1110000D02*
X15410166Y-1110000D01*
X15243500Y-876667D02*
X15243500Y-1476667D01*
X15276833Y-1543333D01*
X15343500Y-1576667D01*
X15410166Y-1576667D01*
X15910166Y-1543333D02*
X15843500Y-1576667D01*
X15710166Y-1576667D01*
X15643500Y-1543333D01*
X15610166Y-1476667D01*
X15610166Y-1210000D01*
X15643500Y-1143333D01*
X15710166Y-1110000D01*
X15843500Y-1110000D01*
X15910166Y-1143333D01*
X15943500Y-1210000D01*
X15943500Y-1276667D01*
X15610166Y-1343333D01*
X17010166Y-1210000D02*
X16776833Y-1210000D01*
X16776833Y-1576667D02*
X16776833Y-876667D01*
X17110166Y-876667D01*
X17376833Y-1576667D02*
X17376833Y-1110000D01*
X17376833Y-1243333D02*
X17410166Y-1176667D01*
X17443499Y-1143333D01*
X17510166Y-1110000D01*
X17576833Y-1110000D01*
X17910166Y-1576667D02*
X17843499Y-1543333D01*
X17810166Y-1510000D01*
X17776832Y-1443333D01*
X17776832Y-1243333D01*
X17810166Y-1176667D01*
X17843499Y-1143333D01*
X17910166Y-1110000D01*
X18010166Y-1110000D01*
X18076832Y-1143333D01*
X18110166Y-1176667D01*
X18143499Y-1243333D01*
X18143499Y-1443333D01*
X18110166Y-1510000D01*
X18076832Y-1543333D01*
X18010166Y-1576667D01*
X17910166Y-1576667D01*
X18443499Y-1110000D02*
X18443499Y-1576667D01*
X18443499Y-1176667D02*
X18476832Y-1143333D01*
X18543499Y-1110000D01*
X18643499Y-1110000D01*
X18710165Y-1143333D01*
X18743499Y-1210000D01*
X18743499Y-1576667D01*
X18976832Y-1110000D02*
X19243498Y-1110000D01*
X19076832Y-876667D02*
X19076832Y-1476667D01*
X19110165Y-1543333D01*
X19176832Y-1576667D01*
X19243498Y-1576667D01*
X19743498Y-1543333D02*
X19676832Y-1576667D01*
X19543498Y-1576667D01*
X19476832Y-1543333D01*
X19443498Y-1476667D01*
X19443498Y-1210000D01*
X19476832Y-1143333D01*
X19543498Y-1110000D01*
X19676832Y-1110000D01*
X19743498Y-1143333D01*
X19776832Y-1210000D01*
X19776832Y-1276667D01*
X19443498Y-1343333D01*
X20076832Y-1110000D02*
X20076832Y-1576667D01*
X20076832Y-1176667D02*
X20110165Y-1143333D01*
X20176832Y-1110000D01*
X20276832Y-1110000D01*
X20343498Y-1143333D01*
X20376832Y-1210000D01*
X20376832Y-1576667D01*
X21010165Y-1576667D02*
X21010165Y-876667D01*
X21010165Y-1543333D02*
X20943498Y-1576667D01*
X20810165Y-1576667D01*
X20743498Y-1543333D01*
X20710165Y-1510000D01*
X20676831Y-1443333D01*
X20676831Y-1243333D01*
X20710165Y-1176667D01*
X20743498Y-1143333D01*
X20810165Y-1110000D01*
X20943498Y-1110000D01*
X21010165Y-1143333D01*
X22243497Y-1576667D02*
X21843497Y-1576667D01*
X22043497Y-1576667D02*
X22043497Y-876667D01*
X21976831Y-976667D01*
X21910164Y-1043333D01*
X21843497Y-1076667D01*
X22543498Y-1510000D02*
X22576831Y-1543333D01*
X22543498Y-1576667D01*
X22510164Y-1543333D01*
X22543498Y-1510000D01*
X22543498Y-1576667D01*
X23176831Y-1110000D02*
X23176831Y-1576667D01*
X23010164Y-843333D02*
X22843497Y-1343333D01*
X23276831Y-1343333D01*
X23510164Y-943333D02*
X23543498Y-910000D01*
X23610164Y-876667D01*
X23776831Y-876667D01*
X23843498Y-910000D01*
X23876831Y-943333D01*
X23910164Y-1010000D01*
X23910164Y-1076667D01*
X23876831Y-1176667D01*
X23476831Y-1576667D01*
X23910164Y-1576667D01*
D11*
X48750000Y-9007000D02*
X30970000Y-9007000D01*
X48750000Y-14341000D02*
X30970000Y-14341000D01*
X48750000Y-9007000D02*
X48750000Y-14341000D01*
X30970000Y-14341000D02*
X30970000Y-9007000D01*
D12*
X13950000Y-3920000D02*
X12950000Y-4920000D01*
X12950000Y-4920000D02*
X12950000Y-15680000D01*
X12950000Y-15680000D02*
X25350000Y-15680000D01*
X25350000Y-15680000D02*
X25350000Y-3920000D01*
X25350000Y-3920000D02*
X13950000Y-3920000D01*
D11*
X14675000Y-25128000D02*
X14675000Y-24128000D01*
X12975000Y-24128000D02*
X12975000Y-25128000D01*
X17215000Y-25128000D02*
X17215000Y-24128000D01*
X15515000Y-24128000D02*
X15515000Y-25128000D01*
X25216000Y-25636000D02*
X25216000Y-24636000D01*
X23516000Y-24636000D02*
X23516000Y-25636000D01*
X31820000Y-25001000D02*
X31820000Y-24001000D01*
X30120000Y-24001000D02*
X30120000Y-25001000D01*
X32502000Y-21414000D02*
X33502000Y-21414000D01*
X33502000Y-19714000D02*
X32502000Y-19714000D01*
X31867000Y-29161000D02*
X32867000Y-29161000D01*
X32867000Y-27461000D02*
X31867000Y-27461000D01*
X11525000Y-26568000D02*
X11525000Y-27768000D01*
X9775000Y-27768000D02*
X9775000Y-26568000D01*
X11525000Y-21488000D02*
X11525000Y-22688000D01*
X9775000Y-22688000D02*
X9775000Y-21488000D01*
X27096500Y-39677500D02*
X27096500Y-38471000D01*
X29509500Y-39042500D02*
X28938000Y-38471000D01*
X27096500Y-38471000D02*
X29509500Y-38471000D01*
X29509500Y-38471000D02*
X29509500Y-39677500D01*
X29509500Y-39677500D02*
X27096500Y-39677500D01*
X44330400Y-15585600D02*
X44330400Y-20665600D01*
X48775400Y-15585600D02*
X48775400Y-20665600D01*
X42425400Y-20665600D02*
X42425400Y-15585600D01*
X42425400Y-20665600D02*
X48775400Y-20665600D01*
X42425400Y-15585600D02*
X48775400Y-15585600D01*
X39352000Y-44503500D02*
X39606000Y-44503500D01*
X39606000Y-44503500D02*
X39606000Y-49837500D01*
X27668000Y-44503500D02*
X27414000Y-44503500D01*
X27414000Y-44503500D02*
X27414000Y-49837500D01*
X39352000Y-44503500D02*
X27668000Y-44503500D01*
X25128000Y-44503500D02*
X25382000Y-44503500D01*
X25382000Y-44503500D02*
X25382000Y-49837500D01*
X13444000Y-44503500D02*
X13190000Y-44503500D01*
X13190000Y-44503500D02*
X13190000Y-49837500D01*
X25128000Y-44503500D02*
X13444000Y-44503500D01*
X41804000Y-40130000D02*
X41804000Y-41130000D01*
X43504000Y-41130000D02*
X43504000Y-40130000D01*
X49371000Y-39776000D02*
X49371000Y-40976000D01*
X47621000Y-40976000D02*
X47621000Y-39776000D01*
X38195000Y-36093000D02*
X38195000Y-37293000D01*
X36445000Y-37293000D02*
X36445000Y-36093000D01*
X36445000Y-32467000D02*
X36445000Y-31267000D01*
X38195000Y-31267000D02*
X38195000Y-32467000D01*
X36396000Y-24233000D02*
X35196000Y-24233000D01*
X35196000Y-22483000D02*
X36396000Y-22483000D01*
X35196000Y-24769000D02*
X36396000Y-24769000D01*
X36396000Y-26519000D02*
X35196000Y-26519000D01*
X42365000Y-26646000D02*
X41165000Y-26646000D01*
X41165000Y-24896000D02*
X42365000Y-24896000D01*
X42365000Y-23725000D02*
X41165000Y-23725000D01*
X41165000Y-21975000D02*
X42365000Y-21975000D01*
X45483000Y-36072000D02*
X46683000Y-36072000D01*
X46683000Y-37822000D02*
X45483000Y-37822000D01*
X40530000Y-36199000D02*
X41730000Y-36199000D01*
X41730000Y-37949000D02*
X40530000Y-37949000D01*
X16076000Y-21566000D02*
X14876000Y-21566000D01*
X14876000Y-19816000D02*
X16076000Y-19816000D01*
X14749000Y-27690000D02*
X15949000Y-27690000D01*
X15949000Y-29440000D02*
X14749000Y-29440000D01*
X20189000Y-22561000D02*
X20189000Y-21361000D01*
X21939000Y-21361000D02*
X21939000Y-22561000D01*
X22066000Y-27711000D02*
X22066000Y-28911000D01*
X20316000Y-28911000D02*
X20316000Y-27711000D01*
X27252000Y-21439000D02*
X26052000Y-21439000D01*
X26052000Y-19689000D02*
X27252000Y-19689000D01*
X27252000Y-30456000D02*
X26052000Y-30456000D01*
X26052000Y-28706000D02*
X27252000Y-28706000D01*
X30843000Y-37582000D02*
X35923000Y-37582000D01*
X35923000Y-29962000D02*
X30843000Y-29962000D01*
X35923000Y-29962000D02*
X35923000Y-37582000D01*
X30843000Y-29962000D02*
X30843000Y-37582000D01*
X41511000Y-33772000D02*
X41511000Y-28692000D01*
X41511000Y-28692000D02*
X46083000Y-28692000D01*
X46083000Y-28692000D02*
X46083000Y-33772000D01*
X46083000Y-33772000D02*
X41511000Y-33772000D01*
X43035000Y-33772000D02*
X43035000Y-33264000D01*
X43035000Y-33264000D02*
X44305000Y-33264000D01*
X44305000Y-33264000D02*
X44305000Y-33772000D01*
X17762000Y-36185000D02*
X17762000Y-31105000D01*
X10142000Y-31105000D02*
X10142000Y-36185000D01*
X10142000Y-31105000D02*
X17762000Y-31105000D01*
X10142000Y-36185000D02*
X17762000Y-36185000D01*
X11881000Y-44686000D02*
X11881000Y-43686000D01*
X10181000Y-43686000D02*
X10181000Y-44686000D01*
X17215000Y-39606000D02*
X17215000Y-38606000D01*
X15515000Y-38606000D02*
X15515000Y-39606000D01*
X20310000Y-38432000D02*
X21310000Y-38432000D01*
X21310000Y-36732000D02*
X20310000Y-36732000D01*
X13028000Y-38838000D02*
X11828000Y-38838000D01*
X11828000Y-37088000D02*
X13028000Y-37088000D01*
X21664000Y-36044000D02*
X20464000Y-36044000D01*
X20464000Y-34294000D02*
X21664000Y-34294000D01*
X11928000Y-41099000D02*
X12928000Y-41099000D01*
X12928000Y-39399000D02*
X11928000Y-39399000D01*
X20564000Y-33606000D02*
X21564000Y-33606000D01*
X21564000Y-31906000D02*
X20564000Y-31906000D01*
X19653000Y-24028000D02*
X19653000Y-25228000D01*
X17903000Y-25228000D02*
X17903000Y-24028000D01*
X28543000Y-24536000D02*
X28543000Y-25736000D01*
X26793000Y-25736000D02*
X26793000Y-24536000D01*
X34851524Y-8475143D02*
X34803905Y-8522762D01*
X34661048Y-8570381D01*
X34565810Y-8570381D01*
X34422952Y-8522762D01*
X34327714Y-8427524D01*
X34280095Y-8332286D01*
X34232476Y-8141810D01*
X34232476Y-7998952D01*
X34280095Y-7808476D01*
X34327714Y-7713238D01*
X34422952Y-7618000D01*
X34565810Y-7570381D01*
X34661048Y-7570381D01*
X34803905Y-7618000D01*
X34851524Y-7665619D01*
X35280095Y-8570381D02*
X35280095Y-7570381D01*
X35851524Y-8570381D01*
X35851524Y-7570381D01*
X36280095Y-7665619D02*
X36327714Y-7618000D01*
X36422952Y-7570381D01*
X36661048Y-7570381D01*
X36756286Y-7618000D01*
X36803905Y-7665619D01*
X36851524Y-7760857D01*
X36851524Y-7856095D01*
X36803905Y-7998952D01*
X36232476Y-8570381D01*
X36851524Y-8570381D01*
D10*
X18616667Y-2816667D02*
X18616667Y-3383333D01*
X18650000Y-3450000D01*
X18683333Y-3483333D01*
X18750000Y-3516667D01*
X18883333Y-3516667D01*
X18950000Y-3483333D01*
X18983333Y-3450000D01*
X19016667Y-3383333D01*
X19016667Y-2816667D01*
X19650000Y-2816667D02*
X19516666Y-2816667D01*
X19450000Y-2850000D01*
X19416666Y-2883333D01*
X19350000Y-2983333D01*
X19316666Y-3116667D01*
X19316666Y-3383333D01*
X19350000Y-3450000D01*
X19383333Y-3483333D01*
X19450000Y-3516667D01*
X19583333Y-3516667D01*
X19650000Y-3483333D01*
X19683333Y-3450000D01*
X19716666Y-3383333D01*
X19716666Y-3216667D01*
X19683333Y-3150000D01*
X19650000Y-3116667D01*
X19583333Y-3083333D01*
X19450000Y-3083333D01*
X19383333Y-3116667D01*
X19350000Y-3150000D01*
X19316666Y-3216667D01*
D11*
X16282143Y-24794666D02*
X16329762Y-24842285D01*
X16377381Y-24985142D01*
X16377381Y-25080380D01*
X16329762Y-25223238D01*
X16234524Y-25318476D01*
X16139286Y-25366095D01*
X15948810Y-25413714D01*
X15805952Y-25413714D01*
X15615476Y-25366095D01*
X15520238Y-25318476D01*
X15425000Y-25223238D01*
X15377381Y-25080380D01*
X15377381Y-24985142D01*
X15425000Y-24842285D01*
X15472619Y-24794666D01*
X16377381Y-23842285D02*
X16377381Y-24413714D01*
X16377381Y-24128000D02*
X15377381Y-24128000D01*
X15520238Y-24223238D01*
X15615476Y-24318476D01*
X15663095Y-24413714D01*
X18822143Y-24794666D02*
X18869762Y-24842285D01*
X18917381Y-24985142D01*
X18917381Y-25080380D01*
X18869762Y-25223238D01*
X18774524Y-25318476D01*
X18679286Y-25366095D01*
X18488810Y-25413714D01*
X18345952Y-25413714D01*
X18155476Y-25366095D01*
X18060238Y-25318476D01*
X17965000Y-25223238D01*
X17917381Y-25080380D01*
X17917381Y-24985142D01*
X17965000Y-24842285D01*
X18012619Y-24794666D01*
X18012619Y-24413714D02*
X17965000Y-24366095D01*
X17917381Y-24270857D01*
X17917381Y-24032761D01*
X17965000Y-23937523D01*
X18012619Y-23889904D01*
X18107857Y-23842285D01*
X18203095Y-23842285D01*
X18345952Y-23889904D01*
X18917381Y-24461333D01*
X18917381Y-23842285D01*
X26823143Y-25302666D02*
X26870762Y-25350285D01*
X26918381Y-25493142D01*
X26918381Y-25588380D01*
X26870762Y-25731238D01*
X26775524Y-25826476D01*
X26680286Y-25874095D01*
X26489810Y-25921714D01*
X26346952Y-25921714D01*
X26156476Y-25874095D01*
X26061238Y-25826476D01*
X25966000Y-25731238D01*
X25918381Y-25588380D01*
X25918381Y-25493142D01*
X25966000Y-25350285D01*
X26013619Y-25302666D01*
X25918381Y-24969333D02*
X25918381Y-24350285D01*
X26299333Y-24683619D01*
X26299333Y-24540761D01*
X26346952Y-24445523D01*
X26394571Y-24397904D01*
X26489810Y-24350285D01*
X26727905Y-24350285D01*
X26823143Y-24397904D01*
X26870762Y-24445523D01*
X26918381Y-24540761D01*
X26918381Y-24826476D01*
X26870762Y-24921714D01*
X26823143Y-24969333D01*
X33427143Y-24667666D02*
X33474762Y-24715285D01*
X33522381Y-24858142D01*
X33522381Y-24953380D01*
X33474762Y-25096238D01*
X33379524Y-25191476D01*
X33284286Y-25239095D01*
X33093810Y-25286714D01*
X32950952Y-25286714D01*
X32760476Y-25239095D01*
X32665238Y-25191476D01*
X32570000Y-25096238D01*
X32522381Y-24953380D01*
X32522381Y-24858142D01*
X32570000Y-24715285D01*
X32617619Y-24667666D01*
X32855714Y-23810523D02*
X33522381Y-23810523D01*
X32474762Y-24048619D02*
X33189048Y-24286714D01*
X33189048Y-23667666D01*
X32835334Y-23021143D02*
X32787715Y-23068762D01*
X32644858Y-23116381D01*
X32549620Y-23116381D01*
X32406762Y-23068762D01*
X32311524Y-22973524D01*
X32263905Y-22878286D01*
X32216286Y-22687810D01*
X32216286Y-22544952D01*
X32263905Y-22354476D01*
X32311524Y-22259238D01*
X32406762Y-22164000D01*
X32549620Y-22116381D01*
X32644858Y-22116381D01*
X32787715Y-22164000D01*
X32835334Y-22211619D01*
X33740096Y-22116381D02*
X33263905Y-22116381D01*
X33216286Y-22592571D01*
X33263905Y-22544952D01*
X33359143Y-22497333D01*
X33597239Y-22497333D01*
X33692477Y-22544952D01*
X33740096Y-22592571D01*
X33787715Y-22687810D01*
X33787715Y-22925905D01*
X33740096Y-23021143D01*
X33692477Y-23068762D01*
X33597239Y-23116381D01*
X33359143Y-23116381D01*
X33263905Y-23068762D01*
X33216286Y-23021143D01*
X32200334Y-30768143D02*
X32152715Y-30815762D01*
X32009858Y-30863381D01*
X31914620Y-30863381D01*
X31771762Y-30815762D01*
X31676524Y-30720524D01*
X31628905Y-30625286D01*
X31581286Y-30434810D01*
X31581286Y-30291952D01*
X31628905Y-30101476D01*
X31676524Y-30006238D01*
X31771762Y-29911000D01*
X31914620Y-29863381D01*
X32009858Y-29863381D01*
X32152715Y-29911000D01*
X32200334Y-29958619D01*
X33057477Y-29863381D02*
X32867000Y-29863381D01*
X32771762Y-29911000D01*
X32724143Y-29958619D01*
X32628905Y-30101476D01*
X32581286Y-30291952D01*
X32581286Y-30672905D01*
X32628905Y-30768143D01*
X32676524Y-30815762D01*
X32771762Y-30863381D01*
X32962239Y-30863381D01*
X33057477Y-30815762D01*
X33105096Y-30768143D01*
X33152715Y-30672905D01*
X33152715Y-30434810D01*
X33105096Y-30339571D01*
X33057477Y-30291952D01*
X32962239Y-30244333D01*
X32771762Y-30244333D01*
X32676524Y-30291952D01*
X32628905Y-30339571D01*
X32581286Y-30434810D01*
X9002381Y-27334666D02*
X8526190Y-27668000D01*
X9002381Y-27906095D02*
X8002381Y-27906095D01*
X8002381Y-27525142D01*
X8050000Y-27429904D01*
X8097619Y-27382285D01*
X8192857Y-27334666D01*
X8335714Y-27334666D01*
X8430952Y-27382285D01*
X8478571Y-27429904D01*
X8526190Y-27525142D01*
X8526190Y-27906095D01*
X9002381Y-26382285D02*
X9002381Y-26953714D01*
X9002381Y-26668000D02*
X8002381Y-26668000D01*
X8145238Y-26763238D01*
X8240476Y-26858476D01*
X8288095Y-26953714D01*
X9002381Y-22254666D02*
X8526190Y-22588000D01*
X9002381Y-22826095D02*
X8002381Y-22826095D01*
X8002381Y-22445142D01*
X8050000Y-22349904D01*
X8097619Y-22302285D01*
X8192857Y-22254666D01*
X8335714Y-22254666D01*
X8430952Y-22302285D01*
X8478571Y-22349904D01*
X8526190Y-22445142D01*
X8526190Y-22826095D01*
X8097619Y-21873714D02*
X8050000Y-21826095D01*
X8002381Y-21730857D01*
X8002381Y-21492761D01*
X8050000Y-21397523D01*
X8097619Y-21349904D01*
X8192857Y-21302285D01*
X8288095Y-21302285D01*
X8430952Y-21349904D01*
X9002381Y-21921333D01*
X9002381Y-21302285D01*
X35946905Y-38034381D02*
X35946905Y-37034381D01*
X36327858Y-37034381D01*
X36423096Y-37082000D01*
X36470715Y-37129619D01*
X36518334Y-37224857D01*
X36518334Y-37367714D01*
X36470715Y-37462952D01*
X36423096Y-37510571D01*
X36327858Y-37558190D01*
X35946905Y-37558190D01*
X37423096Y-37034381D02*
X36946905Y-37034381D01*
X36899286Y-37510571D01*
X36946905Y-37462952D01*
X37042143Y-37415333D01*
X37280239Y-37415333D01*
X37375477Y-37462952D01*
X37423096Y-37510571D01*
X37470715Y-37605810D01*
X37470715Y-37843905D01*
X37423096Y-37939143D01*
X37375477Y-37986762D01*
X37280239Y-38034381D01*
X37042143Y-38034381D01*
X36946905Y-37986762D01*
X36899286Y-37939143D01*
X21341905Y-38034381D02*
X21341905Y-37034381D01*
X21722858Y-37034381D01*
X21818096Y-37082000D01*
X21865715Y-37129619D01*
X21913334Y-37224857D01*
X21913334Y-37367714D01*
X21865715Y-37462952D01*
X21818096Y-37510571D01*
X21722858Y-37558190D01*
X21341905Y-37558190D01*
X22770477Y-37034381D02*
X22580000Y-37034381D01*
X22484762Y-37082000D01*
X22437143Y-37129619D01*
X22341905Y-37272476D01*
X22294286Y-37462952D01*
X22294286Y-37843905D01*
X22341905Y-37939143D01*
X22389524Y-37986762D01*
X22484762Y-38034381D01*
X22675239Y-38034381D01*
X22770477Y-37986762D01*
X22818096Y-37939143D01*
X22865715Y-37843905D01*
X22865715Y-37605810D01*
X22818096Y-37510571D01*
X22770477Y-37462952D01*
X22675239Y-37415333D01*
X22484762Y-37415333D01*
X22389524Y-37462952D01*
X22341905Y-37510571D01*
X22294286Y-37605810D01*
X18547905Y-38796381D02*
X18547905Y-37796381D01*
X18928858Y-37796381D01*
X19024096Y-37844000D01*
X19071715Y-37891619D01*
X19119334Y-37986857D01*
X19119334Y-38129714D01*
X19071715Y-38224952D01*
X19024096Y-38272571D01*
X18928858Y-38320190D01*
X18547905Y-38320190D01*
X19452667Y-37796381D02*
X20119334Y-37796381D01*
X19690762Y-38796381D01*
X33279905Y-38034381D02*
X33279905Y-37034381D01*
X33660858Y-37034381D01*
X33756096Y-37082000D01*
X33803715Y-37129619D01*
X33851334Y-37224857D01*
X33851334Y-37367714D01*
X33803715Y-37462952D01*
X33756096Y-37510571D01*
X33660858Y-37558190D01*
X33279905Y-37558190D01*
X34422762Y-37462952D02*
X34327524Y-37415333D01*
X34279905Y-37367714D01*
X34232286Y-37272476D01*
X34232286Y-37224857D01*
X34279905Y-37129619D01*
X34327524Y-37082000D01*
X34422762Y-37034381D01*
X34613239Y-37034381D01*
X34708477Y-37082000D01*
X34756096Y-37129619D01*
X34803715Y-37224857D01*
X34803715Y-37272476D01*
X34756096Y-37367714D01*
X34708477Y-37415333D01*
X34613239Y-37462952D01*
X34422762Y-37462952D01*
X34327524Y-37510571D01*
X34279905Y-37558190D01*
X34232286Y-37653429D01*
X34232286Y-37843905D01*
X34279905Y-37939143D01*
X34327524Y-37986762D01*
X34422762Y-38034381D01*
X34613239Y-38034381D01*
X34708477Y-37986762D01*
X34756096Y-37939143D01*
X34803715Y-37843905D01*
X34803715Y-37653429D01*
X34756096Y-37558190D01*
X34708477Y-37510571D01*
X34613239Y-37462952D01*
X25278881Y-39677405D02*
X26088405Y-39677405D01*
X26183643Y-39629786D01*
X26231262Y-39582167D01*
X26278881Y-39486929D01*
X26278881Y-39296452D01*
X26231262Y-39201214D01*
X26183643Y-39153595D01*
X26088405Y-39105976D01*
X25278881Y-39105976D01*
X25374119Y-38677405D02*
X25326500Y-38629786D01*
X25278881Y-38534548D01*
X25278881Y-38296452D01*
X25326500Y-38201214D01*
X25374119Y-38153595D01*
X25469357Y-38105976D01*
X25564595Y-38105976D01*
X25707452Y-38153595D01*
X26278881Y-38725024D01*
X26278881Y-38105976D01*
X13626714Y-15301381D02*
X13626714Y-14301381D01*
X14007667Y-14301381D01*
X14102905Y-14349000D01*
X14150524Y-14396619D01*
X14198143Y-14491857D01*
X14198143Y-14634714D01*
X14150524Y-14729952D01*
X14102905Y-14777571D01*
X14007667Y-14825190D01*
X13626714Y-14825190D01*
X15150524Y-15301381D02*
X14579095Y-15301381D01*
X14864809Y-15301381D02*
X14864809Y-14301381D01*
X14769571Y-14444238D01*
X14674333Y-14539476D01*
X14579095Y-14587095D01*
X15769571Y-14301381D02*
X15864810Y-14301381D01*
X15960048Y-14349000D01*
X16007667Y-14396619D01*
X16055286Y-14491857D01*
X16102905Y-14682333D01*
X16102905Y-14920429D01*
X16055286Y-15110905D01*
X16007667Y-15206143D01*
X15960048Y-15253762D01*
X15864810Y-15301381D01*
X15769571Y-15301381D01*
X15674333Y-15253762D01*
X15626714Y-15206143D01*
X15579095Y-15110905D01*
X15531476Y-14920429D01*
X15531476Y-14682333D01*
X15579095Y-14491857D01*
X15626714Y-14396619D01*
X15674333Y-14349000D01*
X15769571Y-14301381D01*
X42152781Y-18863695D02*
X41152781Y-18863695D01*
X41152781Y-18482742D01*
X41200400Y-18387504D01*
X41248019Y-18339885D01*
X41343257Y-18292266D01*
X41486114Y-18292266D01*
X41581352Y-18339885D01*
X41628971Y-18387504D01*
X41676590Y-18482742D01*
X41676590Y-18863695D01*
X42152781Y-17339885D02*
X42152781Y-17911314D01*
X42152781Y-17625600D02*
X41152781Y-17625600D01*
X41295638Y-17720838D01*
X41390876Y-17816076D01*
X41438495Y-17911314D01*
X26977381Y-48035595D02*
X25977381Y-48035595D01*
X25977381Y-47654642D01*
X26025000Y-47559404D01*
X26072619Y-47511785D01*
X26167857Y-47464166D01*
X26310714Y-47464166D01*
X26405952Y-47511785D01*
X26453571Y-47559404D01*
X26501190Y-47654642D01*
X26501190Y-48035595D01*
X26072619Y-47083214D02*
X26025000Y-47035595D01*
X25977381Y-46940357D01*
X25977381Y-46702261D01*
X26025000Y-46607023D01*
X26072619Y-46559404D01*
X26167857Y-46511785D01*
X26263095Y-46511785D01*
X26405952Y-46559404D01*
X26977381Y-47130833D01*
X26977381Y-46511785D01*
X12753381Y-48035595D02*
X11753381Y-48035595D01*
X11753381Y-47654642D01*
X11801000Y-47559404D01*
X11848619Y-47511785D01*
X11943857Y-47464166D01*
X12086714Y-47464166D01*
X12181952Y-47511785D01*
X12229571Y-47559404D01*
X12277190Y-47654642D01*
X12277190Y-48035595D01*
X11753381Y-47130833D02*
X11753381Y-46511785D01*
X12134333Y-46845119D01*
X12134333Y-46702261D01*
X12181952Y-46607023D01*
X12229571Y-46559404D01*
X12324810Y-46511785D01*
X12562905Y-46511785D01*
X12658143Y-46559404D01*
X12705762Y-46607023D01*
X12753381Y-46702261D01*
X12753381Y-46987976D01*
X12705762Y-47083214D01*
X12658143Y-47130833D01*
X40911143Y-41272857D02*
X40958762Y-41320476D01*
X41006381Y-41463333D01*
X41006381Y-41558571D01*
X40958762Y-41701429D01*
X40863524Y-41796667D01*
X40768286Y-41844286D01*
X40577810Y-41891905D01*
X40434952Y-41891905D01*
X40244476Y-41844286D01*
X40149238Y-41796667D01*
X40054000Y-41701429D01*
X40006381Y-41558571D01*
X40006381Y-41463333D01*
X40054000Y-41320476D01*
X40101619Y-41272857D01*
X41006381Y-40320476D02*
X41006381Y-40891905D01*
X41006381Y-40606191D02*
X40006381Y-40606191D01*
X40149238Y-40701429D01*
X40244476Y-40796667D01*
X40292095Y-40891905D01*
X40006381Y-39415714D02*
X40006381Y-39891905D01*
X40482571Y-39939524D01*
X40434952Y-39891905D01*
X40387333Y-39796667D01*
X40387333Y-39558571D01*
X40434952Y-39463333D01*
X40482571Y-39415714D01*
X40577810Y-39368095D01*
X40815905Y-39368095D01*
X40911143Y-39415714D01*
X40958762Y-39463333D01*
X41006381Y-39558571D01*
X41006381Y-39796667D01*
X40958762Y-39891905D01*
X40911143Y-39939524D01*
X46848381Y-40542666D02*
X46372190Y-40876000D01*
X46848381Y-41114095D02*
X45848381Y-41114095D01*
X45848381Y-40733142D01*
X45896000Y-40637904D01*
X45943619Y-40590285D01*
X46038857Y-40542666D01*
X46181714Y-40542666D01*
X46276952Y-40590285D01*
X46324571Y-40637904D01*
X46372190Y-40733142D01*
X46372190Y-41114095D01*
X45848381Y-39685523D02*
X45848381Y-39876000D01*
X45896000Y-39971238D01*
X45943619Y-40018857D01*
X46086476Y-40114095D01*
X46276952Y-40161714D01*
X46657905Y-40161714D01*
X46753143Y-40114095D01*
X46800762Y-40066476D01*
X46848381Y-39971238D01*
X46848381Y-39780761D01*
X46800762Y-39685523D01*
X46753143Y-39637904D01*
X46657905Y-39590285D01*
X46419810Y-39590285D01*
X46324571Y-39637904D01*
X46276952Y-39685523D01*
X46229333Y-39780761D01*
X46229333Y-39971238D01*
X46276952Y-40066476D01*
X46324571Y-40114095D01*
X46419810Y-40161714D01*
X35672381Y-36859666D02*
X35196190Y-37193000D01*
X35672381Y-37431095D02*
X34672381Y-37431095D01*
X34672381Y-37050142D01*
X34720000Y-36954904D01*
X34767619Y-36907285D01*
X34862857Y-36859666D01*
X35005714Y-36859666D01*
X35100952Y-36907285D01*
X35148571Y-36954904D01*
X35196190Y-37050142D01*
X35196190Y-37431095D01*
X34672381Y-36526333D02*
X34672381Y-35859666D01*
X35672381Y-36288238D01*
X39872381Y-32033666D02*
X39396190Y-32367000D01*
X39872381Y-32605095D02*
X38872381Y-32605095D01*
X38872381Y-32224142D01*
X38920000Y-32128904D01*
X38967619Y-32081285D01*
X39062857Y-32033666D01*
X39205714Y-32033666D01*
X39300952Y-32081285D01*
X39348571Y-32128904D01*
X39396190Y-32224142D01*
X39396190Y-32605095D01*
X39300952Y-31462238D02*
X39253333Y-31557476D01*
X39205714Y-31605095D01*
X39110476Y-31652714D01*
X39062857Y-31652714D01*
X38967619Y-31605095D01*
X38920000Y-31557476D01*
X38872381Y-31462238D01*
X38872381Y-31271761D01*
X38920000Y-31176523D01*
X38967619Y-31128904D01*
X39062857Y-31081285D01*
X39110476Y-31081285D01*
X39205714Y-31128904D01*
X39253333Y-31176523D01*
X39300952Y-31271761D01*
X39300952Y-31462238D01*
X39348571Y-31557476D01*
X39396190Y-31605095D01*
X39491429Y-31652714D01*
X39681905Y-31652714D01*
X39777143Y-31605095D01*
X39824762Y-31557476D01*
X39872381Y-31462238D01*
X39872381Y-31271761D01*
X39824762Y-31176523D01*
X39777143Y-31128904D01*
X39681905Y-31081285D01*
X39491429Y-31081285D01*
X39396190Y-31128904D01*
X39348571Y-31176523D01*
X39300952Y-31271761D01*
X35629334Y-21710381D02*
X35296000Y-21234190D01*
X35057905Y-21710381D02*
X35057905Y-20710381D01*
X35438858Y-20710381D01*
X35534096Y-20758000D01*
X35581715Y-20805619D01*
X35629334Y-20900857D01*
X35629334Y-21043714D01*
X35581715Y-21138952D01*
X35534096Y-21186571D01*
X35438858Y-21234190D01*
X35057905Y-21234190D01*
X36105524Y-21710381D02*
X36296000Y-21710381D01*
X36391239Y-21662762D01*
X36438858Y-21615143D01*
X36534096Y-21472286D01*
X36581715Y-21281810D01*
X36581715Y-20900857D01*
X36534096Y-20805619D01*
X36486477Y-20758000D01*
X36391239Y-20710381D01*
X36200762Y-20710381D01*
X36105524Y-20758000D01*
X36057905Y-20805619D01*
X36010286Y-20900857D01*
X36010286Y-21138952D01*
X36057905Y-21234190D01*
X36105524Y-21281810D01*
X36200762Y-21329429D01*
X36391239Y-21329429D01*
X36486477Y-21281810D01*
X36534096Y-21234190D01*
X36581715Y-21138952D01*
X35153143Y-28196381D02*
X34819809Y-27720190D01*
X34581714Y-28196381D02*
X34581714Y-27196381D01*
X34962667Y-27196381D01*
X35057905Y-27244000D01*
X35105524Y-27291619D01*
X35153143Y-27386857D01*
X35153143Y-27529714D01*
X35105524Y-27624952D01*
X35057905Y-27672571D01*
X34962667Y-27720190D01*
X34581714Y-27720190D01*
X36105524Y-28196381D02*
X35534095Y-28196381D01*
X35819809Y-28196381D02*
X35819809Y-27196381D01*
X35724571Y-27339238D01*
X35629333Y-27434476D01*
X35534095Y-27482095D01*
X37057905Y-28196381D02*
X36486476Y-28196381D01*
X36772190Y-28196381D02*
X36772190Y-27196381D01*
X36676952Y-27339238D01*
X36581714Y-27434476D01*
X36486476Y-27482095D01*
X41122143Y-24123381D02*
X40788809Y-23647190D01*
X40550714Y-24123381D02*
X40550714Y-23123381D01*
X40931667Y-23123381D01*
X41026905Y-23171000D01*
X41074524Y-23218619D01*
X41122143Y-23313857D01*
X41122143Y-23456714D01*
X41074524Y-23551952D01*
X41026905Y-23599571D01*
X40931667Y-23647190D01*
X40550714Y-23647190D01*
X42074524Y-24123381D02*
X41503095Y-24123381D01*
X41788809Y-24123381D02*
X41788809Y-23123381D01*
X41693571Y-23266238D01*
X41598333Y-23361476D01*
X41503095Y-23409095D01*
X42455476Y-23218619D02*
X42503095Y-23171000D01*
X42598333Y-23123381D01*
X42836429Y-23123381D01*
X42931667Y-23171000D01*
X42979286Y-23218619D01*
X43026905Y-23313857D01*
X43026905Y-23409095D01*
X42979286Y-23551952D01*
X42407857Y-24123381D01*
X43026905Y-24123381D01*
X41122143Y-21202381D02*
X40788809Y-20726190D01*
X40550714Y-21202381D02*
X40550714Y-20202381D01*
X40931667Y-20202381D01*
X41026905Y-20250000D01*
X41074524Y-20297619D01*
X41122143Y-20392857D01*
X41122143Y-20535714D01*
X41074524Y-20630952D01*
X41026905Y-20678571D01*
X40931667Y-20726190D01*
X40550714Y-20726190D01*
X42074524Y-21202381D02*
X41503095Y-21202381D01*
X41788809Y-21202381D02*
X41788809Y-20202381D01*
X41693571Y-20345238D01*
X41598333Y-20440476D01*
X41503095Y-20488095D01*
X42407857Y-20202381D02*
X43026905Y-20202381D01*
X42693571Y-20583333D01*
X42836429Y-20583333D01*
X42931667Y-20630952D01*
X42979286Y-20678571D01*
X43026905Y-20773810D01*
X43026905Y-21011905D01*
X42979286Y-21107143D01*
X42931667Y-21154762D01*
X42836429Y-21202381D01*
X42550714Y-21202381D01*
X42455476Y-21154762D01*
X42407857Y-21107143D01*
X45440143Y-39499381D02*
X45106809Y-39023190D01*
X44868714Y-39499381D02*
X44868714Y-38499381D01*
X45249667Y-38499381D01*
X45344905Y-38547000D01*
X45392524Y-38594619D01*
X45440143Y-38689857D01*
X45440143Y-38832714D01*
X45392524Y-38927952D01*
X45344905Y-38975571D01*
X45249667Y-39023190D01*
X44868714Y-39023190D01*
X46392524Y-39499381D02*
X45821095Y-39499381D01*
X46106809Y-39499381D02*
X46106809Y-38499381D01*
X46011571Y-38642238D01*
X45916333Y-38737476D01*
X45821095Y-38785095D01*
X47249667Y-38832714D02*
X47249667Y-39499381D01*
X47011571Y-38451762D02*
X46773476Y-39166048D01*
X47392524Y-39166048D01*
X40487143Y-39626381D02*
X40153809Y-39150190D01*
X39915714Y-39626381D02*
X39915714Y-38626381D01*
X40296667Y-38626381D01*
X40391905Y-38674000D01*
X40439524Y-38721619D01*
X40487143Y-38816857D01*
X40487143Y-38959714D01*
X40439524Y-39054952D01*
X40391905Y-39102571D01*
X40296667Y-39150190D01*
X39915714Y-39150190D01*
X41439524Y-39626381D02*
X40868095Y-39626381D01*
X41153809Y-39626381D02*
X41153809Y-38626381D01*
X41058571Y-38769238D01*
X40963333Y-38864476D01*
X40868095Y-38912095D01*
X42296667Y-38626381D02*
X42106190Y-38626381D01*
X42010952Y-38674000D01*
X41963333Y-38721619D01*
X41868095Y-38864476D01*
X41820476Y-39054952D01*
X41820476Y-39435905D01*
X41868095Y-39531143D01*
X41915714Y-39578762D01*
X42010952Y-39626381D01*
X42201429Y-39626381D01*
X42296667Y-39578762D01*
X42344286Y-39531143D01*
X42391905Y-39435905D01*
X42391905Y-39197810D01*
X42344286Y-39102571D01*
X42296667Y-39054952D01*
X42201429Y-39007333D01*
X42010952Y-39007333D01*
X41915714Y-39054952D01*
X41868095Y-39102571D01*
X41820476Y-39197810D01*
X15309334Y-19043381D02*
X14833143Y-19043381D01*
X14833143Y-18043381D01*
X16166477Y-19043381D02*
X15595048Y-19043381D01*
X15880762Y-19043381D02*
X15880762Y-18043381D01*
X15785524Y-18186238D01*
X15690286Y-18281476D01*
X15595048Y-18329095D01*
X15182334Y-31117381D02*
X14706143Y-31117381D01*
X14706143Y-30117381D01*
X15468048Y-30212619D02*
X15515667Y-30165000D01*
X15610905Y-30117381D01*
X15849001Y-30117381D01*
X15944239Y-30165000D01*
X15991858Y-30212619D01*
X16039477Y-30307857D01*
X16039477Y-30403095D01*
X15991858Y-30545952D01*
X15420429Y-31117381D01*
X16039477Y-31117381D01*
X23616381Y-22127666D02*
X23616381Y-22603857D01*
X22616381Y-22603857D01*
X22616381Y-21889571D02*
X22616381Y-21270523D01*
X22997333Y-21603857D01*
X22997333Y-21460999D01*
X23044952Y-21365761D01*
X23092571Y-21318142D01*
X23187810Y-21270523D01*
X23425905Y-21270523D01*
X23521143Y-21318142D01*
X23568762Y-21365761D01*
X23616381Y-21460999D01*
X23616381Y-21746714D01*
X23568762Y-21841952D01*
X23521143Y-21889571D01*
X19543381Y-28477666D02*
X19543381Y-28953857D01*
X18543381Y-28953857D01*
X18543381Y-27715761D02*
X18543381Y-27906238D01*
X18591000Y-28001476D01*
X18638619Y-28049095D01*
X18781476Y-28144333D01*
X18971952Y-28191952D01*
X19352905Y-28191952D01*
X19448143Y-28144333D01*
X19495762Y-28096714D01*
X19543381Y-28001476D01*
X19543381Y-27810999D01*
X19495762Y-27715761D01*
X19448143Y-27668142D01*
X19352905Y-27620523D01*
X19114810Y-27620523D01*
X19019571Y-27668142D01*
X18971952Y-27715761D01*
X18924333Y-27810999D01*
X18924333Y-28001476D01*
X18971952Y-28096714D01*
X19019571Y-28144333D01*
X19114810Y-28191952D01*
X26485334Y-18916381D02*
X26009143Y-18916381D01*
X26009143Y-17916381D01*
X26723429Y-17916381D02*
X27390096Y-17916381D01*
X26961524Y-18916381D01*
X26485334Y-27933381D02*
X26009143Y-27933381D01*
X26009143Y-26933381D01*
X26961524Y-27361952D02*
X26866286Y-27314333D01*
X26818667Y-27266714D01*
X26771048Y-27171476D01*
X26771048Y-27123857D01*
X26818667Y-27028619D01*
X26866286Y-26981000D01*
X26961524Y-26933381D01*
X27152001Y-26933381D01*
X27247239Y-26981000D01*
X27294858Y-27028619D01*
X27342477Y-27123857D01*
X27342477Y-27171476D01*
X27294858Y-27266714D01*
X27247239Y-27314333D01*
X27152001Y-27361952D01*
X26961524Y-27361952D01*
X26866286Y-27409571D01*
X26818667Y-27457190D01*
X26771048Y-27552429D01*
X26771048Y-27742905D01*
X26818667Y-27838143D01*
X26866286Y-27885762D01*
X26961524Y-27933381D01*
X27152001Y-27933381D01*
X27247239Y-27885762D01*
X27294858Y-27838143D01*
X27342477Y-27742905D01*
X27342477Y-27552429D01*
X27294858Y-27457190D01*
X27247239Y-27409571D01*
X27152001Y-27361952D01*
X27755381Y-35168905D02*
X27755381Y-34597476D01*
X28755381Y-34883191D02*
X27755381Y-34883191D01*
X27850619Y-34311762D02*
X27803000Y-34264143D01*
X27755381Y-34168905D01*
X27755381Y-33930809D01*
X27803000Y-33835571D01*
X27850619Y-33787952D01*
X27945857Y-33740333D01*
X28041095Y-33740333D01*
X28183952Y-33787952D01*
X28755381Y-34359381D01*
X28755381Y-33740333D01*
X39629905Y-39177381D02*
X39629905Y-38177381D01*
X40010858Y-38177381D01*
X40106096Y-38225000D01*
X40153715Y-38272619D01*
X40201334Y-38367857D01*
X40201334Y-38510714D01*
X40153715Y-38605952D01*
X40106096Y-38653571D01*
X40010858Y-38701190D01*
X39629905Y-38701190D01*
X41058477Y-38510714D02*
X41058477Y-39177381D01*
X40820381Y-38129762D02*
X40582286Y-38844048D01*
X41201334Y-38844048D01*
X41979381Y-31993905D02*
X42788905Y-31993905D01*
X42884143Y-31946286D01*
X42931762Y-31898667D01*
X42979381Y-31803429D01*
X42979381Y-31612952D01*
X42931762Y-31517714D01*
X42884143Y-31470095D01*
X42788905Y-31422476D01*
X41979381Y-31422476D01*
X41979381Y-31041524D02*
X41979381Y-30422476D01*
X42360333Y-30755810D01*
X42360333Y-30612952D01*
X42407952Y-30517714D01*
X42455571Y-30470095D01*
X42550810Y-30422476D01*
X42788905Y-30422476D01*
X42884143Y-30470095D01*
X42931762Y-30517714D01*
X42979381Y-30612952D01*
X42979381Y-30898667D01*
X42931762Y-30993905D01*
X42884143Y-31041524D01*
X21889667Y-20627381D02*
X21556333Y-20151190D01*
X21318238Y-20627381D02*
X21318238Y-19627381D01*
X21699191Y-19627381D01*
X21794429Y-19675000D01*
X21842048Y-19722619D01*
X21889667Y-19817857D01*
X21889667Y-19960714D01*
X21842048Y-20055952D01*
X21794429Y-20103571D01*
X21699191Y-20151190D01*
X21318238Y-20151190D01*
X22318238Y-20103571D02*
X22651572Y-20103571D01*
X22794429Y-20627381D02*
X22318238Y-20627381D01*
X22318238Y-19627381D01*
X22794429Y-19627381D01*
X23556334Y-20103571D02*
X23223000Y-20103571D01*
X23223000Y-20627381D02*
X23223000Y-19627381D01*
X23699191Y-19627381D01*
X24223000Y-19627381D02*
X24223000Y-19865476D01*
X23984905Y-19770238D02*
X24223000Y-19865476D01*
X24461096Y-19770238D01*
X24080143Y-20055952D02*
X24223000Y-19865476D01*
X24365858Y-20055952D01*
X24984905Y-19627381D02*
X24984905Y-19865476D01*
X24746810Y-19770238D02*
X24984905Y-19865476D01*
X25223001Y-19770238D01*
X24842048Y-20055952D02*
X24984905Y-19865476D01*
X25127763Y-20055952D01*
X28620667Y-20119381D02*
X28287333Y-19643190D01*
X28049238Y-20119381D02*
X28049238Y-19119381D01*
X28430191Y-19119381D01*
X28525429Y-19167000D01*
X28573048Y-19214619D01*
X28620667Y-19309857D01*
X28620667Y-19452714D01*
X28573048Y-19547952D01*
X28525429Y-19595571D01*
X28430191Y-19643190D01*
X28049238Y-19643190D01*
X29049238Y-19595571D02*
X29382572Y-19595571D01*
X29525429Y-20119381D02*
X29049238Y-20119381D01*
X29049238Y-19119381D01*
X29525429Y-19119381D01*
X30287334Y-19595571D02*
X29954000Y-19595571D01*
X29954000Y-20119381D02*
X29954000Y-19119381D01*
X30430191Y-19119381D01*
X30954000Y-19119381D02*
X30954000Y-19357476D01*
X30715905Y-19262238D02*
X30954000Y-19357476D01*
X31192096Y-19262238D01*
X30811143Y-19547952D02*
X30954000Y-19357476D01*
X31096858Y-19547952D01*
X31715905Y-19119381D02*
X31715905Y-19357476D01*
X31477810Y-19262238D02*
X31715905Y-19357476D01*
X31954001Y-19262238D01*
X31573048Y-19547952D02*
X31715905Y-19357476D01*
X31858763Y-19547952D01*
X17190667Y-31168381D02*
X16857333Y-30692190D01*
X16619238Y-31168381D02*
X16619238Y-30168381D01*
X17000191Y-30168381D01*
X17095429Y-30216000D01*
X17143048Y-30263619D01*
X17190667Y-30358857D01*
X17190667Y-30501714D01*
X17143048Y-30596952D01*
X17095429Y-30644571D01*
X17000191Y-30692190D01*
X16619238Y-30692190D01*
X17619238Y-30644571D02*
X17952572Y-30644571D01*
X18095429Y-31168381D02*
X17619238Y-31168381D01*
X17619238Y-30168381D01*
X18095429Y-30168381D01*
X18857334Y-30644571D02*
X18524000Y-30644571D01*
X18524000Y-31168381D02*
X18524000Y-30168381D01*
X19000191Y-30168381D01*
X19524000Y-30168381D02*
X19524000Y-30406476D01*
X19285905Y-30311238D02*
X19524000Y-30406476D01*
X19762096Y-30311238D01*
X19381143Y-30596952D02*
X19524000Y-30406476D01*
X19666858Y-30596952D01*
X20285905Y-30168381D02*
X20285905Y-30406476D01*
X20047810Y-30311238D02*
X20285905Y-30406476D01*
X20524001Y-30311238D01*
X20143048Y-30596952D02*
X20285905Y-30406476D01*
X20428763Y-30596952D01*
X13825095Y-38177381D02*
X14396524Y-38177381D01*
X14110809Y-39177381D02*
X14110809Y-38177381D01*
X15253667Y-39177381D02*
X14682238Y-39177381D01*
X14967952Y-39177381D02*
X14967952Y-38177381D01*
X14872714Y-38320238D01*
X14777476Y-38415476D01*
X14682238Y-38463095D01*
X13488143Y-44828857D02*
X13535762Y-44876476D01*
X13583381Y-45019333D01*
X13583381Y-45114571D01*
X13535762Y-45257429D01*
X13440524Y-45352667D01*
X13345286Y-45400286D01*
X13154810Y-45447905D01*
X13011952Y-45447905D01*
X12821476Y-45400286D01*
X12726238Y-45352667D01*
X12631000Y-45257429D01*
X12583381Y-45114571D01*
X12583381Y-45019333D01*
X12631000Y-44876476D01*
X12678619Y-44828857D01*
X13583381Y-43876476D02*
X13583381Y-44447905D01*
X13583381Y-44162191D02*
X12583381Y-44162191D01*
X12726238Y-44257429D01*
X12821476Y-44352667D01*
X12869095Y-44447905D01*
X13583381Y-42924095D02*
X13583381Y-43495524D01*
X13583381Y-43209810D02*
X12583381Y-43209810D01*
X12726238Y-43305048D01*
X12821476Y-43400286D01*
X12869095Y-43495524D01*
X18822143Y-39748857D02*
X18869762Y-39796476D01*
X18917381Y-39939333D01*
X18917381Y-40034571D01*
X18869762Y-40177429D01*
X18774524Y-40272667D01*
X18679286Y-40320286D01*
X18488810Y-40367905D01*
X18345952Y-40367905D01*
X18155476Y-40320286D01*
X18060238Y-40272667D01*
X17965000Y-40177429D01*
X17917381Y-40034571D01*
X17917381Y-39939333D01*
X17965000Y-39796476D01*
X18012619Y-39748857D01*
X18917381Y-38796476D02*
X18917381Y-39367905D01*
X18917381Y-39082191D02*
X17917381Y-39082191D01*
X18060238Y-39177429D01*
X18155476Y-39272667D01*
X18203095Y-39367905D01*
X17917381Y-37939333D02*
X17917381Y-38129810D01*
X17965000Y-38225048D01*
X18012619Y-38272667D01*
X18155476Y-38367905D01*
X18345952Y-38415524D01*
X18726905Y-38415524D01*
X18822143Y-38367905D01*
X18869762Y-38320286D01*
X18917381Y-38225048D01*
X18917381Y-38034571D01*
X18869762Y-37939333D01*
X18822143Y-37891714D01*
X18726905Y-37844095D01*
X18488810Y-37844095D01*
X18393571Y-37891714D01*
X18345952Y-37939333D01*
X18298333Y-38034571D01*
X18298333Y-38225048D01*
X18345952Y-38320286D01*
X18393571Y-38367905D01*
X18488810Y-38415524D01*
X20167143Y-40039143D02*
X20119524Y-40086762D01*
X19976667Y-40134381D01*
X19881429Y-40134381D01*
X19738571Y-40086762D01*
X19643333Y-39991524D01*
X19595714Y-39896286D01*
X19548095Y-39705810D01*
X19548095Y-39562952D01*
X19595714Y-39372476D01*
X19643333Y-39277238D01*
X19738571Y-39182000D01*
X19881429Y-39134381D01*
X19976667Y-39134381D01*
X20119524Y-39182000D01*
X20167143Y-39229619D01*
X21119524Y-40134381D02*
X20548095Y-40134381D01*
X20833809Y-40134381D02*
X20833809Y-39134381D01*
X20738571Y-39277238D01*
X20643333Y-39372476D01*
X20548095Y-39420095D01*
X21452857Y-39134381D02*
X22119524Y-39134381D01*
X21690952Y-40134381D01*
X12261334Y-36315381D02*
X11785143Y-36315381D01*
X11785143Y-35315381D01*
X13023239Y-35648714D02*
X13023239Y-36315381D01*
X12785143Y-35267762D02*
X12547048Y-35982048D01*
X13166096Y-35982048D01*
X20897334Y-33521381D02*
X20421143Y-33521381D01*
X20421143Y-32521381D01*
X21706858Y-32521381D02*
X21230667Y-32521381D01*
X21183048Y-32997571D01*
X21230667Y-32949952D01*
X21325905Y-32902333D01*
X21564001Y-32902333D01*
X21659239Y-32949952D01*
X21706858Y-32997571D01*
X21754477Y-33092810D01*
X21754477Y-33330905D01*
X21706858Y-33426143D01*
X21659239Y-33473762D01*
X21564001Y-33521381D01*
X21325905Y-33521381D01*
X21230667Y-33473762D01*
X21183048Y-33426143D01*
X11785143Y-42706143D02*
X11737524Y-42753762D01*
X11594667Y-42801381D01*
X11499429Y-42801381D01*
X11356571Y-42753762D01*
X11261333Y-42658524D01*
X11213714Y-42563286D01*
X11166095Y-42372810D01*
X11166095Y-42229952D01*
X11213714Y-42039476D01*
X11261333Y-41944238D01*
X11356571Y-41849000D01*
X11499429Y-41801381D01*
X11594667Y-41801381D01*
X11737524Y-41849000D01*
X11785143Y-41896619D01*
X12737524Y-42801381D02*
X12166095Y-42801381D01*
X12451809Y-42801381D02*
X12451809Y-41801381D01*
X12356571Y-41944238D01*
X12261333Y-42039476D01*
X12166095Y-42087095D01*
X13308952Y-42229952D02*
X13213714Y-42182333D01*
X13166095Y-42134714D01*
X13118476Y-42039476D01*
X13118476Y-41991857D01*
X13166095Y-41896619D01*
X13213714Y-41849000D01*
X13308952Y-41801381D01*
X13499429Y-41801381D01*
X13594667Y-41849000D01*
X13642286Y-41896619D01*
X13689905Y-41991857D01*
X13689905Y-42039476D01*
X13642286Y-42134714D01*
X13594667Y-42182333D01*
X13499429Y-42229952D01*
X13308952Y-42229952D01*
X13213714Y-42277571D01*
X13166095Y-42325190D01*
X13118476Y-42420429D01*
X13118476Y-42610905D01*
X13166095Y-42706143D01*
X13213714Y-42753762D01*
X13308952Y-42801381D01*
X13499429Y-42801381D01*
X13594667Y-42753762D01*
X13642286Y-42706143D01*
X13689905Y-42610905D01*
X13689905Y-42420429D01*
X13642286Y-42325190D01*
X13594667Y-42277571D01*
X13499429Y-42229952D01*
X20421143Y-35213143D02*
X20373524Y-35260762D01*
X20230667Y-35308381D01*
X20135429Y-35308381D01*
X19992571Y-35260762D01*
X19897333Y-35165524D01*
X19849714Y-35070286D01*
X19802095Y-34879810D01*
X19802095Y-34736952D01*
X19849714Y-34546476D01*
X19897333Y-34451238D01*
X19992571Y-34356000D01*
X20135429Y-34308381D01*
X20230667Y-34308381D01*
X20373524Y-34356000D01*
X20421143Y-34403619D01*
X21373524Y-35308381D02*
X20802095Y-35308381D01*
X21087809Y-35308381D02*
X21087809Y-34308381D01*
X20992571Y-34451238D01*
X20897333Y-34546476D01*
X20802095Y-34594095D01*
X21849714Y-35308381D02*
X22040190Y-35308381D01*
X22135429Y-35260762D01*
X22183048Y-35213143D01*
X22278286Y-35070286D01*
X22325905Y-34879810D01*
X22325905Y-34498857D01*
X22278286Y-34403619D01*
X22230667Y-34356000D01*
X22135429Y-34308381D01*
X21944952Y-34308381D01*
X21849714Y-34356000D01*
X21802095Y-34403619D01*
X21754476Y-34498857D01*
X21754476Y-34736952D01*
X21802095Y-34832190D01*
X21849714Y-34879810D01*
X21944952Y-34927429D01*
X22135429Y-34927429D01*
X22230667Y-34879810D01*
X22278286Y-34832190D01*
X22325905Y-34736952D01*
X17130381Y-24794666D02*
X16654190Y-25128000D01*
X17130381Y-25366095D02*
X16130381Y-25366095D01*
X16130381Y-24985142D01*
X16178000Y-24889904D01*
X16225619Y-24842285D01*
X16320857Y-24794666D01*
X16463714Y-24794666D01*
X16558952Y-24842285D01*
X16606571Y-24889904D01*
X16654190Y-24985142D01*
X16654190Y-25366095D01*
X16130381Y-23889904D02*
X16130381Y-24366095D01*
X16606571Y-24413714D01*
X16558952Y-24366095D01*
X16511333Y-24270857D01*
X16511333Y-24032761D01*
X16558952Y-23937523D01*
X16606571Y-23889904D01*
X16701810Y-23842285D01*
X16939905Y-23842285D01*
X17035143Y-23889904D01*
X17082762Y-23937523D01*
X17130381Y-24032761D01*
X17130381Y-24270857D01*
X17082762Y-24366095D01*
X17035143Y-24413714D01*
X26020381Y-25778857D02*
X25544190Y-26112191D01*
X26020381Y-26350286D02*
X25020381Y-26350286D01*
X25020381Y-25969333D01*
X25068000Y-25874095D01*
X25115619Y-25826476D01*
X25210857Y-25778857D01*
X25353714Y-25778857D01*
X25448952Y-25826476D01*
X25496571Y-25874095D01*
X25544190Y-25969333D01*
X25544190Y-26350286D01*
X26020381Y-24826476D02*
X26020381Y-25397905D01*
X26020381Y-25112191D02*
X25020381Y-25112191D01*
X25163238Y-25207429D01*
X25258476Y-25302667D01*
X25306095Y-25397905D01*
X25448952Y-24255048D02*
X25401333Y-24350286D01*
X25353714Y-24397905D01*
X25258476Y-24445524D01*
X25210857Y-24445524D01*
X25115619Y-24397905D01*
X25068000Y-24350286D01*
X25020381Y-24255048D01*
X25020381Y-24064571D01*
X25068000Y-23969333D01*
X25115619Y-23921714D01*
X25210857Y-23874095D01*
X25258476Y-23874095D01*
X25353714Y-23921714D01*
X25401333Y-23969333D01*
X25448952Y-24064571D01*
X25448952Y-24255048D01*
X25496571Y-24350286D01*
X25544190Y-24397905D01*
X25639429Y-24445524D01*
X25829905Y-24445524D01*
X25925143Y-24397905D01*
X25972762Y-24350286D01*
X26020381Y-24255048D01*
X26020381Y-24064571D01*
X25972762Y-23969333D01*
X25925143Y-23921714D01*
X25829905Y-23874095D01*
X25639429Y-23874095D01*
X25544190Y-23921714D01*
X25496571Y-23969333D01*
X25448952Y-24064571D01*
M02*
