G04 #@! TF.FileFunction,Soldermask,Bot*
%FSLAX46Y46*%
G04 Gerber Fmt 4.6, Leading zero omitted, Abs format (unit mm)*
G04 Created by KiCad (PCBNEW 4.0.2-4+6225~38~ubuntu14.04.1-stable) date Tue 19 Apr 2016 03:22:28 PM EDT*
%MOMM*%
G01*
G04 APERTURE LIST*
%ADD10C,0.100000*%
%ADD11R,1.652400X1.402400*%
%ADD12R,1.952400X1.952400*%
%ADD13C,1.952400*%
%ADD14R,4.352400X0.852400*%
%ADD15R,0.751840X1.153160*%
%ADD16R,1.652400X1.452400*%
%ADD17C,1.295400*%
%ADD18R,1.402400X1.652400*%
%ADD19O,3.167380X1.658620*%
%ADD20R,4.112400X7.696200*%
%ADD21C,2.184400*%
%ADD22R,2.651760X2.103120*%
%ADD23C,1.803400*%
%ADD24C,1.653540*%
%ADD25R,1.372400X1.062400*%
%ADD26R,1.653540X1.153160*%
%ADD27R,3.152140X2.151380*%
%ADD28R,1.452400X1.652400*%
%ADD29R,2.641600X3.149600*%
%ADD30C,6.502400*%
%ADD31C,1.168400*%
G04 APERTURE END LIST*
D10*
D11*
X33109000Y-24501000D03*
X30609000Y-24501000D03*
D12*
X47480000Y-10404000D03*
D13*
X44940000Y-10404000D03*
X42400000Y-10404000D03*
X39860000Y-10404000D03*
X37320000Y-10404000D03*
X34780000Y-10404000D03*
X47480000Y-12944000D03*
X44940000Y-12944000D03*
X42400000Y-12944000D03*
X39860000Y-12944000D03*
X37320000Y-12944000D03*
X34780000Y-12944000D03*
X32240000Y-12944000D03*
X32240000Y-10404000D03*
D14*
X3550000Y-31200000D03*
X3550000Y-30200000D03*
X3550000Y-29200000D03*
X3550000Y-28200000D03*
X3550000Y-27200000D03*
X3550000Y-26200000D03*
X3550000Y-25200000D03*
X3550000Y-24200000D03*
X3550000Y-23200000D03*
X3550000Y-22200000D03*
X3550000Y-21200000D03*
X3550000Y-18200000D03*
X3550000Y-17200000D03*
X3550000Y-16200000D03*
X3550000Y-15200000D03*
X3550000Y-14200000D03*
X3550000Y-13200000D03*
X3550000Y-12200000D03*
D15*
X26652000Y-30259180D03*
X26652000Y-32458820D03*
D16*
X33336000Y-21961000D03*
X30636000Y-21961000D03*
X30572500Y-26723500D03*
X33272500Y-26723500D03*
D11*
X43563000Y-34788000D03*
X46063000Y-34788000D03*
X26632000Y-34280000D03*
X24132000Y-34280000D03*
X24132000Y-36439000D03*
X26632000Y-36439000D03*
X39880000Y-22088000D03*
X42380000Y-22088000D03*
D17*
X36685000Y-40122000D03*
X22080000Y-40122000D03*
X19286000Y-40884000D03*
X34018000Y-40122000D03*
X14841000Y-17389000D03*
D18*
X37015200Y-23287200D03*
X37015200Y-20787200D03*
D19*
X45600400Y-19395600D03*
X45600400Y-16855600D03*
D13*
X28430000Y-48567500D03*
X38590000Y-48567500D03*
D20*
X37130000Y-45925900D03*
X29890000Y-45925900D03*
D21*
X30970000Y-48567500D03*
X36050000Y-48567500D03*
D13*
X33510000Y-48567500D03*
D21*
X36050000Y-43487500D03*
X30970000Y-43487500D03*
X33510000Y-46027500D03*
D13*
X14206000Y-48567500D03*
X24366000Y-48567500D03*
D20*
X22906000Y-45925900D03*
X15666000Y-45925900D03*
D21*
X16746000Y-48567500D03*
X21826000Y-48567500D03*
D13*
X19286000Y-48567500D03*
D21*
X21826000Y-43487500D03*
X16746000Y-43487500D03*
X19286000Y-46027500D03*
D22*
X41942800Y-16398400D03*
X41942800Y-19446400D03*
D16*
X23938000Y-28184000D03*
X21238000Y-28184000D03*
D18*
X26398000Y-42047000D03*
X26398000Y-44547000D03*
D23*
X34653000Y-36312000D03*
X34653000Y-33772000D03*
X34653000Y-31232000D03*
X32113000Y-31232000D03*
X32113000Y-36312000D03*
D24*
X40368000Y-41265000D03*
D25*
X45511500Y-27469500D03*
X45511500Y-24199500D03*
D26*
X40378160Y-25603360D03*
X40378160Y-27104500D03*
X40378160Y-28605640D03*
D27*
X37426680Y-27104500D03*
D10*
G36*
X39726650Y-27681080D02*
X38824950Y-28181460D01*
X38824950Y-26027540D01*
X39726650Y-26527920D01*
X39726650Y-27681080D01*
X39726650Y-27681080D01*
G37*
D28*
X43035000Y-24484500D03*
X43035000Y-27184500D03*
D29*
X43797000Y-31232000D03*
D30*
X46049980Y-3899060D03*
X46049980Y-45999560D03*
D23*
X16492000Y-32375000D03*
D31*
X13952000Y-32375000D03*
D23*
X11412000Y-32375000D03*
X11412000Y-34915000D03*
X16492000Y-34915000D03*
D31*
X26144000Y-39868000D03*
X25636000Y-15992000D03*
X6850000Y-25200000D03*
X6840000Y-28184000D03*
X6850000Y-22200000D03*
X33129000Y-23231000D03*
X30970000Y-40122000D03*
X19540000Y-12740800D03*
X28938000Y-13579000D03*
X21191000Y-17516000D03*
X44813000Y-39360000D03*
X38971000Y-39360000D03*
X40622000Y-34534000D03*
X24112000Y-32629000D03*
M02*
