%FSLAX46Y46*%
G04 Gerber Fmt 4.6, Leading zero omitted, Abs format (unit mm)*
G04 Created by KiCad (PCBNEW (2014-08-05 BZR 5054)-product) date Sun 07 Dec 2014 10:25:36 PM PST*
%MOMM*%
G01*
G04 APERTURE LIST*
%ADD10C,0.100000*%
G04 APERTURE END LIST*
D10*
X4233333Y-16316667D02*
X4066666Y-17016667D01*
X3933333Y-16516667D01*
X3800000Y-17016667D01*
X3633333Y-16316667D01*
X3400000Y-16983333D02*
X3300000Y-17016667D01*
X3133333Y-17016667D01*
X3066666Y-16983333D01*
X3033333Y-16950000D01*
X3000000Y-16883333D01*
X3000000Y-16816667D01*
X3033333Y-16750000D01*
X3066666Y-16716667D01*
X3133333Y-16683333D01*
X3266666Y-16650000D01*
X3333333Y-16616667D01*
X3366666Y-16583333D01*
X3400000Y-16516667D01*
X3400000Y-16450000D01*
X3366666Y-16383333D01*
X3333333Y-16350000D01*
X3266666Y-16316667D01*
X3100000Y-16316667D01*
X3000000Y-16350000D01*
X2299999Y-16950000D02*
X2333333Y-16983333D01*
X2433333Y-17016667D01*
X2499999Y-17016667D01*
X2599999Y-16983333D01*
X2666666Y-16916667D01*
X2699999Y-16850000D01*
X2733333Y-16716667D01*
X2733333Y-16616667D01*
X2699999Y-16483333D01*
X2666666Y-16416667D01*
X2599999Y-16350000D01*
X2499999Y-16316667D01*
X2433333Y-16316667D01*
X2333333Y-16350000D01*
X2299999Y-16383333D01*
X2099999Y-16316667D02*
X1866666Y-17016667D01*
X1633333Y-16316667D01*
M02*
