G04 #@! TF.FileFunction,Copper,L1,Top,Signal*
%FSLAX46Y46*%
G04 Gerber Fmt 4.6, Leading zero omitted, Abs format (unit mm)*
G04 Created by KiCad (PCBNEW 4.0.1-3.201512221402+6198~38~ubuntu14.04.1-stable) date Tue 26 Jan 2016 10:17:27 AM EST*
%MOMM*%
G01*
G04 APERTURE LIST*
%ADD10C,0.100000*%
%ADD11R,1.800000X1.800000*%
%ADD12C,1.800000*%
%ADD13R,4.200000X0.700000*%
%ADD14R,2.200000X0.600000*%
%ADD15R,1.000760X0.599440*%
%ADD16R,1.500000X1.300000*%
%ADD17R,1.300000X1.500000*%
%ADD18R,1.651000X2.540000*%
%ADD19R,1.650000X2.540000*%
%ADD20R,1.016000X1.524000*%
%ADD21R,1.015000X1.650000*%
%ADD22R,0.760000X1.650000*%
%ADD23R,1.650000X2.000000*%
%ADD24C,2.100000*%
%ADD25R,1.250000X1.500000*%
%ADD26R,1.500000X1.250000*%
%ADD27C,1.143000*%
%ADD28R,0.400000X1.000000*%
%ADD29O,3.014980X1.506220*%
%ADD30R,1.800000X5.000000*%
%ADD31R,3.960000X7.543800*%
%ADD32C,2.032000*%
%ADD33R,2.500000X1.600000*%
%ADD34R,1.600000X2.500000*%
%ADD35R,0.508000X1.143000*%
%ADD36R,2.540000X2.540000*%
%ADD37C,6.350000*%
%ADD38C,1.016000*%
%ADD39C,0.400000*%
%ADD40C,0.250000*%
%ADD41C,0.780000*%
%ADD42C,1.000000*%
%ADD43C,1.200000*%
%ADD44C,0.254000*%
G04 APERTURE END LIST*
D10*
D11*
X47480000Y-10404000D03*
D12*
X44940000Y-10404000D03*
X42400000Y-10404000D03*
X39860000Y-10404000D03*
X37320000Y-10404000D03*
X34780000Y-10404000D03*
X47480000Y-12944000D03*
X44940000Y-12944000D03*
X42400000Y-12944000D03*
X39860000Y-12944000D03*
X37320000Y-12944000D03*
X34780000Y-12944000D03*
X32240000Y-12944000D03*
X32240000Y-10404000D03*
D13*
X3550000Y-31200000D03*
X3550000Y-30200000D03*
X3550000Y-29200000D03*
X3550000Y-28200000D03*
X3550000Y-27200000D03*
X3550000Y-26200000D03*
X3550000Y-25200000D03*
X3550000Y-24200000D03*
X3550000Y-23200000D03*
X3550000Y-22200000D03*
X3550000Y-21200000D03*
X3550000Y-18200000D03*
X3550000Y-17200000D03*
X3550000Y-16200000D03*
X3550000Y-15200000D03*
X3550000Y-14200000D03*
X3550000Y-13200000D03*
X3550000Y-12200000D03*
D14*
X14550000Y-4720000D03*
X14550000Y-5990000D03*
X14550000Y-7260000D03*
X14550000Y-8530000D03*
X14550000Y-9800000D03*
X14550000Y-11070000D03*
X14550000Y-12340000D03*
X14550000Y-13610000D03*
X14550000Y-14880000D03*
X23750000Y-4720000D03*
X23750000Y-5990000D03*
X23750000Y-7260000D03*
X23750000Y-8530000D03*
X23750000Y-9800000D03*
X23750000Y-11070000D03*
X23750000Y-12340000D03*
X23750000Y-13610000D03*
X23750000Y-14880000D03*
D15*
X27243820Y-35296000D03*
X25044180Y-35296000D03*
D16*
X33336000Y-35296000D03*
X30636000Y-35296000D03*
D17*
X44432000Y-22262000D03*
X44432000Y-24962000D03*
X41638000Y-23532000D03*
X41638000Y-26232000D03*
D16*
X38924000Y-31232000D03*
X36224000Y-31232000D03*
D17*
X47734000Y-28866000D03*
X47734000Y-31566000D03*
D16*
X38924000Y-35296000D03*
X36224000Y-35296000D03*
D17*
X47734000Y-39694000D03*
X47734000Y-36994000D03*
D12*
X13698000Y-40122000D03*
D18*
X11158000Y-38852000D03*
X16238000Y-38852000D03*
D19*
X11158000Y-33772000D03*
D10*
G36*
X13318000Y-35042000D02*
X12868000Y-32502000D01*
X14528000Y-32502000D01*
X14078000Y-35042000D01*
X13318000Y-35042000D01*
X13318000Y-35042000D01*
G37*
D19*
X16238000Y-33772000D03*
D20*
X12224800Y-38344000D03*
X15171200Y-38344000D03*
D21*
X12300500Y-35862000D03*
D22*
X13698000Y-35862000D03*
D21*
X15095500Y-35862000D03*
D10*
G36*
X11793000Y-35749107D02*
X11085893Y-35042000D01*
X11793000Y-34334893D01*
X12500107Y-35042000D01*
X11793000Y-35749107D01*
X11793000Y-35749107D01*
G37*
G36*
X15603000Y-35749107D02*
X14895893Y-35042000D01*
X15603000Y-34334893D01*
X16310107Y-35042000D01*
X15603000Y-35749107D01*
X15603000Y-35749107D01*
G37*
D23*
X13698000Y-33502000D03*
D12*
X16238000Y-32502000D03*
D24*
X13698000Y-32502000D03*
D12*
X11158000Y-32502000D03*
X11158000Y-40122000D03*
X16238000Y-40122000D03*
D25*
X14206000Y-23632000D03*
X14206000Y-26132000D03*
X19032000Y-23632000D03*
X19032000Y-26132000D03*
X27668000Y-23632000D03*
X27668000Y-26132000D03*
X32240000Y-23632000D03*
X32240000Y-26132000D03*
D26*
X38570000Y-20818000D03*
X36070000Y-20818000D03*
D25*
X36812000Y-23632000D03*
X36812000Y-26132000D03*
D26*
X33236000Y-32248000D03*
X30736000Y-32248000D03*
X41364000Y-38344000D03*
X38864000Y-38344000D03*
D25*
X19286000Y-35316000D03*
X19286000Y-37816000D03*
X22080000Y-37816000D03*
X22080000Y-35316000D03*
D17*
X10650000Y-28518000D03*
X10650000Y-25818000D03*
X10650000Y-23438000D03*
X10650000Y-20738000D03*
D26*
X40896000Y-40884000D03*
X43396000Y-40884000D03*
D27*
X36685000Y-40122000D03*
X22080000Y-40122000D03*
X19286000Y-40122000D03*
X34018000Y-40122000D03*
D28*
X28938000Y-38090000D03*
X28288000Y-38090000D03*
X27638000Y-38090000D03*
X27638000Y-40040000D03*
X28288000Y-40040000D03*
X28938000Y-40040000D03*
D27*
X14841000Y-17389000D03*
D29*
X45600400Y-19395600D03*
X45600400Y-16855600D03*
D12*
X28430000Y-48567500D03*
X38590000Y-48567500D03*
D30*
X33510000Y-47187500D03*
D31*
X37130000Y-45925900D03*
X29890000Y-45925900D03*
D32*
X30970000Y-48567500D03*
X36050000Y-48567500D03*
D12*
X33510000Y-48567500D03*
D32*
X36050000Y-43487500D03*
X30970000Y-43487500D03*
X33510000Y-46027500D03*
D12*
X14206000Y-48567500D03*
X24366000Y-48567500D03*
D30*
X19286000Y-47187500D03*
D31*
X22906000Y-45925900D03*
X15666000Y-45925900D03*
D32*
X16746000Y-48567500D03*
X21826000Y-48567500D03*
D12*
X19286000Y-48567500D03*
D32*
X21826000Y-43487500D03*
X16746000Y-43487500D03*
X19286000Y-46027500D03*
D33*
X14742000Y-20818000D03*
X18242000Y-20818000D03*
X18242000Y-28946000D03*
X14742000Y-28946000D03*
D34*
X22842000Y-21354000D03*
X22842000Y-24854000D03*
X22842000Y-31966000D03*
X22842000Y-28466000D03*
D33*
X28204000Y-20818000D03*
X31704000Y-20818000D03*
X28204000Y-28946000D03*
X31704000Y-28946000D03*
D35*
X45321000Y-35677000D03*
X44051000Y-35677000D03*
X42781000Y-35677000D03*
X41511000Y-35677000D03*
X41511000Y-29327000D03*
X42781000Y-29327000D03*
X44051000Y-29327000D03*
X45321000Y-29327000D03*
D36*
X43416000Y-32502000D03*
D37*
X46049980Y-3899060D03*
X46049980Y-45999560D03*
D38*
X28684000Y-33772000D03*
X19032000Y-32629000D03*
X26144000Y-39868000D03*
X25636000Y-15992000D03*
D27*
X17000000Y-12740800D03*
D38*
X6850000Y-25200000D03*
X6840000Y-28184000D03*
X6850000Y-22200000D03*
X30970000Y-40122000D03*
X19540000Y-12740800D03*
X28938000Y-13579000D03*
X20708400Y-17973200D03*
X43670000Y-38090000D03*
D39*
X3550000Y-30200000D02*
X7840000Y-30200000D01*
X10142000Y-32502000D02*
X11158000Y-32502000D01*
X7840000Y-30200000D02*
X10142000Y-32502000D01*
X11158000Y-32502000D02*
X11158000Y-33772000D01*
X11158000Y-32756000D02*
X11158000Y-33772000D01*
X16238000Y-32502000D02*
X16238000Y-33772000D01*
X16238000Y-31486000D02*
X16238000Y-32502000D01*
X15222000Y-30470000D02*
X16238000Y-31486000D01*
X9634000Y-30470000D02*
X15222000Y-30470000D01*
X8364000Y-29200000D02*
X9634000Y-30470000D01*
X3550000Y-29200000D02*
X8364000Y-29200000D01*
X12783600Y-15992000D02*
X25636000Y-15992000D01*
X26316000Y-40040000D02*
X27638000Y-40040000D01*
X26144000Y-39868000D02*
X26316000Y-40040000D01*
X16130800Y-13610000D02*
X17000000Y-12740800D01*
X14550000Y-13610000D02*
X16130800Y-13610000D01*
D40*
X3550000Y-21200000D02*
X8236000Y-21200000D01*
X13133600Y-13610000D02*
X14550000Y-13610000D01*
X12783600Y-13960000D02*
X13133600Y-13610000D01*
X12783600Y-18227200D02*
X12783600Y-15992000D01*
X12783600Y-15992000D02*
X12783600Y-13960000D01*
X12072400Y-18938400D02*
X12783600Y-18227200D01*
X9532400Y-18938400D02*
X12072400Y-18938400D01*
X8922800Y-19548000D02*
X9532400Y-18938400D01*
X8922800Y-20513200D02*
X8922800Y-19548000D01*
X8236000Y-21200000D02*
X8922800Y-20513200D01*
X12050000Y-17700000D02*
X12050000Y-12900000D01*
X12610000Y-12340000D02*
X14550000Y-12340000D01*
X12050000Y-12900000D02*
X12610000Y-12340000D01*
X3550000Y-18200000D02*
X11550000Y-18200000D01*
X11550000Y-18200000D02*
X12050000Y-17700000D01*
X3550000Y-17200000D02*
X10521500Y-17200000D01*
X12778000Y-11070000D02*
X14550000Y-11070000D01*
X11539000Y-12309000D02*
X12778000Y-11070000D01*
X11539000Y-16309500D02*
X11539000Y-12309000D01*
X10521500Y-17200000D02*
X11539000Y-16309500D01*
X3550000Y-16200000D02*
X10550000Y-16200000D01*
X11050000Y-15700000D02*
X11050000Y-10300000D01*
X10550000Y-16200000D02*
X11050000Y-15700000D01*
X11550000Y-9800000D02*
X14550000Y-9800000D01*
X11050000Y-10300000D02*
X11550000Y-9800000D01*
X3550000Y-15200000D02*
X10050000Y-15200000D01*
X10050000Y-15200000D02*
X10550000Y-14700000D01*
X10550000Y-14700000D02*
X10550000Y-9100000D01*
X11120000Y-8530000D02*
X14550000Y-8530000D01*
X10550000Y-9100000D02*
X11120000Y-8530000D01*
X10050000Y-13700000D02*
X10050000Y-7800000D01*
X9550000Y-14200000D02*
X10050000Y-13700000D01*
X3550000Y-14200000D02*
X9550000Y-14200000D01*
X10590000Y-7260000D02*
X14550000Y-7260000D01*
X10050000Y-7800000D02*
X10590000Y-7260000D01*
X9550000Y-12700000D02*
X9550000Y-6500000D01*
X9050000Y-13200000D02*
X9550000Y-12700000D01*
X3550000Y-13200000D02*
X9050000Y-13200000D01*
X10060000Y-5990000D02*
X14550000Y-5990000D01*
X9550000Y-6500000D02*
X10060000Y-5990000D01*
X9050000Y-11700000D02*
X9050000Y-5300000D01*
X8550000Y-12200000D02*
X9050000Y-11700000D01*
X3550000Y-12200000D02*
X8550000Y-12200000D01*
X9630000Y-4720000D02*
X14550000Y-4720000D01*
X9050000Y-5300000D02*
X9630000Y-4720000D01*
D41*
X28684000Y-33772000D02*
X28684000Y-35169000D01*
X28684000Y-33772000D02*
X30716000Y-33772000D01*
D42*
X26448800Y-45760800D02*
X23071100Y-45760800D01*
X23071100Y-45760800D02*
X22906000Y-45925900D01*
X26448800Y-45760800D02*
X29724900Y-45760800D01*
X29724900Y-45760800D02*
X29890000Y-45925900D01*
D39*
X6850000Y-25200000D02*
X8174000Y-25200000D01*
X3550000Y-25200000D02*
X6850000Y-25200000D01*
X8174000Y-25200000D02*
X9227600Y-26253600D01*
X9075200Y-28184000D02*
X6840000Y-28184000D01*
X6824000Y-28200000D02*
X6840000Y-28184000D01*
X6824000Y-28200000D02*
X3550000Y-28200000D01*
X3550000Y-31200000D02*
X7722400Y-31200000D01*
X9176800Y-32654400D02*
X9176800Y-33314800D01*
X7722400Y-31200000D02*
X9176800Y-32654400D01*
X6850000Y-22200000D02*
X9188000Y-22200000D01*
X3550000Y-22200000D02*
X6850000Y-22200000D01*
X9188000Y-22200000D02*
X10650000Y-20738000D01*
X28288000Y-38090000D02*
X28288000Y-36424000D01*
X28288000Y-36424000D02*
X28176000Y-36312000D01*
X12224800Y-38344000D02*
X11666000Y-38344000D01*
X11666000Y-38344000D02*
X11158000Y-38852000D01*
X3550000Y-23200000D02*
X10412000Y-23200000D01*
X10412000Y-23200000D02*
X10650000Y-23438000D01*
X10650000Y-23438000D02*
X14012000Y-23438000D01*
X14012000Y-23438000D02*
X14206000Y-23632000D01*
X14742000Y-20818000D02*
X14742000Y-22060000D01*
X14206000Y-22596000D02*
X14206000Y-23632000D01*
X14742000Y-22060000D02*
X14206000Y-22596000D01*
X18242000Y-20818000D02*
X18242000Y-21552000D01*
X18242000Y-21552000D02*
X19032000Y-22342000D01*
X19032000Y-22342000D02*
X19032000Y-23632000D01*
X22842000Y-21354000D02*
X20838000Y-21354000D01*
X20302000Y-20818000D02*
X18242000Y-20818000D01*
X20838000Y-21354000D02*
X20302000Y-20818000D01*
X27668000Y-23632000D02*
X25870000Y-23632000D01*
X24648000Y-24854000D02*
X22842000Y-24854000D01*
X25870000Y-23632000D02*
X24648000Y-24854000D01*
X28204000Y-20818000D02*
X28204000Y-22060000D01*
X27668000Y-22596000D02*
X27668000Y-23632000D01*
X28204000Y-22060000D02*
X27668000Y-22596000D01*
X36224000Y-35296000D02*
X33336000Y-35296000D01*
X33336000Y-35296000D02*
X33236000Y-35196000D01*
X33236000Y-35196000D02*
X33236000Y-32248000D01*
X33236000Y-32248000D02*
X34252000Y-31232000D01*
X34252000Y-31232000D02*
X36224000Y-31232000D01*
X19286000Y-35316000D02*
X22080000Y-35316000D01*
X22080000Y-35316000D02*
X22100000Y-35296000D01*
X22100000Y-35296000D02*
X25044180Y-35296000D01*
X15171200Y-38344000D02*
X15730000Y-38344000D01*
X15730000Y-38344000D02*
X16238000Y-38852000D01*
X19286000Y-37816000D02*
X17274000Y-37816000D01*
X17274000Y-37816000D02*
X16238000Y-38852000D01*
D42*
X19336000Y-37616000D02*
X19286000Y-37566000D01*
D40*
X15037800Y-17784200D02*
X15106000Y-17208000D01*
D39*
X30888000Y-40040000D02*
X28938000Y-40040000D01*
X30970000Y-40122000D02*
X30888000Y-40040000D01*
X14550000Y-14880000D02*
X17400800Y-14880000D01*
X17400800Y-14880000D02*
X19540000Y-12740800D01*
X39606000Y-3546000D02*
X39860000Y-3546000D01*
X26240000Y-4720000D02*
X27414000Y-3546000D01*
X27414000Y-3546000D02*
X39606000Y-3546000D01*
X23750000Y-4720000D02*
X26240000Y-4720000D01*
X45194000Y-8118000D02*
X47480000Y-10404000D01*
X44432000Y-8118000D02*
X45194000Y-8118000D01*
X39860000Y-3546000D02*
X44432000Y-8118000D01*
X23750000Y-5990000D02*
X26494000Y-5990000D01*
X39098000Y-4562000D02*
X44940000Y-10404000D01*
X27922000Y-4562000D02*
X39098000Y-4562000D01*
X27414000Y-5070000D02*
X27922000Y-4562000D01*
X26494000Y-5990000D02*
X27414000Y-5070000D01*
X23750000Y-7260000D02*
X27510000Y-7260000D01*
X42400000Y-9388000D02*
X42400000Y-10404000D01*
X38590000Y-5578000D02*
X42400000Y-9388000D01*
X28176000Y-5578000D02*
X38590000Y-5578000D01*
X27668000Y-6086000D02*
X28176000Y-5578000D01*
X27668000Y-7102000D02*
X27668000Y-6086000D01*
X27510000Y-7260000D02*
X27668000Y-7102000D01*
X23750000Y-8530000D02*
X28018000Y-8530000D01*
X39860000Y-8372000D02*
X39860000Y-10404000D01*
X38082000Y-6594000D02*
X39860000Y-8372000D01*
X28684000Y-6594000D02*
X38082000Y-6594000D01*
X28430000Y-6848000D02*
X28684000Y-6594000D01*
X28430000Y-8118000D02*
X28430000Y-6848000D01*
X28018000Y-8530000D02*
X28430000Y-8118000D01*
X23750000Y-13610000D02*
X28907000Y-13610000D01*
X28907000Y-13610000D02*
X28938000Y-13579000D01*
X23750000Y-9800000D02*
X29034000Y-9800000D01*
X37320000Y-7610000D02*
X37320000Y-10404000D01*
X37066000Y-7356000D02*
X37320000Y-7610000D01*
X29700000Y-7356000D02*
X37066000Y-7356000D01*
X29446000Y-7610000D02*
X29700000Y-7356000D01*
X29446000Y-9388000D02*
X29446000Y-7610000D01*
X29034000Y-9800000D02*
X29446000Y-9388000D01*
X23750000Y-11070000D02*
X29542000Y-11070000D01*
X34780000Y-8626000D02*
X34780000Y-10404000D01*
X34526000Y-8372000D02*
X34780000Y-8626000D01*
X30970000Y-8372000D02*
X34526000Y-8372000D01*
X30208000Y-9134000D02*
X30970000Y-8372000D01*
X30208000Y-10404000D02*
X30208000Y-9134000D01*
X29542000Y-11070000D02*
X30208000Y-10404000D01*
X23750000Y-14880000D02*
X28334000Y-14880000D01*
X37320000Y-14722000D02*
X37320000Y-12944000D01*
X36050000Y-15992000D02*
X37320000Y-14722000D01*
X29446000Y-15992000D02*
X36050000Y-15992000D01*
X28334000Y-14880000D02*
X29446000Y-15992000D01*
D40*
X23750000Y-14880000D02*
X23889000Y-14880000D01*
X23750000Y-14880000D02*
X24524000Y-14880000D01*
D39*
X23750000Y-14880000D02*
X23930000Y-14880000D01*
X23750000Y-14880000D02*
X23830000Y-14880000D01*
X23750000Y-12340000D02*
X29858000Y-12340000D01*
X34780000Y-14214000D02*
X34780000Y-12944000D01*
X34018000Y-14976000D02*
X34780000Y-14214000D01*
X30462000Y-14976000D02*
X34018000Y-14976000D01*
X30462000Y-12944000D02*
X30462000Y-14976000D01*
X29858000Y-12340000D02*
X30462000Y-12944000D01*
X10062000Y-25818000D02*
X10650000Y-25818000D01*
X8444000Y-24200000D02*
X10062000Y-25818000D01*
X3550000Y-24200000D02*
X8444000Y-24200000D01*
X10650000Y-25818000D02*
X13892000Y-25818000D01*
X13892000Y-25818000D02*
X14206000Y-26132000D01*
X14206000Y-26132000D02*
X14206000Y-27168000D01*
X14742000Y-27704000D02*
X14742000Y-28946000D01*
X14206000Y-27168000D02*
X14742000Y-27704000D01*
X22842000Y-31966000D02*
X21262000Y-31966000D01*
X21262000Y-31966000D02*
X18242000Y-28946000D01*
X19032000Y-26132000D02*
X19032000Y-27168000D01*
X18242000Y-27958000D02*
X18242000Y-28946000D01*
X19032000Y-27168000D02*
X18242000Y-27958000D01*
X22842000Y-28466000D02*
X25918000Y-28466000D01*
X26398000Y-28946000D02*
X28204000Y-28946000D01*
X25918000Y-28466000D02*
X26398000Y-28946000D01*
X27668000Y-26132000D02*
X27668000Y-27422000D01*
X28204000Y-27958000D02*
X28204000Y-28946000D01*
X27668000Y-27422000D02*
X28204000Y-27958000D01*
X32240000Y-23632000D02*
X32240000Y-21354000D01*
X32240000Y-21354000D02*
X31704000Y-20818000D01*
X36070000Y-20818000D02*
X31704000Y-20818000D01*
X31704000Y-28946000D02*
X31704000Y-27704000D01*
X32240000Y-27168000D02*
X32240000Y-26132000D01*
X31704000Y-27704000D02*
X32240000Y-27168000D01*
X36812000Y-26132000D02*
X32240000Y-26132000D01*
X38570000Y-20818000D02*
X42988000Y-20818000D01*
X42988000Y-20818000D02*
X44432000Y-22262000D01*
X36812000Y-23632000D02*
X41538000Y-23632000D01*
X41538000Y-23632000D02*
X41638000Y-23532000D01*
D42*
X41434800Y-16855600D02*
X45600400Y-16855600D01*
X40825200Y-17465200D02*
X41434800Y-16855600D01*
X21216400Y-17465200D02*
X40825200Y-17465200D01*
X20708400Y-17973200D02*
X21216400Y-17465200D01*
D39*
X43396000Y-40884000D02*
X46544000Y-40884000D01*
X46544000Y-40884000D02*
X47734000Y-39694000D01*
X44051000Y-29327000D02*
X44051000Y-26914000D01*
X44051000Y-26914000D02*
X43797000Y-26914000D01*
X47734000Y-28866000D02*
X47734000Y-27676000D01*
X46972000Y-26914000D02*
X43797000Y-26914000D01*
X47734000Y-27676000D02*
X46972000Y-26914000D01*
X43797000Y-26914000D02*
X43797000Y-25597000D01*
X43797000Y-25597000D02*
X44432000Y-24962000D01*
X42781000Y-29327000D02*
X42781000Y-28311000D01*
X41638000Y-27168000D02*
X41638000Y-26232000D01*
X42781000Y-28311000D02*
X41638000Y-27168000D01*
X38924000Y-31232000D02*
X38924000Y-27596000D01*
X40288000Y-26232000D02*
X41638000Y-26232000D01*
X38924000Y-27596000D02*
X40288000Y-26232000D01*
D40*
X42781000Y-35677000D02*
X42781000Y-34661000D01*
X42908000Y-34534000D02*
X47734000Y-34534000D01*
X42781000Y-34661000D02*
X42908000Y-34534000D01*
D39*
X47400000Y-37328000D02*
X47734000Y-36994000D01*
X47734000Y-31566000D02*
X47734000Y-34534000D01*
X47734000Y-34534000D02*
X47734000Y-34788000D01*
X47734000Y-34788000D02*
X47734000Y-36994000D01*
X13698000Y-35862000D02*
X13698000Y-32502000D01*
X13698000Y-32502000D02*
X13698000Y-33772000D01*
D41*
X22080000Y-37816000D02*
X22080000Y-40122000D01*
D39*
X21806000Y-38090000D02*
X27638000Y-38090000D01*
X36685000Y-40122000D02*
X40134000Y-40122000D01*
X40134000Y-40122000D02*
X40896000Y-40884000D01*
X28938000Y-38090000D02*
X34653000Y-38090000D01*
X34653000Y-38090000D02*
X36685000Y-40122000D01*
X44051000Y-35677000D02*
X44051000Y-37709000D01*
X44051000Y-37709000D02*
X43670000Y-38090000D01*
X41364000Y-38344000D02*
X43416000Y-38344000D01*
X43416000Y-38344000D02*
X43670000Y-38090000D01*
X38924000Y-35296000D02*
X38924000Y-35904000D01*
X38924000Y-35904000D02*
X41364000Y-38344000D01*
D41*
X33510000Y-42916000D02*
X33510000Y-40630000D01*
X33510000Y-40630000D02*
X34018000Y-40122000D01*
X33510000Y-42916000D02*
X33510000Y-47187500D01*
D39*
X28288000Y-40040000D02*
X28288000Y-40996000D01*
X32494000Y-41392000D02*
X33510000Y-42408000D01*
X28684000Y-41392000D02*
X32494000Y-41392000D01*
X28288000Y-40996000D02*
X28684000Y-41392000D01*
X33510000Y-42408000D02*
X33510000Y-42916000D01*
D43*
X33419000Y-47096500D02*
X33510000Y-47187500D01*
D41*
X19286000Y-40058500D02*
X19286000Y-47187500D01*
D44*
G36*
X49305000Y-17389000D02*
X47677735Y-17389000D01*
X47679200Y-17386807D01*
X47784864Y-16855600D01*
X47679200Y-16324393D01*
X47378296Y-15874058D01*
X46927961Y-15573154D01*
X46396754Y-15467490D01*
X44804046Y-15467490D01*
X44272839Y-15573154D01*
X44052170Y-15720600D01*
X41434800Y-15720600D01*
X41000455Y-15806996D01*
X40632234Y-16053034D01*
X40355068Y-16330200D01*
X36892668Y-16330200D01*
X37910434Y-15312434D01*
X37964178Y-15232000D01*
X38091439Y-15041541D01*
X38155000Y-14722000D01*
X38155000Y-14259857D01*
X38188371Y-14246068D01*
X38590323Y-13844818D01*
X38989357Y-14244551D01*
X39553330Y-14478733D01*
X40163991Y-14479265D01*
X40728371Y-14246068D01*
X40950668Y-14024159D01*
X41499446Y-14024159D01*
X41585852Y-14280643D01*
X42159336Y-14490458D01*
X42769460Y-14464839D01*
X43214148Y-14280643D01*
X43300554Y-14024159D01*
X44039446Y-14024159D01*
X44125852Y-14280643D01*
X44699336Y-14490458D01*
X45309460Y-14464839D01*
X45754148Y-14280643D01*
X45840554Y-14024159D01*
X46579446Y-14024159D01*
X46665852Y-14280643D01*
X47239336Y-14490458D01*
X47849460Y-14464839D01*
X48294148Y-14280643D01*
X48380554Y-14024159D01*
X47480000Y-13123605D01*
X46579446Y-14024159D01*
X45840554Y-14024159D01*
X44940000Y-13123605D01*
X44039446Y-14024159D01*
X43300554Y-14024159D01*
X42400000Y-13123605D01*
X41499446Y-14024159D01*
X40950668Y-14024159D01*
X41160551Y-13814643D01*
X41169203Y-13793806D01*
X41319841Y-13844554D01*
X42220395Y-12944000D01*
X42579605Y-12944000D01*
X43480159Y-13844554D01*
X43670000Y-13780599D01*
X43859841Y-13844554D01*
X44760395Y-12944000D01*
X43859841Y-12043446D01*
X43670000Y-12107401D01*
X43480159Y-12043446D01*
X42579605Y-12944000D01*
X42220395Y-12944000D01*
X41319841Y-12043446D01*
X41169673Y-12094035D01*
X41162068Y-12075629D01*
X40760818Y-11673677D01*
X41130323Y-11304818D01*
X41529357Y-11704551D01*
X41550194Y-11713203D01*
X41499446Y-11863841D01*
X42400000Y-12764395D01*
X43300554Y-11863841D01*
X43249965Y-11713673D01*
X43268371Y-11706068D01*
X43670323Y-11304818D01*
X44069357Y-11704551D01*
X44090194Y-11713203D01*
X44039446Y-11863841D01*
X44940000Y-12764395D01*
X45840554Y-11863841D01*
X45789965Y-11713673D01*
X45808371Y-11706068D01*
X45976613Y-11538120D01*
X45976838Y-11539317D01*
X46115910Y-11755441D01*
X46319574Y-11894598D01*
X46285282Y-11928890D01*
X46399839Y-12043447D01*
X46210000Y-12107401D01*
X46020159Y-12043446D01*
X45119605Y-12944000D01*
X46020159Y-13844554D01*
X46210000Y-13780599D01*
X46399841Y-13844554D01*
X47300395Y-12944000D01*
X47286253Y-12929858D01*
X47465858Y-12750253D01*
X47480000Y-12764395D01*
X47494143Y-12750253D01*
X47673748Y-12929858D01*
X47659605Y-12944000D01*
X48560159Y-13844554D01*
X48816643Y-13758148D01*
X49026458Y-13184664D01*
X49000839Y-12574540D01*
X48816643Y-12129852D01*
X48560161Y-12043447D01*
X48674718Y-11928890D01*
X48638240Y-11892412D01*
X48831441Y-11768090D01*
X48976431Y-11555890D01*
X49027440Y-11304000D01*
X49027440Y-9504000D01*
X48983162Y-9268683D01*
X48844090Y-9052559D01*
X48631890Y-8907569D01*
X48380000Y-8856560D01*
X47113428Y-8856560D01*
X45965856Y-7708988D01*
X46804511Y-7709720D01*
X48205352Y-7130904D01*
X49278057Y-6060069D01*
X49305000Y-5995183D01*
X49305000Y-17389000D01*
X49305000Y-17389000D01*
G37*
X49305000Y-17389000D02*
X47677735Y-17389000D01*
X47679200Y-17386807D01*
X47784864Y-16855600D01*
X47679200Y-16324393D01*
X47378296Y-15874058D01*
X46927961Y-15573154D01*
X46396754Y-15467490D01*
X44804046Y-15467490D01*
X44272839Y-15573154D01*
X44052170Y-15720600D01*
X41434800Y-15720600D01*
X41000455Y-15806996D01*
X40632234Y-16053034D01*
X40355068Y-16330200D01*
X36892668Y-16330200D01*
X37910434Y-15312434D01*
X37964178Y-15232000D01*
X38091439Y-15041541D01*
X38155000Y-14722000D01*
X38155000Y-14259857D01*
X38188371Y-14246068D01*
X38590323Y-13844818D01*
X38989357Y-14244551D01*
X39553330Y-14478733D01*
X40163991Y-14479265D01*
X40728371Y-14246068D01*
X40950668Y-14024159D01*
X41499446Y-14024159D01*
X41585852Y-14280643D01*
X42159336Y-14490458D01*
X42769460Y-14464839D01*
X43214148Y-14280643D01*
X43300554Y-14024159D01*
X44039446Y-14024159D01*
X44125852Y-14280643D01*
X44699336Y-14490458D01*
X45309460Y-14464839D01*
X45754148Y-14280643D01*
X45840554Y-14024159D01*
X46579446Y-14024159D01*
X46665852Y-14280643D01*
X47239336Y-14490458D01*
X47849460Y-14464839D01*
X48294148Y-14280643D01*
X48380554Y-14024159D01*
X47480000Y-13123605D01*
X46579446Y-14024159D01*
X45840554Y-14024159D01*
X44940000Y-13123605D01*
X44039446Y-14024159D01*
X43300554Y-14024159D01*
X42400000Y-13123605D01*
X41499446Y-14024159D01*
X40950668Y-14024159D01*
X41160551Y-13814643D01*
X41169203Y-13793806D01*
X41319841Y-13844554D01*
X42220395Y-12944000D01*
X42579605Y-12944000D01*
X43480159Y-13844554D01*
X43670000Y-13780599D01*
X43859841Y-13844554D01*
X44760395Y-12944000D01*
X43859841Y-12043446D01*
X43670000Y-12107401D01*
X43480159Y-12043446D01*
X42579605Y-12944000D01*
X42220395Y-12944000D01*
X41319841Y-12043446D01*
X41169673Y-12094035D01*
X41162068Y-12075629D01*
X40760818Y-11673677D01*
X41130323Y-11304818D01*
X41529357Y-11704551D01*
X41550194Y-11713203D01*
X41499446Y-11863841D01*
X42400000Y-12764395D01*
X43300554Y-11863841D01*
X43249965Y-11713673D01*
X43268371Y-11706068D01*
X43670323Y-11304818D01*
X44069357Y-11704551D01*
X44090194Y-11713203D01*
X44039446Y-11863841D01*
X44940000Y-12764395D01*
X45840554Y-11863841D01*
X45789965Y-11713673D01*
X45808371Y-11706068D01*
X45976613Y-11538120D01*
X45976838Y-11539317D01*
X46115910Y-11755441D01*
X46319574Y-11894598D01*
X46285282Y-11928890D01*
X46399839Y-12043447D01*
X46210000Y-12107401D01*
X46020159Y-12043446D01*
X45119605Y-12944000D01*
X46020159Y-13844554D01*
X46210000Y-13780599D01*
X46399841Y-13844554D01*
X47300395Y-12944000D01*
X47286253Y-12929858D01*
X47465858Y-12750253D01*
X47480000Y-12764395D01*
X47494143Y-12750253D01*
X47673748Y-12929858D01*
X47659605Y-12944000D01*
X48560159Y-13844554D01*
X48816643Y-13758148D01*
X49026458Y-13184664D01*
X49000839Y-12574540D01*
X48816643Y-12129852D01*
X48560161Y-12043447D01*
X48674718Y-11928890D01*
X48638240Y-11892412D01*
X48831441Y-11768090D01*
X48976431Y-11555890D01*
X49027440Y-11304000D01*
X49027440Y-9504000D01*
X48983162Y-9268683D01*
X48844090Y-9052559D01*
X48631890Y-8907569D01*
X48380000Y-8856560D01*
X47113428Y-8856560D01*
X45965856Y-7708988D01*
X46804511Y-7709720D01*
X48205352Y-7130904D01*
X49278057Y-6060069D01*
X49305000Y-5995183D01*
X49305000Y-17389000D01*
G36*
X43894608Y-667216D02*
X42821903Y-1738051D01*
X42240643Y-3137879D01*
X42239320Y-4653591D01*
X42303298Y-4808430D01*
X40450434Y-2955566D01*
X40179541Y-2774561D01*
X39860000Y-2711000D01*
X27414000Y-2711000D01*
X27094460Y-2774560D01*
X26823566Y-2955566D01*
X25894132Y-3885000D01*
X25191797Y-3885000D01*
X25101890Y-3823569D01*
X24850000Y-3772560D01*
X22650000Y-3772560D01*
X22414683Y-3816838D01*
X22198559Y-3955910D01*
X22053569Y-4168110D01*
X22002560Y-4420000D01*
X22002560Y-5020000D01*
X22046838Y-5255317D01*
X22110678Y-5354528D01*
X22053569Y-5438110D01*
X22002560Y-5690000D01*
X22002560Y-6290000D01*
X22046838Y-6525317D01*
X22110678Y-6624528D01*
X22053569Y-6708110D01*
X22002560Y-6960000D01*
X22002560Y-7560000D01*
X22046838Y-7795317D01*
X22110678Y-7894528D01*
X22053569Y-7978110D01*
X22002560Y-8230000D01*
X22002560Y-8830000D01*
X22046838Y-9065317D01*
X22110678Y-9164528D01*
X22053569Y-9248110D01*
X22002560Y-9500000D01*
X22002560Y-10100000D01*
X22046838Y-10335317D01*
X22110678Y-10434528D01*
X22053569Y-10518110D01*
X22002560Y-10770000D01*
X22002560Y-11370000D01*
X22046838Y-11605317D01*
X22110678Y-11704528D01*
X22053569Y-11788110D01*
X22002560Y-12040000D01*
X22002560Y-12640000D01*
X22046838Y-12875317D01*
X22110678Y-12974528D01*
X22053569Y-13058110D01*
X22002560Y-13310000D01*
X22002560Y-13910000D01*
X22046838Y-14145317D01*
X22110678Y-14244528D01*
X22053569Y-14328110D01*
X22002560Y-14580000D01*
X22002560Y-15157000D01*
X16276250Y-15157000D01*
X16126250Y-15007000D01*
X14677000Y-15007000D01*
X14677000Y-15027000D01*
X14423000Y-15027000D01*
X14423000Y-15007000D01*
X14403000Y-15007000D01*
X14403000Y-14753000D01*
X14423000Y-14753000D01*
X14423000Y-14733000D01*
X14677000Y-14733000D01*
X14677000Y-14753000D01*
X16126250Y-14753000D01*
X16285000Y-14594250D01*
X16285000Y-14453690D01*
X16269937Y-14417324D01*
X16450341Y-14381439D01*
X16721234Y-14200434D01*
X16974390Y-13947278D01*
X17238935Y-13947509D01*
X17682535Y-13764218D01*
X18022225Y-13425120D01*
X18206290Y-12981841D01*
X18206709Y-12501865D01*
X18023418Y-12058265D01*
X17684320Y-11718575D01*
X17241041Y-11534510D01*
X16761065Y-11534091D01*
X16317465Y-11717382D01*
X16244107Y-11790612D01*
X16189322Y-11705472D01*
X16246431Y-11621890D01*
X16297440Y-11370000D01*
X16297440Y-10770000D01*
X16253162Y-10534683D01*
X16189322Y-10435472D01*
X16246431Y-10351890D01*
X16297440Y-10100000D01*
X16297440Y-9500000D01*
X16253162Y-9264683D01*
X16189322Y-9165472D01*
X16246431Y-9081890D01*
X16297440Y-8830000D01*
X16297440Y-8230000D01*
X16253162Y-7994683D01*
X16189322Y-7895472D01*
X16246431Y-7811890D01*
X16297440Y-7560000D01*
X16297440Y-6960000D01*
X16253162Y-6724683D01*
X16189322Y-6625472D01*
X16246431Y-6541890D01*
X16297440Y-6290000D01*
X16297440Y-5690000D01*
X16253162Y-5454683D01*
X16189322Y-5355472D01*
X16246431Y-5271890D01*
X16297440Y-5020000D01*
X16297440Y-4420000D01*
X16253162Y-4184683D01*
X16114090Y-3968559D01*
X15901890Y-3823569D01*
X15650000Y-3772560D01*
X13450000Y-3772560D01*
X13214683Y-3816838D01*
X12998559Y-3955910D01*
X12995764Y-3960000D01*
X9630000Y-3960000D01*
X9339161Y-4017852D01*
X9095000Y-4180995D01*
X9095000Y-645000D01*
X43948375Y-645000D01*
X43894608Y-667216D01*
X43894608Y-667216D01*
G37*
X43894608Y-667216D02*
X42821903Y-1738051D01*
X42240643Y-3137879D01*
X42239320Y-4653591D01*
X42303298Y-4808430D01*
X40450434Y-2955566D01*
X40179541Y-2774561D01*
X39860000Y-2711000D01*
X27414000Y-2711000D01*
X27094460Y-2774560D01*
X26823566Y-2955566D01*
X25894132Y-3885000D01*
X25191797Y-3885000D01*
X25101890Y-3823569D01*
X24850000Y-3772560D01*
X22650000Y-3772560D01*
X22414683Y-3816838D01*
X22198559Y-3955910D01*
X22053569Y-4168110D01*
X22002560Y-4420000D01*
X22002560Y-5020000D01*
X22046838Y-5255317D01*
X22110678Y-5354528D01*
X22053569Y-5438110D01*
X22002560Y-5690000D01*
X22002560Y-6290000D01*
X22046838Y-6525317D01*
X22110678Y-6624528D01*
X22053569Y-6708110D01*
X22002560Y-6960000D01*
X22002560Y-7560000D01*
X22046838Y-7795317D01*
X22110678Y-7894528D01*
X22053569Y-7978110D01*
X22002560Y-8230000D01*
X22002560Y-8830000D01*
X22046838Y-9065317D01*
X22110678Y-9164528D01*
X22053569Y-9248110D01*
X22002560Y-9500000D01*
X22002560Y-10100000D01*
X22046838Y-10335317D01*
X22110678Y-10434528D01*
X22053569Y-10518110D01*
X22002560Y-10770000D01*
X22002560Y-11370000D01*
X22046838Y-11605317D01*
X22110678Y-11704528D01*
X22053569Y-11788110D01*
X22002560Y-12040000D01*
X22002560Y-12640000D01*
X22046838Y-12875317D01*
X22110678Y-12974528D01*
X22053569Y-13058110D01*
X22002560Y-13310000D01*
X22002560Y-13910000D01*
X22046838Y-14145317D01*
X22110678Y-14244528D01*
X22053569Y-14328110D01*
X22002560Y-14580000D01*
X22002560Y-15157000D01*
X16276250Y-15157000D01*
X16126250Y-15007000D01*
X14677000Y-15007000D01*
X14677000Y-15027000D01*
X14423000Y-15027000D01*
X14423000Y-15007000D01*
X14403000Y-15007000D01*
X14403000Y-14753000D01*
X14423000Y-14753000D01*
X14423000Y-14733000D01*
X14677000Y-14733000D01*
X14677000Y-14753000D01*
X16126250Y-14753000D01*
X16285000Y-14594250D01*
X16285000Y-14453690D01*
X16269937Y-14417324D01*
X16450341Y-14381439D01*
X16721234Y-14200434D01*
X16974390Y-13947278D01*
X17238935Y-13947509D01*
X17682535Y-13764218D01*
X18022225Y-13425120D01*
X18206290Y-12981841D01*
X18206709Y-12501865D01*
X18023418Y-12058265D01*
X17684320Y-11718575D01*
X17241041Y-11534510D01*
X16761065Y-11534091D01*
X16317465Y-11717382D01*
X16244107Y-11790612D01*
X16189322Y-11705472D01*
X16246431Y-11621890D01*
X16297440Y-11370000D01*
X16297440Y-10770000D01*
X16253162Y-10534683D01*
X16189322Y-10435472D01*
X16246431Y-10351890D01*
X16297440Y-10100000D01*
X16297440Y-9500000D01*
X16253162Y-9264683D01*
X16189322Y-9165472D01*
X16246431Y-9081890D01*
X16297440Y-8830000D01*
X16297440Y-8230000D01*
X16253162Y-7994683D01*
X16189322Y-7895472D01*
X16246431Y-7811890D01*
X16297440Y-7560000D01*
X16297440Y-6960000D01*
X16253162Y-6724683D01*
X16189322Y-6625472D01*
X16246431Y-6541890D01*
X16297440Y-6290000D01*
X16297440Y-5690000D01*
X16253162Y-5454683D01*
X16189322Y-5355472D01*
X16246431Y-5271890D01*
X16297440Y-5020000D01*
X16297440Y-4420000D01*
X16253162Y-4184683D01*
X16114090Y-3968559D01*
X15901890Y-3823569D01*
X15650000Y-3772560D01*
X13450000Y-3772560D01*
X13214683Y-3816838D01*
X12998559Y-3955910D01*
X12995764Y-3960000D01*
X9630000Y-3960000D01*
X9339161Y-4017852D01*
X9095000Y-4180995D01*
X9095000Y-645000D01*
X43948375Y-645000D01*
X43894608Y-667216D01*
G36*
X9551566Y-33092434D02*
X9685560Y-33181966D01*
X9685560Y-35042000D01*
X9729838Y-35277317D01*
X9868910Y-35493441D01*
X10081110Y-35638431D01*
X10333000Y-35689440D01*
X10817715Y-35689440D01*
X11145560Y-36017285D01*
X11145560Y-36687000D01*
X11189838Y-36922317D01*
X11298918Y-37091832D01*
X11285000Y-37105750D01*
X11285000Y-37115775D01*
X11178473Y-37222301D01*
X11081800Y-37455690D01*
X11081800Y-38058250D01*
X11240550Y-38217000D01*
X11285000Y-38217000D01*
X11285000Y-38471000D01*
X11240550Y-38471000D01*
X11124496Y-38587054D01*
X11031000Y-38590980D01*
X11031000Y-37105750D01*
X10872250Y-36947000D01*
X10206191Y-36947000D01*
X9972802Y-37043673D01*
X9794173Y-37222301D01*
X9697500Y-37455690D01*
X9697500Y-38566250D01*
X9856250Y-38725000D01*
X10489567Y-38725000D01*
X10343852Y-38785357D01*
X10278616Y-38979000D01*
X10194608Y-38979000D01*
X10142890Y-38927282D01*
X10091172Y-38979000D01*
X9856250Y-38979000D01*
X9697500Y-39137750D01*
X9697500Y-39646388D01*
X9611542Y-39881336D01*
X9637161Y-40491460D01*
X9821357Y-40936148D01*
X10077841Y-41022554D01*
X10343395Y-40757000D01*
X10702605Y-40757000D01*
X10257446Y-41202159D01*
X10343852Y-41458643D01*
X10917336Y-41668458D01*
X11527460Y-41642839D01*
X11972148Y-41458643D01*
X12058554Y-41202159D01*
X11613395Y-40757000D01*
X11972605Y-40757000D01*
X12238159Y-41022554D01*
X12388327Y-40971965D01*
X12395932Y-40990371D01*
X12827357Y-41422551D01*
X13316368Y-41625606D01*
X13147673Y-41794302D01*
X13051000Y-42027691D01*
X13051000Y-45640150D01*
X13209750Y-45798900D01*
X15539000Y-45798900D01*
X15539000Y-45778900D01*
X15793000Y-45778900D01*
X15793000Y-45798900D01*
X15813000Y-45798900D01*
X15813000Y-46052900D01*
X15793000Y-46052900D01*
X15793000Y-46072900D01*
X15539000Y-46072900D01*
X15539000Y-46052900D01*
X13209750Y-46052900D01*
X13051000Y-46211650D01*
X13051000Y-47512672D01*
X13011282Y-47552390D01*
X13051000Y-47592108D01*
X13051000Y-47692159D01*
X12869357Y-47753352D01*
X12659542Y-48326836D01*
X12685161Y-48936960D01*
X12816898Y-49255000D01*
X9095000Y-49255000D01*
X9095000Y-32700000D01*
X9082607Y-32637696D01*
X9082607Y-32624167D01*
X9082435Y-32623303D01*
X9551566Y-33092434D01*
X9551566Y-33092434D01*
G37*
X9551566Y-33092434D02*
X9685560Y-33181966D01*
X9685560Y-35042000D01*
X9729838Y-35277317D01*
X9868910Y-35493441D01*
X10081110Y-35638431D01*
X10333000Y-35689440D01*
X10817715Y-35689440D01*
X11145560Y-36017285D01*
X11145560Y-36687000D01*
X11189838Y-36922317D01*
X11298918Y-37091832D01*
X11285000Y-37105750D01*
X11285000Y-37115775D01*
X11178473Y-37222301D01*
X11081800Y-37455690D01*
X11081800Y-38058250D01*
X11240550Y-38217000D01*
X11285000Y-38217000D01*
X11285000Y-38471000D01*
X11240550Y-38471000D01*
X11124496Y-38587054D01*
X11031000Y-38590980D01*
X11031000Y-37105750D01*
X10872250Y-36947000D01*
X10206191Y-36947000D01*
X9972802Y-37043673D01*
X9794173Y-37222301D01*
X9697500Y-37455690D01*
X9697500Y-38566250D01*
X9856250Y-38725000D01*
X10489567Y-38725000D01*
X10343852Y-38785357D01*
X10278616Y-38979000D01*
X10194608Y-38979000D01*
X10142890Y-38927282D01*
X10091172Y-38979000D01*
X9856250Y-38979000D01*
X9697500Y-39137750D01*
X9697500Y-39646388D01*
X9611542Y-39881336D01*
X9637161Y-40491460D01*
X9821357Y-40936148D01*
X10077841Y-41022554D01*
X10343395Y-40757000D01*
X10702605Y-40757000D01*
X10257446Y-41202159D01*
X10343852Y-41458643D01*
X10917336Y-41668458D01*
X11527460Y-41642839D01*
X11972148Y-41458643D01*
X12058554Y-41202159D01*
X11613395Y-40757000D01*
X11972605Y-40757000D01*
X12238159Y-41022554D01*
X12388327Y-40971965D01*
X12395932Y-40990371D01*
X12827357Y-41422551D01*
X13316368Y-41625606D01*
X13147673Y-41794302D01*
X13051000Y-42027691D01*
X13051000Y-45640150D01*
X13209750Y-45798900D01*
X15539000Y-45798900D01*
X15539000Y-45778900D01*
X15793000Y-45778900D01*
X15793000Y-45798900D01*
X15813000Y-45798900D01*
X15813000Y-46052900D01*
X15793000Y-46052900D01*
X15793000Y-46072900D01*
X15539000Y-46072900D01*
X15539000Y-46052900D01*
X13209750Y-46052900D01*
X13051000Y-46211650D01*
X13051000Y-47512672D01*
X13011282Y-47552390D01*
X13051000Y-47592108D01*
X13051000Y-47692159D01*
X12869357Y-47753352D01*
X12659542Y-48326836D01*
X12685161Y-48936960D01*
X12816898Y-49255000D01*
X9095000Y-49255000D01*
X9095000Y-32700000D01*
X9082607Y-32637696D01*
X9082607Y-32624167D01*
X9082435Y-32623303D01*
X9551566Y-33092434D01*
G36*
X14156680Y-18411225D02*
X14599959Y-18595290D01*
X15079935Y-18595709D01*
X15523535Y-18412418D01*
X15530966Y-18405000D01*
X19650088Y-18405000D01*
X19738846Y-18619812D01*
X20060097Y-18941623D01*
X20480046Y-19116001D01*
X20934759Y-19116398D01*
X21355012Y-18942754D01*
X21676823Y-18621503D01*
X21685056Y-18601677D01*
X21686532Y-18600200D01*
X40825200Y-18600200D01*
X41259546Y-18513803D01*
X41422381Y-18405000D01*
X43896856Y-18405000D01*
X43774676Y-18503860D01*
X43514973Y-18981725D01*
X43500617Y-19053926D01*
X43623238Y-19268600D01*
X45473400Y-19268600D01*
X45473400Y-19248600D01*
X45727400Y-19248600D01*
X45727400Y-19268600D01*
X47577562Y-19268600D01*
X47700183Y-19053926D01*
X47685827Y-18981725D01*
X47426124Y-18503860D01*
X47303944Y-18405000D01*
X49305000Y-18405000D01*
X49305000Y-43900278D01*
X49281824Y-43844188D01*
X48210989Y-42771483D01*
X46811161Y-42190223D01*
X45295449Y-42188900D01*
X43894608Y-42767716D01*
X42821903Y-43838551D01*
X42240643Y-45238379D01*
X42239320Y-46754091D01*
X42818136Y-48154932D01*
X43888971Y-49227637D01*
X43954868Y-49255000D01*
X39972978Y-49255000D01*
X40136458Y-48808164D01*
X40110839Y-48198040D01*
X39926643Y-47753352D01*
X39745000Y-47692159D01*
X39745000Y-47592108D01*
X39784718Y-47552390D01*
X39745000Y-47512672D01*
X39745000Y-46211650D01*
X39586250Y-46052900D01*
X37257000Y-46052900D01*
X37257000Y-46072900D01*
X37003000Y-46072900D01*
X37003000Y-46052900D01*
X36983000Y-46052900D01*
X36983000Y-45798900D01*
X37003000Y-45798900D01*
X37003000Y-45778900D01*
X37257000Y-45778900D01*
X37257000Y-45798900D01*
X39586250Y-45798900D01*
X39745000Y-45640150D01*
X39745000Y-42027691D01*
X39731052Y-41994019D01*
X39894110Y-42105431D01*
X40146000Y-42156440D01*
X41646000Y-42156440D01*
X41881317Y-42112162D01*
X42097441Y-41973090D01*
X42145134Y-41903289D01*
X42181910Y-41960441D01*
X42394110Y-42105431D01*
X42646000Y-42156440D01*
X44146000Y-42156440D01*
X44381317Y-42112162D01*
X44597441Y-41973090D01*
X44742431Y-41760890D01*
X44750914Y-41719000D01*
X46544000Y-41719000D01*
X46863541Y-41655439D01*
X47134434Y-41474434D01*
X47517428Y-41091440D01*
X48384000Y-41091440D01*
X48619317Y-41047162D01*
X48835441Y-40908090D01*
X48980431Y-40695890D01*
X49031440Y-40444000D01*
X49031440Y-38944000D01*
X48987162Y-38708683D01*
X48848090Y-38492559D01*
X48635890Y-38347569D01*
X48622803Y-38344919D01*
X48835441Y-38208090D01*
X48980431Y-37995890D01*
X49031440Y-37744000D01*
X49031440Y-36244000D01*
X48987162Y-36008683D01*
X48848090Y-35792559D01*
X48635890Y-35647569D01*
X48569000Y-35634023D01*
X48569000Y-32928630D01*
X48619317Y-32919162D01*
X48835441Y-32780090D01*
X48980431Y-32567890D01*
X49031440Y-32316000D01*
X49031440Y-30816000D01*
X48987162Y-30580683D01*
X48848090Y-30364559D01*
X48635890Y-30219569D01*
X48622803Y-30216919D01*
X48835441Y-30080090D01*
X48980431Y-29867890D01*
X49031440Y-29616000D01*
X49031440Y-28116000D01*
X48987162Y-27880683D01*
X48848090Y-27664559D01*
X48635890Y-27519569D01*
X48533771Y-27498889D01*
X48505440Y-27356460D01*
X48324434Y-27085566D01*
X47562434Y-26323566D01*
X47291541Y-26142561D01*
X46972000Y-26079000D01*
X45599780Y-26079000D01*
X45678431Y-25963890D01*
X45729440Y-25712000D01*
X45729440Y-24212000D01*
X45685162Y-23976683D01*
X45546090Y-23760559D01*
X45333890Y-23615569D01*
X45320803Y-23612919D01*
X45533441Y-23476090D01*
X45678431Y-23263890D01*
X45729440Y-23012000D01*
X45729440Y-21512000D01*
X45685162Y-21276683D01*
X45546090Y-21060559D01*
X45333890Y-20915569D01*
X45082000Y-20864560D01*
X44215428Y-20864560D01*
X43578434Y-20227566D01*
X43521289Y-20189383D01*
X43307541Y-20046561D01*
X42988000Y-19983000D01*
X39927926Y-19983000D01*
X39923162Y-19957683D01*
X39784090Y-19741559D01*
X39777819Y-19737274D01*
X43500617Y-19737274D01*
X43514973Y-19809475D01*
X43774676Y-20287340D01*
X44197481Y-20629446D01*
X44719020Y-20783710D01*
X45473400Y-20783710D01*
X45473400Y-19522600D01*
X45727400Y-19522600D01*
X45727400Y-20783710D01*
X46481780Y-20783710D01*
X47003319Y-20629446D01*
X47426124Y-20287340D01*
X47685827Y-19809475D01*
X47700183Y-19737274D01*
X47577562Y-19522600D01*
X45727400Y-19522600D01*
X45473400Y-19522600D01*
X43623238Y-19522600D01*
X43500617Y-19737274D01*
X39777819Y-19737274D01*
X39571890Y-19596569D01*
X39320000Y-19545560D01*
X37820000Y-19545560D01*
X37584683Y-19589838D01*
X37368559Y-19728910D01*
X37320866Y-19798711D01*
X37284090Y-19741559D01*
X37071890Y-19596569D01*
X36820000Y-19545560D01*
X35320000Y-19545560D01*
X35084683Y-19589838D01*
X34868559Y-19728910D01*
X34723569Y-19941110D01*
X34715086Y-19983000D01*
X33594854Y-19983000D01*
X33557162Y-19782683D01*
X33418090Y-19566559D01*
X33205890Y-19421569D01*
X32954000Y-19370560D01*
X30454000Y-19370560D01*
X30218683Y-19414838D01*
X30002559Y-19553910D01*
X29954866Y-19623711D01*
X29918090Y-19566559D01*
X29705890Y-19421569D01*
X29454000Y-19370560D01*
X26954000Y-19370560D01*
X26718683Y-19414838D01*
X26502559Y-19553910D01*
X26357569Y-19766110D01*
X26306560Y-20018000D01*
X26306560Y-21618000D01*
X26350838Y-21853317D01*
X26489910Y-22069441D01*
X26702110Y-22214431D01*
X26909892Y-22256508D01*
X26907524Y-22260052D01*
X26807683Y-22278838D01*
X26591559Y-22417910D01*
X26446569Y-22630110D01*
X26412773Y-22797000D01*
X25870000Y-22797000D01*
X25550459Y-22860561D01*
X25340520Y-23000838D01*
X25279566Y-23041566D01*
X24302132Y-24019000D01*
X24289440Y-24019000D01*
X24289440Y-23604000D01*
X24245162Y-23368683D01*
X24106090Y-23152559D01*
X24036289Y-23104866D01*
X24093441Y-23068090D01*
X24238431Y-22855890D01*
X24289440Y-22604000D01*
X24289440Y-20104000D01*
X24245162Y-19868683D01*
X24106090Y-19652559D01*
X23893890Y-19507569D01*
X23642000Y-19456560D01*
X22042000Y-19456560D01*
X21806683Y-19500838D01*
X21590559Y-19639910D01*
X21445569Y-19852110D01*
X21394560Y-20104000D01*
X21394560Y-20519000D01*
X21183868Y-20519000D01*
X20892434Y-20227566D01*
X20835289Y-20189383D01*
X20621541Y-20046561D01*
X20302000Y-19983000D01*
X20132854Y-19983000D01*
X20095162Y-19782683D01*
X19956090Y-19566559D01*
X19743890Y-19421569D01*
X19492000Y-19370560D01*
X16992000Y-19370560D01*
X16756683Y-19414838D01*
X16540559Y-19553910D01*
X16492866Y-19623711D01*
X16456090Y-19566559D01*
X16243890Y-19421569D01*
X15992000Y-19370560D01*
X13492000Y-19370560D01*
X13256683Y-19414838D01*
X13040559Y-19553910D01*
X12895569Y-19766110D01*
X12844560Y-20018000D01*
X12844560Y-21618000D01*
X12888838Y-21853317D01*
X13027910Y-22069441D01*
X13240110Y-22214431D01*
X13447892Y-22256508D01*
X13445524Y-22260052D01*
X13345683Y-22278838D01*
X13129559Y-22417910D01*
X13003092Y-22603000D01*
X11931446Y-22603000D01*
X11903162Y-22452683D01*
X11764090Y-22236559D01*
X11551890Y-22091569D01*
X11518510Y-22084809D01*
X11659699Y-22026327D01*
X11838327Y-21847698D01*
X11935000Y-21614309D01*
X11935000Y-21023750D01*
X11776250Y-20865000D01*
X10777000Y-20865000D01*
X10777000Y-20885000D01*
X10523000Y-20885000D01*
X10523000Y-20865000D01*
X10503000Y-20865000D01*
X10503000Y-20611000D01*
X10523000Y-20611000D01*
X10523000Y-20591000D01*
X10777000Y-20591000D01*
X10777000Y-20611000D01*
X11776250Y-20611000D01*
X11935000Y-20452250D01*
X11935000Y-19861691D01*
X11867363Y-19698400D01*
X12072400Y-19698400D01*
X12363239Y-19640548D01*
X12609801Y-19475801D01*
X13321001Y-18764601D01*
X13485748Y-18518039D01*
X13508233Y-18405000D01*
X14150466Y-18405000D01*
X14156680Y-18411225D01*
X14156680Y-18411225D01*
G37*
X14156680Y-18411225D02*
X14599959Y-18595290D01*
X15079935Y-18595709D01*
X15523535Y-18412418D01*
X15530966Y-18405000D01*
X19650088Y-18405000D01*
X19738846Y-18619812D01*
X20060097Y-18941623D01*
X20480046Y-19116001D01*
X20934759Y-19116398D01*
X21355012Y-18942754D01*
X21676823Y-18621503D01*
X21685056Y-18601677D01*
X21686532Y-18600200D01*
X40825200Y-18600200D01*
X41259546Y-18513803D01*
X41422381Y-18405000D01*
X43896856Y-18405000D01*
X43774676Y-18503860D01*
X43514973Y-18981725D01*
X43500617Y-19053926D01*
X43623238Y-19268600D01*
X45473400Y-19268600D01*
X45473400Y-19248600D01*
X45727400Y-19248600D01*
X45727400Y-19268600D01*
X47577562Y-19268600D01*
X47700183Y-19053926D01*
X47685827Y-18981725D01*
X47426124Y-18503860D01*
X47303944Y-18405000D01*
X49305000Y-18405000D01*
X49305000Y-43900278D01*
X49281824Y-43844188D01*
X48210989Y-42771483D01*
X46811161Y-42190223D01*
X45295449Y-42188900D01*
X43894608Y-42767716D01*
X42821903Y-43838551D01*
X42240643Y-45238379D01*
X42239320Y-46754091D01*
X42818136Y-48154932D01*
X43888971Y-49227637D01*
X43954868Y-49255000D01*
X39972978Y-49255000D01*
X40136458Y-48808164D01*
X40110839Y-48198040D01*
X39926643Y-47753352D01*
X39745000Y-47692159D01*
X39745000Y-47592108D01*
X39784718Y-47552390D01*
X39745000Y-47512672D01*
X39745000Y-46211650D01*
X39586250Y-46052900D01*
X37257000Y-46052900D01*
X37257000Y-46072900D01*
X37003000Y-46072900D01*
X37003000Y-46052900D01*
X36983000Y-46052900D01*
X36983000Y-45798900D01*
X37003000Y-45798900D01*
X37003000Y-45778900D01*
X37257000Y-45778900D01*
X37257000Y-45798900D01*
X39586250Y-45798900D01*
X39745000Y-45640150D01*
X39745000Y-42027691D01*
X39731052Y-41994019D01*
X39894110Y-42105431D01*
X40146000Y-42156440D01*
X41646000Y-42156440D01*
X41881317Y-42112162D01*
X42097441Y-41973090D01*
X42145134Y-41903289D01*
X42181910Y-41960441D01*
X42394110Y-42105431D01*
X42646000Y-42156440D01*
X44146000Y-42156440D01*
X44381317Y-42112162D01*
X44597441Y-41973090D01*
X44742431Y-41760890D01*
X44750914Y-41719000D01*
X46544000Y-41719000D01*
X46863541Y-41655439D01*
X47134434Y-41474434D01*
X47517428Y-41091440D01*
X48384000Y-41091440D01*
X48619317Y-41047162D01*
X48835441Y-40908090D01*
X48980431Y-40695890D01*
X49031440Y-40444000D01*
X49031440Y-38944000D01*
X48987162Y-38708683D01*
X48848090Y-38492559D01*
X48635890Y-38347569D01*
X48622803Y-38344919D01*
X48835441Y-38208090D01*
X48980431Y-37995890D01*
X49031440Y-37744000D01*
X49031440Y-36244000D01*
X48987162Y-36008683D01*
X48848090Y-35792559D01*
X48635890Y-35647569D01*
X48569000Y-35634023D01*
X48569000Y-32928630D01*
X48619317Y-32919162D01*
X48835441Y-32780090D01*
X48980431Y-32567890D01*
X49031440Y-32316000D01*
X49031440Y-30816000D01*
X48987162Y-30580683D01*
X48848090Y-30364559D01*
X48635890Y-30219569D01*
X48622803Y-30216919D01*
X48835441Y-30080090D01*
X48980431Y-29867890D01*
X49031440Y-29616000D01*
X49031440Y-28116000D01*
X48987162Y-27880683D01*
X48848090Y-27664559D01*
X48635890Y-27519569D01*
X48533771Y-27498889D01*
X48505440Y-27356460D01*
X48324434Y-27085566D01*
X47562434Y-26323566D01*
X47291541Y-26142561D01*
X46972000Y-26079000D01*
X45599780Y-26079000D01*
X45678431Y-25963890D01*
X45729440Y-25712000D01*
X45729440Y-24212000D01*
X45685162Y-23976683D01*
X45546090Y-23760559D01*
X45333890Y-23615569D01*
X45320803Y-23612919D01*
X45533441Y-23476090D01*
X45678431Y-23263890D01*
X45729440Y-23012000D01*
X45729440Y-21512000D01*
X45685162Y-21276683D01*
X45546090Y-21060559D01*
X45333890Y-20915569D01*
X45082000Y-20864560D01*
X44215428Y-20864560D01*
X43578434Y-20227566D01*
X43521289Y-20189383D01*
X43307541Y-20046561D01*
X42988000Y-19983000D01*
X39927926Y-19983000D01*
X39923162Y-19957683D01*
X39784090Y-19741559D01*
X39777819Y-19737274D01*
X43500617Y-19737274D01*
X43514973Y-19809475D01*
X43774676Y-20287340D01*
X44197481Y-20629446D01*
X44719020Y-20783710D01*
X45473400Y-20783710D01*
X45473400Y-19522600D01*
X45727400Y-19522600D01*
X45727400Y-20783710D01*
X46481780Y-20783710D01*
X47003319Y-20629446D01*
X47426124Y-20287340D01*
X47685827Y-19809475D01*
X47700183Y-19737274D01*
X47577562Y-19522600D01*
X45727400Y-19522600D01*
X45473400Y-19522600D01*
X43623238Y-19522600D01*
X43500617Y-19737274D01*
X39777819Y-19737274D01*
X39571890Y-19596569D01*
X39320000Y-19545560D01*
X37820000Y-19545560D01*
X37584683Y-19589838D01*
X37368559Y-19728910D01*
X37320866Y-19798711D01*
X37284090Y-19741559D01*
X37071890Y-19596569D01*
X36820000Y-19545560D01*
X35320000Y-19545560D01*
X35084683Y-19589838D01*
X34868559Y-19728910D01*
X34723569Y-19941110D01*
X34715086Y-19983000D01*
X33594854Y-19983000D01*
X33557162Y-19782683D01*
X33418090Y-19566559D01*
X33205890Y-19421569D01*
X32954000Y-19370560D01*
X30454000Y-19370560D01*
X30218683Y-19414838D01*
X30002559Y-19553910D01*
X29954866Y-19623711D01*
X29918090Y-19566559D01*
X29705890Y-19421569D01*
X29454000Y-19370560D01*
X26954000Y-19370560D01*
X26718683Y-19414838D01*
X26502559Y-19553910D01*
X26357569Y-19766110D01*
X26306560Y-20018000D01*
X26306560Y-21618000D01*
X26350838Y-21853317D01*
X26489910Y-22069441D01*
X26702110Y-22214431D01*
X26909892Y-22256508D01*
X26907524Y-22260052D01*
X26807683Y-22278838D01*
X26591559Y-22417910D01*
X26446569Y-22630110D01*
X26412773Y-22797000D01*
X25870000Y-22797000D01*
X25550459Y-22860561D01*
X25340520Y-23000838D01*
X25279566Y-23041566D01*
X24302132Y-24019000D01*
X24289440Y-24019000D01*
X24289440Y-23604000D01*
X24245162Y-23368683D01*
X24106090Y-23152559D01*
X24036289Y-23104866D01*
X24093441Y-23068090D01*
X24238431Y-22855890D01*
X24289440Y-22604000D01*
X24289440Y-20104000D01*
X24245162Y-19868683D01*
X24106090Y-19652559D01*
X23893890Y-19507569D01*
X23642000Y-19456560D01*
X22042000Y-19456560D01*
X21806683Y-19500838D01*
X21590559Y-19639910D01*
X21445569Y-19852110D01*
X21394560Y-20104000D01*
X21394560Y-20519000D01*
X21183868Y-20519000D01*
X20892434Y-20227566D01*
X20835289Y-20189383D01*
X20621541Y-20046561D01*
X20302000Y-19983000D01*
X20132854Y-19983000D01*
X20095162Y-19782683D01*
X19956090Y-19566559D01*
X19743890Y-19421569D01*
X19492000Y-19370560D01*
X16992000Y-19370560D01*
X16756683Y-19414838D01*
X16540559Y-19553910D01*
X16492866Y-19623711D01*
X16456090Y-19566559D01*
X16243890Y-19421569D01*
X15992000Y-19370560D01*
X13492000Y-19370560D01*
X13256683Y-19414838D01*
X13040559Y-19553910D01*
X12895569Y-19766110D01*
X12844560Y-20018000D01*
X12844560Y-21618000D01*
X12888838Y-21853317D01*
X13027910Y-22069441D01*
X13240110Y-22214431D01*
X13447892Y-22256508D01*
X13445524Y-22260052D01*
X13345683Y-22278838D01*
X13129559Y-22417910D01*
X13003092Y-22603000D01*
X11931446Y-22603000D01*
X11903162Y-22452683D01*
X11764090Y-22236559D01*
X11551890Y-22091569D01*
X11518510Y-22084809D01*
X11659699Y-22026327D01*
X11838327Y-21847698D01*
X11935000Y-21614309D01*
X11935000Y-21023750D01*
X11776250Y-20865000D01*
X10777000Y-20865000D01*
X10777000Y-20885000D01*
X10523000Y-20885000D01*
X10523000Y-20865000D01*
X10503000Y-20865000D01*
X10503000Y-20611000D01*
X10523000Y-20611000D01*
X10523000Y-20591000D01*
X10777000Y-20591000D01*
X10777000Y-20611000D01*
X11776250Y-20611000D01*
X11935000Y-20452250D01*
X11935000Y-19861691D01*
X11867363Y-19698400D01*
X12072400Y-19698400D01*
X12363239Y-19640548D01*
X12609801Y-19475801D01*
X13321001Y-18764601D01*
X13485748Y-18518039D01*
X13508233Y-18405000D01*
X14150466Y-18405000D01*
X14156680Y-18411225D01*
G36*
X20851838Y-36301317D02*
X20990910Y-36517441D01*
X21060711Y-36565134D01*
X21003559Y-36601910D01*
X20858569Y-36814110D01*
X20807560Y-37066000D01*
X20807560Y-38566000D01*
X20851838Y-38801317D01*
X20990910Y-39017441D01*
X21055000Y-39061232D01*
X21055000Y-39444363D01*
X20873710Y-39880959D01*
X20873291Y-40360935D01*
X21056582Y-40804535D01*
X21395680Y-41144225D01*
X21838959Y-41328290D01*
X22318935Y-41328709D01*
X22762535Y-41145418D01*
X23102225Y-40806320D01*
X23286290Y-40363041D01*
X23286709Y-39883065D01*
X23105000Y-39443294D01*
X23105000Y-39063191D01*
X23156441Y-39030090D01*
X23228246Y-38925000D01*
X25470788Y-38925000D01*
X25175577Y-39219697D01*
X25001199Y-39639646D01*
X25000802Y-40094359D01*
X25174446Y-40514612D01*
X25495697Y-40836423D01*
X25915646Y-41010801D01*
X26370359Y-41011198D01*
X26699985Y-40875000D01*
X26898982Y-40875000D01*
X26973910Y-40991441D01*
X27186110Y-41136431D01*
X27438000Y-41187440D01*
X27491080Y-41187440D01*
X27516561Y-41315541D01*
X27612179Y-41458643D01*
X27680945Y-41561559D01*
X27550301Y-41615673D01*
X27371673Y-41794302D01*
X27275000Y-42027691D01*
X27275000Y-45640150D01*
X27433750Y-45798900D01*
X29763000Y-45798900D01*
X29763000Y-45778900D01*
X30017000Y-45778900D01*
X30017000Y-45798900D01*
X30037000Y-45798900D01*
X30037000Y-46052900D01*
X30017000Y-46052900D01*
X30017000Y-46072900D01*
X29763000Y-46072900D01*
X29763000Y-46052900D01*
X27433750Y-46052900D01*
X27275000Y-46211650D01*
X27275000Y-47512672D01*
X27235282Y-47552390D01*
X27275000Y-47592108D01*
X27275000Y-47692159D01*
X27093357Y-47753352D01*
X26883542Y-48326836D01*
X26909161Y-48936960D01*
X27040898Y-49255000D01*
X25748978Y-49255000D01*
X25912458Y-48808164D01*
X25886839Y-48198040D01*
X25702643Y-47753352D01*
X25521000Y-47692159D01*
X25521000Y-47592108D01*
X25560718Y-47552390D01*
X25521000Y-47512672D01*
X25521000Y-46211650D01*
X25362250Y-46052900D01*
X23033000Y-46052900D01*
X23033000Y-46072900D01*
X22779000Y-46072900D01*
X22779000Y-46052900D01*
X22759000Y-46052900D01*
X22759000Y-45798900D01*
X22779000Y-45798900D01*
X22779000Y-44735672D01*
X22810502Y-44651607D01*
X22779000Y-44620105D01*
X22779000Y-44260895D01*
X22990107Y-44472002D01*
X23033000Y-44455928D01*
X23033000Y-45798900D01*
X25362250Y-45798900D01*
X25521000Y-45640150D01*
X25521000Y-42027691D01*
X25424327Y-41794302D01*
X25245699Y-41615673D01*
X25012310Y-41519000D01*
X23191750Y-41519000D01*
X23033000Y-41677750D01*
X23033000Y-42519072D01*
X22990107Y-42502998D01*
X22779000Y-42714105D01*
X22779000Y-42354895D01*
X22810502Y-42323393D01*
X22779000Y-42239328D01*
X22779000Y-41677750D01*
X22620250Y-41519000D01*
X20799690Y-41519000D01*
X20566301Y-41615673D01*
X20387673Y-41794302D01*
X20311000Y-41979407D01*
X20311000Y-40799637D01*
X20492290Y-40363041D01*
X20492709Y-39883065D01*
X20309418Y-39439465D01*
X20056464Y-39186069D01*
X20146317Y-39169162D01*
X20362441Y-39030090D01*
X20507431Y-38817890D01*
X20558440Y-38566000D01*
X20558440Y-37066000D01*
X20514162Y-36830683D01*
X20375090Y-36614559D01*
X20305289Y-36566866D01*
X20362441Y-36530090D01*
X20507431Y-36317890D01*
X20541227Y-36151000D01*
X20823554Y-36151000D01*
X20851838Y-36301317D01*
X20851838Y-36301317D01*
G37*
X20851838Y-36301317D02*
X20990910Y-36517441D01*
X21060711Y-36565134D01*
X21003559Y-36601910D01*
X20858569Y-36814110D01*
X20807560Y-37066000D01*
X20807560Y-38566000D01*
X20851838Y-38801317D01*
X20990910Y-39017441D01*
X21055000Y-39061232D01*
X21055000Y-39444363D01*
X20873710Y-39880959D01*
X20873291Y-40360935D01*
X21056582Y-40804535D01*
X21395680Y-41144225D01*
X21838959Y-41328290D01*
X22318935Y-41328709D01*
X22762535Y-41145418D01*
X23102225Y-40806320D01*
X23286290Y-40363041D01*
X23286709Y-39883065D01*
X23105000Y-39443294D01*
X23105000Y-39063191D01*
X23156441Y-39030090D01*
X23228246Y-38925000D01*
X25470788Y-38925000D01*
X25175577Y-39219697D01*
X25001199Y-39639646D01*
X25000802Y-40094359D01*
X25174446Y-40514612D01*
X25495697Y-40836423D01*
X25915646Y-41010801D01*
X26370359Y-41011198D01*
X26699985Y-40875000D01*
X26898982Y-40875000D01*
X26973910Y-40991441D01*
X27186110Y-41136431D01*
X27438000Y-41187440D01*
X27491080Y-41187440D01*
X27516561Y-41315541D01*
X27612179Y-41458643D01*
X27680945Y-41561559D01*
X27550301Y-41615673D01*
X27371673Y-41794302D01*
X27275000Y-42027691D01*
X27275000Y-45640150D01*
X27433750Y-45798900D01*
X29763000Y-45798900D01*
X29763000Y-45778900D01*
X30017000Y-45778900D01*
X30017000Y-45798900D01*
X30037000Y-45798900D01*
X30037000Y-46052900D01*
X30017000Y-46052900D01*
X30017000Y-46072900D01*
X29763000Y-46072900D01*
X29763000Y-46052900D01*
X27433750Y-46052900D01*
X27275000Y-46211650D01*
X27275000Y-47512672D01*
X27235282Y-47552390D01*
X27275000Y-47592108D01*
X27275000Y-47692159D01*
X27093357Y-47753352D01*
X26883542Y-48326836D01*
X26909161Y-48936960D01*
X27040898Y-49255000D01*
X25748978Y-49255000D01*
X25912458Y-48808164D01*
X25886839Y-48198040D01*
X25702643Y-47753352D01*
X25521000Y-47692159D01*
X25521000Y-47592108D01*
X25560718Y-47552390D01*
X25521000Y-47512672D01*
X25521000Y-46211650D01*
X25362250Y-46052900D01*
X23033000Y-46052900D01*
X23033000Y-46072900D01*
X22779000Y-46072900D01*
X22779000Y-46052900D01*
X22759000Y-46052900D01*
X22759000Y-45798900D01*
X22779000Y-45798900D01*
X22779000Y-44735672D01*
X22810502Y-44651607D01*
X22779000Y-44620105D01*
X22779000Y-44260895D01*
X22990107Y-44472002D01*
X23033000Y-44455928D01*
X23033000Y-45798900D01*
X25362250Y-45798900D01*
X25521000Y-45640150D01*
X25521000Y-42027691D01*
X25424327Y-41794302D01*
X25245699Y-41615673D01*
X25012310Y-41519000D01*
X23191750Y-41519000D01*
X23033000Y-41677750D01*
X23033000Y-42519072D01*
X22990107Y-42502998D01*
X22779000Y-42714105D01*
X22779000Y-42354895D01*
X22810502Y-42323393D01*
X22779000Y-42239328D01*
X22779000Y-41677750D01*
X22620250Y-41519000D01*
X20799690Y-41519000D01*
X20566301Y-41615673D01*
X20387673Y-41794302D01*
X20311000Y-41979407D01*
X20311000Y-40799637D01*
X20492290Y-40363041D01*
X20492709Y-39883065D01*
X20309418Y-39439465D01*
X20056464Y-39186069D01*
X20146317Y-39169162D01*
X20362441Y-39030090D01*
X20507431Y-38817890D01*
X20558440Y-38566000D01*
X20558440Y-37066000D01*
X20514162Y-36830683D01*
X20375090Y-36614559D01*
X20305289Y-36566866D01*
X20362441Y-36530090D01*
X20507431Y-36317890D01*
X20541227Y-36151000D01*
X20823554Y-36151000D01*
X20851838Y-36301317D01*
G36*
X40384838Y-24517317D02*
X40523910Y-24733441D01*
X40736110Y-24878431D01*
X40749197Y-24881081D01*
X40536559Y-25017910D01*
X40391569Y-25230110D01*
X40357773Y-25397000D01*
X40288000Y-25397000D01*
X39968459Y-25460561D01*
X39764264Y-25597000D01*
X39697566Y-25641566D01*
X38333566Y-27005566D01*
X38152561Y-27276459D01*
X38089000Y-27596000D01*
X38089000Y-29950554D01*
X37938683Y-29978838D01*
X37722559Y-30117910D01*
X37577569Y-30330110D01*
X37574919Y-30343197D01*
X37438090Y-30130559D01*
X37225890Y-29985569D01*
X36974000Y-29934560D01*
X35474000Y-29934560D01*
X35238683Y-29978838D01*
X35022559Y-30117910D01*
X34877569Y-30330110D01*
X34864023Y-30397000D01*
X34252000Y-30397000D01*
X33932459Y-30460561D01*
X33777487Y-30564110D01*
X33661566Y-30641566D01*
X33327572Y-30975560D01*
X32486000Y-30975560D01*
X32250683Y-31019838D01*
X32034559Y-31158910D01*
X31988031Y-31227006D01*
X31845698Y-31084673D01*
X31612309Y-30988000D01*
X31021750Y-30988000D01*
X30863000Y-31146750D01*
X30863000Y-32121000D01*
X30883000Y-32121000D01*
X30883000Y-32375000D01*
X30863000Y-32375000D01*
X30863000Y-33349250D01*
X31021750Y-33508000D01*
X31612309Y-33508000D01*
X31845698Y-33411327D01*
X31986936Y-33270090D01*
X32021910Y-33324441D01*
X32234110Y-33469431D01*
X32401000Y-33503227D01*
X32401000Y-34033370D01*
X32350683Y-34042838D01*
X32134559Y-34181910D01*
X31989569Y-34394110D01*
X31982809Y-34427490D01*
X31924327Y-34286301D01*
X31745698Y-34107673D01*
X31512309Y-34011000D01*
X30921750Y-34011000D01*
X30763000Y-34169750D01*
X30763000Y-35169000D01*
X30783000Y-35169000D01*
X30783000Y-35423000D01*
X30763000Y-35423000D01*
X30763000Y-36422250D01*
X30921750Y-36581000D01*
X31512309Y-36581000D01*
X31745698Y-36484327D01*
X31924327Y-36305699D01*
X31980654Y-36169713D01*
X31982838Y-36181317D01*
X32121910Y-36397441D01*
X32334110Y-36542431D01*
X32586000Y-36593440D01*
X34086000Y-36593440D01*
X34321317Y-36549162D01*
X34537441Y-36410090D01*
X34682431Y-36197890D01*
X34695977Y-36131000D01*
X34861370Y-36131000D01*
X34870838Y-36181317D01*
X35009910Y-36397441D01*
X35222110Y-36542431D01*
X35474000Y-36593440D01*
X36974000Y-36593440D01*
X37209317Y-36549162D01*
X37425441Y-36410090D01*
X37570431Y-36197890D01*
X37573081Y-36184803D01*
X37709910Y-36397441D01*
X37922110Y-36542431D01*
X38174000Y-36593440D01*
X38432572Y-36593440D01*
X39036441Y-37197309D01*
X38991000Y-37242750D01*
X38991000Y-38217000D01*
X39011000Y-38217000D01*
X39011000Y-38471000D01*
X38991000Y-38471000D01*
X38991000Y-38491000D01*
X38737000Y-38491000D01*
X38737000Y-38471000D01*
X37637750Y-38471000D01*
X37479000Y-38629750D01*
X37479000Y-39095310D01*
X37558401Y-39287000D01*
X37556219Y-39287000D01*
X37369320Y-39099775D01*
X36926041Y-38915710D01*
X36659345Y-38915477D01*
X35336558Y-37592690D01*
X37479000Y-37592690D01*
X37479000Y-38058250D01*
X37637750Y-38217000D01*
X38737000Y-38217000D01*
X38737000Y-37242750D01*
X38578250Y-37084000D01*
X37987691Y-37084000D01*
X37754302Y-37180673D01*
X37575673Y-37359301D01*
X37479000Y-37592690D01*
X35336558Y-37592690D01*
X35243434Y-37499566D01*
X35177769Y-37455690D01*
X34972541Y-37318561D01*
X34653000Y-37255000D01*
X29677018Y-37255000D01*
X29602090Y-37138559D01*
X29389890Y-36993569D01*
X29138000Y-36942560D01*
X28738000Y-36942560D01*
X28632295Y-36962450D01*
X28614309Y-36955000D01*
X28546750Y-36955000D01*
X28517746Y-36984004D01*
X28502683Y-36986838D01*
X28286559Y-37125910D01*
X28285610Y-37127299D01*
X28089890Y-36993569D01*
X28062215Y-36987965D01*
X28029250Y-36955000D01*
X27961691Y-36955000D01*
X27941247Y-36963468D01*
X27838000Y-36942560D01*
X27438000Y-36942560D01*
X27202683Y-36986838D01*
X26986559Y-37125910D01*
X26898356Y-37255000D01*
X23352440Y-37255000D01*
X23352440Y-37066000D01*
X23308162Y-36830683D01*
X23169090Y-36614559D01*
X23099289Y-36566866D01*
X23156441Y-36530090D01*
X23301431Y-36317890D01*
X23339277Y-36131000D01*
X24202413Y-36131000D01*
X24291910Y-36192151D01*
X24543800Y-36243160D01*
X25544560Y-36243160D01*
X25779877Y-36198882D01*
X25996001Y-36059810D01*
X26140991Y-35847610D01*
X26147383Y-35816046D01*
X26205113Y-35955419D01*
X26383742Y-36134047D01*
X26617131Y-36230720D01*
X26958070Y-36230720D01*
X27116820Y-36071970D01*
X27116820Y-35423000D01*
X27370820Y-35423000D01*
X27370820Y-36071970D01*
X27529570Y-36230720D01*
X27870509Y-36230720D01*
X28103898Y-36134047D01*
X28282527Y-35955419D01*
X28379200Y-35722030D01*
X28379200Y-35581750D01*
X29251000Y-35581750D01*
X29251000Y-36072310D01*
X29347673Y-36305699D01*
X29526302Y-36484327D01*
X29759691Y-36581000D01*
X30350250Y-36581000D01*
X30509000Y-36422250D01*
X30509000Y-35423000D01*
X29409750Y-35423000D01*
X29251000Y-35581750D01*
X28379200Y-35581750D01*
X28220450Y-35423000D01*
X27370820Y-35423000D01*
X27116820Y-35423000D01*
X27096820Y-35423000D01*
X27096820Y-35169000D01*
X27116820Y-35169000D01*
X27116820Y-34520030D01*
X27370820Y-34520030D01*
X27370820Y-35169000D01*
X28220450Y-35169000D01*
X28379200Y-35010250D01*
X28379200Y-34875293D01*
X28537055Y-34928091D01*
X28990657Y-34896322D01*
X29251000Y-34788485D01*
X29251000Y-35010250D01*
X29409750Y-35169000D01*
X30509000Y-35169000D01*
X30509000Y-34169750D01*
X30350250Y-34011000D01*
X29809301Y-34011000D01*
X29840091Y-33918945D01*
X29809864Y-33487361D01*
X29859691Y-33508000D01*
X30450250Y-33508000D01*
X30609000Y-33349250D01*
X30609000Y-32375000D01*
X29509750Y-32375000D01*
X29351000Y-32533750D01*
X29351000Y-32925392D01*
X29300314Y-32976078D01*
X29262176Y-32760144D01*
X28830945Y-32615909D01*
X28377343Y-32647678D01*
X28105824Y-32760144D01*
X28067686Y-32976081D01*
X28684000Y-33592395D01*
X28698143Y-33578253D01*
X28877748Y-33757858D01*
X28863605Y-33772000D01*
X28877748Y-33786143D01*
X28698143Y-33965748D01*
X28684000Y-33951605D01*
X28669858Y-33965748D01*
X28490253Y-33786143D01*
X28504395Y-33772000D01*
X27888081Y-33155686D01*
X27672144Y-33193824D01*
X27527909Y-33625055D01*
X27559678Y-34078657D01*
X27672144Y-34350176D01*
X27735015Y-34361280D01*
X27529570Y-34361280D01*
X27370820Y-34520030D01*
X27116820Y-34520030D01*
X26958070Y-34361280D01*
X26617131Y-34361280D01*
X26383742Y-34457953D01*
X26205113Y-34636581D01*
X26149556Y-34770708D01*
X26147722Y-34760963D01*
X26008650Y-34544839D01*
X25796450Y-34399849D01*
X25544560Y-34348840D01*
X24543800Y-34348840D01*
X24308483Y-34393118D01*
X24202991Y-34461000D01*
X23332683Y-34461000D01*
X23308162Y-34330683D01*
X23169090Y-34114559D01*
X22956890Y-33969569D01*
X22705000Y-33918560D01*
X21455000Y-33918560D01*
X21219683Y-33962838D01*
X21003559Y-34101910D01*
X20858569Y-34314110D01*
X20824773Y-34481000D01*
X20542446Y-34481000D01*
X20514162Y-34330683D01*
X20375090Y-34114559D01*
X20162890Y-33969569D01*
X19911000Y-33918560D01*
X18661000Y-33918560D01*
X18425683Y-33962838D01*
X18209559Y-34101910D01*
X18064569Y-34314110D01*
X18013560Y-34566000D01*
X18013560Y-36066000D01*
X18057838Y-36301317D01*
X18196910Y-36517441D01*
X18266711Y-36565134D01*
X18209559Y-36601910D01*
X18064569Y-36814110D01*
X18030773Y-36981000D01*
X17292828Y-36981000D01*
X17063500Y-36934560D01*
X16200308Y-36934560D01*
X16250440Y-36687000D01*
X16250440Y-36017285D01*
X16578285Y-35689440D01*
X17063000Y-35689440D01*
X17298317Y-35645162D01*
X17514441Y-35506090D01*
X17659431Y-35293890D01*
X17710440Y-35042000D01*
X17710440Y-33424919D01*
X18415686Y-33424919D01*
X18453824Y-33640856D01*
X18885055Y-33785091D01*
X19338657Y-33753322D01*
X19610176Y-33640856D01*
X19648314Y-33424919D01*
X19032000Y-32808605D01*
X18415686Y-33424919D01*
X17710440Y-33424919D01*
X17710440Y-32958688D01*
X17772733Y-32808670D01*
X17773017Y-32482055D01*
X17875909Y-32482055D01*
X17907678Y-32935657D01*
X18020144Y-33207176D01*
X18236081Y-33245314D01*
X18852395Y-32629000D01*
X19211605Y-32629000D01*
X19827919Y-33245314D01*
X20043856Y-33207176D01*
X20188091Y-32775945D01*
X20156322Y-32322343D01*
X20043856Y-32050824D01*
X19827919Y-32012686D01*
X19211605Y-32629000D01*
X18852395Y-32629000D01*
X18236081Y-32012686D01*
X18020144Y-32050824D01*
X17875909Y-32482055D01*
X17773017Y-32482055D01*
X17773265Y-32198009D01*
X17622480Y-31833081D01*
X18415686Y-31833081D01*
X19032000Y-32449395D01*
X19648314Y-31833081D01*
X19610176Y-31617144D01*
X19178945Y-31472909D01*
X18725343Y-31504678D01*
X18453824Y-31617144D01*
X18415686Y-31833081D01*
X17622480Y-31833081D01*
X17540068Y-31633629D01*
X17108643Y-31201449D01*
X17003703Y-31157874D01*
X16828434Y-30895566D01*
X16260608Y-30327740D01*
X16443441Y-30210090D01*
X16491134Y-30140289D01*
X16527910Y-30197441D01*
X16740110Y-30342431D01*
X16992000Y-30393440D01*
X18508572Y-30393440D01*
X20671566Y-32556434D01*
X20942459Y-32737439D01*
X21262000Y-32801000D01*
X21394560Y-32801000D01*
X21394560Y-33216000D01*
X21438838Y-33451317D01*
X21577910Y-33667441D01*
X21790110Y-33812431D01*
X22042000Y-33863440D01*
X23642000Y-33863440D01*
X23877317Y-33819162D01*
X24093441Y-33680090D01*
X24238431Y-33467890D01*
X24289440Y-33216000D01*
X24289440Y-31496690D01*
X29351000Y-31496690D01*
X29351000Y-31962250D01*
X29509750Y-32121000D01*
X30609000Y-32121000D01*
X30609000Y-31146750D01*
X30450250Y-30988000D01*
X29859691Y-30988000D01*
X29626302Y-31084673D01*
X29447673Y-31263301D01*
X29351000Y-31496690D01*
X24289440Y-31496690D01*
X24289440Y-30716000D01*
X24245162Y-30480683D01*
X24106090Y-30264559D01*
X24036289Y-30216866D01*
X24093441Y-30180090D01*
X24238431Y-29967890D01*
X24289440Y-29716000D01*
X24289440Y-29301000D01*
X25572131Y-29301000D01*
X25807566Y-29536435D01*
X26078460Y-29717440D01*
X26309846Y-29763465D01*
X26350838Y-29981317D01*
X26489910Y-30197441D01*
X26702110Y-30342431D01*
X26954000Y-30393440D01*
X29454000Y-30393440D01*
X29689317Y-30349162D01*
X29905441Y-30210090D01*
X29953134Y-30140289D01*
X29989910Y-30197441D01*
X30202110Y-30342431D01*
X30454000Y-30393440D01*
X32954000Y-30393440D01*
X33189317Y-30349162D01*
X33405441Y-30210090D01*
X33550431Y-29997890D01*
X33601440Y-29746000D01*
X33601440Y-28146000D01*
X33557162Y-27910683D01*
X33418090Y-27694559D01*
X33205890Y-27549569D01*
X32998108Y-27507492D01*
X33000476Y-27503948D01*
X33100317Y-27485162D01*
X33316441Y-27346090D01*
X33461431Y-27133890D01*
X33495227Y-26967000D01*
X35555554Y-26967000D01*
X35583838Y-27117317D01*
X35722910Y-27333441D01*
X35935110Y-27478431D01*
X36187000Y-27529440D01*
X37437000Y-27529440D01*
X37672317Y-27485162D01*
X37888441Y-27346090D01*
X38033431Y-27133890D01*
X38084440Y-26882000D01*
X38084440Y-25382000D01*
X38040162Y-25146683D01*
X37901090Y-24930559D01*
X37831289Y-24882866D01*
X37888441Y-24846090D01*
X38033431Y-24633890D01*
X38067227Y-24467000D01*
X40375370Y-24467000D01*
X40384838Y-24517317D01*
X40384838Y-24517317D01*
G37*
X40384838Y-24517317D02*
X40523910Y-24733441D01*
X40736110Y-24878431D01*
X40749197Y-24881081D01*
X40536559Y-25017910D01*
X40391569Y-25230110D01*
X40357773Y-25397000D01*
X40288000Y-25397000D01*
X39968459Y-25460561D01*
X39764264Y-25597000D01*
X39697566Y-25641566D01*
X38333566Y-27005566D01*
X38152561Y-27276459D01*
X38089000Y-27596000D01*
X38089000Y-29950554D01*
X37938683Y-29978838D01*
X37722559Y-30117910D01*
X37577569Y-30330110D01*
X37574919Y-30343197D01*
X37438090Y-30130559D01*
X37225890Y-29985569D01*
X36974000Y-29934560D01*
X35474000Y-29934560D01*
X35238683Y-29978838D01*
X35022559Y-30117910D01*
X34877569Y-30330110D01*
X34864023Y-30397000D01*
X34252000Y-30397000D01*
X33932459Y-30460561D01*
X33777487Y-30564110D01*
X33661566Y-30641566D01*
X33327572Y-30975560D01*
X32486000Y-30975560D01*
X32250683Y-31019838D01*
X32034559Y-31158910D01*
X31988031Y-31227006D01*
X31845698Y-31084673D01*
X31612309Y-30988000D01*
X31021750Y-30988000D01*
X30863000Y-31146750D01*
X30863000Y-32121000D01*
X30883000Y-32121000D01*
X30883000Y-32375000D01*
X30863000Y-32375000D01*
X30863000Y-33349250D01*
X31021750Y-33508000D01*
X31612309Y-33508000D01*
X31845698Y-33411327D01*
X31986936Y-33270090D01*
X32021910Y-33324441D01*
X32234110Y-33469431D01*
X32401000Y-33503227D01*
X32401000Y-34033370D01*
X32350683Y-34042838D01*
X32134559Y-34181910D01*
X31989569Y-34394110D01*
X31982809Y-34427490D01*
X31924327Y-34286301D01*
X31745698Y-34107673D01*
X31512309Y-34011000D01*
X30921750Y-34011000D01*
X30763000Y-34169750D01*
X30763000Y-35169000D01*
X30783000Y-35169000D01*
X30783000Y-35423000D01*
X30763000Y-35423000D01*
X30763000Y-36422250D01*
X30921750Y-36581000D01*
X31512309Y-36581000D01*
X31745698Y-36484327D01*
X31924327Y-36305699D01*
X31980654Y-36169713D01*
X31982838Y-36181317D01*
X32121910Y-36397441D01*
X32334110Y-36542431D01*
X32586000Y-36593440D01*
X34086000Y-36593440D01*
X34321317Y-36549162D01*
X34537441Y-36410090D01*
X34682431Y-36197890D01*
X34695977Y-36131000D01*
X34861370Y-36131000D01*
X34870838Y-36181317D01*
X35009910Y-36397441D01*
X35222110Y-36542431D01*
X35474000Y-36593440D01*
X36974000Y-36593440D01*
X37209317Y-36549162D01*
X37425441Y-36410090D01*
X37570431Y-36197890D01*
X37573081Y-36184803D01*
X37709910Y-36397441D01*
X37922110Y-36542431D01*
X38174000Y-36593440D01*
X38432572Y-36593440D01*
X39036441Y-37197309D01*
X38991000Y-37242750D01*
X38991000Y-38217000D01*
X39011000Y-38217000D01*
X39011000Y-38471000D01*
X38991000Y-38471000D01*
X38991000Y-38491000D01*
X38737000Y-38491000D01*
X38737000Y-38471000D01*
X37637750Y-38471000D01*
X37479000Y-38629750D01*
X37479000Y-39095310D01*
X37558401Y-39287000D01*
X37556219Y-39287000D01*
X37369320Y-39099775D01*
X36926041Y-38915710D01*
X36659345Y-38915477D01*
X35336558Y-37592690D01*
X37479000Y-37592690D01*
X37479000Y-38058250D01*
X37637750Y-38217000D01*
X38737000Y-38217000D01*
X38737000Y-37242750D01*
X38578250Y-37084000D01*
X37987691Y-37084000D01*
X37754302Y-37180673D01*
X37575673Y-37359301D01*
X37479000Y-37592690D01*
X35336558Y-37592690D01*
X35243434Y-37499566D01*
X35177769Y-37455690D01*
X34972541Y-37318561D01*
X34653000Y-37255000D01*
X29677018Y-37255000D01*
X29602090Y-37138559D01*
X29389890Y-36993569D01*
X29138000Y-36942560D01*
X28738000Y-36942560D01*
X28632295Y-36962450D01*
X28614309Y-36955000D01*
X28546750Y-36955000D01*
X28517746Y-36984004D01*
X28502683Y-36986838D01*
X28286559Y-37125910D01*
X28285610Y-37127299D01*
X28089890Y-36993569D01*
X28062215Y-36987965D01*
X28029250Y-36955000D01*
X27961691Y-36955000D01*
X27941247Y-36963468D01*
X27838000Y-36942560D01*
X27438000Y-36942560D01*
X27202683Y-36986838D01*
X26986559Y-37125910D01*
X26898356Y-37255000D01*
X23352440Y-37255000D01*
X23352440Y-37066000D01*
X23308162Y-36830683D01*
X23169090Y-36614559D01*
X23099289Y-36566866D01*
X23156441Y-36530090D01*
X23301431Y-36317890D01*
X23339277Y-36131000D01*
X24202413Y-36131000D01*
X24291910Y-36192151D01*
X24543800Y-36243160D01*
X25544560Y-36243160D01*
X25779877Y-36198882D01*
X25996001Y-36059810D01*
X26140991Y-35847610D01*
X26147383Y-35816046D01*
X26205113Y-35955419D01*
X26383742Y-36134047D01*
X26617131Y-36230720D01*
X26958070Y-36230720D01*
X27116820Y-36071970D01*
X27116820Y-35423000D01*
X27370820Y-35423000D01*
X27370820Y-36071970D01*
X27529570Y-36230720D01*
X27870509Y-36230720D01*
X28103898Y-36134047D01*
X28282527Y-35955419D01*
X28379200Y-35722030D01*
X28379200Y-35581750D01*
X29251000Y-35581750D01*
X29251000Y-36072310D01*
X29347673Y-36305699D01*
X29526302Y-36484327D01*
X29759691Y-36581000D01*
X30350250Y-36581000D01*
X30509000Y-36422250D01*
X30509000Y-35423000D01*
X29409750Y-35423000D01*
X29251000Y-35581750D01*
X28379200Y-35581750D01*
X28220450Y-35423000D01*
X27370820Y-35423000D01*
X27116820Y-35423000D01*
X27096820Y-35423000D01*
X27096820Y-35169000D01*
X27116820Y-35169000D01*
X27116820Y-34520030D01*
X27370820Y-34520030D01*
X27370820Y-35169000D01*
X28220450Y-35169000D01*
X28379200Y-35010250D01*
X28379200Y-34875293D01*
X28537055Y-34928091D01*
X28990657Y-34896322D01*
X29251000Y-34788485D01*
X29251000Y-35010250D01*
X29409750Y-35169000D01*
X30509000Y-35169000D01*
X30509000Y-34169750D01*
X30350250Y-34011000D01*
X29809301Y-34011000D01*
X29840091Y-33918945D01*
X29809864Y-33487361D01*
X29859691Y-33508000D01*
X30450250Y-33508000D01*
X30609000Y-33349250D01*
X30609000Y-32375000D01*
X29509750Y-32375000D01*
X29351000Y-32533750D01*
X29351000Y-32925392D01*
X29300314Y-32976078D01*
X29262176Y-32760144D01*
X28830945Y-32615909D01*
X28377343Y-32647678D01*
X28105824Y-32760144D01*
X28067686Y-32976081D01*
X28684000Y-33592395D01*
X28698143Y-33578253D01*
X28877748Y-33757858D01*
X28863605Y-33772000D01*
X28877748Y-33786143D01*
X28698143Y-33965748D01*
X28684000Y-33951605D01*
X28669858Y-33965748D01*
X28490253Y-33786143D01*
X28504395Y-33772000D01*
X27888081Y-33155686D01*
X27672144Y-33193824D01*
X27527909Y-33625055D01*
X27559678Y-34078657D01*
X27672144Y-34350176D01*
X27735015Y-34361280D01*
X27529570Y-34361280D01*
X27370820Y-34520030D01*
X27116820Y-34520030D01*
X26958070Y-34361280D01*
X26617131Y-34361280D01*
X26383742Y-34457953D01*
X26205113Y-34636581D01*
X26149556Y-34770708D01*
X26147722Y-34760963D01*
X26008650Y-34544839D01*
X25796450Y-34399849D01*
X25544560Y-34348840D01*
X24543800Y-34348840D01*
X24308483Y-34393118D01*
X24202991Y-34461000D01*
X23332683Y-34461000D01*
X23308162Y-34330683D01*
X23169090Y-34114559D01*
X22956890Y-33969569D01*
X22705000Y-33918560D01*
X21455000Y-33918560D01*
X21219683Y-33962838D01*
X21003559Y-34101910D01*
X20858569Y-34314110D01*
X20824773Y-34481000D01*
X20542446Y-34481000D01*
X20514162Y-34330683D01*
X20375090Y-34114559D01*
X20162890Y-33969569D01*
X19911000Y-33918560D01*
X18661000Y-33918560D01*
X18425683Y-33962838D01*
X18209559Y-34101910D01*
X18064569Y-34314110D01*
X18013560Y-34566000D01*
X18013560Y-36066000D01*
X18057838Y-36301317D01*
X18196910Y-36517441D01*
X18266711Y-36565134D01*
X18209559Y-36601910D01*
X18064569Y-36814110D01*
X18030773Y-36981000D01*
X17292828Y-36981000D01*
X17063500Y-36934560D01*
X16200308Y-36934560D01*
X16250440Y-36687000D01*
X16250440Y-36017285D01*
X16578285Y-35689440D01*
X17063000Y-35689440D01*
X17298317Y-35645162D01*
X17514441Y-35506090D01*
X17659431Y-35293890D01*
X17710440Y-35042000D01*
X17710440Y-33424919D01*
X18415686Y-33424919D01*
X18453824Y-33640856D01*
X18885055Y-33785091D01*
X19338657Y-33753322D01*
X19610176Y-33640856D01*
X19648314Y-33424919D01*
X19032000Y-32808605D01*
X18415686Y-33424919D01*
X17710440Y-33424919D01*
X17710440Y-32958688D01*
X17772733Y-32808670D01*
X17773017Y-32482055D01*
X17875909Y-32482055D01*
X17907678Y-32935657D01*
X18020144Y-33207176D01*
X18236081Y-33245314D01*
X18852395Y-32629000D01*
X19211605Y-32629000D01*
X19827919Y-33245314D01*
X20043856Y-33207176D01*
X20188091Y-32775945D01*
X20156322Y-32322343D01*
X20043856Y-32050824D01*
X19827919Y-32012686D01*
X19211605Y-32629000D01*
X18852395Y-32629000D01*
X18236081Y-32012686D01*
X18020144Y-32050824D01*
X17875909Y-32482055D01*
X17773017Y-32482055D01*
X17773265Y-32198009D01*
X17622480Y-31833081D01*
X18415686Y-31833081D01*
X19032000Y-32449395D01*
X19648314Y-31833081D01*
X19610176Y-31617144D01*
X19178945Y-31472909D01*
X18725343Y-31504678D01*
X18453824Y-31617144D01*
X18415686Y-31833081D01*
X17622480Y-31833081D01*
X17540068Y-31633629D01*
X17108643Y-31201449D01*
X17003703Y-31157874D01*
X16828434Y-30895566D01*
X16260608Y-30327740D01*
X16443441Y-30210090D01*
X16491134Y-30140289D01*
X16527910Y-30197441D01*
X16740110Y-30342431D01*
X16992000Y-30393440D01*
X18508572Y-30393440D01*
X20671566Y-32556434D01*
X20942459Y-32737439D01*
X21262000Y-32801000D01*
X21394560Y-32801000D01*
X21394560Y-33216000D01*
X21438838Y-33451317D01*
X21577910Y-33667441D01*
X21790110Y-33812431D01*
X22042000Y-33863440D01*
X23642000Y-33863440D01*
X23877317Y-33819162D01*
X24093441Y-33680090D01*
X24238431Y-33467890D01*
X24289440Y-33216000D01*
X24289440Y-31496690D01*
X29351000Y-31496690D01*
X29351000Y-31962250D01*
X29509750Y-32121000D01*
X30609000Y-32121000D01*
X30609000Y-31146750D01*
X30450250Y-30988000D01*
X29859691Y-30988000D01*
X29626302Y-31084673D01*
X29447673Y-31263301D01*
X29351000Y-31496690D01*
X24289440Y-31496690D01*
X24289440Y-30716000D01*
X24245162Y-30480683D01*
X24106090Y-30264559D01*
X24036289Y-30216866D01*
X24093441Y-30180090D01*
X24238431Y-29967890D01*
X24289440Y-29716000D01*
X24289440Y-29301000D01*
X25572131Y-29301000D01*
X25807566Y-29536435D01*
X26078460Y-29717440D01*
X26309846Y-29763465D01*
X26350838Y-29981317D01*
X26489910Y-30197441D01*
X26702110Y-30342431D01*
X26954000Y-30393440D01*
X29454000Y-30393440D01*
X29689317Y-30349162D01*
X29905441Y-30210090D01*
X29953134Y-30140289D01*
X29989910Y-30197441D01*
X30202110Y-30342431D01*
X30454000Y-30393440D01*
X32954000Y-30393440D01*
X33189317Y-30349162D01*
X33405441Y-30210090D01*
X33550431Y-29997890D01*
X33601440Y-29746000D01*
X33601440Y-28146000D01*
X33557162Y-27910683D01*
X33418090Y-27694559D01*
X33205890Y-27549569D01*
X32998108Y-27507492D01*
X33000476Y-27503948D01*
X33100317Y-27485162D01*
X33316441Y-27346090D01*
X33461431Y-27133890D01*
X33495227Y-26967000D01*
X35555554Y-26967000D01*
X35583838Y-27117317D01*
X35722910Y-27333441D01*
X35935110Y-27478431D01*
X36187000Y-27529440D01*
X37437000Y-27529440D01*
X37672317Y-27485162D01*
X37888441Y-27346090D01*
X38033431Y-27133890D01*
X38084440Y-26882000D01*
X38084440Y-25382000D01*
X38040162Y-25146683D01*
X37901090Y-24930559D01*
X37831289Y-24882866D01*
X37888441Y-24846090D01*
X38033431Y-24633890D01*
X38067227Y-24467000D01*
X40375370Y-24467000D01*
X40384838Y-24517317D01*
G36*
X40523910Y-27433441D02*
X40736110Y-27578431D01*
X40957209Y-27623205D01*
X41011194Y-27704000D01*
X41047566Y-27758434D01*
X41409632Y-28120500D01*
X41383998Y-28120500D01*
X41383998Y-28279248D01*
X41225250Y-28120500D01*
X41130691Y-28120500D01*
X40897302Y-28217173D01*
X40718673Y-28395801D01*
X40622000Y-28629190D01*
X40622000Y-29041250D01*
X40780750Y-29200000D01*
X41384000Y-29200000D01*
X41384000Y-29180000D01*
X41638000Y-29180000D01*
X41638000Y-29200000D01*
X41658000Y-29200000D01*
X41658000Y-29454000D01*
X41638000Y-29454000D01*
X41638000Y-30374750D01*
X41796750Y-30533500D01*
X41891309Y-30533500D01*
X42124698Y-30436827D01*
X42151235Y-30410291D01*
X42275110Y-30494931D01*
X42527000Y-30545940D01*
X43035000Y-30545940D01*
X43270317Y-30501662D01*
X43416907Y-30407334D01*
X43545110Y-30494931D01*
X43797000Y-30545940D01*
X44305000Y-30545940D01*
X44540317Y-30501662D01*
X44686907Y-30407334D01*
X44815110Y-30494931D01*
X45067000Y-30545940D01*
X45575000Y-30545940D01*
X45810317Y-30501662D01*
X46026441Y-30362590D01*
X46171431Y-30150390D01*
X46222440Y-29898500D01*
X46222440Y-28755500D01*
X46178162Y-28520183D01*
X46039090Y-28304059D01*
X45826890Y-28159069D01*
X45575000Y-28108060D01*
X45067000Y-28108060D01*
X44886000Y-28142118D01*
X44886000Y-27749000D01*
X46566220Y-27749000D01*
X46487569Y-27864110D01*
X46436560Y-28116000D01*
X46436560Y-29616000D01*
X46480838Y-29851317D01*
X46619910Y-30067441D01*
X46832110Y-30212431D01*
X46845197Y-30215081D01*
X46632559Y-30351910D01*
X46487569Y-30564110D01*
X46436560Y-30816000D01*
X46436560Y-32316000D01*
X46480838Y-32551317D01*
X46619910Y-32767441D01*
X46832110Y-32912431D01*
X46899000Y-32925977D01*
X46899000Y-33774000D01*
X45321000Y-33774000D01*
X45321000Y-32787750D01*
X45162250Y-32629000D01*
X43543000Y-32629000D01*
X43543000Y-32649000D01*
X43289000Y-32649000D01*
X43289000Y-32629000D01*
X41669750Y-32629000D01*
X41511000Y-32787750D01*
X41511000Y-33898310D01*
X41607673Y-34131699D01*
X41786302Y-34310327D01*
X42019691Y-34407000D01*
X42071524Y-34407000D01*
X42047113Y-34529720D01*
X42016890Y-34509069D01*
X41765000Y-34458060D01*
X41257000Y-34458060D01*
X41021683Y-34502338D01*
X40805559Y-34641410D01*
X40660569Y-34853610D01*
X40609560Y-35105500D01*
X40609560Y-36248500D01*
X40646688Y-36445820D01*
X40292042Y-36091174D01*
X40321440Y-35946000D01*
X40321440Y-34646000D01*
X40277162Y-34410683D01*
X40138090Y-34194559D01*
X39925890Y-34049569D01*
X39674000Y-33998560D01*
X38174000Y-33998560D01*
X37938683Y-34042838D01*
X37722559Y-34181910D01*
X37577569Y-34394110D01*
X37574919Y-34407197D01*
X37438090Y-34194559D01*
X37225890Y-34049569D01*
X36974000Y-33998560D01*
X35474000Y-33998560D01*
X35238683Y-34042838D01*
X35022559Y-34181910D01*
X34877569Y-34394110D01*
X34864023Y-34461000D01*
X34698630Y-34461000D01*
X34689162Y-34410683D01*
X34550090Y-34194559D01*
X34337890Y-34049569D01*
X34086000Y-33998560D01*
X34071000Y-33998560D01*
X34071000Y-33504446D01*
X34221317Y-33476162D01*
X34437441Y-33337090D01*
X34582431Y-33124890D01*
X34633440Y-32873000D01*
X34633440Y-32067000D01*
X34861370Y-32067000D01*
X34870838Y-32117317D01*
X35009910Y-32333441D01*
X35222110Y-32478431D01*
X35474000Y-32529440D01*
X36974000Y-32529440D01*
X37209317Y-32485162D01*
X37425441Y-32346090D01*
X37570431Y-32133890D01*
X37573081Y-32120803D01*
X37709910Y-32333441D01*
X37922110Y-32478431D01*
X38174000Y-32529440D01*
X39674000Y-32529440D01*
X39909317Y-32485162D01*
X40125441Y-32346090D01*
X40270431Y-32133890D01*
X40321440Y-31882000D01*
X40321440Y-31105690D01*
X41511000Y-31105690D01*
X41511000Y-32216250D01*
X41669750Y-32375000D01*
X43289000Y-32375000D01*
X43289000Y-30755750D01*
X43543000Y-30755750D01*
X43543000Y-32375000D01*
X45162250Y-32375000D01*
X45321000Y-32216250D01*
X45321000Y-31105690D01*
X45224327Y-30872301D01*
X45045698Y-30693673D01*
X44812309Y-30597000D01*
X43701750Y-30597000D01*
X43543000Y-30755750D01*
X43289000Y-30755750D01*
X43130250Y-30597000D01*
X42019691Y-30597000D01*
X41786302Y-30693673D01*
X41607673Y-30872301D01*
X41511000Y-31105690D01*
X40321440Y-31105690D01*
X40321440Y-30582000D01*
X40277162Y-30346683D01*
X40138090Y-30130559D01*
X39925890Y-29985569D01*
X39759000Y-29951773D01*
X39759000Y-29612750D01*
X40622000Y-29612750D01*
X40622000Y-30024810D01*
X40718673Y-30258199D01*
X40897302Y-30436827D01*
X41130691Y-30533500D01*
X41225250Y-30533500D01*
X41384000Y-30374750D01*
X41384000Y-29454000D01*
X40780750Y-29454000D01*
X40622000Y-29612750D01*
X39759000Y-29612750D01*
X39759000Y-27941868D01*
X40423488Y-27277380D01*
X40523910Y-27433441D01*
X40523910Y-27433441D01*
G37*
X40523910Y-27433441D02*
X40736110Y-27578431D01*
X40957209Y-27623205D01*
X41011194Y-27704000D01*
X41047566Y-27758434D01*
X41409632Y-28120500D01*
X41383998Y-28120500D01*
X41383998Y-28279248D01*
X41225250Y-28120500D01*
X41130691Y-28120500D01*
X40897302Y-28217173D01*
X40718673Y-28395801D01*
X40622000Y-28629190D01*
X40622000Y-29041250D01*
X40780750Y-29200000D01*
X41384000Y-29200000D01*
X41384000Y-29180000D01*
X41638000Y-29180000D01*
X41638000Y-29200000D01*
X41658000Y-29200000D01*
X41658000Y-29454000D01*
X41638000Y-29454000D01*
X41638000Y-30374750D01*
X41796750Y-30533500D01*
X41891309Y-30533500D01*
X42124698Y-30436827D01*
X42151235Y-30410291D01*
X42275110Y-30494931D01*
X42527000Y-30545940D01*
X43035000Y-30545940D01*
X43270317Y-30501662D01*
X43416907Y-30407334D01*
X43545110Y-30494931D01*
X43797000Y-30545940D01*
X44305000Y-30545940D01*
X44540317Y-30501662D01*
X44686907Y-30407334D01*
X44815110Y-30494931D01*
X45067000Y-30545940D01*
X45575000Y-30545940D01*
X45810317Y-30501662D01*
X46026441Y-30362590D01*
X46171431Y-30150390D01*
X46222440Y-29898500D01*
X46222440Y-28755500D01*
X46178162Y-28520183D01*
X46039090Y-28304059D01*
X45826890Y-28159069D01*
X45575000Y-28108060D01*
X45067000Y-28108060D01*
X44886000Y-28142118D01*
X44886000Y-27749000D01*
X46566220Y-27749000D01*
X46487569Y-27864110D01*
X46436560Y-28116000D01*
X46436560Y-29616000D01*
X46480838Y-29851317D01*
X46619910Y-30067441D01*
X46832110Y-30212431D01*
X46845197Y-30215081D01*
X46632559Y-30351910D01*
X46487569Y-30564110D01*
X46436560Y-30816000D01*
X46436560Y-32316000D01*
X46480838Y-32551317D01*
X46619910Y-32767441D01*
X46832110Y-32912431D01*
X46899000Y-32925977D01*
X46899000Y-33774000D01*
X45321000Y-33774000D01*
X45321000Y-32787750D01*
X45162250Y-32629000D01*
X43543000Y-32629000D01*
X43543000Y-32649000D01*
X43289000Y-32649000D01*
X43289000Y-32629000D01*
X41669750Y-32629000D01*
X41511000Y-32787750D01*
X41511000Y-33898310D01*
X41607673Y-34131699D01*
X41786302Y-34310327D01*
X42019691Y-34407000D01*
X42071524Y-34407000D01*
X42047113Y-34529720D01*
X42016890Y-34509069D01*
X41765000Y-34458060D01*
X41257000Y-34458060D01*
X41021683Y-34502338D01*
X40805559Y-34641410D01*
X40660569Y-34853610D01*
X40609560Y-35105500D01*
X40609560Y-36248500D01*
X40646688Y-36445820D01*
X40292042Y-36091174D01*
X40321440Y-35946000D01*
X40321440Y-34646000D01*
X40277162Y-34410683D01*
X40138090Y-34194559D01*
X39925890Y-34049569D01*
X39674000Y-33998560D01*
X38174000Y-33998560D01*
X37938683Y-34042838D01*
X37722559Y-34181910D01*
X37577569Y-34394110D01*
X37574919Y-34407197D01*
X37438090Y-34194559D01*
X37225890Y-34049569D01*
X36974000Y-33998560D01*
X35474000Y-33998560D01*
X35238683Y-34042838D01*
X35022559Y-34181910D01*
X34877569Y-34394110D01*
X34864023Y-34461000D01*
X34698630Y-34461000D01*
X34689162Y-34410683D01*
X34550090Y-34194559D01*
X34337890Y-34049569D01*
X34086000Y-33998560D01*
X34071000Y-33998560D01*
X34071000Y-33504446D01*
X34221317Y-33476162D01*
X34437441Y-33337090D01*
X34582431Y-33124890D01*
X34633440Y-32873000D01*
X34633440Y-32067000D01*
X34861370Y-32067000D01*
X34870838Y-32117317D01*
X35009910Y-32333441D01*
X35222110Y-32478431D01*
X35474000Y-32529440D01*
X36974000Y-32529440D01*
X37209317Y-32485162D01*
X37425441Y-32346090D01*
X37570431Y-32133890D01*
X37573081Y-32120803D01*
X37709910Y-32333441D01*
X37922110Y-32478431D01*
X38174000Y-32529440D01*
X39674000Y-32529440D01*
X39909317Y-32485162D01*
X40125441Y-32346090D01*
X40270431Y-32133890D01*
X40321440Y-31882000D01*
X40321440Y-31105690D01*
X41511000Y-31105690D01*
X41511000Y-32216250D01*
X41669750Y-32375000D01*
X43289000Y-32375000D01*
X43289000Y-30755750D01*
X43543000Y-30755750D01*
X43543000Y-32375000D01*
X45162250Y-32375000D01*
X45321000Y-32216250D01*
X45321000Y-31105690D01*
X45224327Y-30872301D01*
X45045698Y-30693673D01*
X44812309Y-30597000D01*
X43701750Y-30597000D01*
X43543000Y-30755750D01*
X43289000Y-30755750D01*
X43130250Y-30597000D01*
X42019691Y-30597000D01*
X41786302Y-30693673D01*
X41607673Y-30872301D01*
X41511000Y-31105690D01*
X40321440Y-31105690D01*
X40321440Y-30582000D01*
X40277162Y-30346683D01*
X40138090Y-30130559D01*
X39925890Y-29985569D01*
X39759000Y-29951773D01*
X39759000Y-29612750D01*
X40622000Y-29612750D01*
X40622000Y-30024810D01*
X40718673Y-30258199D01*
X40897302Y-30436827D01*
X41130691Y-30533500D01*
X41225250Y-30533500D01*
X41384000Y-30374750D01*
X41384000Y-29454000D01*
X40780750Y-29454000D01*
X40622000Y-29612750D01*
X39759000Y-29612750D01*
X39759000Y-27941868D01*
X40423488Y-27277380D01*
X40523910Y-27433441D01*
G36*
X9352560Y-26289428D02*
X9352560Y-26568000D01*
X9396838Y-26803317D01*
X9535910Y-27019441D01*
X9748110Y-27164431D01*
X9781490Y-27171191D01*
X9640301Y-27229673D01*
X9461673Y-27408302D01*
X9365000Y-27641691D01*
X9365000Y-28232250D01*
X9523750Y-28391000D01*
X10523000Y-28391000D01*
X10523000Y-28371000D01*
X10777000Y-28371000D01*
X10777000Y-28391000D01*
X11776250Y-28391000D01*
X11935000Y-28232250D01*
X11935000Y-27641691D01*
X11838327Y-27408302D01*
X11659699Y-27229673D01*
X11523713Y-27173346D01*
X11535317Y-27171162D01*
X11751441Y-27032090D01*
X11896431Y-26819890D01*
X11930227Y-26653000D01*
X12933560Y-26653000D01*
X12933560Y-26882000D01*
X12977838Y-27117317D01*
X13116910Y-27333441D01*
X13329110Y-27478431D01*
X13444023Y-27501701D01*
X13447516Y-27506930D01*
X13256683Y-27542838D01*
X13040559Y-27681910D01*
X12895569Y-27894110D01*
X12844560Y-28146000D01*
X12844560Y-29635000D01*
X11831025Y-29635000D01*
X11838327Y-29627698D01*
X11935000Y-29394309D01*
X11935000Y-28803750D01*
X11776250Y-28645000D01*
X10777000Y-28645000D01*
X10777000Y-28665000D01*
X10523000Y-28665000D01*
X10523000Y-28645000D01*
X9523750Y-28645000D01*
X9365000Y-28803750D01*
X9365000Y-29020132D01*
X8954434Y-28609566D01*
X8683541Y-28428561D01*
X8627099Y-28417334D01*
X8631679Y-25568547D01*
X9352560Y-26289428D01*
X9352560Y-26289428D01*
G37*
X9352560Y-26289428D02*
X9352560Y-26568000D01*
X9396838Y-26803317D01*
X9535910Y-27019441D01*
X9748110Y-27164431D01*
X9781490Y-27171191D01*
X9640301Y-27229673D01*
X9461673Y-27408302D01*
X9365000Y-27641691D01*
X9365000Y-28232250D01*
X9523750Y-28391000D01*
X10523000Y-28391000D01*
X10523000Y-28371000D01*
X10777000Y-28371000D01*
X10777000Y-28391000D01*
X11776250Y-28391000D01*
X11935000Y-28232250D01*
X11935000Y-27641691D01*
X11838327Y-27408302D01*
X11659699Y-27229673D01*
X11523713Y-27173346D01*
X11535317Y-27171162D01*
X11751441Y-27032090D01*
X11896431Y-26819890D01*
X11930227Y-26653000D01*
X12933560Y-26653000D01*
X12933560Y-26882000D01*
X12977838Y-27117317D01*
X13116910Y-27333441D01*
X13329110Y-27478431D01*
X13444023Y-27501701D01*
X13447516Y-27506930D01*
X13256683Y-27542838D01*
X13040559Y-27681910D01*
X12895569Y-27894110D01*
X12844560Y-28146000D01*
X12844560Y-29635000D01*
X11831025Y-29635000D01*
X11838327Y-29627698D01*
X11935000Y-29394309D01*
X11935000Y-28803750D01*
X11776250Y-28645000D01*
X10777000Y-28645000D01*
X10777000Y-28665000D01*
X10523000Y-28665000D01*
X10523000Y-28645000D01*
X9523750Y-28645000D01*
X9365000Y-28803750D01*
X9365000Y-29020132D01*
X8954434Y-28609566D01*
X8683541Y-28428561D01*
X8627099Y-28417334D01*
X8631679Y-25568547D01*
X9352560Y-26289428D01*
G36*
X9365000Y-21614309D02*
X9461673Y-21847698D01*
X9640301Y-22026327D01*
X9776287Y-22082654D01*
X9764683Y-22084838D01*
X9548559Y-22223910D01*
X9452156Y-22365000D01*
X8636830Y-22365000D01*
X8637693Y-21828078D01*
X8773401Y-21737401D01*
X9365000Y-21145802D01*
X9365000Y-21614309D01*
X9365000Y-21614309D01*
G37*
X9365000Y-21614309D02*
X9461673Y-21847698D01*
X9640301Y-22026327D01*
X9776287Y-22082654D01*
X9764683Y-22084838D01*
X9548559Y-22223910D01*
X9452156Y-22365000D01*
X8636830Y-22365000D01*
X8637693Y-21828078D01*
X8773401Y-21737401D01*
X9365000Y-21145802D01*
X9365000Y-21614309D01*
M02*
