G04 #@! TF.FileFunction,Legend,Bot*
%FSLAX46Y46*%
G04 Gerber Fmt 4.6, Leading zero omitted, Abs format (unit mm)*
G04 Created by KiCad (PCBNEW 4.0.1-3.201512221402+6198~38~ubuntu14.04.1-stable) date Tue 26 Jan 2016 10:17:27 AM EST*
%MOMM*%
G01*
G04 APERTURE LIST*
%ADD10C,0.100000*%
%ADD11C,0.150000*%
G04 APERTURE END LIST*
D10*
D11*
X31333600Y-28248400D02*
X32333600Y-28248400D01*
X32333600Y-29948400D02*
X31333600Y-29948400D01*
X31333600Y-23676400D02*
X32333600Y-23676400D01*
X32333600Y-25376400D02*
X31333600Y-25376400D01*
X37932800Y-28461600D02*
G75*
G03X37932800Y-28461600I-100000J0D01*
G01*
X38382800Y-28211600D02*
X37882800Y-28211600D01*
X38382800Y-25311600D02*
X38382800Y-28211600D01*
X37882800Y-25311600D02*
X38382800Y-25311600D01*
X37882800Y-28211600D02*
X37882800Y-25311600D01*
X37865200Y-21537200D02*
X37865200Y-22537200D01*
X36165200Y-22537200D02*
X36165200Y-21537200D01*
X43339800Y-16715900D02*
X40545800Y-16715900D01*
X43339800Y-16144400D02*
X43339800Y-19700400D01*
X43339800Y-19700400D02*
X40545800Y-19700400D01*
X40545800Y-19700400D02*
X40545800Y-16144400D01*
X40545800Y-16144400D02*
X43339800Y-16144400D01*
X16074200Y-7975200D02*
X16074200Y-9175200D01*
X17824200Y-9175200D02*
X17824200Y-7975200D01*
X43275000Y-26371000D02*
X43275000Y-25171000D01*
X41525000Y-25171000D02*
X41525000Y-26371000D01*
X45081000Y-22504000D02*
X45081000Y-23704000D01*
X46831000Y-23704000D02*
X46831000Y-22504000D01*
X32994000Y-38432000D02*
X31994000Y-38432000D01*
X31994000Y-36732000D02*
X32994000Y-36732000D01*
D10*
X7100000Y-29316667D02*
X7133333Y-29283333D01*
X7166667Y-29183333D01*
X7166667Y-29116667D01*
X7133333Y-29016667D01*
X7066667Y-28950000D01*
X7000000Y-28916667D01*
X6866667Y-28883333D01*
X6766667Y-28883333D01*
X6633333Y-28916667D01*
X6566667Y-28950000D01*
X6500000Y-29016667D01*
X6466667Y-29116667D01*
X6466667Y-29183333D01*
X6500000Y-29283333D01*
X6533333Y-29316667D01*
X7166667Y-29616667D02*
X6466667Y-29616667D01*
X7166667Y-30016667D01*
X6466667Y-30016667D01*
X7166667Y-30716666D02*
X7166667Y-30316666D01*
X7166667Y-30516666D02*
X6466667Y-30516666D01*
X6566667Y-30450000D01*
X6633333Y-30383333D01*
X6666667Y-30316666D01*
D11*
X32476457Y-27355543D02*
X32524076Y-27403162D01*
X32666933Y-27450781D01*
X32762171Y-27450781D01*
X32905029Y-27403162D01*
X33000267Y-27307924D01*
X33047886Y-27212686D01*
X33095505Y-27022210D01*
X33095505Y-26879352D01*
X33047886Y-26688876D01*
X33000267Y-26593638D01*
X32905029Y-26498400D01*
X32762171Y-26450781D01*
X32666933Y-26450781D01*
X32524076Y-26498400D01*
X32476457Y-26546019D01*
X31524076Y-27450781D02*
X32095505Y-27450781D01*
X31809791Y-27450781D02*
X31809791Y-26450781D01*
X31905029Y-26593638D01*
X32000267Y-26688876D01*
X32095505Y-26736495D01*
X30571695Y-27450781D02*
X31143124Y-27450781D01*
X30857410Y-27450781D02*
X30857410Y-26450781D01*
X30952648Y-26593638D01*
X31047886Y-26688876D01*
X31143124Y-26736495D01*
X32476457Y-22783543D02*
X32524076Y-22831162D01*
X32666933Y-22878781D01*
X32762171Y-22878781D01*
X32905029Y-22831162D01*
X33000267Y-22735924D01*
X33047886Y-22640686D01*
X33095505Y-22450210D01*
X33095505Y-22307352D01*
X33047886Y-22116876D01*
X33000267Y-22021638D01*
X32905029Y-21926400D01*
X32762171Y-21878781D01*
X32666933Y-21878781D01*
X32524076Y-21926400D01*
X32476457Y-21974019D01*
X31524076Y-22878781D02*
X32095505Y-22878781D01*
X31809791Y-22878781D02*
X31809791Y-21878781D01*
X31905029Y-22021638D01*
X32000267Y-22116876D01*
X32095505Y-22164495D01*
X31143124Y-21974019D02*
X31095505Y-21926400D01*
X31000267Y-21878781D01*
X30762171Y-21878781D01*
X30666933Y-21926400D01*
X30619314Y-21974019D01*
X30571695Y-22069257D01*
X30571695Y-22164495D01*
X30619314Y-22307352D01*
X31190743Y-22878781D01*
X30571695Y-22878781D01*
X38844705Y-28763981D02*
X38844705Y-29573505D01*
X38797086Y-29668743D01*
X38749467Y-29716362D01*
X38654229Y-29763981D01*
X38463752Y-29763981D01*
X38368514Y-29716362D01*
X38320895Y-29668743D01*
X38273276Y-29573505D01*
X38273276Y-28763981D01*
X37273276Y-29763981D02*
X37844705Y-29763981D01*
X37558991Y-29763981D02*
X37558991Y-28763981D01*
X37654229Y-28906838D01*
X37749467Y-29002076D01*
X37844705Y-29049695D01*
X39043771Y-21203867D02*
X39043771Y-20870533D01*
X39567581Y-20870533D02*
X38567581Y-20870533D01*
X38567581Y-21346724D01*
X39043771Y-22061010D02*
X39091390Y-22203867D01*
X39139010Y-22251486D01*
X39234248Y-22299105D01*
X39377105Y-22299105D01*
X39472343Y-22251486D01*
X39519962Y-22203867D01*
X39567581Y-22108629D01*
X39567581Y-21727676D01*
X38567581Y-21727676D01*
X38567581Y-22061010D01*
X38615200Y-22156248D01*
X38662819Y-22203867D01*
X38758057Y-22251486D01*
X38853295Y-22251486D01*
X38948533Y-22203867D01*
X38996152Y-22156248D01*
X39043771Y-22061010D01*
X39043771Y-21727676D01*
X38662819Y-22680057D02*
X38615200Y-22727676D01*
X38567581Y-22822914D01*
X38567581Y-23061010D01*
X38615200Y-23156248D01*
X38662819Y-23203867D01*
X38758057Y-23251486D01*
X38853295Y-23251486D01*
X38996152Y-23203867D01*
X39567581Y-22632438D01*
X39567581Y-23251486D01*
X44268443Y-17279543D02*
X44316062Y-17231924D01*
X44363681Y-17089067D01*
X44363681Y-16993829D01*
X44316062Y-16850971D01*
X44220824Y-16755733D01*
X44125586Y-16708114D01*
X43935110Y-16660495D01*
X43792252Y-16660495D01*
X43601776Y-16708114D01*
X43506538Y-16755733D01*
X43411300Y-16850971D01*
X43363681Y-16993829D01*
X43363681Y-17089067D01*
X43411300Y-17231924D01*
X43458919Y-17279543D01*
X44363681Y-18231924D02*
X44363681Y-17660495D01*
X44363681Y-17946209D02*
X43363681Y-17946209D01*
X43506538Y-17850971D01*
X43601776Y-17755733D01*
X43649395Y-17660495D01*
X43363681Y-18565257D02*
X43363681Y-19184305D01*
X43744633Y-18850971D01*
X43744633Y-18993829D01*
X43792252Y-19089067D01*
X43839871Y-19136686D01*
X43935110Y-19184305D01*
X44173205Y-19184305D01*
X44268443Y-19136686D01*
X44316062Y-19089067D01*
X44363681Y-18993829D01*
X44363681Y-18708114D01*
X44316062Y-18612876D01*
X44268443Y-18565257D01*
X19501581Y-8408534D02*
X19025390Y-8075200D01*
X19501581Y-7837105D02*
X18501581Y-7837105D01*
X18501581Y-8218058D01*
X18549200Y-8313296D01*
X18596819Y-8360915D01*
X18692057Y-8408534D01*
X18834914Y-8408534D01*
X18930152Y-8360915D01*
X18977771Y-8313296D01*
X19025390Y-8218058D01*
X19025390Y-7837105D01*
X18501581Y-8741867D02*
X18501581Y-9360915D01*
X18882533Y-9027581D01*
X18882533Y-9170439D01*
X18930152Y-9265677D01*
X18977771Y-9313296D01*
X19073010Y-9360915D01*
X19311105Y-9360915D01*
X19406343Y-9313296D01*
X19453962Y-9265677D01*
X19501581Y-9170439D01*
X19501581Y-8884724D01*
X19453962Y-8789486D01*
X19406343Y-8741867D01*
X40752381Y-25604334D02*
X40276190Y-25271000D01*
X40752381Y-25032905D02*
X39752381Y-25032905D01*
X39752381Y-25413858D01*
X39800000Y-25509096D01*
X39847619Y-25556715D01*
X39942857Y-25604334D01*
X40085714Y-25604334D01*
X40180952Y-25556715D01*
X40228571Y-25509096D01*
X40276190Y-25413858D01*
X40276190Y-25032905D01*
X40085714Y-26461477D02*
X40752381Y-26461477D01*
X39704762Y-26223381D02*
X40419048Y-25985286D01*
X40419048Y-26604334D01*
X48508381Y-22937334D02*
X48032190Y-22604000D01*
X48508381Y-22365905D02*
X47508381Y-22365905D01*
X47508381Y-22746858D01*
X47556000Y-22842096D01*
X47603619Y-22889715D01*
X47698857Y-22937334D01*
X47841714Y-22937334D01*
X47936952Y-22889715D01*
X47984571Y-22842096D01*
X48032190Y-22746858D01*
X48032190Y-22365905D01*
X47508381Y-23842096D02*
X47508381Y-23365905D01*
X47984571Y-23318286D01*
X47936952Y-23365905D01*
X47889333Y-23461143D01*
X47889333Y-23699239D01*
X47936952Y-23794477D01*
X47984571Y-23842096D01*
X48079810Y-23889715D01*
X48317905Y-23889715D01*
X48413143Y-23842096D01*
X48460762Y-23794477D01*
X48508381Y-23699239D01*
X48508381Y-23461143D01*
X48460762Y-23365905D01*
X48413143Y-23318286D01*
X33136857Y-40039143D02*
X33184476Y-40086762D01*
X33327333Y-40134381D01*
X33422571Y-40134381D01*
X33565429Y-40086762D01*
X33660667Y-39991524D01*
X33708286Y-39896286D01*
X33755905Y-39705810D01*
X33755905Y-39562952D01*
X33708286Y-39372476D01*
X33660667Y-39277238D01*
X33565429Y-39182000D01*
X33422571Y-39134381D01*
X33327333Y-39134381D01*
X33184476Y-39182000D01*
X33136857Y-39229619D01*
X32184476Y-40134381D02*
X32755905Y-40134381D01*
X32470191Y-40134381D02*
X32470191Y-39134381D01*
X32565429Y-39277238D01*
X32660667Y-39372476D01*
X32755905Y-39420095D01*
X31327333Y-39467714D02*
X31327333Y-40134381D01*
X31565429Y-39086762D02*
X31803524Y-39801048D01*
X31184476Y-39801048D01*
M02*
