M48
;DRILL file {KiCad 4.0.1-3.201512221402+6198~38~ubuntu14.04.1-stable} date Tue 26 Jan 2016 10:17:50 AM EST
;FORMAT={3:3/ absolute / metric / keep zeros}
FMAT,2
METRIC,TZ
T1C0.508
T2C0.635
T3C0.762
T4C0.900
T5C0.998
T6C1.100
T7C1.200
T8C1.270
T9C1.524
T10C1.600
T11C3.900
%
G90
G05
M71
T1
X006840Y-028184
X006850Y-022200
X006850Y-025200
X019032Y-032629
X019540Y-012741
X020708Y-017973
X025636Y-015992
X026144Y-039868
X028684Y-033772
X028938Y-013579
X030970Y-040122
X043670Y-038090
T2
X014841Y-017389
X017000Y-012741
X019286Y-040122
X022080Y-040122
X034018Y-040122
X036685Y-040122
T3
X032240Y-010404
X032240Y-012944
T4
X011158Y-032502
X011158Y-040122
X013698Y-040122
X016238Y-032502
X016238Y-040122
X034780Y-010404
X034780Y-012944
X037320Y-010404
X037320Y-012944
X039860Y-010404
X039860Y-012944
X042400Y-010404
X042400Y-012944
X044940Y-010404
X044940Y-012944
X047480Y-010404
X047480Y-012944
T5
X045600Y-016856
X045600Y-019396
T6
X014206Y-048568
X019286Y-048568
X024366Y-048568
X028430Y-048568
X033510Y-048568
X038590Y-048568
T7
X013698Y-032502
T8
X043416Y-032502
T9
X019286Y-046028
X033510Y-046028
T10
X016746Y-043488
X016746Y-048568
X021826Y-043488
X021826Y-048568
X030970Y-043488
X030970Y-048568
X036050Y-043488
X036050Y-048568
T11
X046050Y-003899
X046050Y-046000
T0
M30
