G04 #@! TF.FileFunction,Soldermask,Bot*
%FSLAX46Y46*%
G04 Gerber Fmt 4.6, Leading zero omitted, Abs format (unit mm)*
G04 Created by KiCad (PCBNEW 4.0.1-3.201512221402+6198~38~ubuntu14.04.1-stable) date Tue 26 Jan 2016 10:17:27 AM EST*
%MOMM*%
G01*
G04 APERTURE LIST*
%ADD10C,0.100000*%
%ADD11R,1.952400X1.952400*%
%ADD12C,1.952400*%
%ADD13R,4.352400X0.852400*%
%ADD14C,2.252400*%
%ADD15R,1.652400X1.402400*%
%ADD16R,1.212400X0.802400*%
%ADD17C,1.295400*%
%ADD18R,1.402400X1.652400*%
%ADD19O,3.167380X1.658620*%
%ADD20R,4.112400X7.696200*%
%ADD21C,2.184400*%
%ADD22R,2.651760X2.103120*%
%ADD23R,1.452400X1.652400*%
%ADD24R,2.692400X2.692400*%
%ADD25C,6.502400*%
%ADD26C,1.168400*%
G04 APERTURE END LIST*
D10*
D11*
X47480000Y-10404000D03*
D12*
X44940000Y-10404000D03*
X42400000Y-10404000D03*
X39860000Y-10404000D03*
X37320000Y-10404000D03*
X34780000Y-10404000D03*
X47480000Y-12944000D03*
X44940000Y-12944000D03*
X42400000Y-12944000D03*
X39860000Y-12944000D03*
X37320000Y-12944000D03*
X34780000Y-12944000D03*
X32240000Y-12944000D03*
X32240000Y-10404000D03*
D13*
X3550000Y-31200000D03*
X3550000Y-30200000D03*
X3550000Y-29200000D03*
X3550000Y-28200000D03*
X3550000Y-27200000D03*
X3550000Y-26200000D03*
X3550000Y-25200000D03*
X3550000Y-24200000D03*
X3550000Y-23200000D03*
X3550000Y-22200000D03*
X3550000Y-21200000D03*
X3550000Y-18200000D03*
X3550000Y-17200000D03*
X3550000Y-16200000D03*
X3550000Y-15200000D03*
X3550000Y-14200000D03*
X3550000Y-13200000D03*
X3550000Y-12200000D03*
D12*
X13698000Y-40122000D03*
X16238000Y-32502000D03*
D14*
X13698000Y-32502000D03*
D12*
X11158000Y-32502000D03*
X11158000Y-40122000D03*
X16238000Y-40122000D03*
D15*
X33083600Y-29098400D03*
X30583600Y-29098400D03*
X33083600Y-24526400D03*
X30583600Y-24526400D03*
D16*
X37032800Y-27711600D03*
X37032800Y-26761600D03*
X37032800Y-25811600D03*
X39232800Y-25811600D03*
X39232800Y-27711600D03*
D17*
X36685000Y-40122000D03*
X22080000Y-40122000D03*
X19286000Y-40122000D03*
X34018000Y-40122000D03*
X14841000Y-17389000D03*
D18*
X37015200Y-23287200D03*
X37015200Y-20787200D03*
D19*
X45600400Y-19395600D03*
X45600400Y-16855600D03*
D12*
X28430000Y-48567500D03*
X38590000Y-48567500D03*
D20*
X37130000Y-45925900D03*
X29890000Y-45925900D03*
D21*
X30970000Y-48567500D03*
X36050000Y-48567500D03*
D12*
X33510000Y-48567500D03*
D21*
X36050000Y-43487500D03*
X30970000Y-43487500D03*
X33510000Y-46027500D03*
D12*
X14206000Y-48567500D03*
X24366000Y-48567500D03*
D20*
X22906000Y-45925900D03*
X15666000Y-45925900D03*
D21*
X16746000Y-48567500D03*
X21826000Y-48567500D03*
D12*
X19286000Y-48567500D03*
D21*
X21826000Y-43487500D03*
X16746000Y-43487500D03*
X19286000Y-46027500D03*
D22*
X41942800Y-16398400D03*
X41942800Y-19446400D03*
D23*
X16949200Y-9925200D03*
X16949200Y-7225200D03*
X42400000Y-24421000D03*
X42400000Y-27121000D03*
X45956000Y-24454000D03*
X45956000Y-21754000D03*
D15*
X31244000Y-37582000D03*
X33744000Y-37582000D03*
D24*
X43416000Y-32502000D03*
D25*
X46049980Y-3899060D03*
X46049980Y-45999560D03*
D26*
X26144000Y-39868000D03*
X25636000Y-15992000D03*
D17*
X17000000Y-12740800D03*
D26*
X6850000Y-25200000D03*
X6840000Y-28184000D03*
X6850000Y-22200000D03*
X30970000Y-40122000D03*
X19540000Y-12740800D03*
X28938000Y-13579000D03*
X20708400Y-17973200D03*
X43670000Y-38090000D03*
M02*
