G04 #@! TF.FileFunction,Soldermask,Top*
%FSLAX46Y46*%
G04 Gerber Fmt 4.6, Leading zero omitted, Abs format (unit mm)*
G04 Created by KiCad (PCBNEW 4.0.1-3.201512221402+6198~38~ubuntu14.04.1-stable) date Tue 26 Jan 2016 10:17:27 AM EST*
%MOMM*%
G01*
G04 APERTURE LIST*
%ADD10C,0.100000*%
%ADD11R,1.952400X1.952400*%
%ADD12C,1.952400*%
%ADD13R,4.352400X0.852400*%
%ADD14R,2.352400X0.752400*%
%ADD15R,1.153160X0.751840*%
%ADD16R,1.652400X1.452400*%
%ADD17R,1.452400X1.652400*%
%ADD18R,1.803400X2.692400*%
%ADD19R,1.802400X2.692400*%
%ADD20R,1.168400X1.676400*%
%ADD21R,1.167400X1.802400*%
%ADD22R,0.912400X1.802400*%
%ADD23R,1.802400X2.152400*%
%ADD24C,2.252400*%
%ADD25R,1.402400X1.652400*%
%ADD26R,1.652400X1.402400*%
%ADD27C,1.295400*%
%ADD28R,0.552400X1.152400*%
%ADD29O,3.167380X1.658620*%
%ADD30R,1.952400X5.152400*%
%ADD31R,4.112400X7.696200*%
%ADD32C,2.184400*%
%ADD33R,2.652400X1.752400*%
%ADD34R,1.752400X2.652400*%
%ADD35R,0.660400X1.295400*%
%ADD36R,2.692400X2.692400*%
%ADD37C,6.502400*%
%ADD38C,1.168400*%
G04 APERTURE END LIST*
D10*
D11*
X47480000Y-10404000D03*
D12*
X44940000Y-10404000D03*
X42400000Y-10404000D03*
X39860000Y-10404000D03*
X37320000Y-10404000D03*
X34780000Y-10404000D03*
X47480000Y-12944000D03*
X44940000Y-12944000D03*
X42400000Y-12944000D03*
X39860000Y-12944000D03*
X37320000Y-12944000D03*
X34780000Y-12944000D03*
X32240000Y-12944000D03*
X32240000Y-10404000D03*
D13*
X3550000Y-31200000D03*
X3550000Y-30200000D03*
X3550000Y-29200000D03*
X3550000Y-28200000D03*
X3550000Y-27200000D03*
X3550000Y-26200000D03*
X3550000Y-25200000D03*
X3550000Y-24200000D03*
X3550000Y-23200000D03*
X3550000Y-22200000D03*
X3550000Y-21200000D03*
X3550000Y-18200000D03*
X3550000Y-17200000D03*
X3550000Y-16200000D03*
X3550000Y-15200000D03*
X3550000Y-14200000D03*
X3550000Y-13200000D03*
X3550000Y-12200000D03*
D14*
X14550000Y-4720000D03*
X14550000Y-5990000D03*
X14550000Y-7260000D03*
X14550000Y-8530000D03*
X14550000Y-9800000D03*
X14550000Y-11070000D03*
X14550000Y-12340000D03*
X14550000Y-13610000D03*
X14550000Y-14880000D03*
X23750000Y-4720000D03*
X23750000Y-5990000D03*
X23750000Y-7260000D03*
X23750000Y-8530000D03*
X23750000Y-9800000D03*
X23750000Y-11070000D03*
X23750000Y-12340000D03*
X23750000Y-13610000D03*
X23750000Y-14880000D03*
D15*
X27243820Y-35296000D03*
X25044180Y-35296000D03*
D16*
X33336000Y-35296000D03*
X30636000Y-35296000D03*
D17*
X44432000Y-22262000D03*
X44432000Y-24962000D03*
X41638000Y-23532000D03*
X41638000Y-26232000D03*
D16*
X38924000Y-31232000D03*
X36224000Y-31232000D03*
D17*
X47734000Y-28866000D03*
X47734000Y-31566000D03*
D16*
X38924000Y-35296000D03*
X36224000Y-35296000D03*
D17*
X47734000Y-39694000D03*
X47734000Y-36994000D03*
D12*
X13698000Y-40122000D03*
D18*
X11158000Y-38852000D03*
X16238000Y-38852000D03*
D19*
X11158000Y-33772000D03*
D10*
G36*
X13241800Y-35118200D02*
X12791800Y-32425800D01*
X14604200Y-32425800D01*
X14154200Y-35118200D01*
X13241800Y-35118200D01*
X13241800Y-35118200D01*
G37*
D19*
X16238000Y-33772000D03*
D20*
X12224800Y-38344000D03*
X15171200Y-38344000D03*
D21*
X12300500Y-35862000D03*
D22*
X13698000Y-35862000D03*
D21*
X15095500Y-35862000D03*
D10*
G36*
X11793000Y-35856870D02*
X10978130Y-35042000D01*
X11793000Y-34227130D01*
X12607870Y-35042000D01*
X11793000Y-35856870D01*
X11793000Y-35856870D01*
G37*
G36*
X15603000Y-35856870D02*
X14788130Y-35042000D01*
X15603000Y-34227130D01*
X16417870Y-35042000D01*
X15603000Y-35856870D01*
X15603000Y-35856870D01*
G37*
D23*
X13698000Y-33502000D03*
D12*
X16238000Y-32502000D03*
D24*
X13698000Y-32502000D03*
D12*
X11158000Y-32502000D03*
X11158000Y-40122000D03*
X16238000Y-40122000D03*
D25*
X14206000Y-23632000D03*
X14206000Y-26132000D03*
X19032000Y-23632000D03*
X19032000Y-26132000D03*
X27668000Y-23632000D03*
X27668000Y-26132000D03*
X32240000Y-23632000D03*
X32240000Y-26132000D03*
D26*
X38570000Y-20818000D03*
X36070000Y-20818000D03*
D25*
X36812000Y-23632000D03*
X36812000Y-26132000D03*
D26*
X33236000Y-32248000D03*
X30736000Y-32248000D03*
X41364000Y-38344000D03*
X38864000Y-38344000D03*
D25*
X19286000Y-35316000D03*
X19286000Y-37816000D03*
X22080000Y-37816000D03*
X22080000Y-35316000D03*
D17*
X10650000Y-28518000D03*
X10650000Y-25818000D03*
X10650000Y-23438000D03*
X10650000Y-20738000D03*
D26*
X40896000Y-40884000D03*
X43396000Y-40884000D03*
D27*
X36685000Y-40122000D03*
X22080000Y-40122000D03*
X19286000Y-40122000D03*
X34018000Y-40122000D03*
D28*
X28938000Y-38090000D03*
X28288000Y-38090000D03*
X27638000Y-38090000D03*
X27638000Y-40040000D03*
X28288000Y-40040000D03*
X28938000Y-40040000D03*
D27*
X14841000Y-17389000D03*
D29*
X45600400Y-19395600D03*
X45600400Y-16855600D03*
D12*
X28430000Y-48567500D03*
X38590000Y-48567500D03*
D30*
X33510000Y-47187500D03*
D31*
X37130000Y-45925900D03*
X29890000Y-45925900D03*
D32*
X30970000Y-48567500D03*
X36050000Y-48567500D03*
D12*
X33510000Y-48567500D03*
D32*
X36050000Y-43487500D03*
X30970000Y-43487500D03*
X33510000Y-46027500D03*
D12*
X14206000Y-48567500D03*
X24366000Y-48567500D03*
D30*
X19286000Y-47187500D03*
D31*
X22906000Y-45925900D03*
X15666000Y-45925900D03*
D32*
X16746000Y-48567500D03*
X21826000Y-48567500D03*
D12*
X19286000Y-48567500D03*
D32*
X21826000Y-43487500D03*
X16746000Y-43487500D03*
X19286000Y-46027500D03*
D33*
X14742000Y-20818000D03*
X18242000Y-20818000D03*
X18242000Y-28946000D03*
X14742000Y-28946000D03*
D34*
X22842000Y-21354000D03*
X22842000Y-24854000D03*
X22842000Y-31966000D03*
X22842000Y-28466000D03*
D33*
X28204000Y-20818000D03*
X31704000Y-20818000D03*
X28204000Y-28946000D03*
X31704000Y-28946000D03*
D35*
X45321000Y-35677000D03*
X44051000Y-35677000D03*
X42781000Y-35677000D03*
X41511000Y-35677000D03*
X41511000Y-29327000D03*
X42781000Y-29327000D03*
X44051000Y-29327000D03*
X45321000Y-29327000D03*
D36*
X43416000Y-32502000D03*
D37*
X46049980Y-3899060D03*
X46049980Y-45999560D03*
D38*
X26144000Y-39868000D03*
X25636000Y-15992000D03*
D27*
X17000000Y-12740800D03*
D38*
X6850000Y-25200000D03*
X6840000Y-28184000D03*
X6850000Y-22200000D03*
X30970000Y-40122000D03*
X19540000Y-12740800D03*
X28938000Y-13579000D03*
X20708400Y-17973200D03*
X43670000Y-38090000D03*
M02*
